<svg id="Episod_6" data-name="Episod 6" xmlns="http://www.w3.org/2000/svg" width="2567.59" height="157.35" viewBox="0 0 2567.59 157.35"><defs><style>.cls-1{fill:#594e41;}</style></defs><polygon class="cls-1" points="2224.4 32.02 2222.88 40.37 2219.84 41.63 2220.1 47.7 2218.58 47.7 2216.05 50.49 2217.06 56.3 2212.26 57.06 2213.77 72.23 2224.4 89.17 2233.75 99.04 2265.61 110.92 2274.21 114.21 2278 108.14 2284.58 111.43 2275.73 128.62 2268.14 126.1 2271.94 119.01 2234 102.07 2228.95 101.31 2217.82 97.77 2213.77 92.46 2208.72 90.44 2203.66 112.69 2201.64 114.97 2201.38 119.27 2198.85 122.55 2199.87 144.3 2205.68 149.36 2212.51 151.89 2212.51 155.18 2191.01 155.18 2189.5 146.83 2184.69 127.36 2182.17 124.58 2177.36 127.86 2172.55 140.76 2172.05 150.62 2175.34 153.41 2175.34 156.95 2161.93 156.95 2160.67 149.61 2163.2 134.44 2168.26 119.27 2168 110.67 2174.07 101.31 2168.51 99.54 2173.57 86.9 2179.64 75.01 2182.92 62.62 2196.58 44.92 2198.85 45.68 2201.38 41.89 2203.15 41.38 2204.92 37.84 2202.65 37.34 2202.65 29.75 2208.46 27.22 2221.87 29.5 2224.4 32.02"/><path class="cls-1" d="M1868.21,754.17h352.14l-14.26-20.88s-107.27-12.86-115.36-24.1S2026,649.75,2026,649.75s-18.21-19.29-36.43-4.86-30.25,30.53-38.34,40.23-60.72,37-60.72,37Z" transform="translate(347.24 -597.67)"/><path class="cls-1" d="M-318.11,754.36H-60.35l-46.48-15.76-34.86-20.74-51.77-22.44s-32.74,12.45-41.19,19.08-16.9,16.59-21.13,17.42-12.74,8.3-22.19,9.13S-318.11,754.36-318.11,754.36Z" transform="translate(347.24 -597.67)"/><path class="cls-1" d="M-346.22,749.76h17.63a1,1,0,0,0,.94-1.39l-.1-.26a1,1,0,0,0-.48-.52l-3.32-1.73a1.21,1.21,0,0,1-.3-.25l-3.69-4.34a1,1,0,0,1-.14-1.1l5.57-11.52v-1l5.77-9.89a1,1,0,0,1,.66-.48l12.38-2.72a.7.7,0,0,0,.19-.06l7.42-3.2a1,1,0,0,1,1.4,1.13l-1.62,8.34a.59.59,0,0,0,0,.13l-1.55,26.29a1,1,0,0,0,1,1.07h15.34a1,1,0,0,0,1-1.13l-.2-1.76a1,1,0,0,0-.54-.79l-6.9-3.62a1,1,0,0,1-.51-1.13l4.23-17.67a1,1,0,0,0,0-.24V707.81a1,1,0,0,1,.07-.38l.6-1.5a1,1,0,0,0,0-.65l-1.3-4.63a.19.19,0,0,1,0-.07l-.72-3.51a1,1,0,0,1,1.71-.92h0a.91.91,0,0,1,.28.54l.66,3.75a1,1,0,0,0,.64.78l2.51.94a.87.87,0,0,1,.31.18L-234.83,748a1,1,0,0,0,.67.25h2.81a1,1,0,0,0,.68-1.77l-53.2-47.59a1,1,0,0,1-.34-.64l-.34-3.16a1,1,0,0,0,0-.17l-.79-2.72a1,1,0,0,1,.31-1l.42-.36a1,1,0,0,0,.31-1L-288,677.26a.19.19,0,0,1,0-.07l-2.81-13.26s0,0,0-.06l-1.73-6.25a1,1,0,0,1,0-.42l.3-2.13a1,1,0,0,1,.48-.73l.83-.5a1,1,0,0,0,.41-1.27l-1.8-4.25a1.15,1.15,0,0,0-.21-.33l-3.46-3.45a1,1,0,0,1-.26-1l.63-2.54a.85.85,0,0,1,.11-.26l1-1.78a1,1,0,0,0,0-1l-.87-1.45,0-.07-.71-1.4a.87.87,0,0,0-.23-.31l-3.08-2.69a1.15,1.15,0,0,0-.47-.23l-7.53-1.5a1,1,0,0,0-.54,0l-1.69.62a1,1,0,0,0-.44.31l-6.95,8.49a.93.93,0,0,1-.33.26l-2.56,1.28-.12.07-5.62,3.84a1,1,0,0,0-.28.3c-.95,1.54-7.76,12.58-7.76,13.13s-3.4,9.19-4.11,11a1,1,0,0,0,0,.66l1,3.18a1,1,0,0,0,.62.66l4.7,1.72a1,1,0,0,1,.64,1.22l-4.83,18a1,1,0,0,0,.4,1.09l.23.17a1,1,0,0,1,.38,1.13l-2.78,8.8a1,1,0,0,0,0,.34l.19,6.37a1,1,0,0,0,.18.55l1.86,2.63a1.05,1.05,0,0,1,0,1.13l-3.85,6.12a1.06,1.06,0,0,1-.66.45l-1,.2a1,1,0,0,0-.78.74L-346,742.49a.43.43,0,0,0,0,0l-1.16,6A1,1,0,0,0-346.22,749.76Z" transform="translate(347.24 -597.67)"/><path class="cls-1" d="M145.67,621.43,183,618.28l.23-1.49-1-3.28,4-5,3.77-2.27,4.79-.5,2.77,2,1.26,1.76,1,2.52.76,2.27-.34,2.55,6.84-.57,2.06-1.48,1.51-3.27,4-1.51,8.31.25,4.53,2.77v1.51l47.78-4v-.07l-.94-3.77,2.83-2.83,2.2-1.25h2.2s2.51.62,3.46.94,2.2.63,2.2.63H291l3.77.94,1.22,3.66,20.3-1.71,5.5,2.54,1.27,5.08v4.66l-.42,5.93-14.5,1.15,3.92,7.29-.32,6.6,1.89,4.09v6.92l-1.89,2.82-5.65,1.58-7.86-7.55L298,663.23l-2.51,2.2-.94,4.09,2.83,1.57.62,5.34,3.15,8.49,3.14,15.71-4.09,1,1.26,8.17v8.8l-.63,6.29-2.51,6.28-6,12.26,7.54,6.6-.31,4.4H286.32l-.62-5L278.15,744l-.63-4.4,6.92-13.2,3.14-7.54-3.14-9.43c-.32-1-2.2,4.08-2.2,4.08l-5.66,12L276.27,739l.31,6.29,7.23,5.34.63,3.46-21.38.31-.62-27,.94-8.8,4.4-15.09-6.92-4.08,6.29-27,1.89-5.66-2.52-2.83,1.26-7.86L264,659.14l-4.09,10.69-5.34,10.06,1.25,3.14v7.23S254.26,689,253,690l-1.89-.63-3.77-2.52-2.52-4.08,2.83-3.77-2.2-1.89-.94-3.46,10.69-27.66,4.71-6.91.94-4.72,5.82-6.9L243.62,629l1,3.95.76,5.29c1.51,2,2.77,13.85,2.77,13.85l-4.28,8.31-6.8-1.77,2.27,14.36s7,20.39,6.54,21.4,3.78,13.09,3.78,13.09l2.77,9.82-8.31,2.52L243.9,722l-4.79,1.26-2.77,13.09-.25,13.09s10.58,1.26,10.83,2a7.9,7.9,0,0,1-.25,2.77l-43.81.75,2.51-12.08,5.54-22.41-.25-18.38L210.41,684l.25-11.08-1.51-9.57-4-11.33-2.26-1.26-1,1-.76,9.82-2.52,6.29-1,2.52,3.52,7.05-3-1,2.27,5.54.75,9.07,2,10.07-5.54-.25s-1.77,8.56-2.52,8.81-3.27,6.29-3.27,6.29-1.77.76-2,1.52-.75,7.55-.75,7.55l.5,13.85.5,15.61-22.91.25,6.8-17.62,1.26-15.87-2.52-4.53.75-7.3-3.27-8.31-5.29-2.77-2-3.27,2.77-7.56s2-15.36,2.77-15.61,3.52-4.53,3.52-4.53l-.25-1.77c-1-1.51-1-8.3-1-8.3l-2.52-4-1.77-6,1.52-5.28,2.51-5,.34-2-20,.91-4.66.42-3-5.93-.85-6.35Zm63,16.51,2.81-4.87-7.35.33Z" transform="translate(347.24 -597.67)"/><path class="cls-1" d="M1141.34,725.36l-24.33-13,.67-5.14,3.25-3.54,8.56-3-.59-6.49-5-13.88-6.5-6.2-3.84-3.84s-8-9.16-8.85-9.45-3.25-3-3.25-3l-7.39-1.77-8.56-.59-1.77-.89,1.47-2.95-1.47-3-2.66-4.43-2.66-1.77-4.72.59-4.43,1.77-5.32,3-3.84,3.84-1.47,4.14,4.13,8,3.25-.59,2.36,2.95.59,1.77,1.77,5.61,6.21,14.77-.09,2.57-29.23-15.63-.41-5,1.21-1.81,1.51-6.63,3.62-4.22,3.92-4.83,1.2-5.12-1.2-5.13-4.53-6.93-2.11-3v-3.62h2.42l3.92-2.71,3-4.22-.3-5.43-3.32-6.63-6.33-4.83h-8.74l-2.72,2.11-2.41,5.73,1.51,3.32.3,2.41,1.21,1.81-.91,1.51-1.21,3.62-.14,2.73-8.6,1.19-4.22,2.11-2.11,3-3.32,3.32-3.31,3.31-5.43,2.42-.61,2.11-2.41,2.11-.5,5.41-58.09-31.06-.68-2.72-5.74-4.25-2.84,2-.28-.14-1.34-2.31-.6,1.27-2.46-1.32-2.39,3.53-1.78.13-1.06-4.67-.64-3,1.7-2.33-3.4-8.29-3.4-2.34-3.82-.21-4,1.06-7.65,5.95L906,607.44l3.4,9.14,3.4,1.49.85,3-2.34.64.85,4.67-3.61,3.19-3,4.68s1.28,10.62,1.28,11.26,5.52,15.93,5.52,15.93l1.49,12.33.64,36.54,3.82.85,2.26-.49c-1.08,2.62-2.9,6.86-2.9,6.86l1.92,4-8.08,29.12,15.73.43-1.28-4.25,3.82-22.11,6.17-7.65V722L934,751.51l18.91-.21-.63-3-5.1-1.49L947,731.32l.42-7,.21-3.82,1.06-5.31,2.34-9.78s-2.12-3.4-2.12-4.25a.54.54,0,0,0,0-.12c3-1.34,5.42-2.36,5.77-2.43,1.07-.21-8.49-22.73-8.49-22.73L941,651.43s4.55-7.2,6.45-9.75l57.82,30.49.6,3.2,2.71,2.41-.3,5.73,1.51,8.14-.61,10.85-1.2,3.92.3,29.55.9,16.59,9.95-.31V726.32l1.51-13.56,2.71-3.92,4.23-16,11.76,14.47-.31,9,3.32,5.43v28l17.79.3-.6-3-7.54-3.32,2.41-22.61c1.81,0,1.21-16.28,1.21-16.28l-.61-6-.2-.6,17.47,9.21-2.18,3.26,3,9.45,1.18,9.75,4.13,10.93,3,5.61-7.68,3.25-1.48,3.54h21.56l-2.07-5-3.84-13,.3-7.09-3.25-10.34,4.37-1.4,15.27,8c.39,2.14.74,4,.74,4l7.67,9.45,4.73,7.09-1.18,3.84-2.66,4.43h18.31l-6.79-13.58-.75-4.63,9.58,5Z" transform="translate(347.24 -597.67)"/></svg>