<svg id="Episod_6" data-name="Episod 6" xmlns="http://www.w3.org/2000/svg" xmlns:xlink="http://www.w3.org/1999/xlink" width="2612.03" height="343.53" viewBox="0 0 2612.03 343.53"><defs><style>.cls-1{fill:url(#linear-gradient);}.cls-2{fill:url(#linear-gradient-2);}.cls-3{fill:url(#linear-gradient-3);}.cls-4{fill:url(#linear-gradient-4);}.cls-5{fill:url(#linear-gradient-5);}.cls-6{fill:url(#linear-gradient-6);}.cls-7{fill:url(#linear-gradient-7);}.cls-8{fill:url(#linear-gradient-8);}.cls-9{fill:url(#linear-gradient-9);}.cls-10{fill:url(#linear-gradient-10);}.cls-11{fill:url(#linear-gradient-11);}.cls-12{fill:url(#linear-gradient-12);}.cls-13{fill:url(#linear-gradient-13);}.cls-14{fill:url(#linear-gradient-14);}.cls-15{fill:url(#linear-gradient-15);}.cls-16{fill:url(#linear-gradient-16);}.cls-17{fill:url(#linear-gradient-17);}.cls-18{fill:url(#linear-gradient-18);}.cls-19{fill:url(#linear-gradient-19);}.cls-20{fill:url(#linear-gradient-20);}.cls-21{fill:url(#linear-gradient-21);}.cls-22{fill:url(#linear-gradient-22);}.cls-23{fill:url(#linear-gradient-23);}.cls-24{fill:url(#linear-gradient-24);}.cls-25{fill:url(#linear-gradient-25);}.cls-26{fill:url(#linear-gradient-26);}.cls-27{fill:url(#linear-gradient-27);}.cls-28{fill:url(#linear-gradient-28);}.cls-29{fill:url(#linear-gradient-29);}.cls-30{fill:url(#linear-gradient-30);}.cls-31{fill:url(#linear-gradient-31);}.cls-32{fill:url(#linear-gradient-32);}.cls-33{fill:url(#linear-gradient-33);}.cls-34{fill:url(#linear-gradient-34);}.cls-35{fill:url(#linear-gradient-35);}.cls-36{fill:url(#linear-gradient-36);}.cls-37{fill:url(#linear-gradient-37);}.cls-38{fill:url(#linear-gradient-38);}.cls-39{fill:url(#linear-gradient-39);}.cls-40{fill:url(#linear-gradient-40);}.cls-41{fill:#706151;}.cls-42{fill:url(#linear-gradient-41);}.cls-43{fill:#615446;}.cls-44{fill:url(#linear-gradient-42);}.cls-45{fill:url(#linear-gradient-43);}.cls-46{fill:#695c4c;}</style><linearGradient id="linear-gradient" y1="244.56" x2="14.22" y2="244.56" gradientUnits="userSpaceOnUse"><stop offset="0" stop-color="#82715f"/><stop offset="0.68" stop-color="#594e41"/><stop offset="1" stop-color="#82715f"/></linearGradient><linearGradient id="linear-gradient-2" x1="151.24" y1="244.56" x2="165.46" y2="244.56" xlink:href="#linear-gradient"/><linearGradient id="linear-gradient-3" x1="302.49" y1="244.56" x2="316.71" y2="244.56" xlink:href="#linear-gradient"/><linearGradient id="linear-gradient-4" x1="453.73" y1="244.56" x2="467.95" y2="244.56" xlink:href="#linear-gradient"/><linearGradient id="linear-gradient-5" x1="604.98" y1="244.56" x2="619.19" y2="244.56" xlink:href="#linear-gradient"/><linearGradient id="linear-gradient-6" x1="907.46" y1="244.56" x2="921.68" y2="244.56" xlink:href="#linear-gradient"/><linearGradient id="linear-gradient-7" x1="756.22" y1="244.56" x2="770.44" y2="244.56" xlink:href="#linear-gradient"/><linearGradient id="linear-gradient-8" x1="1058.71" y1="244.56" x2="1072.93" y2="244.56" xlink:href="#linear-gradient"/><linearGradient id="linear-gradient-9" x1="1209.95" y1="244.56" x2="1224.17" y2="244.56" xlink:href="#linear-gradient"/><linearGradient id="linear-gradient-10" x1="1512.44" y1="244.56" x2="1526.66" y2="244.56" xlink:href="#linear-gradient"/><linearGradient id="linear-gradient-11" x1="1361.19" y1="244.56" x2="1375.41" y2="244.56" xlink:href="#linear-gradient"/><linearGradient id="linear-gradient-12" x1="1663.68" y1="244.56" x2="1677.9" y2="244.56" xlink:href="#linear-gradient"/><linearGradient id="linear-gradient-13" x1="1814.93" y1="244.56" x2="1829.14" y2="244.56" xlink:href="#linear-gradient"/><linearGradient id="linear-gradient-14" x1="2117.41" y1="244.56" x2="2131.63" y2="244.56" xlink:href="#linear-gradient"/><linearGradient id="linear-gradient-15" x1="1966.17" y1="244.56" x2="1980.39" y2="244.56" xlink:href="#linear-gradient"/><linearGradient id="linear-gradient-16" x1="2419.9" y1="244.56" x2="2434.12" y2="244.56" xlink:href="#linear-gradient"/><linearGradient id="linear-gradient-17" x1="2268.66" y1="244.56" x2="2282.88" y2="244.56" xlink:href="#linear-gradient"/><linearGradient id="linear-gradient-18" x1="2571.14" y1="244.56" x2="2585.36" y2="244.56" xlink:href="#linear-gradient"/><linearGradient id="linear-gradient-19" x1="1293.86" y1="187.57" x2="1293.86" y2="199.81" xlink:href="#linear-gradient"/><linearGradient id="linear-gradient-20" x1="1293.86" y1="268.81" x2="1293.86" y2="279.28" xlink:href="#linear-gradient"/><linearGradient id="linear-gradient-21" x1="1140.87" y1="189.35" x2="1140.87" y2="199.81" xlink:href="#linear-gradient"/><linearGradient id="linear-gradient-22" x1="1140.87" y1="278.22" x2="1140.87" y2="291.49" xlink:href="#linear-gradient"/><linearGradient id="linear-gradient-23" x1="989.47" y1="185.75" x2="989.47" y2="199.81" xlink:href="#linear-gradient"/><linearGradient id="linear-gradient-24" x1="839.42" y1="276.53" x2="839.42" y2="291.49" xlink:href="#linear-gradient"/><linearGradient id="linear-gradient-25" x1="686.43" y1="282.67" x2="686.43" y2="291.49" xlink:href="#linear-gradient"/><linearGradient id="linear-gradient-26" x1="133.18" y1="785.65" x2="133.18" y2="796.12" gradientTransform="translate(15.25 -70.57)" xlink:href="#linear-gradient"/><linearGradient id="linear-gradient-27" x1="1743.42" y1="189.35" x2="1743.42" y2="199.81" xlink:href="#linear-gradient"/><linearGradient id="linear-gradient-28" x1="1743.42" y1="278.38" x2="1743.42" y2="291.49" xlink:href="#linear-gradient"/><linearGradient id="linear-gradient-29" x1="1590.43" y1="186.54" x2="1590.43" y2="199.81" xlink:href="#linear-gradient"/><linearGradient id="linear-gradient-30" x1="1590.43" y1="282.51" x2="1590.43" y2="291.49" xlink:href="#linear-gradient"/><linearGradient id="linear-gradient-31" x1="1440.22" y1="177.03" x2="1440.22" y2="187.5" xlink:href="#linear-gradient"/><linearGradient id="linear-gradient-32" x1="1439.03" y1="279.42" x2="1439.03" y2="291.49" xlink:href="#linear-gradient"/><linearGradient id="linear-gradient-33" x1="2196.35" y1="187.57" x2="2196.35" y2="199.81" xlink:href="#linear-gradient"/><linearGradient id="linear-gradient-34" x1="2196.35" y1="283.03" x2="2196.35" y2="291.49" xlink:href="#linear-gradient"/><linearGradient id="linear-gradient-35" x1="2350.67" y1="282" x2="2350.67" y2="291.49" xlink:href="#linear-gradient"/><linearGradient id="linear-gradient-36" x1="2504.35" y1="282.51" x2="2504.35" y2="291.49" xlink:href="#linear-gradient"/><linearGradient id="linear-gradient-37" x1="2043.36" y1="189.35" x2="2043.36" y2="199.81" xlink:href="#linear-gradient"/><linearGradient id="linear-gradient-38" x1="2043.36" y1="281.03" x2="2043.36" y2="291.49" xlink:href="#linear-gradient"/><linearGradient id="linear-gradient-39" x1="1901.56" y1="178.1" x2="1901.56" y2="190.21" xlink:href="#linear-gradient"/><linearGradient id="linear-gradient-40" x1="1901.56" y1="270.33" x2="1901.56" y2="281.89" xlink:href="#linear-gradient"/><linearGradient id="linear-gradient-41" x1="989.47" y1="281.03" x2="989.47" y2="291.49" xlink:href="#linear-gradient"/><linearGradient id="linear-gradient-42" x1="1354.11" y1="643.14" x2="1301.94" y2="645.26" gradientUnits="userSpaceOnUse"><stop offset="0" stop-color="#82715f"/><stop offset="1" stop-color="#82715f"/></linearGradient><linearGradient id="linear-gradient-43" x1="634.21" y1="665.9" x2="584.04" y2="667.93" xlink:href="#linear-gradient-42"/></defs><g id="base"><rect class="cls-1" y="150.84" width="14.22" height="187.43"/><rect class="cls-2" x="151.24" y="150.84" width="14.22" height="187.43"/><rect class="cls-3" x="302.49" y="150.84" width="14.22" height="187.43"/><rect class="cls-4" x="453.73" y="150.84" width="14.22" height="187.43"/><rect class="cls-5" x="604.98" y="150.84" width="14.22" height="187.43"/><rect class="cls-6" x="907.46" y="150.84" width="14.22" height="187.43"/><rect class="cls-7" x="756.22" y="150.84" width="14.22" height="187.43"/><rect class="cls-8" x="1058.71" y="150.84" width="14.22" height="187.43"/><rect class="cls-9" x="1209.95" y="150.84" width="14.22" height="187.43"/><rect class="cls-10" x="1512.44" y="150.84" width="14.22" height="187.43"/><rect class="cls-11" x="1361.19" y="150.84" width="14.22" height="187.43"/><rect class="cls-12" x="1663.68" y="150.84" width="14.22" height="187.43"/><rect class="cls-13" x="1814.93" y="150.84" width="14.22" height="187.43"/><rect class="cls-14" x="2117.41" y="150.84" width="14.22" height="187.43"/><rect class="cls-15" x="1966.17" y="150.84" width="14.22" height="187.43"/><rect class="cls-16" x="2419.9" y="150.84" width="14.22" height="187.43"/><rect class="cls-17" x="2268.66" y="150.84" width="14.22" height="187.43"/><rect class="cls-18" x="2571.14" y="150.84" width="14.22" height="187.43"/><rect class="cls-19" x="1186.18" y="187.57" width="215.35" height="12.24"/><rect class="cls-20" x="1186.18" y="268.81" width="215.35" height="10.47"/><rect class="cls-21" x="1033.2" y="189.35" width="215.35" height="10.47"/><rect class="cls-22" x="1033.2" y="278.22" width="215.35" height="13.27"/><rect class="cls-23" x="881.8" y="185.75" width="215.35" height="14.06"/><rect class="cls-24" x="731.74" y="276.53" width="215.35" height="14.96"/><rect class="cls-25" x="578.76" y="282.67" width="215.35" height="8.83"/><rect class="cls-26" x="40.75" y="715.08" width="215.35" height="10.47" transform="translate(193.25 -353.12) rotate(-14.72)"/><rect class="cls-27" x="1635.75" y="189.35" width="215.35" height="10.47"/><rect class="cls-28" x="1635.75" y="278.38" width="215.35" height="13.11"/><rect class="cls-29" x="1482.76" y="186.54" width="215.35" height="13.27"/><rect class="cls-30" x="1482.76" y="282.51" width="215.35" height="8.98"/><rect class="cls-31" x="1332.55" y="177.03" width="215.35" height="10.47"/><rect class="cls-32" x="1331.36" y="279.42" width="215.35" height="12.08"/><rect class="cls-33" x="2088.67" y="187.57" width="215.35" height="12.24"/><rect class="cls-34" x="2088.67" y="283.03" width="215.35" height="8.47"/><rect class="cls-35" x="2242.99" y="282" width="215.35" height="9.5"/><rect class="cls-36" x="2396.68" y="282.51" width="215.35" height="8.98"/><rect class="cls-37" x="1935.69" y="189.35" width="215.35" height="10.47"/><rect class="cls-38" x="1935.69" y="281.03" width="215.35" height="10.47"/><rect class="cls-39" x="1793.89" y="178.1" width="215.35" height="12.12"/><rect class="cls-40" x="1793.89" y="270.33" width="215.35" height="11.56"/><circle class="cls-41" cx="1202.76" cy="207" r="7.19"/><circle class="cls-41" cx="1230.39" cy="298.68" r="7.19"/><circle class="cls-41" cx="1202.76" cy="298.68" r="7.19"/><circle class="cls-41" cx="1230.39" cy="206.04" r="6.22"/><circle class="cls-41" cx="1052" cy="207" r="7.19"/><circle class="cls-41" cx="1079.63" cy="298.68" r="7.19"/><circle class="cls-41" cx="1052" cy="298.68" r="7.19"/><circle class="cls-41" cx="1079.63" cy="206.04" r="6.22"/><circle class="cls-41" cx="900.76" cy="207" r="7.19"/><circle class="cls-41" cx="928.39" cy="298.68" r="7.19"/><circle class="cls-41" cx="900.76" cy="298.68" r="7.19"/><circle class="cls-41" cx="928.39" cy="206.04" r="6.22"/><circle class="cls-41" cx="1656.32" cy="207" r="7.19"/><circle class="cls-41" cx="1683.95" cy="298.68" r="7.19"/><circle class="cls-41" cx="1656.32" cy="298.68" r="7.19"/><circle class="cls-41" cx="1683.95" cy="206.04" r="6.22"/><circle class="cls-41" cx="1505.56" cy="207" r="7.19"/><circle class="cls-41" cx="1533.19" cy="298.68" r="7.19"/><circle class="cls-41" cx="1505.56" cy="298.68" r="7.19"/><circle class="cls-41" cx="1533.19" cy="206.04" r="6.22"/><circle class="cls-41" cx="1354.32" cy="207" r="7.19"/><circle class="cls-41" cx="1381.95" cy="298.68" r="7.19"/><circle class="cls-41" cx="1354.32" cy="298.68" r="7.19"/><circle class="cls-41" cx="1381.95" cy="206.04" r="6.22"/><circle class="cls-41" cx="2110.47" cy="207" r="7.19"/><circle class="cls-41" cx="2138.1" cy="298.68" r="7.19"/><circle class="cls-41" cx="2110.47" cy="298.68" r="7.19"/><circle class="cls-41" cx="2138.1" cy="206.04" r="6.22"/><circle class="cls-41" cx="1959.71" cy="207" r="7.19"/><circle class="cls-41" cx="1987.33" cy="298.68" r="7.19"/><circle class="cls-41" cx="1959.71" cy="298.68" r="7.19"/><circle class="cls-41" cx="1987.33" cy="206.04" r="6.22"/><circle class="cls-41" cx="1808.46" cy="207" r="7.19"/><circle class="cls-41" cx="1836.09" cy="298.68" r="7.19"/><circle class="cls-41" cx="1808.46" cy="298.68" r="7.19"/><circle class="cls-41" cx="1836.09" cy="206.04" r="6.22"/><circle class="cls-41" cx="2591.83" cy="298.68" r="7.19"/><circle class="cls-41" cx="2564.2" cy="298.68" r="7.19"/><circle class="cls-41" cx="2441.06" cy="298.68" r="7.19"/><circle class="cls-41" cx="2413.44" cy="298.68" r="7.19"/><circle class="cls-41" cx="2262.19" cy="207" r="7.19"/><circle class="cls-41" cx="2289.82" cy="298.68" r="7.19"/><circle class="cls-41" cx="2262.19" cy="298.68" r="7.19"/><circle class="cls-41" cx="2289.82" cy="206.04" r="6.22"/><circle class="cls-41" cx="777.14" cy="298.68" r="7.19"/><circle class="cls-41" cx="749.51" cy="298.68" r="7.19"/><circle class="cls-41" cx="625.9" cy="298.68" r="7.19"/><circle class="cls-41" cx="598.27" cy="298.68" r="7.19"/><rect class="cls-42" x="881.8" y="281.03" width="215.35" height="10.47"/><rect class="cls-43" x="1198.71" y="144.4" width="790.47" height="11.11"/><rect class="cls-43" x="1324.62" y="133.43" width="25.63" height="11.2"/><rect class="cls-43" x="1277.37" y="133.43" width="25.63" height="11.2"/><rect class="cls-43" x="1419.13" y="133.43" width="25.63" height="11.2"/><rect class="cls-43" x="1230.12" y="133.43" width="25.63" height="11.2"/><rect class="cls-43" x="1371.88" y="133.43" width="25.63" height="11.2"/><rect class="cls-43" x="1466.38" y="133.43" width="25.63" height="11.2"/><rect class="cls-43" x="1608.13" y="133.43" width="25.63" height="11.2"/><rect class="cls-43" x="1513.63" y="133.43" width="25.63" height="11.2"/><rect class="cls-43" x="1560.88" y="133.43" width="25.63" height="11.2"/><rect class="cls-43" x="1655.39" y="133.43" width="25.63" height="11.2"/><rect class="cls-43" x="1797.14" y="133.43" width="25.63" height="11.2"/><rect class="cls-43" x="1702.64" y="133.43" width="25.63" height="11.2"/><rect class="cls-43" x="1749.89" y="133.43" width="25.63" height="11.2"/><rect class="cls-43" x="1844.39" y="133.43" width="25.63" height="11.2"/><rect class="cls-43" x="1938.89" y="133.43" width="25.63" height="11.2"/><rect class="cls-43" x="1891.64" y="133.43" width="25.63" height="11.2"/><rect class="cls-41" x="1213.07" y="122.07" width="766.33" height="11.72"/><path class="cls-44" d="M1347.75,758l5.28-.29-2.6-85.26v-3.79h-.12l-.53-17.39h.65v-4.07h-.77l-.53-17.38h1.3v-4.07H1349l-.61-20h2v-4.08h-2.16l-.61-20h2.77v-4.08h-2.9l-.65-21.16h3.55V552.3h-3.67l-.67-22.09-5.29.29.67,21.8h-23.4l.66-21.8-5.28-.29-.68,22.09h-4v4.07h3.88l-.65,21.16h-3.23v4.08h3.11l-.62,20h-2.49v4.08h2.37l-.61,20h-1.76v4.07h1.63l-.53,17.38h-1.1v4.07h1l-.53,17.39h-.45v4.07h.32l-2.59,85,5.28.29,1.3-42.36h33.37Zm-29.81-201.61h23.65l.65,21.16H1317.3Zm-.77,25.24h25.19l.61,20h-26.41Zm-.74,24.11h26.67l.61,20h-27.89Zm-.73,24.08h28.13l.53,17.38h-29.19Zm-.66,21.45h29.45l.53,17.39h-30.51Zm30.1,21.46.53,17.38h-31.81l.53-17.38Zm-31.94,38.84.53-17.38h32.07l.53,17.38Z" transform="translate(371.36 -414.45)"/><path class="cls-45" d="M628.71,752.67l5.29-.21-2.61-64.28v-3.39h-.13l-.71-17.39h.84v-4.07h-1L629.68,646h1.71v-4.07h-1.87l-.71-17.39h2.58v-4.07h-2.74l-.81-20h3.55v-4.07h-3.72L627.05,581l-5.29.22.62,15.16h-23.3l.62-15.16-5.29-.22-.62,15.38h-4.06v4.07h3.89l-.81,20h-3.08v4.07h2.92l-.71,17.39h-2.21V646h2l-.71,17.38h-1.34v4.07h1.18l-.71,17.39h-.47v4.07H590l-2.58,63.6,5.29.21.74-18.25H628ZM598.92,600.41h23.62l.81,20H598.11Zm-1,24.08h25.58l.7,17.39h-27ZM597.07,646h27.32l.7,17.38H596.37Zm-.87,21.45h29.06l.7,17.39H595.5Zm-.87,21.46h30.8l.7,17.38h-32.2Zm-1.68,41.49.81-20H627l.81,20Z" transform="translate(371.36 -414.45)"/><path class="cls-41" d="M1580.19,437.65l-.59-7.14c3,0,6-11.3,6-11.3l-18.44-4.76-4.76,1.78-1.19,8.93,2.38,1.78v5.35l-1.19,3,2.38,4.76-8.33,1.19-4.76,5.95-4.16,12.49-6.55,23.2,1.19,6.54v6l7.73,6.54,1.19,25,1.79,10.71-1.19,14.87s-4.16,5.35-2.38,6.54,11.3.6,11.3.6l1.19-25,4.17-2.38,3-13.08h3l1.19,13.08,1.19,4.17-.59,23.2,11.9.59-3-6.54V537l2.38-3.57v-23.2l4.76-1.78,7.73-10.71,3-14.87.59-20.23-2.38-8.92-11.3-8.92-4.16-6.55Z" transform="translate(371.36 -414.45)"/></g><path class="cls-46" d="M913.32,501.22l-7.39-14.16-8-3.08-4.31-1.84a57.22,57.22,0,0,1,1.85-9.85l-.62-8.62-8.62-1.23s-8,.62-10.46,3.69l3.08,11.08,1.23,4.93-6.16,1.23-6.15,3.07-9.23,19.08v25.24l5.54,4.92,3.07,9.24v16.62l-1.23,16s-3.08,8,.62,9.23l7.38-3.08,1.85-20.31,1.85-8.62,5.54-14.15,5.54.61,3.69,13.54,3.08,4.31.61,24,11.08-.62-1.23-6.15V536.92c0-1.85,9.23,0,9.23,0l1.23-19.09Zm-46.17,21.54.62-11.08,8.62-1.23Zm32.62-11.08,5.54-1.23L906.55,524Z" transform="translate(371.36 -414.45)"/><path class="cls-41" d="M1043.21,466.89s-1,5.14-2,5.4-8,3.08-8,3.08l-4.88,1.54-4.62,1.28-.26,3.59-2.82.26-2.31,3.34-1.29.26,2.06,6.93-3.85,8.47,1.79,7.7,1.29,3.34,2.82,1.28.51,2.31,16.43,9.5,2.06-4.36,1.28-9.24.77,11,.77,3.33.26,4.11-1.54.26-3.85,12.32-.52-13.35L1018.78,519l-1.8,2.83-5.09-1.51-2.31,16.44-8.22,1-1.28,5.14,1.8,2H988.53l-.26-8.21-19-9v-5.9l-10.53-5.14L969,486.33l6.17-10.53,10.26-9,15.15-8.66,8-.77,7.7,3.59,5.39-2.82,1.29,1.79,6.93-1.28,2.31-2,5.9.25,4.37,4.37Z" transform="translate(371.36 -414.45)"/></svg>