<svg xmlns="http://www.w3.org/2000/svg" width="3861" height="520" viewBox="0 0 3861 520">
  <metadata><?xpacket begin="﻿" id="W5M0MpCehiHzreSzNTczkc9d"?>
<x:xmpmeta xmlns:x="adobe:ns:meta/" x:xmptk="Adobe XMP Core 5.6-c142 79.160924, 2017/07/13-01:06:39        ">
   <rdf:RDF xmlns:rdf="http://www.w3.org/1999/02/22-rdf-syntax-ns#">
      <rdf:Description rdf:about=""/>
   </rdf:RDF>
</x:xmpmeta>
                                                                                                    
                                                                                                    
                                                                                                    
                                                                                                    
                                                                                                    
                                                                                                    
                                                                                                    
                                                                                                    
                                                                                                    
                                                                                                    
                                                                                                    
                                                                                                    
                                                                                                    
                                                                                                    
                                                                                                    
                                                                                                    
                                                                                                    
                                                                                                    
                                                                                                    
                                                                                                    
                           
<?xpacket end="w"?></metadata>
<defs>
    <style>
      .cls-1 {
        fill: #877565;
        fill-rule: evenodd;
      }
    </style>
  </defs>
  <path class="cls-1" d="M2587.3,353.676h6q2.5,3,5,6c-3.26,10.626-2.91,40.255,4,44.989,4.71,1.991,9.35-.015,14-1,6.13-17.227,7.07-37.48,14.99-55.987l3,1c-0.49,36.062,13.16,43.921,26,63.986-3.04,9.695-2.14,25.29-2,37.991,12.21,4.42,7.62,6.229,17.99,1,0.67,1.332,1.34,2.666,2,4q-3.99-8-8-16h15q1.5-8.5,3-17c10.49-.973,8.99-9.848,8-21,5.94-24.067,8.41-51.28,12-72.983,1.47-8.906-3.11-12.922,0-20,8.34-3.1,8.84-9.054,13.99-15,0.34,0.333.67,0.667,1,1,1.3,11.047,7.64,12.459,13,19v36.992h1c6.53-3.044,9.69-5.749,13-12l3,2c2.5,6.835,8.46,10.322,13.99,14-4.66,10.155-1.55,21.687,6,25.994v-2q4.5-15.5,9-30.992c0.99,13.129.98,33.8,13,30.992q0.495,4.5,1,9h7.99v-3c-1.42-2.8-2.44-4.456-1-8,5.23-10.119,13.72-9.165,16-24,0.33,0.667.67,1.333,1,2,8.41,11.924,14.69,14.606,18,32.992,8.86-.5,12.11-0.481,17.99,3q1.005,11.5,2,22.994h32.99q1.005-7.5,2-15h1l3,17c2.33,0.333,4.67.666,7,1,0.33-2,.67-4,1-6,0.67,0.333,1.33.667,2,1q0.495,6.5,1,13c11.46-5.347,7.66-24.533,20-33.992,4.22,2.141,8.25,3.658,13.99,2q0.51-3.5,1-7h1c0.55,4.96,1.36,6.413,4,9,8-4.591,12.32-12.137,17-20q4.5,4,8.99,8l6,12c9.14-3.675,10.33-2.03,20-1l3-8c1.89,8.175,7.97,8.956,10,15v25.994h1c5.68-2.381,9.43-3.932,17.99-4,0.37-9.625,4.14-13.192,7-20,0.33,0.666.67,1.333,1,2q5.49,9,11,18,7.5,1,14.99,2v21.995q5.01-.5,10-1V397.666c5.68-2.619,9.53-3.641,10-12,19.26-2.827,37.53-12.355,50.99-22q3.99-4.5,8-9l63.98-2q0.495-8,1-16c13.41-.22,15.94-6.571,26.99-9,1.58-15.8,12.9-16.109,16-27.993q1.005-18.995,2-37.992c-0.82,44.615,7.63,68.3,41.99,76.983v13c13.98,5.242,35.37,6.142,55.99,6,9.52,17.8,32.88,13.6,45.99,26.994,8.96,9.157-1.33,32.428,7,40.991l17.99,4c0.33,2,.67,4,1,6,1.88,1.465,58.1,3.653,67.99,9l0.99,16,8,1q-0.99-9-2-18c4.73-1.234,3.86-.066,5-5l-3-6q4.005-2.5,8-5c-1.45-3.379-1.98-5.053-1-9,10.26-2.576,13.74-12.276,21-18,1.45,12.431,10.87,15.547,18.99,21-1.63,3.479-2.45,4.557-2,8q3.51,1.5,7,3c-3.04,6.338-2.5,10.543,4,13-1.63,7-3.74,14.188-2,23h4l5-1,3-20c13.98-.564,33.48-3.924,39.99,5,4.87,7.874,3.14,22.413,8,30.993l77.98,10,53.99,1q6.99,6,13.99,12,10-1.5,20-3c26.32,1.907,57.23,6.14,77.98,11v10H-0.1v-1c2.012-3.353,14.479-22.885,17-24.994l16-9,6-10c11.813-6.594,39.49,3.776,47.989-6,4.091-5.8,4.9-17.521,5-26.994h14V397.666l7-1V365.673h5q0.5-4.5,1-9l12,2c3.217,11.308,7.034,22.474,7,39.991l12-1c2.81-7.45,4.11-16.156,8-22l3,1,3,4q2.5,11.5,5,23l30.993-1v-8h8c2.03,4.452,2.973,7.257,8,9V350.677l18-4q0.5-21.494,1-42.99l8-1,8-33.992V238.7h1c0.783,23.654,2.182,59.444,19,67.984q0.5,20.493,1,40.991l13,2c9.26,12.878,5.083,36.357,3,53.988h3l8-9c3.442,2.473,3.881,4.122,5,9l29.994-1c-0.444-11.219.922-17.03,5-23h7q2,10.5,4,21l12-1c-1.5-12.283.034-45.351,14-35.992h2v6h5q0.5,15.5,1,30.993h5q0.5,19.993,1,39.991l23.994-4q1-4,2-8H438.8c0.665,7.139,2.041,7.422,10,7,2.014-8.793,12.373-8.537,21-10,0.778-11.19-2.447-29.108,3-37.992,12.18-19.868,57.188-19,88.979-19l28.993,1q10,6.5,20,13v26.994c8.4,1.263,57.28,1.189,58.986-1l7-19,110.974-2c1.585,7.139,5.839,6.866,10,11v46.989l10,1q0.5-11.5,1-22.995l14-1,11-20q0.5,1,1,2c4.285,4.134,6.72,9.82,7,18,9-.055,12.517,2.062,19,4V400.665c2.065-6.028,8.04-6.864,10-15h1c0.243,5.356.364,5.48,3,8,8.512-1.38,12.815.161,20,0,1.956-9.151,8.159-12.838,13-19l3,2a32.559,32.559,0,0,0,15,18l2-1q1.5-4,3-8v2q1,3,2,6c16.378-1.022,13.372-1.35,23.994,7,0.615,6.274.753,17.249,3,22l7,2c-0.3-5.634-.276-11.109,2-14h1v6l8-2q1.5-8,3-16,1,7.5,2,15h33c0.04-33.889,5.84-16.881,19.99-27.993l3-15c4.71-7.282,11.84-7.673,15-18,6.27,11.438,9.56,15.626,17.99,24q-0.99,5.5-2,11h8c0.33-3,.67-6,1-9,4.84,1.021,3.57,1.747,8-1q2.5-15,5-29.993c0.66,0.333,1.33.666,2,1q3.495,15.994,7,31.993l3-1c4.63-7.56,3.04-22.377,5.99-27.993,6.47-2.726,9.59-7.255,13-13,5.23,5.11,6.83,9.354,15,12V312.686c7.52-5.215,10.67-9.237,13.99-19h1c3.45,8.736,7.44,12.518,15,17-1.85,36.606,9.64,68.371,10,110.975l9,2q0.99,8,2,16h14.99v4c-4.68,2.98-6.85,5.312-8,12h1c0.67-1.333,1.34-2.667,2-4,4.23,3.712,3.63,6.834,8,3l9-4c0.24-12.631,1.07-28.383-2-37.991,3.15-5.088,7.41-4.967,11-9,10.13-11.372,14.84-34.522,14.99-54.988l3-1h1c-0.28,17.877,5.86,45.645,15,55.987,4.99,1.347,9.34,2.116,15,1q0.99,7,2,14c9.69,0.648,15.87,1.4,17.99,10l37.99-3c3.03-10.475,10.77-16.627,20-21l3,1,3,2q-1.5,14.495-3,28.993h10.99c13.73-4,29.03-.027,42,1,3.37-12.3,8.88-15.344,20.99-19q0.5-12,1-23.994h14q0.5,12,1,23.994h4q0.5-12.495,1-24.994c19.58-.164,36.29-7.16,49.98-14q1.005-10,2-20,6.51,1.5,13,3l3,19,46.99,14q0.495,18,1,35.992l8,1v-10l-3,2,9-22,6.99,5,3,26.994,7,1c1.9-3.849,2.89-3.535,8-4-0.3-5.115-.39-9.609,2-12,24.1-12.346,61.12-4.014,91.98-3q0.99,7.5,2,15c6.49,0.355,7.46.253,8,7q0.495,4,1,8h12.99q2.01-9,4-18h23c0.91,2.934.23,5.3,3,4l3.99-7c16.94-.078,20.27-2.566,36-2l21.99,22.995V397.666l7-1V365.673h5c0.33-3,.67-6,1-9l12,2c3.21,11.308,7.03,22.474,6.99,39.991l12-1c2.81-7.45,4.11-16.156,8-22l3,1,3,4q2.49,11.5,5,23l30.99-1v-8h8c2.03,4.452,2.97,7.257,8,9V350.677q8.985-2,17.99-4,0.51-21.494,1-42.99l8-1q4-17,8-33.992V238.7h1c0.78,23.654,2.18,59.444,18.99,67.984q0.51,20.493,1,40.991,6.51,1,13,2c7.56,10.907,1.31,28.452,6,41.99q1-6.5,2-13,2.49-1.5,5-3,1.995,1.5,4,3c1.15,6.013,2.29,16.073,6.99,19l10,1c-0.43-18.328,2.7-29.875,8-40.991l11-1c0.03,6.543-.1,7.976,6,9-0.27,14.408,3.67,24.147,7,34.992l10.99-1c-1.5-12.283.04-45.351,14-35.992h2v6h5q0.495,15.5,1,30.993h5q0.495,13,1,25.994l19.99-1q2.505,4,5,8c2.31-7.342,14.61-5.686,23.99-5q2.01,9,4,18h13q0.495-7,1-14c5.14-.374,6.08-0.242,8-4q1.005-6,2-12c35.2-1,64.15-3.9,93.98,3v12c5.13,0.375,6.07.242,8,4l6.99-1c0.4-23.475,9.59-27.24,15-41.991q4.005-22.492,8-44.989c1.33,0.333,2.66.666,4,1-0.33,18.474,3.28,30.268,6,43.99h3q8.985-2.5,17.99-5c-0.1-9.211,3.97-31.941,4-31.992,2.67-1,5.33-2,8-3,0.01-31.616,4.88-56.07,9-78.981q-4.5-27.992-9-55.988c18.26-13.457,28.34-37.62,23.99-67.984h5l3,1v1c-5.71,8.783-2.16,24.385-2,38.991q11.505,14,23,27.993c-0.35,13.809-6.28,19.425-8,31.993,8.07-2.455,16.4-12.714,20.99-19q-0.495-14.994-1-29.993h-5c0.34-.666.67-1.333,1-2l9-1q4.005,3,8,6h1c2.06-22.243,12.92-41.61,6-64.985,5.79-21.151,20.15-44.387,24.99-67.984,3.1-15.109-5.96-24.214-7-36.991l12-10c-0.54-11.93-1.71-10.723,1-20,0.67,0.333,1.33.667,2,1,1.03,4.475,1.65,4.368,4,7-2.2,3.286-3.18,3.738-4,9q6.495,7,13,14-4.005,15.495-8,30.993c2.75,24.707,19.2,41.258,20,71.984q2.985,0.5,5.99,1c-8.99,22.627,1.43,64.187,15,74.983-5.03,5.366-7.67,9.626-3,17,0.67-.333,1.33-0.666,2-1q3.495-12.995,7-25.994c0.46,17.312,8.23,35.234,22.99,37.992-0.66-.667-1.33-1.333-2-2-20.09-47.8,6.84-21.6,17-48.989q0.495-16.994,1-33.992l-6-1c0.33-.667.67-1.334,1-2,5.28-.244,9.35-0.1,12,2-6.14,2.643-4.9,4.583-5,13-0.3,26.525,8.26,26.014,20.99,37.991,0.67,0.666,1.34,1.333,2,2q2.5,7,5,14c-16.9,20.563-4.53,60.916,0,84.981Q2588.31,331.18,2587.3,353.676Zm-68.98-168.961c2.33,0.667,4.67,1.333,7,2v1c-5.28,1.947-3.69,2.409-6,7-0.41-6.464-3.53-7.3-5-9Zm-95.98,21c-4.49,3.283-4.53,1.4-4,8h3c4.69-2.056,5.74-2.306,7-8h-6Zm-2178.5,6q1,2.5,2,5h12q0.5-2.5,1-5l3,2c0.228,8.3-1.169,11.41-4,16C241.206,230.7,240.071,223.485,243.843,211.709Zm1708.607,0c0.67,1.666,1.33,3.333,2,5h12q0.495-2.5,1-5l3,2c0.22,8.3-1.17,11.41-4,16C1949.81,230.7,1948.68,223.485,1952.45,211.709Zm465.89,3c0.17,6.627.41,6.794,6,8v-3C2422.26,216.594,2422.47,216.134,2418.34,214.708Zm-2173.5,5c1.141,4.931,3.732,7.387,8,6,4.711-1.3,4.678-1.308,6-6C251.84,221.505,251.723,222.571,244.843,219.707Zm1708.607,0c1.14,4.931,3.73,7.387,8,6,4.71-1.3,4.68-1.308,6-6C1960.45,221.505,1960.33,222.571,1953.45,219.707Zm-449.9,130.97q2.505,1,5,2c-0.66,1-1.33,2-2,3h-4v-1C1502.89,353.343,1503.22,352.01,1503.55,350.677Zm-595.86,18h2c-1.392,1.922-.1.6-2,2v-2Zm2056.53,0h2c-1.4,1.922-.1.6-2,2v-2Zm-2080.524,16q0.5,1,1,2Q884.2,385.669,883.7,384.669Zm59.986,0h2c-1.392,1.922-.1.6-2,2v-2Zm1984.548,0h1.99c-1.39,1.922-.1.6-1.99,2v-2Zm60.98,0c0.33,0.666.67,1.333,1,2C2989.88,386,2989.54,385.335,2989.21,384.669Zm-991.77,8v4h1C1998.11,395.333,1997.77,394,1997.44,392.667Zm-750.83,66.985c0.78-15.076,4.09-35.492-9-37.991q-2.985,4.5-5.99,9c-0.36,7.568-1.81,22.947,2,26.994Zm1380.68,0,15-2V429.659l-6-8q-4.5,2-9,4v33.992Zm-318.92-27.994v-9c-2.73,2.495-2.72,3.323-5,4l-3-4v10Zm-738.83-7c0.33,0.666.66,1.333,1,2C1570.2,425.993,1569.87,425.326,1569.54,424.66Z"/>
</svg>
