<svg id="Episod_4" data-name="Episod 4" xmlns="http://www.w3.org/2000/svg" width="2511.75" height="759.55" viewBox="0 0 2511.75 759.55"><defs><style>.cls-1{fill:#917d6b;}</style></defs><path class="cls-1" d="M2172.09,881.88S1869.6,129.54,917.54,129.54-339.66,884.71-339.66,884.71h15.84s68.33-162.27,236.9-334.6V878.66c-1.75,3.94-2.6,6.05-2.6,6.05h2.6v4.38H-78v-4.38h1.14s45.66-108.26,156.44-232V889.09h8.94V642.81A1067.5,1067.5,0,0,1,246.11,501.86V889.09h8.94V495.42a1041.19,1041.19,0,0,1,156.46-92.15V889.09h8.94v-490a1072.12,1072.12,0,0,1,158.69-59v549h8.94V337.55a1161.67,1161.67,0,0,1,157.58-31.78V889.09h8.94V304.61a1315.74,1315.74,0,0,1,158.69-9.85V889.09h8.94V294.77a1312,1312,0,0,1,158.69,9.94V889.09h8.94V305.87a1156.81,1156.81,0,0,1,157.57,31.95V889.09h9V340.34a1058.55,1058.55,0,0,1,158.69,59.45v489.3H1424V404a1025,1025,0,0,1,156.45,93.29V889.09h8.94V503.88a1045.21,1045.21,0,0,1,157.58,144V889.09h8.94V658c104.81,120.49,147.4,224.47,147.4,224.47h10.17v6.64h8.94V554.75c161.86,169.34,226.39,327.13,226.39,327.13ZM1755.92,633.67V407.81A1297.11,1297.11,0,0,1,1890.33,522.3L1756.26,634.05ZM1430.87,390.74l149.59-87.44v175A1039,1039,0,0,0,1430.87,390.74Zm-167-63.28,151.24-97.19V383.36A1077.26,1077.26,0,0,0,1263.83,327.46ZM255.05,303.3l149.38,87.31a1042.74,1042.74,0,0,0-149.38,87.24Zm-8.94,179.49L108.86,385.12a1299.75,1299.75,0,0,1,137.25-82.53Zm13.78-187.27a1317.82,1317.82,0,0,1,151.62-65V384.14Zm160.56-65.25,151.08,97.09a1079.46,1079.46,0,0,0-151.08,55.78Zm8.07-5.7a1388.46,1388.46,0,0,1,150.62-42.08V321.36Zm484.77,50.64-152.14-121q73.14-6.89,152.14-7.21ZM922.23,147c52.71.14,103.4,2.64,152.11,7.23l-152.11,121Zm167.63,8.77a1496,1496,0,0,1,151.76,23.63L1089.86,287.63Zm166.52,26.79a1374.9,1374.9,0,0,1,150.39,42.15l-150.39,96.65ZM1424,230.76a1300.08,1300.08,0,0,1,151,65.13l-151,88.25Zm165.39,72.57A1276.59,1276.59,0,0,1,1725.48,386L1589.4,482.79ZM745.66,155.75V287.63L593.83,179.35A1501.11,1501.11,0,0,1,745.66,155.75Zm-667,477.82L-57,520.48A1325.83,1325.83,0,0,1,79.6,405.87V632.56ZM-78,859.66V541.06q7.07-7.08,14.35-14.18L72.55,640.38C-10.53,733.46-57.9,818.93-78,859.66ZM88.54,622.87V399.41q6.1-4.4,12.32-8.73l138.4,98.48A1062.45,1062.45,0,0,0,88.54,622.87ZM588.08,186.5,737,292.73a1176.56,1176.56,0,0,0-148.94,30ZM754.6,160.7,905.67,280.85a1337.43,1337.43,0,0,0-151.07,9.61ZM929.84,280.86,1080.92,160.7V290.54A1339.07,1339.07,0,0,0,929.84,280.86Zm168.55,11.94,149-106.3V322.89A1178,1178,0,0,0,1098.39,292.8Zm497.55,196.58,137.5-97.84q6.84,4.83,13.54,9.71V623.9A1057.11,1057.11,0,0,0,1595.94,489.38Zm317.55,374.29c-17.83-37.34-64.93-125.78-151.11-222.79L1896.9,528.76q8.46,8.37,16.59,16.72Z" transform="translate(339.66 -129.54)"/></svg>