<svg id="Episod_4" data-name="Episod 4" xmlns="http://www.w3.org/2000/svg" xmlns:xlink="http://www.w3.org/1999/xlink" viewBox="0 0 4084.94 408.26"><defs><style>.cls-1{fill:#423a31;}.cls-2{fill:#877565;}.cls-3{fill:url(#linear-gradient);}.cls-4{fill:url(#linear-gradient-2);}.cls-5{fill:url(#linear-gradient-3);}.cls-6{fill:url(#linear-gradient-4);}.cls-7{fill:url(#linear-gradient-5);}.cls-8{fill:url(#linear-gradient-6);}.cls-9{fill:url(#linear-gradient-7);}.cls-10{fill:url(#linear-gradient-8);}.cls-11{fill:url(#linear-gradient-9);}.cls-12{fill:url(#linear-gradient-10);}.cls-13{fill:url(#linear-gradient-11);}.cls-14{fill:url(#linear-gradient-12);}.cls-15{fill:none;stroke:#473e35;stroke-miterlimit:10;}.cls-16{fill:url(#linear-gradient-13);}.cls-17{fill:#877465;}.cls-18{fill:url(#linear-gradient-14);}.cls-19{fill:url(#linear-gradient-15);}.cls-20{fill:#7a6b5c;}.cls-21{fill:#736557;}.cls-22{fill:url(#linear-gradient-16);}.cls-23{fill:#94806e;}.cls-24{fill:#8a7766;}.cls-25{fill:url(#linear-gradient-17);}.cls-26{fill:url(#linear-gradient-18);}.cls-27{fill:url(#linear-gradient-19);}.cls-28{fill:url(#linear-gradient-20);}.cls-29{fill:url(#linear-gradient-21);}.cls-30{fill:url(#linear-gradient-22);}.cls-31{fill:url(#linear-gradient-23);}.cls-32{fill:url(#linear-gradient-24);}.cls-33{fill:url(#linear-gradient-25);}.cls-34{fill:url(#linear-gradient-26);}</style><linearGradient id="linear-gradient" x1="1659.53" y1="383.19" x2="1659.53" y2="262.46" gradientUnits="userSpaceOnUse"><stop offset="0" stop-color="#594e41"/><stop offset="0.94" stop-color="#736557"/></linearGradient><linearGradient id="linear-gradient-2" x1="181.91" y1="916.2" x2="237.34" y2="916.2" gradientTransform="matrix(1, 0, -0.02, -1.22, 1206.57, 1164.67)" gradientUnits="userSpaceOnUse"><stop offset="0" stop-color="#927e6c"/><stop offset="0.08" stop-color="#5d5146"/><stop offset="0.29" stop-color="#7c6b5c"/><stop offset="0.71" stop-color="#4a4137"/><stop offset="1" stop-color="#927e6c"/></linearGradient><linearGradient id="linear-gradient-3" x1="1624.11" y1="140.92" x2="1624.11" y2="56.47" gradientUnits="userSpaceOnUse"><stop offset="0" stop-color="#52483d"/><stop offset="1" stop-color="#615549"/></linearGradient><linearGradient id="linear-gradient-4" x1="1392.14" y1="142.19" x2="1392.14" y2="100.94" xlink:href="#linear-gradient-3"/><linearGradient id="linear-gradient-5" x1="206.94" y1="249.81" x2="206.94" y2="208.56" gradientTransform="matrix(0.51, 0, 0, -1, 134.22, 458.37)" gradientUnits="userSpaceOnUse"><stop offset="0" stop-color="#453c33"/><stop offset="1" stop-color="#594e43"/></linearGradient><linearGradient id="linear-gradient-6" x1="206.94" y1="249.81" x2="206.94" y2="208.56" gradientTransform="matrix(0.5, 0, 0, -1, 70.29, 458.37)" gradientUnits="userSpaceOnUse"><stop offset="0" stop-color="#5e5346"/><stop offset="1" stop-color="#706254"/></linearGradient><linearGradient id="linear-gradient-7" x1="1363.4" y1="98.09" x2="1420.38" y2="98.09" gradientTransform="matrix(1, 0, 0, 1, 0, 0)" xlink:href="#linear-gradient-2"/><linearGradient id="linear-gradient-8" x1="474.33" y1="490.81" x2="474.33" y2="395.37" gradientTransform="matrix(0.04, 0, 0, -1, 117.03, 886.18)" gradientUnits="userSpaceOnUse"><stop offset="0" stop-color="#594e42"/><stop offset="1" stop-color="#63574b"/></linearGradient><linearGradient id="linear-gradient-9" x1="474.33" y1="476.25" x2="474.33" y2="404.65" gradientTransform="translate(1242.02 -107.62) scale(0.08 1)" gradientUnits="userSpaceOnUse"><stop offset="0" stop-color="#63574a"/><stop offset="1" stop-color="#706254"/></linearGradient><linearGradient id="linear-gradient-10" x1="19749.05" y1="476.25" x2="19749.05" y2="404.65" xlink:href="#linear-gradient-9"/><linearGradient id="linear-gradient-11" x1="879.03" y1="397.32" x2="879.03" y2="194.36" gradientTransform="translate(1758.07 591.69) rotate(-180)" gradientUnits="userSpaceOnUse"><stop offset="0" stop-color="#594e41"/><stop offset="0.89" stop-color="#706255"/><stop offset="0.91" stop-color="#50463c"/><stop offset="0.96" stop-color="#7a6b5c"/><stop offset="1" stop-color="#c4ab93"/></linearGradient><linearGradient id="linear-gradient-12" x1="2077.46" y1="383.19" x2="2077.46" y2="288.7" xlink:href="#linear-gradient"/><linearGradient id="linear-gradient-13" x1="2506.58" y1="383.19" x2="2506.58" y2="100.67" xlink:href="#linear-gradient"/><linearGradient id="linear-gradient-14" x1="2153.73" y1="138.94" x2="2153.73" y2="85.03" gradientUnits="userSpaceOnUse"><stop offset="0.43" stop-color="#756758"/><stop offset="1" stop-color="#c7ab94"/></linearGradient><linearGradient id="linear-gradient-15" x1="84.49" y1="144.77" x2="84.49" y2="129.07" gradientUnits="userSpaceOnUse"><stop offset="0" stop-color="#695a4e"/><stop offset="0.53" stop-color="#5a4f43"/><stop offset="1" stop-color="#c7ab94"/></linearGradient><linearGradient id="linear-gradient-16" x1="880.38" y1="144.77" x2="880.38" y2="129.07" xlink:href="#linear-gradient-15"/><linearGradient id="linear-gradient-17" x1="-13767.07" y1="476.25" x2="-13767.07" y2="404.65" xlink:href="#linear-gradient-9"/><linearGradient id="linear-gradient-18" x1="409.01" y1="476.25" x2="409.01" y2="404.65" xlink:href="#linear-gradient-9"/><linearGradient id="linear-gradient-19" x1="687.63" y1="368.63" x2="687.63" y2="297.03" xlink:href="#linear-gradient"/><linearGradient id="linear-gradient-20" x1="3836.81" y1="254.32" x2="3836.81" y2="181.23" gradientUnits="userSpaceOnUse"><stop offset="0" stop-color="#695c4d"/><stop offset="0.95" stop-color="#7a6b5c"/><stop offset="0.96" stop-color="#473e35"/><stop offset="0.96" stop-color="#7a6b5c"/><stop offset="1" stop-color="#c4ab93"/></linearGradient><linearGradient id="linear-gradient-21" x1="3961.64" y1="149.45" x2="3950.55" y2="130.54" gradientUnits="userSpaceOnUse"><stop offset="0.03" stop-color="#695a4e"/><stop offset="0.53" stop-color="#5a4f43"/><stop offset="1" stop-color="#c7ab94"/></linearGradient><linearGradient id="linear-gradient-22" x1="722.32" y1="361.94" x2="722.32" y2="288.85" gradientTransform="matrix(-1, 0, 0, 1, 3834.27, -107.62)" xlink:href="#linear-gradient-20"/><linearGradient id="linear-gradient-23" x1="847.15" y1="257.07" x2="836.06" y2="238.16" gradientTransform="matrix(-1, 0, 0, 1, 3834.27, -107.62)" xlink:href="#linear-gradient-21"/><linearGradient id="linear-gradient-24" x1="19749.05" y1="476.05" x2="19749.05" y2="404.45" xlink:href="#linear-gradient-9"/><linearGradient id="linear-gradient-25" x1="33925.13" y1="476.05" x2="33925.13" y2="404.45" xlink:href="#linear-gradient-9"/><linearGradient id="linear-gradient-26" x1="3469.64" y1="383.19" x2="3469.64" y2="125.39" gradientUnits="userSpaceOnUse"><stop offset="0" stop-color="#594e41"/><stop offset="0.95" stop-color="#706255"/><stop offset="0.96" stop-color="#473e35"/><stop offset="0.96" stop-color="#7a6b5c"/><stop offset="1" stop-color="#c4ab93"/></linearGradient></defs><g id="Loco"><circle class="cls-1" cx="1523.98" cy="350.05" r="57.45"/><circle class="cls-1" cx="1645.99" cy="350.05" r="57.45"/><circle class="cls-1" cx="1770.39" cy="350.05" r="57.45"/><circle class="cls-1" cx="1891.46" cy="350.05" r="57.45"/><circle class="cls-1" cx="2285.48" cy="350.05" r="57.45"/><circle class="cls-1" cx="2431.31" cy="350.05" r="57.45"/><circle class="cls-1" cx="2628.32" cy="350.05" r="57.45"/><circle class="cls-1" cx="2771.6" cy="350.05" r="57.45"/><rect class="cls-2" x="1334.86" y="140.95" width="649.34" height="121.51"/><rect class="cls-3" x="1334.86" y="262.46" width="649.34" height="120.74"/><polygon class="cls-4" points="1420.64 0 1365.21 0 1375.4 95.24 1412.17 95.24 1420.64 0"/><polygon class="cls-5" points="1485.85 58.2 1485.85 140.92 1762.36 140.92 1762.36 88.86 1709.14 56.47 1485.85 58.2"/><rect class="cls-6" x="1369.82" y="100.94" width="44.64" height="41.24"/><rect class="cls-7" x="229.26" y="208.56" width="22.98" height="41.24" transform="translate(1666.7 350.75) rotate(180)"/><rect class="cls-8" x="162.36" y="208.56" width="22.26" height="41.24" transform="translate(1532.18 350.75) rotate(180)"/><rect class="cls-9" x="1363.4" y="95.19" width="56.97" height="5.79"/><rect class="cls-10" x="123.14" y="395.37" width="26.52" height="95.44" transform="translate(1458.01 778.56) rotate(180)"/><rect class="cls-11" x="1254.45" y="297.03" width="53.9" height="71.6"/><rect class="cls-12" x="2854.35" y="297.03" width="53.9" height="71.6"/><rect class="cls-13" x="799" y="194.36" width="160.07" height="202.96" transform="translate(2943.27 484.07) rotate(180)"/><polygon class="cls-14" points="2170.71 308.62 2148.52 308.62 2148.52 288.7 1984.2 288.7 1984.2 383.19 2148.52 383.19 2148.52 341.42 2170.71 341.42 2170.71 308.62"/><rect class="cls-15" x="2061.6" y="136.28" width="34.16" height="50.1"/><rect class="cls-15" x="1525.09" y="207.29" width="39.8" height="27.36"/><rect class="cls-15" x="1393.01" y="299.29" width="39.8" height="20.04"/><rect class="cls-15" x="1482.28" y="300.2" width="27.96" height="50.1"/><line class="cls-15" x1="1984.2" y1="262.46" x2="1334.86" y2="262.46"/><line class="cls-15" x1="1503.87" y1="142.19" x2="1503.87" y2="262.46"/><line class="cls-15" x1="1727.03" y1="142.19" x2="1727.03" y2="262.46"/><line class="cls-15" x1="1471.07" y1="262.46" x2="1471.07" y2="383.19"/><line class="cls-15" x1="1712.94" y1="262.46" x2="1712.94" y2="379.45"/><line class="cls-15" x1="1984.2" y1="140.95" x2="1984.2" y2="383.19"/><line class="cls-15" x1="1984.2" y1="289.7" x2="2145.2" y2="289.7"/><polygon class="cls-16" points="2371.01 158.69 2371.01 100.67 2158.8 100.67 2158.8 383.19 2371.01 383.19 2854.35 383.19 2854.35 158.69 2371.01 158.69"/><line class="cls-15" x1="2260.44" y1="100.67" x2="2260.44" y2="383.19"/><line class="cls-15" x1="2158.8" y1="132.43" x2="2371.01" y2="132.43"/><line class="cls-15" x1="2371.01" y1="158.69" x2="2158.8" y2="158.69"/><line class="cls-15" x1="2854.35" y1="219.45" x2="2260.44" y2="219.45"/><line class="cls-15" x1="2854.35" y1="307.97" x2="2158.8" y2="307.97"/><rect class="cls-15" x="2183.79" y="190.09" width="54.15" height="107.38"/><rect class="cls-15" x="2278.59" y="341.63" width="39.58" height="29.07"/><rect class="cls-15" x="2407.34" y="341.63" width="39.58" height="29.07"/><rect class="cls-15" x="2616.65" y="341.63" width="39.58" height="29.07"/><rect class="cls-15" x="2747.93" y="341.63" width="39.58" height="29.07"/><rect class="cls-17" x="2371.01" y="107.53" width="353.16" height="51.17"/><line class="cls-15" x1="2371.01" y1="126.9" x2="2724.17" y2="126.9"/><line class="cls-15" x1="2371.01" y1="146.3" x2="2724.17" y2="146.3"/><path class="cls-18" d="M2134.35,85h38.77a0,0,0,0,1,0,0v37a16.92,16.92,0,0,1-16.92,16.92h-21.85a0,0,0,0,1,0,0V85A0,0,0,0,1,2134.35,85Z"/></g><g id="FrontCart"><path class="cls-1" d="M-19.85,424.56A45.66,45.66,0,0,0-65.37,466.8h-68.37a45.64,45.64,0,0,0-45.52-42.24,45.66,45.66,0,0,0-45.66,45.66,45.66,45.66,0,0,0,45.66,45.66,45.65,45.65,0,0,0,41.12-25.79l13.83,9.22h53.4l11.45-6.39a45.63,45.63,0,0,0,39.61,23,45.67,45.67,0,0,0,45.67-45.66A45.67,45.67,0,0,0-19.85,424.56Z" transform="translate(1185.2 -107.62)"/><path class="cls-1" d="M-811.14,424.56a45.66,45.66,0,0,0-45.53,42.24H-925a45.66,45.66,0,0,0-45.53-42.24,45.66,45.66,0,0,0-45.66,45.66,45.66,45.66,0,0,0,45.66,45.66,45.66,45.66,0,0,0,41.13-25.79l13.82,9.22h53.41l11.44-6.39a45.63,45.63,0,0,0,39.62,23,45.66,45.66,0,0,0,45.66-45.66A45.66,45.66,0,0,0-811.14,424.56Z" transform="translate(1185.2 -107.62)"/><g id="Turret"><polygon class="cls-1" points="373.01 184.53 209.26 184.53 209.26 157.85 359.23 157.85 373.01 184.53"/><polygon class="cls-19" points="0 129.07 0 141.63 159.04 144.77 168.98 129.07 0 129.07"/><polygon class="cls-20" points="168.98 125.94 155.38 148.43 155.38 162.03 196.18 162.03 198.8 125.94 168.98 125.94"/><polygon class="cls-21" points="373.01 110.24 215.01 113.38 203.92 120.18 198.8 125.94 192.52 136.92 192.52 148.43 196.18 162.03 203.92 169.88 209.26 173.54 212.4 173.54 282.76 173.54 282.76 164.13 405.82 164.13 373.01 110.24"/></g><g id="Turret-2" data-name="Turret"><polygon class="cls-1" points="1168.9 184.53 1005.15 184.53 1005.15 157.85 1155.12 157.85 1168.9 184.53"/><polygon class="cls-22" points="795.89 129.07 795.89 141.63 954.93 144.77 964.87 129.07 795.89 129.07"/><polygon class="cls-20" points="964.87 125.94 951.27 148.43 951.27 162.03 992.07 162.03 994.69 125.94 964.87 125.94"/><polygon class="cls-21" points="1168.9 110.24 1010.9 113.38 999.81 120.18 994.69 125.94 988.41 136.92 988.41 148.43 992.07 162.03 999.81 169.88 1005.15 173.54 1008.29 173.54 1078.65 173.54 1078.65 164.13 1201.71 164.13 1168.9 110.24"/></g><polygon class="cls-23" points="687.63 168.76 632.22 168.76 656.04 109.58 687.63 109.58 687.63 168.76"/><polyline class="cls-24" points="717.38 109.58 687.63 109.58 687.63 168.76 739.82 168.76"/><rect class="cls-25" x="72.33" y="297.03" width="53.9" height="71.6"/><rect class="cls-26" x="1249.02" y="297.03" width="53.9" height="71.6"/><rect class="cls-27" x="126.23" y="297.03" width="1122.79" height="71.6"/><polygon class="cls-2" points="1223.54 176.37 959.45 176.37 951.95 167 426.56 167 419.19 176.37 155.87 176.37 126.23 297.03 1249.02 297.03 1223.54 176.37"/><line class="cls-15" x1="438.1" y1="167" x2="438.1" y2="368.63"/><line class="cls-15" x1="939.5" y1="167" x2="939.5" y2="368.63"/><rect class="cls-15" x="344.32" y="327.96" width="42.79" height="27.76"/><rect class="cls-15" x="203.92" y="327.96" width="42.79" height="27.76"/><rect class="cls-15" x="991.34" y="327.96" width="42.79" height="27.76"/><rect class="cls-15" x="1134.62" y="327.96" width="42.79" height="27.76"/><rect class="cls-1" x="795.89" y="199.4" width="20.28" height="4.06"/><rect class="cls-1" x="557.61" y="199.4" width="20.28" height="4.06"/><rect class="cls-1" x="659.92" y="119.44" width="17.81" height="4.06"/><rect class="cls-1" x="695.92" y="119.44" width="17.81" height="4.06"/></g><g id="backCart"><polygon class="cls-28" points="3783.43 206.48 3826.84 191.86 3832.16 202.94 3864.94 181.23 3890.19 218.44 3799.82 254.32 3783.43 206.48"/><polygon class="cls-29" points="3861.84 186.55 4023.98 90.42 4039.93 75.8 4047.02 87.76 4026.64 97.5 3920.32 167.94 3923.65 174.59 3876.02 205.15 3861.84 186.55"/><polygon class="cls-30" points="3165.33 206.48 3121.92 191.86 3116.6 202.94 3083.82 181.23 3058.57 218.44 3148.94 254.32 3165.33 206.48"/><polygon class="cls-31" points="3086.92 186.55 2924.78 90.42 2908.84 75.8 2901.75 87.76 2922.13 97.5 3028.45 167.94 3025.11 174.59 3072.75 205.15 3086.92 186.55"/><path class="cls-1" d="M2762.17,424.36a45.65,45.65,0,0,0-45.52,42.25h-68.37a45.61,45.61,0,1,0-4.4,23.28l13.83,9.22h53.4l11.45-6.39a45.66,45.66,0,1,0,39.61-68.36Z" transform="translate(1185.2 -107.62)"/><path class="cls-1" d="M1970.87,424.36a45.65,45.65,0,0,0-45.52,42.25H1857a45.61,45.61,0,1,0-4.4,23.28l13.83,9.22h53.4l11.45-6.39a45.66,45.66,0,1,0,39.61-68.36Z" transform="translate(1185.2 -107.62)"/><rect class="cls-32" x="2854.35" y="296.83" width="53.9" height="71.6"/><rect class="cls-33" x="4031.04" y="296.83" width="53.9" height="71.6"/><polygon class="cls-34" points="3648.51 198.65 3648.51 125.39 3290.78 125.39 3290.78 198.65 2908.25 198.65 2908.25 296.83 2908.25 383.19 4031.04 383.19 4031.04 296.83 4031.04 198.65 3648.51 198.65"/><line class="cls-15" x1="3290.78" y1="198.65" x2="3648.51" y2="198.65"/><line class="cls-15" x1="3299" y1="198.65" x2="3299" y2="383.19"/><line class="cls-15" x1="3640.83" y1="198.65" x2="3640.83" y2="383.19"/><rect class="cls-15" x="2977.89" y="342.11" width="41.43" height="28.11"/><rect class="cls-15" x="3131.29" y="342.11" width="41.43" height="28.11"/><rect class="cls-15" x="3770.25" y="342.11" width="41.43" height="28.11"/><rect class="cls-15" x="3366.38" y="184.59" width="32.44" height="28.11"/><rect class="cls-15" x="3548.42" y="184.59" width="32.44" height="28.11"/><rect class="cls-15" x="3923.65" y="342.11" width="41.43" height="28.11"/></g></svg>