<svg xmlns="http://www.w3.org/2000/svg" width="505" height="599" viewBox="0 0 505 599">
  <metadata><?xpacket begin="﻿" id="W5M0MpCehiHzreSzNTczkc9d"?>
<x:xmpmeta xmlns:x="adobe:ns:meta/" x:xmptk="Adobe XMP Core 5.6-c142 79.160924, 2017/07/13-01:06:39        ">
   <rdf:RDF xmlns:rdf="http://www.w3.org/1999/02/22-rdf-syntax-ns#">
      <rdf:Description rdf:about=""/>
   </rdf:RDF>
</x:xmpmeta>
                                                                                                    
                                                                                                    
                                                                                                    
                                                                                                    
                                                                                                    
                                                                                                    
                                                                                                    
                                                                                                    
                                                                                                    
                                                                                                    
                                                                                                    
                                                                                                    
                                                                                                    
                                                                                                    
                                                                                                    
                                                                                                    
                                                                                                    
                                                                                                    
                                                                                                    
                                                                                                    
                           
<?xpacket end="w"?></metadata>
<defs>
    <style>
      .cls-1 {
        fill: #6e6050;
        fill-rule: evenodd;
      }
    </style>
  </defs>
  <path class="cls-1" d="M318.211,0.932h0ZM148.49,6.957c2.141,2.443.591-.1,1,4.017l-2.009-2.009Q147.989,7.962,148.49,6.957Zm-3.012,4.017h3.012l-3.012,10.043,6.025-2.008v4.017c-6.041,2.444-6.131,8.41-5.021,15.064H151.5c2.675-2.18,2.807-2.017,4.017-6.026l-8.034-2.009c7.341,0.241,10.306.657,11.047-4.017l1,2.009c2.064,1.361,1.616,1.125,3.013,3.013L149.5,42.107c1.469,4.275,8.1,13.186,11.046,16.069h1c2.035-18.278,6.586-24.741,1-34.145l6.026-1c4.605,11.083,29.065-.948,29.123-1-1.453-3.111-1.215-.858-1-5.021,5.932,1.313,2.684,1.5,9.038,0l-5.021,6.026h6.026q-2.008,3.012-4.017,6.026l6.025-3.013-5.021,6.026h4.017c1.844-2.586,5.25-3.258,3.013-1,2.292,4.836,2.808,1.167,0,6.026,3.144-.591,9.089-3.287,6.025-2.009h3.013l-2.009,1c-1.523,1.814-3.789,4.682-3.012,7.03L216.78,41.1c6.9-4.926,8.447-10.718,8.034-18.077l5.022,3.013q-2.008,4.519-4.017,9.039l8.034,4.017q0.5-2.511,1-5.021c1.619,1.679,3.837,1.875,6.026,3.013L235.861,41.1l6.026,6.026V45.12c1.776-3.144.077-6.982,0-11.047,3.563-1.913,3.907-2.6,5.021-7.03q0.5,1.506,1,3.013h4.017L243.9,36.082c0.407,4.047.329,3.928,2.009,6.026,4.839-2.958,7.644-5.425,15.064-6.026v1h-2.009L245.9,45.12v1c3.82,0.4,1.249-1.129,4.017,1-0.34,4.2.428,4.515-2.009,9.039l5.022-4.017c-0.781-4.445-2.021-1.837,0-5.021,2.447,1.758,1.578-2.65,3.013,0L268,50.142l-4.017,2.009v2.009h3.012q1.507-2.008,3.013-4.017c1.265,3.036-.018,1.2,2.009,3.013q0.5-1.506,1-3.013l-2.009-1c-3.3-3.06-3.116.274-5.021-5.021,5.3,1.247,3.719,2.675,7.03,1,1.931-1.4.6-.1,2.009-2.009l-3.013,2.009q0.5-5.523,1-11.047l7.03-2.009c-1.243,4.171-4.682,7.421-3.013,8.034,2.068,4.719,3.014,2.675,4.017,5.021h-5.021q0.5,1.506,1,3.013c6.75-3.435,8.98-4.959,15.064-10.043q-2.511-5.523-5.021-11.047h1v2.009c5,3.824,3.779,5.193,7.03,11.047V38.09c2.664-4.477,1.465-6.856,2.008-10.043,3.861,0.619,4.66-3.269,8.034-5.021q-4.015,9.038-8.034,18.077l6.026-3.013L301.138,41.1c-1.852,3-2.006-.652-4.017,4.017l4.017,1,2.009-2.008c3.641-1.89,4.994-3.544,7.03-7.03-4.14.085-1.23,2.058-4.017-1l4.017-1c3.526,0.357,9.917-6.843,15.064-11.047-2.131,6.219-9.682,12.853-15.064,16.068v7.03h1l13.055-9.038q-0.5,1.506-1,3.013c-1.566,6.487-12.7,6.9-22.094,14.06q-0.5,4.519-1,9.039h10.043c0.563-3.445-.64-1.045,2.008-4.017l3.013,1V66.21l3.013-1q-0.5-2.511-1-5.021c4.981,1.011,3.122-.5,8.034-4.017q-1,3.013-2.009,6.026h1c0.852-4.326,1.075-4.945,4.017-7.03v1l-2.008,5.021h1c7.952-1.938,10.5,4.715,20.085-2.009l-3.012,6.026,9.038,1-1,2.008H346.33q1.005,2.51,2.009,5.021l6.025-2.008c1.838-3.5.848-2.7,5.022-4.017L358.381,52.15l2.009,1c0.208,4.331.263,4.847,2.008,7.03V58.176q1-4.519,2.009-9.038c-4.946-3.29-6.965-6.812-9.038-13.056l3.012,2.009c2.04,5.507,5.436,8.989,9.039,13.056V49.137l9.038-11.047L360.39,70.227l9.038,1q-0.5,1-1,2.008l-3.013,1c-2.486-1.27-5.569.19-4.017-2.009-2.024,1.524-2.677,2.9-4.017,5.021l2.009,3.013c5.784-3.177,10.172-.169,16.068-5.021l-3.013,1c2.6-3.225,3.335-2.692,9.038-3.013v1l-5.021,2.009c2.635,2,2.323.612,4.017,4.017-2.063,1.361-1.616,1.125-3.013,3.013-4.842-1.944-7.857-2.665-11.046,0l3.012-1L366.416,86.3l14.059-4.017c-0.284,6.69,2.078,5.152-3.013,6.026v3.013c-3.235-2.741-4.914-3.692-11.046-4.017v1l5.021,1c-14.594,1.79-16.549,7.507-33.141,11.048-2.11,5.762-2.147,9.667-8.034,12.051l2.009,3.013h1c6.715-1.879,22.669-11.908,31.132-9.039-1.279-4.683-2.071-3.468-4.017-7.03,3.886,0.367,4.165-.868,6.026,1l5.021,1c-0.927,4.867-1.955,1.465,1,5.021-8.757.379-18.882,0.971-26.111,5.022v1l2.009,3.013c1.637-4.388.042-2.954,5.021-4.017v1c-3.6,1.79-1.189-.533-3.013,3.013l16.069-1q0.5-1,1-2.009l10.042,4.017,1-1c-4.16-3.913-3.632-3.668-8.034-3.013C374.852,102.119,382.2,95.255,386.5,86.3l10.042-2.009L394.535,86.3c-3.065,2.85-7.428,2.918-11.047,8.034h5.021c-4.248,3.77-3.664.834-1,6.026h2.009q-1.507,3.514-3.013,7.03c3.588-1.868,15.618-5.914,17.072-16.069-4.545-.863-2.988.117-5.021-3.013,3.32,1.379,4.309,1.823,8.034,1q0.5-1.506,1-3.013c-2.417-1.8-1.687-.517,0-3.013,2.581,4.663.334,3.082,5.022,2.009Q411.1,87.3,409.6,89.309l2.008,3.013,3.013-2.009c-0.458-6.74-2.087-5.107,1-10.043h1q0.5,1,1,2.008c-3.411,7.569-9.655,12.857-13.055,18.078,10.877-.171,10.838-4.12,19.081-6.026v1H421.65c-3.537,5.152-10.91,7.431-17.072,7.03l2.008,4.017-4.017-4.017-9.038,3.013c0.344,2.219,1.155,1.394-1,2.009-5.562,3.215-6.477,6.836-6.025,16.068h1c1.972-2.075.376-1.04,4.017-2.009v3.013c-3.283,2.315-.88.1,0,4.017-4.843-.348-4.427-0.6-8.034,1v9.038h1c4.958-3.5,7-2.195,11.047-3.013v-5.021c4.259,3.191,1.739,3.438,7.03,2.009q-1,3.515-2.009,7.03h1l4.017-4.018c4.076-1.713,4.042-2.414,6.025-6.025h-8.034c7.814-4.83,8.491-11.414,15.064-14.06-2.66,4.39-4.823,6.734-6.025,13.055,5-1.074,7.4-2.7,10.042-6.025-1.965-2.2-2.152-5.794-4.017-9.039,3.6,1.824,4.723,4.123,7.03,7.03l4.017-3.013L414.62,134.5c6.842-2.805,14.193.6,17.073,3.013q0.5,2.511,1,5.021l10.043-6.025v1c-2.033,2.564-2.758,2.588-6.026,4.017l3.013,3.013c3.976,0.443,7.194,1.185,11.047,6.026-6.753-2.171-15.2-7.76-20.086-3.013,3.2,1.685,1.142-.5,2.009,3.013l-10.043-2.009c3.673,3.632,21.463,6.633,28.12,6.026-1.1,4.022-1.606,3.813-2.009,6.025l-17.072-1h-1c3.08,6.768,11.968,5.156,18.077,11.047l-6.025-2.008q1,1.506,2.008,3.013l-13.055-6.026c1.047,2.64,1.569,1.664,1,4.017l-6.026-5.021c1.047,2.64,1.57,1.664,1,4.017l-7.03-5.022c3.324,4.926,7.494,11.747,13.055,11.047q-0.5,1.507-1,3.013h-5.021c-3.261-8.674-12.863-8.257-22.094-9.038,5.736,9.565,9.152,8.318,20.085,11.047v1H414.62c0.779,0.3,15.494,10.5,16.068,12.051-6.826-.128-2.545-0.726-7.029,2.009l-7.03-9.039c-6.01.637-9.525-3.949-15.064-1l2.008,1c2.68,2.811,2.821,3.013,7.03,2.009-1.951,3.05-.329,1.049-3.013,2.009,3.246,7.823,10.622,16.32,19.081,19.081v1c-5.274.51-1.916-.275-6.025,2.009,0.67-10.772-27.248-30.85-30.128-29.124-1,.123-0.264.371,0,1l-5.021,2.008,3.012,1c2.847-1.115,1.461-.869,4.017-1q-1,1.507-2.008,3.013l-6.026-1,3.013,3.013c7.716-.951,18.408,5.4,19.081,8.034l-5.021,1v1l8.034,2.008v1c-5.685-.211-6.743-1.089-10.043-3.013V203.8l-5.021-4.018,2.008,4.018c-3.494-2.363-6.083-3.419-11.046-5.022l2.008-2.008h3.013c-2.29-3.547-5.417-3.927-11.047-4.018v1l6.026,3.013v1c-6.792.086-7.013,3.432-11.047,0-3.383-1.484-2.657-1.992-7.03-3.013-1.983,1.819-.025.449-4.017,0v3.013l4.017,3.013c-4.521-.875-3.459-0.927-6.026-3.013,1.645,5.4,4.409,5.967,7.03,10.043h-1l-10.043-11.047h-2.008c-2.3,6.071-4.081,14.725-8.035,17.072,1.56-6.063,2.913-8.471,1-13.055,4.269-.713,3.983.141,5.021-6.026-8.969.5-17.232,3.357-21.089,9.039l3.012-1-3.012,6.026c-3.77-3.037-2.47-2.658-8.035-2.009q-2.007,3.014-4.017,6.026c3.96,1.832,4.515,2.747,6.026,7.03l-6.026-6.026-2.008,1q-2.511,4.015-5.021,8.034c13.8,0.429,24.6,5.047,37.157,2.008q-1.506,2.008-3.013,4.018l-2.008,1c-10.308-1.866-23.514-7.76-33.141-4.017,5.738-.062,8.227.465,11.047,3.013H311.181v1l3.013,8.034c7.038,7.319,22.574-.585,33.14,8.034l6.026,10.043h-2.008c-2.483-9.4-12.11-12.812-20.086-15.064v1c2.186,5.982,2.03,12.207,9.039,14.06-2.534,4.115-.974,2.109-2.009,6.026l2.009,2.008,15.064,1c2.6-11.814,26.133-14.667,34.145-28.12l-3.013-2.009,4.017-1q-0.5,1-1,2.009c5.582-2.9,4.508-7.669,9.038-11.048l14.06-4.017c-2.928-1.615-4.121-1.137-3.013-4.017l3.013,3.013c2.653-3.179,2.247-.067,1-4.017h5.021v1l-3.013,4.017c8.112-3.714,12.829-6.582,17.073-11.047,1.929,6.221,5.421,4.673,10.043,5.022,1.107-4.087-.289-4.868,2.008-8.035,3.226,0.434,2.393,1.739,4.017-3.012l4.017,1v1c-3.623,1.811-3.562,2.054-5.021,6.026h1l2.009-5.022c2.246,1.627,3.1,3.208,5.021,5.022,7.343-1.791,8.219-2.315,13.055-6.026l-5.021,7.03c3.05,1.731,1.77,1.414,4.017,2.009l-7.03,6.025v1c2.034-.7,11.272-5.3,7.03-1h4.017l-4.017,2.009v2.008l7.03,1-3.013,1c-1.592,1.419-5.9,1.373-10.042,3.013-0.3-3.03-3.057-5.079-9.039-7.03v1L456.8,226.9h-9.038q0.5,3.012,1,6.026c6.194,1.337,7.476,6.444,12.051,8.034,4.913,1.707,11.322-.326,15.064,1v1L460.816,252c-12.751-.414-9.478-6.509-23.1-7.03v3.013q0.5,1,1,2.008c4.914,0.394,8.447-1.094,9.039,0,4.537,2.729,9.677,3.424,14.06,5.022-1.047,3.827-1.91,2.628,2.008,6.026,7.71-4.173,19.853-1.554,23.1,5.021l-3.013,1c-1.363-.861-7.567-4.328-5.021,0-4.843-1.746-5.679-4.738-10.043-4.017l-2.008,1c5.1,0.158,7.454.572,9.038,7.03h-1c-5.552-2.638-8.028-1.682-16.068-2.008,1.16,2.534,1.792.417,1,3.013-5.9-5.4-13.634-7.987-24.1-9.039v1c11.253,2.218,12.491,9.022,25.106,10.043q-0.5,1-1,2.009c-13.841-1.964-23.186-10.161-41.175-7.03-11.237,1.956-56.322,20.24-57.243,27.115l-2.008,1v1c14.4-1.813,19.836-8.879,32.136-14.06q0.5,1.506,1,3.013c-8.277.431-9.609,3.447-9.038,10.043-10.738.113-12.958,3.626-22.094,5.021l2.009,4.017c-5-.484-1.247-1.175-4.017,3.013v-2.009c-1.523-2.935-1.035-1.373-1.005-5.021-2.067,2.951-1.455,2.45-1,7.03l-4.017-1c-6.123.491-5.887-3.882-11.047-2.009,1.729,2.595,2.12,3.422,5.021,5.022,2.88,0.756,2.7-.016,6.026-1l-2.008,2.009c-1.972,2.074-.377,1.039-4.018,2.008l-6.025-6.025c-29.829,20.175-42.8,44.088-54.23,83.355-2.377,8.162-8.382,21.342-5.022,34.146l5.022,8.034c-7.774,15.128-.73,42.5,8.034,51.218-3.909,21.493-4.179,51.479-4.017,78.334q1,12.05,2.008,24.1l-2.008,5.021-28.12,5.022-7.029-8.035c11.551-49.036,9.326-98.794,4.017-142.608-4.087-33.724,3.117-59.4-21.09-74.316-6.575-4.051-14.823-1.236-24.1-3.013-16.5-3.16-51.667-3.535-62.265-14.06L146.482,344.4c-2.3,2.792-8.77,5.355-11.047,5.021l-4.017-5.021-11.047,1q-0.5,1-1,2.009c2.616,0.87,3.506-.4,2.008,2.008-4.784-.634-3.123,1.64-6.025,0l5.021-6.025c-7.123-.794-11.1.911-17.073,3.012,1.317-3.227.27-2.129,3.013-5.021L95.264,338.37c7.561-.111,13.911-0.889,13.056,2.009,5.35-1.275,6.664-1.51,8.034-7.03l-3.013-1c-9.591,1.268-18.1-9.509-29.124,0-2.116-4.86-5.2-4.53-6.025-8.034l4.017,2.009c1.057-7.386,2.241-4.146,6.026-7.03-2.628-2.773-3.36-3-9.038-5.022-2.623,1.236-6.222,2.236-10.043-1,17.2-.127,22.144-10.563,34.145-8.034l-3.012-5.022-32.137,6.026c3.956-3.546,7.251-1.044,7.03-7.03L80.2,303.22,99.281,297.2,93.256,299.2c1.758-2.132,3.724-2.5,6.026-4.017l-3.013-3.013,7.029-1-3.012,4.017c5.7-1.371,2.962-1.073,5.021-4.017l-2.009-1,5.022-1c-0.388,3.152-1.509,1.071,1,3.013l4.017,1c-2.171-1.832-2.158.047-2.008-2.009,6.415-4.558,10.062-10.97,17.072-9.039,0.5-3.913,4.3-10.308,8.034-14.06q-0.5-2.51-1-5.021c-7.35,1.144-15.38,3.312-23.1,0l-10.043,8.034v-1l5.022-7.03-6.026,4.017c-0.277,3.221.594,4.509-3.013,7.03v-7.03l-8.034,7.03-2.008,3.013c3.439-10.256,6.515-8.761,7.03-18.077,1.61,2.242,1.7,3.352,4.017,5.021l-1-10.042h4.017v4.017l2.009-2.009c0.207-1.161-.32-0.381,2.008-2.008q0.5,2.007,1,4.017c-2.874,2.149-4.332.235-2.009,3.013l3.013-1c0.844-2.592,1.532-5.258,3.013-7.03,1.454,4.787-.708,2.509,4.017,4.017l3.012-1,1.005-2.008q-1.005-1-2.009-2.009c-0.876.409-19.705,2.523-23.1,0l4.017-1c-6.5-1.181-7.749-.482-13.055,1,6.1-5.81,10.053-.387,18.076-5.021,3.842-2.219,4.837-8.776,8.035-11.047,3.133-2.227,11.3-1.232,16.068-4.018l-2.009-3.012-8.034,2.008,6.026-4.017c5.84,2.188,16.493-2.613,22.094-7.03-7.707-2.958-10.187-.394-15.064-7.03-14.594,4.757-45.071,18.048-48.205,34.146H80.2v-3.013l3.013-9.039c2.362-.458,6.651-3.5,10.043-6.025v-1l-3.013-1c-8.548,3.124-13.8,7.215-21.089,5.021h2.009c8.659-6.774,20.346-4.5,29.124-4.017,1.855-3.274,3.957-4.147,7.03-6.025-2.666-4-4.137-8.772-7.03-11.048l-2.009,2.009c1.081,2.755,1.766,2.922-3.013,5.021l2.009-4.017c-5.579.086-6,.673-8.034-3.013,3.251,1.316,4.958,1.576,9.038-1l-3.013-1c-13.005-3-34.554,5.773-44.188,9.038l-2.009-3.012c4.573,0.914,8.872.634,11.047-4.018l-9.038,2.009v-1c6.808-5.929,11.967-1.889,24.1-2.009v-3.013l-3.013-4.017-7.03,1-3.013-5.022c17.77,6.351,27.823,9.717,46.2,4.017l-2.009-3.013,3.013,1c-3.669-3.491-6,.562-8.034-4.017l10.043-2.009c-3.074-3.6-4.6-4.913-8.035-3.013l1,3.013-2.009-1c-1.313-4.491.665-2.018-3.013-4.017l-17.073,1c-1.385-3.277-1.013-1.951-3.013-4.017,2.891-4.106,1.666-.235,0-6.026,4.05,2.913,4.128,3.854,10.043,3.013l-1,2.008-5.021,1v1h17.073c-5.512-4.615-23.675-12.054-33.141-8.034-8.958,5.447-5.729,14.3-9.038,21.09-5.429,2-6.567,5.811-11.047,1,6.267,0.96,5.479-2,9.038-6.026,1.685,3.205-.5,1.142,3.013,2.009-2.86-3.753-2.254-3.441-6.026-6.026,4.41-1.108,3.832-1.027,6.026-4.017l-6.026,2.009,2.009-3.013c3.648-1.893,8.823-7.3,13.055-12.052l-2.008-2.008c-3.174-.117-4.324.934-3.013-1v-4.018c4.114,4.542,8.21,11.942,11.047,2.009-5.915.791-2.517,0.724-8.034,0v-1c10.812-.268,8.833-2.749,17.073-6.026-0.1,3.174-1.761,1.451,1,3.013v-5.022c6.748,2.379,8.478,1.282,9.038-1-6.8,1.858-13.814-1.4-17.072-4.017l-11.047,8.034c-12.608-7.1-18.174,2.7-23.1,4.017l3.013-5.021c-4.5.963-2.524,2.055-6.026,0,4.712-1.282,4.424-2.053,7.03-5.021,4.276,4.183,26.952,1.427,26.111-6.026,8.358,0.35,17.549,2.558,22.094,0l-2.008-2.009c-3.229-6.663-14.1-15.521-23.1-10.042l1-5.022c-5.478,3.726-10.756,7.53-17.072,11.047l1-3.013H52.081c8.849-5.01,9.283-5.5,16.068-12.051,2.071,3.622,1.677,2.613,5.021,0l-23.1-2.009h2.009c1.965-1.624,4.516-.624,8.034-2.008-13.229-.438-13.843-4.958-24.1-4.017,2.778-5.376,2.063-2.348,0-8.034,7.2,2.34,7.942-1.484,10.043,3.012-2.22,2.571-1.2.582-1,4.017l4.017,2.009,1-6.026L44.047,111.4c4.189-.8.954,0.97,4.017-2.009,1.724,7.322,4.061,5.293,6.026,12.051-2.847-1.114-1.461-.868-4.017-1,3.106,2.2,3.989,1.748,7.03,1,0.363,2.366,6.614,5.613,14.06,6.026,0.821-3.527-1.266-1.467,2.008-3.013,0.3,3.438-.722,2.157,2.009,5.022l-2.009-4.017,5.021,4.017v-1c-2.812-4.675-6.882-6.82-13.056-8.034-0.916,3.667.038,2.054-2.008,4.017-0.14-4.158-5.611-9.271-9.038-9.038,1.6-5.277,2.585-5.938,1-10.043l4.017,2.009c-0.992,4.032-2.111,3.335,0,6.025,1.265,3.036-.019,1.2,2.008,3.013,5.332,1.428,6.171-4.059,8.034,3.013,10.487,2.183,8.821,12.985,17.073,19.081,1.972-2.074.376-1.039,4.017-2.008l-1-3.013c-4.424-3.179-10.7-11.5-12.051-15.064H79.2c6.608,6.944,10.973,13.443,19.081,19.081,0.135-4.259.763,0.606,3.013-3.013l2.008,4.017c-0.859-4.59-1.388-3.862-3.012-7.03l5.021,2.009V129.48c-0.568-.7-13.525-13.1-13.055-15.064,7.3,4.2,8.615,5.25,12.051,8.034q0.5-3.014,1-6.026L99.281,111.4c-1.065,1-2.192.984-7.03-2.009-2.79,2.267-2.422,1.113-3.013,6.026l-2.009-2.009c-0.54-2.185-1.317-1.1-2.008-5.021l4.017,1c-2.5-2.231-4.255-2.848-6.026-6.026,6.591,0.564,8.1-2.588,17.073,0V98.347c-1.931-1.4-.6-0.1-2.009-2.008l6.026,3.013c1.181-5.28,16.067-4.526,22.094-4.017-4.641-2.572-10.683-3.135-14.06-7.03l6.025,2.009q-0.5-1.506-1-3.013c-5.9-1.272-4.976-1.959-9.038,1-0.571-4.455,2.022-2.036-2.009-4.017-2.877-1.658-.282-1.478-4.017,0,2.182-3.34,2.525-2.967,8.034-3.013l-2.008-3.013L97.273,74.244l1-3.013c2.9,2.13,3.716,2.735,10.043,4.017q-0.5-1.506-1-3.013c-3.851-1.825,1.026-1.656-3.013-3.013,4.395-4.173,10.288-4.8,13.055-5.021L107.316,59.18c5.084,0.023,4.59.851,7.029-1-3.035-1.265-1.2.018-3.012-2.009l12.051,4.017-5.022-4.017v-1l6.026-2.009-2.009,3.013,4.018-1c0.442-5-1.732-4.231,3.012-4.017-0.861-3.567-1.442-4.527,1-7.03-0.982,5.759,1.968,11.117,7.029,12.051l-2.008-4.017,5.021,2.009c-1.169,3.614-1.337,2.611,0,7.03l2.009-1c2.193-.938,1,0.429,3.013-3.013l-6.026-9.038,3.013,2.009q-1.005-2.511-2.009-5.021c3.477-.654,1.638.9,4.017-3.013-5.669-1.115-13.414-10.295-16.068-15.064l2.009-1,2.008,2.009c0.558,4.689,5.528,9.438,12.051,11.047-3.336-10.241.91-9.581-4.017-17.073,3.9-.481.96,0.815,4.017-1Zm5.021,1h0Zm7.03,0h3.012q-2.007,2.51-4.017,5.021l-2.008-3.013,2.008,1Zm52.221,0c1.868,2.584.083,1.591-2.008,3.013Zm101.431,0c3.37,1.813,4.731,1.526,6.026,6.026h-3.013C314.014,14.882,312,18.666,311.181,11.979Zm23.1,0h2.009c-1.4,1.931-.1.6-2.009,2.009V11.979Zm-27.115,2.009c1.546,2.848,2.262,3.138,0,6.026q-0.5-1-1-2.009Q306.661,16,307.164,13.988Zm24.1,0h0Zm-116.494,1q0.5,1,1,2.009Q215.274,16,214.772,14.992Zm-13.056,1h0Zm75.32,0h2.009c-1.4,1.931-.1.6-2.009,2.009V16ZM151.5,17h2.009c-1.4,1.931-.1.6-2.009,2.009V17Zm62.264,1c2.379,4.081.562,4.476,6.026,6.026q-0.5,1.506-1,3.013c-4.173-1.9-3.554-1.49-10.043-1l2.009-3.013c2.964-.607,1.075,1.05,3.012-2.009l-3.012,1Zm114.486,0,2.009,2.009-3.013,1Q327.751,19.511,328.253,18Zm8.035,0q0.5,1,1,2.009Q336.79,19.009,336.288,18Zm-204.87,1,7.03,1-2.009,2.009h-1Zm8.034,0h0Zm20.085,0q0.5,1,1,2.008Q160.04,20.013,159.537,19.009Zm-39.166,1,9.038,10.043-8.034-5.021Q120.873,22.524,120.371,20.013Zm41.175,0q0.5,1,1,2.009Q162.048,21.017,161.546,20.013Zm26.111,0c1.93,1.4.6,0.1,2.008,2.009Zm21.089,0q0.5,1,1,2.009h-2.008Zm24.1,0,1,2.009Zm48.2,0c4.344,1.479,3.42.971,5.021,5.021Zm20.085,0h2.009C301.394,20.994,302.926,20.929,301.138,20.013Zm3.013,0,2.009,2.009C304.229,20.623,305.559,21.92,304.151,20.013Zm22.094,1q0.5,1,1,2.009Q326.748,22.022,326.245,21.017Zm7.03,0h2.008l-3.012,2.009Q332.772,22.022,333.275,21.017Zm-195.832,1,2.009,2.009C137.521,22.632,138.851,23.928,137.443,22.022Zm9.039,0v0Zm74.315,0,1,2.009h-2.009Q220.3,23.026,220.8,22.022Zm28.12,0q0.5,1.506,1,3.013h-1V22.022Zm29.123,1,1,2.009Zm10.043,0h2.008c-1.4,1.931-.1.6-2.008,2.009V23.026Zm10.043,0h2.008c-1.94,3.04-.205,1.625-4.017,3.013Zm31.132,1h0Zm-135.576,1q-0.5,1.506-1,3.013C194.055,25.893,194.508,27.506,193.682,25.035Zm5.021,0q-0.5,1-1,2.009C199.5,25.7,199.224,27.219,198.7,25.035Zm80.342,0q0.5,1,1,2.009Q279.547,26.039,279.045,25.035ZM216.78,27.043q0.5,2.51,1,5.021l-2.008-1Q216.278,29.052,216.78,27.043Zm64.273,0h2.009c-1.4,1.931-.1.6-2.009,2.009V27.043Zm-67.286,1h2.009c-1.4,1.931-.1.6-2.009,2.009V28.047Zm46.2,0h4.017v2.009C260.314,29.14,261.927,30.094,259.964,28.047Zm-119.508,1q0.5,1,1,2.008Q140.959,30.056,140.456,29.052Zm18.077,0v0Zm10.043,1q0.5,3.515,1,7.03V35.077l3.013-2.008-2.009-1C169.186,30.134,170.482,31.463,168.576,30.056Zm10.042,0,3.013,4.017,2.009-1v-1l-1-2.009h-4.017Zm93.4,0c2.14,2.443.59-.1,1,4.017l-2.009-1c-1.775,2.106-1.161.923-5.021,2.008Zm3.013,0h2.008c-1.4,1.931-.1.6-2.008,2.009V30.056Zm105.447,0c-0.221,1.473.416,1.008-1,3.013Q379.973,31.562,380.475,30.056Zm-206.878,1,3.013,5.021,3.012-1Zm60.256,0h2.008c-1.4,1.931-.1.6-2.008,2.009V31.06Zm49.209,0h2.008c-1.4,1.931-.1.6-2.008,2.009V31.06Zm10.042,0c3.036,1.265,1.2-.018,3.013,2.009h-1Zm-105.447,1,2.008,1Zm42.179,1h3.012l-2.008,2.008Q230.337,34.073,229.836,33.069Zm148.631,0V38.09h-2.009Q377.463,35.58,378.467,33.069Zm-170.725,1c-1.246,1.782-1.579,1.655-3.013,3.013l2.009,2.009,2.008-2.009Q208.243,35.58,207.742,34.073Zm55.234,0,3.013,2.009C262.409,35.539,261.179,37.2,262.976,34.073Zm-132.562,1q0.5,1,1,2.009Q130.916,36.082,130.414,35.077Zm42.179,0,2.008,1Zm13.055,0q-0.5,2.511-1,5.021h2.008l3.013,1,3.013-5.021h-2.009Zm38.162,1q0.5,1.506,1,3.013c-4.784,1.236-3.184-.257-2.008,5.021-9.841.769-17.308,19.424-15.064,22.094l2.008-1v2.008l8.034-5.021c-2.365,4.4-4.48,5.988-8.034,9.039,2.476,4.368,5.327,3.573,4.017,3.013l8.035-4.017c0.464,2.475.518,5.079,4.017,4.017l-1-4.017h7.03l-2.008-7.03h1l2.008,3.013V57.172q1,2.008,2.009,4.017h1l2.009-2.009c0.117-2.2,1.451-7.78,3.013-9.039l-4.017-4.017h-8.035c2.043-2.29,2.537-1.715,4.017-5.021-4.331-.208-4.847-0.263-7.029-2.009l5.021-1Zm50.213,0c1.808,2.051.015,0.71,3.013,2.009C275.228,36.039,277.021,37.381,274.023,36.082Zm13.056,0q0.5,1,1,2.009Q287.581,37.086,287.079,36.082Zm54.23,0,2.008,2.009C341.387,36.692,342.716,37.988,341.309,36.082ZM182.635,54.159q-0.5-5.021-1-10.043c-3.666-.916-2.053.038-4.017-2.009h3.013L174.6,37.086c-5.678,3.252-8.776,10.637-11.047,20.086l1-2.009,7.029,2.009,2.009-4.017-3.013-2.009c5.623,2.231,5.619,5.379,10.043,8.034q0.5-2.008,1-4.017c-4.978.351-2.6,2.826-5.021-2.009Zm11.047-17.073q-0.5,3.515-1,7.03c1.931-1.4.6-.1,2.008-2.009q2.008-2.51,4.017-5.021c-2.415,1.758-1.676,1.032-3.012,4.017h-1Q194.185,39.095,193.682,37.086Zm125.533,0,2.009,2.009-3.013,1Q318.713,38.593,319.215,37.086Zm8.034,0h4.017v1Zm-204.87,1h0Zm144.614,0,1,2.009Zm82.35,0,5.021,1v1C350.563,39.175,350.98,40.208,349.343,38.09Zm-149.635,1c0.027,0.683-.469,3.7,1,2.009q0.5,1,1,2.009Zm38.162,0h2.008c-1.4,1.931-.1.6-2.008,2.009V39.095Zm32.136,0h0Zm-45.192,1q2.008,2.51,4.017,5.021h-2.008c-2.732,1.314-1.932.443-4.017-1C226.451,41.493,224.12,44.378,224.814,40.1Zm67.286,0-4.017,9.039h2.008Q291.1,44.618,292.1,40.1Zm22.094,0h3.013v1l-4.017,1Q313.691,41.1,314.194,40.1Zm-144.614,1,5.021,1v1C170.574,42.531,171.6,43.158,169.58,41.1Zm6.025,0,1.005,2.009ZM268,41.1q0.5,1,1,2.009Q268.5,42.107,268,41.1Zm56.238,0h0Zm-198.844,1c2.051,1.808.71,0.015,2.009,3.013Zm103.439,0h0Zm98.418,0,2.009,2.009-2.009,3.013-3.013-3.013Zm28.12,0q1,4.017,2.008,8.034h-1V48.133Q355.871,45.12,355.369,42.107Zm-217.926,1h2.009c-1.618,2.287-1.818,1.775-3.013,5.021l-2.008-2.009Zm15.064,0h3.013l-2.008,2.009Zm44.188,0q-0.5,1.506-1,3.013l2.008-3.013h-1Zm-12.051,1q-0.5,1.506-1,3.013C185.738,44.834,184.8,46.748,184.644,44.116Zm109.465,0-1,3.013c2.051-1.808.71-.015,2.009-3.013h-1Zm13.055,0L299.13,52.15C304.018,50.671,307.159,47.371,307.164,44.116Zm15.064,0,2.008,2.008-1,1Q322.73,45.622,322.228,44.116Zm24.1,0q0.5,1,1,2.008Q346.833,45.12,346.33,44.116Zm-158.673,1c1.606,2.71.341,1.383,3.012,3.013C189.291,46.228,189.692,46.49,187.657,45.12Zm13.055,0,2.009,1Zm13.055,0a42.876,42.876,0,0,0-7.029,5.021q0.5-1.506,1-3.013l-4.017,1c0.259,6.884-1,6.428-2.009,13.056C204.6,59.448,216.617,47.478,213.767,45.12Zm120.512,0,3.013,2.009h-3.013V45.12Zm-187.8,1,2.008,3.013C147.226,46.1,148.509,47.936,146.482,46.124Zm23.1,0h2.008c-1.4,1.931-.1.6-2.008,2.009V46.124Zm-12.051,1q0.5,1,1,2.009h-2.009Zm174.742,0c-0.426.932,0.805,0.679-1,2.009Zm-211.9,1,3.013,2.009Zm13.055,0h2.009l-2.009,3.013V48.133Zm99.422,0,3.013,1-5.021,6.026Zm10.043,0v0Zm41.175,0-5.021,3.013,2.008,1,3.013,3.013,1-2.009Q284.568,50.644,284.066,48.133Zm41.175,0q0.5,1,1,2.009Q325.743,49.137,325.241,48.133Zm9.038,0c3.157,1.278-.106,3.108-2.008,5.021Zm-209.891,1h0Zm71.3,0q1,4.519,2.008,9.039h1C197.816,54.647,197.9,51.435,195.691,49.137Zm97.413,0-1,1c2.806,1.855.137,0.725,4.017,1V49.137H293.1Zm-73.311,1h0Zm39.166,0-4.017,3.013v1h1C260.327,51.7,259.257,52.994,258.959,50.142Zm-70.3,1-4.017,6.026h1q0.5-1,1-2.009C188.7,53.064,189.548,53.784,188.661,51.146Zm48.205,0q0.5,1,1,2.009Q237.368,52.15,236.866,51.146Zm92.392,0h0Zm-201.857,1c1.4,1.931.1,0.6,2.008,2.009Zm17.072,0,2.009,2.009C145.084,52.228,146.38,53.558,144.473,52.15Zm47.2,0-1,3.013c2.376,0.279,1.253-.223,4.017,1C193.4,53.149,194.056,53.912,191.674,52.15Zm10.042,0v0Zm42.179,0,2.009,1Zm-94.4,1-1,4.017h1V54.159l4.017,2.008L150.5,58.176c2.611,1.932,5.223,3.093,7.03,6.026l-9.039-3.013q-0.5,3.012-1,6.026H151.5l6.026,2.009,1-1c-0.4-7.348-1.561-7.825-1-9.038C154.913,56.114,156.274,54.3,149.5,53.154Zm181.771,0c0.685,3.688,1.243,2.706-2.008,5.021Zm-87.371,1,2.009,3.013C244.639,54.136,245.922,55.97,243.9,54.159Zm15.064,0-2.008,1v1C259.551,55.024,258.682,54.592,258.959,54.159Zm39.167,0q-2.009,4.017-4.017,8.034h1l4.017-3.013C298.955,54.447,300.305,56.183,298.126,54.159Zm-170.725,1c2.276,1.221,1.974,1.3,4.017,1Zm13.055,0h0Zm87.371,0,4.017,2.009q-0.5,2.511-1,5.021l-2.009-1c-1.855-5.676-1.388-2.442-5.021-4.017Zm48.2,0c-0.455,2.4-.038,1.252-2.009,4.017l5.022-1C277.438,55.466,278.7,56.792,276.032,55.163Zm44.187,0h0Zm28.12,0h0Zm4.017,0h0Zm4.017,0v5.021h-1Q355.87,57.674,356.373,55.163Zm-167.712,1-3.013,5.021,8.034-3.013C191.689,56.568,192.287,56.873,188.661,56.167Zm-56.239,1,2.009,4.017Zm88.375,0c3.911,0.968-.484,2.633-2.008,4.017V58.176Zm29.124,0q-0.5,1-1,2.009Q249.418,58.176,249.921,57.172Zm15.064,0q-0.5,1-1,2.009l2.008-2.009h-1Zm22.094,0c-2.638,1.634-.826,1.166-4.017,1,1.971,2.075.376,1.04,4.017,2.009V57.172Zm-181.772,1h0Zm23.1,0,2.009,3.013q0.5-1.506,1-3.013h-3.013Zm7.03,0q0.5,2.008,1,4.017l7.03,6.026q0.5-2.008,1-4.017Zm31.132,0c0.335,2.394-.176.823,1,4.017h-1c-4.1-1.145-1.262-1.534-5.021,0q0.5,1,1,2.009c3.653,1.128,6.163,2.555,10.043,1-3.667-1.064-2.954-.817-5.022-3.013l1-1h1c7.034,5.345,6.046,5.794,9.038,10.043l3.013-9.039-2.009-2.009C177.094,63.328,174.109,59.494,166.567,58.176Zm86.367,0-2.009,1v1C253.525,59.041,252.657,58.609,252.934,58.176Zm14.059,0v0Zm4.017,0q-0.5,1-1,2.009l2.009-2.009h-1Zm65.278,0H338.3c-1.808,2.051-.015.71-3.013,2.009Zm8.034,0c-0.728,1.394.811,1.446-3.013,3.013Zm3.012,0h3.013l-3.013,1v-1Zm-245.04,1H104.3c-1.4,1.931-.1.6-2.009,2.009V59.18Zm153.653,0-1,2.009,3.013-2.009h-2.008Zm58.247,0h0Zm-207.883,1,2.009,2.009C106.389,60.795,107.719,62.091,106.311,60.184Zm172.734,0,2.008,1Zm-85.363,1v0Zm92.392,0v0Zm61.26,0,1,2.009Zm-239.014,1,3.013,2.009H108.32V62.193Zm12.051,0,2.008,1Zm115.49,0,2.009,3.013,3.013-2.009v-1h-5.022Zm92.392,0,2.009,1Zm-203.865,1,2.009,1Zm75.32,0q0.5,3.013,1,6.026h1l3.013-1Zm168.716,0,2.009,2.009-3.013,1Q367.921,64.7,368.424,63.2Zm-180.767,1v3.013h2.008C188.4,64.179,189.684,66.013,187.657,64.2Zm67.285,0q-0.5,1-1,2.009l3.013-2.009h-2.009Zm3.013,0,2.009,1Zm4.017,0c-3.7,2.96-7.635,2.4-10.043,7.03,1.777,1.373,1.224-.226,1,2.008,4.854,0.025,4.209-.951,6.025,1,8.108-1.471,6.847-4.075,8.034-10.043h-5.021Zm-144.614,1-1,2.008c3.035-1.265,1.2.019,3.013-2.008h-2.009Zm33.141,0h2.008C150.755,66.187,152.286,66.122,150.5,65.206Zm45.192,0,3.012,3.013C197.325,66.314,197.726,66.575,195.691,65.206Zm27.115,0h2.008c-1.939,3.04-.2,1.626-4.017,3.013l2.009-1V65.206Zm48.2,0L269,68.219v1l4.017-1v-1Zm3.013,0,1,6.026,2.008-4.017Zm57.243,0,1,1-4.018,4.017,6.026-3.013Zm-233.993,1,7.03,2.008H101.29c-0.49,2.7.881,0.831-2.009,3.013Zm28.119,0c3.154,2.312,4.1,2.124,7.03,0h-7.03Zm35.149,0a18.046,18.046,0,0,0,10.043,15.064c-1.328-3.791,1.319-6.394-3.013-9.039Zm30.128,0-2.008,7.03,7.03-1q0.5-1,1-2.008l-2.009-2.009C192.715,66.144,194.31,67.179,190.669,66.21Zm50.214,0q-1.508,2.008-3.013,4.017h4.017q-0.5-1.506-1-3.013C241.879,67.091,241.147,66.843,240.883,66.21Zm71.3,0q1.005,3.515,2.009,7.03,0.5-2.51,1-5.021L313.19,66.21h-1Zm9.039,0v0Zm44.187,0h2.009C365.667,67.191,367.2,67.126,365.411,66.21Zm-274.164,1h2.008c-1.4,1.931-.1.6-2.008,2.009V67.214Zm21.09,0-4.017,3.013c7.328-.2,10.258,1.3,14.059,0l-2.008-2.009Zm10.042,0,2.009,1Zm183.781,0c1.4,1.931.1,0.6,2.008,2.009Zm12.051,0,2.008,2.009Zm-180.768,1,2.009,1Zm31.133,0,4.017,2.009C170.621,68.153,172.216,69.188,168.576,68.219Zm129.55,0c-4.236,3.127-4.9.633-8.035,5.021,2.626,3.767,6.057,5.234,10.043,2.009l-2.008-2.009h8.034v-1Zm11.046,0c1.809,2.051.016,0.71,3.013,2.009Zm-184.784,1,2.009,1Zm57.243,0c-1.062,4.816.507,7.461,2.009,12.051h2.008V75.249c-2.616-.87-3.507.4-2.008-2.009h3.012Zm40.171,0h0Zm12.051,0-1,3.013,4.018-1Zm106.452,0-1,2.009,2.009-2.009h-1Zm32.136,0h3.013l-2.009,3.013-3.012-2.008Zm-258.1,1c-2.582,3.237-1.739-.058-1,4.017,5.324,0.646,2.939,1.433,7.03,4.017h1V74.244C116,73.472,117.326,73.493,114.345,70.227Zm25.107,0c2.531,1.634.167,0.99,3.013,0h-3.013Zm15.064,0,5.021,4.017-2.008-4.017h-3.013Zm47.2,0v2.008C202.7,70.483,202.633,72.015,201.716,70.227Zm69.294,0L268,73.24C271.947,71.64,271.049,72.38,271.01,70.227Zm8.035,0,2.008,3.013,2.009-1-1-2.008h-3.012Zm41.174,0-2.008,3.013C321.363,71.458,319.693,72.227,320.219,70.227Zm14.06,0-6.026,3.013,8.035,1c1.4-1.931.1-.6,2.008-2.009V70.227h-4.017Zm14.06,0h0Zm76.324,0,1,2.008Zm-301.279,1v0Zm8.034,0,3.013,1Zm15.064,0-2.009,1c1.792,2.94,1.968,2.46,5.022,4.017C147.274,71.6,150.453,72.877,146.482,71.232Zm27.115,0v0Zm31.132,0c-0.815,5.319,2.578,12.277,7.03,12.051v-1C209.158,78.314,208.932,73.8,204.729,71.232Zm34.145,0c1.62,3.144.917,2.364,4.017,4.017A11.347,11.347,0,0,0,238.874,71.232Zm10.043,0v0Zm45.192,0h2.008c-1.523,1.934-1.8,1.777-4.017,3.013h-1V72.236Zm4.017,0h0Zm44.187,0L339.3,73.24l3.013,3.013h1Q342.816,73.742,342.313,71.232Zm-206.878,1-4.017,1v1C135.909,74.216,138.587,75.417,135.435,72.236Zm17.072,0c0.581,4.027-.046,3,2.009,5.021,3.552,3.588,3.667,4.186,7.03,1l-2.009-3.013Zm24.1,0c-0.279,3.68.569,4.085,2.008,8.034h1Zm20.085,0-6.026,8.034c2.292,8.155,5.385,17.329,14.06,16.069l2.009,1c-1.548-3.127-3.554-2.934-3.013-4.017-2.075-1.972-1.04-.376-2.009-4.017,4.072-1.376,2.97-.989,5.022-4.017C202.081,82.79,203.73,75.088,196.7,72.236Zm79.337,0c-2.987,4.359-3.772,3.222-2.009,8.034l-4.017-2.009c-4.3,3.806-.815,5.921-8.034,8.034q0.5,1.506,1,3.013L269,94.33l3.013,1,1-1c0.194-9.183,4.238-16.741,4.017-19.081C276.543,72.12,278.165,74.589,276.032,72.236Zm-185.789,1,6.026,1Zm37.158,0-2.009,4.017H126.4C128.124,73.494,129.26,76.94,127.4,73.24Zm64.273,0-1,3.013C192.046,74.1,192.5,75.711,191.674,73.24Zm39.166,0-7.03,9.039,5.021,5.022h1.005a32.95,32.95,0,0,1,11.047-9.039l-2.009-2.008-2.008-3.013H230.84Zm138.588,0h0Zm-196.835,1v7.03l8.034,3.013C177.111,80.243,176.544,77.644,172.593,74.244Zm96.409,0,2.008,1Zm52.222,0-7.03,5.021,2.008,2.009c2.9-3.959,2.209-3.4,6.026-2.009-1.4-1.931-.1-0.6-2.009-2.009C322.116,74.71,321.966,77.332,321.224,74.244Zm4.017,0-1,2.009,2.009-2.009h-1Zm-215.917,1,2.009,3.013Zm9.038,0h0Zm103.44,0q-1,2.008-2.009,4.017h1l3.013-2.009Zm59.251,0a11.347,11.347,0,0,0,4.017,4.017q0.5-1.506,1-3.013Zm21.09,0c-2.134,4.239-6.216,8.248-6.026,13.056v5.021l5.021-4.017c1.563-4.505,2.281-4.045,6.026-6.026-2.4,5.192-11.474,11.92-10.043,14.06v3.013l13.056-17.073C307.693,80.677,304.859,77.593,302.143,75.249Zm13.055,0-1,2.008C315.687,75.58,315.786,77.416,315.2,75.249Zm33.141,0,2.008,1Zm18.077,0h2.008C366.671,76.23,368.2,76.165,366.416,75.249Zm-236,1q-1.507,2.008-3.013,4.017l2.008,2.008,10.043,3.013,2.008-2.009c0.509-3.389-1.058-1.3,2.009-4.017,1.679,2.5.469,1.614,3.013,0v-1h-2.009Zm124.528,0v0Zm52.222,0,2.008,4.017,1-1Zm2.008,0,2.009,1Zm43.184,0c-1.753,2.829-2.18,2.579-3.013,7.03l3.013-1q1.506-2.51,3.013-5.021Zm68.29,0h4.017v3.013h-5.022Zm-141.6,1-1,2.009h3.013l-1-2.009h-1Zm-163.7,1,3.012,1Zm35.149,0c1.758,2.416,1.032,1.677,4.017,3.013Zm60.256,0,5.021,4.017Zm39.166,0q-0.5,1-1,2.009C250.781,79.018,249.466,79.374,249.921,78.261Zm7.03,0-2.009,3.013C256.847,79.708,258.5,80.711,256.951,78.261Zm36.153,0v3.013c2.613-.427.549,0.98,3.013-1Zm36.154,0c-3.6,2.4-3.9,1.989-6.026,6.026h3.013c2-1.916,6.713-2.539,9.038-4.017v-1Zm9.038,0-2.008,6.026c4.887-.79,6.088-0.064,7.029-1h2.009V78.261H338.3Zm-237.006,1h0Zm21.089,0-1,1,3.013,3.013,2.009-1v-1Zm15.064,0h0Zm104.444,0c-4.02,3.433-6.916,4.413-9.039,10.043h1c1.571-1.642,2.873-.565,6.025-2.008l3.013-2.009Q242.389,82.279,241.887,79.266Zm133.567,0,2.008,1Zm6.025,0,1,3.013h-1l-1-1Q380.977,80.27,381.479,79.266Zm37.158,0c1.634,2.531.99,0.167,0,3.013h-1Q418.136,80.772,418.637,79.266Zm-192.818,1h0Zm37.157,0v3.013h2.009C263.72,80.247,265,82.082,262.976,80.27Zm16.069,0a46.136,46.136,0,0,0-4.017,15.064l8.034-3.013c-1.466-4.109-1.333-2.686-4.017-5.021l6.025-1V83.283l-3.013-3.013h-3.012Zm33.14,0v0Zm-150.639,1L173.6,93.326c-1.551-3.9-6.778-12.239-10.043-11.047Zm97.413,0-3.012,4.017c5.454-1.59,3.063.053,4.017-4.017h-1Zm62.265,0v0Zm-208.887,1c2.782,3.453,4.2,2.207,8.034,3.013C117.856,82.6,117.7,82.55,112.337,82.279Zm-8.034,1,2.008,2.009C104.38,83.893,105.71,85.19,104.3,83.283Zm84.358,0,2.008,3.013Zm28.119,0v2.009c3.009,0.152.693,1.922,3.013,0Zm98.418,0,3.013,1Zm48.205,0,2.008,1Zm28.119,0q0.5,1,1,2.009Q392.025,84.287,391.522,83.283Zm6.026,0h2.008c-1.4,1.931-.1.6-2.008,2.009V83.283Zm21.089,0,3.013,1q-0.5,1-1,2.009h-4.017Zm-206.878,1v0Zm118.5,0V87.3c-7.6-.191-7.545-0.547-12.051,3.013v1q2.51,5.021,5.021,10.043l7.03-6.026c1.695-4.577,2.345-6.229,5.021-9.038-2-1.021-1.813.086-1-2.009h-4.017Zm-236,1c2.064,1.361,1.616,1.125,3.013,3.013C94.563,86.7,95.89,87.963,94.26,85.291Zm78.333,0,4.017,5.021,2.008-1v-1q-0.5-1.506-1-3.013h-5.021Zm12.051,0-3.013,9.039,4.017-3.013-2.008,5.021c3.579,0.543,4.81-1.118,3.012,2.008h4.017q-0.5-2.51-1-5.021V88.3Zm106.452,0V88.3q0.5-1.506,1-3.013h-1Zm20.085,0c1.808,2.051.015,0.71,3.013,2.009Zm28.119,0-2.008,1v1l4.017-2.009H339.3Zm-216.921,1q-0.5,1.506-1,3.013l4.017,1v-1h-2.008C122.846,86.179,124.755,88.4,122.379,86.3Zm80.342,0q0.5,1,1,2.008Q203.222,87.3,202.721,86.3Zm11.046,0v3.013l2.009-2.008Zm7.03,0c-2.8,5-5.573,6.44-7.03,11.047l4.017-1-2.008,5.022c9.211-1.519,10.808.586,18.077,5.021q1-2.51,2.008-5.021C233.184,93.167,227.132,90.552,220.8,86.3Zm29.124,0-9.038,6.026c1.729,1.237,2.63,1.334,4.017,3.013l-6.026-1c3.462,6.12,2.664,3.178,3.013,9.038,4.512,1.222,3.237.063,5.021,4.018,4.031-2.922,6.013-3.9,10.043-3.013C256.985,93.743,253.019,89.193,249.921,86.3Zm-94.4,1,3.013,1Zm-28.119,1,2.008,2.009C128.011,88.382,129.307,89.712,127.4,88.3Zm161.686,0q-1.506,2.511-3.013,5.021C290.153,90.719,290.691,91.908,289.087,88.3Zm56.239,0q-0.5,1.506-1,3.013l3.012-3.013h-2.008Zm6.026,0c-1.42,3.1-.719.018-1,4.017h1l2.008-1q0.5-1.506,1-3.013h-3.012Zm7.029,0v2.009C359.362,88.56,359.3,90.092,358.381,88.3Zm-260.1,1h0Zm33.141,0q-0.5,1.506-1,3.013l3.012,1,5.022-3.013Zm9.038,0c1.157,6.582,2.785,2.381,1,7.03l9.039,1v-1c-1.923-2.435-.645-1.623-4.017-3.013l1,2.009C144.364,92.754,144.835,91.178,140.456,89.309Zm7.03,0-1,2.009,7.03,1Zm161.686,0-6.025,9.039c3.187,8.4,6.049,9.095,4.017,13.056l15.064-8.035L315.2,89.309h-6.026Zm31.133,0c-3.038,4.059-6.068,3.451-8.034,9.039h3.012C338.088,95.836,340.43,91.822,340.305,89.309Zm54.23,0h3.013l-2.009,2.009Zm-187.8,1q0.5,2.51,1,5.021l2.008-1v-1l-2.008-3.013h-1Zm28.119,0c2.59,2.867,1.3,1.58,4.017,0h-4.017Zm22.094,0q0.5,3.013,1,6.026l2.009-2.009Q258.457,92.322,256.951,90.313Zm-100.427,1v5.021l2.009,2.008,2.008-2.008V94.33Zm5.022,0,4.017,1Zm185.788,0-5.021,6.026C344.545,96.152,349.42,93.467,347.334,91.317Zm74.316,0h0Zm-285.211,1q0.5,1.506,1,3.013l2.009-2.009C136.88,92.845,139.116,94,136.439,92.321Zm204.87,0v0Zm23.1,0h4.017v1l-1,1C364.554,92.717,366.151,95.234,364.407,92.321Zm29.124,0h0Zm6.025,0h2.009c-1.687,4.138-1.48,2.105-2.009,6.026l-7.03-1,2.009-1C396.405,94.837,398.027,94.283,399.556,92.321Zm8.034,0-2.008,1,1,2.009c1.9-1.378,1.643-.978,3.013-3.013H407.59Zm18.077,0,5.021,1Zm-273.16,1c0.261,3.959-1.189,3.3,4.017,5.021C155.118,95.736,154.906,95,152.507,93.326Zm39.167,0,3.012,2.009Zm71.3,0,2.009,2.009Zm25.107,1-13.055,4.017-1,1,1,3.013h1c3.233-2.907,3.857-2.7,7.03-4.017l2.008,2.009c-3.89.756-4.018,0.619-6.025,3.012v5.022c1.216,2.1,2.96,5.538,4.017,2.008,5.031-2.88,9.2-6.447,8.034-10.042-0.755,2.115-.56.711-2.009-1,1.915-2.533,1.943.021,1-3.013C288.693,94.408,289.99,95.737,288.083,94.33Zm81.345,0,4.017,1v2.009h-1C370.536,95.964,370.8,96.365,369.428,94.33Zm-124.528,1,3.012,2.009H244.9V95.334Zm104.443,0q-0.5,1-1,2.009C349.832,95.665,349.931,97.5,349.343,95.334Zm-255.083,1h0Zm100.426,0-2.008,1,1,2.008H197.7l-2.008-3.013h-1Zm184.785,0-4.017,13.056,3.013,3.013-2.009-3.013,4.017,1c0.382,3.319-1.284,2.861,3.013,5.022q1-7.532,2.009-15.064l-3.013-4.017h-3.013Zm44.188,0h4.017v2.008l-3.013,1-2.009-1Zm-331.407,1c2.051,1.808.71,0.015,2.008,3.013H92.252V97.343Zm16.068,0c-1.6,2.087-3.376,3.874-4.017,8.034,4.848-2.722,19.6-1.244,29.123-1l-2.008-2.009c-1.022-1.985-5.869-4.552-9.039-1H126.4l-5.022,4.017-3.013-1v-7.03H108.32Zm75.32,0c1.4,1.931.1,0.6,2.008,2.008Zm-71.3,1h3.013v2.009C111.759,99.884,111.291,101.635,112.337,98.347Zm29.123,0-2.008,1,2.008,4.017,4.018,2.009,3.012-5.021h1c-0.008,4.628-.934,3.028,1,6.025q0.5-3.514,1-7.03Zm24.1,0c-2.928,1.99-4.119,1.791-6.026,5.021q-1.506,3.516-3.013,7.03l13.056,3.013c1.623-3.431,1.635-3.36,5.021-5.021l-3.013,6.026,2.009,1,10.043,2.008q-3.516-4.518-7.03-9.038C171.53,105.213,169.576,99.935,165.563,98.347Zm95.405,0v4.017l2.008-2.008Zm3.013,0c1.4,1.931.1,0.6,2.008,2.009Zm46.2,0h2.008C310.433,99.328,311.964,99.263,310.177,98.347Zm47.2,0h0Zm-156.665,1c2.531,1.634.167,0.99,3.013,0h-3.013Zm172.733,0h0Zm-314.334,1,1,2.008Zm126.537,0c3.2,4.054,6.153,5.5,13.055,6.025v-2.008Zm22.094,0-3.013,2.008v2.009h3.013q0.5-1.506,1-3.013Q208.243,100.858,207.742,100.356Zm3.013,0v0Zm18.076,0,1.005,2.008Zm18.077,0q0.5,1,1,2.008Q247.411,101.36,246.908,100.356Zm61.26,0h2.009c-1.4,1.93-.1.6-2.009,2.008v-2.008Zm23.1,0-6.025,5.021C330.253,103.862,331.9,102.067,331.266,100.356Zm-280.189,1,1,2.008Zm5.021,0,1,2.008Zm99.422,0c-1.894,2.547-2.676,2.53-4.017,6.026C155.863,105.9,156.354,104.761,155.52,101.36Zm21.09,0c1.771,3.778,1.617,3.744,6.025,5.021Zm75.319,0,1,2.008Zm49.209,0c-1.883,2.126-.789.644-4.017,2.008,0.353,6.21,1.588,8.162,5.022,11.048l3.012-3.013C304.481,107.81,303.832,105.062,301.138,101.36Zm129.55,0c1.152,2.659,1.379,2.351-1,6.026h-1Q429.684,104.373,430.688,101.36Zm-372.581,1,2.008,4.017h-1Zm34.145,0,3.013,3.013C93.9,103.313,94.14,103.761,92.252,102.364Zm70.3,0q0.5,1,1,2.009Q163.053,103.368,162.55,102.364Zm58.247,0,1,2.009-4.018-1.005,1,2.009c6.426,1.179,9.357,2.465,13.055,6.026-1.552-4.6-2.828-6.1-7.03-8.035Zm86.367,0c1.3,3.285,1.882,1.118,0,4.017v-4.017Zm74.315,0c1.931,1.4.6,0.1,2.009,2.009Q382.485,103.368,381.479,102.364Zm37.158,0q0.5,1,1,2.009h-2.008Zm7.03,1c2.628,1.784,1.368.063,1,3.013h-1v-3.013ZM88.235,104.373c2.55,2.884.887,2.858,7.03,4.017Zm11.047,0-2.008,2.008,2.008,2.009,2.009-1v-1Zm139.593,0-2.008,6.025h1l3.013-1q0.5-2.511,1-5.021h-3.013Zm93.4,0v3.013c-6.51.375-7.916-.208-11.047,5.021h4.017c4.861-1.948,6.493-2.784,9.038-7.03Zm23.1,0h5.021C357.662,106.569,358.6,106.2,355.369,104.373Zm78.332,0,1,2.008Zm-387.646,1c1.931,1.4.6,0.1,2.009,2.009Zm19.081,0h2.009l-1,3.013Zm197.84,0-4.017,3.013v4.017l3.013-2.009C262.954,107.237,264.033,108.331,262.976,105.377Zm136.58,0c-0.221,1.473.416,1.008-1,3.013Q399.054,106.884,399.556,105.377Zm11.047,0c2.853,2.136,3.085,3.974,4.017,8.034-3.126-1.828-3.449-5.079-2.008-3.013Q411.607,107.889,410.6,105.377Zm11.047,0q0.5,1,1,2.009h-2.008Q421.147,106.381,421.65,105.377Zm-292.241,1c-8.491,4.8-13.754-.662-22.093,2.009h2.008c4.593,5.82,9,3.546,11.047,8.034,5.174-1.367,5.31-1.983,5.021-6.026l4.017,1.005c-1.437,3.883-2.628,1.694-1,4.017,1.4,1.931.1,0.6,2.009,2.008l-2.009-3.012,4.017,1,7.03-3.013-8.034-1c1.729-1.237,2.631-1.335,4.017-3.013l-7.03,2.008q0.5-1,1-2.008l5.022-1v-1h-5.022Zm10.043,0,7.03,8.035,2.008-1v-1l-1-2.009Q143.469,108.391,139.452,106.381Zm104.443,0c1.265,3.036-.018,1.2,2.009,3.013Zm11.047,0q-1.506,2.008-3.013,4.017l1-3.012-6.026,3.012,1,2.009c4.351,0.12,4.951,1.084,6.026,0C256.123,109.367,256.8,108.355,254.942,106.381Zm19.081,0-8.034,2.009v5.021l10.043-4.017q-0.5-1.506-1-3.013h-1Zm18.077,0-7.03,7.03v1c5.416,1.629,6.857,2.409,11.047-1Zm-101.431,1c3.181,2.178,3.134,1.964,6.026,0h-6.026Zm27.115,0-5.021,2.008v1c6.681,0.819,10.492,2.049,16.068,1.005q-0.5-1.005-1-2.009Zm-115.49,1-1,1,5.021,5.022q-0.5-1-1-2.009C104.584,109.54,105.686,110.813,102.294,108.39Zm80.341,0,6.026,5.021Zm108.461,0L293.1,110.4C291.174,109,292.5,110.3,291.1,108.39Zm46.2,0h0Zm70.3,0h0Zm-206.878,1,2.009,1Zm5.021,0-5.021,4.017,3.013,2.009,6.025-4.017V110.4Zm160.683,0c1.93,1.4.6,0.1,2.008,2.009Zm69.294,0c1.868,2.584.082,1.591-2.009,3.013Zm-397.689,1h0Zm44.188,0h0Zm38.162,0h3.013q-1.005,1-2.009,2.009Q120.873,111.4,120.371,110.4Zm31.132,0v3.013q0.5-1.506,1-3.013h-1Zm88.375,0-3.012,3.013q0.5,6.025,1,12.052c3.967-.63,1.815,1.8,4.017,0l6.025-5.022-3.012-1,5.021-3.013C247.014,113.286,244.767,111.774,239.878,110.4ZM66.141,111.4l1,2.008Zm41.175,0q0.5,3.012,1,6.025h7.03l-5.022-6.025h-3.012Zm164.7,0-8.034,9.038,6.025,3.013,9.039-6.026q-1.005-2.008-2.009-4.017C275,111.324,276.032,112.041,272.015,111.4Zm40.17,0-3.013,2.008v1C313.108,112.782,312.833,113.6,312.185,111.4Zm104.444,0h2.008l-3.013,2.008Zm-355.51,1,2.008,2.009C61.2,113.017,62.527,114.314,61.119,112.407Zm151.644,0,3.013,1Zm143.61,0,3.013,1v1C356.35,113.151,358.184,114.434,356.373,112.407Zm-283.2,1h0Zm93.4,12.052c0.069,10.465.761,16.9,8.034,22.094l2.009,3.013,20.085-8.035c-4.1-3.042-5.124-12.164-8.034-18.077-8.8-3.438-23.552-11.44-33.141-10.042v1q3.012,4.518,6.026,9.038c3.537-.9,8.151-0.84,10.042,1h-5.021ZM221.8,113.411l3.012,1Zm39.166,0-2.009,4.017c4.22-1.543,2.459.186,4.017-4.017h-2.008Zm-191.814,1,4.017,3.012C69.327,116.1,71.082,117.43,69.154,114.416Zm14.06,0,1,2.008Zm17.073,0h2.008c-1.4,1.93-.1.6-2.008,2.008v-2.008Zm40.17,0c1.4,1.93.1,0.6,2.009,2.008Zm74.316,0-3.013,1q0.5,1,1,2.008c0.279,2.376-.223,1.253,1,4.017h4.017l2.009-2.008Zm91.388,0,2.008,1Zm124.528,0H432.7C430.944,115.4,432.476,115.332,430.688,114.416Zm-355.509,1h0Zm113.482,0,4.017,5.021Zm95.4,0c-1.657,5.864-5.831,8.894-11.047,11.047v1c8.1-2.16,20.129-4.376,25.107-10.043v-1C290.584,118.355,290.942,119.016,284.066,115.42Zm37.158,0v2.008l-2.009-1-2.008,4.017,4.017,1,2.008-2.008h2.009l-1-3.013Zm5.021,0q0.5,1.506,1,3.013l5.022-1.005v-1Zm78.333,0h0Zm-326.386,1h0Zm40.17,0v0Zm7.03,0,2.009,1Zm11.047,0,2.009,1Zm71.3,0-2.009,1q1.506,5.022,3.013,10.043l1-2.008,4.017-2.009Zm19.081,0,2.008,3.013C227.567,116.4,228.85,118.236,226.823,116.424Zm76.324,0c1.261,1.563.428,1.239,2.008,0h-2.008Zm8.034,0v0Zm11.047,0,1,2.009Zm37.158,0-8.034,1,3.012,4.017H363.4v1.005l-8.034,1,5.021,4.017h9.038v1l-7.03-1c1.081,6.013,4.48,3.335-1,6.026-1.053-6.034-10.243-12.515-17.072-16.069-7.713.5-21.361,7.188-24.1,12.052-2.449,2.709-2.892,4.653-3.012,10.043h1c8.846-4.6,20.817-6.188,34.145-10.043v2.008c-8.067,1.313-20.15,5.043-25.107,10.043l4.017,1-1,1c-2.633-.228-7.346-0.289-10.043,2.008-0.662,3.073.99,1.552-3.012,3.013-1.134-2.478.5-1.131-3.013-2.008-0.627,4.618-3.016,3.556-7.03,7.029,4.73,1.279,7.413,3.747,10.043,7.03l-1,4.018h-2.008c-0.991-5.218-.693-4.364-5.022-6.026,0.2,2.062,1.156,2.625-1,2.008,2.039,5.144,2.986,9.466,9.039,11.048l6.025-6.026-3.013-1h6.026l-4.017-10.043h3.013c0.292,6.928,1.1,8.867,6.025,9.038q-0.5,1-1,2.009c-6.784,1.321-9.3,4.632-14.06,8.034v1l5.022,1v1h-4.017c-3.765-3.515-6.43-5.093-8.035-11.047l-2.008,2.008c-1.782,1.247-1.655,1.579-3.013,3.013l2.009,3.013,13.055,9.039,2.009-1c1.66-5.918,3.5-8.1,8.034-11.047l-4.017-3.013c5.609-.891,5.075-1.527,10.042,0,0.947-4.273,1.159-3.362,3.013-6.025-2.22-3.992-4.714-6.012-5.021-9.039h1c3.659,4.783,6.294,9.288,9.038,10.043,1.058-1.649,6.751,2.819,12.052,3.013l-4.017-1,3.012-3.013q-2.51-3.013-5.021-6.026c6.591,2.356,7.9,3.209,15.064,0,0.35-14.479,6.08-21.577,5.021-31.133l3.013,2.009,3.013,4.017c-6.357.46-8.56,4.141-8.034,14.06l13.055-3.013c-0.946-4.356.262-11.679,2.009-16.068-2.824-3.635-2.183-5.172-7.03-5.022-2.592-2.633-3.445-2.469-6.026,0h4.017v1c-3.666.916-2.053-.037-4.017,2.009l-3.012-1c0.554-4.3,2.369-5.768-4.018-5.022Zm22.093,0,1,5.021h1C382.907,117.418,383.534,118.442,381.479,116.424Zm43.184,0h4.017v1Zm-388.65,1,1,2.009Zm37.158,0h2.009c-1.4,1.931-.1.6-2.009,2.009v-2.009Zm168.717,0c1.931,1.4.6,0.1,2.008,2.009Zm161.686,0,2.009,2.009-6.026-1Zm-171.729,1.005-3.013,4.017c-5.039-1.7-2.636-2.478-7.029-1.005-1.647,3.365-2.641,2.58-2.009,6.026v5.022c-3.027-1.237-1.838-1.309-5.021-1v-5.021l-2.009,1q-2.008,4.017-4.017,8.034l1,2.009c4.642-2.81,4.606-3.59,11.047-3.013l-4.017,3.013c-3.11-.038-2,0.141-6.025,1v1l4.017,20.085h1q2.511-1.506,5.021-3.013c1.29,3.019.631,2.255,3.013,4.017-0.366-4.035-.009-7.591-2.008-11.047l6.025,2.009c-3.567,6.994.026,11.365-9.038,14.06q1,7.029,2.008,14.06c2.643,1.242,3.2,6.6,2.009,11.047l3.013-2.009c1.21-15.89,11.526-26.526,5.021-44.188h5.021c0.17,4.488-1.783,1.61,2.009,4.017-2.887-8.119-6.636-5.457-7.03-15.064-4.861.591-7.127,1.795-10.043-1h11.047q-2.51-3.013-5.021-6.026c5.04,2.105,3.341,2.985,7.03,2.008C232.585,124.472,233.249,119.927,231.844,118.433Zm89.38,0q0.5,1,1,2.008Q321.725,119.438,321.224,118.433Zm-204.87,1-1,2.008h3.012q-0.5-1-1-2.008h-1Zm5.021,0,1,2.008,1-2.008h-2.009Zm12.051,0q-0.5,1-1,2.008l3.013-2.008h-2.009Zm21.09,0q-0.5,2.008-1,4.017h3.012Zm53.226,0q0.5,1,1,2.008Q208.243,120.441,207.742,119.437Zm188.8,0,1,3.013-2.009-1.005Q396.042,120.441,396.543,119.437Zm-138.588,1,2.009,1Zm50.213,0q-1.506,2.511-3.013,5.022C307.92,123.153,308.183,123.064,308.168,120.441Zm85.363,0q0.5,1,1,2.009Q394.032,121.445,393.531,120.441Zm-255.083,1c-1.778,3.015-1.76,3.349-5.022,5.022l2.009-4.017-13.056,5.021v2.009l20.086-3.013q0.5-2.511,1-5.022h-5.021Zm7.03,0v11.048L151.5,134.5C148.983,129.273,150.76,122.878,145.478,121.445Zm153.652,0-2.009,5.022c2.222-2.071,1.89-1.388,3.013-5.022h-1Zm16.068,0q-3.012,3.013-6.026,6.026C313.535,126.328,316.354,125.444,315.2,121.445Zm61.26,0h0ZM67.145,122.45l3.013,2.008Zm155.661,0h2.008c-1.4,1.931-.1.6-2.008,2.008V122.45Zm40.17,0-3.012,5.021h2.008c1.512-1.976,2.476-.728,5.021-3.013ZM33,123.454h0Zm81.345,0v3.013h-8.034v1c8.24-.848,14.826,1.478,20.086-4.017H114.345Zm87.371,0v4.017l2.009,1Q202.72,125.966,201.716,123.454Zm50.213,0c-4.875,3.057-6.576,2.059-7.029,10.043q0.5,1,1,2.008l3.013-2.008C249.6,130.324,254.211,126.61,251.929,123.454Zm155.661,0,2.009,2.009C407.668,124.064,409,125.361,407.59,123.454Zm-255.083,1,1,8.035,10.042,6.025c-0.241-4.678-.7-3.59,1-7.03C159.667,127.412,157.957,125.661,152.507,124.458Zm250.062,0h2.009l-2.009,3.013-2.009-2.008h2.009v-1Zm-307.3,1c3.65,0.646,3.04.405,5.022,2.008H94.26Zm51.218,0h0Zm77.328,0h0Zm95.4,0c-5.1,3.719-9.3,3.5-11.047,11.047,1.339,3.158.689,2.133-2.008,6.025,5.9,0.6,4.018,1.485,8.034,0Q316.7,134,319.215,125.463Zm-81.345,1c0.646,3.65.405,3.04,2.008,5.021h1.005C239.819,127.822,240.065,128.535,237.87,126.467Zm49.209,0v3.013c-7.469-2.743-18.349,2.221-22.094,7.03h2.008c3.039,5.417,7.93,7.047,12.052,8.034l-1-4.017c-4.125-1.268-7.831-2.687-9.038-5.022,4.457,0.631,10.2.773,13.055-4.017-3.075-.023-1.405.966-4.017-1h9.039c1.361,2.064,1.124,1.616,3.012,3.013l-2.008-4.017,5.021-2.009v-1h-6.025Zm39.166,0q0.5,1,1,2.008Q326.748,127.471,326.245,126.467Zm-232.989,1c2.327,2.135,2.819,2.154,4.017,7.03h-1l-5.021-4.017Zm46.2,0c-10.593,5.865-26.566.973-30.128,7.03l6.026,1-5.022,1,3.013,4.017c17.534,2.6,35.482,7.277,48.205,16.068,4.277-2.3,5.124-2.3,11.047-3.013l-1-3.012-10.042-9.039c-10.6.524-23.813,3.983-27.115-7.03,6.817,4.247,12.572,5.475,22.093,5.022C150.88,135.11,144.661,131.517,139.452,127.471Zm29.124,0,2.008,2.009C168.653,128.081,169.983,129.378,168.576,127.471Zm138.588,0q-0.5,1-1,2.009l2.008-2.009h-1Zm23.1,0h0Zm-285.211,1,1,3.013H42.038v-1h2.008Zm282.2,0,1,2.009Zm25.107,0h2.008q-0.5,1.507-1,3.013Q352.857,129.982,352.356,128.475Zm26.111,0h0Zm-271.151,1,3.012,1Zm196.835,0-8.034,8.034h3.013l2.008-1Q302.645,133,304.151,129.48Zm-145.618,1,2.008,2.009-1,1Q159.034,131.991,158.533,130.484Zm104.443,0-13.055,16.069h1c6.164-2.527,3.181-1.54,10.043,1-2.016-4.108-2.907-5.052-3.013-9.039C261.387,136.708,264.227,131.133,262.976,130.484Zm124.529,0q0.5,2.008,1,4.017l-3.012-3.013h2.008v-1Zm-258.1,1h0Zm84.358,0,1,2.009Zm61.261,0h3.012V133.5l-3.012,1v-3.013Zm116.494,0q0.5,1,1,2.009Q392.025,132.492,391.522,131.488Zm35.149,0,2.009,2.009h-3.013Q426.17,132.492,426.671,131.488Zm5.022,0c1.968,2.627.592,0.044,0,4.017h-1Q431.191,133.5,431.693,131.488Zm-315.339,1h0Zm121.516,0c-0.225,4.695-1.731,3.325,2.008,6.025q-0.5-1-1-2.008c3.6-1.79,1.189.533,3.013-3.013Zm46.2,0v0Zm22.094,0-1.005,3.012,2.009-2.008Zm44.187,0h0Zm-277.176,1v2.008C74.152,133.753,74.087,135.284,73.171,133.5Zm137.585,0,1,2.008Zm-89.38,1c4.993,2.11,7.247,4.573,8.034,11.047h-1V143.54Zm6.026,1q0.5,1.005,1,2.009Q127.9,136.51,127.4,135.505Zm274.164,0h0Zm-310.318,1c1.4,1.93.1,0.6,2.008,2.008Zm14.06,0-2.009,5.021,3.013,1,9.039,2.009Zm292.241,0v2.008C398.529,136.766,398.464,138.3,397.548,136.51Zm-171.729,1,2.008,4.017h-3.013Zm16.068,0c-1.277,3.294-.921,1.2-1,5.021h2.008Q242.389,140.026,241.887,137.514Zm149.635,0,2.009,1Zm20.085,0-10.042,5.021v1c8.091,1.23,12.612.6,22.094,0l-1,2.008-13.055,1v1c7.443,0.271,9.762.384,15.064-1,1.281-2.884-.625-1.809,2.008-4.018l-2.008-2.008C423.4,140.76,415.031,139.667,411.607,137.514Zm-324.377,1,9.038,11.047c3.146-2.6,4.8-4.987,2.008-8.034C95.418,139.82,92.081,140.108,87.23,138.518Zm196.836,0,1,2.009q0.5-1,1-2.009h-2.008Zm-177.755,1,1,2.008Zm153.653,0c1.545,4.17,2.728,4.236,5.021,5.021v-1Zm44.187,0-2.008,3.012,3.012,1Q304.654,141.532,304.151,139.523Zm31.132,0,1,2.008h-2.009Q334.781,140.527,335.283,139.523Zm76.324,0,1,2.008Zm-368.564,1h2.009c-1.972,2.074-.376,1.039-4.017,2.008Zm185.788,0h2.009q-0.5,2.009-1,4.017h-2.009Q228.33,142.536,228.831,140.527Zm58.248,0-4.017,6.026c3.561-2.68,4.087-1.2,5.021-6.026h-1Zm51.217,0,1,2.008Zm50.213,0c1.94,3.039.2,1.625,4.017,3.013C390.6,141.1,391.881,141.917,388.509,140.527Zm54.231,0,3.012,2.008H442.74v-2.008Zm-123.525,1-4.017,3.013,2.009,1,2.008-1q0.5-1.506,1-3.013h-1Zm29.124,1h0Zm57.243,0q1.506,1.005,3.013,2.009Q407.088,143.541,405.582,142.535Zm24.1,0q-0.5,2.511-1,5.022h1v-2.009l2.009-1Zm-228.972,1q1,3.012,2.009,6.025l2.008,1Zm-139.593,1,2.008,2.009C61.2,145.154,62.527,146.451,61.119,144.544Zm43.184,0,8.034,6.026,2.008-4.017C109.544,146.553,108.809,146.385,104.3,144.544Zm17.072,0c1.923,2.435.645,1.622,4.017,3.013Zm25.107,0q0.5,1,1,2.009Q146.984,145.548,146.482,144.544Zm149.635,0-2.008,1v1C296.586,145.163,296.559,146.662,296.117,144.544Zm4.017,0v0Zm2.009,0,2.008,2.009Zm27.115,0h4.017v5.021h-1C331.13,145.912,331.132,146.817,329.258,144.544Zm47.2,0c-2.164,2.294-1.52.716-4.017,2.009q1.005,3.012,2.009,6.025l6.025-5.021v-2.009Zm8.034,0v4.017H386.5Zm9.039,0c0.5,3.787-.734,2.312,3.012,5.021v-2.008c2.051-1.808.71-.015,2.009-3.013h-5.021Zm-291.237,1-1,2.009C103.154,146.305,101.839,146.66,102.294,145.548Zm13.056,0c2.277,2.082,1.045,1.673,4.017,1Zm151.643,0q-0.5,1-1,2.009C268.057,146.681,267.1,147.577,266.993,145.548Zm133.567,0c0.868,5.437.345,3.813,4.018,6.026l2.008-2.009H408.6l-1.005-2.008Zm46.2,0h0Zm-350.488,1h0Zm91.388,0-9.039,5.021,5.022,6.026c8.923,4.478,13.189,9.842,26.11,12.051-3.106-9.725-6.532-16.989-13.055-23.1h-1v2.008c-2.305,6.276-.666,9.74-6.026,13.056a47.194,47.194,0,0,0,4.017-15.064h-6.025Zm59.251,0c0.2,8.695,4.741,22.182,9.039,30.128l5.021-6.026c-1.775-2.088-.491-0.04,0-3.013l-7.03,2.009q0.5-1.506,1-3.013c3.075-.024,1.406.966,4.017-1-2.8-3.691.113-2.266,1-10.043C249.888,154.759,250.205,151.39,246.908,146.553Zm6.026,0q-1,2.007-2.009,4.017l2.009,1,10.042,2.008v-1C260.268,149.233,257.663,147.968,252.934,146.553Zm9.038,0,2.009,2.008-1-2.008h-1Zm35.149,0-6.025,3.012c1.933,1.523,1.777,1.8,3.013,4.017-3.5-1.273-3.555-1.667-6.026-2.008-4.328,11.443-13.662,16.788-9.038,29.124l-4.017-3.013-1,4.017h2.009c6.912,2.946,14.677-2.593,18.077-3.012l-6.026-10.043C292.474,166.372,298.743,150.908,297.121,146.553Zm-185.788,1h0Zm26.11,0-4.017,2.008,1.005,2.009h8.034v-3.013h-2.009Zm86.367,0h0Zm7.03,0c-0.624,2.18.225,1.83-3.013,4.017Zm39.166,0-4.017,2.008,6.026,2.009c2.181-3.748.815,1.391,5.021-2.009Zm37.158,0q-0.5,1.506-1,3.013C307.537,148.415,307.989,150.028,307.164,147.557Zm-205.874,1-4.017,3.013,1,2.008,12.051-1q-1-1.506-2.008-3.013Zm87.371,0,2.008,2.009C188.739,149.171,190.068,150.468,188.661,148.561Zm45.192,0,2.008,1Zm68.29,0c-2.1,3.395-1.546-.306-3.013,3.013-4.582,7.638-8.655,18.456-2.009,26.111l2.009-1C301.911,167.785,305.049,155.53,302.143,148.561Zm66.281,0c1.4,1.931.1,0.6,2.009,2.009Zm-250.062,1,3.013,3.013c-6.954-1.241-14.118,3.122-22.094,3.013v4.017c9.283,6.319,21.551,31.428,28.12,33.141l23.1-9.038q-0.5-1.005-1-2.009l-9.039,2.009v-4.017l26.111,4.017c-0.647-4.3.513-8.591-3.013-12.051H150.5c-0.718-4.825-5.11-7.619-10.043-11.048l-4.017,2.009c-8.191,3.547-5.1,7.267-8.034,12.051l-3.013-1c1.676-3.463,1.788-4.574,1.005-9.038,4.009,0.892,1.58,2.241,5.021-1H119.367l15.064-2.008,2.008-4.017q-1.506-2.511-3.013-5.022A76.785,76.785,0,0,0,118.362,149.565Zm196.836,0c3.942,1.34,3.243.375,5.021,4.017Zm69.294,0v3.013H386.5C385.236,149.543,386.519,151.377,384.492,149.565Zm4.017,0c0.337,1.981,1.307.484,0,2.009v1l4.017-2.008Zm21.09,0q-0.5,1.005-1,2.009l4.017-2.009H409.6Zm11.047,0c-2.833,2.556-1.235,1.352-3.013,4.017l6.026,2.009Q422.152,152.579,420.646,149.565Zm22.094,0c3.843,1.327,2.088,0,4.017,3.013C442.913,151.252,444.668,152.58,442.74,149.565Zm-283.2,1h2.009l-3.013,2.008Q159.036,151.575,159.537,150.57Zm172.734,0h0Zm47.2,0-2.009,1c1.809,2.051.016,0.71,3.013,2.008V150.57h-1Zm-56.239,1h3.013v1l-3.013,1v-2.008Zm33.141,0q0.5,1,1,2.008Q356.874,152.579,356.373,151.574Zm13.055,0q-0.5,1.506-1,3.013c3.763-1.083,1.2-1.746,5.021,0Zm79.337,0q0.5,1,1,2.008Q449.268,152.579,448.765,151.574Zm-89.379,1H363.4v1q-1,1.005-2.009,2.009Zm37.157,0,1,3.013-2.009,1c-2.348-2.138-.029-2.091-3.013-1-2.252,1.413-2.52,1.979-4.017,4.017h6.026l4.017-5.021Zm-318.351,1,7.03,3.013C83.032,153.691,83.144,153.967,78.192,153.582Zm46.2,0H126.4c-1.4,1.931-.1.6-2.009,2.009v-2.009Zm21.09,0c-2.642,3.436-1.266,1.379-8.035,1V157.6c6.362,0.515,17.282,11.2,36.154,14.06v2.008h-5.021q0.5,1,1,2.009l3.013-1c-1.754,2.829-2.18,2.58-3.013,7.03,12.259-1.3,23.1,1.371,32.136,5.022l1-3.013q0.5-1.506,1-3.013C188.9,169.642,163.3,160.883,145.478,153.582Zm131.558,0c-4.331.209-4.847,0.264-7.03,2.009,1.931,1.4.6,0.1,2.009,2.009-3.117-1.153-2.985-1.413-6.026-1q1.005,4.52,2.009,9.039l9.038-5.022v-7.03Zm65.277,0,1,2.009Zm3.013,0,2.008,2.009C345.4,154.193,346.733,155.489,345.326,153.582Zm62.264,0q-0.5,1.005-1,2.009l17.073,8.034C420.925,159.232,413.218,154.885,407.59,153.582Zm-319.355,1-2.008,1V157.6h4.017v-3.013H88.235Zm4.017,0-1,3.013h5.021c-2.469-1.963-.406-0.57-3.013-1Zm80.341,0-4.017,2.008q0.5,1.507,1,3.013l4.017,4.017H183.64v-1l-2.009-3.013Zm69.294,0q-5.021,17.572-10.043,35.15l6.026-1c1.972-2.074.376-1.039,4.017-2.008-0.444-7.43,1.776-7.283,4.017-14.06h1q-1,4.017-2.008,8.034c3.909,0.507,1.926.244,6.025,2.009Q246.407,168.648,241.887,154.587Zm64.273,0q0.5,1.506,1,3.013l3.013-1Zm33.14,0h0Zm18.077,0h2.009c-1.4,1.931-.1.6-2.009,2.008v-2.008Zm-38.162,1q0.5,1.506,1,3.013h-1v-3.013Zm-278.181,1c1.931,1.4.6,0.1,2.008,2.009Zm69.294,0,1,2.009Zm56.239,0-3.013,2.009,1,2.008,5.021,2.009Q168.074,159.609,166.567,156.6Zm174.742,0,1,2.009Zm77.328,0,3.013,1Zm-285.211,1h0Zm187.8,0h2.008C321.48,158.581,323.011,158.516,321.224,157.6Zm52.221,0L363.4,162.621l1,2.009h5.021l5.022-7.03h-1Zm17.073,0h0Zm10.042,0c-3.061,2.287-4.173,2.29-6.025,6.025l12.051,2.009-3.013-1q1-1,2.009-2.009c4.947,2.69,5.082,2.7,11.047,1l-1-2.008C406,161.012,410.943,159.194,400.56,157.6Zm22.094,0,5.022,3.012C425.6,158.391,426.288,158.723,422.654,157.6Zm29.124,0,2.008,2.008C451.856,158.21,453.185,159.506,451.778,157.6Zm-383.629,1-4.017,3.013C66.023,161.14,70.964,159.808,68.149,158.6Zm50.213,0,6.026,2.008v1C118.73,161.161,116.947,161.633,118.362,158.6Zm100.427,0-1,2.008h2.009Q219.291,159.609,218.789,158.6Zm-147.627,1h0Zm309.313,0v2.009c-2.7.489-.831-0.882-3.013,2.008v1l7.03-1Zm-270.147,1h3.013l-2.008,2.009Zm194.827,0v5.022l2.009-1v-1Zm82.35,0q-0.5,2.511-1,5.022l6.025-4.017v-1h-5.021Zm62.264,0,4.017,2.009v1h-1l-3.013-1v-2.009Zm-195.831,1,3.013,2.008C254.04,163.092,252.033,164.422,253.938,161.617Zm114.486,0h2.009l-3.013,2.008Zm31.132,0h0Zm28.12,0,2.008,1Zm-340.446,1,2.009,1Zm129.55,0q-0.5,1.506-1,3.013C217.874,163.339,216.939,165.253,216.78,162.621Zm116.495,0h0Zm42.179,0q-0.5,1-1,2.009l2.008-2.009h-1Zm22.094,0h0Zm-335.424,1h2.009c-2.3,1.532-1.22,1.834-4.017,1Zm29.124,0-5.021,3.013,5.021,4.017c0.972-2.627-.4-1.216,4.017-2.008l-1,2.008-8.034,1c4.445,3.38,2.213,5.716,6.026,9.038l3.013,2.009,4.017-3.013c0.844,4.285,6.489,6.077,11.047,9.038,1.658-3.624.275-2.359,4.017-4.017q-1,3.013-2.008,6.026l7.03,2.008c-5.421-11-9.369-20.123-19.081-24.1,0.9-3.408.852-1.332,1-4.017Zm22.094,0h4.017v1Zm137.584,0h0Zm36.154,0q0.5,1,1,2.009Q287.581,164.629,287.079,163.625Zm167.712,0,11.047,5.022v1h-4.017Q458.3,166.639,454.791,163.625Zm7.03,0h0Zm6.025,0q0.5,1,1,2.009Q468.349,164.629,467.846,163.625Zm-324.377,1q0.5,1,1,2.008Q143.972,165.635,143.469,164.63Zm273.16,0-6.026,2.008v1l10.043-1Zm-77.329,1,2.009,1Zm53.226,0,2.009,1Zm56.239,0h0Zm-364.548,1v3.013c-3.527-1.1-.534-2-4.017,0v1h4.017l2.009-1v-1Zm12.051,0h2.008l-3.013,2.009Zm173.737,0c-2.39,2.091.161,0.878-3.013,1l1,7.03h1Q269.5,170.657,270.006,166.638Zm102.435,0-3.013,2.009,2.009,2.008c1.808,2.051.015,0.71,3.013,2.009,1.872-3.5,4.074-1.23,8.034-6.026H372.441Zm62.264,0,1,2.009Zm-377.6,1c1.868,2.585.083,1.592-2.008,3.013Zm273.16,0,2.009,1Zm55.235,0c1.695,2.491.6,1.175,3.012,0H385.5Zm-342.454,1,1,2.008Zm237.006,0c2.074,1.972,1.039.376,2.008,4.017h-1Q280.551,170.656,280.049,168.647Zm58.247,0v0Zm6.026,0,2.008,2.008C344.932,168.724,346.228,170.054,344.322,168.647Zm5.021,0q-0.5,1-1,2.008l2.008-2.008h-1Zm43.183,0q-0.5,1-1,2.008l15.064,3.013C403.338,169.856,399.643,168.731,392.526,168.647Zm-51.217,1c1.4,1.931.1,0.6,2.008,2.009Zm92.392,0q0.5,1,1,2.009H432.7Q433.2,170.655,433.7,169.651Zm21.09,0,3.012,2.009C454.893,171.126,452.886,172.456,454.791,169.651Zm12.051,0h0Zm-413.757,1h0Zm5.021,0c2.051,1.808.71,0.015,2.008,3.013C57.046,171.747,57.58,174,58.107,170.655Zm42.179,0h2.008l-3.013,2.009Zm329.4,0q0.5,1.506,1,3.013h-1v-3.013Zm-353.5,1q0.5,2.007,1,4.017l10.043,4.017c-0.095-3.175-1.761-1.451,1-3.013-1.923-2.435-.645-1.623-4.017-3.013v3.013Zm55.235,0h6.025l-4.017,4.017c4.525-.791,4.972-0.3,7.03,4.017-4.991-2.8-5.05-2.824-10.042,0l-1-3.013Q130.414,174.17,131.418,171.66Zm16.068,0h0Zm53.226,0,6.026,4.017v-3.013Zm-61.26,1q0.5,1,1,2.008Q139.954,173.669,139.452,172.664Zm142.605,0,1,2.008Zm52.222,0,3.013,1Zm44.188,0-2.009,1q0.5,1,1,2.009C378.839,173.522,379.292,175.135,378.467,172.664Zm6.025,0-3.013,3.013q1.005,1.506,2.009,3.013c12.025-2.1,15.011,6.248,26.111-1v-1C402,174.345,395.823,172.584,384.492,172.664Zm61.26,0c1.931,1.4.6,0.1,2.009,2.008l-2.009-1v-1Zm8.034,0H455.8c-1.4,1.931-.1.6-2.009,2.008v-2.008Zm4.017,0q3.516,2.51,7.03,5.021l-7.03-1q-0.5-1.005-1-2.009Q457.3,173.669,457.8,172.664Zm-155.66,1-1,6.026-9.038,5.021c1.023,3.885,1.551.473,0,4.017l23.1-6.025-1-2.009Zm42.179,0v2.009C345.3,173.924,345.238,175.456,344.322,173.668Zm-105.448,2.009,4.017,3.013h-4.017v-3.013Zm64.273,0h0Zm23.1,0q-1,3.012-2.009,6.025h5.022c0.366-4.124-1.46-1.747,1-4.017Zm33.141,1c2.22,2.157,1.947,1.987,5.021,1Zm13.055,0,2.009,1Zm62.264,0c-0.508,1.388.459,1.022-2.008,3.013Zm-223.95,1c-1.2,4.807-2.333,7.867,0,11.047l2.008,4.017,2.009-1v-1Zm47.2,0,2.009,1Zm7.03,0,2.008,4.017Zm-223.951,1h0Zm59.252,0L104.3,180.7v1C100.459,180.376,102.214,181.7,100.286,178.69Zm371.577,0h2.009c-1.4,1.93-.1.6-2.009,2.008V178.69Zm-236,1h3.013l-2.008,2.008Zm150.64,0-2.009,1S388.67,180.275,386.5,179.694Zm22.094,0-2.009,2.008q3.012,1.507,6.026,3.013,1-1.506,2.008-3.013C412.157,181.367,412.067,181.048,408.6,179.694Zm20.085,0,2.008,2.008C428.758,180.3,430.087,181.6,428.68,179.694Zm3.013,1,6.025,2.009v1Zm-324.377,1h0Zm19.081,0h0Zm207.882,0c2.531,1.634.167,0.99,3.013,0h-3.013Zm-211.9,1H126.4v1Zm238.011,0-4.017,3.012C358.263,185.243,363.2,183.911,360.39,182.707Zm16.068,0-5.021,3.012,10.042,2.009-2.008-3.013,4.017,2.009C380.349,182.032,379.23,184.373,376.458,182.707Zm-215.917,1-2.008,1,5.021,1Zm16.069,0-7.03,3.013c6.171,0.264,8.663.75,12.051-1Zm67.285,0c1.218,1.062,5.36,1.889,3.013,0H243.9Zm45.192,0-2.008,1v1C289.832,185.02,289.031,185.638,289.087,183.711Zm35.149,0c2.645,2.443,2,1.5,6.026,1v-1h-6.026Zm27.116,0-9.039,5.021v1l10.043-1c0.933-2.592.557-2.4,2.008-5.021h-3.012Zm13.055,0,4.017,3.013C366.484,183.684,368.219,185.1,364.407,183.711Zm55.234,0h4.018l-2.009,2.008Zm48.2,0h0Zm-408.735,1-1,2.009,2.008-2.009h-1Zm189.806,0c2.956,2.72,1.74,1.4,4.017,0h-4.017Zm176.75,0q0.5,1,1,2.009Q426.17,185.719,425.667,184.715Zm5.021,0H433.7l-3.013,1v-1Zm-115.49,1q-0.5,1.005-1,2.009l6.025,1c-1.264-3.035.019-1.2-2.008-3.013C316.435,187.152,318.073,186.621,315.2,185.719Zm32.136,0h2.009l-3.013,2.009Q346.833,186.724,347.334,185.719Zm80.342,0,4.017,2.009v1h-1Zm-271.152,1c-7.162,3.676-24.281,11.951-29.123,12.051l6.025,6.026c4.6-1.632,8.935-2.659,11.047-7.03,6.187,1.5,11.594,5.731,15.064,10.043,20.273-12.865,34.737-4.82,58.247,0q-0.5-2.008-1-4.017C200.784,186.592,184.632,189.066,156.524,186.724Zm131.559,0-3.013,2.008c1.018,3.475.893,0.847-2.008,3.013q0.5,1,1,2.009h1l3.013-2.009c2.087-2.032,1.37-1,2.008-5.021h-2.008Zm-215.917,1h0Zm70.3,1,2.008,1Zm69.294,0c1.931,1.4.6,0.1,2.008,2.009Zm164.7,0c-2.2,1.045-5.352,1.651-7.03,3.013h9.039l-1-3.013h-1Zm15.064,0h0Zm-341.449,1h3.013c-2.793,3.638-2.475,1.634-3.013,6.025H48.064l-1-4.017Zm24.1,0,3.013,1-2.008,1-1,2.009-2.008-2.009Zm161.686,0-5.021,4.017c0.888,6.062-1.46,11.76-2.009,12.051l1.005,5.021c4.712-2.818,0,.242,6.025,0v-3.012h-3.013l6.026-1q1-4.016,2.009-8.034l-6.026-3.013,5.021-1C238.355,191.31,239.338,191.524,235.861,189.737Zm42.179,0-6.025,3.012q1.506,1.507,3.013,3.013l7.029-4.017c-2.468-1.963-.406-0.569-3.012-1Zm82.35,0c2.725,2.682,2.186,1.9,5.021,0H360.39Zm33.141,0,5.021,1Zm7.029,0h3.013v1C400.443,190.2,402.668,192.112,400.56,189.737Zm31.133,0h6.025v1q-0.5,1-1,2.008Zm-353.5,1H80.2l-4.017,4.017Zm164.7,0-3.013,1c4.17,5.292-3.111,3.218,3.013,6.026q0.5-1,1-2.009C243.771,191.772,244.8,193.686,242.891,190.741Zm7.03,0c-3.877,7.2-7.227,8.754-8.034,14.06l10.042-4.017-2.008-3.013,9.038,2.008v-3.012Zm49.209,0-7.03,5.021c2.063,1.362,1.616,1.125,3.013,3.013l-4.017,2.009,8.034,2.008-2.009-3.013c6.055,0.407,8.824-2.106,19.081-3.012l-7.03-1v-5.021H299.13Zm-76.324,1q0.5,2.008,1,4.017h1C223.9,192.1,224.852,193.709,222.806,191.745Zm88.375,0c1.626,2.115,7.5,3.829,10.043,2.009v-1Zm-265.126,1v3.013l-2.008-2.008Zm85.363,0-7.03,3.013,6.026,2.009Q130.915,195.26,131.418,192.749Zm-90.384,1,5.021,6.025h-1l-4.017-1v-5.021Zm334.42,0-2.009,1,3.013,4.017,3.013-3.013Zm-105.448,1q-1.506,4.017-3.013,8.034l4.017-2.008,2.009-3.013Zm123.525,0,6.025,2.009C396.9,194.662,397.232,195.469,393.531,194.758Zm32.136,0q0.5,1,1,2.009h-2.008Q425.165,195.762,425.667,194.758Zm-373.586,1,1,2.009Zm10.043,0c2.24,1.2,2.5,1.1,4.017,3.013C63.9,197.574,63.644,197.677,62.124,195.762Zm10.043,0c3.05,0.884.265,1.442-1,3.013Zm27.115,0,1,2.009Zm13.056,0c2.175,2.786,2.485,3.242,6.025,2.009Zm36.153,0H150.5c-1.4,1.931-.1.6-2.009,2.009v-2.009Zm156.665,0h2.009v1l-2.009,2.008h-1Q304.654,197.269,305.155,195.762Zm-269.142,1h0Zm166.708,0h0Zm87.37,0,2.009,1Zm110.469,0q-0.5,1-1,2.008C401.356,197.432,401.081,198.951,400.56,196.767Zm14.06,1h0Zm-364.547,1,1,3.013h-1l-1-1Zm48.2,0h2.009C98.533,199.756,100.065,199.691,98.277,198.775Zm178.759,0v2.009C278.017,199.031,277.952,200.563,277.036,198.775Zm79.337,0q0.5,1.506,1,3.013h-1l-1-1Q355.87,199.779,356.373,198.775Zm61.26,0h4.017v1Zm11.047,0,3.013,2.009v1h-1Zm-310.318,1c-0.22,3.345-.936,2.311,1.005,5.022,1.5-3.987.365-.369,3.012-3.013Zm-14.059,1h0Zm6.025,0,3.013,1Zm163.7,0-4.017,5.021,6.026-5.021h-2.009Zm39.167,0-7.03,4.017c2.911,0.533,4.917-.8,3.012,2.008l-22.093,12.052c10.14-.574,11.337,1.192,19.081,3.013v-3.013c-4.622-1.854-3.2-1.521-5.022-6.026,4.36,2.987,3.223,3.772,8.034,2.009,1.912-4.04,4.579-5.7,8.035-8.035-0.577-3.5-.355-2.947,1-6.025H313.19Zm7.029,0q-0.5,1.506-1,3.013C320.592,201.642,321.045,203.255,320.219,200.784Zm90.384,0h0Zm-287.219,1-3.013,5.021,1,2.009,7.03-1q-0.5-1.507-1-3.013Zm55.234,0-16.068,7.03,1,2.008c30.189,8.4,39.081,27.738,62.265,38.163v-3.013q-3.013-13.055-6.026-26.111c-5.252,2.955-6.485,2.949-7.03,0,3.494,0.057,4.082-.262,7.03-3.013-1.277-3.294-.92-1.2-1-5.021-14.7-3.043-28.351-12.236-41.175-6.026l3.013-4.017h-2.009Zm104.444,0-2.009,1v1C283.653,202.653,282.785,202.221,283.062,201.788Zm168.716,0q0.5,1,1,2.009Q452.28,202.792,451.778,201.788Zm-342.454,1c2.531,1.634.167,0.99,3.013,0h-3.013Zm35.149,0-9.038,6.026,4.017,5.021h1c7.115-1.083,10.389-3.258,17.073-3.013l-5.022-6.025Zm140.6,0c1.4,1.931.1,0.6,2.009,2.009Zm60.256,0h0Zm-290.232,1,2.008,2.008H54.09Zm397.688,0H455.8v3.012Zm-404.718,1h2.008l-1,3.013v-2.009Zm65.277,0c2.4,3.119,3.108,2.757,4.017,8.034l4.017-1v-1l-3.013-2.008C116.3,204.79,116.031,206.385,113.341,204.8Zm142.606,0,2.008,1Zm47.2,0-5.021,2.008,2.008,2.009,2.009-2.009C303.943,205.467,303.668,206.985,303.147,204.8Zm39.166,0h2.009l-2.009,3.013V204.8Zm99.422,0h2.009c-1.4,1.931-.1.6-2.009,2.008V204.8Zm4.017,0h2.009c-1.4,1.931-.1.6-2.009,2.008V204.8Zm26.111,0c1.931,1.4.6,0.1,2.009,2.008Zm-194.827,1-2.008,3.013,5.021-2.009Zm36.154,0H315.2C313.445,206.786,314.977,206.721,313.19,205.805Zm21.089,0q0.5,1,1,2.009h-2.008Zm4.017,0h3.013l-2.009,2.009Q338.8,206.809,338.3,205.805Zm-230.98,1-1,2.009C108.111,207.475,107.836,208.994,107.316,206.809Zm132.562,0c1.4,1.931.1,0.6,2.009,2.009Zm12.051,0-4.017,1,3.013,4.017c2.707-2.2,1.91-.716,3.013-5.022h-2.009Zm16.069,0q-1.506,3.014-3.013,6.026l2.008-1C268.123,208.305,270.885,208.4,268,206.809Zm190.81,0h0Zm-166.708,1-9.038,3.012q-1.507,4.52-3.013,9.039h1l15.064-11.047v-1H292.1Zm-247.049,1,2.008,2.008C45.129,209.428,46.459,210.725,45.051,208.818Zm-7.03,1h3.013l-2.009,2.009Zm9.038,1,2.008,2.009C47.138,211.437,48.467,212.733,47.06,210.826Zm64.273,0-7.03,4.018q0.5,1,1,2.008c3.987,1.811,1.839,1.588,6.026,2.009l4.017-4.017C113.711,212.276,114.112,212.409,111.333,210.826Zm127.541,0-7.03,2.009v3.013q5.021,15.063,10.043,30.128l2.008-2.008-5.021-7.03,2.009-3.013,6.025,4.017c1.034-3.513,4.739-17.732,5.021-18.077l-9.038-9.039h-4.017Zm90.384,1,2.008,6.025-3.013,1-2.008-2.009c2.048-2.986,2.86.33,2.008-3.013Zm77.328,1c2.064,1.361,1.616,1.125,3.013,3.013C406.889,214.241,408.215,215.507,406.586,212.835Zm-135.576,1q-0.5,2.008-1,4.017l5.022,5.022C273.89,218.943,275.229,215.978,271.01,213.839Zm147.627,0q0.5,1,1,2.009Q419.14,214.843,418.637,213.839Zm44.188,0v3.013l2.008-1Zm-130.554,1c2.05,1.808.709,0.015,2.008,3.012h-2.008v-3.012Zm13.055,1c1.931,1.4.6,0.1,2.008,2.008Zm-305.3,1h2.009C40.286,217.833,41.817,217.768,40.03,216.852Zm226.963,0v0Zm202.862,0h6.025c-0.9,3.045-1.3.832,1,3.013l-5.021,1c-1.808-2.051-.015-0.709-3.013-2.008Zm-424.8,1H47.06l-5.021,3.013Zm55.235,0h0Zm54.23,0c-16.224,8.679-30.376,11.9-36.154,31.133h-1v-4.017l4.017-8.034v-1h-4.017l-5.021,7.029c2.9,6.611,4.414,5.862,9.038,10.043l8.034-7.03c9.872-2.412,39.266,4.085,49.209,7.03l17.073-6.025c6.7-.476,6.919,4.84,12.051,2.008-5.984-10.121-14.894-8.07-25.107-14.06L169.58,217.856H154.516Zm273.16,0q-1.507,2.008-3.013,4.018V226.9h1l10.043-2.009q-1-2.007-2.009-4.017h3.013Zm10.042,0,2.009,1Zm-382.624,1,1,2.008Zm38.162,0c1.868,2.584.083,1.591-2.008,3.013Zm352.5,0q-0.5,1.506-1,3.013c2.051-1.809.71-.016,2.009-3.013h-1Zm-393.671,1c-0.426.932,0.805,0.679-1,2.009Zm126.537,0c5.2,8.764,11.1,12.068,22.094,15.064C195.689,228.4,186.84,223.029,178.618,219.865Zm89.38,0c-3.559,6.076-.287,11.272,1,18.077l3.013-2.008c2.06-5.9,4.562-6.128,1-10.043Zm183.78,0,2.008,1Zm-129.55,1c1.931,1.4.6,0.1,2.008,2.009Zm97.413,0c-0.631,4.037-1.581,5.383,2.009,7.03v-2.008l1-1C421.328,221.043,422.656,222.8,419.641,220.869Zm30.128,0v0Zm-164.7,1,2.009,1Zm7.03,0,4.017,1Zm145.618,0q-0.5.5-1,1l2.008,2.008h1q0.5-1.506,1-3.012h-3.013Zm-220.938,1q0.5,1,1,2.008Q217.283,223.883,216.78,222.878Zm-169.72,1h2.008l-3.013,2.009Zm242.027,0-6.025,1c1.226,4.045.641,12.788-3.013,19.082l-2.009-2.009q1-2.51,2.009-5.021c-7.579,6.066-30.583,43.252-21.09,55.235,1.648-9.2,8.459-10.068,15.064-14.06l-5.021-1,5.021-2.009c1.734-5.238,2.37-4.537,1-9.038,3.5,1.274,3.554,1.667,6.025,2.008q1-5.02,2.009-10.042c4.063,0.613,3.166-1.227,5.021,1l2.008,2.009c-5.119,1.943-6.754,5.395-9.038,10.042,6.187-4.666,7.76-3.044,16.068-1q0.5-8.535,1-17.073c-6.517.98-5.584,1.522-10.043,4.017v-1l11.047-16.068-1-1-7.03-1c5.3-.6,7.135-0.739,9.038-5.021-2.809-1.9-.022-1.71-2.008-5.022,5.108,0.359,2.243,3.3,5.021-1C298.194,224.82,295.226,224.768,289.087,223.882Zm124.529,0-2.009,1c0.407,4.048.329,3.929,2.009,6.026V228.9C415.019,225.649,415.337,227.174,413.616,223.882Zm62.264,0,3.013,2.009H475.88v-2.009Zm-71.3,2.009-6.026,2.008c3.341,2.964,4.157,1.724,4.017,6.026l8.034-4.017v-4.017h-6.025Zm-116.495,1c3.036,1.265,1.2-.019,3.013,2.009h-1Zm4.017,1c2.776,3.644,2.883,3.266,1,7.03l-2.008-2.008C292.958,230.735,291.861,232.736,292.1,227.9Zm101.431,0q0.5,1,1,2.009h-2.009Zm41.174,0,4.017,1Zm14.06,1q0.5,1,1,2.008Q449.268,229.909,448.765,228.9Zm17.073,0h0Zm6.025,0,5.021,3.012C473.742,230.9,473.669,231.084,471.863,228.9Zm-359.526,1c2.66,1.414.873,0.527,0,3.013v-3.013Zm212.9,0,2.008,2.008C325.318,230.518,326.648,231.814,325.241,229.908Zm94.4,0a20.489,20.489,0,0,0-4.017,4.017l6.026-4.017h-2.009Zm4.018,0,2.008,1Zm-24.1,1c-3.17,4.863-7.15,5.579-9.038,12.051l13.055-4.017Q401.564,234.931,399.556,230.912Zm30.128,0c-2.242,1.61-3.352,1.7-5.021,4.017,7.833-3.345,8.642,1.651,9.038,8.034,1.793-2.616,1.6-1.617,1-5.021,4.653-1.27,5.216-2.048,7.03-6.026h-2.008Zm-324.377,1c1.314,2.732.443,1.932-1,4.018Q104.8,233.926,105.307,231.916Zm371.577,0,5.022,1v1C477.879,233.344,478.9,233.971,476.884,231.916Zm-145.618,1h0Zm49.209,0,1,2.008h-2.008Q379.973,233.926,380.475,232.921Zm10.043,0h0Zm63.268,0c1.931,1.4.6,0.1,2.009,2.008Zm-158.673,1c1.931,1.4.6,0.1,2.008,2.009Zm124.528,0c-2.818,4.313-4.862,3.262-10.042,4.017v2.009h2.008l8.034,1v-7.03Zm26.111,0c0.372,2.519.223,2.089,2.009,5.021-5.606-1.719-5.764-4.733-8.034,2.009l2.008-1c-1.388,1.685-2.3,1.76-4.017,3.012h7.03v-4.017c3.977,6.165,6.5,7.169,14.06,12.052l9.038-5.022v-4.017h-1C460.7,243.9,452.943,237.507,445.752,233.925Zm-111.473,1h0Zm93.4,0-5.022,2.009c0.291,6.612.591,5.845,5.022,8.034l5.021-3.013C431.181,238.214,431.067,236.926,427.676,234.929Zm52.221,0h0Zm-10.042,1,1,2.008Zm-397.689,1h0Zm188.8,2.008q-0.5,2.511-1,5.022l2.008-1Q261.47,240.956,260.968,238.946Zm215.916,0h0Zm-181.771,2.009h0Zm-19.081,1c2.133,2.353.443-.113,1,3.013l-3.013,1Zm36.153,0c2.216,2.632,3.775,2.352,7.03,4.017-2.616.87-3.507-.4-2.008,2.009,6.893,0.049,5.673,3.391,12.051,5.021l-4.017,2.009c-0.647.978,0.155,1.6-2.009,1-3.906,1.824-3.506-.8-7.03,3.013v1h12.051c-6.22.071-8.215,1.14-12.051,3.013l1,3.013,2.008,1c7.31-1.188,4.269-4.255,9.038-4.017l-2.008,3.013c5.736-1.7,5.346-3.781,10.043-3.013l-9.039-6.026,8.034,2.009c-1.1-4.964-3.661-12.967-7.03-16.069C322.1,245.269,319.9,242.949,312.185,241.959Zm-202.861,1-4.017,4.018,2.009,3.012c5.013-.285,4.594.177,4.017-3.012v2.008l-2.009-1C110.467,244.137,111.306,246.407,109.324,242.963Zm297.262,0c0.435,4.01,7.782,8.968,9.038,10.043V251q1.507-4.017,3.013-8.035H406.586Zm-320.36,1,1,2.008Zm167.712,0v6.025h1Q254.441,246.981,253.938,243.968Zm31.132,0q0.5,1,1,2.008Q285.573,244.972,285.07,243.968Zm20.085,0v0Zm47.2,1h3.013l-1.005,2.009h-4.017Q351.352,245.976,352.356,244.972Zm4.017,0,5.021,1q1,2.008,2.009,4.017Zm65.277,0L418.637,251l5.022-4.017Zm9.038,0c2.3,1.531,1.22,1.834,4.017,1Zm-371.577,1c-0.426.933,0.805,0.679-1,2.009Zm28.119,0,1,2.009Zm196.836,0,1,2.009Zm118.5,0-22.094,4.017c-5.612,2.948-9.008,9.131-16.068,12.052q0.5,1.506,1,3.013c17.1,1.17,31.048-1.515,45.192-4.017-2.616-1.793-1.617-1.6-5.021-1l-3.013-1v-1q1-1,2.009-2.009l10.042-2.008h-2.008c-2.992-2.552-4.9-.335-7.03-5.022l2.008,1Zm55.234,0c2.064,1.362,1.617,1.125,3.013,3.013C458.106,247.383,459.433,248.648,457.8,245.976Zm15.064,0c2.051,1.808.71,0.016,2.009,3.013Zm-341.449,1q-4.52,4.015-9.039,8.034v1c3.374,4.755,16.436,6.82,20.086,1,1.737-2.759,2.007-3.734,2.008-6.025C139.375,249.2,138.455,247.5,131.418,246.981Zm-51.218,1,1,2.008Zm136.58,0c4.388,6.325,10.205,8.881,13.056,17.073h1v-3.013C228.053,253.89,226.388,250.679,216.78,247.985Zm207.883,0c2.353,2.133-.113.443,3.013,1v-1h-3.013Zm-324.377,1-1,2.009Zm3.012,0,2.009,1Zm209.892,0L315.2,251Zm52.221,0L367.42,251H363.4Zm35.149,0h0Zm-116.494,1h2.008c-1.351,3.416-.609,2.079-3.012,4.018C283.961,250.6,283.914,252.678,284.066,249.993ZM68.149,251l1,2.008Zm141.6,0-1,1,5.021,4.017Q211.76,253.508,209.75,251Zm218.93,0-8.034,4.017,3.013,3.013c2,2.66,1.132,1.971,5.021,3.013,1.7-1.456,8.4-2.646,13.055-3.013l-3.013,3.013,4.018-2.009v-3.013l3.012,2.009v4.017c4.062-.889,9.126,1.582,14.06,0C455.181,254.106,440.4,250.838,428.68,251Zm-270.147,1c-4.954,2.049-9.26,2.706-13.055,5.021q-1.005,5.022-2.009,10.043c-3.663-1.93-.682-2.847-4.017-1,0.775,7.039-3.727,1.925-6.026,10.043,3.667,0.916,2.054-.038,4.017,2.008-6.774,1.214-19.422,13.455-21.089,20.086,6.484,3.351,12.216,4.923,18.077,7.03,1.264-3.036-.019-1.2,2.008-3.013,0.568,5.775,3.664,5.974,5.021,5.021l3.013,2.009-3.013,3.013c-2.065-3.154-.479-2.078-5.021-3.013,1.529,5.026-1.44,7.838,0,13.056,1.822,6.6,18.877,30.17,25.107,32.137,23.3,7.357,69.174,1.253,89.379,19.081-4.2-17.848-16.083-24.131-24.1-38.163-18.729.29-47.632-3.476-65.277-8.034v-1q0.5-1.506,1-3.013c5.966-.48,4.735-0.2,7.03-4.017v-1l-5.021-1.005-3.013,4.017c0.889-5.168,2.2-7.052,1-12.051l-8.034,1,1,2.009c2.613,0.427.549-.98,3.013,1q-0.5,2.511-1,5.022c-4.294-.984-1.783-2.842-5.022,1,3.175-.095,1.451-1.761,3.013,1,1.931,1.4.6,0.1,2.009,2.009l-4.017-1-2.009,1c-0.724-6.948.934-9.223,3.013-15.065-3.531-1.154-4.116-1.32-6.026-4.017,5.218,1.507,6.5,3.057,10.043-1-2.875-1.726-.935-1.607-3.013-4.017,1.823-.973,5.5.355,3.013-2.009v-5.021l2.008,1c0.819,4.969-.671,2.991,3.013,5.022v-2.009c-2.488-1.475-.977-2.918-5.021-5.021H148.49c-0.125-5.432.658-5.008-3.012-7.03-1.55,1.625-2.009,1-2.009,1-3.516-1.63-2.214-1-4.017-4.017l2.008-2.009c4.156,0.927,7.977-.562,12.052,3.013-2.236.208-3.216-.769-2.009,1,2.8,4.279,17.774,13.923,23.1,15.065,1.81-6.092,3.991-8.19,10.043-10.043-3.457-2.867-3.064.016-2.009-4.017l6.026-5.022-4.017,7.03c6.93-.275,7.583-0.123,13.055,1.005q1.506-3.516,3.013-7.03l-8.034-5.022-4.017,4.017c1.485-4.743,2.688-7.027,6.025-8.034,0.732,4.066,3.595,4.286,7.03,8.034,4.27-2.3,6.392-2.753,8.034-8.034-1.631-1.065-1.457-1.845,1-8.034C204.23,256.69,173.073,251.956,158.533,252Zm36.153,0,11.047,5.021Zm111.474,0-1.005,2.009h2.009Zm-215.917,1,1,2.009Zm17.073,0h2.008C107.571,253.987,109.1,253.923,107.316,253.006Zm163.694,0h2.009q-1,2.511-2.009,5.022l-1-1Q270.509,255.015,271.01,253.006Zm15.064,0v0Zm183.781,0,2.008,4.017-2.008-1v-3.013Zm-220.938,1c-1.345,5.432-2.925,9.4,4.017,11.047q0.5-1.507,1-3.013C252.961,257.748,252.009,256.1,248.917,254.011Zm73.311,0,2.008,1Zm7.03,0h0Zm25.106,1,1.005,2.008Zm-233.993,1c-3.053,2.282-5.163,2.225-7.03,6.026h2.009l9.038,1Zm184.784,0q-0.5,7.029-1,14.06l6.026-5.021v-1C309.24,260.006,308.611,257.794,305.155,256.019Zm129.55,0q1.005,1,2.009,2.009C434.783,256.629,436.113,257.926,434.705,256.019Zm-144.614,1,1,2.009Zm121.516,0c1.7,2.491.6,1.175,3.013,0h-3.013Zm63.269,0h0Zm5.021,0h2.009c-1.4,1.931-.1.6-2.009,2.009v-2.009Zm-295.253,1c-0.709.949,0.165,1.566-2.009,1Zm166.708,0h5.021l-2.009,2.008Zm-74.316,1h0Zm206.878,0h0Zm-383.628,1c1.872,3.1-.6,2.271,3.012,2.009Zm118.5,0c1.145,4.04,1.38,3.844,4.017,6.026Zm86.366,0c2.71,1.607,1.384.341,3.013,3.013Q306.662,261.543,305.155,260.036Zm-214.912,1h2.009C90.5,262.022,92.03,261.957,90.243,261.041Zm183.78,0h0Zm67.286,0h6.025q-0.5,1-1,2.008h-4.017Zm132.563,0,2.008,1Zm-261.109,1v0Zm63.269,0c2.628,1.783,1.368.063,1,3.013h-1v-3.013Zm14.059,0q1,1.506,2.009,3.013C290.049,263.25,291.39,265.042,290.091,262.045Zm140.6,1,2.009,1Zm58.248,0,12.051,5.021c-4.015.142-1.435,2.234-4.017,0C492.162,267.272,490.78,266.967,488.936,263.049Zm-126.538,1v0Zm46.2,0c-4.78,3.262-12.21,3.421-20.086,4.017l5.022,3.013c4.913-.82-0.086.63,5.021,1C400.685,270.9,410.827,265.857,408.6,264.053Zm10.042,0-6.025,3.013v1l17.072-2.008C426.936,264.225,423.792,263.956,418.637,264.053ZM92.252,266.062h0Zm119.507,0c0.551,5.407-1.814,8.222-4.017,13.056,7.739-4.508,17.543,1.752,24.1,7.03C228.613,275.835,219.053,269.169,211.759,266.062Zm222.946,0,2.009,2.008C435.316,266.14,436.612,267.469,434.705,266.062ZM141.46,268.07l1,2.009Zm256.088,0h2.008c-1.808,2.051-.015.71-3.013,2.009Zm91.388,0h3.012v1l-3.012,1V268.07Zm-155.661,1-3.013,2.008q1,1.507,2.009,3.013l6.025-1-7.03,5.021v1l18.077-9.039Zm-46.2,1c-8.459,9.173-19.464,13.955-26.111,25.107,0.747,5.314,5.634,19.419,2.008,16.069,1.623,3.43,1.636,3.36,5.022,5.021-3.21,3.529-3.737,3.556-3.013,9.039l2.008,1c3.976-2.262,4.847-2.754,6.026-8.034-0.976-.237-1-0.915,0-1.005,6.975-.067,15.605,5.736,15.064-9.038-2.071-2.222-1.388-1.89-5.021-3.013V303.22c3.958,0.212,2.5,1.665,5.021-1,4.378-6.949,10.4-20.8,8.034-30.128Zm70.3,0c-8.387,11.154-20.73,11.362-28.119,19.081v1c2.519-.346,54.34-6.811,63.268-15.065l-2.008-1C382.937,269.893,368.316,269.945,357.377,270.079Zm140.6,0h2.009c-1.4,1.931-.1.6-2.009,2.009v-2.009Zm-33.141,1h2.009C465.089,272.064,466.621,272,464.833,271.083Zm-327.39,1q2.008,3.012,4.017,6.025C138.05,275.621,137.482,275.621,137.443,272.088Zm183.781,0,3.012,1Zm7.029,0-3.012,1,3.012,4.017v2.009l2.009-2.009c1.931-1.4.6-.1,2.009-2.009-3.913-1.687-3.725,1.189-3.013-3.012h-1Zm113.482,0c2.71,1.606,1.384.341,3.013,3.012C441.321,273.05,442.641,274.389,441.735,272.088Zm34.145,0h0Zm-388.65,1c-0.221,1.473.415,1.008-1,3.013Zm374.591,0h0Zm-316.343,1h2.008l-2.008,3.013V274.1Zm174.741,0-2.008,3.013,3.013-3.013h-1Zm-11.047,1c-6.744,7.579-10.558,19.454-11.046,33.142l2.008-1c4.463-9.64,12.7-19.218,12.051-31.132Zm13.056,0c-1.43,5.135-1.467,3.861,1,8.035l3.013-1q0.5-2.007,1-4.017C323.962,276.957,324.52,276.727,322.228,275.1Zm-137.584,2.009h0Zm82.349,0H269l-9.038,8.034C261.862,280.52,264.088,280.341,266.993,277.109Zm-180.767,1,2.008,4.017-2.008-1v2.009h-1Zm97.414,0q0.5,1.005,1,2.009Q184.142,279.117,183.64,278.113Zm28.119,0-2.009,3.013c-6.061-.773-3.282-1.665-8.034,1l-2.008,5.022,2.008,5.021c10.489,0.184,10.542,2.451,18.077-1-1.483,3.381-2.822,3.079,0,6.026,7.467,3.911,14.123.075,13.055-8.035C225.616,285.773,218.968,280.989,211.759,278.113ZM174.6,280.122l4.017,1q-0.5,1.506-1,3.013h-1l-2.009-1v-3.013Zm291.237,0,1,2.008Zm-312.326,1h2.008C153.768,282.107,155.3,282.042,153.512,281.126Zm163.7,0-7.03,16.069c5.706-2.467,11.245-4.379,13.055-11.047Zm-193.823,1-5.022,7.03C122.317,287.479,124.13,285.531,123.384,282.13Zm163.7,1,4.017,2.008h-5.022Zm4.017,0c1.93,1.4.6,0.1,2.008,2.008Zm49.209,0q0.5,1.506,1,3.013h-1v-3.013ZM85.222,285.143l1,2.009Zm8.034,0h0Zm3.013,1.005,3.013,1,1,4.017C97.223,288.891,96.943,288.332,96.269,286.148Zm301.279,0,7.03,4.017v1C400.309,290.046,399.56,289.355,397.548,286.148Zm-219.934,1c3.05,0.883.265,1.442-1,3.013Q177.111,288.658,177.614,287.152Zm11.047,0-11.047,6.026,3.013,2.008C181.027,293.164,188.36,292.6,188.661,287.152Zm27.115,0c2.133,2.353.443-.113,1,3.013l-2.008-1v-1Zm3.013,0,3.013,2.008Zm61.26,0h0Zm66.281,0-2.008,1,3.012,1,2.009-2.008H346.33Zm48.205,0c1.931,1.4.6,0.1,2.008,2.008Zm-310.318,1c1.314,2.732.444,1.932-1,4.017Zm118.5,0h2.008C202.976,289.137,204.508,289.072,202.721,288.156Zm193.822,1,1,2.009Zm-251.065,1h0Zm29.123,0h2.009C174.857,291.146,176.389,291.081,174.6,290.165Zm20.085,0a80.739,80.739,0,0,0-12.051,8.034l-2.008,7.03h1l15.064-5.022-4.017-6.025,1-1,2.009,3.012Zm20.086,0q0.5,1,1,2.008Q215.274,291.17,214.772,290.165Zm-122.52,1h0Zm246.044,0-7.03,2.009-1,2.008,5.021,7.03H338.3c4.224-5.328,10.187-9.034,16.068-10.043Zm-130.554,1c1.972,2.075.376,1.04,4.017,2.009Zm159.678,0h2.008l-3.012,2.009Q366.917,293.177,367.42,292.173Zm-282.2,1h0Zm8.034,0h0Zm78.332,0,1,2.008h-2.009Q171.087,294.183,171.588,293.178Zm294.25,0h0Zm-347.476,1h0Zm207.883,0c-11.25,12.832-23.329,19.045-25.107,42.18,11.317-9.2,23.137-21.147,34.145-31.133Zm-250.062,1,5.021,1v1h-1Zm10.043,0h3.013L85.222,297.2Zm20.085,0-5.021,1,2.008,4.017q1.507,2.009,3.013,4.018l9.039-4.018-3.013-3.012h-1c-0.8,4.188.97,0.953-2.009,4.017l-2.008-1,3.012-5.021h-4.017Zm118.5,0h0Zm131.559,0L353.36,298.2h3.013l2.008-3.013h-2.008Zm-175.746,1-5.022,5.022,2.009-1c0.765,1.2-.4,1.234,1,1C180.517,298.991,183.544,297.562,180.627,296.19Zm23.1,0,2.008,1Zm135.575,0,1,2.009Zm-257.091,1h3.013L81.2,299.2Zm63.269,1,6.025,1C146.646,299.114,148.077,300.176,145.478,298.2Zm19.081,0-3.013,4.017v2.009l2.008,1,3.013-2.009C162.842,300.189,166.019,300.042,164.559,298.2Zm217.925,0h0Zm-171.729,2.008q0.5,2.009,1,4.018c-4.093.911-4.8,3.379-1,7.03l4.017-2.009v1c-2.075,1.972-1.04.377-2.009,4.017h1c1.972-2.074.377-1.039,4.017-2.008v1l-3.012,2.009c3.81,5.413,7.549,9.141,16.068,10.043q2.511-6.026,5.021-12.052l-1-1-3.013,6.026c-2.443-1.035-3.42-1.178-5.021-3.013,3.934-.312,8.086-2.8,9.038-9.039Zm21.089,0-1,1,4.017,2.008v-3.013h-3.013Zm-26.111,1c-0.22,3.344-.936,2.31,1,5.021q0.5-1.506,1-3.013Zm-61.26,1h2.009c-1.523,1.934-1.8,1.777-4.017,3.013,1.4-1.931.1-.6,2.008-2.009v-1Zm203.866,0,3.013,2.009C349.543,302.174,351.336,303.515,348.339,302.216Zm5.021,0,2.009,1Zm-239.015,1c-1.558,1.171-27.779,9.957-28.119,10.043,5.507,8.306,12.414,3.625,15.064,13.056,8.416-1.775,8.564-2.674,17.072,2.008l6.026-10.042c2.39,2.09-.16.877,3.013,1q1-4.017,2.008-8.034l-3.012-3.013c-8.688,1.837-12.31,4.975-18.077,9.038l-2.009-3.013c2.43,0.154,17.575-5.859,21.09-9.038Zm55.235,0-4.017,7.03,2.008,2.009c5.212-1.713,6.635-.133,10.043-3.013Zm108.46,0h3.013l-2.008,2.009Zm-131.558,1,2.008,2.008C146.56,304.835,147.889,306.131,146.482,304.225Zm13.055,0-2.008,4.017h1c2.72-1.3.174-1.008,3.013,0Zm14.06,0v0Zm93.4,1,7.03,3.013q-1,1.506-2.008,3.013Zm-136.579,1c3.23,8.722.505,16.964-1,24.1l10.043,2.008c-4.494-9.813-6.058-16.226-4.017-26.111h-5.021Zm63.268,0c-8.34,4.106-12.774,3.731-16.068,10.043C184.947,316.115,196.717,315.3,193.682,306.233Zm180.768,0q0.5,1.005,1,2.009Q374.952,307.237,374.45,306.233Zm-315.339,1h0Zm92.392,1h2.009C151.759,309.223,153.29,309.158,151.5,308.242Zm16.068,0h0Zm32.137,0c-3.369,13.992-17.678,10.084-29.124,12.051q-0.5,2.009-1,4.017c9.139,1.581,43.014,13.743,48.2,2.009l-8.034-7.03-3.012,2.008c-0.134,1.324-1.889,4.8-8.035,1,4.411-2.058,4.485-4.428,5.022-10.043Zm-144.614,1h0Zm6.026,1c3.666,0.916,2.053-.038,4.017,2.009Zm12.051,0,1,2.009Zm-7.03,1c1.931,1.4.6,0.1,2.008,2.008Zm93.4,0,2.009,3.012Zm115.491,0h0Zm80.341,0h0Zm3.012,0c1.578,3.105,2.4,1.062,0,4.017v-4.017Zm-241.023,1h0Zm26.111,0,6.026,3.013v1C144.4,315.528,145.244,316.356,143.469,312.259Zm127.541,0h2.009l-3.013,2.008Q270.509,313.264,271.01,312.259Zm-115.49,1v0Zm43.183,0h2.009c-1.4,1.931-.1.6-2.009,2.009v-2.009Zm66.282,0h0Zm8.034,0h3.013l-2.009,2.009Q273.522,314.267,273.019,313.263Zm79.337,0h0Zm-180.768,1q-0.5,1.005-1,2.009,1-1,2.009-2.009h-1Zm97.414,0q0.5,1.005,1,2.009Q269.5,315.273,269,314.267Zm-64.273,1v4.017h1l2.009-2.009Zm19.081,0h0Zm12.051,1c-1.363,4.65-3.928,9.355-3.013,13.056a22.984,22.984,0,0,0,9.039,15.064Q238.873,330.337,235.861,316.276Zm121.516,0q0.5,1,1,2.009Q357.88,317.28,357.377,316.276ZM68.149,318.285h2.009C68.405,319.266,69.937,319.2,68.149,318.285Zm6.026,0h2.008c-1.4,1.93-.1.6-2.008,2.008v-2.008ZM103.3,321.3l2.009,2.009C103.376,321.908,104.706,323.2,103.3,321.3Zm132.563,0,1.005,3.013h-1.005V321.3Zm31.132,0h0Zm19.081,0-12.051,6.026c1.131,4.161.206,5.318-1,9.039l2.009-1,5.021-7.03a48.017,48.017,0,0,1-5.021,11.047c5.842,0.63,7.793,2.142,11.046,5.022-3.207,2.171-3.951,1.515-8.034,0h-1v1c3.218,6.361,3.337,16.583,2.009,25.107h1V368.5c8.628-11.4,10.685-32.426,10.042-47.2h-4.017Zm63.269,0c2.051,1.809.71,0.016,2.009,3.013Q350.347,322.8,349.343,321.3Zm-261.109,1,1,3.013h4.017V322.3H88.235Zm8.034,0-1,4.017h5.022L98.277,322.3H96.269Zm62.264,0q0.5,1,1,2.008Q159.034,323.307,158.533,322.3Zm-6.026,1h0Zm-81.345,1h5.021v2.009l-8.034,1C69.4,325.541,69.728,325.668,71.162,324.31Zm55.235,0-1.005,3.013,3.013-1Zm69.294,0H197.7C195.947,325.291,197.478,325.226,195.691,324.31Zm156.665,0h0Zm-286.215,1,1,2.008Zm76.324,0h0Zm-57.243,1-1,2.008C86.082,327.076,84.767,327.431,85.222,326.319Zm56.238,0,1,2.008Zm138.589,0h0Zm-60.256,2.008q-0.5,1-1,2.009l5.021,1v-2.008Zm51.217,0c-0.22,3.345-.936,2.311,1,5.022h1q0.5-1.506,1-3.013Zm-161.686,1c1.808,2.05.015,0.709,3.013,2.008Zm-9.038,2.008h2.008C100.542,332.321,102.073,332.256,100.286,331.34Zm65.277,0h3.013v1l-4.017,1Q165.06,332.344,165.563,331.34Zm102.435,0-1,4.017h1q0.5-1.506,1-3.013Q268.5,331.843,268,331.34Zm-184.785,1,1,2.009Zm85.363,0,2.008,2.009C168.653,332.955,169.983,334.251,168.576,332.344Zm-81.346,1v4.017h-1Zm17.073,0h2.008c-1.4,1.931-.1.6-2.008,2.008v-2.008Zm164.7,1,2.008,2.009Zm-149.635,1c-0.39,4.024,1.5,7.147,6.025,6.026,5.68,1.517,7.522-.257,12.051-2.009q-0.5-1-1-2.008Zm-31.133,2.009h2.008c-1.4,1.931-.1.6-2.008,2.008v-2.008Zm179.764,0-2.009,3.013,3.013-1Q268.5,338.371,268,337.366Zm-151.644,3.013,2.008,1Zm23.1,1c-1.382,3.068-.84.35-1,5.021l6.025-3.012v-1Zm126.537,0c-0.2,15.222,3.622,23.888,7.03,34.146h1C274.192,360.4,275.779,349.743,265.989,341.383Zm-177.754,1h0Zm82.35,1q0.5,1,1,2.008Q171.087,344.4,170.584,343.392Zm-76.324,1h3.013c-2.2,1.97-3.208,2.291-7.03,3.013v-1Zm5.021,4.017,1,2.009H98.277Zm24.1,0h0Zm2.008,1c3.019,1.29,2.255.631,4.017,3.013Zm52.222,3.013h0Zm-64.273,1h2.009C113.6,354.415,115.128,354.351,113.341,353.434Zm17.073,0h0Zm4.017,1,2.008,3.012Z"/>
</svg>
