<?xml version="1.0" encoding="utf-8"?>
<!-- Generator: Adobe Illustrator 24.1.1, SVG Export Plug-In . SVG Version: 6.00 Build 0)  -->
<svg version="1.1" id="Layer_1" xmlns="http://www.w3.org/2000/svg" xmlns:xlink="http://www.w3.org/1999/xlink" x="0px" y="0px"
	 viewBox="0 0 340 437" style="enable-background:new 0 0 340 437;" xml:space="preserve">
<style type="text/css">
	.st0{fill-rule:evenodd;clip-rule:evenodd;fill:#423A32;}
</style>
<path class="st0" d="M252.6,0.1h2.1C252.8,1.1,254.4,1,252.6,0.1z M250.5,2.1c2.2,2.5,0.6-0.1,1,4.1h-1V2.1z M249.5,7.3
	c1,3.1,0.7,2.8-1,5.2C248.8,10.8,249.1,9,249.5,7.3L249.5,7.3z M247.4,12.5c1.4,2.8,0.5,2-1,4.1C246.7,15.3,247.1,13.9,247.4,12.5z
	 M198.7,19.8L198.7,19.8z M242.2,19.8c0.3,1,0.7,2.1,1,3.1h-1V19.8L242.2,19.8z M246.4,23.9l1,2.1L246.4,23.9z M240.2,26
	c0.3,1,0.7,2.1,1,3.1c2.9-2.1,1.3-1.5,4.1-2.1l-1,3.1l-3.1,4.1c-1.2,1.8-2.7,2-5.2,1l4.1-3.1c-0.6-3.1-2.5-1.3,0-3.1V26L240.2,26z
	 M185.3,27c2,1.4,0.6,0.1,2.1,2.1L185.3,27z M199.8,27c2.2,4.1,4,13.1,2.1,17.6C201.1,38.7,200.4,32.9,199.8,27z M130.4,28l2.1,6.2
	h-2.1V28L130.4,28z M232.9,28c0.7,1,1.4,2.1,2.1,3.1h-4.1L232.9,28z M228.8,31.1L228.8,31.1z M180.1,348.1
	c-1.2,29.8,0,59.8,6.2,89.1h-26.9c4.8-16.7-4.3-119.7-5.2-121.2h-1c-6.1,4.8-7.9,9.1-12.4,15.5l1-6.2l-9.3-2.1
	c6.8,0.5,7.9,1.4,11.4-2.1c2-1.6,1.8-1.9,3.1-4.1c-4.6-7.2-16.6-27.9-23.8-25.9c-0.3-2.4-0.7-4.8-1-7.3l26.9,29
	c4.8-2.2,3.2-3.1,8.3-3.1c-2-18.3-3.1-31.1-7.3-43.5l6.2,2.1v-6.2c-5.6-18.5-12.9-35.2-29-40.4c-7.7-2.5-10.1-0.4-16.6-5.2l12.4,3.1
	l-2.1-3.1c-8.7-0.8-14.4-5.6-18.6-8.3c3.7-9-13.3-20.6-19.7-26.9c-10-10-27.7-42.3-36.2-59l3.1-1c1.9,10.7,9.9,27,18.6,31.1l-1-2.1
	c2.7-2.7,2.5-7.4,3.1-11.4h1c-2.8,25.1,11.7,22.7,22.8,35.2c6.8,7.7,0.4,16.3,11.4,20.7v4.1l-4.1-1c4.2,8.9,6.1,9.6,14.5,14.5l2.1-1
	v-1c-4.3-3-9.6-6.8-11.4-12.4c15.6,11.8,30.3,26.1,45.6,38.3c-1.5-9-5-17.5-10.4-24.9h-6.2c1.6-0.8,8.1-0.6,5.2-3.1
	c0-9.5-28.8-50.8-17.6-49.7h1c-1.1-15.7,2.2-25.2,5.2-35.2h1c-0.6,7.9-3,30.3-5.2,38.3c8.2,0.5,11.2,4.3,18.6,2.1
	c1.8-12.2,11.1-23.2,13.5-30l4.1,2.1c-2.4,3-2.7,2.6-3.1,8.3h1l17.6-7.3c-10.7-17.5-32.5-39.5-34.2-69.4l2.1,1
	c0.3,1.7,0.7,3.5,1,5.2l5.2-3.1c-3,5.2-5,4.3-5.2,13.5c7.9,12.6,16.3,22.4,22.8,38.3l4.1-3.1c-1.1,8.1,4.1,11.9,8.3,17.6l5.2-4.1
	l-2.1,3.1l6.2-1c6.2-23.4,16.9-46.3,14.5-80.8c9.5-0.2,13.8-16.3,22.8-20.7c-3.5,5.1-5.7,4.8-2.1,9.3c-8.9,1.5-10.2,7.2-12.4,12.4
	c-2.5-2.2,0.2-0.9-3.1-1c-2.8,12.6-5.3,28.5-3.1,40.4l2.1-1c3.2-13.9,12.1-20.8,15.5-37.3h1c-2.3,20.6-14.6,33.6-21.7,52.8l6.2-4.1
	c-12.2,16.2-20.3,38.4-11.4,66.3h1l1-1c2.1-11.4,20.7-42.5,20.7-42.5c5.8-17.4-0.1-35,8.3-51.8c0.3,2.4,0.7,4.8,1,7.3l1-3.1
	c-0.8,9.8-14.7,47.6-3.1,47.6l-1,2.1c-10,2-22.4,36.7-25.9,48.7l4.1,1c1.3-3.1,0-1.2,2.1-3.1c0.3,2.4-0.2,1.3,1,4.1
	c-6.8,1.2-12.8,32.1-8.3,41.4h1c16.4-4.7,55.7-23.2,66.3-37.3c-0.3-2.1-0.7-4.1-1-6.2c-3.8-1.5-2.7,0.3-5.2-3.1v-1l8.3,5.2
	c4.3-3.3,5-5.1,10.4-5.2c-0.3,0.7-0.7,1.4-1,2.1l-7.3,6.2c0.3-1,0.7-2.1,1-3.1l-11.4,17.6h1c10-4.4,23.5-13.2,34.2-14.5
	c-1.1,4-1.6,0.5,0,4.1c-29.4,0.7-67.6,30.9-91.1,38.3l2.1,4.1c-4.9-1.3-4.4-1.5-9.3-1c-4.5,6.4-16.7,28.4-10.4,37.3l40.4-6.2v-1
	c-3.4-3.5-4.8-7.7-5.2-14.5l3.1-1c-1.3,9.7,6.3,13.9,7.3,18.6l-49.7,10.4c-3.3,16.1-12.6,33.4-6.2,50.8c4.2-3.7,2.2-3.8,8.3-4.1v1
	c-5.8,8.6-7.7,17.3-5.2,26.9c12.4,0.9,18,1.2,28-2.1L207,347C197.4,349.1,191.3,349,180.1,348.1z M131.4,35.3c0.3,0.7,0.7,1.4,1,2.1
	C132.1,36.7,131.7,36,131.4,35.3z M231.9,36.3h2.1l-3.1,2.1L231.9,36.3z M236,37.4l1,2.1L236,37.4z M239.1,37.4v8.3h-1L239.1,37.4z
	 M228.8,38.4L228.8,38.4z M132.4,39.4l1,2.1L132.4,39.4z M210.1,39.4c0.3,0.7,0.7,1.4,1,2.1C210.8,40.8,210.5,40.1,210.1,39.4z
	 M225.6,40.5L225.6,40.5z M233.9,40.5l1,2.1L233.9,40.5z M231.9,43.6c-0.2,1.5,0.4,1-1,3.1L231.9,43.6z M133.5,44.6
	c0.3,0.7,0.7,1.4,1,2.1C134.2,46,133.8,45.3,133.5,44.6z M202.9,44.6c0.7,3.1,1.4,6.2,2.1,9.3h-1C203.6,50.8,203.2,47.7,202.9,44.6
	L202.9,44.6z M229.8,46.7c0,2.4,0.2,2.7-2.1,5.2L229.8,46.7z M133.5,47.7h2.1c-1.4,2-0.1,0.6-2.1,2.1
	C133.5,49.8,133.5,47.7,133.5,47.7z M237,47.7c0.3,1,0.7,2.1,1,3.1h-1C237,50.8,237,47.7,237,47.7z M135.5,49.8l2.1,4.1l-2.1-1
	C135.5,52.9,135.5,49.8,135.5,49.8z M143.8,50.8l2.1,4.1C143.8,52.9,144.8,54.6,143.8,50.8L143.8,50.8z M226.7,51.9
	c0.3,0.7,0.7,1.4,1,2.1C227.4,53.2,227,52.5,226.7,51.9L226.7,51.9z M225.6,53.9l1,2.1L225.6,53.9z M137.6,55
	c2.1,1.9,2.3,3.9,3.1,7.3l-2.1-1L137.6,55z M152.1,61.2c2.7,4.7,3,5.2,0,8.3C152.1,69.5,152.1,61.2,152.1,61.2z M231.9,61.2
	c0.3,1,0.7,2.1,1,3.1h-1C231.9,64.3,231.9,61.2,231.9,61.2z M140.7,62.2l1,2.1L140.7,62.2z M141.8,64.3c0.3,1,0.7,2.1,1,3.1h-1
	C141.8,67.4,141.8,64.3,141.8,64.3z M215.3,64.3c0.3,0.7,0.7,1.4,1,2.1C216,65.7,215.6,65,215.3,64.3L215.3,64.3z M230.8,64.3v6.2
	l-2.1,2.1C229.4,69.8,230.1,67,230.8,64.3L230.8,64.3z M135.5,65.3c2.7,1.2,1.2,2.4,0,5.2V65.3z M232.9,68.4l1,2.1L232.9,68.4z
	 M218.4,69.5c0.3,0.7,0.7,1.4,1,2.1C219.1,70.8,218.7,70.2,218.4,69.5L218.4,69.5z M33,70.5l1,2.1L33,70.5z M227.7,72.6l1,3.1h-1
	V72.6L227.7,72.6z M135.5,73.6l2.1,5.2h-2.1V73.6z M231.9,73.6L231.9,73.6z M97.2,74.6c2,1.4,0.6,0.1,2.1,2.1L97.2,74.6z
	 M136.6,79.8c0.3,1,0.7,2.1,1,3.1h-1V79.8L136.6,79.8z M102.4,81.9l1,2.1L102.4,81.9z M249.5,82.9L249.5,82.9z M252.6,82.9
	L252.6,82.9z M35.1,84h2.1c-1.4,2-0.1,0.6-2.1,2.1L35.1,84L35.1,84z M137.6,84l2.1,4.1h-1L137.6,84z M191.5,85
	c0.3,0.7,0.7,1.4,1,2.1C192.2,86.4,191.8,85.7,191.5,85z M37.2,86l1,2.1L37.2,86z M236,86L236,86z M233.9,87.1L233.9,87.1z
	 M38.2,88.1l1,3.1h-1V88.1z M137.6,88.1c2.8,7.8-2.2,18.1,1,22.8c-6.1,2.2-5.2,7.7-8.3,12.4C132.8,111.6,135.2,99.8,137.6,88.1z
	 M10.2,89.1l1,2.1L10.2,89.1z M39.2,92.3l7.3,29h-2.1L39.2,92.3z M111.7,93.3l2.1,2.1C111.8,93.9,113.2,95.3,111.7,93.3L111.7,93.3z
	 M198.7,93.3l2.1,3.1L198.7,93.3z M221.5,94.3L221.5,94.3z M200.8,96.4l1,2.1L200.8,96.4z M218.4,96.4L218.4,96.4z M34,98.5
	c2,1.4,0.6,0.1,2.1,2.1L34,98.5z M116.9,98.5l3.1,2.1L116.9,98.5z M215.3,98.5h2.1l-3.1,2.1L215.3,98.5z M111.7,100.5
	c0.3,1,0.7,2.1,1,3.1l-2.1-1L111.7,100.5z M121,101.6l3.1,2.1L121,101.6z M212.2,101.6c1.9,2.7,0.1,1.6-2.1,3.1L212.2,101.6z
	 M258.8,101.6h2.1l-3.1,2.1L258.8,101.6z M181.1,104.7l1,3.1h-1V104.7z M126.2,105.7L126.2,105.7z M217.4,105.7l1,2.1L217.4,105.7z
	 M215.3,108.8c0.3,0.7,0.7,1.4,1,2.1C216,110.2,215.6,109.5,215.3,108.8L215.3,108.8z M248.4,108.8L248.4,108.8z M142.8,109.9
	l16.6,4.1l-20.7-3.1L142.8,109.9z M178,109.9l1,2.1L178,109.9z M175.9,113c-1,2.1-2.1,4.1-3.1,6.2C173.9,117.1,174.9,115,175.9,113
	L175.9,113z M211.1,113h2.1c-1.3,2.1-3.1,3.9-5.2,5.2C209.1,116.4,210.1,114.7,211.1,113L211.1,113z M148,117.1c0.3,1,0.7,2.1,1,3.1
	h-1V117.1z M152.1,117.1l1,2.1L152.1,117.1z M238.1,117.1L238.1,117.1z M121,119.2l1,2.1L121,119.2z M211.1,120.2L211.1,120.2z
	 M154.2,122.3l1,8.3h-1c-0.7-2.4-1.4-4.8-2.1-7.3L154.2,122.3z M201.8,123.3c1.4,4.1,0.6,4.3-3.1,6.2L201.8,123.3z M51.6,125.4
	L51.6,125.4z M229.8,125.4L229.8,125.4z M66.1,128.5l2.1,2.1C66.2,129.1,67.6,130.5,66.1,128.5z M110.7,128.5l1,2.1L110.7,128.5z
	 M155.2,130.6c0.3,0.7,0.7,1.4,1,2.1C155.9,132,155.6,131.3,155.2,130.6z M164.5,130.6h2.1c-1.7,3.5-1.7,3.5-5.2,5.2L164.5,130.6z
	 M187.3,130.6L187.3,130.6z M69.3,132.6l1,2.1L69.3,132.6z M235,132.6c0.3,0.7,0.7,1.4,1,2.1C235.7,134,235.3,133.3,235,132.6z
	 M80.6,133.7L80.6,133.7z M70.3,134.7l1,2.1L70.3,134.7z M58.9,135.8l1,2.1L58.9,135.8z M189.4,135.8c-4.4,2.9-6.4,1.7-4.1,6.2
	c1,2.4,2.1,4.8,3.1,7.3l2.1-1v-2.1C192.1,142.6,191.8,138.1,189.4,135.8z M232.9,135.8c0.3,0.7,0.7,1.4,1,2.1
	C233.6,137.1,233.2,136.4,232.9,135.8z M87.9,136.8l3.1,1l-1,2.1L87.9,136.8z M61,138.9l1,2.1L61,138.9z M155.2,138.9
	c-2.5,3.7-4.9,7.3-3.1,11.4l2.1-2.1l3.1-2.1C156.8,141.5,157.3,141,155.2,138.9L155.2,138.9z M90,139.9l1,2.1L90,139.9z
	 M130.4,139.9l1,3.1h-1L130.4,139.9L130.4,139.9z M178,139.9l-18.6,6.2c1.4,10-1.4,14.6-3.1,24.9c4.9-1.7,13-3.5,18.6-1l-18.6,2.1
	l1,2.1c14.1,6,21.4,18.2,33.1,25.9h3.1v-2.1C203.4,181.2,187.3,146.9,178,139.9L178,139.9z M110.7,140.9l1,2.1L110.7,140.9z M63,142
	l1,2.1L63,142z M93.1,143l1,2.1L93.1,143z M226.7,143h2.1l-3.1,2.1C226,144.4,226.3,143.7,226.7,143L226.7,143z M64.1,144l2.1,4.1
	C64,146.1,65.1,147.8,64.1,144L64.1,144z M94.1,145.1c2,1.4,0.6,0.1,2.1,2.1L94.1,145.1z M153.1,146.1c0.3,0.7,0.7,1.4,1,2.1
	C153.8,147.5,153.5,146.8,153.1,146.1L153.1,146.1z M222.5,146.1c0.1,1.9,1.2,1.3-2.1,3.1L222.5,146.1z M108.6,147.1
	c0.3,0.7,0.7,1.4,1,2.1C109.3,148.5,109,147.8,108.6,147.1L108.6,147.1z M66.1,148.2l1,2.1L66.1,148.2z M98.3,148.2l1,2.1
	L98.3,148.2z M218.4,149.2L218.4,149.2z M108.6,150.3h4.1c-0.3,0.7-0.7,1.4-1,2.1l-3.1,1C108.6,153.4,108.6,150.3,108.6,150.3z
	 M154.2,150.3c-4.4,5.5-6.8,10.6-10.4,17.6l9.3,3.1c0.6-7.4,4.5-8.5,5.2-18.6L154.2,150.3z M100.3,151.3c6.4,3.5,14.1,1.3,18.6,6.2
	C112.4,156.7,103.5,157.8,100.3,151.3z M215.3,151.3L215.3,151.3z M319.9,156.5L319.9,156.5z M286.7,160.6c1.9,2.7,0.1,1.6-2.1,3.1
	L286.7,160.6z M126.2,162.7c-0.3,2.8-0.7,5.5-1,8.3c3.2,7.7,6.6,17.6,14.5,20.7c0.9-8.3,1.6-16.9-2.1-23.8L126.2,162.7z M75.5,163.7
	c1.7,11.4,11.8,19.4,19.7,24.9C92.5,175.6,85.1,169.2,75.5,163.7z M283.6,163.7c-0.2,1.5,0.4,1-1,3.1
	C283,165.8,283.3,164.8,283.6,163.7L283.6,163.7z M117.9,164.8c0.3,0.7,0.7,1.4,1,2.1C118.6,166.1,118.3,165.4,117.9,164.8z
	 M149,164.8L149,164.8z M306.4,164.8h4.1v1L306.4,164.8z M119,166.8L119,166.8z M290.9,167.9l2.1,2.1
	C291,168.5,292.3,169.8,290.9,167.9z M180.1,168.9L180.1,168.9z M279.5,168.9l1,2.1L279.5,168.9z M303.3,168.9l1,2.1h-2.1
	C302.6,170.3,303,169.6,303.3,168.9L303.3,168.9z M288.8,169.9L288.8,169.9z M142.8,171v2.1C143.8,171.2,143.7,172.8,142.8,171z
	 M211.1,171l1,2.1L211.1,171z M278.5,171c0.3,0.7,0.7,1.4,1,2.1C279.2,172.3,278.8,171.7,278.5,171z M285.7,171L285.7,171z
	 M283.6,172L283.6,172z M300.2,172c-0.2,1.5,0.4,1-1,3.1C299.5,174.1,299.9,173,300.2,172L300.2,172z M144.9,173
	c-2.6,4.3-3.4,22.2,1,24.9c2.4-7.9,4.8-15.9,7.3-23.8L144.9,173z M280.5,173L280.5,173z M156.3,176.1c-1.9,13.8-14.9,23.8-6.2,36.2
	c4.2-2.5,8.7-4.2,13.5-5.2v2.1c-6.7,0.6-8.5,1.3-12.4,6.2c8.5,6.9,7.5,24.7,12.4,35.2h5.2c-2.7,6.6-1.4,11.8,0,21.8h1l2.1-1
	c0.3-1,0.7-2.1,1-3.1c-1.2-3.8-1.5-14.7-4.1-17.6c12.5-11.8,22.7-21.3,22.8-45.6C181,194,170.6,183.4,156.3,176.1L156.3,176.1z
	 M218.4,177.2L218.4,177.2z M264,178.2l2.1,2.1C264,178.8,265.4,180.2,264,178.2L264,178.2z M209.1,180.3h4.1v1L209.1,180.3z
	 M306.4,180.3L306.4,180.3z M161.4,181.3L161.4,181.3z M298.1,181.3l8.3,1L298.1,181.3z M339.6,182.4l1,2.1L339.6,182.4z
	 M297.1,184.4h29v1H324C318,188.2,302.4,186.9,297.1,184.4L297.1,184.4z M119,188.6c0.3,1,0.7,2.1,1,3.1h-1V188.6z M91,192.7h4.1v1
	L91,192.7z M169.7,194.8c0.3,1,0.7,2.1,1,3.1h-1V194.8z M111.7,195.8L111.7,195.8z M117.9,196.9c2,1.4,0.6,0.1,2.1,2.1L117.9,196.9z
	 M170.8,198.9l3.1,1v1C170.9,200.4,168.8,201.8,170.8,198.9L170.8,198.9z M167.6,201l1,2.1h-2.1C167,202.4,167.3,201.7,167.6,201z
	 M125.2,203.1l2.1,2.1C125.3,203.7,126.6,205,125.2,203.1z M165.6,203.1c-0.2,1.5,0.4,1-1,3.1c-0.3-0.7-0.7-1.4-1-2.1L165.6,203.1z
	 M100.3,207.2L100.3,207.2z M128.3,207.2l6.2,5.2l-5.2-1C129,210,128.6,208.6,128.3,207.2z M92,208.3l7.3,1L92,208.3z M88.9,209.3
	L88.9,209.3z M85.8,210.3L85.8,210.3z M83.8,211.4h2.1c-2.4,1.6-1.3,1.9-4.1,1L83.8,211.4z M90,214.5c6-0.3,12.4-0.4,15.5,2.1
	L90,214.5z M85.8,215.5H90v1l-11.4,1L85.8,215.5z M106.5,215.5l3.1,2.1L106.5,215.5z M69.3,218.6l9.3,1
	C73.3,219.8,70.8,220.3,69.3,218.6z M265,223.8L265,223.8z M180.1,226.9L180.1,226.9z M240.1,227.9c1.7,2.1,1.3,1.4,2.1,5.2l-2.1-1
	V227.9L240.1,227.9z M178,231c2.2,2.1,1.4,1,2.1,5.2h-1L178,231z M235,233.1L235,233.1z M231.9,234.1L231.9,234.1z M230.8,235.2
	c1.3,4,2.7,2.1-1,4.1C230.1,237.9,230.5,236.6,230.8,235.2L230.8,235.2z M237,236.2h3.1l-1,2.1h-5.2L237,236.2z M242.2,236.2
	L242.2,236.2z M203.9,238.3h4.1v1L203.9,238.3z M192.5,242.4c4,1.4,2.2,0,4.1,3.1L192.5,242.4z M210.1,242.4L210.1,242.4z
	 M178,246.6c-2.2,1.9-2.5,1.4-4.1,4.1c-2.9,3.1-1.5,8.3-1,14.5l2.1-1c1.7-5.9,3.5-11.7,5.2-17.6L178,246.6L178,246.6z M235,260
	l3.1,2.1L235,260z M238.1,262.1L238.1,262.1z M241.2,263.1L241.2,263.1z M260.9,264.2h2.1l-3.1,2.1L260.9,264.2z M253.6,265.2l1,2.1
	h-2.1C252.9,266.6,253.3,265.9,253.6,265.2L253.6,265.2z M249.5,266.2L249.5,266.2z M142.8,279.7c1,3.1,0.7,2.8-1,5.2
	C142.1,283.2,142.4,281.4,142.8,279.7z M141.8,285.9c0.3,0.7,0.7,1.4,1,2.1C142.4,287.3,142.1,286.6,141.8,285.9z M140.7,291.1
	l1,2.1L140.7,291.1z M139.7,294.2c0.3,0.7,0.7,1.4,1,2.1C140.4,295.6,140,294.9,139.7,294.2L139.7,294.2z M138.6,296.3
	c0.3,0.7,0.7,1.4,1,2.1C139.3,297.7,139,297,138.6,296.3z M146.9,307.7L146.9,307.7z M190.4,311.8l1,2.1h-2.1L190.4,311.8z
	 M188.4,313.9c-0.2,1.5,0.4,1-1,3.1L188.4,313.9z M139.7,331.5c0.3,0.7,0.7,1.4,1,2.1C140.4,332.9,140,332.2,139.7,331.5z
	 M134.5,333.6h2.1C134.8,334.6,136.3,334.5,134.5,333.6L134.5,333.6z M137.6,333.6c2,1.4,0.6,0.1,2.1,2.1L137.6,333.6z M134.5,336.7
	l1,2.1L134.5,336.7z M212.2,341.9h4.1v1l-7.3,1L212.2,341.9z M131.4,346L131.4,346z"/>
</svg>
