<svg id="Episod_5" data-name="Episod 5" xmlns="http://www.w3.org/2000/svg" width="3234.23" height="409.49" viewBox="0 0 3234.23 409.49"><defs><style>.cls-1{fill:#594e41;}</style></defs><polygon class="cls-1" points="1616.63 0 1616.63 16.83 1612.69 16.83 1612.69 12.93 1613.83 12.93 1613.83 6.83 1608.87 6.83 1608.87 12.93 1610.14 12.93 1610.14 16.83 1606.9 16.83 1606.9 55.35 1616.63 55.35 1616.63 409.49 1627.33 409.49 1627.33 0 1616.63 0"/><polygon class="cls-1" points="9.73 0 9.73 16.83 5.79 16.83 5.79 12.93 6.94 12.93 6.94 6.83 1.98 6.83 1.98 12.93 3.25 12.93 3.25 16.83 0 16.83 0 55.35 9.73 55.35 9.73 409.49 20.44 409.49 20.44 0 9.73 0"/><polygon class="cls-1" points="813.18 0 813.18 16.83 809.24 16.83 809.24 12.93 810.39 12.93 810.39 6.83 805.42 6.83 805.42 12.93 806.7 12.93 806.7 16.83 803.45 16.83 803.45 55.35 813.18 55.35 813.18 409.49 823.88 409.49 823.88 0 813.18 0"/><polygon class="cls-1" points="3223.53 0 3223.53 16.83 3219.59 16.83 3219.59 12.93 3220.73 12.93 3220.73 6.83 3215.77 6.83 3215.77 12.93 3217.04 12.93 3217.04 16.83 3213.79 16.83 3213.79 55.35 3223.53 55.35 3223.53 409.49 3234.23 409.49 3234.23 0 3223.53 0"/><polygon class="cls-1" points="2420.08 0 2420.08 16.83 2416.14 16.83 2416.14 12.93 2417.28 12.93 2417.28 6.83 2412.32 6.83 2412.32 12.93 2413.59 12.93 2413.59 16.83 2410.35 16.83 2410.35 55.35 2420.08 55.35 2420.08 409.49 2430.78 409.49 2430.78 0 2420.08 0"/><path class="cls-1" d="M1687.75,303.71a1368.36,1368.36,0,0,1-401.63,60.39,1367.65,1367.65,0,0,1-401.63-60.39c.19-.61.29-.92.48-1.54a1366,1366,0,0,0,401.15,60.31,1366.76,1366.76,0,0,0,401.15-60.31C1687.46,302.79,1687.55,303.1,1687.75,303.71Z" transform="translate(727.19 -295.34)"/><path class="cls-1" d="M2491.76,303.71a1368.36,1368.36,0,0,1-401.63,60.39,1367.65,1367.65,0,0,1-401.63-60.39c.19-.61.29-.92.48-1.54a1366,1366,0,0,0,401.15,60.31,1366.76,1366.76,0,0,0,401.15-60.31C2491.47,302.79,2491.57,303.1,2491.76,303.71Z" transform="translate(727.19 -295.34)"/><path class="cls-1" d="M883.73,303.71A1368.25,1368.25,0,0,1,482.11,364.1,1367.65,1367.65,0,0,1,80.48,303.71c.19-.61.28-.92.47-1.54a1366.16,1366.16,0,0,0,401.16,60.31,1366.81,1366.81,0,0,0,401.15-60.31C883.45,302.79,883.54,303.1,883.73,303.71Z" transform="translate(727.19 -295.34)"/><path class="cls-1" d="M79.72,303.71A1368.31,1368.31,0,0,1-321.91,364.1a1367.53,1367.53,0,0,1-401.62-60.39c.18-.61.28-.92.47-1.54a1366.15,1366.15,0,0,0,401.15,60.31A1366.71,1366.71,0,0,0,79.24,302.17C79.43,302.79,79.53,303.1,79.72,303.71Z" transform="translate(727.19 -295.34)"/></svg>