<svg id="Episod_5" data-name="Episod 5" xmlns="http://www.w3.org/2000/svg" width="2467.78" height="145.28" viewBox="0 0 2467.78 145.28"><defs><style>.cls-1{fill:#594e41;}</style></defs><path class="cls-1" d="M890.63,716.19l-1.18-.89V710l2.36-4.58h14.78l3.55,3.4v8.57h-1.63l-.59,3.55-2.07.89.59,3.1-1.92.59-.15.74-.88,1.48v1.48l9.16,6.94,1.48,2.07-2.22,3.84.59,2.81,6.65,8.28,1,1,7.1-8.42,1.92,2.51-4.29,6.65.59,1.48-3,5.91h-5l-2.95,5,3.25,13,2.36,8.57-7.24.88.89,20.4-2.22,5.76-3,5-1.78.44-1.92,18,3.55,2.66,4,2.95v2.81l-.89,1h-23.2l-1.77-2.66L889.15,822l-1.77-.59-4.73-5.76V798.8l.59-9.75-2.51-1.19-.3-7.83,1-15.22s-1.19-7.83-1-8.28-2.36-15.81-2.36-15.81l1.18-5.91,4.88-8.57,3-1.48,1.33-3.84,1.18-.15,1-1.62.59.29-.15-3.1Z" transform="translate(811.31 -705.34)"/><path class="cls-1" d="M1417.78,839.25h20.37l-.81-2-3.83-2-4.24-5,5.85-12.1v-1l6.06-10.29,12.9-2.82,9.28-4-2,10.28-1.62,27.43h17.55l-.4-3.42-8.07-4.24,4.44-18.56V797.09l.8-2-1.41-5-1.41-6.86,2.62,2.63.81,4.64,3.23,1.21,52.84,46h5.85L1481.11,788l-.4-3.63-1-3.43,1.41-1.21-3.83-13.11-2.82-13.31-1.82-6.45.41-2.83,2-1.21-2.22-5.24-4-4,.81-3.22,1.41-2.42-1.21-2-.81-1.62-3.43-3-8.07-1.61-2.21.8-7.27,8.88-2.82,1.41-5.85,4s-7.87,12.71-7.87,13.32-4.23,11.29-4.23,11.29l1.21,4,6,2.22-5.25,19.56,1.42,1-3,9.68.2,6.86,2.42,3.43-4.43,7.06-2,.4L1419.19,832Z" transform="translate(811.31 -705.34)"/><path class="cls-1" d="M-692.4,826.82c1.08,1.09,13.86,17.54,13.86,17.54l5.84-2.81-2.16-12.78,23.39-13.64,9.74-11.69,3.47,10.39-5.85,22.74-3.68,7.14.21,3.69H-627v-2.17s-6.5-4.76-5.63-5.41,4.33-6.93,4.33-6.93l5.63-13,1.94-8.67s42.23,13.86,41.36,14.51,2,23.82,2,23.82h2.82l2.81-21.87,25.12,8.45,6.5,8.87,14.94-3.68,3.46-6.71-4.54-2.6,16.45-9.31,2.6,1.73,3-3.68-2.59-4.76-11.26-3.68-2.6-7.8L-528.26,793-541,780.7-561,779.4l-14.29,2.17-8.66,9.09-11.48,5.63-5.2,3.25-.21,1.08-4.12,2.17h-2.6l-3.89,2.16-11.7-3-5.41-19.27,1.52-3.9V771l9.74-7.37,2.17-6.92,5-3,.86-5.19L-609,743l-1.08-5.41,3.24-3.25,3.47,2.17,1.3-.87,3-3.9h2l-.22-3.25,1.3-3.24,3.25.65,3.46-6.07s.22-5-.65-5.41-7.58-6.5-7.58-6.5l-7.57-2.6s-5.2,1.95-6.28,2.6-4.55,6.5-4.55,6.5l2.16,3.25v6.49l-1.51,1.09H-619l-1.74,2.81-13.42,4.33-9.31,11.7-6.93,17.1-6.93,11.48-2.6,17.11-4.55.21-7.14-1.3-1.09,4.55,1.74,2.38,8.88.22.43,1.3,5.41,2.6s.44.65-.86,1.51-5.63,3-5.63,3l-20.36,15.16-8.88,5.2Z" transform="translate(811.31 -705.34)"/><path class="cls-1" d="M849.8,713.87l1.13,4.22-3.66.56-3.36,4.77v3.65l-6.46,2.53-1.69,2.25-9,13.19-.85,11.8,5.9,8.42,3.93,3.93-2.24,35.95L830.43,824l17.13,4.21,2,16.29,2,6.18,7.86-1.69s-.56-3.65-.56-5.05-1.13-15.17-1.13-15.17l6.46.85L863,839.67l2,1.69L882.38,843l2.24-2.8-1.12-1.41s-11.23-5.05-11.23-6.74a3.24,3.24,0,0,0-1.13-2.52l22.47-3.94-9-24.43-3.09-30-4.77-21.62L871.42,733l-2.52-3.09-.28-3.09s-1.13-2.53-2-2.53-1.12-2.8-1.12-2.8l5.05-.85v-1.12l-2.24-1.4v-3.65l2-1.69-11.51-4.49-4.21.84Z" transform="translate(811.31 -705.34)"/><path class="cls-1" d="M680.54,760.08s-1,5.13-2,5.39-8,3.08-8,3.08l-4.88,1.54L661,771.37l-.26,3.6-2.82.26-2.31,3.33-1.29.26,2.06,6.93-3.85,8.47,1.79,7.71,1.29,3.33,2.82,1.29.51,2.31,16.44,9.5,2.05-4.37,1.28-9.24.77,11,.77,3.34.26,4.1-1.54.26-3.85,12.32-.51-13.35-18.49-10.27-1.8,2.83-5.13-1.54-2.31,16.43-8.22,1-1.28,5.13,1.8,2H625.86l-.26-8.21-19-9V815l-10.52-5.14,10.26-30.29,6.17-10.53,10.27-9,15.14-8.73,8-.77,7.7,3.59,5.39-2.82,1.29,1.8,6.93-1.29,2.31-2.05,5.91.26,4.36,4.36Z" transform="translate(811.31 -705.34)"/><polygon class="cls-1" points="912.67 11.75 911.15 20.09 908.12 21.36 908.37 27.42 906.85 27.42 904.33 30.21 905.34 36.02 900.53 36.78 902.05 51.95 912.67 68.9 922.03 78.76 953.89 90.64 962.49 93.93 966.28 87.86 972.85 91.15 964 108.34 956.42 105.82 960.21 98.74 922.28 81.79 917.22 81.03 906.1 77.49 902.05 72.18 896.99 70.16 891.93 92.41 889.91 94.69 889.66 98.99 887.13 102.28 888.14 124.02 893.96 129.08 900.78 131.61 900.78 134.9 879.29 134.9 877.77 126.55 872.97 107.08 870.44 104.3 865.63 107.59 860.83 120.48 860.32 130.34 863.61 133.13 863.61 136.67 850.21 136.67 848.95 129.33 851.47 114.16 856.53 98.99 856.28 90.39 862.35 81.03 856.78 79.26 861.84 66.62 867.91 54.73 871.2 42.34 884.85 24.64 887.13 25.4 889.66 21.61 891.43 21.1 893.2 17.56 890.92 17.06 890.92 9.47 896.74 6.94 910.14 9.22 912.67 11.75"/><path class="cls-1" d="M389.26,736.87l-6.15,7.21-.42,1.06-2.12-.42-2.34,2.54-3.39,1.27h-2.12l-.85,2.12,1.27,1.7-2.75,3-2.34,5.94-3,5.72-2.55,3.82.64,15.69,71.89-4,2.33-4.24L437,761.68l-4.87-9.54-8.91-5.52,1.27-2.12,4.24-2.12s-.84-2.54-1.48-2.75-3.18.63-3.18.63l-3-4.66h-2.33l1.06-4.88-1.49-.21-2.54-1.91L413,723.93l1.27-2.75,7.85-4.88,7-3.61,6.36,4.25v4.87l-1.27,2.12,1.27,1.06,3,.64,3.18-.42,1.91-1.06h3.6l3.82,4L463.69,739l9.76,12.94,1.27,25.44,1.06,18.24L460.51,799l-.84,21.82,3.18,1.49L458,841.6H428.92l-.43-2.54,9.76-4.67.21-19.08-3.82-21.61-67.86,3.61L364,800.49l-4.45,1.7-1.7,8.9,1.28,12.73,1.06,4.66,1.48,2.55,8.27,3.39,1.27,3-.21,3.39H349.39l.15-3.14-11.88,2.54-8.27-.21-1.06-4.45,2-14.67-.64-3.18.21-10.39s-15.05-5.73-14.84-6.37,7.63-34.78,7.63-34.78l5.94-14.2,18.45-15.06,12.51-2.12,2.55-1.91,3.6,1.27.85-3.6.21-3.82,12.94-7,4,4Z" transform="translate(811.31 -705.34)"/><path class="cls-1" d="M1328,793.08l-48.68-6.3-.77-5.51,2.88-5-5-14.92-2.62-15.71-7.59-8.9-.26-7.59-2.62-5.24-7.33-1.31-3.67,1.31-2.09,3.66-1,8.64-5,2.36-1,2.88-3.66,11.26-3.15,20.95-1,5.23-.47,2.13-7.52-1L1223,740.42l-7.07-6,.26-7.07,1.57-.78,2.36-5.5-.52-5-5-5h-7.07l-5.76,3.93-1.31,9.68,2.62.53-1.31,1.57-3.4,4.19-5.5,3.66-7.59,14.14,1.14,26-12.82-1.65c.22-3.15.68-8.72.68-8.72l-2.14-18.78-4.83-10.19-6.71-1.08.27-7.78h1.61V721l-1.88-1.61-2.68-3.49h-8.58c-1.35,0-5.1,4.29-5.1,4.29l-.81,1.35-.53,5.63,2.95,1.34,1.34,4-3.76,1.88-8,4.29-3,5.37-2.61,23.45-14.29-1.85V741.34l-10.47-10.46,2.69-5.1-1.61-7.24,1.07-.54.54-5.1-5.1-3.49-7.78-.8-5.9,8,2.14,7,1.35.27.8,3.76.8,1.34-6.43-.27-6.17,4.29-6.71,11.8-.8,4.56-1.35,2.69v8l-4-.51,1.29-3.47-5.9-18.24-9.93-8.85v-2.15l.81-1.88,1.88-7-1.34-6.44-8.32-2.41-8.85,3.22-.81,5.09v3.22l2.42,2.42-.54,2.68-2.15,1.34-5.09,1.07-15.26,10.89-1.93,13.54-53.61-6.93L960,758.19l59.79,7.57,1.87,1.33-2.95,7,4.56,2.42v23.87l1.34,11,.8,11.54h3.76l-2.42,18.24.27,4.29,11.8.27-1.87-8.05V821.28l11,.27.27,20.92h8.32l-1.07-21.73,5.09-1.34-1.87-40.24,3.48-.8,1.08-4.3,1-2.67,14,1.76,2.48,5.21.54,10.19,2.68,26,1.61,1.88-1.34,27.86h9.66l1.87-26.52,2.15-1.07,7.24,27h13.68l.27-2.68s-6.7-2.41-7-4.29-4.56-23.57-4.56-23.57l2.68-4.56L1107,783.18l3.86-5.9,22.22,2.81,2.09,2.56-3,33,1.61,1.08-2.69,23.57H1141l2.41-24.11,3.76.54,1.07,23.57h11.81l-3.49-5.1V817l8.58-.53,1.61-27.36s1-2,2.28-4.44l22.64,2.87.92,1.6-2.88,22.26.78,1.57,6.55,1,.79,28.71H1207V814l6.81-.27,2.09,28.45h16l.26-3.14-7.59-5.23-1.83-19,5-1.57-1.57-17.8,1.31-1.84V792l4.83.61-.9,4.07,9.16,1.57.53-2.36.22-2.14,4.75.6.26,2.59-2.62,19.11,1.58,1-.79,19-2.62,3.41.26,3.66h11.79V817.66l3.66-1,.26,26.36h10.74l1-3.4-4.46-4.19-.26-17.72,10.21-1.83,7.86-2.62-2-14.4,45.7,5.79Zm-85-11,1.23-5.53.59,5.77Z" transform="translate(811.31 -705.34)"/><polygon class="cls-1" points="1076.89 83.52 1076.89 60.01 1022.23 60.01 1022.23 83.52 1016.29 83.52 1016.29 60.01 961.63 60.01 961.63 83.52 949.75 83.52 949.75 132.78 1095.9 132.78 1095.9 83.52 1076.89 83.52"/><path class="cls-1" d="M-811.31,840.93h106.59l-10.48-21.36-22.72-29.14-17.47-18.13-14-3.23a32.66,32.66,0,0,0-12.24,12.3c-4.66,8.41-15.72,27.19-17.47,29.13S-811.31,840.93-811.31,840.93Z" transform="translate(811.31 -705.34)"/><path class="cls-1" d="M-382.66,840.93H-83.21l-54-24.09-40.5-31.71-60.13-34.24s-38,19-47.87,29.17-19.63,25.36-24.54,26.63S-325,819.37-336,820.64-382.66,840.93-382.66,840.93Z" transform="translate(811.31 -705.34)"/><path class="cls-1" d="M1483.63,838.52h172.84l-7-12.92s-52.64-7.94-56.61-14.9S1561.11,774,1561.11,774s-8.94-11.92-17.88-3-14.9,18.88-18.87,24.83-29.8,22.85-29.8,22.85Z" transform="translate(811.31 -705.34)"/></svg>