<svg height="420.9346" width="767.77173" xmlns="http://www.w3.org/2000/svg"><g transform="translate(-142.29523 -469.84764)"><path d="m455.53125 5c-54.49315.369935-108.24063 25.141509-126.90625 70.09375-91.25195-121.185169-291.957653-7.454937-233.71875 113.8125-138.108855-25.63809-106.389137 197.56985 22.46875 175.8125 55.32456 57.59304 140.17526 67.00709 232 26.28125h.0625c111.00861 40.416 207.55838 10.28964 251.09375-20.5625 261.28321 68.17506 167.30392-349.25091-4.15625-240.34375-1.33857-86.730383-71.689-125.5632175-140.84375-125.09375z" fill="#f2f2f2" transform="translate(142.29523 469.84764)"/><path d="m470.91811 544.94223c44.24444-106.55346 285.63354-99.69979 266.71711 76.68751m1.03771-21.69172c171.46017-108.90716 265.43737 308.50861 4.15416 240.33355m16.53351-14.42319c-31.75604 36.10817-153.16541 87.92194-292.20644 24.98419m24.50594 10.0029c-91.82474 40.72584-176.65416 31.32367-231.97872-26.26937m23.89327-6.54519c-148.40737 55.61986-192.67333-196.42912-46.38417-169.27246m12.56211 20.7809c-99.64522-135.92843 151.77233-278.6515 236.95442-108.95426" fill="none" stroke="#515151" stroke-linecap="round" stroke-linejoin="round" stroke-width="10"/></g></svg>