<svg id="Layer_1" data-name="Layer 1" xmlns="http://www.w3.org/2000/svg" xmlns:xlink="http://www.w3.org/1999/xlink" width="1181.49" height="346.48" viewBox="0 0 1181.49 346.48"><defs><style>.cls-1{fill:#53493e;}.cls-2{fill:#63564a;}.cls-3{fill:url(#linear-gradient);}.cls-4{fill:url(#linear-gradient-2);}.cls-5{fill:#927e6c;}.cls-6{fill:url(#linear-gradient-3);}.cls-7{fill:#66594c;}.cls-8{fill:url(#linear-gradient-4);}.cls-9{fill:url(#linear-gradient-5);}.cls-10{fill:#b3a698;}.cls-11,.cls-27{fill:#d2c8bd;}.cls-12{fill:url(#linear-gradient-6);}.cls-13{fill:url(#linear-gradient-7);}.cls-14{fill:url(#linear-gradient-8);}.cls-15{fill:url(#linear-gradient-9);}.cls-16{fill:url(#linear-gradient-10);}.cls-17{fill:url(#linear-gradient-11);}.cls-18{fill:url(#linear-gradient-12);}.cls-19{fill:url(#linear-gradient-13);}.cls-20{fill:url(#linear-gradient-14);}.cls-21{fill:url(#linear-gradient-15);}.cls-22{fill:url(#linear-gradient-16);}.cls-23{fill:url(#linear-gradient-17);}.cls-24{fill:url(#linear-gradient-18);}.cls-25{fill:url(#linear-gradient-19);}.cls-26{fill:url(#linear-gradient-20);}.cls-27{isolation:isolate;font-size:23.54px;font-family:Verdana;letter-spacing:0.13em;}.cls-28{fill:#817060;}.cls-29{fill:url(#linear-gradient-21);}.cls-30{fill:url(#linear-gradient-22);}</style><linearGradient id="linear-gradient" x1="265.93" y1="45.18" x2="265.93" y2="64.99" gradientTransform="matrix(1, 0, 0, -1, -55.42, 355.17)" gradientUnits="userSpaceOnUse"><stop offset="0" stop-color="#594e42"/><stop offset="0.33" stop-color="#53493e"/><stop offset="1" stop-color="#6e5f52"/></linearGradient><linearGradient id="linear-gradient-2" x1="1031.56" y1="45.18" x2="1031.56" y2="64.99" xlink:href="#linear-gradient"/><linearGradient id="linear-gradient-3" x1="919.72" y1="-259.41" x2="919.72" y2="-225.8" gradientTransform="matrix(1, 0, 0, -1, -328.42, -195.9)" gradientUnits="userSpaceOnUse"><stop offset="0" stop-color="#66594c"/><stop offset="0.33" stop-color="#63564a"/><stop offset="1" stop-color="#d2c8bd"/></linearGradient><linearGradient id="linear-gradient-4" x1="919.68" y1="-259.26" x2="919.68" y2="-267.97" gradientTransform="matrix(1, 0, 0, -1, -328.42, -195.9)" gradientUnits="userSpaceOnUse"><stop offset="0.13" stop-color="#53493e"/><stop offset="1" stop-color="#53493e" stop-opacity="0"/></linearGradient><linearGradient id="linear-gradient-5" x1="181.91" y1="246.49" x2="181.91" y2="249.66" gradientTransform="matrix(1, 0, 0, -1, -55.42, 355.17)" gradientUnits="userSpaceOnUse"><stop offset="0" stop-color="#63564a"/><stop offset="1" stop-color="#a3978c"/></linearGradient><linearGradient id="linear-gradient-6" x1="454.91" y1="692.87" x2="454.91" y2="696.05" gradientTransform="translate(-328.42 -410.98) scale(1 0.75)" xlink:href="#linear-gradient-4"/><linearGradient id="linear-gradient-7" x1="278.89" y1="246.49" x2="278.89" y2="249.66" xlink:href="#linear-gradient-5"/><linearGradient id="linear-gradient-8" x1="551.89" y1="692.87" x2="551.89" y2="696.05" gradientTransform="translate(-328.42 -410.98) scale(1 0.75)" xlink:href="#linear-gradient-4"/><linearGradient id="linear-gradient-9" x1="390.32" y1="246.49" x2="390.32" y2="249.66" xlink:href="#linear-gradient-5"/><linearGradient id="linear-gradient-10" x1="663.32" y1="692.87" x2="663.32" y2="696.05" gradientTransform="translate(-328.42 -410.98) scale(1 0.75)" xlink:href="#linear-gradient-4"/><linearGradient id="linear-gradient-11" x1="502" y1="246.49" x2="502" y2="249.66" xlink:href="#linear-gradient-5"/><linearGradient id="linear-gradient-12" x1="775" y1="692.87" x2="775" y2="696.05" gradientTransform="translate(-328.42 -410.98) scale(1 0.75)" xlink:href="#linear-gradient-4"/><linearGradient id="linear-gradient-13" x1="1104.47" y1="246.49" x2="1104.47" y2="249.66" xlink:href="#linear-gradient-5"/><linearGradient id="linear-gradient-14" x1="1377.47" y1="692.87" x2="1377.47" y2="696.05" gradientTransform="translate(-328.42 -410.98) scale(1 0.75)" xlink:href="#linear-gradient-4"/><linearGradient id="linear-gradient-15" x1="1007.78" y1="246.49" x2="1007.78" y2="249.66" xlink:href="#linear-gradient-5"/><linearGradient id="linear-gradient-16" x1="1280.78" y1="692.87" x2="1280.78" y2="696.05" gradientTransform="translate(-328.42 -410.98) scale(1 0.75)" xlink:href="#linear-gradient-4"/><linearGradient id="linear-gradient-17" x1="896.82" y1="246.49" x2="896.82" y2="249.66" xlink:href="#linear-gradient-5"/><linearGradient id="linear-gradient-18" x1="1169.82" y1="692.87" x2="1169.82" y2="696.05" gradientTransform="translate(-328.42 -410.98) scale(1 0.75)" xlink:href="#linear-gradient-4"/><linearGradient id="linear-gradient-19" x1="785.94" y1="246.49" x2="785.94" y2="249.66" xlink:href="#linear-gradient-5"/><linearGradient id="linear-gradient-20" x1="1058.94" y1="692.87" x2="1058.94" y2="696.05" gradientTransform="translate(-328.42 -410.98) scale(1 0.75)" xlink:href="#linear-gradient-4"/><linearGradient id="linear-gradient-21" x1="645.81" y1="254.28" x2="645.81" y2="257.45" xlink:href="#linear-gradient-5"/><linearGradient id="linear-gradient-22" x1="918.81" y1="682.5" x2="918.81" y2="685.67" gradientTransform="translate(-328.42 -410.98) scale(1 0.75)" xlink:href="#linear-gradient-4"/></defs><g id="Episod_2" data-name="Episod 2"><g id="Cart"><rect class="cls-1" x="132.44" y="287.03" width="152.97" height="44.38"/><circle class="cls-1" cx="132.44" cy="311.6" r="34.87"/><circle class="cls-1" cx="290.95" cy="311.6" r="34.87"/><rect class="cls-1" x="42.17" y="266.74" width="1096.37" height="31.7"/><rect class="cls-1" x="347.23" y="287.03" width="118.89" height="24.57"/><rect class="cls-1" x="484.34" y="276.73" width="183.09" height="38.84"/><rect class="cls-1" x="682.49" y="276.73" width="141.87" height="34.87"/><rect class="cls-1" x="50.01" y="276.73" width="45.18" height="45.18"/><circle class="cls-1" cx="899.65" cy="311.6" r="34.87"/><circle class="cls-1" cx="1058.17" cy="311.6" r="34.87"/><rect class="cls-1" x="899.65" y="287.03" width="152.97" height="44.38"/><path class="cls-2" d="M192.77,368.32h-9.51A4.4,4.4,0,0,1,178.9,364V348.9a4.4,4.4,0,0,1,4.36-4.36h9.51a4.4,4.4,0,0,1,4.36,4.36V364a4.34,4.34,0,0,1-4.33,4.36Z" transform="translate(-55.42 -44.83)"/><circle class="cls-1" cx="132.6" cy="311.6" r="7.13"/><path class="cls-2" d="M352.08,368.32h-9.51a4.4,4.4,0,0,1-4.36-4.36V348.9a4.4,4.4,0,0,1,4.36-4.36h9.51a4.4,4.4,0,0,1,4.36,4.36V364a4.34,4.34,0,0,1-4.33,4.36Z" transform="translate(-55.42 -44.83)"/><circle class="cls-1" cx="291.91" cy="311.6" r="7.13"/><path class="cls-2" d="M960.78,368.32h-9.51a4.4,4.4,0,0,1-4.36-4.36V348.9a4.4,4.4,0,0,1,4.36-4.36h9.51a4.4,4.4,0,0,1,4.36,4.36V364a4.34,4.34,0,0,1-4.33,4.36Z" transform="translate(-55.42 -44.83)"/><circle class="cls-1" cx="900.61" cy="311.6" r="7.13"/><path class="cls-2" d="M1120.09,368.32h-9.51a4.4,4.4,0,0,1-4.36-4.36V348.9a4.4,4.4,0,0,1,4.36-4.36h9.51a4.4,4.4,0,0,1,4.36,4.36V364a4.34,4.34,0,0,1-4.33,4.36Z" transform="translate(-55.42 -44.83)"/><circle class="cls-1" cx="1059.91" cy="311.6" r="7.13"/><rect class="cls-3" x="178.41" y="290.2" width="64.2" height="19.81"/><rect class="cls-4" x="944.04" y="290.2" width="64.2" height="19.81"/><rect class="cls-5" x="486.09" y="292.58" width="210.27" height="2.77"/><rect class="cls-5" x="750.94" y="323" width="210.26" height="2.69" transform="translate(-91.84 75.76) rotate(-7.89)"/><rect class="cls-5" x="435.82" y="219.16" width="2.69" height="210.26" transform="translate(1.94 669.37) rotate(-82.32)"/><rect class="cls-5" x="32.1" y="63.84" width="1118.33" height="183.88"/><rect class="cls-2" x="32.1" y="247.72" width="1118.33" height="17.28"/><rect class="cls-5" x="32.1" y="265" width="1118.33" height="3.33"/><rect class="cls-6" x="27.11" y="30.4" width="1128.39" height="33.61"/><rect class="cls-7" x="149.08" y="63.53" width="1.59" height="183.88"/><rect class="cls-7" x="103.11" y="61.94" width="1.59" height="183.88"/><rect class="cls-7" x="530.31" y="63.53" width="1.59" height="183.88"/><rect class="cls-7" x="474.44" y="63.53" width="1.59" height="183.88"/><rect class="cls-7" x="418.56" y="63.53" width="1.59" height="183.88"/><rect class="cls-7" x="362.68" y="63.53" width="1.59" height="183.88"/><rect class="cls-7" x="306.81" y="63.53" width="1.59" height="183.88"/><rect class="cls-7" x="250.93" y="63.53" width="1.59" height="183.88"/><rect class="cls-7" x="195.05" y="63.53" width="1.59" height="183.88"/><rect class="cls-7" x="1025.52" y="63.53" width="1.59" height="183.88"/><rect class="cls-7" x="1071.17" y="61.94" width="1.59" height="183.88"/><rect class="cls-7" x="647.06" y="63.53" width="1.59" height="183.88"/><rect class="cls-7" x="702.54" y="63.53" width="1.59" height="183.88"/><rect class="cls-7" x="758.02" y="63.53" width="1.59" height="183.88"/><rect class="cls-7" x="813.5" y="63.53" width="1.59" height="183.88"/><rect class="cls-7" x="868.98" y="63.53" width="1.59" height="183.88"/><rect class="cls-7" x="924.38" y="63.53" width="1.59" height="183.88"/><rect class="cls-7" x="979.86" y="63.53" width="1.59" height="183.88"/><rect class="cls-8" x="32.1" y="63.84" width="1118.33" height="8.72"/><rect class="cls-9" x="99.94" y="105.53" width="53.1" height="3.17"/><rect class="cls-10" x="104.7" y="108.7" width="44.38" height="69.75"/><path class="cls-1" d="M198.88,157.33H165.67a3.17,3.17,0,0,0-3.17,3.17v55.8a3.17,3.17,0,0,0,3.17,3.17h33.21a3.17,3.17,0,0,0,3.17-3.17V160.5A3.17,3.17,0,0,0,198.88,157.33Z" transform="translate(-55.42 -44.83)"/><path class="cls-11" d="M198.88,219.31H165.67a3.17,3.17,0,0,1-3.17-3.17V186.82h39.55v29.32A3.17,3.17,0,0,1,198.88,219.31Z" transform="translate(-55.42 -44.83)"/><rect class="cls-12" x="99.94" y="108.7" width="53.1" height="2.38"/><rect class="cls-13" x="190.85" y="105.53" width="65.23" height="3.17"/><rect class="cls-10" x="196.72" y="108.7" width="54.53" height="69.75"/><path class="cls-1" d="M300.48,157.33H258.24a3.17,3.17,0,0,0-3.17,3.17v55.8a3.17,3.17,0,0,0,3.17,3.17h42.24a3.16,3.16,0,0,0,3.17-3.17V160.5A3.16,3.16,0,0,0,300.48,157.33Z" transform="translate(-55.42 -44.83)"/><path class="cls-11" d="M300.48,219.31H258.24a3.17,3.17,0,0,1-3.17-3.17V186.82h48.58v29.32A3.16,3.16,0,0,1,300.48,219.31Z" transform="translate(-55.42 -44.83)"/><rect class="cls-14" x="190.85" y="108.7" width="65.23" height="2.38"/><rect class="cls-15" x="302.29" y="105.53" width="65.23" height="3.17"/><rect class="cls-10" x="308.15" y="108.7" width="54.53" height="69.75"/><path class="cls-1" d="M411.92,157.33H369.68a3.17,3.17,0,0,0-3.17,3.17v55.8a3.17,3.17,0,0,0,3.17,3.17h42.24a3.17,3.17,0,0,0,3.17-3.17V160.5A3.17,3.17,0,0,0,411.92,157.33Z" transform="translate(-55.42 -44.83)"/><path class="cls-11" d="M411.92,219.31H369.68a3.17,3.17,0,0,1-3.17-3.17V186.82h48.58v29.32A3.17,3.17,0,0,1,411.92,219.31Z" transform="translate(-55.42 -44.83)"/><rect class="cls-16" x="302.29" y="108.7" width="65.23" height="2.38"/><rect class="cls-17" x="413.96" y="105.53" width="65.23" height="3.17"/><rect class="cls-10" x="419.83" y="108.7" width="54.53" height="69.75"/><path class="cls-1" d="M523.67,157.33H481.43a3.17,3.17,0,0,0-3.17,3.17v55.8a3.17,3.17,0,0,0,3.17,3.17h42.24a3.17,3.17,0,0,0,3.17-3.17V160.5A3.17,3.17,0,0,0,523.67,157.33Z" transform="translate(-55.42 -44.83)"/><path class="cls-11" d="M523.67,219.31H481.43a3.17,3.17,0,0,1-3.17-3.17V186.82h48.58v29.32A3.17,3.17,0,0,1,523.67,219.31Z" transform="translate(-55.42 -44.83)"/><rect class="cls-18" x="413.96" y="108.7" width="65.23" height="2.38"/><rect class="cls-19" x="1022.5" y="105.53" width="53.1" height="3.17"/><rect class="cls-10" x="1027.26" y="108.7" width="44.38" height="69.75"/><path class="cls-1" d="M1121.44,157.33h-33.21a3.17,3.17,0,0,0-3.17,3.17v55.8a3.17,3.17,0,0,0,3.17,3.17h33.21a3.17,3.17,0,0,0,3.17-3.17V160.5A3.17,3.17,0,0,0,1121.44,157.33Z" transform="translate(-55.42 -44.83)"/><rect class="cls-20" x="1022.5" y="108.7" width="53.1" height="2.38"/><path class="cls-11" d="M1121.44,219.31h-33.21a3.17,3.17,0,0,1-3.17-3.17V186.82h39.55v29.32A3.17,3.17,0,0,1,1121.44,219.31Z" transform="translate(-55.42 -44.83)"/><rect class="cls-21" x="920.26" y="105.53" width="64.2" height="3.17"/><rect class="cls-10" x="925.97" y="108.7" width="53.66" height="69.75"/><path class="cls-1" d="M1028.94,157.33H987.49a3.17,3.17,0,0,0-3.17,3.17v55.8a3.17,3.17,0,0,0,3.17,3.17h41.45a3.17,3.17,0,0,0,3.17-3.17V160.5A3.17,3.17,0,0,0,1028.94,157.33Z" transform="translate(-55.42 -44.83)"/><rect class="cls-22" x="920.26" y="108.7" width="64.2" height="2.38"/><path class="cls-11" d="M1028.94,219.31H987.49a3.17,3.17,0,0,1-3.17-3.17V186.82h47.79v29.32A3.17,3.17,0,0,1,1028.94,219.31Z" transform="translate(-55.42 -44.83)"/><rect class="cls-23" x="809.3" y="105.53" width="64.2" height="3.17"/><rect class="cls-10" x="815.01" y="108.7" width="53.66" height="69.75"/><path class="cls-1" d="M918,157.33H876.53a3.17,3.17,0,0,0-3.17,3.17v55.8a3.17,3.17,0,0,0,3.17,3.17H918a3.17,3.17,0,0,0,3.17-3.17V160.5A3.17,3.17,0,0,0,918,157.33Z" transform="translate(-55.42 -44.83)"/><path class="cls-11" d="M918,219.31H876.53a3.17,3.17,0,0,1-3.17-3.17V186.82h47.79v29.32A3.17,3.17,0,0,1,918,219.31Z" transform="translate(-55.42 -44.83)"/><rect class="cls-24" x="809.3" y="108.7" width="64.2" height="2.38"/><rect class="cls-25" x="698.42" y="105.53" width="64.2" height="3.17"/><rect class="cls-10" x="704.13" y="108.7" width="53.66" height="69.75"/><path class="cls-1" d="M807.1,157.33H765.65a3.17,3.17,0,0,0-3.17,3.17v55.8a3.17,3.17,0,0,0,3.17,3.17H807.1a3.17,3.17,0,0,0,3.17-3.17V160.5A3.17,3.17,0,0,0,807.1,157.33Z" transform="translate(-55.42 -44.83)"/><path class="cls-11" d="M807.1,219.31H765.65a3.17,3.17,0,0,1-3.17-3.17V186.82h47.79v29.32A3.17,3.17,0,0,1,807.1,219.31Z" transform="translate(-55.42 -44.83)"/><rect class="cls-26" x="698.42" y="108.7" width="64.2" height="2.38"/><text class="cls-27" transform="translate(332.2 223.56)">САНИТАРНЫЙ</text><text class="cls-27" transform="translate(636.45 223.56)">САНИТАРНЫЙ</text><circle class="cls-11" cx="648.29" cy="259.04" r="23.94" transform="translate(80.22 688.1) rotate(-64.53)"/><polygon class="cls-28" points="609.25 210.47 596.41 210.47 596.41 197.63 589.12 197.63 589.12 210.47 576.28 210.47 576.28 217.84 589.12 217.84 589.12 230.68 596.41 230.68 596.41 217.84 609.25 217.84 609.25 210.47"/><path class="cls-2" d="M603.8,145.29V246.9h84V145.29ZM687.18,246H604.52V147h82.66Z" transform="translate(-55.42 -44.83)"/><rect class="cls-29" x="542.12" y="97.69" width="96.54" height="3.17"/><rect class="cls-30" x="542.12" y="100.86" width="96.54" height="2.38"/><rect class="cls-2" x="590.39" y="100.86" width="0.87" height="100.26"/><rect class="cls-2" x="547.43" y="111.64" width="2.38" height="9.19"/><rect class="cls-2" x="630.97" y="111.64" width="2.38" height="9.19"/><rect class="cls-2" x="547.43" y="145.87" width="2.38" height="9.19"/><rect class="cls-2" x="630.97" y="145.87" width="2.38" height="9.19"/><rect class="cls-2" x="547.43" y="183.44" width="2.38" height="9.19"/><rect class="cls-2" x="630.97" y="183.44" width="2.38" height="9.19"/><rect class="cls-1" x="1132.59" y="272.61" width="16.8" height="14.42"/><rect class="cls-1" x="1145.51" y="274.99" width="19.58" height="9.35"/><rect class="cls-1" x="1160.81" y="276.73" width="20.69" height="5.87"/><rect class="cls-1" x="1179.43" y="270.15" width="2.06" height="19.02"/><rect class="cls-1" x="32.1" y="272.29" width="16.8" height="14.42"/><rect class="cls-1" x="16.49" y="274.99" width="19.58" height="9.35"/><rect class="cls-1" y="276.73" width="20.69" height="5.87"/><rect class="cls-1" y="270.15" width="2.06" height="19.02"/></g></g><path class="cls-1" d="M1174.42,56.83v-2h-2v-5h-2v5H995.25v-5h-2v5H818.09v-5h-2v5H640.92v-5h-2v5H463.75v-5h-2v5H286.59v-5h-2v5H109.42v-5h-2v5h-2v2h2v4h-2v2h2v6h-2v4h1069v-4h-2v-6h2v-2h-2v-4Zm-181.17,0v4H818.09v-4Zm-529.5,6H638.92v6H463.75Zm-2,6H286.59v-6H461.75Zm179.17-6H816.09v6H640.92Zm177.17,0H993.25v6H818.09Zm-2-6v4H640.92v-4Zm-177.17,0v4H463.75v-4Zm-177.17,0v4H286.59v-4Zm-352.33,0H284.59v4H109.42Zm0,6H284.59v6H109.42Zm1061,6H995.25v-6h175.17Zm0-8H995.25v-4h175.17Z" transform="translate(-55.42 -44.83)"/><path class="cls-1" d="M131.42,58.83v-2l1-3a4.94,4.94,0,0,0-1-3l-3-3,1,4,.76,3.29-.76,2.71-.88-.47-3.12-5.53h-2l5,7,1.91,2,.09,5v3l2-1v-5l1.94-1.74,1.06-2.26.28-1.77-4.28,3.77Z" transform="translate(-55.42 -44.83)"/><path class="cls-1" d="M144.42,56.83c1,1,4,10,4,10l1,3,2-.82-1-3.18v-3l2-5v-2l-3,4Z" transform="translate(-55.42 -44.83)"/><path class="cls-1" d="M159.42,61.83l-3-11c0,1,1,6,1,6v9l2,4h1v-6l1-2s0-4,1-5,3-8,3-8l-5,11Z" transform="translate(-55.42 -44.83)"/><path class="cls-1" d="M180.42,57.83v-2l1-2,1-4-2,1-2,3-1,1-2-7c0,1-1,6-1,6l3.14,3-.14,4-1,4s-2,2-2,3a3.49,3.49,0,0,0,1,2,1,1,0,0,0,1-1,10.07,10.07,0,0,1,1-3l1-3s.68-2,.34-2a20.63,20.63,0,0,1,2.66-1l2-2-3,1Z" transform="translate(-55.42 -44.83)"/><path class="cls-1" d="M202.42,49.83l-3,3-3,1a22.69,22.69,0,0,0,1-4c0-1-3-1-3-1v7l-3.82-1c.69.36-.11,3,.82,3s4,2,4,2l1,9,1,1-.17-7.11,1.17-2.89v-4l4-1Z" transform="translate(-55.42 -44.83)"/><polygon class="cls-1" points="147 17 148.53 18.02 150 17 149 13 147 17"/><path class="cls-1" d="M213.42,59.83l-1-3s-1-3,0-3,1-2,1-2a1.39,1.39,0,0,1,0-2c1-1-1-3-1-3-1,2-2,9-2,9l2,4-1,3.15,0,1.85,1,2L211.73,69l3.69-.18-1-3-1-2,2-2Z" transform="translate(-55.42 -44.83)"/><path class="cls-1" d="M236.42,54.83c-1,1-2.17,1-2.58,2,0,0-.42,1-.42-1s1-2,1-3a10.07,10.07,0,0,1,1-3l1-3c-1,0-3,5-3,5l-1,5-1,3-.55-.37-2.45-1.63,1,1s4,2,3,3a3.1,3.1,0,0,0-1,2l1,2a1,1,0,0,0-1,1,3.49,3.49,0,0,0,1,2l2-3-1-3,.42-1.86.58-1.14,1.83-3s1.17-1,2.17-2S237.42,53.83,236.42,54.83Z" transform="translate(-55.42 -44.83)"/><path class="cls-1" d="M236.42,66.83c0,1,.41,2.33,1.2,2.16s.8-1.16.8-1.16l-1-3C237.42,65.83,236.42,65.83,236.42,66.83Z" transform="translate(-55.42 -44.83)"/><polygon class="cls-1" points="196 14 196 11 195 11 194 14 194 15 196.03 16.06 196 14"/><path class="cls-1" d="M251.17,66.48l-.75-2.65-.22.07-.78-2.07.54,2,0,.16-2.58.86c0,1-1,3,0,3h3l.42-.75.47,1.77,1.11,1-1.25-3.34Z" transform="translate(-55.42 -44.83)"/><path class="cls-1" d="M256.42,64.83c-1,0-2-2-2-2v1l-2,2s-1,1,0,1h3C256.42,66.83,257.42,64.83,256.42,64.83Z" transform="translate(-55.42 -44.83)"/><path class="cls-1" d="M273.42,53.83v3l3,1v-7C275.42,51.83,273.42,52.83,273.42,53.83Z" transform="translate(-55.42 -44.83)"/><path class="cls-1" d="M273.42,61.83v-4h-1v4l2,4,1,3v1a1,1,0,0,0,1-1c0-1,0-3-1-4S273.42,62.83,273.42,61.83Z" transform="translate(-55.42 -44.83)"/><path class="cls-1" d="M295.33,63l.09-4.18s-2-2-2-3a10.07,10.07,0,0,0-1-3v-2l-2-2c0,2-1,6,0,6s2,3,2,3a3.49,3.49,0,0,1,1,2v3a2,2,0,0,1,2,2,20.34,20.34,0,0,0,1,5,2.19,2.19,0,0,0,1-3C296.42,64.83,295.33,63,295.33,63Z" transform="translate(-55.42 -44.83)"/><path class="cls-1" d="M290.16,60.91a12.1,12.1,0,0,1-1.61-.32l-.13,2.24,2,2h3a4.94,4.94,0,0,0-1-3A3.17,3.17,0,0,0,290.16,60.91Z" transform="translate(-55.42 -44.83)"/><path class="cls-1" d="M307.42,55.83h-1s-3-1-3-2-2-1-2-2a43.79,43.79,0,0,1,.68-4.37c-.9,2.64-3.33,5.37-1.68,5.37,2,0,2,3,3,4s2,4,2,4v4s-2,1-2,2,2,1,2,1l2,1v-7l-1-4h3l4-5-4,1S308.42,55.83,307.42,55.83Z" transform="translate(-55.42 -44.83)"/><path class="cls-1" d="M302.1,47.46a5.17,5.17,0,0,0,.32-1.63S302.28,46.53,302.1,47.46Z" transform="translate(-55.42 -44.83)"/><path class="cls-1" d="M328.42,63.83l-.92-2.77c.16.08.18,0-.08-.23-1-1-1-6-1-7s-3-3-3-3v3c0,1,2,4,2,5,0,.69,1.46,1.88,2,2.19v2.81s-1,1-1,0-2.49-2.76-2.49-2.76l-.51,2.76,2,1,2,2v2l2,1v-4C329.42,63.83,328.42,63.83,328.42,63.83Z" transform="translate(-55.42 -44.83)"/><path class="cls-1" d="M320.54,68.83l2.88-1v-1a3.49,3.49,0,0,0-2-1C320.42,65.83,320.42,67.83,320.54,68.83Z" transform="translate(-55.42 -44.83)"/><path class="cls-1" d="M344.42,53.83c0,1-4,4-4,5s-1-2-1-3-1-8-1-8h-1l.73,6.78s-.73,4.22.27,5.22-1,2-1,2v4s3,2,3,2.84V66.83l-1-3v-2a3.49,3.49,0,0,1,1-2l3-2,3-5S344.42,52.83,344.42,53.83Z" transform="translate(-55.42 -44.83)"/><path class="cls-1" d="M353.42,65.83c-1,0-1-2-1-2l1-3a1,1,0,0,1-1-1c0-1-1-1,0-2s-.88-.84-.88-.84c-.12.84-2.12,3.84-1.12,4.84s2,2,1,3-1,3,0,3,1-.13,2,.93S354.42,65.83,353.42,65.83Z" transform="translate(-55.42 -44.83)"/><path class="cls-1" d="M355.42,61.83v3l-1,2,.28,1.79,1.72,1.21v-3a10.07,10.07,0,0,1,1-3s-1.7.09-.85-.95a2.59,2.59,0,0,1,1.85-1.05l.88-1.11-.88-1.89C358.42,59.83,355.42,61.83,355.42,61.83Z" transform="translate(-55.42 -44.83)"/><path class="cls-1" d="M371.42,55.83a10.07,10.07,0,0,1-1,3s-.13.4-.32,1a3.28,3.28,0,0,1-1.68-1,3.1,3.1,0,0,0-2-1s-1,0,0,1,1,2,2,2a2.84,2.84,0,0,0,1.54-.62,25.58,25.58,0,0,1-1,2.67,7.27,7.27,0,0,1-2.5,1.95v5a4.94,4.94,0,0,1,1-3,3.1,3.1,0,0,0,1-2s2-2,2-3v-2l2-1v-5c0-2-2-5-2-5C370.42,50.83,371.42,54.83,371.42,55.83Z" transform="translate(-55.42 -44.83)"/><path class="cls-1" d="M378.42,60.83v-3l-1,4,2,2-1,2,1,2,2-4-2-2Z" transform="translate(-55.42 -44.83)"/><path class="cls-1" d="M390.42,51.83v-3s0-2-1-2h-1v1a22.69,22.69,0,0,0,1,4Z" transform="translate(-55.42 -44.83)"/><path class="cls-1" d="M393.42,47.83v-3c-.17.33-.33.69-.5,1.06-.81,1.85-1.5,3.94-1.5,3.94l.85,1.71c-1,.7-1.85,1.29-1.85,1.29l-1,3v7h-3l1,2,1,1s1-1,1,1-1,4,0,2a13.38,13.38,0,0,0,1-5v-9l1-2a3.49,3.49,0,0,1,2-1c1,0,1-2,1-2a19.38,19.38,0,0,1-1.88,1.51C392.73,50.6,393.42,47.83,393.42,47.83Z" transform="translate(-55.42 -44.83)"/><path class="cls-1" d="M402.42,55.83a14.39,14.39,0,0,0-2,3v3c0,1-1,2,0,2a1.1,1.1,0,0,1,.48.11l-1.48,1.89v1c-1-1-3-2-3-1v2l2.46,1.23,1.54-1.23,1-2v-1l2-2a22.69,22.69,0,0,1-1-4C402.42,57.83,403.42,54.83,402.42,55.83Z" transform="translate(-55.42 -44.83)"/><path class="cls-1" d="M400.42,54.83l1-1c1-1,0,0-1-2s0-2-1-2,0,2,1,4Z" transform="translate(-55.42 -44.83)"/><path class="cls-1" d="M429.42,58.83v-2l1-3a4.94,4.94,0,0,0-1-3l-3-3,1,4,.76,3.29-.76,2.71-.88-.47-3.12-5.53h-2l5,7,1.91,2,.09,5v3l2-1v-5l1.94-1.74,1.06-2.26.28-1.77-4.28,3.77Z" transform="translate(-55.42 -44.83)"/><path class="cls-1" d="M442.42,56.83c1,1,4,10,4,10l1,3,2-.82-1-3.18v-3l2-5v-2l-3,4Z" transform="translate(-55.42 -44.83)"/><path class="cls-1" d="M457.42,61.83l-3-11c0,1,1,6,1,6v9l2,4h1v-6l1-2s0-4,1-5,3-8,3-8l-5,11Z" transform="translate(-55.42 -44.83)"/><path class="cls-1" d="M478.42,57.83v-2l1-2,1-4-2,1-2,3-1,1-2-7c0,1-1,6-1,6l3.14,3-.14,4-1,4s-2,2-2,3a3.49,3.49,0,0,0,1,2,1,1,0,0,0,1-1,10.07,10.07,0,0,1,1-3l1-3s.68-2,.34-2a20.63,20.63,0,0,1,2.66-1l2-2-3,1Z" transform="translate(-55.42 -44.83)"/><path class="cls-1" d="M500.42,49.83l-3,3-3,1a22.69,22.69,0,0,0,1-4c0-1-3-1-3-1v7l-3.82-1c.69.36-.11,3,.82,3s4,2,4,2l1,9,1,1-.17-7.11,1.17-2.89v-4l4-1Z" transform="translate(-55.42 -44.83)"/><polygon class="cls-1" points="445 17 446.53 18.02 448 17 447 13 445 17"/><path class="cls-1" d="M511.42,59.83l-1-3s-1-3,0-3,1-2,1-2a1.39,1.39,0,0,1,0-2c1-1-1-3-1-3-1,2-2,9-2,9l2,4-1,3.15,0,1.85,1,2L509.73,69l3.69-.18-1-3-1-2,2-2Z" transform="translate(-55.42 -44.83)"/><path class="cls-1" d="M534.42,54.83c-1,1-2.17,1-2.58,2,0,0-.42,1-.42-1s1-2,1-3a10.07,10.07,0,0,1,1-3l1-3c-1,0-3,5-3,5l-1,5-1,3-.55-.37-2.45-1.63,1,1s4,2,3,3a3.1,3.1,0,0,0-1,2l1,2a1,1,0,0,0-1,1,3.49,3.49,0,0,0,1,2l2-3-1-3,.42-1.86.58-1.14,1.83-3s1.17-1,2.17-2S535.42,53.83,534.42,54.83Z" transform="translate(-55.42 -44.83)"/><path class="cls-1" d="M534.42,66.83c0,1,.41,2.33,1.2,2.16s.8-1.16.8-1.16l-1-3C535.42,65.83,534.42,65.83,534.42,66.83Z" transform="translate(-55.42 -44.83)"/><polygon class="cls-1" points="494 14 494 11 493 11 492 14 492 15 494.03 16.06 494 14"/><path class="cls-1" d="M549.17,66.48l-.75-2.65-.22.07-.78-2.07.54,2,0,.16-2.58.86c0,1-1,3,0,3h3l.42-.75.47,1.77,1.11,1-1.25-3.34Z" transform="translate(-55.42 -44.83)"/><path class="cls-1" d="M554.42,64.83c-1,0-2-2-2-2v1l-2,2s-1,1,0,1h3C554.42,66.83,555.42,64.83,554.42,64.83Z" transform="translate(-55.42 -44.83)"/><path class="cls-1" d="M571.42,53.83v3l3,1v-7C573.42,51.83,571.42,52.83,571.42,53.83Z" transform="translate(-55.42 -44.83)"/><path class="cls-1" d="M571.42,61.83v-4h-1v4l2,4,1,3v1a1,1,0,0,0,1-1c0-1,0-3-1-4S571.42,62.83,571.42,61.83Z" transform="translate(-55.42 -44.83)"/><path class="cls-1" d="M593.33,63l.09-4.18s-2-2-2-3a10.07,10.07,0,0,0-1-3v-2l-2-2c0,2-1,6,0,6s2,3,2,3a3.49,3.49,0,0,1,1,2v3a2,2,0,0,1,2,2,20.34,20.34,0,0,0,1,5,2.19,2.19,0,0,0,1-3C594.42,64.83,593.33,63,593.33,63Z" transform="translate(-55.42 -44.83)"/><path class="cls-1" d="M588.16,60.91a12.1,12.1,0,0,1-1.61-.32l-.13,2.24,2,2h3a4.94,4.94,0,0,0-1-3A3.17,3.17,0,0,0,588.16,60.91Z" transform="translate(-55.42 -44.83)"/><path class="cls-1" d="M605.42,55.83h-1s-3-1-3-2-2-1-2-2a43.79,43.79,0,0,1,.68-4.37c-.9,2.64-3.33,5.37-1.68,5.37,2,0,2,3,3,4s2,4,2,4v4s-2,1-2,2,2,1,2,1l2,1v-7l-1-4h3l4-5-4,1S606.42,55.83,605.42,55.83Z" transform="translate(-55.42 -44.83)"/><path class="cls-1" d="M600.1,47.46a5.17,5.17,0,0,0,.32-1.63S600.28,46.53,600.1,47.46Z" transform="translate(-55.42 -44.83)"/><path class="cls-1" d="M626.42,63.83l-.92-2.77c.16.08.18,0-.08-.23-1-1-1-6-1-7s-3-3-3-3v3c0,1,2,4,2,5,0,.69,1.46,1.88,2,2.19v2.81s-1,1-1,0-2.49-2.76-2.49-2.76l-.51,2.76,2,1,2,2v2l2,1v-4C627.42,63.83,626.42,63.83,626.42,63.83Z" transform="translate(-55.42 -44.83)"/><path class="cls-1" d="M618.54,68.83l2.88-1v-1a3.49,3.49,0,0,0-2-1C618.42,65.83,618.42,67.83,618.54,68.83Z" transform="translate(-55.42 -44.83)"/><path class="cls-1" d="M642.42,53.83c0,1-4,4-4,5s-1-2-1-3-1-8-1-8h-1l.73,6.78s-.73,4.22.27,5.22-1,2-1,2v4s3,2,3,2.84V66.83l-1-3v-2a3.49,3.49,0,0,1,1-2l3-2,3-5S642.42,52.83,642.42,53.83Z" transform="translate(-55.42 -44.83)"/><path class="cls-1" d="M651.42,65.83c-1,0-1-2-1-2l1-3a1,1,0,0,1-1-1c0-1-1-1,0-2s-.88-.84-.88-.84c-.12.84-2.12,3.84-1.12,4.84s2,2,1,3-1,3,0,3,1-.13,2,.93S652.42,65.83,651.42,65.83Z" transform="translate(-55.42 -44.83)"/><path class="cls-1" d="M653.42,61.83v3l-1,2,.28,1.79,1.72,1.21v-3a10.07,10.07,0,0,1,1-3s-1.7.09-.85-.95a2.59,2.59,0,0,1,1.85-1.05l.88-1.11-.88-1.89C656.42,59.83,653.42,61.83,653.42,61.83Z" transform="translate(-55.42 -44.83)"/><path class="cls-1" d="M669.42,55.83a10.07,10.07,0,0,1-1,3s-.13.4-.32,1a3.28,3.28,0,0,1-1.68-1,3.1,3.1,0,0,0-2-1s-1,0,0,1,1,2,2,2a2.84,2.84,0,0,0,1.54-.62,25.58,25.58,0,0,1-1,2.67,7.27,7.27,0,0,1-2.5,1.95v5a4.94,4.94,0,0,1,1-3,3.1,3.1,0,0,0,1-2s2-2,2-3v-2l2-1v-5c0-2-2-5-2-5C668.42,50.83,669.42,54.83,669.42,55.83Z" transform="translate(-55.42 -44.83)"/><path class="cls-1" d="M676.42,60.83v-3l-1,4,2,2-1,2,1,2,2-4-2-2Z" transform="translate(-55.42 -44.83)"/><path class="cls-1" d="M688.42,51.83v-3s0-2-1-2h-1v1a22.69,22.69,0,0,0,1,4Z" transform="translate(-55.42 -44.83)"/><path class="cls-1" d="M691.42,47.83v-3c-.17.33-.33.69-.5,1.06-.81,1.85-1.5,3.94-1.5,3.94l.85,1.71c-1,.7-1.85,1.29-1.85,1.29l-1,3v7h-3l1,2,1,1s1-1,1,1-1,4,0,2a13.38,13.38,0,0,0,1-5v-9l1-2a3.49,3.49,0,0,1,2-1c1,0,1-2,1-2a19.38,19.38,0,0,1-1.88,1.51C690.73,50.6,691.42,47.83,691.42,47.83Z" transform="translate(-55.42 -44.83)"/><path class="cls-1" d="M700.42,55.83a14.39,14.39,0,0,0-2,3v3c0,1-1,2,0,2a1.1,1.1,0,0,1,.48.11l-1.48,1.89v1c-1-1-3-2-3-1v2l2.46,1.23,1.54-1.23,1-2v-1l2-2a22.69,22.69,0,0,1-1-4C700.42,57.83,701.42,54.83,700.42,55.83Z" transform="translate(-55.42 -44.83)"/><path class="cls-1" d="M698.42,54.83l1-1c1-1,0,0-1-2s0-2-1-2,0,2,1,4Z" transform="translate(-55.42 -44.83)"/><path class="cls-1" d="M728.42,58.83v-2l1-3a4.94,4.94,0,0,0-1-3l-3-3,1,4,.76,3.29-.76,2.71-.88-.47-3.12-5.53h-2l5,7,1.91,2,.09,5v3l2-1v-5l1.94-1.74,1.06-2.26.28-1.77-4.28,3.77Z" transform="translate(-55.42 -44.83)"/><path class="cls-1" d="M741.42,56.83c1,1,4,10,4,10l1,3,2-.82-1-3.18v-3l2-5v-2l-3,4Z" transform="translate(-55.42 -44.83)"/><path class="cls-1" d="M756.42,61.83l-3-11c0,1,1,6,1,6v9l2,4h1v-6l1-2s0-4,1-5,3-8,3-8l-5,11Z" transform="translate(-55.42 -44.83)"/><path class="cls-1" d="M777.42,57.83v-2l1-2,1-4-2,1-2,3-1,1-2-7c0,1-1,6-1,6l3.14,3-.14,4-1,4s-2,2-2,3a3.49,3.49,0,0,0,1,2,1,1,0,0,0,1-1,10.07,10.07,0,0,1,1-3l1-3s.68-2,.34-2a20.63,20.63,0,0,1,2.66-1l2-2-3,1Z" transform="translate(-55.42 -44.83)"/><path class="cls-1" d="M799.42,49.83l-3,3-3,1a22.69,22.69,0,0,0,1-4c0-1-3-1-3-1v7l-3.82-1c.69.36-.11,3,.82,3s4,2,4,2l1,9,1,1-.17-7.11,1.17-2.89v-4l4-1Z" transform="translate(-55.42 -44.83)"/><polygon class="cls-1" points="744 17 745.53 18.02 747 17 746 13 744 17"/><path class="cls-1" d="M810.42,59.83l-1-3s-1-3,0-3,1-2,1-2a1.39,1.39,0,0,1,0-2c1-1-1-3-1-3-1,2-2,9-2,9l2,4-1,3.15,0,1.85,1,2L808.73,69l3.69-.18-1-3-1-2,2-2Z" transform="translate(-55.42 -44.83)"/><path class="cls-1" d="M833.42,54.83c-1,1-2.17,1-2.58,2,0,0-.42,1-.42-1s1-2,1-3a10.07,10.07,0,0,1,1-3l1-3c-1,0-3,5-3,5l-1,5-1,3-.55-.37-2.45-1.63,1,1s4,2,3,3a3.1,3.1,0,0,0-1,2l1,2a1,1,0,0,0-1,1,3.49,3.49,0,0,0,1,2l2-3-1-3,.42-1.86.58-1.14,1.83-3s1.17-1,2.17-2S834.42,53.83,833.42,54.83Z" transform="translate(-55.42 -44.83)"/><path class="cls-1" d="M833.42,66.83c0,1,.41,2.33,1.2,2.16s.8-1.16.8-1.16l-1-3C834.42,65.83,833.42,65.83,833.42,66.83Z" transform="translate(-55.42 -44.83)"/><polygon class="cls-1" points="793 14 793 11 792 11 791 14 791 15 793.03 16.06 793 14"/><path class="cls-1" d="M848.17,66.48l-.75-2.65-.22.07-.78-2.07.54,2,0,.16-2.58.86c0,1-1,3,0,3h3l.42-.75.47,1.77,1.11,1-1.25-3.34Z" transform="translate(-55.42 -44.83)"/><path class="cls-1" d="M853.42,64.83c-1,0-2-2-2-2v1l-2,2s-1,1,0,1h3C853.42,66.83,854.42,64.83,853.42,64.83Z" transform="translate(-55.42 -44.83)"/><path class="cls-1" d="M870.42,53.83v3l3,1v-7C872.42,51.83,870.42,52.83,870.42,53.83Z" transform="translate(-55.42 -44.83)"/><path class="cls-1" d="M870.42,61.83v-4h-1v4l2,4,1,3v1a1,1,0,0,0,1-1c0-1,0-3-1-4S870.42,62.83,870.42,61.83Z" transform="translate(-55.42 -44.83)"/><path class="cls-1" d="M892.33,63l.09-4.18s-2-2-2-3a10.07,10.07,0,0,0-1-3v-2l-2-2c0,2-1,6,0,6s2,3,2,3a3.49,3.49,0,0,1,1,2v3a2,2,0,0,1,2,2,20.34,20.34,0,0,0,1,5,2.19,2.19,0,0,0,1-3C893.42,64.83,892.33,63,892.33,63Z" transform="translate(-55.42 -44.83)"/><path class="cls-1" d="M887.16,60.91a12.1,12.1,0,0,1-1.61-.32l-.13,2.24,2,2h3a4.94,4.94,0,0,0-1-3A3.17,3.17,0,0,0,887.16,60.91Z" transform="translate(-55.42 -44.83)"/><path class="cls-1" d="M904.42,55.83h-1s-3-1-3-2-2-1-2-2a43.79,43.79,0,0,1,.68-4.37c-.9,2.64-3.33,5.37-1.68,5.37,2,0,2,3,3,4s2,4,2,4v4s-2,1-2,2,2,1,2,1l2,1v-7l-1-4h3l4-5-4,1S905.42,55.83,904.42,55.83Z" transform="translate(-55.42 -44.83)"/><path class="cls-1" d="M899.1,47.46a5.17,5.17,0,0,0,.32-1.63S899.28,46.53,899.1,47.46Z" transform="translate(-55.42 -44.83)"/><path class="cls-1" d="M925.42,63.83l-.92-2.77c.16.08.18,0-.08-.23-1-1-1-6-1-7s-3-3-3-3v3c0,1,2,4,2,5,0,.69,1.46,1.88,2,2.19v2.81s-1,1-1,0-2.49-2.76-2.49-2.76l-.51,2.76,2,1,2,2v2l2,1v-4C926.42,63.83,925.42,63.83,925.42,63.83Z" transform="translate(-55.42 -44.83)"/><path class="cls-1" d="M917.54,68.83l2.88-1v-1a3.49,3.49,0,0,0-2-1C917.42,65.83,917.42,67.83,917.54,68.83Z" transform="translate(-55.42 -44.83)"/><path class="cls-1" d="M941.42,53.83c0,1-4,4-4,5s-1-2-1-3-1-8-1-8h-1l.73,6.78s-.73,4.22.27,5.22-1,2-1,2v4s3,2,3,2.84V66.83l-1-3v-2a3.49,3.49,0,0,1,1-2l3-2,3-5S941.42,52.83,941.42,53.83Z" transform="translate(-55.42 -44.83)"/><path class="cls-1" d="M950.42,65.83c-1,0-1-2-1-2l1-3a1,1,0,0,1-1-1c0-1-1-1,0-2s-.88-.84-.88-.84c-.12.84-2.12,3.84-1.12,4.84s2,2,1,3-1,3,0,3,1-.13,2,.93S951.42,65.83,950.42,65.83Z" transform="translate(-55.42 -44.83)"/><path class="cls-1" d="M952.42,61.83v3l-1,2,.28,1.79,1.72,1.21v-3a10.07,10.07,0,0,1,1-3s-1.7.09-.85-.95a2.59,2.59,0,0,1,1.85-1.05l.88-1.11-.88-1.89C955.42,59.83,952.42,61.83,952.42,61.83Z" transform="translate(-55.42 -44.83)"/><path class="cls-1" d="M968.42,55.83a10.07,10.07,0,0,1-1,3s-.13.4-.32,1a3.28,3.28,0,0,1-1.68-1,3.1,3.1,0,0,0-2-1s-1,0,0,1,1,2,2,2a2.84,2.84,0,0,0,1.54-.62,25.58,25.58,0,0,1-1,2.67,7.27,7.27,0,0,1-2.5,1.95v5a4.94,4.94,0,0,1,1-3,3.1,3.1,0,0,0,1-2s2-2,2-3v-2l2-1v-5c0-2-2-5-2-5C967.42,50.83,968.42,54.83,968.42,55.83Z" transform="translate(-55.42 -44.83)"/><path class="cls-1" d="M975.42,60.83v-3l-1,4,2,2-1,2,1,2,2-4-2-2Z" transform="translate(-55.42 -44.83)"/><path class="cls-1" d="M987.42,51.83v-3s0-2-1-2h-1v1a22.69,22.69,0,0,0,1,4Z" transform="translate(-55.42 -44.83)"/><path class="cls-1" d="M990.42,47.83v-3c-.17.33-.33.69-.5,1.06-.81,1.85-1.5,3.94-1.5,3.94l.85,1.71c-1,.7-1.85,1.29-1.85,1.29l-1,3v7h-3l1,2,1,1s1-1,1,1-1,4,0,2a13.38,13.38,0,0,0,1-5v-9l1-2a3.49,3.49,0,0,1,2-1c1,0,1-2,1-2a19.38,19.38,0,0,1-1.88,1.51C989.73,50.6,990.42,47.83,990.42,47.83Z" transform="translate(-55.42 -44.83)"/><path class="cls-1" d="M999.42,55.83a14.39,14.39,0,0,0-2,3v3c0,1-1,2,0,2a1.1,1.1,0,0,1,.48.11l-1.48,1.89v1c-1-1-3-2-3-1v2l2.46,1.23,1.54-1.23,1-2v-1l2-2a22.69,22.69,0,0,1-1-4C999.42,57.83,1000.42,54.83,999.42,55.83Z" transform="translate(-55.42 -44.83)"/><path class="cls-1" d="M997.42,54.83l1-1c1-1,0,0-1-2s0-2-1-2,0,2,1,4Z" transform="translate(-55.42 -44.83)"/><path class="cls-1" d="M1013.42,58.83v-2l1-3a4.94,4.94,0,0,0-1-3l-3-3,1,4,.76,3.29-.76,2.71-.88-.47-3.12-5.53h-2l5,7,1.91,2,.09,5v3l2-1v-5l1.94-1.74,1.06-2.26.28-1.77-4.28,3.77Z" transform="translate(-55.42 -44.83)"/><path class="cls-1" d="M1026.42,56.83c1,1,4,10,4,10l1,3,2-.82-1-3.18v-3l2-5v-2l-3,4Z" transform="translate(-55.42 -44.83)"/><path class="cls-1" d="M1041.42,61.83l-3-11c0,1,1,6,1,6v9l2,4h1v-6l1-2s0-4,1-5,3-8,3-8l-5,11Z" transform="translate(-55.42 -44.83)"/><path class="cls-1" d="M1062.42,57.83v-2l1-2,1-4-2,1-2,3-1,1-2-7c0,1-1,6-1,6l3.14,3-.14,4-1,4s-2,2-2,3a3.49,3.49,0,0,0,1,2,1,1,0,0,0,1-1,10.07,10.07,0,0,1,1-3l1-3s.68-2,.34-2a20.63,20.63,0,0,1,2.66-1l2-2-3,1Z" transform="translate(-55.42 -44.83)"/><path class="cls-1" d="M1084.42,49.83l-3,3-3,1a22.69,22.69,0,0,0,1-4c0-1-3-1-3-1v7l-3.82-1c.69.36-.11,3,.82,3s4,2,4,2l1,9,1,1-.17-7.11,1.17-2.89v-4l4-1Z" transform="translate(-55.42 -44.83)"/><polygon class="cls-1" points="1029 17 1030.53 18.02 1032 17 1031 13 1029 17"/><path class="cls-1" d="M1095.42,59.83l-1-3s-1-3,0-3,1-2,1-2a1.39,1.39,0,0,1,0-2c1-1-1-3-1-3-1,2-2,9-2,9l2,4-1,3.15,0,1.85,1,2-.69,2.18,3.69-.18-1-3-1-2,2-2Z" transform="translate(-55.42 -44.83)"/><path class="cls-1" d="M1118.42,54.83c-1,1-2.17,1-2.58,2,0,0-.42,1-.42-1s1-2,1-3a10.07,10.07,0,0,1,1-3l1-3c-1,0-3,5-3,5l-1,5-1,3-.55-.37-2.45-1.63,1,1s4,2,3,3a3.1,3.1,0,0,0-1,2l1,2a1,1,0,0,0-1,1,3.49,3.49,0,0,0,1,2l2-3-1-3,.42-1.86.58-1.14,1.83-3s1.17-1,2.17-2S1119.42,53.83,1118.42,54.83Z" transform="translate(-55.42 -44.83)"/><path class="cls-1" d="M1118.42,66.83c0,1,.41,2.33,1.2,2.16s.8-1.16.8-1.16l-1-3C1119.42,65.83,1118.42,65.83,1118.42,66.83Z" transform="translate(-55.42 -44.83)"/><polygon class="cls-1" points="1078 14 1078 11 1077 11 1076 14 1076 15 1078.03 16.06 1078 14"/><path class="cls-1" d="M1133.17,66.48l-.75-2.65-.22.07-.78-2.07.54,2,0,.16-2.58.86c0,1-1,3,0,3h3l.42-.75.47,1.77,1.11,1-1.25-3.34Z" transform="translate(-55.42 -44.83)"/><path class="cls-1" d="M1138.42,64.83c-1,0-2-2-2-2v1l-2,2s-1,1,0,1h3C1138.42,66.83,1139.42,64.83,1138.42,64.83Z" transform="translate(-55.42 -44.83)"/><path class="cls-1" d="M1155.42,53.83v3l3,1v-7C1157.42,51.83,1155.42,52.83,1155.42,53.83Z" transform="translate(-55.42 -44.83)"/><path class="cls-1" d="M1155.42,61.83v-4h-1v4l2,4,1,3v1a1,1,0,0,0,1-1c0-1,0-3-1-4S1155.42,62.83,1155.42,61.83Z" transform="translate(-55.42 -44.83)"/></svg>