<svg id="Episod_8" data-name="Episod 8" xmlns="http://www.w3.org/2000/svg" xmlns:xlink="http://www.w3.org/1999/xlink" width="5415.91" height="408.26" viewBox="0 0 5415.91 408.26"><defs><style>.cls-1{fill:#423a31;}.cls-2{fill:#877565;}.cls-3{fill:url(#linear-gradient);}.cls-4{fill:url(#linear-gradient-2);}.cls-5{fill:url(#linear-gradient-3);}.cls-6{fill:url(#linear-gradient-4);}.cls-7{fill:url(#linear-gradient-5);}.cls-8{fill:url(#linear-gradient-6);}.cls-9{fill:url(#linear-gradient-7);}.cls-10{fill:url(#linear-gradient-8);}.cls-11{fill:url(#linear-gradient-9);}.cls-12{fill:url(#linear-gradient-10);}.cls-13{fill:url(#linear-gradient-11);}.cls-14{fill:url(#linear-gradient-12);}.cls-15{fill:none;stroke:#473e35;stroke-miterlimit:10;}.cls-16{fill:url(#linear-gradient-13);}.cls-17{fill:#877465;}.cls-18{fill:url(#linear-gradient-14);}.cls-19{fill:url(#linear-gradient-15);}.cls-20{fill:#7a6b5c;}.cls-21{fill:#736557;}.cls-22{fill:url(#linear-gradient-16);}.cls-23{fill:#94806e;}.cls-24{fill:#8a7766;}.cls-25{fill:url(#linear-gradient-17);}.cls-26{fill:url(#linear-gradient-18);}.cls-27{fill:url(#linear-gradient-19);}.cls-28{fill:url(#linear-gradient-20);}.cls-29{fill:url(#linear-gradient-21);}.cls-30{fill:url(#linear-gradient-22);}.cls-31{fill:url(#linear-gradient-23);}.cls-32{fill:url(#linear-gradient-24);}.cls-33{fill:url(#linear-gradient-25);}.cls-34{fill:url(#linear-gradient-26);}.cls-35{fill:url(#linear-gradient-27);}.cls-36{fill:url(#linear-gradient-28);}.cls-37{fill:url(#linear-gradient-29);}.cls-38{fill:url(#linear-gradient-30);}.cls-39{fill:url(#linear-gradient-31);}.cls-40{fill:#a38d79;}</style><linearGradient id="linear-gradient" x1="1709.42" y1="383.19" x2="1709.42" y2="262.46" gradientUnits="userSpaceOnUse"><stop offset="0" stop-color="#594e41"/><stop offset="0.94" stop-color="#736557"/></linearGradient><linearGradient id="linear-gradient-2" x1="15.49" y1="916.2" x2="70.92" y2="916.2" gradientTransform="matrix(1, 0, -0.02, -1.22, 1422.87, 1164.67)" gradientUnits="userSpaceOnUse"><stop offset="0" stop-color="#927e6c"/><stop offset="0.08" stop-color="#5d5146"/><stop offset="0.29" stop-color="#7c6b5c"/><stop offset="0.71" stop-color="#4a4137"/><stop offset="1" stop-color="#927e6c"/></linearGradient><linearGradient id="linear-gradient-3" x1="1673.99" y1="140.92" x2="1673.99" y2="56.47" gradientUnits="userSpaceOnUse"><stop offset="0" stop-color="#52483d"/><stop offset="1" stop-color="#615549"/></linearGradient><linearGradient id="linear-gradient-4" x1="1442.02" y1="142.19" x2="1442.02" y2="100.94" xlink:href="#linear-gradient-3"/><linearGradient id="linear-gradient-5" x1="530.22" y1="249.81" x2="530.22" y2="208.56" gradientTransform="matrix(0.51, 0, 0, -1, -198.63, 458.37)" gradientUnits="userSpaceOnUse"><stop offset="0" stop-color="#453c33"/><stop offset="1" stop-color="#594e43"/></linearGradient><linearGradient id="linear-gradient-6" x1="540.66" y1="249.81" x2="540.66" y2="208.56" gradientTransform="matrix(0.5, 0, 0, -1, -262.55, 458.37)" gradientUnits="userSpaceOnUse"><stop offset="0" stop-color="#5e5346"/><stop offset="1" stop-color="#706254"/></linearGradient><linearGradient id="linear-gradient-7" x1="1413.29" y1="98.09" x2="1470.26" y2="98.09" gradientTransform="matrix(1, 0, 0, 1, 0, 0)" xlink:href="#linear-gradient-2"/><linearGradient id="linear-gradient-8" x1="4549.08" y1="490.81" x2="4549.08" y2="395.37" gradientTransform="matrix(0.04, 0, 0, -1, -215.81, 886.18)" gradientUnits="userSpaceOnUse"><stop offset="0" stop-color="#594e42"/><stop offset="1" stop-color="#63574b"/></linearGradient><linearGradient id="linear-gradient-9" x1="-1530.62" y1="476.25" x2="-1530.62" y2="404.65" gradientTransform="translate(1458.33 -107.62) scale(0.08 1)" gradientUnits="userSpaceOnUse"><stop offset="0" stop-color="#63574a"/><stop offset="1" stop-color="#706254"/></linearGradient><linearGradient id="linear-gradient-10" x1="17744.1" y1="476.25" x2="17744.1" y2="404.65" xlink:href="#linear-gradient-9"/><linearGradient id="linear-gradient-11" x1="712.61" y1="397.32" x2="712.61" y2="194.36" gradientTransform="translate(1425.22 591.69) rotate(-180)" gradientUnits="userSpaceOnUse"><stop offset="0" stop-color="#594e41"/><stop offset="0.89" stop-color="#706255"/><stop offset="0.91" stop-color="#50463c"/><stop offset="0.96" stop-color="#7a6b5c"/><stop offset="1" stop-color="#c4ab93"/></linearGradient><linearGradient id="linear-gradient-12" x1="2127.34" y1="383.19" x2="2127.34" y2="288.7" xlink:href="#linear-gradient"/><linearGradient id="linear-gradient-13" x1="2556.46" y1="383.19" x2="2556.46" y2="100.67" xlink:href="#linear-gradient"/><linearGradient id="linear-gradient-14" x1="2203.62" y1="138.94" x2="2203.62" y2="85.03" gradientUnits="userSpaceOnUse"><stop offset="0.43" stop-color="#756758"/><stop offset="1" stop-color="#c7ab94"/></linearGradient><linearGradient id="linear-gradient-15" x1="84.49" y1="144.77" x2="84.49" y2="129.07" gradientUnits="userSpaceOnUse"><stop offset="0" stop-color="#695a4e"/><stop offset="0.53" stop-color="#5a4f43"/><stop offset="1" stop-color="#c7ab94"/></linearGradient><linearGradient id="linear-gradient-16" x1="880.38" y1="144.77" x2="880.38" y2="129.07" xlink:href="#linear-gradient-15"/><linearGradient id="linear-gradient-17" x1="-16372.99" y1="476.25" x2="-16372.99" y2="404.65" xlink:href="#linear-gradient-9"/><linearGradient id="linear-gradient-18" x1="-2196.91" y1="476.25" x2="-2196.91" y2="404.65" xlink:href="#linear-gradient-9"/><linearGradient id="linear-gradient-19" x1="687.63" y1="368.63" x2="687.63" y2="297.03" xlink:href="#linear-gradient"/><linearGradient id="linear-gradient-20" x1="4197.47" y1="144.77" x2="4197.47" y2="129.07" xlink:href="#linear-gradient-15"/><linearGradient id="linear-gradient-21" x1="4993.36" y1="144.77" x2="4993.36" y2="129.07" xlink:href="#linear-gradient-15"/><linearGradient id="linear-gradient-22" x1="33177.83" y1="476.25" x2="33177.83" y2="404.65" xlink:href="#linear-gradient-9"/><linearGradient id="linear-gradient-23" x1="47353.91" y1="476.25" x2="47353.91" y2="404.65" xlink:href="#linear-gradient-9"/><linearGradient id="linear-gradient-24" x1="4800.61" y1="368.63" x2="4800.61" y2="297.03" xlink:href="#linear-gradient"/><linearGradient id="linear-gradient-25" x1="2518.21" y1="334.67" x2="2518.21" y2="261.57" gradientTransform="matrix(0.93, -0.36, 0.36, 0.93, 1481.72, 863.19)" gradientUnits="userSpaceOnUse"><stop offset="0" stop-color="#695c4d"/><stop offset="0.95" stop-color="#7a6b5c"/><stop offset="0.96" stop-color="#473e35"/><stop offset="0.96" stop-color="#7a6b5c"/><stop offset="1" stop-color="#c4ab93"/></linearGradient><linearGradient id="linear-gradient-26" x1="2643.04" y1="229.8" x2="2631.95" y2="210.88" gradientTransform="matrix(0.93, -0.36, 0.36, 0.93, 1481.72, 863.19)" gradientUnits="userSpaceOnUse"><stop offset="0.03" stop-color="#695a4e"/><stop offset="0.53" stop-color="#5a4f43"/><stop offset="1" stop-color="#c7ab94"/></linearGradient><linearGradient id="linear-gradient-27" x1="837.73" y1="361.94" x2="837.73" y2="288.85" gradientTransform="matrix(-1, 0, 0, 1, 4050.57, -107.62)" xlink:href="#linear-gradient-25"/><linearGradient id="linear-gradient-28" x1="962.56" y1="257.07" x2="951.47" y2="238.16" gradientTransform="matrix(-1, 0, 0, 1, 4050.57, -107.62)" xlink:href="#linear-gradient-26"/><linearGradient id="linear-gradient-29" x1="18358.6" y1="476.05" x2="18358.6" y2="404.45" xlink:href="#linear-gradient-9"/><linearGradient id="linear-gradient-30" x1="32534.68" y1="476.05" x2="32534.68" y2="404.45" xlink:href="#linear-gradient-9"/><linearGradient id="linear-gradient-31" x1="3570.54" y1="383.19" x2="3570.54" y2="125.39" gradientUnits="userSpaceOnUse"><stop offset="0" stop-color="#594e41"/><stop offset="0.95" stop-color="#706255"/><stop offset="0.96" stop-color="#473e35"/><stop offset="0.96" stop-color="#7a6b5c"/><stop offset="1" stop-color="#c4ab93"/></linearGradient></defs><g id="Loco_copy" data-name="Loco copy"><circle class="cls-1" cx="1573.86" cy="350.05" r="57.45"/><circle class="cls-1" cx="1695.88" cy="350.05" r="57.45"/><circle class="cls-1" cx="1820.27" cy="350.05" r="57.45"/><circle class="cls-1" cx="1941.34" cy="350.05" r="57.45"/><circle class="cls-1" cx="2335.36" cy="350.05" r="57.45"/><circle class="cls-1" cx="2481.2" cy="350.05" r="57.45"/><circle class="cls-1" cx="2678.21" cy="350.05" r="57.45"/><circle class="cls-1" cx="2821.49" cy="350.05" r="57.45"/><rect class="cls-2" x="1384.75" y="140.95" width="649.34" height="121.51"/><rect class="cls-3" x="1384.75" y="262.46" width="649.34" height="120.74"/><polygon class="cls-4" points="1470.53 0 1415.09 0 1425.29 95.24 1462.06 95.24 1470.53 0"/><polygon class="cls-5" points="1535.74 58.2 1535.74 140.92 1812.24 140.92 1812.24 88.86 1759.03 56.47 1535.74 58.2"/><rect class="cls-6" x="1419.71" y="100.94" width="44.64" height="41.24"/><rect class="cls-7" x="62.84" y="208.56" width="22.98" height="41.24" transform="translate(1550.16 350.75) rotate(180)"/><rect class="cls-8" x="-4.06" y="208.56" width="22.26" height="41.24" transform="translate(1415.64 350.75) rotate(180)"/><rect class="cls-9" x="1413.29" y="95.19" width="56.97" height="5.79"/><rect class="cls-10" x="-43.28" y="395.37" width="26.52" height="95.44" transform="translate(1341.47 778.56) rotate(180)"/><rect class="cls-11" x="1304.33" y="297.03" width="53.9" height="71.6"/><rect class="cls-12" x="2904.23" y="297.03" width="53.9" height="71.6"/><rect class="cls-13" x="632.58" y="194.36" width="160.07" height="202.96" transform="translate(2826.73 484.07) rotate(180)"/><polygon class="cls-14" points="2220.59 308.62 2198.4 308.62 2198.4 288.7 2034.09 288.7 2034.09 383.19 2198.4 383.19 2198.4 341.42 2220.59 341.42 2220.59 308.62"/><rect class="cls-15" x="2111.49" y="136.28" width="34.16" height="50.1"/><rect class="cls-15" x="1574.98" y="207.29" width="39.8" height="27.36"/><rect class="cls-15" x="1442.9" y="299.29" width="39.8" height="20.04"/><rect class="cls-15" x="1532.16" y="300.2" width="27.96" height="50.1"/><line class="cls-15" x1="2034.09" y1="262.46" x2="1384.75" y2="262.46"/><line class="cls-15" x1="1553.75" y1="142.19" x2="1553.75" y2="262.46"/><line class="cls-15" x1="1776.91" y1="142.19" x2="1776.91" y2="262.46"/><line class="cls-15" x1="1520.96" y1="262.46" x2="1520.96" y2="383.19"/><line class="cls-15" x1="1762.82" y1="262.46" x2="1762.82" y2="379.45"/><line class="cls-15" x1="2034.09" y1="140.95" x2="2034.09" y2="383.19"/><line class="cls-15" x1="2034.09" y1="289.7" x2="2195.09" y2="289.7"/><polygon class="cls-16" points="2420.9 158.69 2420.9 100.67 2208.68 100.67 2208.68 383.19 2420.9 383.19 2904.23 383.19 2904.23 158.69 2420.9 158.69"/><line class="cls-15" x1="2310.32" y1="100.67" x2="2310.32" y2="383.19"/><line class="cls-15" x1="2208.68" y1="132.43" x2="2420.9" y2="132.43"/><line class="cls-15" x1="2420.9" y1="158.69" x2="2208.68" y2="158.69"/><line class="cls-15" x1="2904.23" y1="219.45" x2="2310.32" y2="219.45"/><line class="cls-15" x1="2904.23" y1="307.97" x2="2208.68" y2="307.97"/><rect class="cls-15" x="2233.67" y="190.09" width="54.15" height="107.38"/><rect class="cls-15" x="2328.47" y="341.63" width="39.58" height="29.07"/><rect class="cls-15" x="2457.23" y="341.63" width="39.58" height="29.07"/><rect class="cls-15" x="2666.53" y="341.63" width="39.58" height="29.07"/><rect class="cls-15" x="2797.82" y="341.63" width="39.58" height="29.07"/><rect class="cls-17" x="2420.9" y="107.53" width="353.16" height="51.17"/><line class="cls-15" x1="2420.9" y1="126.9" x2="2774.05" y2="126.9"/><line class="cls-15" x1="2420.9" y1="146.3" x2="2774.05" y2="146.3"/><path class="cls-18" d="M2184.23,85H2223a0,0,0,0,1,0,0v37a16.92,16.92,0,0,1-16.92,16.92h-21.85a0,0,0,0,1,0,0V85A0,0,0,0,1,2184.23,85Z"/></g><g id="FrontCart_copy" data-name="FrontCart copy"><path class="cls-1" d="M-236.15,424.56a45.65,45.65,0,0,0-45.52,42.24H-350a45.65,45.65,0,0,0-45.52-42.24,45.67,45.67,0,0,0-45.67,45.66,45.67,45.67,0,0,0,45.67,45.66,45.66,45.66,0,0,0,41.12-25.79l13.83,9.22h53.4l11.45-6.39a45.61,45.61,0,0,0,39.61,23,45.66,45.66,0,0,0,45.66-45.66A45.66,45.66,0,0,0-236.15,424.56Z" transform="translate(1401.51 -107.62)"/><path class="cls-1" d="M-1027.45,424.56A45.65,45.65,0,0,0-1073,466.8h-68.37a45.65,45.65,0,0,0-45.52-42.24,45.66,45.66,0,0,0-45.66,45.66,45.66,45.66,0,0,0,45.66,45.66,45.66,45.66,0,0,0,41.12-25.79l13.83,9.22h53.4l11.45-6.39a45.61,45.61,0,0,0,39.61,23,45.66,45.66,0,0,0,45.66-45.66A45.66,45.66,0,0,0-1027.45,424.56Z" transform="translate(1401.51 -107.62)"/><g id="Turret"><polygon class="cls-1" points="373.01 184.53 209.26 184.53 209.26 157.85 359.23 157.85 373.01 184.53"/><polygon class="cls-19" points="0 129.07 0 141.63 159.04 144.77 168.98 129.07 0 129.07"/><polygon class="cls-20" points="168.98 125.94 155.38 148.43 155.38 162.03 196.18 162.03 198.8 125.94 168.98 125.94"/><polygon class="cls-21" points="373.01 110.24 215.01 113.38 203.92 120.18 198.8 125.94 192.52 136.92 192.52 148.43 196.18 162.03 203.92 169.88 209.26 173.54 212.4 173.54 282.76 173.54 282.76 164.13 405.82 164.13 373.01 110.24"/></g><g id="Turret-2" data-name="Turret"><polygon class="cls-1" points="1168.9 184.53 1005.15 184.53 1005.15 157.85 1155.12 157.85 1168.9 184.53"/><polygon class="cls-22" points="795.89 129.07 795.89 141.63 954.93 144.77 964.87 129.07 795.89 129.07"/><polygon class="cls-20" points="964.87 125.94 951.27 148.43 951.27 162.03 992.07 162.03 994.69 125.94 964.87 125.94"/><polygon class="cls-21" points="1168.9 110.24 1010.9 113.38 999.81 120.18 994.69 125.94 988.41 136.92 988.41 148.43 992.07 162.03 999.81 169.88 1005.15 173.54 1008.29 173.54 1078.65 173.54 1078.65 164.13 1201.71 164.13 1168.9 110.24"/></g><polygon class="cls-23" points="687.63 168.76 632.22 168.76 656.04 109.58 687.63 109.58 687.63 168.76"/><polyline class="cls-24" points="717.38 109.58 687.63 109.58 687.63 168.76 739.82 168.76"/><rect class="cls-25" x="72.33" y="297.03" width="53.9" height="71.6"/><rect class="cls-26" x="1249.02" y="297.03" width="53.9" height="71.6"/><rect class="cls-27" x="126.23" y="297.03" width="1122.79" height="71.6"/><polygon class="cls-2" points="1223.54 176.37 959.45 176.37 951.95 167 426.56 167 419.19 176.37 155.87 176.37 126.23 297.03 1249.02 297.03 1223.54 176.37"/><line class="cls-15" x1="438.1" y1="167" x2="438.1" y2="368.63"/><line class="cls-15" x1="939.5" y1="167" x2="939.5" y2="368.63"/><rect class="cls-15" x="344.32" y="327.96" width="42.79" height="27.76"/><rect class="cls-15" x="203.92" y="327.96" width="42.79" height="27.76"/><rect class="cls-15" x="991.34" y="327.96" width="42.79" height="27.76"/><rect class="cls-15" x="1134.62" y="327.96" width="42.79" height="27.76"/><rect class="cls-1" x="795.89" y="199.4" width="20.28" height="4.06"/><rect class="cls-1" x="557.61" y="199.4" width="20.28" height="4.06"/><rect class="cls-1" x="659.92" y="119.44" width="17.81" height="4.06"/><rect class="cls-1" x="695.92" y="119.44" width="17.81" height="4.06"/><path class="cls-1" d="M3876.83,424.56a45.65,45.65,0,0,0-45.52,42.24h-68.37a45.61,45.61,0,1,0-4.4,23.29l13.83,9.22h53.4l11.45-6.39a45.66,45.66,0,1,0,39.61-68.36Z" transform="translate(1401.51 -107.62)"/><path class="cls-1" d="M3085.53,424.56A45.65,45.65,0,0,0,3040,466.8h-68.37a45.61,45.61,0,1,0-4.4,23.29l13.83,9.22h53.4l11.45-6.39a45.66,45.66,0,1,0,39.61-68.36Z" transform="translate(1401.51 -107.62)"/><g id="Turret-3" data-name="Turret"><polygon class="cls-1" points="4485.99 184.53 4322.24 184.53 4322.24 157.85 4472.21 157.85 4485.99 184.53"/><polygon class="cls-28" points="4112.98 129.07 4112.98 141.63 4272.02 144.77 4281.97 129.07 4112.98 129.07"/><polygon class="cls-20" points="4281.97 125.94 4268.36 148.43 4268.36 162.03 4309.16 162.03 4311.78 125.94 4281.97 125.94"/><polygon class="cls-21" points="4485.99 110.24 4328 113.38 4316.91 120.18 4311.78 125.94 4305.5 136.92 4305.5 148.43 4309.16 162.03 4316.91 169.88 4322.24 173.54 4325.38 173.54 4395.75 173.54 4395.75 164.13 4518.8 164.13 4485.99 110.24"/></g><g id="Turret-4" data-name="Turret"><polygon class="cls-1" points="5281.88 184.53 5118.13 184.53 5118.13 157.85 5268.1 157.85 5281.88 184.53"/><polygon class="cls-29" points="4908.87 129.07 4908.87 141.63 5067.91 144.77 5077.86 129.07 4908.87 129.07"/><polygon class="cls-20" points="5077.86 125.94 5064.25 148.43 5064.25 162.03 5105.06 162.03 5107.67 125.94 5077.86 125.94"/><polygon class="cls-21" points="5281.88 110.24 5123.89 113.38 5112.8 120.18 5107.67 125.94 5101.39 136.92 5101.39 148.43 5105.06 162.03 5112.8 169.88 5118.13 173.54 5121.27 173.54 5191.64 173.54 5191.64 164.13 5314.69 164.13 5281.88 110.24"/></g><polygon class="cls-23" points="4800.61 168.76 4745.2 168.76 4769.03 109.58 4800.61 109.58 4800.61 168.76"/><polyline class="cls-24" points="4830.36 109.58 4800.61 109.58 4800.61 168.76 4852.8 168.76"/><rect class="cls-30" x="4185.32" y="297.03" width="53.9" height="71.6"/><rect class="cls-31" x="5362.01" y="297.03" width="53.9" height="71.6"/><rect class="cls-32" x="4239.21" y="297.03" width="1122.79" height="71.6"/><polygon class="cls-2" points="5336.53 176.37 5072.43 176.37 5064.94 167 4539.55 167 4532.17 176.37 4268.85 176.37 4239.22 297.03 5362.01 297.03 5336.53 176.37"/><line class="cls-15" x1="4551.08" y1="167" x2="4551.08" y2="368.63"/><line class="cls-15" x1="5052.49" y1="167" x2="5052.49" y2="368.63"/><rect class="cls-15" x="4457.3" y="327.96" width="42.79" height="27.76"/><rect class="cls-15" x="4316.91" y="327.96" width="42.79" height="27.76"/><rect class="cls-15" x="5104.32" y="327.96" width="42.79" height="27.76"/><rect class="cls-15" x="5247.61" y="327.96" width="42.79" height="27.76"/><rect class="cls-1" x="4908.87" y="199.4" width="20.28" height="4.06"/><rect class="cls-1" x="4670.59" y="199.4" width="20.28" height="4.06"/><rect class="cls-1" x="4772.91" y="119.44" width="17.81" height="4.06"/><rect class="cls-1" x="4808.9" y="119.44" width="17.81" height="4.06"/></g><g id="backCart_copy" data-name="backCart copy"><polygon class="cls-33" points="3881.77 232.77 3916.88 203.35 3925.86 211.73 3948.49 179.57 3985.56 205.04 3914.46 271.36 3881.77 232.77"/><polygon class="cls-34" points="3947.54 185.66 4063.54 37.08 4073.07 17.66 4084.03 26.22 4068.59 42.72 3995.22 147.03 4000.75 152.01 3967.52 197.82 3947.54 185.66"/><polygon class="cls-35" points="3266.22 206.48 3222.81 191.86 3217.49 202.94 3184.71 181.23 3159.46 218.44 3249.83 254.32 3266.22 206.48"/><polygon class="cls-36" points="3187.81 186.55 3025.68 90.42 3009.73 75.8 3002.64 87.76 3023.02 97.5 3129.34 167.94 3126.01 174.59 3173.64 205.15 3187.81 186.55"/><path class="cls-1" d="M2646.76,424.36a45.66,45.66,0,0,0-45.53,42.25h-68.36a45.61,45.61,0,1,0-4.4,23.28l13.82,9.22h53.41l11.44-6.39a45.66,45.66,0,1,0,39.62-68.36Z" transform="translate(1401.51 -107.62)"/><path class="cls-1" d="M1855.46,424.36a45.64,45.64,0,0,0-45.52,42.25h-68.37a45.61,45.61,0,1,0-4.4,23.28l13.83,9.22h53.4l11.44-6.39a45.66,45.66,0,1,0,39.62-68.36Z" transform="translate(1401.51 -107.62)"/><rect class="cls-37" x="2955.24" y="296.83" width="53.9" height="71.6"/><rect class="cls-38" x="4131.93" y="296.83" width="53.9" height="71.6"/><polygon class="cls-39" points="3749.4 198.65 3749.4 125.39 3391.67 125.39 3391.67 198.65 3009.14 198.65 3009.14 296.83 3009.14 383.19 4131.93 383.19 4131.93 296.83 4131.93 198.65 3749.4 198.65"/><line class="cls-15" x1="3391.67" y1="198.65" x2="3749.4" y2="198.65"/><line class="cls-15" x1="3399.89" y1="198.65" x2="3399.89" y2="383.19"/><line class="cls-15" x1="3741.72" y1="198.65" x2="3741.72" y2="383.19"/><rect class="cls-15" x="3078.78" y="342.11" width="41.43" height="28.11"/><rect class="cls-15" x="3232.18" y="342.11" width="41.43" height="28.11"/><rect class="cls-15" x="3871.15" y="342.11" width="41.43" height="28.11"/><rect class="cls-15" x="3467.27" y="184.59" width="32.44" height="28.11"/><rect class="cls-15" x="3649.31" y="184.59" width="32.44" height="28.11"/><rect class="cls-15" x="4024.54" y="342.11" width="41.43" height="28.11"/><path class="cls-40" d="M997.37,368.87a14.72,14.72,0,0,0,3.59-4.33,18.39,18.39,0,0,0,2.44-5.17v-24h7.35v57.81h-7.35V361.52a20.65,20.65,0,0,1-2.31,4.64,13.73,13.73,0,0,1-3.72,4.06v22.93h-7.6V335.34h7.6Z" transform="translate(1401.51 -107.62)"/><path class="cls-40" d="M1041.47,393.15h-7.18v-32.7a9.88,9.88,0,0,1-2.4,3,22.09,22.09,0,0,1-3.38,2.06v27.67h-7.35V365.57l.83.16a15.16,15.16,0,0,0,7.2-1.77,11.88,11.88,0,0,0,5.1-5.25V336h-5.78v15.36h-7.35v-16h20.31Z" transform="translate(1401.51 -107.62)"/><path class="cls-40" d="M1072.53,367.88v25.27h-20.32V335.34h7.35v28.33a6.71,6.71,0,0,0,3.59,3.38,13.45,13.45,0,0,0,5.91,1.33,11,11,0,0,0,1.82-.21Zm-6.69.67a10.16,10.16,0,0,1-3.84-1.32,6.26,6.26,0,0,1-2.44-2.16v27.42h6.28Z" transform="translate(1401.51 -107.62)"/><path class="cls-40" d="M1104.41,335.34l-.17.33a32.46,32.46,0,0,0,3.14,13.15q2.89,6.54,5.87,13.07a57,57,0,0,1,3.22,19.27v4.14a40.29,40.29,0,0,1-.25,4.63,27.87,27.87,0,0,0-.25,3.22h-7.35q0-2.72.25-6.77c.16-2.7.25-4.51.25-5.45a53.35,53.35,0,0,0-.83-9.83,91.1,91.1,0,0,0-3.06-11.15,4.58,4.58,0,0,0-1.81,2.11,13.33,13.33,0,0,0-.33,3.59v27.5h-8v-27.5a5.9,5.9,0,0,0-1-3.39,5.51,5.51,0,0,0-2.8-2.14,20,20,0,0,0-1.41,5.36,49.84,49.84,0,0,0-.49,7.19q0,4.05.45,9.37t1,11.11h-6.84c-.11-.88-.28-2.32-.5-4.34a43.08,43.08,0,0,1-.34-4.34v-.66q0-12.24,8.25-27.55a61.32,61.32,0,0,0,4.74-10.75,48.89,48.89,0,0,0,2-10.17Zm.49,24a49.87,49.87,0,0,1-3.75-7.64,91.84,91.84,0,0,1-3.1-9.21,37.38,37.38,0,0,1-2.73,8.76q-2.55,5.21-3.71,7.76a10.28,10.28,0,0,1,3.22,2.23,5.23,5.23,0,0,1,1.57,3.64,1.42,1.42,0,0,0,.78,1.48,4.33,4.33,0,0,0,1.7.33l.74.17a1.79,1.79,0,0,0,1.32-.5,1.58,1.58,0,0,0,.5-1.15A6,6,0,0,1,1104.9,359.37Z" transform="translate(1401.51 -107.62)"/><path class="cls-40" d="M1180.31,365.24a11.31,11.31,0,0,0,3.59-2.48,12.51,12.51,0,0,0,2.6-4.54V335.34h8v57.81h-8v-32.7a7.27,7.27,0,0,1-1.65,2.8,12.79,12.79,0,0,1-4.54,3.06v26.84H1173V361.36a8.67,8.67,0,0,1-2.48,2.69,15.28,15.28,0,0,1-3.63,1.86v27.24h-8.18V365.57a6.83,6.83,0,0,1,1.16.16,7.18,7.18,0,0,0,1.32.17,15,15,0,0,0,6.85-1.57,10.29,10.29,0,0,0,5-5V336h-6.77l-.17,16h-7.35V335.34h21.64Z" transform="translate(1401.51 -107.62)"/><path class="cls-40" d="M1225.9,335.17a7.78,7.78,0,0,0-1.73,2.56,6.91,6.91,0,0,0-.58,2.65v6.27a4.26,4.26,0,0,0-.79-2.52,2.6,2.6,0,0,0-2.27-1.11,1.2,1.2,0,0,0-1.15.58,7.08,7.08,0,0,0-.62,1.94q-.3,1.36-1.28,19.61-.59,11.07-.58,12.89a5.91,5.91,0,0,1,1.57-2.31,3.19,3.19,0,0,1,2.15-1,5.43,5.43,0,0,1,5.08,2.61,14.94,14.94,0,0,1,1.52,7.42,11.73,11.73,0,0,1-1.17,5.06c-1.06,2.22-2.52,3.32-4.36,3.32a10.31,10.31,0,0,1-3.48-.41,5.27,5.27,0,0,1-2.14-1.9,4.13,4.13,0,0,1-3.66,2.31H1212a5.15,5.15,0,0,1-3.91-1.74q-2.2-2.4-2.21-7.3,0-4.56,1.61-7a4.73,4.73,0,0,1,4-2.4,5.7,5.7,0,0,1,2.27.33c.47.22,1.17,1.15,2.11,2.8l.16-7h-7l-3.8-35.68h7.23l3.31,35h.28q0-7.76.42-14.29t1.43-16.43a7.84,7.84,0,0,1,1-3,2.37,2.37,0,0,1,2.06-1.28Zm-17.84,48.44v.83a19.08,19.08,0,0,0,.41,4.24q.83,3.48,2.9,3.48a6.54,6.54,0,0,0,2.84-.47,4.9,4.9,0,0,0,1.86-1.92,6,6,0,0,0,2,2,7.56,7.56,0,0,0,3,.42c.78,0,1.49-.79,2.11-2.36a14.29,14.29,0,0,0,.92-5.19v-1.33a16.23,16.23,0,0,0-.49-4.48c-.55-1.83-1.49-2.74-2.81-2.74a4.1,4.1,0,0,0-2.6,1.32,3.36,3.36,0,0,0-1.28,2.15v2.89a3.65,3.65,0,0,0,1.57,2.06c1,.5,1.68.86,2.06,1.08v1.15H1212v-1.15a3.24,3.24,0,0,0,2.31-1.08,7.92,7.92,0,0,0,1.4-2.06v-2.89a3.24,3.24,0,0,0-1.2-2.36,3.64,3.64,0,0,0-2.51-1.11,3.08,3.08,0,0,0-3.18,2.2A15.8,15.8,0,0,0,1208.06,383.61Z" transform="translate(1401.51 -107.62)"/><path class="cls-40" d="M1258,360.57l-3.31-.33a14.21,14.21,0,0,0-6.07,1.28A6.48,6.48,0,0,0,1245,365v28.2h-7.35V335.34H1258Zm-6.69-.54V336H1245v27.5a8.71,8.71,0,0,1,6.28-3.47Z" transform="translate(1401.51 -107.62)"/><path class="cls-40" d="M1281.65,335.34l-.33,2.15a7.66,7.66,0,0,0,.33,2.19c.22.75.39,1.31.5,1.7q2.14,7.28,4.42,15.22a53.32,53.32,0,0,1,2.27,14.48v1.58a23.57,23.57,0,0,1-3.06,12.41,21.31,21.31,0,0,1-9.75,8.1l.34-2a6.73,6.73,0,0,0-.13-1.16c-.08-.44-.18-1-.29-1.57q-1-3.56-5.53-17.46a38.41,38.41,0,0,1-1.9-12.08,37.55,37.55,0,0,1,2.81-14.07Q1275.13,335.34,1281.65,335.34Zm-.66,53.87a18.05,18.05,0,0,0,3.68-4.55,9.43,9.43,0,0,0,.86-4.06v-2.32q-1.93-9.6-5.49-22.59-1.53-5.55-4.66-16.22a22.69,22.69,0,0,0-3,5,11.63,11.63,0,0,0-.85,4.42v.5a38.5,38.5,0,0,0,1.36,8.32q1.37,5.5,2.77,10.88.66,2.4,2.4,7.45Q1281,384.57,1281,389.21Z" transform="translate(1401.51 -107.62)"/><path class="cls-40" d="M1320.39,365.24a11.42,11.42,0,0,0,3.59-2.48,12.51,12.51,0,0,0,2.6-4.54V335.34h8v57.81h-8v-32.7a7.27,7.27,0,0,1-1.65,2.8,12.88,12.88,0,0,1-4.54,3.06v26.84H1313V361.36a8.8,8.8,0,0,1-2.48,2.69,15.36,15.36,0,0,1-3.64,1.86v27.24h-8.17V365.57a6.75,6.75,0,0,1,1.15.16,7.27,7.27,0,0,0,1.33.17,15.06,15.06,0,0,0,6.85-1.57,10.29,10.29,0,0,0,5-5V336h-6.78l-.16,16h-7.35V335.34h21.64Z" transform="translate(1401.51 -107.62)"/><path class="cls-40" d="M1352.35,391.83a3.39,3.39,0,0,0,2.31-2,7,7,0,0,0,.83-3q0-3.72-3.26-12.94a50.28,50.28,0,0,1-3.27-16.59q0-10,2-15.47,2.31-6.45,7-6.45,5.12,0,7.6,3.63,2.88,4.21,2.89,14.21H1361v-3.47a45.3,45.3,0,0,0-.83-10.28q-.82-3.27-2.22-3.27c-1.15,0-2,1-2.44,3.14a38.65,38.65,0,0,0-.7,8.18v10.41l.49.82a6.41,6.41,0,0,1,1.64-2.06,4.39,4.39,0,0,1,2.93-1.32h.33a6.39,6.39,0,0,1,4.89,2.23c2,2.25,3,5.92,3,11H1361a53.1,53.1,0,0,0-.33-7.43q-.66-3.56-2.72-3.55c-1.12,0-1.84.74-2.16,2.23a24.55,24.55,0,0,0-.49,5.13v2a96.54,96.54,0,0,0,.75,9.85q.73,6.63.74,9a7.31,7.31,0,0,1-1.46,4.76,4.69,4.69,0,0,1-3,1.94l.84.17a6.5,6.5,0,0,0,3.37-1q2.7-1.49,3.79-9.37A81,81,0,0,0,1361,371h6.78a27.9,27.9,0,0,1-4.22,15q-4.45,7.14-10.57,7.13a9.41,9.41,0,0,1-5-1.23,4.67,4.67,0,0,1-2.31-4.13,3.6,3.6,0,0,1,1.12-2.73,4,4,0,0,1,5.53,0,3.5,3.5,0,0,1,1.36,2.85C1353.67,389.88,1353.23,391.17,1352.35,391.83Z" transform="translate(1401.51 -107.62)"/><path class="cls-40" d="M1381.17,392.49h6V335.34h7.36v57.15h3.79v8.76c-.88.39-1.68.77-2.39,1.15a12.07,12.07,0,0,0-2.48,1.8,39.87,39.87,0,0,0-3.3-3,7.19,7.19,0,0,0-4.13-1.89,1.53,1.53,0,0,0-1.45.9,5.39,5.39,0,0,0-.45,2.39v1.64h-6.53l-.16-1q0-6.81,4.54-6.81h.17a10.43,10.43,0,0,1,5,1.84q.33.16,4.46,3.11v-8.18h-17.84V335.34h7.35Z" transform="translate(1401.51 -107.62)"/></g></svg>