<svg id="Layer_1" data-name="Layer 1" xmlns="http://www.w3.org/2000/svg" viewBox="0 0 101.19 40.1"><defs><style>.cls-1{fill:#e5231b;}</style></defs><polygon class="cls-1" points="10.74 0 0 0 0 40.1 25.95 40.1 25.95 31.09 10.74 31.09 10.74 0"/><rect class="cls-1" x="29.97" width="10.79" height="40.1"/><polygon class="cls-1" points="45.77 40.1 56.51 40.1 56.51 24.27 68.44 24.27 68.44 15.26 56.51 15.26 56.51 9.01 71.68 9.01 71.68 0 45.77 0 45.77 40.1"/><polygon class="cls-1" points="85.74 31.09 85.74 24.27 98 24.27 98 15.26 85.74 15.26 85.74 8.96 101.19 8.96 101.19 0 75.05 0 75.05 40.1 101.19 40.1 101.19 31.09 85.74 31.09"/></svg>