<svg id="Layer_1" data-name="Layer 1" xmlns="http://www.w3.org/2000/svg" xmlns:xlink="http://www.w3.org/1999/xlink" width="1423.16" height="340.53" viewBox="0 0 1423.16 340.53"><defs><style>.cls-1{fill:url(#linear-gradient);}.cls-2{fill:url(#linear-gradient-2);}.cls-3{fill:url(#linear-gradient-3);}.cls-4{fill:url(#linear-gradient-4);}.cls-5{fill:url(#linear-gradient-5);}.cls-6{fill:url(#linear-gradient-6);}.cls-7{fill:url(#linear-gradient-7);}.cls-8{fill:url(#linear-gradient-8);}.cls-9{fill:#3a322b;}.cls-10{fill:url(#linear-gradient-9);}.cls-11{fill:url(#linear-gradient-10);}.cls-12{fill:url(#linear-gradient-11);}.cls-13{fill:url(#linear-gradient-12);}.cls-14{fill:url(#linear-gradient-13);}.cls-15,.cls-46{fill:#927e6c;}.cls-16{fill:url(#linear-gradient-14);}.cls-17{fill:url(#linear-gradient-15);}.cls-18{fill:url(#linear-gradient-16);}.cls-19{fill:url(#linear-gradient-17);}.cls-20{fill:url(#linear-gradient-18);}.cls-21{fill:#53493e;}.cls-22{fill:url(#linear-gradient-19);}.cls-23{fill:url(#linear-gradient-20);}.cls-24{fill:url(#linear-gradient-21);}.cls-25{fill:url(#linear-gradient-22);}.cls-26{fill:url(#linear-gradient-23);}.cls-27{fill:url(#linear-gradient-24);}.cls-28{fill:url(#linear-gradient-25);}.cls-29{fill:url(#linear-gradient-26);}.cls-30{fill:url(#linear-gradient-27);}.cls-31{fill:url(#linear-gradient-28);}.cls-32{fill:url(#linear-gradient-29);}.cls-33{fill:#99897b;}.cls-34{fill:url(#linear-gradient-30);}.cls-35{fill:url(#linear-gradient-31);}.cls-36{fill:url(#linear-gradient-32);}.cls-37{fill:url(#linear-gradient-33);}.cls-38{fill:url(#linear-gradient-34);}.cls-39{fill:url(#linear-gradient-35);}.cls-40{fill:url(#linear-gradient-36);}.cls-41{fill:url(#linear-gradient-40);}.cls-42{fill:url(#linear-gradient-41);}.cls-43{fill:url(#linear-gradient-42);}.cls-44{fill:#63564a;}.cls-45{fill:url(#linear-gradient-43);}.cls-46{isolation:isolate;font-size:36.22px;font-family:Verdana;letter-spacing:0.2em;}.cls-47{fill:url(#linear-gradient-44);}.cls-48{fill:url(#linear-gradient-45);}.cls-49{fill:url(#linear-gradient-46);}</style><linearGradient id="linear-gradient" x1="1613.24" y1="148.47" x2="1613.24" y2="247.98" gradientTransform="matrix(1, 0, 0, -1, -78.94, 375.43)" gradientUnits="userSpaceOnUse"><stop offset="0" stop-color="#3a322b"/><stop offset="0.05" stop-color="#5c5045"/><stop offset="0.5" stop-color="#4a4137"/><stop offset="1" stop-color="#927e6c"/></linearGradient><linearGradient id="linear-gradient-2" x1="500.95" y1="249.38" x2="500.95" y2="314.21" gradientTransform="matrix(1, 0, 0, -1, -190.92, 387.77)" gradientUnits="userSpaceOnUse"><stop offset="0" stop-color="#3a322b"/><stop offset="0.09" stop-color="#4a4137"/><stop offset="1" stop-color="#927e6c"/></linearGradient><linearGradient id="linear-gradient-3" x1="627.47" y1="321.94" x2="664.9" y2="321.94" gradientTransform="matrix(1, 0, 0, -1, -190.92, 387.77)" gradientUnits="userSpaceOnUse"><stop offset="0" stop-color="#927e6c"/><stop offset="0.08" stop-color="#5d5146"/><stop offset="0.29" stop-color="#7c6b5c"/><stop offset="0.71" stop-color="#4a4137"/><stop offset="1" stop-color="#927e6c"/></linearGradient><linearGradient id="linear-gradient-4" x1="633.06" y1="294.14" x2="671.51" y2="294.14" gradientTransform="matrix(1, 0, 0, -1, -190.92, 387.77)" gradientUnits="userSpaceOnUse"><stop offset="0.01" stop-color="#5c5045"/><stop offset="0.96" stop-color="#4a4137"/><stop offset="1" stop-color="#3a322b"/></linearGradient><linearGradient id="linear-gradient-5" x1="1252.58" y1="35.04" x2="1252.58" y2="135.79" gradientTransform="matrix(1, 0, 0, -1, -78.95, 375.43)" gradientUnits="userSpaceOnUse"><stop offset="0" stop-color="#52483d"/><stop offset="1" stop-color="#3a322b"/></linearGradient><linearGradient id="linear-gradient-6" x1="1584.15" y1="106.67" x2="1584.15" y2="127.4" gradientTransform="matrix(1, 0, 0, -1, -190.92, 387.77)" xlink:href="#linear-gradient-5"/><linearGradient id="linear-gradient-7" x1="485.73" y1="59.54" x2="485.73" y2="138.83" gradientTransform="matrix(1, 0, 0, -1, -190.92, 387.77)" xlink:href="#linear-gradient-5"/><linearGradient id="linear-gradient-8" x1="964.54" y1="129.72" x2="964.54" y2="262.97" gradientTransform="matrix(1, 0, 0, -1, -78.95, 375.43)" gradientUnits="userSpaceOnUse"><stop offset="0" stop-color="#3a322b"/><stop offset="0.01" stop-color="#5c5045"/><stop offset="0.95" stop-color="#4a4137"/><stop offset="0.98" stop-color="#3a322b"/></linearGradient><linearGradient id="linear-gradient-9" x1="1545.69" y1="309.28" x2="1545.69" y2="343.72" gradientTransform="matrix(1, 0, 0, -1, -190.92, 387.77)" xlink:href="#linear-gradient"/><linearGradient id="linear-gradient-10" x1="1316.9" y1="205.03" x2="1316.9" y2="313.25" gradientTransform="matrix(1, 0, 0, -1, -190.92, 387.77)" xlink:href="#linear-gradient"/><linearGradient id="linear-gradient-11" x1="1034.05" y1="183.9" x2="1034.05" y2="329.68" gradientTransform="matrix(1, 0, 0, -1, -190.92, 387.77)" gradientUnits="userSpaceOnUse"><stop offset="0" stop-color="#52483d"/><stop offset="0.8" stop-color="#63564a"/><stop offset="1" stop-color="#927e6c"/></linearGradient><linearGradient id="linear-gradient-12" x1="870.86" y1="319.36" x2="870.86" y2="369.02" xlink:href="#linear-gradient-2"/><linearGradient id="linear-gradient-13" x1="708.45" y1="319.36" x2="708.45" y2="369.02" xlink:href="#linear-gradient-2"/><linearGradient id="linear-gradient-14" x1="1204.01" y1="199.25" x2="1204.01" y2="319.36" gradientTransform="matrix(1, 0, 0, -1, -190.92, 387.77)" gradientUnits="userSpaceOnUse"><stop offset="0" stop-color="#3a322b"/><stop offset="0.06" stop-color="#78685a"/><stop offset="0.5" stop-color="#6e6051"/><stop offset="1" stop-color="#d2c8bd"/></linearGradient><linearGradient id="linear-gradient-15" x1="1120.6" y1="199.25" x2="1120.6" y2="319.36" xlink:href="#linear-gradient-14"/><linearGradient id="linear-gradient-16" x1="1294.33" y1="199.25" x2="1294.33" y2="319.36" xlink:href="#linear-gradient-14"/><linearGradient id="linear-gradient-17" x1="1319.71" y1="199.25" x2="1319.71" y2="319.36" xlink:href="#linear-gradient-14"/><linearGradient id="linear-gradient-18" x1="1417.17" y1="199.25" x2="1417.17" y2="319.36" xlink:href="#linear-gradient-14"/><linearGradient id="linear-gradient-19" x1="1519.32" y1="71.88" x2="1519.32" y2="188.31" gradientTransform="matrix(1, 0, 0, -1, -190.92, 387.77)" gradientUnits="userSpaceOnUse"><stop offset="0" stop-color="#665a4c"/><stop offset="0.09" stop-color="#52483d"/><stop offset="0.8" stop-color="#63564a"/><stop offset="1" stop-color="#927e6c"/></linearGradient><linearGradient id="linear-gradient-20" x1="1478.22" y1="82.67" x2="1478.22" y2="143.3" gradientTransform="matrix(1, 0, 0, -1, -190.92, 387.77)" gradientUnits="userSpaceOnUse"><stop offset="0" stop-color="#63564a"/><stop offset="0.43" stop-color="#53483d"/><stop offset="1" stop-color="#927e6c"/></linearGradient><linearGradient id="linear-gradient-21" x1="1562.32" y1="75.69" x2="1562.32" y2="143.3" xlink:href="#linear-gradient-20"/><linearGradient id="linear-gradient-22" x1="1560.17" y1="152.69" x2="1560.17" y2="182.58" xlink:href="#linear-gradient-20"/><linearGradient id="linear-gradient-23" x1="1135.08" y1="346.25" x2="1200.35" y2="346.25" xlink:href="#linear-gradient-3"/><linearGradient id="linear-gradient-24" x1="1135.07" y1="377.78" x2="1200.35" y2="377.78" gradientTransform="matrix(1, 0, 0, -1, 0, 434)" gradientUnits="userSpaceOnUse"><stop offset="0" stop-color="#927e6c"/><stop offset="0.71" stop-color="#4a4137"/><stop offset="1" stop-color="#927e6c"/></linearGradient><linearGradient id="linear-gradient-25" x1="1206.58" y1="346.25" x2="1271.85" y2="346.25" xlink:href="#linear-gradient-3"/><linearGradient id="linear-gradient-26" x1="1206.58" y1="377.78" x2="1271.85" y2="377.78" xlink:href="#linear-gradient-24"/><linearGradient id="linear-gradient-27" x1="1323.19" y1="377.78" x2="1388.45" y2="377.78" xlink:href="#linear-gradient-24"/><linearGradient id="linear-gradient-28" x1="1323.18" y1="346.25" x2="1388.46" y2="346.25" xlink:href="#linear-gradient-3"/><linearGradient id="linear-gradient-29" x1="1242.67" y1="310.52" x2="1291.41" y2="310.52" gradientTransform="matrix(1, 0, 0, -1, -190.92, 387.77)" xlink:href="#linear-gradient"/><linearGradient id="linear-gradient-30" x1="874.16" y1="129.74" x2="874.16" y2="260.79" xlink:href="#linear-gradient-8"/><linearGradient id="linear-gradient-31" x1="490.54" y1="321.94" x2="527.96" y2="321.94" xlink:href="#linear-gradient-3"/><linearGradient id="linear-gradient-32" x1="489.08" y1="330.44" x2="529.42" y2="330.44" xlink:href="#linear-gradient-3"/><linearGradient id="linear-gradient-33" x1="626.02" y1="330.44" x2="666.35" y2="330.44" xlink:href="#linear-gradient-3"/><linearGradient id="linear-gradient-34" x1="586.92" y1="80.26" x2="586.92" y2="260.79" gradientTransform="matrix(1, 0, 0, -1, -78.95, 375.43)" gradientUnits="userSpaceOnUse"><stop offset="0.01" stop-color="#5c5045"/><stop offset="0.95" stop-color="#4a4137"/><stop offset="0.98" stop-color="#3a322b"/></linearGradient><linearGradient id="linear-gradient-35" x1="1454" y1="325.53" x2="1503.78" y2="325.53" xlink:href="#linear-gradient-3"/><linearGradient id="linear-gradient-36" x1="1454" y1="359.74" x2="1503.78" y2="359.74" xlink:href="#linear-gradient-3"/><linearGradient id="linear-gradient-40" x1="1167.71" y1="373.14" x2="1167.71" y2="382.42" gradientTransform="matrix(1, 0, 0, -1, 0, 434)" gradientUnits="userSpaceOnUse"><stop offset="0.32" stop-color="#927e6c" stop-opacity="0"/><stop offset="1" stop-color="#d2c8bd"/></linearGradient><linearGradient id="linear-gradient-41" x1="1239.22" y1="373.14" x2="1239.22" y2="382.42" xlink:href="#linear-gradient-40"/><linearGradient id="linear-gradient-42" x1="1355.82" y1="373.14" x2="1355.82" y2="382.42" xlink:href="#linear-gradient-40"/><linearGradient id="linear-gradient-43" x1="765.37" y1="359.14" x2="765.37" y2="375.26" gradientTransform="matrix(1, 0, 0, -1, -190.92, 387.77)" gradientUnits="userSpaceOnUse"><stop offset="0" stop-color="#4a4137"/><stop offset="1" stop-color="#927e6c"/></linearGradient><linearGradient id="linear-gradient-44" x1="1285.27" y1="314.74" x2="1350.79" y2="314.74" gradientTransform="matrix(1, 0, 0, -1, -269.86, 329.2)" gradientUnits="userSpaceOnUse"><stop offset="0" stop-color="#b09882"/><stop offset="0.08" stop-color="#a38f7a"/><stop offset="0.29" stop-color="#a38d79"/><stop offset="0.71" stop-color="#827261"/><stop offset="1" stop-color="#b59c86"/></linearGradient><linearGradient id="linear-gradient-45" x1="1402" y1="314.74" x2="1467.52" y2="314.74" xlink:href="#linear-gradient-44"/><linearGradient id="linear-gradient-46" x1="1213.89" y1="314.74" x2="1279.41" y2="314.74" xlink:href="#linear-gradient-44"/></defs><g id="Episod_2" data-name="Episod 2"><g id="Loco"><path class="cls-1" d="M1539,136.73v80.94a9.28,9.28,0,0,1-9.28,9.29h-.18V127.45h.18a9.27,9.27,0,0,1,9.28,9.28Z" transform="translate(-190.92 -46.23)"/><rect class="cls-2" x="177.91" y="73.56" width="264.25" height="64.83"/><rect class="cls-3" x="436.55" y="58.09" width="37.43" height="15.47"/><rect class="cls-4" x="442.14" y="67.8" width="38.45" height="51.64"/><path class="cls-5" d="M1566.13,241.27H1395.22a32.22,32.22,0,0,0-20.22,0H1221a32.22,32.22,0,0,0-20.22,0H958.94v4.42H785.39L827.9,291.9h-8.17v18.63h-7.3v2.65h-5.25v1.75h-24v-6.58h-2.07v19h2.07v-6.55h24v1.78h5.25v2.37h7.3v15.48h663.12V295.17h21.87V250.11h61.41Zm-380.2,50.63H1109.2V250.11h78.06A32.07,32.07,0,0,0,1186,291.9Zm174.17,0h-19.8v-31h-34.25v31h-70.11a32.11,32.11,0,0,0-1.29-41.79H1361.4a32.1,32.1,0,0,0-1.3,41.79Zm63.2,0h-13.18a32.1,32.1,0,0,0-1.29-41.79h14.47Z" transform="translate(-190.92 -46.23)"/><polygon class="cls-6" points="1421.11 262.14 1421.11 268.69 1413.5 268.69 1413.5 266.95 1397.94 266.95 1397.94 264.62 1391.94 264.62 1391.94 260.37 1363.29 260.37 1363.29 280.22 1391.94 280.22 1391.94 278.94 1397.94 278.94 1397.94 276.29 1413.5 276.29 1413.5 274.54 1421.11 274.54 1421.11 281.1 1423.16 281.1 1423.16 274.54 1423.16 268.69 1423.16 262.14 1421.11 262.14"/><polygon class="cls-7" points="587.56 262.14 587.56 268.69 573.28 268.69 573.28 266.95 557.73 266.95 557.73 264.62 551.31 264.62 551.31 260.35 551.31 248.93 84.69 248.93 84.69 260.35 40.15 260.35 40.15 264.29 31.89 264.29 31.89 266.95 16.33 266.95 16.33 268.69 2.06 268.69 2.06 262.14 0 262.14 0 268.69 0 274.54 0 281.1 2.06 281.1 2.06 274.54 16.33 274.54 16.33 276.29 31.89 276.29 31.89 278.62 40.15 278.62 40.15 298.55 411.1 298.55 411.1 328.22 491.05 328.22 491.05 298.55 551.31 298.55 551.31 278.94 557.73 278.94 557.73 276.29 573.28 276.29 573.28 274.54 587.56 274.54 587.56 281.1 589.62 281.1 589.62 274.54 589.62 268.69 589.62 262.14 587.56 262.14"/><path class="cls-8" d="M812.14,112.46V245.71H959.05V112.46Zm66.61,48.1a9.46,9.46,0,0,1-9.46,9.46H838.65a9.47,9.47,0,0,1-9.46-9.46V126.65a9.47,9.47,0,0,1,9.46-9.46h30.64a9.46,9.46,0,0,1,9.46,9.46Zm63.82,0a9.47,9.47,0,0,1-9.46,9.46H902.46a9.47,9.47,0,0,1-9.46-9.46V126.65a9.47,9.47,0,0,1,9.46-9.46h30.65a9.47,9.47,0,0,1,9.46,9.46Z" transform="translate(-190.92 -46.23)"/><rect class="cls-9" x="554.43" y="70.99" width="32.94" height="128.47"/><rect class="cls-10" x="1339.49" y="44.04" width="30.57" height="34.44"/><rect class="cls-11" x="912.48" y="68.41" width="427.01" height="135.45"/><rect class="cls-12" x="767.99" y="58.09" width="150.29" height="145.78"/><rect class="cls-13" x="587.38" y="18.74" width="185.13" height="49.67"/><rect class="cls-14" x="475.43" y="18.74" width="84.21" height="49.67"/><rect class="cls-15" x="767.99" y="188.51" width="607.22" height="6.53"/><rect class="cls-15" x="916.08" y="117" width="2.55" height="74.77"/><rect class="cls-15" x="1069.05" y="117" width="2.55" height="74.77"/><rect class="cls-16" x="1010.38" y="68.41" width="5.44" height="120.1"/><rect class="cls-17" x="926.96" y="68.41" width="5.44" height="120.1"/><rect class="cls-18" x="1100.7" y="68.41" width="5.44" height="120.1"/><rect class="cls-19" x="1126.07" y="68.41" width="5.44" height="120.1"/><rect class="cls-20" x="1223.53" y="68.41" width="5.44" height="120.1"/><rect class="cls-15" x="1219.23" y="117" width="2.55" height="74.77"/><rect class="cls-15" x="1371.41" y="117" width="2.55" height="74.77"/><circle class="cls-21" cx="908.73" cy="294.11" r="45.18"/><circle class="cls-21" cx="805.31" cy="294.11" r="45.18"/><circle class="cls-21" cx="1009.43" cy="294.11" r="45.18"/><circle class="cls-21" cx="1112.85" cy="294.11" r="45.18"/><circle class="cls-21" cx="1217.91" cy="294.11" r="45.18"/><rect class="cls-22" x="1289.21" y="199.46" width="78.38" height="116.43"/><rect class="cls-23" x="1285.4" y="244.46" width="3.81" height="60.63"/><rect class="cls-24" x="1367.59" y="244.46" width="7.62" height="67.61"/><rect class="cls-25" x="1367.59" y="205.19" width="3.32" height="29.88"/><rect class="cls-26" x="944.16" y="14.62" width="65.28" height="53.79"/><path class="cls-27" d="M1144.35,51.58h46.72a9.29,9.29,0,0,1,9.28,9.28h-65.28a9.28,9.28,0,0,1,9.28-9.28Z" transform="translate(-190.92 -46.23)"/><rect class="cls-28" x="1015.66" y="14.62" width="65.28" height="53.79"/><path class="cls-29" d="M1215.86,51.58h46.71a9.28,9.28,0,0,1,9.28,9.28h-65.27a9.28,9.28,0,0,1,9.28-9.28Z" transform="translate(-190.92 -46.23)"/><path class="cls-30" d="M1332.46,51.58h46.71a9.29,9.29,0,0,1,9.28,9.28h-65.26a9.28,9.28,0,0,1,9.28-9.28h0Z" transform="translate(-190.92 -46.23)"/><rect class="cls-31" x="1132.26" y="14.62" width="65.28" height="53.79"/><ellipse class="cls-32" cx="1076.12" cy="77.25" rx="24.37" ry="12.12"/><ellipse class="cls-33" cx="1076.12" cy="70.21" rx="24.37" ry="12.12"/><rect class="cls-15" x="621.23" y="199.46" width="146.92" height="6.54"/><path class="cls-34" d="M778.29,114.64V245.69h33.85v-131Zm29.09,46.74a4.22,4.22,0,0,1-4.2,4.2H786.36a4.22,4.22,0,0,1-4.2-4.2V126.21a4.21,4.21,0,0,1,4.2-4.2h16.82a4.21,4.21,0,0,1,4.2,4.2Z" transform="translate(-190.92 -46.23)"/><rect class="cls-35" x="299.62" y="58.09" width="37.43" height="15.47"/><rect class="cls-36" x="298.17" y="56.01" width="40.33" height="2.63"/><rect class="cls-37" x="435.1" y="56.01" width="40.33" height="2.63"/><path class="cls-38" d="M671.51,114.64v49.68H405.65a40.55,40.55,0,0,0-40.57,40.55H270.59v90.29H745.35V114.64Z" transform="translate(-190.92 -46.23)"/><polygon class="cls-39" points="1312.86 68.41 1263.09 68.41 1270.87 56.05 1303.89 56.05 1312.86 68.41"/><polygon class="cls-40" points="1312.86 0 1263.09 0 1270.87 56.05 1303.89 56.05 1312.86 0"/><path class="cls-27" d="M1144.35,51.58h46.72a9.29,9.29,0,0,1,9.28,9.28h-65.28a9.28,9.28,0,0,1,9.28-9.28Z" transform="translate(-190.92 -46.23)"/><path class="cls-29" d="M1215.86,51.58h46.71a9.28,9.28,0,0,1,9.28,9.28h-65.27a9.28,9.28,0,0,1,9.28-9.28Z" transform="translate(-190.92 -46.23)"/><path class="cls-30" d="M1332.46,51.58h46.71a9.29,9.29,0,0,1,9.28,9.28h-65.26a9.28,9.28,0,0,1,9.28-9.28h0Z" transform="translate(-190.92 -46.23)"/><path class="cls-41" d="M1144.35,51.58h46.72a9.29,9.29,0,0,1,9.28,9.28h-65.28a9.28,9.28,0,0,1,9.28-9.28Z" transform="translate(-190.92 -46.23)"/><path class="cls-42" d="M1215.86,51.58h46.71a9.28,9.28,0,0,1,9.28,9.28h-65.27a9.28,9.28,0,0,1,9.28-9.28Z" transform="translate(-190.92 -46.23)"/><path class="cls-43" d="M1332.46,51.58h46.71a9.29,9.29,0,0,1,9.28,9.28h-65.26a9.28,9.28,0,0,1,9.28-9.28h0Z" transform="translate(-190.92 -46.23)"/><path class="cls-44" d="M1037.1,332.15a41.69,41.69,0,1,0-32.68,49.07A41.68,41.68,0,0,0,1037.1,332.15ZM995,374.06l1.73-19.5a15.63,15.63,0,0,0,2.36-.26,15,15,0,0,0,2.08-.6l9.1,17.34a33.75,33.75,0,0,1-15.24,3Zm10.47-52.83a21.28,21.28,0,0,1,6.72,5.15l-5.68,4.1a13.87,13.87,0,0,0-3.48-2.66Zm9,8.34a21.08,21.08,0,0,1,2.72,7.88l-6.95.38v-.28a13.76,13.76,0,0,0-1.4-3.88Zm-15.15-3.15a13.73,13.73,0,0,0-3.94-.31l-3.85-19.22A33.66,33.66,0,0,1,1006.1,308Zm-11.62-18.76,3.84,19.22a14.52,14.52,0,0,0-3.38,1.71L974.5,314.48a33.56,33.56,0,0,1,13.18-6.78Zm-16,9.53,13.59,14.06a14.47,14.47,0,0,0-2.16,3.6L964,330.43a33.86,33.86,0,0,1,7.68-13.2Zm-8.61,17,19.05,4.48a14.38,14.38,0,0,0,.18,4.44l0,.18-18.45,6.54c-.28-.95-.52-1.9-.72-2.88a33.6,33.6,0,0,1-.1-12.72Zm20.66,12.89a14.31,14.31,0,0,0,2.22,3l-12,15.53a33.6,33.6,0,0,1-8.68-12Zm5.29,5.51a14.15,14.15,0,0,0,3.79,1.58l-1.73,19.56A33.79,33.79,0,0,1,977,368.08Zm24.69,16.65-9.11-17.35a14.42,14.42,0,0,0,2.89-2.79l17,9.7a33.69,33.69,0,0,1-10.81,10.44Zm12.76-13.89-17-9.69a14.1,14.1,0,0,0,1-3.9l19.58-1.06a33.54,33.54,0,0,1-3.51,14.65Z" transform="translate(-190.92 -46.23)"/><circle class="cls-21" cx="509.92" cy="308.74" r="31.79"/><path class="cls-44" d="M1140.52,332.15a41.69,41.69,0,1,0-32.68,49.07h0A41.69,41.69,0,0,0,1140.52,332.15Zm-42.13,41.91,1.69-19.5a15.62,15.62,0,0,0,2.37-.26,15,15,0,0,0,2.08-.6l9.1,17.34a33.74,33.74,0,0,1-15.23,3Zm10.47-52.83a21.24,21.24,0,0,1,6.71,5.15l-5.68,4.1a13.87,13.87,0,0,0-3.48-2.66Zm9,8.34a21.08,21.08,0,0,1,2.72,7.88l-6.94.38a.56.56,0,0,0-.05-.28,14.06,14.06,0,0,0-1.39-3.88Zm-15.15-3.15a13.73,13.73,0,0,0-3.94-.31l-3.85-19.22a33.71,33.71,0,0,1,14.6,1.15Zm-11.63-18.76,3.86,19.22a14.39,14.39,0,0,0-3.39,1.71l-13.64-14.11a33.58,33.58,0,0,1,13.17-6.78Zm-16,9.53,13.61,14.06a14.21,14.21,0,0,0-2.17,3.6l-19.11-4.42a34,34,0,0,1,7.67-13.2Zm-8.6,17,19,4.48a14.38,14.38,0,0,0,.18,4.44v.18l-18.46,6.54c-.27-.95-.52-1.9-.71-2.88a33.6,33.6,0,0,1-.06-12.72Zm20.66,12.89a14.31,14.31,0,0,0,2.22,3l-12,15.5a33.7,33.7,0,0,1-8.67-12Zm5.3,5.51a14.09,14.09,0,0,0,3.78,1.58l-1.73,19.56a33.79,33.79,0,0,1-14.06-5.64Zm24.68,16.65-9.1-17.35a14.64,14.64,0,0,0,2.88-2.79l17,9.7a33.93,33.93,0,0,1-10.82,10.44Zm12.76-13.89-17-9.69a14.12,14.12,0,0,0,1-3.9l19.58-1.06a33.56,33.56,0,0,1-3.53,14.65Z" transform="translate(-190.92 -46.23)"/><path class="cls-44" d="M1240.84,332.15a41.69,41.69,0,1,0-32.68,49.07h0A41.69,41.69,0,0,0,1240.84,332.15Zm-42.13,41.91,1.72-19.5a15.62,15.62,0,0,0,2.37-.26,15,15,0,0,0,2.08-.6L1214,371a33.71,33.71,0,0,1-15.23,3Zm10.47-52.83a21.24,21.24,0,0,1,6.71,5.15l-5.68,4.1a13.87,13.87,0,0,0-3.48-2.66Zm9,8.34a21.08,21.08,0,0,1,2.72,7.88l-7,.38a.68.68,0,0,0,0-.28,14.06,14.06,0,0,0-1.39-3.88ZM1203,326.42a13.73,13.73,0,0,0-3.94-.31l-3.85-19.22a33.72,33.72,0,0,1,14.6,1.15Zm-11.63-18.76,3.86,19.22a14.39,14.39,0,0,0-3.39,1.71l-13.64-14.11a33.58,33.58,0,0,1,13.17-6.78Zm-16,9.53,13.6,14.06a14.21,14.21,0,0,0-2.17,3.6l-19.11-4.42a33.86,33.86,0,0,1,7.68-13.2Zm-8.61,17,19,4.48a14.38,14.38,0,0,0,.18,4.44v.18l-18.46,6.54c-.26-.95-.52-1.9-.71-2.88a33.6,33.6,0,0,1-.06-12.72Zm20.66,12.89a14.31,14.31,0,0,0,2.22,3l-12,15.5a33.7,33.7,0,0,1-8.67-12Zm5.3,5.51a14.09,14.09,0,0,0,3.78,1.58l-1.73,19.56a33.79,33.79,0,0,1-14.06-5.64Zm24.68,16.65-9.1-17.35a14.37,14.37,0,0,0,2.88-2.79l17,9.7a33.82,33.82,0,0,1-10.82,10.44Zm12.76-13.89-17-9.69a13.78,13.78,0,0,0,1-3.9l19.58-1.06A33.56,33.56,0,0,1,1230.18,355.34Z" transform="translate(-190.92 -46.23)"/><path class="cls-44" d="M1343.83,332.15a41.7,41.7,0,1,0-32.69,49.07h0A41.7,41.7,0,0,0,1343.83,332.15Zm-42.14,41.91,1.73-19.5a16.31,16.31,0,0,0,2.32-.26,15.12,15.12,0,0,0,2.09-.6l9.09,17.34a33.71,33.71,0,0,1-15.23,3Zm10.47-52.83a21.24,21.24,0,0,1,6.71,5.15l-5.67,4.1a14.05,14.05,0,0,0-3.48-2.66Zm9,8.34a21.09,21.09,0,0,1,2.73,7.88l-7,.38a.56.56,0,0,0,0-.28,14.06,14.06,0,0,0-1.39-3.88ZM1306,326.42a13.76,13.76,0,0,0-3.94-.31l-3.86-19.22a33.71,33.71,0,0,1,14.6,1.15Zm-11.63-18.76,3.85,19.22a14.39,14.39,0,0,0-3.39,1.71l-13.64-14.11a33.62,33.62,0,0,1,13.18-6.78Zm-16,9.53L1292,331.25a14.81,14.81,0,0,0-2.17,3.6l-19.1-4.42a33.74,33.74,0,0,1,7.68-13.2Zm-8.61,17,19,4.48a13.79,13.79,0,0,0,.18,4.44.3.3,0,0,0,0,.18l-18.46,6.54c-.28-.95-.52-1.9-.72-2.88a33.6,33.6,0,0,1-.09-12.72Zm20.65,12.89a14.67,14.67,0,0,0,2.22,3l-12,15.53a33.51,33.51,0,0,1-8.68-12Zm5.3,5.51a14.15,14.15,0,0,0,3.79,1.58l-1.74,19.56a33.79,33.79,0,0,1-14.06-5.64Zm24.68,16.65-9.1-17.35a14.11,14.11,0,0,0,2.88-2.79l17,9.7a33.72,33.72,0,0,1-10.82,10.44Zm12.77-13.89-17-9.69a13.78,13.78,0,0,0,1-3.9l19.58-1.06a33.68,33.68,0,0,1-3.51,14.65Z" transform="translate(-190.92 -46.23)"/><path class="cls-44" d="M1449.7,332.15A41.69,41.69,0,1,0,1417,381.23h0A41.69,41.69,0,0,0,1449.7,332.15Zm-42.11,41.91,1.73-19.5a16.61,16.61,0,0,0,2.33-.26,15.39,15.39,0,0,0,2.08-.6l9.1,17.34a33.75,33.75,0,0,1-15.24,3Zm10.47-52.83a21.24,21.24,0,0,1,6.71,5.15l-5.67,4.1a14.05,14.05,0,0,0-3.48-2.66Zm9,8.34a21.25,21.25,0,0,1,2.72,7.88l-7,.38a.56.56,0,0,0,0-.28,14.37,14.37,0,0,0-1.38-3.88Zm-15.15-3.15a13.73,13.73,0,0,0-3.94-.31l-3.86-19.22a33.71,33.71,0,0,1,14.6,1.15Zm-11.63-18.76,3.86,19.22a14.27,14.27,0,0,0-3.4,1.71l-13.64-14.11a33.71,33.71,0,0,1,13.15-6.78Zm-16,9.53,13.59,14.06a14.81,14.81,0,0,0-2.17,3.6l-19.13-4.42a33.74,33.74,0,0,1,7.68-13.2Zm-8.61,17,19,4.48a14.38,14.38,0,0,0,.18,4.44.3.3,0,0,0,0,.18l-18.46,6.54c-.27-.95-.52-1.9-.71-2.88a33.6,33.6,0,0,1-.13-12.72Zm20.66,12.89a14.26,14.26,0,0,0,2.21,3l-12,15.5a33.64,33.64,0,0,1-8.68-12Zm5.29,5.51a14.15,14.15,0,0,0,3.79,1.58l-1.74,19.56a33.69,33.69,0,0,1-14.05-5.64Zm24.68,16.65-9.1-17.35a14.11,14.11,0,0,0,2.88-2.79l17,9.7a33.72,33.72,0,0,1-10.85,10.44Zm12.77-13.89-17-9.69a14.12,14.12,0,0,0,1-3.9l19.57-1.06a33.58,33.58,0,0,1-3.55,14.65Z" transform="translate(-190.92 -46.23)"/><path class="cls-44" d="M700.84,327.83A27.14,27.14,0,1,0,728,355h0A27.14,27.14,0,0,0,700.84,327.83Zm0,49a21.91,21.91,0,1,1,21.9-21.9,21.9,21.9,0,0,1-21.9,21.9Z" transform="translate(-190.92 -46.23)"/><rect class="cls-44" x="500.85" y="296.91" width="18.14" height="23.65" rx="4.34"/><circle class="cls-21" cx="509.92" cy="308.74" r="7.1"/><circle class="cls-21" cx="585.33" cy="354.97" r="31.79" transform="matrix(0.16, -0.99, 0.99, 0.16, -49.73, 829.66)"/><path class="cls-44" d="M585.33,327.83A27.14,27.14,0,1,0,612.47,355h0A27.15,27.15,0,0,0,585.33,327.83Zm0,49a21.91,21.91,0,1,1,21.9-21.9,21.91,21.91,0,0,1-21.9,21.9Z" transform="translate(-190.92 -46.23)"/><rect class="cls-44" x="385.35" y="296.91" width="18.14" height="23.65" rx="4.34"/><circle class="cls-21" cx="394.42" cy="308.74" r="7.1"/><rect class="cls-21" x="133.17" y="274.33" width="79.94" height="53.89"/><circle class="cls-21" cx="231.99" cy="308.74" r="31.79"/><path class="cls-44" d="M422.9,327.83A27.14,27.14,0,1,0,450,355h0A27.15,27.15,0,0,0,422.9,327.83Zm0,49A21.91,21.91,0,1,1,444.8,355h0A21.9,21.9,0,0,1,422.9,376.87Z" transform="translate(-190.92 -46.23)"/><rect class="cls-44" x="222.92" y="296.91" width="18.14" height="23.65" rx="4.34"/><circle class="cls-21" cx="231.99" cy="308.74" r="7.1"/><circle class="cls-21" cx="116.48" cy="308.74" r="31.79"/><path class="cls-44" d="M307.39,327.83A27.14,27.14,0,1,0,334.53,355h0A27.14,27.14,0,0,0,307.39,327.83Zm0,49A21.91,21.91,0,1,1,329.3,355h0A21.91,21.91,0,0,1,307.39,376.87Z" transform="translate(-190.92 -46.23)"/><rect class="cls-44" x="107.41" y="296.91" width="18.14" height="23.65" rx="4.34"/><circle class="cls-21" cx="116.48" cy="308.74" r="7.1"/><rect class="cls-45" x="554.43" y="12.51" width="40.04" height="16.12"/><text class="cls-46" transform="translate(649.67 177.69) scale(0.79 1)">312</text><path class="cls-9" d="M1581.41,283.28h-5a10.3,10.3,0,0,0-2.67,20.26v3.31h2.76v-3h4.88Z" transform="translate(-190.92 -46.23)"/><rect class="cls-47" x="1015.41" y="13.34" width="65.52" height="2.24"/><rect class="cls-48" x="1132.14" y="13.34" width="65.52" height="2.24"/><rect class="cls-49" x="944.03" y="13.34" width="65.52" height="2.24"/><rect class="cls-15" x="767.99" y="120.51" width="607.22" height="3.26"/><rect class="cls-15" x="767.99" y="150.86" width="607.22" height="3.26"/><g id="Layer_5" data-name="Layer 5"><rect class="cls-15" x="779.62" y="286.86" width="420.07" height="7.59"/><rect class="cls-15" x="1145.89" y="268.16" width="139.51" height="6.62"/><rect class="cls-15" x="1211.27" y="296.8" width="74.13" height="4.23"/><rect class="cls-15" x="1210" y="241.84" width="6.43" height="60.23"/><rect class="cls-15" x="1211.27" y="248.3" width="74.13" height="2.11"/><rect class="cls-15" x="1125.13" y="238.52" width="90.51" height="4.37"/><circle class="cls-15" cx="780.63" cy="290.65" r="7.89"/><circle class="cls-15" cx="885.05" cy="290.65" r="7.89"/><circle class="cls-15" cx="989.47" cy="290.65" r="7.89"/><circle class="cls-15" cx="1093.89" cy="290.65" r="7.89"/><circle class="cls-15" cx="1015.2" cy="306.43" r="7.89"/><circle class="cls-15" cx="1144.59" cy="271.95" r="7.89"/><circle class="cls-15" cx="1198.32" cy="290.65" r="7.89"/><rect class="cls-15" x="1204.79" y="334.12" width="129.39" height="5.57" transform="translate(-234.83 280.97) rotate(-14.44)"/><rect class="cls-15" x="1198.32" y="264.06" width="31.87" height="15.78"/><rect class="cls-15" x="1204.55" y="276.51" width="17.98" height="16.21"/><rect class="cls-15" x="1128.75" y="216.89" width="10.09" height="24.95"/><rect class="cls-15" x="1330.16" y="282.94" width="6.51" height="33.18" transform="matrix(0.94, -0.35, 0.35, 0.94, -211.62, 437.87)"/><rect class="cls-15" x="1320.82" y="236.94" width="6.51" height="29.63" transform="translate(-195.54 431.61) rotate(-20.42)"/><rect class="cls-15" x="1208.38" y="292.73" width="10.61" height="12.38"/></g></g></g></svg>
