<svg id="Layer_1" data-name="Layer 1" xmlns="http://www.w3.org/2000/svg" width="393.88" height="418.44" viewBox="0 0 393.88 418.44"><defs><style>.cls-1{fill:#5b4d42;fill-rule:evenodd;}</style></defs><path class="cls-1" d="M761.8,663.55Zm9.27,1.25.24.5Zm-4.52.5H767l-.24,1.24-.24.25-.47-.25v-.25Zm-6.89.49.71.75C759.73,666.14,760.05,666.46,759.66,665.79Zm10.46,0,1.19,1C770.31,666.47,770.56,666.65,770.12,665.79Zm-8.56.25c1,.26.67.09,1.19.75C761.88,666.53,762.05,666.59,761.56,666Zm6.42,1.5c.59,1,.5,1.23-1,1.49Zm1.43,0h.71l-.48.5Zm11.17.25,2.61.74.48,1a1.83,1.83,0,0,1-.71.75c-1.82,1.17-2.83-.76-2.38-2.49Zm170,159.47,2.85.25c.78,2-.15,2.52-.71,4.24l1.9-1.24v1l-1.9,1.5v.25l1.19-.25c-.16.25-.32.49-.48.75-1.16,2.61-2.93,1.35-5,1.49l-.24.75,1.19.5c-1.16,1.94-3.36,2.26-4.52,4.23V841l4.52,3-.48.5c-.77,1.77-2.44,3-2.61,4.73l3.33,1.5v.25l-1.19.25,1.66,2,1,.25v-.25c-.23-.66-.47-1.33-.71-2,1.52.46,2.12,1.72,2.14,3.73-.79,1.06-1.05.6-.71,1.75.86.16.72.1,1.19.5l-.24,1.24h-.24l-2.38-1.49v.25l.72,1.24-1,.5c.09.17.16.34.24.5,2.38-.17,2.3-.73,3.09,1,.14.79.56.63,1.19,2-.24.58-.47,1.16-.71,1.75l2.85.74a41.38,41.38,0,0,1-.71,4.24l.24.25c.92-.36.4-.65,1-.25a8.33,8.33,0,0,1,1.66,7,8.63,8.63,0,0,1,2.38,4.73h-1.19c0,1.1,0,1.23-.48,1.74-2,.59-3.6-1.44-5.46-2l-.48.5v3.24l-1.66-1.5-1,1.25h-.72l-3.09-3c-.91.33-.49,0-1,.75-.24,1.41-.47,2.82-.71,4.23l3.56,2.25c-.23.74-.47,1.49-.71,2.24l2.85-.5c-.46,2.09-3.14,4.1-5.46,4.24l-1.67-1.25c-.33,1-.1.45-.71.75l-.95-3H942l-.24.25c-.15.74-.31,1.49-.47,2.24-3.18-1.42-4.43-1.89-6.18-4.73l-.48.24c-.17,2.49-1.08,1.72-1.42,4l-1.43-1.25a11.06,11.06,0,0,1-3.33,5,4.14,4.14,0,0,1-3.56-1.75l-.72.5c-.39.83-.79,1.66-1.19,2.49-1.67-.1-1.68-.51-2.61-1.24-1.35.54-1.58,1.32-3.09,1.74L914.64,896c-.09-2.42-.76-3.51.24-5.23a3.72,3.72,0,0,1,2.86-.25c1.16.68,1,1.78,1.42,3.24h1l2.14-1.75-.24-.74-4-1.75a2.86,2.86,0,0,0,.24-2.24l-3.57-2.49c.76-.79,1.67-1.09,1.19-2.49-.57-1.2-1.41-1.49-2.61-2l-.48.5c.79,2,.88,4.19-1.66,3.74a3.69,3.69,0,0,0-2.38-2.74c-.08.66-.16,1.33-.23,2l-1-.25-1.19-3.49a12.62,12.62,0,0,1-4.27,4.24c.09,2.57.87,4.76,0,6.73-.49.45-.17,0-.48.74a2.15,2.15,0,0,0-1.66-1l-.24.74,1.43,2h.71V892.3l1.43.5,1-1c.07-.83.16-1.66.23-2.49,2-.21,1.17-.69,2.14-1.74a2.45,2.45,0,0,1,1.67.5v.25l-.48,1.74,1.67.25.23-.25.24-2.74h1c1.41,1.33,2.52,2.43,2.38,4.73l-1.19.75.48.75,1.66,1v.24c-1.79.58-3.36,3.63-2.61,5.74.75,1.91,2.57,4,4.75,4.48l-.24-1c1.86,0,1.7-.66,3.8-.75L922,905c1.19-.84,1.17-1,2.38-.25.24,1,.48,2,.71,3l-2.85-1.24c.72,2.69,6.27,4.13,4.52,6.23l-1.9-.75c-.11,2.08-1.66,2.9-2.38,5.23,2,0,2.82,2.89,3.33,5-2.18-.66-6.58-2.31-7.85-2l-1.42.5v.75a3.57,3.57,0,0,1,1.66,2h.24c.09-1,.08-1,.47-1.49,3.6,1.37,4,1.11,3.09,5,.94.8,1.62,1.18,1.91,2.74a3.23,3.23,0,0,0-1.43,2.49l2.38,3.49-2.38,5a4.24,4.24,0,0,1-4.28-.75c-1.37,2.83-3.12-.45-4.28-1.5-3.67,1.84-2.18,2.84-5.94,2l-.24-1.5c-1.06.55-2,1.43-1.66,2.74.73,3.93,10.32,5,12.12,2l.48.25c.86,2.31,3.88,1.91,5.7,3.24a8.7,8.7,0,0,1,.24,4l-.48.75-1.9.25c-1.47-.44-1.54-1.23-2.85-1.75-.24.75-.48,1.5-.71,2.25l-1.67.25c-1.88-1.25-2.08-1.67-2.38-4h-.23l-2.14.5c-.58,2.1,1.48,2,1.9,4.48l-.95-.25c.16.34.32.67.47,1l2.62.75c-.14,1.77-.51,2.58-.24,4.23l.24.25c.42-.65.38-.4.24-1.24h4c-.45,2.87-5.79,7.18-9,6.72l-4.52-2-4,.5c-.42-.12-5.51-1.59-6.18-2-.91-.55-1.79-2.43-2.62-3.23l-.47.49,5.94,8.48c-.17,1.69-.66,2.19-2.14,2.49l-.71-.75c.48-4.85-.69-4.25-3.81-6-3.22.6-3.49,3.21-5,5.48.68.62,1.21.56,1.67,1.5-1,.05-1.15.06-1.67.5l.24,1-.71-.25-.72-1.24c-.16-.75-.31-1.5-.47-2.25l-1.67-.49v-.25l.48-1h.24c.44,1,0,.67,1,.5l-.48-2.24h-1l-2.61,2.49v1.74l.71,1,1.9-1.25.24.5c-.29,1.19-.51,1.71-1.43,2.24h-2.61l-.48.75.24.5,2.38,1.75-.24,2.24c-.16.08-.32.16-.47.25l-3.33-4.24-1.9.75v1c2,2.18,3.85,2.66,6.89,4h-.48l-1.42,1.25v.25c1.93.85,2.07,3,3.8,3-.4,1.24-.79,2.49-1.19,3.74h.24l1-.75c.86-2.93,2.77-4.29,4.76-6-.13-2-.63-3,0-4.49h.23l1.43.5c.07,1.26-.28,2.27.24,3.49l4-.25-.72,2-5,.5v.25l.72,1.74c-2.72,1.28-6.1,2.45-7.61,5,.31,1.17.31,1.16,1.43,1.49.15-.5.31-1,.47-1.49l.48.25V990l-1.19,1,1.42,2h-1l-1.9-1.24v1l-4-2V991c.75,1.14,1.51,1.38,1.9,3-.16.17-.32.33-.47.5h-1l-1.43-2L876.85,994c-1.11-.73-.65-1.16-1.66,0l-1.67,1c1.69,1.49,3.29,1.68,4.28,4h-.47c-1.85,1-3.73-.39-5.23-1.24-.58,3.4-3,5.18.47,7.23h.24v-2.5l1,.75.24,1.25h.24c.07-.67.15-1.33.23-2l.48.25c.36,1.18.79,1.2,1.42,2-2.91,1.09-3.76,1.2-7.13.49.56.84.79.78.72,1.75l-2.38,1.24.48.75,1.18.75v.25h-2.37c-.87-.67-1.1-1.38-2.14-2a1.84,1.84,0,0,0-.71.75l-.24.25.71,1.5h1.66c-.08,1-.15,2-.23,3h.23l1.91-2,1.66.25c.32.75.63,1.5.95,2.24h-.24l-2.61-1.24v.5q-.48,3.74-1,7.47l-.48-.25c.12-2.84-.57-5.12-2.61-5.73v1.5c.56,1.31.86,1.63.47,2.74H864l-4-1.5c.11,2.39.35,4-.47,5.49-2.2.55-2.87.29-4.28-1-.39,1.22-.43,1.36-1.9,1.49l-1.43-.74c.4,1,.44,1,0,2-4.53,1.39-9.69,2.83-13.55,1.49-1.12,1.69-5.14,4.09-8.08,2.75-1.08-.57-.89-.91-1.43-2-1.32,1.53-2.17,3.23-4.75,3.49l-4.52-3.24c-.83.34-.67,1-1.19,1.25-.79.36-2.19-.4-3.08,0l-1,2.74-1.42-.25c-1.52-.74-2-2.08-2.62-3.74.48-1.53,1.11-1.54,1-3.24l-5.94-1v.25c1.24,2,1.48,2.19,1.67,4.73-1.57-.23-1.21-.89-1.91,0-2-.68-2-2.38-4-3l-.24.25c.18,2.38,1,4.72-.23,6.48l-.72-.5c-.6-1.67-1.32-1.6-1.42-4-.69.15-.39.67-.72,0l-.47-1.49-.48.25c-.16.74-.31,1.49-.47,2.24l-.48-.75a2.52,2.52,0,0,1,.48-2.49l-.72-1.25c-.15.09-.31.17-.47.25-.32.92-.63,1.83-1,2.74a4,4,0,0,0-1-2.49l-2.14,1.25c-.79-1-1.58-2-2.38-3h-.23l.47,1.49c-.71,2.53.35,4.84,1,6.73-2,.18-2.5,1.16-3.33,2.49l-.47-.25c0-2.35-1-4.29-2.85-4.73.22,1.1.28,1.09-.48,1.74-1.14-.54-1.64-.68-1.9-2.24l-.48.25a6,6,0,0,1-1.9,2.74l-.71-.25-1-1.74-1.43.74a27,27,0,0,1-1-3l-1.19,1c.16,11.58-.9,21.94-.71,34.14.08,4.78,1,13.06-1,16.2-3.47,5.57-16.29,4.82-23.06,2.74-3.26-1-5.21-5.1-4.28-9.72,2.94-14.48,2-32,3.57-47.59-4.07-3.16-5.59-5.6-6.66-12.21l-3.32-2,.71-3.24h-1l-4.75,1.75c.39,1.63,0,2.34-1.19,3,.38-1,.6-.94.47-2a11.09,11.09,0,0,0-4.75-.5c.26-.7.2-.36.24-1l-2.14-.5-.72-3.24c-2,.35-4.58.21-5.94,1.25-1.71,1.3-1.94,3.64-4.28,4.48-.39-1.33-.79-2.65-1.19-4l-2.61,2.24-1.9-.75c-.55,2.16-2.87,2.59-5.23,2l-.48-1.74h-1l-3.33,2.74a12.66,12.66,0,0,1,3.09-4.48v-1h-.47c-1.92-.87-3,.9-5.23.25v-.25c.24-.75.47-1.5.71-2.25-1.6-.54-1.79-.6-2.37-2.24l-1.19.25c-.32.83-.64,1.66-1,2.49a3.67,3.67,0,0,0-2.14.25v-2.24c-2.8,2.76-4.4,4.65-8.56,6.23-.16-.25-.32-.5-.47-.75.94-2.78,2.21-2.59,3.56-4.48l.48-2.49c1.31-.14,1.29-.23,1.9-1a30.77,30.77,0,0,0-1.19-3.49c-2.23,1.23-2.88,3.42-4.75,5-1.45-.69-1.43-1-2.62-.25l.48-2.49-2.86.25v-1c1.15-2.63,1.76-7.25-1.9-8.72l-2.85-.49-2.14-4.74c-1.38-1.35-3.3-1.45-4.28-3.24l.71-1.74c-1.1-.67-.66-5.61-1.66-7.23a2.89,2.89,0,0,1-2.14-1c-.08,1.89-.49,2.3-1.66,3h-.24l-.24-2.24h-2.38c.06-1.94-.15-2.41-1.66-2.74l.24-1h3.33v-1a7,7,0,0,1-5-5.49l2.38-1.74-.71-1.25c2.16-1,3.21-3.59,3.33-6.72-1.41.37-2.19-.19-3.57-.5-.16.16-.32.33-.47.5v.24c.23.34.47.67.71,1,1.08,0,1.37,0,1.9.5l-.24,2.74-2.14-1.49v1.49c-1-.93-.66-1.17-1.9-.75l-.71,5.24h-.24l-.71-.25a2.18,2.18,0,0,0,.23-1.5c-1,.38-2,.82-2.61.25l.48-.5,1.18-1.49v-.25l-1.9.5c-.31-1.57-1-2.09-1.66-3.24v-.25c1.21.15,1.82.39,2.61-.25l-5.94-2.74-1,.75a5.51,5.51,0,0,0,.24,2.74l-.48.25a24.57,24.57,0,0,1-5.46-3,13.23,13.23,0,0,1,1.18-6.23v-.25c-3.35.54-4.73-.76-6.89-2a2.37,2.37,0,0,0-1.66,1.25l2.85,2.49a5,5,0,0,1-2.14,2.24c-1.15-.38-1-.69-1.66-1.49-.87.59-2,1.38-3.33.75-1.7-.85-1.45-2.39-3.57-2.74l-1.19,1c-.38-1.38-1.06-1.65-2.61-1.74l-.48.25c-.16.66-.31,1.33-.47,2l-1.67-.25-1-.5a4.2,4.2,0,0,1-.23-3c.84-1.52,2.52-1.38,3.32-3l.24-1.24-1-1.5a3.6,3.6,0,0,1-2.61-.5c.2-1.11-2.25-4.19-3.33-5.73l-4.75-.5c-1.38,2.36-4.33,2.23-6,4.24l-.47-.25a12.84,12.84,0,0,1-.48-5.23h-1.67l.71-.75c.82-3.05,2.56-4.4,3.33-7.23-1.22-.41-.74-.05-.48-1.24-2.57,1.62-3.33,1.19-6.65.75l-.71,1.49-.48-.25v-.5c-1.53-4.17,4.61-7.86,1.19-12.21.16-.16.32-.33.47-.5l.24-.24,4.76,1,2.14-1.49-.24-.5L598,905c.1-1.59-.17-3.32,0-3.74.63-.91,1.27-1.82,1.9-2.74,2,.09,2.1.75,3.57,1.25.84-1.22,1.71-2.5,1.19-4.49h-.24L601.59,897l-.48-2v.5c-.16.33-.32.67-.47,1l-.72-.5c.14-4.32,2.3-9.17,1-13.21A6.49,6.49,0,0,1,604,879.1l1.19.24.48,1.25c-1.69-.21-3.06,1.19-3.09,3.49.08.16.16.33.23.5H604l.72-2.24c1.08.48.59.66,1.18.49l2.14-4a3.94,3.94,0,0,1-2.37-2l2.37.5.24-.25c-.39-1.16-.79-2.32-1.19-3.49l2.38-.74c.19-1.37,0-2.69.48-3.74,2.31-.14,9.93.37,10.45-.75,0-.28.69-.64,1.43-1.49l-.24-.5c-1.29-.31-2.07-.62-2.61-1.75l-.71,1c-.08-1.06,0-1-.48-1.49,0,0-19.93,2.81-21.39,3.48l-3.81-2c-.55-2.33-1.11-4.65-1.66-7l1.19-.49-1.43-1.25c.2-2.94,1.93-5.36,1-7.73l-2.85-2.74c-.82-2,2.94-7.78,4-8.47,1.53-.82,2.74-2.7,5-2.49-.77-3.28,3.1-5.4,5.47-6.23l.71.25c-.46,1.68-1.28,2.42-.47,4.24,2.93.35,4.72,1.46,6.89,2l.48-.25c-.55-1.81-2-2.25-2.86-3.74l2.38-1.24a2.56,2.56,0,0,1,1.19,1.74c1.33-.71,2.47-.37,2.85-2.24-1.48-.68-1.52-1-2.37-2.25-2.7,1.7-3.85-1-7.14-1.49l.24,1.74c-3-.67-4.16.79-5.94,2l-2.14-.75c-.48,1.09-.87,1.25-1.9,1.74-2.69-.3-2.54-1.54-4-2.74a30.47,30.47,0,0,1-3.33,0,25.93,25.93,0,0,1-.95-3.49l2.14-2c1.74.44,2.06,1.65,2.85,3l.48-.25c0-2.66.75-2.17,1.19-4.48l-1.43-1c-.86.69-1.2,1.24-2.14,1.24l-.24-1.49-1.42.25c-.32-.91-.64-1.83-.95-2.74h-1.67v.25a3.72,3.72,0,0,1-2.14,3.73c-1.43.83-3.76.6-5.47.75-1.3-2.35-2.76-4.18-2.85-7.72.51-1.11.58-1.42,1.9-1.75-.08-.33-.16-.66-.23-1-1.57.13-3.24.28-3.81-.75,1.1.15,1.4.34,2.14-.25-1.12-3-1.53-5.2-3.33-7.23,1.15-.53,2-.39,2.62-1.49,1-2.81-1.55-4.47-1.9-7h.23a3.39,3.39,0,0,0,.72.75c.28-1.12.06-1.31,1-1.25-1.33-1.4-4.12-1.09-5.71-.25.35-2.67.67-2.73-.47-4.48l.47-.5a15.73,15.73,0,0,1,6.18,4.24l.48-.25c.35-3.66,3.16-3.13,3.56-6.73a2.36,2.36,0,0,0,1.91.25v-.25a2.16,2.16,0,0,1,.23-2.74l-1.9-.25c.52-1.76.92-3.23,2.14-4.24,1,.57,1.16,1.49,1.67,2.5l2.61.49-.48-1.74c1.69.27,1.9,1,3.33,1.49l-1-2.24.24-.25,2.14.75.24-1.25,3.56.75.72-.5-.24-.5a3.41,3.41,0,0,1-2.14-1.24l.24-.75c1.44.4,1.69.45,2.85-.25.68-2.36,5-5.41,7.37-4.73,1.06.45,1.18.68,1.42,2a4.93,4.93,0,0,0,1.67-.75c-1.12-1.42-3.27-2.15-2.85-3.73H603l2.14.25c1.18,1.06,1.16,2.68,3.09,3,2.47-.64,4.22-.86,5.47-2.74-3.59.38-5.56-1.27-7.84-2.24l2.37-2.74-2.61-.5a6.91,6.91,0,0,1-1.19,3h-2.85l.24.5.71.5-.48,1h-.23l-1-.25c-1.07-.51-1.27-1.08-1.91-2l.48-.74,2.14-.25v-3.49l2.38,1.24c.07-.41.15-.83.23-1.24-1.33-.12-1.81-.34-2.37-1.25l-.24-1.24c1.74-1.74,3.76-1.11,5.94-2.25v-.25l-.24-.74-1.66.24,1.9-1.74c-2-3.08-4.37-1.86-7.61-2.49,0-2.23,1-2.13,2.38-1.5a7.06,7.06,0,0,1-1.66-4.23c1.5-1.59,2.69-.94,5-1.5v-1.24l-1.9-.5.47-1.25.48-.25c4.66.22,8.45,2.18,10.22,6.23a4.52,4.52,0,0,0,3.8-.5v-.24L618,746h.47c2.34-.88,3.35,1.62,5.71,2,.92-1.21,1.88-1.49,2.14-3.48l.71.24,1,1.75a9.49,9.49,0,0,1,3.57-1c1.56-2.26,3.35-5.8,3.33-8l1.18.5c.48-2.27,1.54-4.42,3.33-5.49-2.61-.55-4.54-1.37-6.65-1l-.72-2.24,1.19-.75c1.46.5,2.65,2,4.52,1.24.49-.33.38-.27.71-.74v-.25l-2.38-.25a3.08,3.08,0,0,0-.47-2.24l-1,1.49-.71-.5v-.25l2.61-7c1.69-.91,2.49-1,3.8,0l1.19,1.74.48-.25.24-.75c-.26-.3-3.53-5.84-3.57-6,5.14,1,4.78-.28,7.84-3.48H647c.69,1.73,1.15,2.51,3.56,2.49,1.22-.91,1.51-2.3,2.62-3.24l2.61,2,1.43-2c1.1.39,1,.49,1.19,1.74l-1.43.5.24.5h.48c2.07.77,3.41-1.15,5.46-.75-.91-2.57-4.3-1.93-5.46-3.74-.6-1.43.1-3.06.47-4.23h-5v-.25l.48-1.75c1.18-.35,1.56-.1,1.9-1.49l-.72-1.25c1.07.37,2.33,1.07,3.33.75a2.9,2.9,0,0,0,2.14-1.49v-.25c-.9-.48-.49-.11-.71-.75,2.24-.61,2.7-1.54,4.28-2v-1.5h3.32l.24.5a2.43,2.43,0,0,0,0,3l.72.25,1.18-.25.24-.25c-.33-1.22-.67-1.26-.47-2.49h.23l.95.5v1.74l6,1,.71-1c-1.71-.1-5.79-4.22-6.18-5.48l2.61.75a11.28,11.28,0,0,1,2.62-7.48c.79.67.67.76,1,.75l1.19-1c1.29.31,1.52.82,2.37,1.5l.72-2c2.15.71,4.55,2.15,6.89.75l3.57,2.25-.24-.75,2.14.5.24,1.74c2.66-.71,1.79-2.79,3.32-4.49l1.19,1-.71,1a4.73,4.73,0,0,1,4,1.74c-.35,1-.88,1.62-.71,2.49l1.66-.49c.24.6,4.84,5.62,5.71,6.72l1.9-1c-.55-1.88-.35-4.13-1.67-5.24-.64-.83-.09-.55-1.18-.49l1.42-1.5c-.46-2.42-.49-3.73,1-5.23v.5l.48,2c1.08-1.68,2.83-2.41,3.32-4.49-.88-.85-.55-.42,0-1.49,2.43-.72,4.57-.36,6.9-1.5l-1.19-.74c.59-1,.74-.62.24-1.75,2.49.9,2.46,1.44,5.47,1.5l-.72-2.5a13.33,13.33,0,0,0,5.47.25v.25l-.24,1a5.06,5.06,0,0,0-2.85,1l.24,1.5h1.19c4-1.62,2.43-3.09,4.75-5h2.62c.13,1-.26,1,.23,1.75,1.2.57,1.9,1,2.86,1.49l-.72-2.74H738c1,1.19,1.69,2.06,3.09,1.5.31-1,0-.52.71-1v.5l.48,3.24c1.37-.93,1.64-1.9,3.33-1.25L745.4,676l2.14,1a2.94,2.94,0,0,1,.71-2.25l3.57,1V677h.95l.23-2,4.28.25,1.19-3,2.14.5.48-.25v-1.24h-.24a1.82,1.82,0,0,1-1.67-.25l.24-1.75.72-1c1.25.76,1.46,1.68,2.37,2.74h.24l.24-2.25.71.5.24.75.71-1.25.24.5.24,2h.24a9.29,9.29,0,0,0,5.7-3.24v.49l.48,2.5,1.19-.75c.2,1.3.24,1.27,1.18,1.74,2.86,1,2.94-.67,4.76-1.24s2.31.58,3.8.5l1.43.24v-1c2.25-.23,3.66,1.54,5,3L787.24,675l.23.5c.87.16.72.1,1.19.5l-2.61,5,.71.75,1-2.24H788l1.19,1.24v1l-2.14,1c.08.5.15,1,.23,1.49.67,1.4.9,1.14,1.91.5.31-.5.63-1,1-1.49.64.39.32.08.71.74a3.51,3.51,0,0,1-1.43,4.49l.48.25c2.43.78,3.67-1.13,5.47.75,2-1.86,3.51-2,6.65-3v-1a3.7,3.7,0,0,0-1.66-2h-.24V686l-1.66.25c-3-2.13-2.26-4.93-6.66-6,.24-.5.48-1,.71-1.5h.24c1.7.26,1.63.88,2.62,1.75l1.66-.25c-.39-1.53-1.26-1.13-.24-2.25l1,.75.24,3.24,3.8-.25.24-.25-.71-1.74.23-.25c3.78.82,4.44,3.67,6.18,7,.77-.2.52-.72,1,0,.47,1.29-.15,1.9-.72,2.74l1.91.5v-1.5a5.05,5.05,0,0,0,2.85-1.49c-.43,1.56-1.27,1.81-1.43,3h1.19c1.56-.51,2.62-.79,3.09-2.5h5l-1.9,1.25a3.61,3.61,0,0,0,.71,2.49h.24a2.8,2.8,0,0,0,1.66-.75l.48,2v-.5c.24-.5.48-1,.71-1.5h.24v1.25l.71-.25c.32-.66.64-1.33.95-2l1.19,1c.46.76,0,.41,1,.75l.48-.25c.24-.5.48-1,.71-1.49l.48.25c.17,2,.21,2.9-1.19,2.74a1.93,1.93,0,0,0,1.66,1.49c.22-.87.69-1,1.43-1,.24,1.08.48,2.16.71,3.24-.8.48-.7.39-1,1.49H830c.24-.33.48-.66.71-1l.24,2.25,2.85-.5c-.2-1.38-.57-1.6,0-2.49l.48.25c.74,3.2,2.34,3.9,4.51,5.48-.23,1.08-.47,2.16-.71,3.24l.95.75c1.51-.66,2.63-1.39,4-.75l.48,1.24-1.43,1.25.72,2.74.95-.5,1-.74a1.49,1.49,0,0,1,.24-1.75c1,.82,1.39,2.33,3.09,3l-.48-1.74.95-1.75h1c-.38,1.82-.72,2.4.48,3.49a9.6,9.6,0,0,1,4,1.25c0,.1,1.15,6.18,1.19,6.23l1.18,2c1.77-.64,1.52-2,3.33-1.25l.48-2.74c1.74,0,1.3-.2,2.38-1.24l3.09,1.24c.39-.9.06-.58,1-1l2.61,1.24.24-.75-.24-.49-2.14-1a3.23,3.23,0,0,1,2.38.25c.16,1.49.32,3,.47,4.48h-.23l-3.57-1.49-.47.25c-.28,1.92-.94,3.86-.48,5l2.85,1.5-.24.5a29.59,29.59,0,0,0-4.75.24,4.59,4.59,0,0,0,.24,3.24l2.85.25.24,1.75A9.34,9.34,0,0,0,874,726.1l1,.75c1.45-4,3.82-6,6.65-8.23l-.24-2h.24l.95,3-1.9,1.25.24,1.24,4.28-.5c.1,1.46.07,1.16,1.42,1.75l.72-.25.23-1.5,1.19,1v2.74l2.38-1.74a5.08,5.08,0,0,0,.95,2.74c-2,.33-3.65,1.4-3.8,3.74h.24v-.5c.31-.34.63-.67,1-1a3.5,3.5,0,0,1,2.61,1l-.24,2,.24.25.48-.25c.24-1.93.8-2.94,2.13-3.74l.72.25c-.4,1.54-.46,1.81.24,3l.47.25,5.94-1c-.64.93-1,1.12-.71,2.5l-1.43-.25v1.24a13.83,13.83,0,0,0,2.38,4.24v.25h-2.14c2.2,1.43,4.31,2,6.18,3.49l-.23-1.25a4.74,4.74,0,0,1,1.9,2l-.24,1.5h-.24c-.23-1.39.07-1-1-1h-2.85c-.07,2.21-.67,2.13-1,4,1.29,2.22,2.75,4.83,5.23,5.73l-.24.5-4.28,1H904c1.35,1,2.81,1.13,3.56,2.75.53,1.64.27,2.09,1,3.73L907,761c.07.25.16.5.23.75l.72.5,1-.75-.24,1.75,1.9-.25c-.07,1.75.65.91,1.43,2.24-1.24.1-.95-.16-1.43.75,2.63,1.1,3.47,2.55,5.71,4.23h-.48a3,3,0,0,0-.71,2.24,5.24,5.24,0,0,0,1.66,1.75c1.59-.72,2.44.39,3.33,1.74-.86.16-.72.1-1.19.5a26.38,26.38,0,0,0,1.19,6,12.63,12.63,0,0,1-3.8-3v-.25c1.26-.29,1.35-.51,1.9-1.49l-.48-.5c-3.07,1.29-4.63,3.26-7.13,5a3.31,3.31,0,0,0,.95,2.49l4.28,1c.38-.49.31-.34.48-1.24l1,.74c1.74,5.43,3.64,5.14,9.27,6l.24.74c.37.93.19,1.22-.48,1.75.24.49.48,1,.71,1.49,1.73-.34,2.66-.87,3.57.5-.62,1.22-.26,1.45-1,2.49a17.63,17.63,0,0,0,6.42-.75v1c-.91,3.18-2.47,5.14-2.62,8.47,1.08,2.46,1.73,2.5,4.52,3.24-.08,2.33-.79,2.62-1.9,3.74.39,1.41.79,2.82,1.18,4.24,2.72.31,4.54,3.87,6.66,5,1.23.65,2.88.26,3.8.75,0,1.05-.46,1.45.24,1.74l2.62.5v1.25ZM783.91,668h.47c-.33.48,0,.15-.47.49Zm-9.51.74.24.75h-.24Zm1,.5h.71l.72,1-.95-.25Zm13.31.25c.49.45.17,0,.48.75h-.48Zm-14,.25a1.32,1.32,0,0,1-.48,1.25l.48-1.25ZM768.46,671v1h.47Zm-5.23,2.24c1.27-.06,1.3-.09,1.9-.75l-.72-1h-.23l-.95.24v1.5Zm-17.59-1.5c.64.4.32.09.71.75a1.72,1.72,0,0,1-.71-.75Zm9.5.5a4.84,4.84,0,0,1,1.67,1.75h-1.43c-.19-1-.31-.94-.24-1.75Zm-23.29.25c.83.46.64.21.95,1.25-.87-.27-.7-.21-1.19-.75Zm15,0v2h-.71v-1Zm14.5.25.24.75.72-.75h-1Zm12.37,0-.24,1.25h.24l.47-.25c-.22-.91,0-.51-.47-1Zm5.46,0-.23,1,.71-.75Zm3.33,0L783,674h.23l.95-.5-.47-.75Zm-46.11.75Zm-10.7.25Zm32.8.25-.71,1v.25L759,675c-.22-.91,0-.51-.48-1Zm3.57,0c.43.51,0,.17.71.5-.43-.51,0-.18-.71-.5Zm-29.24,1,.24,2c-1.13.76-2.59,1.53-3.33,2.74L730,681l2.14-1.49v.25l-.48,1h2.14v2l.71-.5a11.94,11.94,0,0,0,0-5.73Zm41.84.5Zm-25.2.75a1.64,1.64,0,0,0,.71,2l.48-.5c-.29-1.16,0-1.12-1.19-1.49Zm13.55.25v1.24l.71.25v-1Zm-33,.5c.72.31.28,0,.71.5h-.24Zm28,0,.47,1h.24v-.25Zm-11.65.5a3.87,3.87,0,0,1-1,2.24c1.41.1,1.29.16,1.9,1l.48-.24.47-3Zm26.15.24-.24,1.25c.62-.49.62-.37,1-1.25Zm-35.42.25.47.5Zm14.26,0v.75l.71-.5Zm52.53.25c.49.45.17,0,.48.75h-.24l-.47-.25c.08-.16.16-.33.23-.5Zm-70.36.25,1,.75-.23.5h-1Zm20.92.25L754,679v.75l.71.25h.24c.08-.25.15-.5.23-.75Zm-18.3.5c0,1.07.06,1.2.47,1.74l.24-1.24-.71-.5Zm-25,.25h.71v.25l-.71.25Zm10.22,0-2.85,2.24,2.38-.25,1.18-.75c-.19-1.23.16-.74-.71-1.24Zm85.58.25c-.06.36.09.25-.24.75.08-.25.15-.5.24-.75Zm-80.11.25.47.25Zm-21.63.5c1.57.33,1.91,1,2.14,2.74h-1l-.48-.25c-.24-.83-.48-1.66-.71-2.49Zm18.06,0,.48.49Zm20.44,0-.23,1h.23Zm-29,.24-.24,1.5c1.15.72,1.43.71,1.19,1.74h-.48l.24.5,3.09-.25-.24-.74Zm9.5,0,.72,1c.86-.16.72-.1,1.18-.5l-.23-.5Zm65.61,0h.48l-.48.5Zm-50.63.25-.24.5.48-.5Zm64.18,0-.95,1.25c.9-.44,1-.53.95-1.25Zm5.7.5h.48l-.48,1c-.15-.17-.31-.33-.47-.5v-.25c.16-.08.32-.16.47-.25ZM701,681.74l1.19,2c-.95.36-1,.36-1.43,1.25l-1-.5v-2.24c.86-.16.72-.1,1.19-.5Zm2.38,0h.95l-.48.5c-.16-.17-.32-.33-.47-.5Zm103.16,0h1V682c-.46.6-.15.4-1,.75l-.24-.75Zm-79.87.25-.24.5.24.25.48-.5V682Zm-44.69.25.71.5Zm28.76.25.72.75-.72-.25Zm33.52,0,.24,1.24h.95l.24-.74-.24-.5Zm-9.75.5c.34.48,0,.15.48.5ZM802,683c.48.52.24.34,1.19.5-.47-.4-.33-.33-1.19-.5Zm-104.35.25.24.49Zm101.74,0,.47.25-.47-.25Zm-118.14.49h.47c-.41.25-.05.23-.47,0Zm59.9,0-.48.25.48.75h1l.71-.75h-.47Zm-14.5.25c-.21,1-.53.4.24,1.25.52-.51.44-.34.71-1.25Zm7.61,0-1.43,1.5.24.5h1l1-.75v-.75Zm76.54,0c.5.52.39.44.47,1.5l-1-.5.48-1Zm-96.27.75-.24.5.24.25.47-.5v-.25Zm84.14.25v.75h.72v-.25Zm-107.44.25.95.5-.47.25-.72-.25.24-.5Zm40.65.25.47.25Zm-39.46.25c.49.45.17,0,.48.75h-.48Zm7.85,0,1,.5-.24.5Zm14,.5c0,.83-.22.57.24,1.24l.47-.74Zm88.43,0-1,.74.23.75h1.67c.08.5.16,1,.23,1.5h.24v-2l-.24-.74Zm-6,.25.72.49C796.77,686.84,796.29,687.17,796.74,686.48Zm-112.67.25v.74l.24-.74Zm141.91.49c.63.5.47.28.71,1.25H826Zm-102.92.25v.75h.47c-.3-.75,0-.3-.48-.75Zm-66.56.25.71.75C656.57,688.07,656.88,688.38,656.5,687.72Zm21.87,0c.15.33.31.67.47,1h.95v-1Zm126.93,0c.46.76.05.41,1,.75v-.25Zm-146.66.75c1.14,1.13,1.3,3,2.61,4a7.25,7.25,0,0,1,2.14-1.75v1a10.24,10.24,0,0,1-1.9,2l-1.66-.5-.48,2.25-1.9.49c.39-1.17,1-1.39,1.66-2.24l-1.19.5a6.77,6.77,0,0,0,.24-3.24l-1.66-.5.24-.5,1.66-.25Zm173.52,0h.72v.25l-.72.25Zm-20.44.25.95.75-.95-.25ZM676.46,689v.75h.48C676.64,689,676.94,689.42,676.46,689Zm10.94,0-.95.75,2.14-.25V689Zm-15.45.5c.72.48.38,0,.71,1h-.24L672,690v-.49Zm53.48,0,.48.49c-.33-.47,0-.14-.48-.49Zm-20.68.25h1l-.47,1.24-.48-.25v-1Zm98.41.49-.24.5h.48l-.24-.5Zm-115,.25-.24.75h.72v-.75Zm123.37.25c.08.95,0,1.08.95,1.75l.48-.5-1.43-1.25Zm-121.23,1c.19,1.1.14.92.71,1.49l.48-.25v-1Zm-26.15.75c.72.31.29,0,.72.49h-.24Zm167.82,0c.49.33.39.27.72.74l-.24.5-.48-.25v-1Zm3.57,0c.72.48.38,0,.71,1Zm-2.14.25.24.49-.24-.49Zm-159.26,1,.47.25Zm3.09.25-.48,1h.95l.48-.25v-.25Zm150,.25v1.25l.24.25.47-.25V694.2Zm-21.39,1.25c.15.33.31.66.47,1-.16-.33-.32-.66-.47-1Zm-84.39.74a3.39,3.39,0,0,0,0,3.74l1.19.25.47-1.74-.23-.5-1.19.25c.27-1.31.67-1.25-.24-2Zm85.81,0a2.09,2.09,0,0,0-.71,1.5,2.14,2.14,0,0,0,1.66-1Zm-84.15.5-.23.5.47-.5Zm108.87,0c.49.45.17,0,.48.75h-.24l-.47-.25.23-.5Zm3.09.25c.49.45.17,0,.48.75H835Zm-26.38.75.24,1.24h.23v-1.24Zm-84.86.25v1l.47-1Zm44.45.5v1l.47-1Zm70.12,0,.71.25c-.07.16-.15.33-.23.49l-.72-.24ZM719,698.69c0,.83-.22.57.24,1.24h.24l.24-1.24Zm115.76,0Zm-126.69.25.95.24Zm120.52,0v.74l.47-.5-.47-.24Zm-164,.25.71,1.24h.24v-1Zm7.84.49c.46.76.05.41,1,.75l-.47-.75Zm126.94,0-.24.5.48-.5Zm-122.42.75Zm158.79,0,.23,1.25,1,.25.23-.75c-.15-.25-.31-.5-.47-.75Zm-4.76.25.72.5c-.43-.51,0-.18-.72-.5Zm1.67,0v2.24c1.79.19,1.57.66,2.37,1.75v-.5a1.83,1.83,0,0,0-.47-2.24,2.24,2.24,0,0,0-1.9-1.25Zm-108.87.5v.75l.47-.5Zm-54.2.5,1.19.49c-.47-.39-.33-.32-1.19-.49Zm-12.84.25v.49c.24-.43.22,0,0-.49Zm4.52.49v1h.24l.47-.5Zm8.56.25.71,1.25h.24c-.33-1-.23-.74-1-1.25Zm136.44,0-.24.75h.72l-.48-.75Zm-86.29.5.24.75.48-.25Zm119.33,0H840l-1,.5.24-.5Zm-184.93,2.74,1.66.25v.5l-1.19.25.72,2.49a2.36,2.36,0,0,1-1.67-1.25l-.47.25c-.69,3-3.56,3.07-6.42,2.5l-.24-.5v-.25c2-2.1,5.27-2.43,7.61-4.24Zm19.73,0a3.1,3.1,0,0,0-.24,2.49c1.16-.2,1.09-.27,1.66-1l-.23-1.25Zm165,0c-.15.25-.31.5-.47.75l.95-.75Zm-88.42.5v.75l.71.25v-1Zm100.07.25.24.5h-.47c.07-.17.15-.33.23-.5Zm-44.45,1Zm4.76.25v1l.47-.5-.47-.49Zm-60.86.24c0,1.52-.14,1.58,1,2v-1c-.38-.64-.29-.6-1-1Zm-90.09.25c.47.52.09.26,1,.5Zm6.66,0-.24.75,2.38.5A3.35,3.35,0,0,0,666.72,708.4Zm9,0-.24,1C675.88,708.83,676,709.1,675.75,708.4Zm115.76,0v.75l.24-.75Zm-42.55.25-.23.75C749.05,708.87,749.16,709.27,749,708.65Zm63,1-.48.75v.25h.71l.24-.75-.47-.25Zm-166.16.25h.48c-.34.48,0,.15-.48.5Zm29.24.75a3.08,3.08,0,0,0,.71,2.74l.48-.75v-.75c-.39-.85-.39-.83-1.19-1.24Zm165,0c0,.92,0,.83.72,1.49.52-.51.45-.34.71-1.24H841Zm-181.13.49c.86.45.29-.13.72.75h-.24l-.48-.25Zm11.89,0a4.73,4.73,0,0,0,.71,4h1.19l.48-.5v-1.24c-.73-1.23-.71-1.92-2.38-2.24Zm195.15,0c1.29.25,1.17.22,1.43,1.5h-1.19l-.71-.5c.16-.33.32-.66.47-1Zm-1.42,1.25.71.5h-.71v-.5Zm-218,.25a3,3,0,0,0-.71,2.49l2.38,1,.71-1c-.59-.91-1.23-.51-1.66-1l-.72-1.5Zm173.77.5.47.25-.47-.25Zm-7.14.25.24.75.48-.5-.72-.25Zm22.11.5.48,1c-.22-.91,0-.51-.48-1Zm50.16,0c.08.16.15.33.24.49h-.48l.24-.49Zm-81.3.25-.24.49h.48l-.24-.49Zm66.32.24.24.5Zm-139.29.25c-1,1.27-1.18,3.84-.72,6a1.89,1.89,0,0,0,1.67-.49c-.76-2,.37-2.42,0-5Zm80.58,0,.24.5c.07-.16.16-.33.23-.5Zm-157.13.25-.71,1.25c1.07-.35.86-.13,1.19-1.25Zm153.56,0-.24.75h.72l-.24-.75Zm5.47,2.49h1.43l1-1.24-.24-1.25h-1l-1.19,1.25Zm-163.54-2.24c-.28,1.38-.56,1.74.24,2.49h.23l.24-.74a5.48,5.48,0,0,0-.71-1.75Zm29.47.25-.47,1.25c1.15,0,1.18-.38,1.43,1.24l.47-.25-.24-2Zm-36.13.25-.71.5v.75l.95.25v-.5C643.76,715.9,643.93,716.21,643.42,715.63Zm233.19.25c.44.64,0,.39-.47.75.15-.25.31-.5.47-.75Zm-68.46.25-.23.25.23.5.48-.5-.48-.25Zm2.86,0,1,.75v-.25l-1-.5Zm57.28,0-.23.75c.49-.57.27-.1.23-.75Zm10.46.25.24.5-.24-.5ZM638,716.63h.95l.23.5-.47.74-.71.25-1.19-.25v-.25l.23-.49Zm247.92,0h.72c-.37,1,0,.61-1,1Zm-222.73.25-.71,1.74.71-.25.72-1-.48-.5Zm140,0,1.19,3.24c.73-.38.76-.28,1.19-1v-.75c-.49-1.18-.77-1.44-2.38-1.49Zm79.87,0h.48c-.42.24-.06.22-.48,0Zm-65.37.25a3.72,3.72,0,0,0-.47,2.24l.95-.25c.23-.58.47-1.16.71-1.75Zm-8.79.24-.48,1.75c.24.41.48.83.71,1.25l.48-.25c.1-1.48.19-2.22-.71-2.75Zm6.89,0v.5c.23-.43.22,0,0-.5Zm-146.66.25-.24.5.95-.5h-.71Zm156.64,0,.48.75-.48-.75Zm-93.18.25.24.75c.49-.45.17,0,.48-.75Zm-5.46.25.71.75a1.83,1.83,0,0,0-.71-.75Zm-72.5.25-.24.5.47.25.48-.25Zm230.57,0c.2.79.07.79-.24,1.5H884l-.71-.75v-.25l.24-.25Zm-233.9.25v.5C651.5,718.68,651.48,719.06,651.27,718.62Zm209.89.25-.47.25v1l1.9.74v-.74l-.72-1Zm-226.77.25,1.43.5v.25l-1,.74c-.66-.68-.61-.51-.48-1.49Zm85.81,0v.75h.48c-.3-.76,0-.3-.48-.75Zm148.57,0,.24.5-.24-.5Zm18.78,0c.72.31.28,0,.71.5H888Zm-236.52,1v1.24l.71-.5Zm2.14,0-.48,3.23,1.67-.74,1.9,1.74c-.5,2.42.44,5.25,1.43,7.48a3.64,3.64,0,0,0-3.09,2.74c1.88.12,1.95.71,2.85,1.74-.25,3.49-2.72,4.12-3.33,6.73-.48,2.05.81,2.13.48,3.74h.23l1.91-1.5.47.25v1l-1.9,2.24c3,2.48,7.05.88,9.27,4.24.93-.76,3-2.55,5-2.25-.61-3.57-1.9-8.38-1-11l-1.9-1.49-.48,1.24-.47-.25-1.19-1.74.48-1.25c3.74-.86,5.21,1.42,9,1.75-.45-1.54-1.32-1.48-2.38-2.25l.24-.74c.67-1,1-.83,2.14-.75-.52-1.61-.81-4.39-1.9-5.48-1,.63-.3.63-1.43,0a20.12,20.12,0,0,0-5.47-7.48c-.11,1.24-.11,1.14-.71,1.75-1.51-.55-1.57-1.37-2.62-2.25l-.23,1.75v-.5c-.32-.5-.64-1-1-1.5v3c-2.38-2.53-5.12-1.37-7.61-3.49Zm199.43,0,.24,1.24-.24-1.24ZM725,720.36l.47.25Zm163.54,0,1.19.5v.25l-.72.25-.71-.5.24-.49Zm-255.3.25.72.5Zm3.81,0c.15.34.31.67.47,1-.22-.91,0-.51-.47-1Zm221.06,0-.24.75.24.25.48-.75Zm-189.21.25.24,1h.71C669.43,721.08,669.59,721.27,668.86,720.86Zm81.77,0,.47,1.5.48-.25v-.25l-.24-.75Zm115.52,0h.48l-.72.5Zm-221.3.25-1,1.25.24.75c.42,1.15.69,1.21,1.66,1.74l1.19-.25.24-.75a2.5,2.5,0,0,0-.24-2.49c-1.22.46-1.27.38-2.14-.25Zm212.27.75-.24.5C857.32,722.05,857,722.14,857.12,721.86Zm-218.69.25.24,1.74.71.25.24-.74-.24-.75-1-.5Zm10,0c.52,1.2,1.17,1.52,2.61,1.74l.24-1a13.76,13.76,0,0,1-2.85-.75Zm127.64,0-.71,1.25C776,722.78,776.07,722.76,776.06,722.11Zm-48.25.5c.46.75.05.4,1,.75v-.75Zm132.88,0v.75h.47Zm17.11,0ZM675,722.86c.12,1.59-.17,2.39.24,3.49h1.18l.95-1.25v-1Zm76.78,0,.23,1.74.48-.25v-.25Zm-115.29.5.48.74C636.71,723.35,637,723.8,636.53,723.36Zm237.47,0c.48.44.17,0,.47.74H874Zm-126.7.49-1.9,1.75.24.5h1.42c-1.06,1.46-2.15,2.3-2.37,4.73l1.42.75h.24c.46-2.77,1.87-4.81,1.43-7.73Zm17.12,0v.75l.47-.5Zm-84.87.25a20.64,20.64,0,0,0-2.61,4.24l.24,1h.24l1.42-.25.24-3.74c.67.27.35.21.95.25-.07-1.06,0-1-.48-1.5Zm112.44,0-.24,1h.71Zm66.56,0c.51.74.15.67,1,.5l-1-.5Zm28.52,0-.24.5C887.32,724.38,887.1,724.61,887.07,724.1Zm-158.31.25v.5c.23-.43.22-.05,0-.5Zm15.45,0,.24.5c-.1-.23.19-.17-.24-.5Zm138.34.5.48.25-.47-.25Zm-240.32.25-.71,1,.48.49.47-.24Zm11.89.25-.48,1.49c.8,1.31.91,2.08,2.62,2.5l-.24-.75Zm12.84,0Zm-21.4.25-.47,2,1.19-.5v-.25Zm4.52,0,.24.5c-.1-.24.19-.17-.24-.5Zm158.55,0v1h.24Zm-141.44.75.72.49h-.72Zm92.47,0-.24.74.48.25h.47l.24-.5Zm-110.29.24-.24,1.75h.24l.47-.75c.31-.68.11-.48-.24-1Zm206.56,0-.23,2,.94-.25.24-.75Zm37.8,0h.47l-.23,1.25h-.48Zm3.8.25a1.86,1.86,0,0,1,0,1.75l-.48-.25v-.25l.48-1.25Zm-153.79.25.23.5c-.1-.23.19-.17-.23-.5Zm-100.55.25.47,1,.48-.25v-.25Zm97,0,1,2.49h.24c2.64-.27,1.21-2.63-1.19-2.49Zm145.71,0-.23.25,1,1h.71c-.34-1.18-.18-1-1.43-1.25Zm5,0h.47c-.33.48,0,.15-.47.5ZM675,727.59c.16,1,.32,2,.47,3l1.19,1,.48-.25v-.25C676.76,729.73,676.23,728.21,675,727.59Zm-33.76.25.72,1.25h.23C641.93,728,642.1,728.31,641.28,727.84Zm131.69,0c-.54,1.09-.59.83-.23,2l-1.19-.5-.48.25v1l1.19,1.25-2.38,2.49.48.75c2,.35,1.85,1.11,2.38,3,1.84-.1,3.48.54,3.56-2-.83-1.62-2.08-1.9-3.09-3.24l.24-.25a1.77,1.77,0,0,0,1.66-.24c0-2.29-.76-3.62-2.14-4.49Zm108.87,0c-1,.87-3.32,1.65-4,2.74-3.21,4.85,1.06,4.52-5.23,8.47l.24,1.25,3.56,1.49,6.9-.74c1.35.23,2.27,1.08,3.8.74v-.24l-2.14-1.75c.35-2.27,1.41-1.77,1.67-4.23-.32-.75-.64-1.5-1-2.25a13.5,13.5,0,0,1-4,2.25c-.28-1.23.35-1.24-1-1.75l1.19-3.74h.24v.5l.95,2.49,2.14-1.49c-1.1-1.78-.24-3-3.33-3.74Zm-213,.25h.71l-.47.75h-.24Zm98.41.25-1.19,1.49,2.61,3.74h.24l-.24-5.23Zm-.24.5.48,1h-.24Zm114.58,0c1,.38.58-.05.95,1h-.95Zm14.26,0c.83.45.64.21,1,1.24l-.72.25-.47-.25Zm-242.46.25v1.24c.86-.16.72-.1,1.19-.5l-.72-.49Zm246.5,0c0,.36.1.25-.24.74Zm-269.32.25.23.49Zm3.09,0-.72.74c.9-.48.86-.17.72-.74Zm226.29.25-.47,1,.47.25.48-.25v-.25c-.3-.75,0-.3-.48-.74Zm-201.81.24c.49.45.17,0,.48.75Zm-19,.25-.71.75.48.75c1.08,0,1.36-.05,1.9-.5a1.79,1.79,0,0,0-.72-.75Zm124.09,0,.23.75.48-.25Zm-23.06.25.48.5.47-.5Zm134.3,0c-.07.25-.16.5-.23.75.32-.53.43-.13.23-.75Zm-3.09.25.48,1h.24v-.25l-.72-.75Zm-20.44.25v.75l.72-.5-.72-.25Zm-107.2.25a6.46,6.46,0,0,0-.24,4.24,1.65,1.65,0,0,0,1-.25v-.5l.24-3.24Zm-82.73.25h1v.25l-.47.75-.48-.25v-.75Zm-30.9.25.24,1.24c-.42-.64-.38-.4-.24-1.24Zm21.16,0-1.19,2.49c1-.88,1-.8,2.38-1-.18-1.33,0-1.2-1.19-1.49Zm7.37.25h.47l-.47,1h-.24Zm60.85,0-.24,1.49.24.5.47-.25v-.5c.17-.91.3-.67-.47-1.24Zm-73.45.25c-1.31,1.86-4.06,4-6.89,2.74,1,2,4.51,2.76,4.27,5,2.35-.56,2.87-1.06,5.23,0-.78-2.19-2.28-3.9-1.9-6.73h1c-.49-.74-.64-.77-1.66-1Zm225.58,0-.48,2c1.13-.36,1-.19,1.19-1.5l-.71-.49Zm22.11,0c-.06.83-.22.57.24,1.24l.47-.25v-1Zm4,0,.24,1H896.1l.24.5,3.33.25-.71-1.74Zm-165.44.25-.48.74.71.5.72.25.47-.75-.24-.74Zm8.55,0c0,1.13,0,1.43.48,2l.95-1-.24-.75Zm-53.72.25-.24,1,.72-.75Zm201.1,0c.16.24.32.49.47.74H889v-.25l-.71-.49Zm-12.6.24c-.16.34-.32.67-.47,1,.7-.54.63-.16.47-1Zm2.62.25c.63.35.2.13,0,.75Zm-131,.25-.24,1.25h.72l.47-.25.24-.75v-.25Zm41.6,0,.47.25Zm15.21,0c0,.77-.23.35.24,1h.24l-.48-1Zm-169.24.25c1.24.11.94-.16,1.42.75l-.23.5h-.24C635,734.36,635.18,734.61,634.87,733.57Zm242.93.25c.84.58.73.69.48,1.75h-.95l-.24-.5.71-1.25Zm1.66,0c-.05.37.1.25-.23.75Zm-221.3.25,1.43,1.25c-1.57,0-1.59-.05-1.43-1.25Zm247.45,0ZM652,734.82v1.74l.71,1.25h1.19v-.5l.24-.25-1.19-2Zm66.32,0,.24.5c-.1-.24.19-.17-.24-.5Zm3.8,0c-1.15,1.37-2,.66-3.09,1.24v.25c1.76,1.83,4.65,3.25,5,6.48h-.24l-.72-.5c-.38-.85-.38-.83-1.18-1.24v.25c.77,1.84,1.47,3.72,3.56,4.23l.48-1.24c-.65-.4-.33-.09-.72-.75l2.38-.75c-.77-1.55-3-4.36-1-5.73-.25-.91-.19-.73-.71-1.25l-2.38,1c0-1.37.22-1.74-1.43-2Zm27.1,0c.1,1,.08,1,.48,1.49l.71-.74Zm-89.37.75c.57.43.39.25.71,1h-.24Zm24,0,.72,1.24C684.29,735.9,684.35,736.08,683.83,735.57Zm208.47,0,.24,1,.71.25,1.43-.75-.24-.5H892.3Zm10.7.24c1.45.09,1.31.1,1.9,1-.24.5-.48,1-.71,1.5a3.31,3.31,0,0,1-1.67-1.5l.48-1Zm-4,.25c.15.17.31.34.47.5-.33-.48,0-.15-.47-.5Zm-232,.75a1.91,1.91,0,0,0,1.42,1v-.75h-.47Zm54.67,0,.71.25v.75l-1-.5Zm162.11,0c.63.5.47.28.72,1.25h-.24l-.48-.25v-1Zm21.63,0h.72l-.48,1h-.24v-1Zm-193.73.25a2.26,2.26,0,0,0,.48,2h.24c1.07-.21.71,0,1.19-.74l-.24-.5Zm37.09.5-.72,1.49c1.72.07,1.76.47,2.86,1v-.25c-.32-.75-.64-1.49-1-2.24Zm-21.87.25.47.75C727,737.8,727.34,738.26,726.86,737.81Zm-39.22.25c0,1.14-.11.88.47,1.74l.48-.25v-.25a12.72,12.72,0,0,0-1-1.24Zm218.21,0,1.43.25.23.74h-.23c-.82-.32-1-.25-1.43-1Zm-255.06.5-.71.49.24.5h.23l1-.5Zm4.28,0-.24,1.49.48.25.47-1-.23-.74Zm15.21,0c.34.47,0,.14.48.49Zm64.66.49a3.66,3.66,0,0,0,1.43,3h.23v-.25A4.86,4.86,0,0,0,734.94,739.05Zm99.12,0,.48.5-.48-.5Zm-188.73.5.71.5c-.43-.51,0-.18-.71-.5Zm44.92,0Zm-10.93.25c.18,1.1.14.93.71,1.5h.24v-1Zm3.8,0,.48.5c-.34-.48,0-.15-.48-.5Zm53.48,0,.48,1,.47-1Zm5.71,0c-.29,1.51-.21,2.38.71,3.24v-1.25C742.52,740.87,742.89,740.44,742.31,739.8Zm52.53,0-1.42.75.23.5h1.9l.24-.75Zm7.85.25c.15.17.31.33.47.5-.33-.48,0-.15-.47-.5Zm-116.48.25-.48.75c.72-.32.54-.16.95-.75Zm222,0,.71.75-.48,1h-.23V740.3Zm-269.32.25v.75h.47c-.3-.76,0-.3-.47-.75Zm5,0v.75l.47.49.48-.49Zm148.8,0-.24.25.24.5.48-.5Zm-144.52.5.47,1h.24v-.25Zm107.68,0-.24.25a6.13,6.13,0,0,0,2.85,2.49l-.24-1.25-2.37-1.49Zm88.19,0-2.14,1.49c1.3-.19,2.22-.35,2.61-1.49Zm-98.18.25-.23,1.49.47-.25Zm2.62,0Zm97.7,0-.24,1.24c.52-.51.44-.34.71-1.24Zm-211.56.49.71,1c-.31-.95,0-.52-.71-1Zm232.47,0-.23.75c.32-.53.43-.13.23-.75Zm-84.86.25Zm-48.25.25.24,1.75.95.5.71-.5v-.75Zm20.68,0a9.42,9.42,0,0,0,.71,4.49l1.9-.5v-1c-.8-1.3-1-2.47-2.61-3Zm93.65,0c.43.51,0,.18.72.5Zm42.56.25a2.15,2.15,0,0,0,1.66,1v-.25l-.71-.5-1-.25Zm6.89,0c.16.25.32.5.47.75-.15-.25-.31-.5-.47-.75Zm-160,.25-.47,1,.47.5H738v-.5c.31-.68.11-.48-.24-1Zm72.26,0c.09.17.16.33.24.5l.24-.5Zm45.41,0L855,743v.5l.95-.25-.24-.5ZM749.68,743Zm65.13.25Zm60.85.25.48.25-.48-.25Zm25,0-.71,1c.16.58.31,1.16.47,1.74h1.19l.48-.25a3.56,3.56,0,0,0-.72-2.49Zm-291.42.25c.42.51,0,.17.71.5C609.48,743.78,609.9,744.11,609.2,743.79Zm81.77,0v1.49l.47-.25.24-.74Zm67.27.5c.42.89-.13.29.71.74Zm150.94,0h.71v.25l-.71.25Zm-61.8.25c.45.75,0,.4,1,.74V745l-1-.49Zm8.32,0-.24.49,2.14,1.25a3.2,3.2,0,0,0-1.9-1.74Zm-247.46.25c-.34.77-.28.21-.23,1.24l1.42.25v-.5l.24-.75-.24-.24Zm253.16,0,.71,1,.48-.25-.48-.75h-.71Zm-141,.24.24.5c-.1-.23.19-.17-.24-.5Zm74.16,0c-.15.42-.31.83-.47,1.25.55-.57.7-.45.47-1.25Zm-13.07.25-.24.25.48.5H782v-.75Zm-70.12.5-.48.25c.43.51,0,.18.72.5v-.75Zm-68.46,1-.72,1.49.48.5h.71l.24-.25c-.09-1.23,0-1.19-.71-1.74Zm152.61.25-1.19,1,.47.5c.73-.55.95-.58.71-1.49Zm-178.76.25h.48c-.33.48,0,.15-.48.49Zm2.62,0-.48.25.95.49v-.74Zm102.45,0,1.66,4.73c1.18-.31,1.32-.64,1.9-1.49l-.47-1c-1.63-.54-1.72-1.47-3.09-2.24Zm65.37,0c.09.94-.27.31.23,1Zm119.32,0c.86.44.28-.14.72.74h-.72Zm-54.9.25c-.09.33-.16.66-.24,1h.24l.71-.75v-.24Zm28,0c-.07.33-.16.66-.23,1l.71-.5-.48-.49Zm-123.13.24c.37.7.35.59.95,1l.48-.25-.48-.75ZM650.08,748v.74l.71-.74Zm258.62,0h.72v1.24h-.24l-.48-.25v-1Zm-124.08.24.71,2,.48-.25v-.25l-.24-1.25Zm12.36,0-.24.5c.49-.22.27,0,.24-.5Zm95.56,0L892.3,750l.71-.5v-.25C892.86,748.94,892.7,748.61,892.54,748.27Zm-282.16.25-1.18,1v.25A4.17,4.17,0,0,0,613,751a5.29,5.29,0,0,0-1.43-2.49Zm107,0a3.38,3.38,0,0,0,.95,2.49l.48-.24v-1Zm170.44,0c.07.25.15.5.23.75l.48-.5-.72-.25Zm25.19,0,.24.5-.24-.5Zm-266.23.25-.47.25.23.75H647c1,.47,1,.46,1.66-.25l-.71-.5Zm135.73,0,.24,2.24h.48v-1.24Zm-84.15.25.48.25Zm-83.19.25v.5c.23-.44.21-.06,0-.5Zm35.18,0-.48.25.24.75.71.25c.53-.52.45-.35.72-1.25Zm59.9,0c-.37.67-.45.55-1,1v.25c1.06.27,1.18.55,1.9,0a2.55,2.55,0,0,0-.95-1.25Zm93.18.25-.24,1.5.71-.5v-.25c-.15-.25-.31-.5-.47-.75Zm1.42,0,.48.75.48-.25-.24-.5Zm74.17,0c-.72.72-1.08.79-1.43,2h1L879.7,750l-.71-.5Zm-120.75.25-.24.75.71-.75Zm49.2,0a7,7,0,0,0-2.38,3.24c.26.91.2.73.72,1.24,1.33-.3,2.47.34,3.8.75a13.59,13.59,0,0,1,0-3.49l-1.19-.74c.82-.27.6.14.48-.75Zm92.23,0-.95.5,1.43,1c.82-.5.86-.39,1.18-1.49Zm-75.83.25-1,1.24.24.5h.24l1-.5c.49-.49.24-.09.47-1ZM700,750.27l1.19,1.74c-.55,1.07-1,.92-1.43,2.24l.24.25.71-.25,1.43-1.49-.48-2.24Zm156.64,0c-.07.25-.15.5-.23.75.64-.4.33-.09.71-.75Zm-249.59.25c0,1.36,0,1.77.72,2.74l1.19-.75C607.76,751.78,607.82,751.64,607.05,750.52Zm91.28,0,.48,2.24h.24C699,751.42,698.93,751.17,698.33,750.52Zm16.64,0-.23.74c.49-.57.27-.09.23-.74Zm111.25,0-.48.74c.91-.33.5,0,1-.74Zm-221.07.25-.47,1.24.71.5.71-.5v-1.25h-1Zm297.13,0-.47.49.47.5.48-.25.24-.74Zm-182.79.49-.24.25.48.5.47-.25-.24-.5Zm61.09,0c.4.62.14.3.71,0Zm-150,.25-.48.5.48.5.95-1Zm137.87,0,.23.5c-.1-.23.19-.17-.23-.5Zm11.17,0-.48,1c.61-.41.58-.31,1-1Zm-166.16.25v.75l.95.5.24-.75-.48-.5Zm54.67,0-.47,1.75h.24l1.19-.5v-.75Zm134.55,0c.15.17.31.33.47.5-.33-.48,0-.15-.47-.5Zm5.46,0c.72.32.29,0,.72.5h-.24l-.48-.5ZM715,752l-.23.5,1,.5-.48,2h.24l2.61-1A3.18,3.18,0,0,0,715,752Zm-97.69.25c.39.82.48.8,1.18,1.25h.24l-.24-1.25Zm101.26,0c0,1.57,0,1.62,1.19,2v-1Zm131.93,0,.23.75.48-.25-.71-.5Zm27.81,0-.24.25.24.5.47-.5-.47-.25Zm2.37,0c0,.83-.22.57.24,1.25l.72-.75Zm-188.5.25.48.5-.24-.5Zm131.45,0-.71,1.25,1-.25c.07-.86.29-.37-.24-1Zm-30.42.25ZM631.3,753l.24.5c-.1-.23.19-.17-.24-.5Zm26.15,0c.32.67.55.73.71,0Zm116.47,0v.75l.48-.5Zm22.82,0v3.49H797c.91-.33.5,0,.95-.75V754Zm87.24.25-.24.5.24.25.48-.5v-.25Zm-59,.25.71.25-.71-.25Zm-224.63.25.24.49Zm102,0c-.15,1.3-.48,1.2.72,1.74l.24-.75-.24-.74Zm51.82,0L754,755l.47-.25Zm38.27,0-.71,1,.24.5h.24l.47-.25Zm-31.85.49v1.25h.48Zm-74.16.25c.38.78.21.59.95,1-.39-.64-.29-.6-.95-1Zm-33.76.25-.23.25c.07.17.15.33.23.5l.48-.25V755Zm53,0,.48,1,.23-1Zm140,.25-.71,1.25c.08.25.15.5.24.74l1.18-1v-.25a3.13,3.13,0,0,0-.71-.75Zm-39.93.25-.72,2a2.15,2.15,0,0,0,1.67-1c-.42-.76-.14-.59-1-1Zm67.27,0-.48.75,1.19-.75Zm-146.43.25c.07.85-.17.54.48,1.25Zm29.48,0-.48.75v.25c1.07-.31.77,0,1.19-1Zm119.09,0c-1.06,1.49-3.68,3.44-2.62,6.23.32.51.27.4.72.75l1-.25c-.4-.42-.8-.83-1.19-1.25a2.35,2.35,0,0,0,.47-2.24l3.57,1v-.5c.49-1.38-.35-2.77-1-3.74Zm36.84,0h.48c-.43.89.12.29-.72.75Zm-121.94.25-.72,2c1.22.45.78.88,1.43,1.75.22-1.57.43-3-.71-3.74Zm34.23,0,.47.25-.47-.25Zm-36.85.25c-.08.16-.16.33-.23.5l.47.49.71-.49v-.25l-.95-.25Zm-38,.25-.24.5.48-.5Zm-62.28.25.24.74.47-.49Zm183.51,0c-1.2,1.13-2,1.6-2.14,4l.24.5h1l2.85-3.24v-1h-.47Zm41.6,0c.89.43,1.25.48,1.66,1.49h-.71l-.71-.25-.24-1.24Zm-300.46.25v.74c.16-.16.32-.33.47-.5l-.47-.24Zm86.29,0-.24.24.71.5.95.25-.24-1Zm14.5,0-.72,1.49.48.5.95-.75c-.24-1-.09-.75-.71-1.24Zm194,0c-.08.24-.15.49-.24.74l.48-.74ZM760.85,757c-.5.64-.49.38-.71,1.5l.71-.25.48-1.25Zm67.75,0c.08.42.15.84.23,1.25l1.67-.25-.24-.75c-.16-.08-.32-.16-.47-.25Zm-164.5.25Zm22.11.25-1.43,1,.48.75,1,.75c-1.08.42-1.05.29-1.19,1.74.87,1.42,5.21,4.25,6.89,5l.48-.49c-1.15-2.83-4.42-4.26-5.47-7.23l1.19.5-1-2Zm67.75,0-.24.75,2.61,2.49,4.52-.5V760c-.4-.42-.79-.84-1.19-1.25C758.07,759,755.4,758.08,754,757.49Zm20.2,0-.24.5.48.5.71-.25Zm50.63,0-.23.5.23.25.48-.5v-.25Zm-185.88.25-.95.5.47.75h.24l1.19-.75V758l-1-.25Zm123.6,0c-.31.42-.63.83-1,1.25v3.24l.72,1L763,763l.48-5.23h-1Zm33,.25v.75l.48-.5Zm-171.62.25-.47.25c.59,1.39,1,1.92,1.66,3.24,2.21,0,3.35-.49,4.28-1.74v-.25C626.25,759.71,626.51,758.67,623.93,758.24Zm11.65,0,.24,1.5c.23.25.47.49.71.74l1-1a1.83,1.83,0,0,0-.71-.75l-1.19-.5Zm68.22.25-.24.5,1-.5Zm85.1,0c.25.91.19.73.71,1.25l-.71-1.25Zm-170.2.25-.47.25c.36,1-.05.61.95,1,.07-.42.15-.84.23-1.25Zm210.13,0v.75h.48c-.3-.76,0-.3-.48-.75Zm23.77,0c-.08.33-.15.66-.24,1l1-.25v-.25l-.72-.5Zm57.29,0,.24.5h-.48l.24-.5ZM604,759c.32.67.55.73.72,0Zm80.59,0-.24.5c.16-.17.31-.34.47-.5Zm22.34,0c.12,1.36-.1,1.09,1,1.49a2,2,0,0,0-1-1.49ZM826,759l-.71.5c.16.25.31.5.47.74h.71l.48-1L826,759Zm-41.83.25V760h.71v-.25Zm-120.28.25c-.55.5-.8.52-1.19,1.24-.4.53-.37.5-.48,1.5l.95.5c.61-.41.58-.31,1-1a2,2,0,0,0-.23-2.24Zm84.38,0c.59.39.73.49,1.43.25l-1.43-.25Zm44.22,0-1.19,1v.75l.47.25H792l1.43-1.74-1-.25Zm49.2,0c.33.48,0,.15.48.5l-.48-.5Zm-45.64.25.24.74.47-.49Zm113.39.25h.47c-.41.24,0,.22-.47,0Zm-284.06.24.71.5V761h-.24l-.47-.25Zm65.13.25v1.25c1,.49,1,.69,1.66,1.49l.72-.49.23-1.5-.71-.75Zm40.41,0-.24.75c.5-.57.28-.09.24-.75Zm93.18,0c.32.52.27.4.71.75-.38-.67-.08-.34-.71-.75Zm-64.89.25Zm66.56.25c.15.17.31.33.47.5l-.48-.5Zm10,0-.24.5.24.25c.16-.17.32-.33.47-.5V761Zm68.7,0v1.75h.23l.72-.75a2.79,2.79,0,0,0-1-1ZM666,761.23,664.34,763c1.26-.06,1.15.06,1.67-.74S666.44,761.85,666,761.23Zm16.16,0,.71,1.25h.24v-1l-1-.25Zm1.9,0,.71.75c-.38-.67-.08-.34-.71-.75Zm45.88,0Zm-115.05.25c-.14,1-.32.65.47,1.25l1,.24v-.49l.24-.75-.24-.25Zm66.56,1,.71,1.74.71-.5V763l-1.42-.49Zm224.86,0c-.07.16-.15.33-.23.49l.47-.49ZM676,763l-.71,1.75h.23l2.62-1.5V763Zm18.3,0c-.29.73-.49,1-.23,1.75l1-.75v-.25c-.43-.89.12-.29-.72-.75Zm-40.88.25V764h.47l-.47-.75Zm253.63,0c.15.91.1.76.47,1.25v-.75l-.47-.5Zm-240.32.26.47.49-.47-.49Zm160.92,0c-.07.33-.15.66-.23,1l-.95-.25c.3,1.81,1.23,2.52,2.85,2.24v-1l-1.67-2Zm65.85,0c.47.39.33.32,1.19.49-.47-.4-.33-.32-1.19-.49ZM762,763.72c.54.38.29.46,1,.25ZM615.61,764l.24.75H617v-.25l-.24-.5ZM642,764l-.24,1.25c.83.18.8.24,1.43-.25a1.85,1.85,0,0,0-1.19-1Zm9.74,0v.5c.24-.43.22-.05,0-.5Zm8.56.5-.24,1.5.48.49h.24V765l-.48-.5Zm174.48,0c-.61.8-.41,0-.24,1h.24c.86-.16.72-.1,1.19-.5l-.48-.25-.71-.25Zm73.45,0,.47.75h.24V765l-.71-.5Zm-269.56.25-.48,1.25h.24l.48-.25.24-.5-.48-.5Zm118.85,0,.48.5-.24-.5Zm-80.34.5-.48.5.95.5.24-.75Zm6.89,0a15.64,15.64,0,0,0,1.67,2.74h1.18c1.07-2.71-.92-2.57-2.85-2.74Zm-2.14.25-.24.75c.73-.49.25-.09.48-.75Zm-36.6.5-.24,1.49.47-.25.48-.75Zm27.57,0c.43.51,0,.17.71.49-.43-.5,0-.17-.71-.49Zm-37.32.25-.24.49Zm8.08,0-.24,1c.58-.47.39-.16.72-1Zm9,0c-.08.16-.15.33-.23.49.15.17.31.34.47.5l.48-1Zm-24.72.24c.26,1.49.69,1.6,1.67,2.25-.32-.75-.64-1.5-.95-2.25Zm61.33.25,1,.5-1-.5Zm-7.13.25-.48.75.48.5c.83-.46.64-.21,1-1.25Zm-32.33.25-.24,1h.72c.16-.33.31-.67.47-1Zm5.71,0-.24.5c.86-.16.72-.1,1.19-.5Zm6.65,0-.23,1.5.47.25.24-.5c-.16-.91-.1-.76-.48-1.25Zm244.6,0,.71.25-.71-.25Zm-232.47.5v.75l.71-.5-.71-.25Zm-47.55.25-.23.5c.64.32.45.11,1-.25V768Zm10.94,0-2.85.25,1.19,1.25c.85-.14.79,0,1.66.24V768Zm19.25.25c.32.41.64.83.95,1.25v-1.25Zm-32.56.25c.14,1.75,0,.73-.48,2.49h.72c.15-.25.31-.5.47-.75V769c-.43-.51,0-.18-.71-.5Zm65.37,0c.08.16.15.33.23.5-.1-.23.19-.17-.23-.5Zm221.78,0c.15.25.31.5.47.74h.24V769l-.71-.5Zm-231.29.25-.24.49v.26h1l.24-.5Zm-8.32.75c-.24.24-.48.49-.71.74.07.25.15.5.23.75l.48.25.71-1.25-.71-.49Zm6.89,0-.71,1v.5a4.78,4.78,0,0,0,3.8,1.49v-.24a6.79,6.79,0,0,0-3.09-2.74Zm11.65,0q-1.43,1.23-2.85,2.49c.08.16.16.33.23.49l1.19,1c0-2.69.91-2.49,2.14-3.74l-.71-.24Zm2.38,0c.08.24.15.49.23.74l.95-.5-1.18-.24Zm-19.5.49c-.15.67-.31,1.33-.47,2l.47.25.72-.25.24-.75-1-1.25ZM618,770.2l-.48.25v1l.24.25.48-.25c0-1,.21-.52-.24-1.25Zm10.93,0c.5.7.36.58,1.43.75v-.25l-.24-.5Zm126,0c0,1-.15.68.24,1.5h1v-1h-.48Zm-146.19.25.71.5c-.16.17-.32.33-.47.5l-.24-1Zm95.79,0c-.08.25-.15.5-.23.75l.47.25.48-.5-.72-.5Zm-56.81.5v.5c.23-.44.22-.06,0-.5Zm-25.19,1v1l.47-.5-.47-.49Zm44.21,0c-.24.25-.48.49-.71.74v.25l2.14,1.25c.08-.25.15-.5.23-.75l-.71-1.24Zm90.33.25-.24.74c.32-.53.43-.13.24-.74Zm79.15.24c.33.48,0,.15.48.5l-.48-.5Zm-180.42.25a3.84,3.84,0,0,0,.72,2.74h.24c.23-.66.47-1.32.71-2l-.71-.5-1-.25Zm-14.5.25-.23.5.23.25.48-.5v-.25Zm16.88,0,.48.5c-.33-.48,0-.15-.48-.5Zm-5.47.25.48.25Zm110.06.5v.75l.71-.5v-.25Zm152.37.25-.48.25,1.19.25-.71-.5Zm-310.44.25-.72,1.5c-.86-.65-1.32-1.16-2.37-1,.08.25.16.49.23.75a17.13,17.13,0,0,1,3.81,3.23l2.37-1.24v-.25a6.11,6.11,0,0,0-1.66-2.24Zm227,.25v.74l.95-.49v-.25Zm80.82.5-1,1.24a3.89,3.89,0,0,0,.47,2h.24l1.9-.75c.49-.51.32-.25.47-1.25l-.71-1.24Zm-238.42,2-.48-1.75h-.71l-.48.51.24,1.24Zm58.71-1.75.48.51c-.33-.48,0-.16-.48-.51Zm2.38,0c.23.42.47.84.71,1.25h.24c-.31-1-.13-.78-1-1.25Zm-107.45.26c0,.76-.22.34.24,1v.5l.95-.5-.24-1Zm190.88,0-.24.49.24.25.48-.49v-.25Zm-85.57.49v.75l.71-.75Zm-102.22.25.48,1h.48c.07-.17.15-.33.23-.5-.47-.4-.33-.32-1.18-.5Zm2.62,0c.16.25.32.5.47.75-.29-.75,0-.3-.47-.75Zm124.56,0c.16,1.16.31,2.33.47,3.49h.24c.24-.91.48-1.83.71-2.74l-1.42-.75Zm-93.66.25c.44.77-.14.56.71.5l-.71-.5Zm251.49.25v.5c.24-.44.22-.06,0-.5Zm-320.42.5-.48.75v.25c1-.39.58,0,1-1Zm82,0Zm1,.5v1c.15-.33.31-.66.47-1Zm-49.21.25a5,5,0,0,0,2.38,5l-1.43-4.73Zm36.13,0,.48.74c-.3-.75,0-.29-.48-.74Zm9.75,0v1.49l-1.67-.75.48,1.25a6,6,0,0,0,3.33-.25v-.75l-.48-.49Zm73.45,0c-.79,2.81.33,6.05,1.19,8.22-.83.45-.64.21-.95,1.25l.95.74a6.21,6.21,0,0,0,3.56-3.49,3.54,3.54,0,0,0-.24-2.74c-.66-.17-1.57-.07-1.18-.74l1.66-.75a14.53,14.53,0,0,0-5-2.49Zm-16.17.25a3.72,3.72,0,0,0-1.18,2.24c1.48.84,2.28.3,2.37-1.75l-.47-.49Zm-75.59.74v1.25l.72-.75-.71-.5Zm159.5,0,.24.75.48-.25-.71-.5Zm-210.84.5L603,780.67v.25l.72,1.74-1,.75H604c1.47-.47,4.42-1,5-2.49Zm5.7,0-1.18,2.25.71,1c1.33-.83,4.13-.5,5.7.25a7.24,7.24,0,0,0-5.23-3.49Zm-11.41.25c.47.92.26.77,1.43,1l-.24-1Zm72.27.25-.24.5c.43-.33.36,0,.24-.5Zm188.5,0,.47.25-.47-.25Zm44.92,0c.32.58.64,1.16,1,1.75l.48-.5-.71-1-.72-.25Zm-324.23.25c.43.51,0,.17.72.5Zm283.82.25.48.5c-.33-.48,0-.15-.47-.5Zm-107.68.25c.4.62.15.29.72,0Zm106.26,0v1.49h.24c.07-.25.15-.49.23-.75l-.47-.74Zm-236.28.25,1,.75-1-.75Zm27.33,0Zm-22.34.25.48.24-.48-.24Zm1,0v1.24h.48v-1.24Zm268.13.5.48.74-.48-.74Zm-33.51.49-.72,1c.32.33.64.66.95,1h.24l.48-2Zm-280.49.25c.61.86.38.8,1.18.25Zm88.42,0,.48,1.25h.95C676.73,782.77,676.6,782.84,675.75,782.41Zm227.49,0,.71,1,.47-.25v-.25A2.17,2.17,0,0,0,903.24,782.41Zm-242,.25v1h1v-.5l-1-.5Zm10.46.25c.9,1.45,2.12,1.84,4.52,1.74v-.49l-4.52-1.25Zm68.93,0-.47.25.24.5h1.19v-.75h-1Zm176.86,0H918c-.43.51,0,.18-.71.5Zm-284.77.25-.24.25.71.5.95.25-.24-1h-1.18Zm33.27,0c-.07.17-.15.33-.23.5.86-.23.48,0,1-.5H666Zm242.46,0v1.25h.72l.23-.5Zm-314.24.25c.15.9.09.75.47,1.24l.24-.49c-.42-.9.13-.3-.71-.75Zm188,0-.47,1.49.23.25c1.18-.2.71.17,1.19-.74-.31-.34-.63-.67-1-1Zm-40.88.5-1.19,1.49c1.3-.2,1.54-.25,1.9-1.49Zm129.07,0-1.19,1.74v.25h1l1.43-1.25-1.19-.74Zm-235.33.25.48,1,.71-.5-.24-.49Zm-55.86.25c.49.44.17,0,.48.74h-.48v-.74Zm26.39,0-.48.24.71,1h.24l.95-.5-.24-.5-1.18-.24Zm303.78,0,.24,1.24c.87-.16.72-.1,1.19-.5l-.24-.5-1.18-.24Zm-28.76.24v.75h.72v-.25l-.72-.5Zm19,0c.38.68.08.35.71.75l-.71-.75Zm-46.12.25c-.23.34-.47.67-.71,1l.48.5c.66-.58,1-.74.23-1.5Zm50.63,0c-.77,3.24,1.74,4.24,2.14,7.23a4.33,4.33,0,0,0,2.86-1.25c-1.69-.33-1.06-.72-.72-2.24H906.8v-1c.9-.53,1.87-1,1.19-2.5a4,4,0,0,1-2.62,1l-1.18-1.25Zm-276.45.25.72.25Zm250.78.5c-.07.17-.16.33-.23.5C878.72,785.84,878.41,785.93,878.51,785.65Zm-15.92.25c.18,1.1.14.93.71,1.5Zm-47.54.25-.48,1.25.72-.25c-.09-.34-.16-.67-.24-1Zm25.19,0c-.08.17-.15.33-.24.5l.48-.5Zm-155.69.25v.75H685l-.47-.75Zm131.45.25v1.24h1c-.31-1-.13-.78-1-1.24Zm94.37,0-1.19,1.49.71,1c1.58-.32,1.4-.73,1.19-2.24l-.71-.25Zm5.46,0c-.08.16-.15.33-.23.5.15-.17.31-.34.47-.5Zm-14,1v1l1-.75-1-.24Zm-292.14.49-.48.25.24.75h.72c.07-.33.15-.67.23-1Zm70.36,0-.95,1.5.48.5c1.48-.72.47-.86,1.9-.75l-.72-1.25Zm182.56,0v.5c.23-.43.22,0,0-.5Zm-85.58.5Zm143.81,0Zm-235.32.25c.51.74.15.67,1,.5l-1-.5Zm-51.11.25c.43.87.2.67,1.19,1l-.24-.75Zm40.65,0-.72,1,.24,1,.71-.49.24-.5-.47-1Zm64.89,0c.44.77-.14.56.71.5l-.71-.5Zm125.51.25-2.61,1c.07.16.15.33.23.49,1.8.26,2.08.08,3.09-1l-.71-.5Zm-188.74.25-1,.75v.74l1.43.5v-.5c.29-1,.28-1-.48-1.49Zm102.45,0c-.08.16-.16.33-.23.5h.47l-.24-.5Zm-211.56.5.48,1h-1v-.74h.48v-.25Zm294,0,.23.5.24-.5Zm17.11,0-.24.5.48-.5Zm-290,.5.48.24Zm24,0-.24.74c.33-.53.43-.13.24-.74Zm-5.71.24.48.25Zm232.48,0v.75H840C839.71,790.88,840,791.33,839.53,790.88Zm-204.66.25.47.25C635.18,791.3,635,791.22,634.87,791.13Zm244.83,0c.67.46,0,.18.95.25l-.95-.25Zm-210.13.25a3,3,0,0,0,3.33,2.5v-2.25Zm260,0,.24.5-.24-.5Zm-256,.25.48.75-.48-.75Zm-38,.5-1.19,1h.71c.49-.52.69-.35.48-1Zm-24.72.25-.24.25.24.5c.16-.17.32-.33.47-.5Zm26.15,0c.42.51,0,.17.71.5-.43-.51,0-.18-.71-.5Zm27.33,0c-.14,1-.17.82.48,1.5h.23l.24-1-.95-.5Zm73.45,0v1.25l.48-.25v-.25l-.48-.75Zm5,.25v.75l.72-.5v-.25Zm191.12.25,1.19.75v1.49c-.25,1.28-.28,1.39-1.43,1.74l-.24-.74c.65-1.28,0-2.11.48-3Zm-58.95.25-.24.5c.35-.42.38,0,.24-.5Zm1.9,0v.75l1.19-.25c-.47-.4-.33-.33-1.19-.5Zm50.39.25h.48l-.48.5Zm-346.1.25c-.7,1.11-1.93,3.08-3.32,3.48l-1.9-1.49-.48.75a1.59,1.59,0,0,0-.24,1.74l.48.75c2.51-.55,3.93.82,6.18,2.49l-1.43-5,2.14-1.75-.71-1Zm242.94,0c.39.89.07.58.95,1l-.95-1Zm25.91.25c.24.24.48.49.71.74l1.43-.25v-.25l-.48-.24Zm-266.47.24v.5C583.75,794.19,583.74,794.57,583.52,794.12Zm24,.25-.48.75h1.19l.24-.5v-.25Zm131,0v1.25l.71.25Zm118.37,0v1.5h.72l.23-.5c-.08-.25-.15-.5-.23-.75l-.72-.25Zm14.5,0-.24,1.5h.24l.24-.5.24-.25c-.3-.75,0-.3-.48-.75Zm61.09,0H933c-.42.25-.05.23-.48,0Zm-341.34.25v.75h.71v-.25l-.71-.5Zm264.57,0c-.6,1-1.42.93-2.38,1.5v.25l1.9.49a4.89,4.89,0,0,0,1.19-2.24Zm-241.51.25-.24.5.95.25v-.75Zm51.1,0c.72,1.16,1.43,2.33,2.14,3.49h.24v-1c-.24-.58-.48-1.16-.71-1.74-.51-.64-.61-.62-1.67-.75Zm162.35,0v1.25l.48-.25v-.25c-.3-.76,0-.3-.48-.75Zm24.73,0,.47.75h.24v-.25l-.71-.5Zm-277.64.25.47.25Zm96.74,0Zm68.94,0a2.77,2.77,0,0,0-.72,2.49h1.19l.72-.25.23-.5C741.41,795.86,741.35,795.6,740.41,795.12Zm108.39,0-.24,1.74.24.5H849l1.9-1.24v-.25Zm83.43,0,.48.5-.24.25C932.39,795.62,932.32,795.37,932.23,795.12Zm3.57,0,1,.5c-.16.33-.31.66-.47,1H936l-.24-.25v-1.25Zm-91,.5.24.75.47-.5Zm-115.29.25c-.2,1.12-.25,1.57.95,2l.24-.5Zm201.58.25c.49.5.32.25.47,1.24h-.24c-.07-.41-.15-.83-.23-1.24ZM589,796.37c.16.74.32,1.49.47,2.24h.24l.95-.25.72-.5v-.75l-.72-.74Zm286.91,0-1.19,1.49.24.5,2.85,1.5,1-.25a4,4,0,0,0-.71-2.75l-2.14-.49Zm-169.72.25c.24.24.47.49.71.74h.71v-.25c-.08-.16-.15-.33-.23-.49Zm152.13,0-.24.24.48.5.71-.5Zm3.56,0,.24,1.49h.24l.24-.5Zm-212.27.24c.43.51,0,.18.72.5-.43-.5,0-.17-.72-.5Zm75.12,0v.75l.71-.5Zm122.18,0-2.38,1.5v1l1,.74,1.19.25.24-.74Zm-3.57.25c-.07.17-.16.34-.23.5l.95-.5Zm7.61,0-.24.25.24.5.48-.5-.48-.25Zm5,.25-.71.5v.75l.24.25,1.18-.25.24-1.25Zm-217.26.25-.24,1,.48-1Zm54.43,0L691,798.86a3.31,3.31,0,0,0,.72,2.24c1.68.56,4,2.59,5.7,1.25-1.3-1.51-1.64-3.37-3.09-4.74Zm156.18,0v.75l.71-.5-.71-.25Zm60.14,0-.24.25.24.5c.15-.17.31-.33.47-.5l-.47-.25Zm-56.34.5c-1.85,1-3.55,1.14-4.76,2.74l.24,4.74,1.19-1c.32-2.63,3.42-4.08,4.76-6l-.24-.5ZM725,798.36c.23.58.47,1.16.71,1.74l.47-.24v-1l-1.18-.5Zm123.13.25-.24.25.24.5.47-.25v-.25l-.47-.25Zm13.07,0-.24.5,1-.5Zm-141.2.25-.47,1.49h.24a2.82,2.82,0,0,0,.95-1Zm7.85,0-.24.5.24.25.47-.5v-.25Zm1.66.25.48.75c-.3-.76,0-.3-.48-.75Zm-28.05.25c.32.66.55.72.72,0Zm35.42,0,.48.74-.48-.74ZM589.46,800.6l-.23.25c.08.17.16.33.23.5l.48-.5-.48-.25Zm55.87,0c.66.46,0,.18.95.25l-.95-.25Zm-52.06.25L593,802.1l-2.14-.25-.24.5c.62,1.62,1.9,2.44,1.67,4.23l4-3.74c-1-.73-1.39-.69-1.9-2Zm256.24,0,.48.5-.24.25-.24-.75Zm1.67,0,.24.5-.24-.5Zm-213,.25-3.09,2,.24.5,2.38-.25.95-.5c0-1.09,0-1.22-.48-1.74Zm229.39,0-.48,2.24h.24l.48-.25-.24-2Zm-281.92.25c.32.41.64.83,1,1.25l.48-.25v-.25l-.24-.75Zm2.38,0v1h1v-.75Zm193.49.25c.3.75,0,.3.48.75l-.24-.75Zm151.42,0c.46.75,0,.4.95.75l-.95-.75Zm-250.07.25-.47,1,1-.74Zm-99.6.25c.12.94-.17.57.72,1.24l-.72-1.24Zm56.82.25c-.48.49-1,1-1.43,1.49,1.32-.13,1.29-.22,1.9-1l-.47-.49Zm291.42,0-.24,1h.24l.71-.74v-.25Zm-268.6.25-.24.74c.49-.33.38-.28.71-.74Zm133.35,0-.48.74.72.25h.23l-.47-1Zm-76.07.24c.33.48,0,.15.48.5Zm-36.6.5.95.5-.95-.5Zm-38.51.25c.4.62.14.29.71,0Zm40.65.5-1,.75c.47,1.11.81,1.07,1,2.74l1-.75c-.23-1.11-.07-2.19-1-2.74Zm-50.87.25,1.42,1.25.72-.25.23-.5-.23-.5Zm163.06,0Zm54.67,0v.75h.48c-.3-.76,0-.3-.48-.75Zm-210.84.25c.16.42.32.83.47,1.25l1.67-.25v-.25l-2.14-.75Zm168.29,0-.71.5.24.75c.16.08.32.16.47.25l.48-.25c-.15-.91-.1-.76-.48-1.25Zm-222.73.5-.47.25.24.5a1.84,1.84,0,0,0,.71-.75h-.48Zm102.22,0-.71,2a2.38,2.38,0,0,0,1.66-1.24l-.48-.75Zm-92.94.25-.72,1.49.24.5h.24l3.09-1.24-.72-.25-2.13-.5Zm36.13.25c.47.4.33.32,1.19.5-.48-.41-.33-.33-1.19-.5Zm216.78,0c-.08.16-.15.33-.23.5l.47.24.48-.49-.72-.25Zm38.51,0c.62.49,1,.71,1.67.5l-1.67-.5Zm-248.16.25v.74l.47-.49Zm88.66,0c.05,1.07.06,1.2.48,1.74l.47-.25v-1l-1-.49Zm-92.94.25-.71,1a3.29,3.29,0,0,0,2.37.75v-.25c-.49-.93-.54-1.15-1.66-1.49Zm45.64.24v.75l.95-.25-.95-.5Zm142.15,0c.4.62.14.3.71,0Zm10.69,0-.47.75v.25c.86-.26.7-.2,1.18-.75l-.71-.25Zm19,0-.48,1.25c.88-.45.82-.19,1.19-1.25Zm23.53,10a31.19,31.19,0,0,1,5.23.25l-.24-2.24c-1.8.31-2.94-.45-4.28-1.25v-.5c1.32-1.34,1.71-2,.72-4h-.95c-.15,1.3-.11,1.58-1.19,2l-.48-3.74h-.95c-1.79,1.49-3.83,2.46-2.85,5.48a4.89,4.89,0,0,0-2.85,1c0,3.56,4.21,3.68,6.18,2.24v-1.49l1.66.25Zm-297.84-9c.54.52.25.41,1,.25Zm143.81,0c-.32,1-.63,2-1,3h1l1.66-1.25v-.74l-1.66-1Zm-128.36.25v1h.24c.15-.17.31-.33.47-.5l-.24-.5Zm64.42,0L657,808.83l.48.74a3,3,0,0,0,2.85-1.24c-1.39.27-.39,0-1.66-.75Zm151.18,0c.15.33.31.67.47,1l.48-.5-.95-.5Zm-141.68.25-.23.5c.64.32.45.11,1-.25v-.25Zm72.27,0,.47.25Zm55.62,0v.5c.23-.44.22-.06,0-.5Zm-69.89.25-.71,1.24h1l.71-.25.24-.49c-.47-.4-.33-.33-1.19-.5Zm10.94,0v.75h.47c-.15-.25-.31-.5-.47-.75Zm102.92,0Zm-111,.75,1,.49-1-.49Zm125.27,0c.43.5,0,.17.71.49-.43-.5,0-.17-.71-.49Zm-101.74.24-.48.25.24.5h1l.24-.5Zm42.31,0-.47.25v.5h.47l1.43.25v-.25l-.48-.75Zm64.9,0c.39,1.33.79,2.66,1.18,4l-1.42,1.5c.16.41.32.83.47,1.24l.72-.25,5.22-3.48c-.84-1-1.53-.86-1.42-2.25l-4.75-.75Zm-281.68.25-.95.75,1.9-.25v-.25Zm260.52,0a2.1,2.1,0,0,0-.24,2c1.42-.06,1.71-.25,2.38-1l-.24-1Zm29,0v1l.48-1Zm-140.72.25-1,.5.24.5h.23l1-.5c-.16-.16-.31-.33-.47-.5Zm-139.3.25v.75l.24-.75Zm70.6.25a9.65,9.65,0,0,0,7.37,3.49l.48-.75.23-1.49c-2.91,1.79-4.44-1-8.08-1.25Zm196.58,0c-1.32.86-2.41,1.22-3.32,2.49h1.19l2.61-2-.48-.5Zm-254.1.5c.33.48,0,.15.47.5l-.47-.5Zm106.25,0c.31,1,.13.78,1,1.25-.31-1.05-.13-.79-1-1.25Zm228.68,0c-.09.17-.16.33-.24.5.42-.33.36,0,.23-.5Zm-223.45.25.48.5-.48-.5Zm156.41,0-.24.5c.49-.22.27,0,.24-.5Zm70.12,0c.72.48.39,0,.72,1l-.72-.5Zm-347,.25c-.08.16-.15.33-.23.5l.23.25.48-.5v-.25Zm110.77,0c-1.1,3.5-.55,4.2,2.14,6.23h.24c0-1.39.48-4.61-.47-5.23Zm-57.76.25.72.25Zm82.25,0-.24.75v.24h1v-1Zm-136.92.75-1.9-.5c.07,1.72.57,2.1,1.9,1.74Zm249.83-.5v.74l.71-.74Zm-75.59.25-.48.25v.24c.65-.17.46,0,.48-.49Zm-96.75.49-.24.5.72-.5Zm56.34,0,.24,1.5.47-.25v-.25c-.3-.75-.15-.56-.71-1Zm216.07,0h.48C939.9,812.56,940.27,812.54,939.84,812.31Zm-175.19.5v1l.48-1Zm73,.25-.24.5.48-.5Zm-188.74.25v.75l.71-.5v-.25Zm157.6,0-.24.5c.43-.33.36,0,.24-.5ZM657,813.56c.25,1.08.09.7.72,1.25v-1.25Zm137.87,0-.24.75c.33-.54.44-.14.24-.75Zm63,0-2.13,1,.71,1h2.37v-.74a2.51,2.51,0,0,0-.95-1.25Zm8.56,0-.24.25.48.5,1-.5v-.25Zm-160.45.25c.33.48,0,.15.48.5l-.48-.5Zm49.44.25-.47.25c.46.75.05.4,1,.74-.22-.9,0-.5-.48-1Zm-175,.25.72.5c-.43-.51,0-.18-.72-.5Zm82,0c.12,1.23.11,1.14.71,1.74l.48-.25-.24-1.24-.95-.25Zm19.73,0Zm12.6,0v.74h.47c-.3-.75,0-.29-.47-.74Zm3.33,0a3.12,3.12,0,0,0,.95,2.49l.71-.5c-.16-1.53-.33-1.7-1.66-2Zm93.18,0c-.32.66-.64,1.33-.95,2h.23a3.18,3.18,0,0,0,1.43-1.49l-.71-.5Zm-74.64.25-.24.49.24.25.47-.25-.24-.49Zm120.51.25.72.24-.72-.24Zm25.68.49c-.4.42-.8.83-1.19,1.25v.25l1.42-.25c.18-.86.29-.64-.23-1.25Zm-198.25.25-.48,1.5h.24l.24-.5.48-1Zm-87,.25a2.67,2.67,0,0,0-.24,1.5,1.63,1.63,0,0,0,.95-.25c-.2-1.13,0-.74-.71-1.25Zm73.45,0c.46.61.15.41,1,.75v-.25l-1-.5Zm149.52.25v.5c.23-.43.21,0,0-.5Zm-132.64.25a23,23,0,0,1-2.62,3.74l.24.5c1.32,0,3.27-.11,4-.75-.44-1.07-.71-2.86-1.66-3.49Zm38.27,0c.4.62.14.29.71,0Zm7.84,0-.24.5h.48l-.24-.5Zm155,0v.5c.23-.43.21,0,0-.5Zm-262.67.25Zm231.53,0c.45.6.15.4,1,.75v-.25l-1-.5Zm-145,.25-.24.5.24.25.47-.25-.24-.5Zm4.51,0,1,.5-1-.5Zm137.87,0-.71.75v1H835l.72.25c.23-.66.47-1.33.71-2Zm34,.25v.75l.72.25c-.32-1,0-.52-.72-1Zm-211.79.5c-.08,1.24.25,1.28.95,2.24l.47-.25V818.3l-.71-.5-.71-.25Zm147.85,0-.71,1a2.13,2.13,0,0,0,1.19-.49l-.48-.5Zm-198.72.5a6.07,6.07,0,0,0-.48,3.23,1.92,1.92,0,0,0,1.43-1c-1.3-.75-.4-.81-.48-2.24Zm92.47,0-.24,1.49c-.92-.36-.4-.65-.95-.25v4.49l4.28,1,1.19-3.24c.63.46.42.5,1.42.75l.48-.5v-1c-2.94-3.32-3.94-1.37-6.18-2.74Zm-43,.49c.38.68.08.35.72.75l-.72-.75Zm137.4.25c.15.17.31.34.47.5l-.24-.5Zm146.19,0c.64.4.32.09.71.75a1.8,1.8,0,0,1-.72-.75ZM686.45,819l-.24.5.48-.5Zm-83.67.25c-.32.42-.64.83-.95,1.25a2.23,2.23,0,0,0,1.42,2l.48-.25c-.31-1.41.14-1.13.95-2.49l-.24-.5Zm291.19,0-.24.5V820h.71c-.16-.25-.32-.5-.47-.75Zm46.59,0c.72.48.38.05.71,1l-.72-1Zm-252.68.25-.48.25.24.5c.32-.54.43-.14.23-.75Zm-76.79.25.48.75.48-.25-.24-.5Zm78.21.25v1.24c1.2.14,1.61.36,2.38-.24l-.48-.75-.47-.25Zm21.16,0a3.61,3.61,0,0,0,.71,2.49h1.19c.87-.26.7-.2,1.19-.75v-.25c-2.13,0-2-.54-3.09-1.49Zm-2.14.25.47.25Zm-86.05.25c.39.9.06.58,1,1-.38-.78-.22-.58-1-1Zm166.15,0c-.08.58-.16,1.16-.23,1.74.07.17.15.33.23.5l.72-.5c.08-.58.15-1.16.23-1.74Zm-174,.25-1.19,1,.24.5,1.43.25c.39-1,.41-.76,0-1.74Zm117,0-1.19,1.49h.48l.24.25,2.14-.75-.72-1Zm-57,.25-1.42,1.74c.33,1.12.12.9,1.19,1.25.61-1.78,1.92-.95,3.56-1.5l-.71-1-2.61-.49Zm-54.19.24c0,1,.29,1.33,1.19,2h.23V822l-.47-.75Zm-10.22.25-.48.25.24.75h.24c1.18-.26.79.09,1.18-1Zm59.9,0-.24,1.75c1.39-.45,1.18-.65.71-1.75Zm13.78,0,.24,2.25,1.67-.75v-.25l-.48-1c-.73,0-.47,0-1.42-.25Zm16.64,0H701v.25l-.72.25v-.5Zm101,.25-2.62,2c.45,1.89-.53,2.77-.95,4.48l1.19.5.24-1.5c2.41,1.06,3.51.21,5-1.49l-2.85-4Zm48,0c.07.5.15,1,.23,1.5L850,823v-.75l-.71-.5Zm1.42.25.71.75c-.37-.67-.08-.34-.71-.75Zm-154,.25.24.5c-.1-.23.19-.17-.24-.5Zm37.08,0-.71.25c.08.17.16.33.23.5h1.43l.48-.5v-.25Zm-26.15.25v.75h.48c-.3-.76,0-.3-.48-.75Zm-44.69.25c.1,1,.08,1,.48,1.5h.24c-.24-.5-.48-1-.71-1.5Zm-73.45.5.24.5C589.6,823.55,589.89,823.61,589.46,823.28Zm21.16,0c-2.34,1.41-.67.21-2.14,2h-1.19l.72,1.25h1.18a3.67,3.67,0,0,0,2.14-2l.24-1.24Zm76.54,0,.71,1.24C687.62,823.62,687.68,823.79,687.16,823.28Zm16.64,0-.95,1.49.24,1.25c.16.08.32.16.47.25h1c-.08-.42-.16-.83-.23-1.25l2.13-.25-1.18-1.49Zm-97.22.5-.24.74h1.19v-.74Zm102.45,0-.48,1.24,1.43-.25v-1Zm10.22,0c.11.66-.14.37.48,1C719.51,823.86,719.74,824.26,719.25,823.78Zm10.94,0c.25.91.19.73.71,1.24h.24v-.25l-.95-1Zm214.17,0-.24.74c.64-.39.33-.08.71-.74Zm4.51,0c.5.49.25.09.48,1l-1-.25C948.56,824.28,948.72,824,948.87,823.78Zm2.38,0,.24.5-.24-.5Zm-257.2.25-.23.25.71.49v-.25l-.48-.49Zm20.45,0c.27,1.27.49,1.63,1.66,2-.28-1.35-.57-1.54-1.66-2Zm17.35,0-.24.74c.49-.45.17,0,.48-.74Zm116.24,0-.24.49v.25h.71l-.24-.74Zm-189.45.25c.05,1.11.11,1.65,1.19.74l-.48-.74Zm17.35,0-1.9,1.24v.25c1.17-.13,1.94.32,2.61,0,1-.38.58.05.95-1l-1.66-.49Zm213.93,0v1c.87-.16.72-.1,1.19-.5C890.64,824.38,890.78,824.45,889.92,824.28Zm55.63,0-.24,2,1.43-.5V825Zm-333.5.24c.42.51,0,.18.71.5-.43-.51,0-.17-.71-.5Zm73,0,.48,1.25.47-.25v-.25c-.08-.16-.16-.33-.23-.5Zm124.56,0,.24.5v.25c-1.07-.1-1-.37-1.67.25-.08.5-.16,1-.23,1.5,1.32-.4,1.74-1.18,2.37-2.25l-.71-.25Zm51.82,1.75,1.66-.5.24-1h-1.66l-.24,1.5Zm-197.06-1.5c.55.38.29.46.95.25l-.95-.25Zm-10.69.25c.45.76,0,.41,1,.75l-.48-.75h-.47Zm1.42,0,.48.75h.24v-.25Zm7.13.25c.33.48,0,.15.48.5l-.48-.5Zm-48.73.25.24.5c-.1-.23.19-.17-.24-.5Zm3.81,0-.48,1.25.71.49.72-.49.24-.5-.48-.75Zm254.58.25.24,1.25c.16-.17.31-.34.47-.5Zm-15.21.25-.24.5c.16-.17.31-.34.47-.5Zm-198.25.25-.48,1.74a6.44,6.44,0,0,0,4.28.75c-.37-1.92-1.56-2.55-3.8-2.49Zm237,0,.48.25-.48-.25Zm-220.59.25v.74l1,.5v-1.24Zm189,0a2.29,2.29,0,0,0-.72,1.24h1l.47-.5c-.24-.24-.47-.49-.71-.74Zm-254.11.25c.33.48,0,.15.48.49l-.48-.49Zm196.34,0v.74h.48c-.3-.75,0-.29-.48-.74Zm-146.9.25c.51.58.11,0,.24.74-.16-.08-.32-.16-.47-.25.07-.16.15-.33.23-.49Zm65.61.24.48.25Zm143.1,0-1,1h1l.95-.5-.24-.5Zm27.1,0,.71.75v-.75Zm-280.73.5c.08.42.16.84.23,1.25.46,1,.53,1,1.67,1.25.13-1.35,2.12.47,2.85-1.5l-4.75-1Zm87.47,0v1l.48-1Zm194.92,0,.24,1.5.47-.25v-1l-.71-.25ZM627.74,828a4.59,4.59,0,0,0,.71,3.74h.71l1-1.49a7,7,0,0,1-1.19-2.25h-1.18Zm25.19,0,.72,1,.47-.25v-.25l-1.19-.5Zm142.39,0,.24,2.25L796,830v-1l-.71-1Zm94.84,0v1h.48l-.48-1Zm-114.81.25.48,1.25c.15-.09.31-.17.47-.25v-.5l-.95-.5Zm117.9.25-1.19,2,1.19,1.74,1.9-.25a1.79,1.79,0,0,0,.72-.75,4.41,4.41,0,0,0-1.19-2.74Zm-196.58.25-.48.25v.5h1.67v-.25c-.47-.4-.33-.32-1.19-.5Zm11.17,5c2.64.1,2.89,1.43,4.52,2.5.47-.34.95-.67,1.43-1-.27-.71-.21-.36-.24-1a10.71,10.71,0,0,0,5.7-2.24v-.75c-1.88-1.54-3.09-2.8-5.47-2l.24,2.49c-1.07-.77-3-1.93-5-1-1.13.58-1.25,1.18-1.19,3Zm100.79-5c.15.91.09.75.47,1.25h.24c-.24-1-.09-.75-.71-1.25Zm-96.75.25v1h.72c-.32-1,0-.52-.72-1Zm20.92,0,.24,1.25h1v-.75l-1.19-.5Zm73,0c.33.48,0,.15.47.5-.16-.17-.32-.33-.47-.5Zm-148.57.5-1.43,1,2.38-.25V830l-.24-.5Zm188.26,0c-.08.16-.16.33-.23.5.64.32.45.11,1-.25v-.25Zm31.14,0c-1.05.91-2.18.85-2.85,2.24l-.24,1h.71c1.81-.63,3.7-1,4.28-3H878l-1.43-.25Zm-177.56.25-.72.75.48.49h.47l.24-.25-.47-1Zm101.26,0-.48.25.48.5.71-.5v-.25Zm46.59.25-.48,1.49,1,.25.72-.25-.48-1.49Zm-47.78.25-.24,1,.48.25.47-.25V831c-.23-.25-.47-.5-.71-.74Zm49.92,0c.24.24.47.49.71.74-.38-.67-.08-.34-.71-.74Zm-181.37.49.71,1h.24v-.25l-1-.75Zm12.12,0,1,.5-1-.5ZM675,831l-.48,2,1.43-.5v-1l-1-.5Zm140.72.25.24,1.5,1.66,2v-1.25l-1.9-2.24Zm22.34,0,.24.75h.24c-.3-.75,0-.3-.48-.75Zm15.93.5c-.08,1.28.49,1.68,1.19,2.74.16-.16.32-.33.47-.5-.43-1.16-.42-1.81-1.66-2.24Zm24.48,0-1,1.25,1.19,3.24a2.28,2.28,0,0,0-2.61.74c.08.17.15.34.23.5a7.73,7.73,0,0,1,4.76,2.74l1.66-.25c.11-1.49-.18-3.53.48-4.73l1.19.5c-.32.9-.59.49,0,1.24a2.14,2.14,0,0,0,2.14-.25l-1.19-3c-2.21-.79-4.52-1.84-6.66-.74,0-.9.53-.93-.24-1.25Zm35.9,0c.15.91.09.76.47,1.25h.24c-.25-.91-.19-.74-.71-1.25Zm-284.3.25.48.5-.48-.5ZM720,832c-.07.42-.15.83-.23,1.25l.95-.75-.24-.5Zm-105.06.25c.43.51,0,.17.71.5-.43-.51,0-.18-.71-.5Zm61.56,0-.23,1.49.71.25,2.14-.25.24-.49-.48-.75Zm59.19,0c0,1,.14,1.41,1.43,1.74l.24-.25V833l-.48-.5Zm103.17,0-.24.5V833h.95l.24-.5Zm-173.29.25.48,1.24.47-.25v-.24l-.24-.5-.71-.25Zm134.3,0c-.07.17-.16.33-.23.5s.16.16.23.25l.48-.5v-.25Zm96.51,0-1.42,1.74a3.51,3.51,0,0,0,.23,3.74h1c1-.69,1.73-.93,2.38-2a2.33,2.33,0,0,1-.24-2.74l-.71-.75Zm3.33,0c-.16.41-.32.83-.47,1.24.15.09.31.17.47.25h.48c.07-.33.15-.66.23-1l-.71-.5Zm-283.34.25.71,1,.24-.74Zm276.68,0,.48.25-.48-.25ZM760.85,833l-1.66,1.49.23,3.49,1-.75c.4-1.24.8-2.49,1.19-3.74l-.71-.49Zm-148.57.25-.47.24.24,1.25,1.42.75.95-.5-2.14-1.74Zm50.87,0V834h.72v-.25l-.72-.49Zm209,0,.95,1h.24l.47-.5-.24-.49Zm8.79,0c.25.56.32.92-.71,1.49-.72.25-.64.17-1.19-.25l1.9-1.24Zm-272.41.49H609c-.33.48,0,.15-.48.5Zm145.71,0c.1,1,.08,1,.48,1.5h.24v-.75l-.72-.74Zm89.38,0-.71.75h.71l.48-.75Zm58.95.75-.71,1.5,1.9-.5V835l-.24-.5Zm-223.44.25Zm210.84,0c-.56.84-.48.14-.23,1l.71-.75-.48-.25ZM757.76,835l-1,1.5a2.94,2.94,0,0,0,.48,3.73l1.42-1.24c-1.59-.87-.78-2.65-.24-4Zm-40.65,2.24c0-1.13,0-1.43-.47-2h-.24l-.24,3h.48l1.66.75.48-.25v-1l-.48-.5Zm97.7-2-.24,1.25c.53-.52.45-.35.72-1.25Zm-153.08.25c.38.64.29.6.95,1l1,.24V836h-.48l-1.42-.5Zm202,.25-.24,1c.24-.24.48-.49.71-.74l-.47-.25Zm9.74,0c-.08.16-.16.33-.23.5l1.18-.25Zm7.13,0h1.19c-.08.16-.16.33-.23.5l-.48.25-.48-.75ZM752.53,836l-.24.25,1,1h.48c.16-.25.31-.5.47-.74L754,836Zm49,0v1.49h.24V837c.09-.72.26-.41-.24-1Zm39.69,0c-.19.94.93,2,0,3.24l-2.14-1.75c-.6.41-.57.31-.95,1-.62,1.22-.42,2.93-.23,4.48,4.73-.53,8.07,2.86,11.41,4.74l1-.5c-.33-.77-.37-.63-.24-1.5l1.66-.49c0,1-.28.54.48,1.24a6.43,6.43,0,0,0,4-4.73h2.38c-.4-.67-.8-1.33-1.19-2l-1.67.25c.07-1.09.39-.88-.23-1.49-1.78-.77-3.32.44-5,.75-.53-.91-.85-1.82-1.91-2.25l.24,3.74h-.24a7.79,7.79,0,0,1-3.09-1.49c-.31-1-.63-2-1-3l-1.19.25c-.07.49-.16,1-.23,1.49a2.65,2.65,0,0,0-1.91-2Zm14.5.25Zm13.08.25-1.9.24a4.07,4.07,0,0,0-.24,2.5l.47.24,1.67-1.74v-1.24Zm18.3,0Zm-89.14.24c.46.76.05.41,1,.75Zm59.43,0-.24.5.24.25c.16-.08.32-.16.47-.25l-.47-.5Zm80.34,0,.24.75.48-.5-.72-.25Zm-48,.5-.72,2.5,1.19-.26V839c0-1,.46-1.07-.47-1.75Zm49,0,.72.5c-.43-.51,0-.18-.72-.5Zm-277.87.25c-1,.79-1.73,1.62-2.86,1.5l.72,1,3.56.5v-.74c-.47-.28.24-.91,0-2Zm2.14,0c.15.17.31.33.47.5C663.23,837.81,663.07,837.65,662.92,837.48Zm187.78,0,.48.25Zm-51.1.25c.11.89-.36.34.47,1l1.67.5L801,838Zm149.27,0h1.67v1h-.72c-.6-.41-.57-.31-1-1ZM597.78,838l-.23.25.23.5.48-.5Zm164.73,0c-.53.91-.58,1.1-1.66,1.49,0,1.83-.32,3.08,0,3.74,1.48-.67,2.73-1.61,2.14-3.74h1.9c-.38-1.36-.74-1.48-2.38-1.49Zm64.18,0v2.49h.24l1.19-.74.24-1.25-.48-.5Zm54.92,0c.07.17.15.33.23.5-.08-.17-.16-.33-.23-.5Zm16.87,0c-.79.56-1.13.64-1.66,1.49.39.34.79.67,1.19,1,.59.14.77-.27,1,1l-1.19.25c.77.94,1.49,1,2.85.75l.48-1.75a8.77,8.77,0,0,0-1.9-2.74Zm38,0c.46.76,0,.4,1,.75v-.25l-1-.5Zm-283.34.25c.37,1,0,.61,1,1C653.75,838.18,654.16,838.62,653.17,838.23Zm57.76,0V839l.48.49.47-.49c-.15-.25-.31-.5-.47-.75Zm41.6,0,.71.5-.71-.5Zm-127.89.25.48,2h-.24l-1.9-.74-.47.49v.25c.83,1,.77,1.6,1.42,2.74a6.74,6.74,0,0,0,3.8.5l.24-.25-1.42-4Zm208.24.25a6,6,0,0,0-1.43,2.74h.71C833,840.82,833.76,839.7,832.88,838.73Zm107,0a3.61,3.61,0,0,0,.95,3l1.43-.5.24-1a5.74,5.74,0,0,0-2.62-1.49Zm-86.52.25c.08.16.16.33.23.49-.07-.16-.15-.33-.23-.49Zm31.37.25V840l.72.25c-.32-1,0-.52-.72-1Zm17.12,0c.11,1.91.59,2.14,1.9,2.74l1.19-.75c-.24-.67-.48-1.33-.71-2Zm-246.74.24a11.4,11.4,0,0,1,.24,3.49l1.9-.74c.15,1.4.12,1.15.95,1.74l1.43-.75-.24,1,2.14-1C660.05,841.41,657,840.69,655.07,839.47Zm151.66,0-1.91,1.75v.25h.24a3.7,3.7,0,0,0,2.14-1.74l-.47-.26Zm101.26,0Zm2.85,0,.48.26-.48-.26Zm-294.52.26c.43.5,0,.17.72.49l-.71-.49Zm37.09.24-.72,1c.7-.4,1-.28.72-1Zm105.3,0c.44.87.2.67,1.19,1l-.48-1Zm39.7,0a2.39,2.39,0,0,0,1.42,2.25l.48-.5-.24-1-1.66-.75Zm54,0,.23.5-.23-.5Zm15.45,0-.48,1h.24l.71-.75c-.16-.08-.32-.16-.47-.25Zm-271,.25-.71,1v.25h1.43l1.66-1v-.25Zm291.67,0-.24.5c.49-.22.26,0,.24-.5Zm-147.38.25v3.24l2.14,3.74a5.05,5.05,0,0,0,3.09-1l-.24-2.24c-2.05-.49-1.83-2.55-3.56-3.49Zm168.3,0-.48.75c.91-.33.49,0,.95-.75Zm-62.52.25.24.5-.24-.5Zm66.8.25c-1.6.78-4.5,0-4.05,2.74l2.86,1L910.84,848l.95,1.24a10.76,10.76,0,0,1,4-3.48c-.35-1.58-1.11-1.94-1.9-3,.24-.49.48-1,.71-1.49l-.95-.25ZM666,841.22c.15.17.31.33.47.5C666.15,841.24,666.46,841.57,666,841.22Zm130,.25-.24.5c.43-.34.36,0,.24-.5Zm74.64,0c-1.72,1.39-6.38,4.65-6.18,7l2.62,1.74-.24.5c-1.24.43-1.22.51-1.19,2.24.72,1.72,1.43,1.7,1.19,3.24l7.61-1.25c1.9-1.08,6.2-6.21,6.65-8.72a11.48,11.48,0,0,0-3.09-.74l.24,1.24c-1.85-.61-2.15-2.24-3.57-3.24v1c-.79-.91-1.58-1.83-2.38-2.74l-1.66-.25Zm-253.39.25-.48.5,2.62,1.24v.25l-1.19.75.24,1,.71.25,1.9-1.75-.24-1-3.56-1.24Zm214.41,0-1.43,1,4,2.25c.66-.56.58-.28.72-1.5L833.83,842h-.48l-1.66-.25Zm-178,.25-.48.5.48.49h.23l.48-1Zm-43.27.25,1,1,.48-.5-.24-.49Zm254.83,0-4.52,3-.24-.25v-1l1.19-1v-.25l-.24-.24h-.95a8,8,0,0,0-1.9,2.74c-3-.63-5.7,2.31-6.66,4.73l.72,1.5h.23l4-1.25a3.4,3.4,0,0,0-.24-2.49,6.81,6.81,0,0,1,5.46-.25c1.37-.89,4.47-3.23,3.09-5.23Zm14.49.25a1.83,1.83,0,0,0,.24,1l.48-.25V843l-.72-.49Zm25.91,0-.71.74.24.5a2.64,2.64,0,0,1,1.9,1.5l.71-.25.48-1.25L908,843l-.71-.25-1.67-.24Zm-269.08.24a1.75,1.75,0,0,0-.24,1.75l-1.9-.75a2.27,2.27,0,0,0,2.14,1.5c.21-.9.56-.74,1.19-1.75l-1.19-.75Zm236,0,.24.5-.24-.5Zm-35.65.5c.42.78-.08.72.71.5l-.71-.5Zm90.33.25c-.19,1.58.64,2.27,1.66,3.24l1.66-.25.24-.49-.24-1c-1.77-.32-1.86-1-3.33-1.5Zm-310.69.5-.23.25c.15.17.31.33.47.5H617V844Zm7.13,0c-.71.48-1.4.48-1.9,1.25V847l-.95-.25.72.75c.57-.09,2.21,1.09,4,1.25.16-.17.31-.34.47-.5l-.24-2.74H628l-.23-.5A35.75,35.75,0,0,1,623.69,844Zm-29.23.25V845l.47.5.71-.25.24-.5-.24-.5Zm44.45.25-.48.75v.25h1l.48-.5-1-.5Zm308.78,0-.24.5h.71c-.16-.17-.32-.33-.47-.5ZM658.4,845a5.69,5.69,0,0,0,0,3.49l.47.25.72-.5.47-1.75L658.4,845Zm259.1,0-.71.75.47.25.48-1Zm-177.81.25-.23.25.95.74,1-.74v-.25Zm85.1,0c.15.9.1.75.48,1.24l.24-1.24Zm-19.73.25.48,1-.48-1Zm24.72,0c.25,1.23.17.93,1,1.49l.48-.5-.24-1Zm-195.39.5a3.35,3.35,0,0,0-.71.74l-.24.75.95.75a6.37,6.37,0,0,0,3.8-1l-.71-.5-3.09-.74Zm284.06,0,.71,1c-.32-.85-.14-.52-.71-1Zm-301.17.24-.48,1.25c1.77,1.31.66,2.1,2.14,3.49h.48a3.5,3.5,0,0,0,.71-2.24h1.19l-1-1.25-3.09-1.25Zm-4,.25.95,1.25,1.19-.25-.47-.75-1.67-.25Zm303.32,0c.15.25.31.5.47.75l.48-.5-1-.25ZM628,846.7Zm112,0Zm64.42,0-.24,1h.95l-.71-1Zm115.76,0c.07,1.78.27,1.68,1.43,2.24l.47-1c-1-.52-.73-.88-1.9-1.25Zm21.4,0v1h.23l.48-1ZM612.05,847c-.32.42-.64.83-.95,1.25h2.14v-.75l-.48-.5Zm73.21.25c.49.55.33.47,1.19.75v-.25l-1.19-.5Zm143.1,0,.95.75v-.25l-.95-.5Zm19,0-.47.25c.43.51,0,.18.71.5l-.24-.75Zm-102.68.25c.32,1,.23.74.95,1.25h.23v-.25c-.47-.77-.23-.65-1.18-1Zm-84.39.25.48.5c-.33-.48,0-.15-.48-.5Zm234.85.25c.33.48,0,.15.48.5Zm-287.86.25v.74l.72-.74Zm27.1.25Zm167.82,0,.24,3.23.71.26,1.19.24c.16-.24.32-.5.47-.74a3.72,3.72,0,0,0-2.61-3ZM623,848.7l-.47,1.24.71.25,1.42.25c-.24-1.1-.15-1-.95-1.5Zm13.79,0-.24.74.24.25,2.37-.25v-.25c-1.48.12-1.38.14-2.37-.49Zm22.58,0a2.28,2.28,0,0,0-.71,1.24h.47l1.67.25c-.24-1-.1-.75-.72-1.25Zm4.28,0c.4.79-.12.28.71.49l-.71-.49Zm220.83,0-.24.49.47-.49Zm44.92.24-.71.25c.05,1,.12.83-.71,1.5.08.17.16.33.23.5,1.19,0,1,.22,1.67-.25l1.9-1.5v-.25l-.24-.25Zm-46.59.25v.75l-3.09.5c-.52,1.29-.64,1.58-1.19,2.74h2.14c1.91-.46,2.23-1.76,2.86-3.49l-.72-.5Zm-280.73.25.48.5-.48-.5Zm284.3,0-.24.5v.25h.71l-.47-.75Zm39.22,0-.24,1,.95-.75v-.25Zm-297.37.25H627a2.66,2.66,0,0,0,1.19,2l.48-.5A2.54,2.54,0,0,1,628.21,849.69Zm281.44.25c-.07.17-.16.33-.23.5l.47-.5Zm-307.35.5-.71.5.24.5H603l.48-.25v-.25l-1.19-.5Zm282.87,0c-1,.86-1.82,1-1.43,2.74,1.64-.13,1.84-.41,2.86,0-.34-.48,0-.15-.48-.5.49-.84.61-.72.48-1.74Zm25.43,0c-.07.17-.15.33-.23.5l.71.25v-.75Zm-300.22.25,1.43,1.49h.71l-.47-1Zm49.92.25-.71.25v.25H662c-.07-.17-.15-.34-.23-.5Zm-42.79.5c-.79,1.18-.93,2-2.37,2v1l.71,1,1.9-1,.48-2.49Zm6.18,0-2.37,1.74v.75h.95v-1.5c1.47.42,2.19,1.49,2.37,3.24-1.07.35-.85.13-1.19,1.25a4,4,0,0,0,4-.5l.71-3.49-1.43.25-.24-1.49c-.67.46-1.35-.09-2.85-.25Zm264.33.74-.24,1H888l.48-1Zm4.28,0-.71.25c.08.17.16.33.23.5l1.67.25v-.75H893l-.71-.25Zm-281.92.25c-.16.25-.32.5-.47.75h.47a7.73,7.73,0,0,0,5.47,3.24l-.24-.5c-2.08-1.09-2.32-3.14-5.23-3.49Zm15.21,0,.24.75h-.24Zm237.47.5.72.75h.71v-.25l-.24-.5Zm-261.95.25-.24,1.5.24.24,1.43-.24v-.25l-.24-.5-.71.75c-.1-1-.08-1-.48-1.5Zm208.47,0v.75c.16-.17.32-.33.47-.5l-.47-.25Zm58,.25h.71v.25c-.45.67-.39.63-1.19,1l.48-1.25Zm9.27,0v.75l.71-.5-.71-.25Zm5.94.25c-4.58,1.9-8.18,1.78-10.46,6,2,.1,2.36,1.17,3.57,1.25.11-1.11.11-1.22.71-1.75l5-1.24c.9-.78.87-2.2,1.9-3v1.5a9,9,0,0,1,3.33.5c.32-.42.64-.83.95-1.25l-.24-1.24-.95-.25c-1,.7-1.12,1.42-1.66-.25l-.47-.25Zm-100.07.25Zm31.85,0c-.83.74-1,.43-1.19,2a10.31,10.31,0,0,1,1.67,1.75c.15-.09.31-.17.47-.25,0-1.93.23-2.3.24-3.24Zm10.7,0c.42.78-.08.72.71.5l-.71-.5Zm-7.85.25v.74l.48-.49-.48-.25Zm12.6,0c-1.48,1.48-2.13,1.3-3.57,1.24v1.75h.48c1.62.66,4.11.5,5.47,1.24v1.75l1.19-.75v1.74l-1.19,1.25c2-.24,4.68-2.35,5.7-3.74l-.24-1a2.73,2.73,0,0,0-.23-.25c-1.52.87-2.33.05-4,.5-.33-2.12-2.1-2.92-3.57-3.74Zm8.79,0v.74l.48-.49-.47-.25Zm-218.45.25.24,1.49h.24l.48-.25v-1l-.48-.25Zm198.49,0-2.14,2v1.24a4.51,4.51,0,0,0,2.85-3.23Zm-19.26.25.48.74c-.3-.75,0-.29-.47-.74Zm88.91,0-.24.24.47.5h1v-.25c-.48-.39-.33-.32-1.19-.49Zm-64.42.24-.71,1c.07.17.15.33.23.5h.24l.95-.25c-.2-1.13,0-.74-.71-1.25Zm12.36,0,.24.75.47-.5-.71-.25Zm-38.75.5.48.25-.48-.25Zm-176.14.75-.47,1.25.71.24v-.49c.31-.68.11-.48-.24-1Zm-8.55.5-.48.5.48.49,1-1Zm82.48.5-.24,1.74.48.25.24-.25c.07-.58.15-1.16.23-1.74Zm-78.21.25c-.15.41-.31.83-.47,1.24l1.19-1v-.24Zm8.56.5c.33.47,0,.14.48.49l-.48-.49Zm211.32.25c.46.34.14,0,.48.49l-.48-.49Zm-243.88.24-.72.5.72,1,1.42.25v-.75l-.24-.75Zm275.73.25.48,1,.71-.5-.24-.5Zm-166.63.25-.71,1c.24.5.47,1,.71,1.49a3.41,3.41,0,0,0,1.9-.49l.24-.75-1-1.25Zm-78.92.25-.23.5a6.4,6.4,0,0,0,1.18,1.25c.53-.52.45-.35.72-1.25l-1.66-.5Zm242.46,0Zm-268.13.5-.71,1,.95,1.49-.24-1.49,1,.25v-.75l-1-.5Zm269.8,0-.72,1,.48.49.71-.24.24-1.25Zm-258.39.25.48,1,.71-.75v-.25h-1.19Zm87.24,0-.24.5c.65.32.46.11.95-.25v-.25Zm-101.5.25-.24.5h.48l-.24-.5Zm295.23,0c-.16.25-.32.5-.47.75l.71,1.49.47-.25v-1.49l-.71-.5Zm-191.11.75v1h.71l-.24-.75-.47-.24Zm-78,.24-1.67,1.5,2.62-1-.95-.5Zm22.34,0-.24.5c.09-.16.16-.33.24-.5Zm50.87,0,1.19,1-1.19-1Zm217,0-.48,1h.48a5,5,0,0,0,3.8-.25l-.48-.75a22.74,22.74,0,0,1-3.32,0Zm-23.06,1,.24.5.23-.5Zm-61.81.25-1,1v.25h.24l1.19-.75Zm-133.58.25-.24.5,1,.25v-.75Zm196.1.25-.71.25.24.5h1l.24-.5-.72-.25Zm-60.85.75-.24.25.48.49.47-.24-.71-.5Zm-2.38.25-1,1h1.43l-.48-1Zm95.32.25.71.24-.71-.24Zm-229.86.24a1.86,1.86,0,0,0,.24,1h.95c-.39-1.09,0-.73-1.19-1Zm145.72.25-.72.75c1,0,1.15-.07,1.67-.5l-1-.25Zm43,0,.24,1.75.71.25v-.25Zm2.38.25-.24.5c.16.17.32.33.47.5H883l.24-1Zm-60.86.25c.42.6.25.42.95.75l-.95-.75Zm5.47,0-3.33,1.75c2-.64,2.92.18,4.52-.75l.24-.5v-.25l-.24-.25Zm50.63.25c.24.66.48,1.33.71,2l.72.25h.24v-1c-.64-.68-.6-.91-1.67-1.25Zm-4.75.25-.48,1.25,1.43-.5-1-.75Zm42.79,0,.71,1.25.24-.5-.48-.75Zm41.83,0h.71c-.15.33-.31.66-.47,1h-.24v-1Zm-340.63.25c.46.38.42.44.71,1-.57-.44-.39-.26-.71-1Zm120.28,0v1c.16-.34.32-.67.47-1Zm73.69,0-.24.75.48-.5-.24-.25Zm23.77,0a8.76,8.76,0,0,1-3.09,3.49c1.3,2.23,4.64,3.28,6.89,3.49l.48-.5-1-.25c.35-2.62,1.47-2.75,1.9-5l-.48-.49a13.21,13.21,0,0,0-4.75-.75Zm117.19,0-.48.5.24.5h.71l.24-1Zm-339.68.25,1.18.25v.5h-1.66v-.5Zm126.45.5c.41.61.15.29.72,0Zm136,0-1,2H874a3.06,3.06,0,0,0,3.09-1v-.25l-2.62-.74Zm-219.88.49.72,1c-.32-1,0-.52-.71-1Zm176.86,0-2.85,1.75v.75l.47.24,3.33-2.74Zm37.55.25v.5c.24-.43.22,0,0-.5Zm-47.3.75-1.66,1c1.49,0,1.66-.15,1.66-1Zm-123.61.25v1l.48-.5c-.16-.17-.32-.33-.47-.5Zm175,.25-.24.5.24.25.47-.25-.47-.5Zm-58,.25v1l-1.67-.24v.75l.48.74h1.19l1-1v-.26c-.43-.53-.32-.6-1-1Zm-190.41.25a6.13,6.13,0,0,0-1.18,1.25,3.43,3.43,0,0,0,2.13-1.25Zm208,0,.23.5c-.08-.17-.15-.34-.23-.5ZM614,869.87a2,2,0,0,0,.23,1.75l1.43.5v-1c-.63-.68-.6-.9-1.66-1.24Zm6.89,0-.48.75v.25l.95-.49Zm80.11.26.23,1.74a2.92,2.92,0,0,0,2.62-1v-.25l-2.85-.49Zm22.34.25-1.66,2.24a3.74,3.74,0,0,0,3.8,1l-.24-1.74L724,870.38Zm-118.38.24,2.38,1v.75l-.24.25h-1.19c-.05-1.45.43-1.12-1-1.5v-.5Zm271.23.25-.72.25.24.75.71.25,1.19.25.71-1c-.07-.17-.15-.33-.23-.5Zm49.68.25c.23.42.47.83.71,1.25l1.19.25c.16-.25.32-.5.47-.75-.15-.25-.31-.5-.47-.75Zm-206.33.25-.24.5,1-.5Zm204,0v1.5h.24v-.5c.31-.68.1-.48-.24-1Zm-3.8.25-1.19.75,1.19,1.49h.23c.87-.26.7-.2,1.19-.74l-.24-.75c-.53-.47-.33-.45-1.18-.75Zm-36.14.75-.23.5c.44-.31.13-.23.24-.5Zm-41.36.25c-.16.25-.31.5-.47.74v.25l1.19-.49-.71-.5Zm-21.39.25-1.9,1.49.24,1.25h.24l4-1v-.75l-.48-.5-2.14-.49Zm60.62,0-.72.74v1l1,1.49h.95c-.12-1.76-.57-2.1.24-2.74l-.24-.49Zm51.82,0-.48,1.49c.95,1.88,3.9,2.37,4.52,4l-1,5.48H937l1.19-.5v-1.49c1.4.69,2.89.65,3.8-.5l-.24-.75c-1.42-.33-2.39,0-3.56-.5l1-3.24c-1.7-.49-5.25-2.86-5-4Zm-187.79.25c-.5,1.72-.73.43-1.19,2a4.35,4.35,0,0,0,1.66,1.74h.24c.06-1.44,0-3-.71-3.73Zm140.72.24-.24,1.5.72.25a3.11,3.11,0,0,0,2.61-.25l-.48-.75-2.61-.75Zm-274.31.25v1c.16-.17.32-.33.47-.5l-.47-.5Zm260.05,0Zm2.14,0,.24.5c-.94.74-2.2.65-2.86,1.75-.08.24-.15.5-.24.74a11.92,11.92,0,0,0,6.19,1.25c.15-.17.31-.33.47-.5-.16-.25-.32-.5-.47-.75l-1.43.25a4.45,4.45,0,0,0-.71-3l-1.19-.25Zm-133.83.25v2.25l.71-.5.24-.5C740.83,874,741.11,874.31,740.17,873.86Zm191.36,0c-.6.74-1,.76-1.91,1.25l.72.5,2.14.25v-.25l-.48-1.75Zm-285.25.75-.24.5c.49-.22.26,0,.24-.5Zm177.8,0-.24,1.25.95-1-.71-.25Zm-118.61.25.47.25Zm122.18,0v.75l.47-.25-.48-.5Zm-88.43.25-1,1h1l.48-.5-.48-.5Zm102.45,0-.24.5c.65.32.46.11,1-.25v-.25Zm26.62.25c.56.81.25.68,1.19.5v-.25l-1.19-.25Zm-210.13.25Zm64.9,0c1.08,1.54,1.93,3.24,3.56,4.23l.48-.25-.24-1.74c-1.64.17-2.13-1.51-3.81-2.24Zm13.31.25c0,.76-.23.35.24,1h.23l.24-.74v-.25Zm142.38,0-.47.25c.16.33.32.66.47,1l.72.25c.89-.47,1.06-.39,1.42-1.49Zm-38.74.25-.24.74c.49-.57.27-.09.23-.74Zm-183.75.49-.24.5c.65.33.46.11,1-.25Zm94.37,0,.48,1.25h.23v-.25l-.71-1Zm118.62,0-.24.5.71-.5Zm-220.6.25c-.31.42-.63.83-.95,1.25l1.67-1.25Zm5.94,0c-.07.17-.15.34-.23.5.16-.16.31-.33.47-.5Zm86.29,0c-.16.42-.32.83-.47,1.25.31-.42.63-.83,1-1.25Zm207,0c0,.83-.22.58.24,1.25l.24-.5c-.3-.75,0-.3-.48-.75Zm-135.49.25.24,1.5,1,.25.24-.5Zm-74.4.25c-.24.75-.48,1.5-.71,2.24.79.94,1,1.55,2.37,1.25a6.5,6.5,0,0,0-1-3.49Zm85.1,0-3.33,2a6.08,6.08,0,0,1,3.57,1,6.18,6.18,0,0,1-.48-1.49l2.14-1v-.25l-1.9-.25Zm17.35,0c.33.48,0,.15.48.5l-.48-.5Zm-231.05.25-.24.5.48-.5Zm279.78,0c-.24.33-.48.66-.71,1,.15.33.31.66.47,1,1-.05,1.15-.06,1.67-.49l-1.43-1.5Zm23.77,0,.48.25-.48-.25Zm-4.52.25v1.49c1.89.1,2.94-.07,3.81-1h-.48c-1.36-.57-2-.12-3.32-.5Zm-27.09.25c.42.94.38.93,1.42,1.24l-.24-1-1.18-.25Zm10,0,1.43,1.74.47-.25v-.25l-1.9-1.24Zm8.79,0,.48.25-.47-.25Zm19.26,0,.71.5-.71-.5Zm30.19,0c.16.16.32.33.47.5-.15-.17-.31-.34-.47-.5Zm-230.81.25c.08,2,0,1.8-.95,3l1.66,1.24,1.43-.74c.07-.25.15-.5.23-.75a2.63,2.63,0,0,0-2.37-2.74Zm-72.5.25-.48.5c1,0,.93.21,1.66-.5Zm179.94,0-.72.74v.25l1.67-.25-.95-.74Zm1.42,0c.43.51,0,.17.72.5l-.72-.5Zm52.3,0c.49.55.33.47,1.19.74v-.24l-1.19-.5Zm18.07.25c-.72.74-1.43,1.49-2.14,2.24.07.17.16.33.23.5a4.28,4.28,0,0,0,2.62-2.49v-.25Zm-220.12.25-.71,1,1.19-.25v-.74Zm265.76,0-.95.74v.75l.23.25,1.67-.25-.48-1.49Zm-125,.49c0,1.45-.11,1.33.95,1.75v-.75l-.95-1Zm98.41,0a1.94,1.94,0,0,0,1.43,1l.24-.5-.24-.5Zm8.8,0c.45.61.15.41.95.75l-.95-.75Zm25.19,0c.46.61.16.41,1,.75v-.25l-1-.5Zm-22.34.5c.24.42.48.83.71,1.25l.48-.25v-.25l-.24-.75ZM811,880.34l-.48,4.24h1.67a5.88,5.88,0,0,0,2.37-1.75l-.24-2h-.71a2.33,2.33,0,0,1-2.14.5c-.16-.33-.32-.67-.47-1Zm104.82,0,.48.75.24-.25-.72-.5Zm-144,.25-.24.5.24.25c.15-.17.31-.33.47-.5v-.25Zm-36.85.25.48,1h.23l.24-.5v-.25l-.95-.25Zm147.85,0c.31,1,.13.78,1,1.25-.3-1.05-.13-.79-1-1.25Zm-170.67.25-1,.5v1.24l.48,1.25a5.58,5.58,0,0,0,3.32-1.5l-.71-1-2.14-.5Zm182.08,0,.24.75h.24c-.3-.76,0-.3-.48-.75Zm-5.23.5c.15,1.27.37,1.91-.23,2.74l-1-.5-.24,3.49-1.43-.5.48,1c1.79.32,3,.57,3.56,2.24l1.43-.25.24-.75c.28-1-.18-1.38-.48-2.49h.48c1.84-.62,2.72,1.28,3.8,2.24.86-.16.72-.1,1.19-.49l-3.33-3.74a2.09,2.09,0,0,0,1.43-1.25l-.24-.5a35.71,35.71,0,0,1-5.71-1.24Zm-179.7.25.24.5c-.11-.24.19-.17-.24-.5Zm212.27,0v1.24l.71-.25.24-.49-1-.5Zm-240.8.25c-.15.33-.31.66-.47,1h.24c.57-.47.38-.16.71-1Zm54.44,0v.74h.47l-.47-.74Zm1.43,0c-.69,1.27-1.62,1.39-2.38,2.49.41,1.46.5,2.49,1.9,3,.22-3,.68-3.3,2.14-5.23Zm161.87,0a2.58,2.58,0,0,0-.47,1.49c.52,1.25.77,2.06,2.14,2.49-.22-2.33,1-2.49.71-3.73Zm29.72.25-.24.74,1.19.25-.48-1Zm15.69.49c-.09.25-.16.5-.24.75.48-.45.16,0,.47-.75ZM609,883.08l-.48.75c.95-.35.43-.1.72-.75Zm299.74.25h.72v.25l-.72.25v-.5Zm-121.23.25c-.54.5-.79.52-1.18,1.25l-.24.74.71.25,4.76.25v-.74c-1.54-.66-2-1.53-4-1.75Zm128.84,0v.75h.48c-.31-.75,0-.3-.48-.75Zm-202.76.5-.48,1.49.95-1c-.16-.17-.31-.34-.47-.5Zm-2.85.25-.48,1.74h.24l1.66-1v-.25l-1.43-.5Zm5.22.25c-.51.46,0,.19-1.18.25v.25l1.18.25.48-.75Zm196.59,0a3.91,3.91,0,0,1,1.42,1.49h-.47l-1.19.25-.24-.25a2.41,2.41,0,0,1,.48-1.49Zm-309,.25-.24,1,1.19-.49-.24-.5Zm324,0,.48,1.49c.16-.16.31-.33.47-.5l-.95-1Zm-190.16.25-.24,1.49.71-.5v-.25l-.47-.74Zm2.38,0-.48,1.74.48-.25v-1.49Zm213.69.25.48.49c-.71,1.17-1.43,2.33-2.14,3.49l-1.19-.5.24-.74c.6-1.36,1.61-1.84,2.61-2.74Zm-286.67.49c.29,1.12.32.88.95,1.5l.71-.25.24-.5c-.16-.08-.32-.16-.47-.25l-1.43-.5Zm121.47.75c.16.33.31.67.47,1h1v-.75h-.47Zm-183.75.25.24.5c-.1-.23.19-.17-.24-.5Zm257.67,0c-.07.17-.16.33-.23.5.42-.33.36,0,.23-.5Zm-121.46.25c.58.39.72.5,1.42.25Zm12.12,0v1.5H753l.23-.5c-.16-.34-.31-.67-.47-1Zm38.27.25.71.75v-.75Zm111.72.5,1.43.25v.25c-1-.1-.93-.09-1.43-.5Zm-112.43.25.47.5-.47-.5Zm107.68,0c.07.85-.17.53.47,1.24l.48-.74-1-.5ZM788,888.32c0,1.51-.14,1.57.95,2v-1.25l-.95-.74Zm-40.65.25c.31.74.15.55.71,1-.31-.95,0-.52-.71-1Zm177.33.24.24,1.75,1,.25v-.75c-.42-.75-.42-.83-1.19-1.25Zm-189.45.25c.42.9-.13.3.71.75l-.71-.75Zm-9,.25Zm167.58.25-.48.25a4.88,4.88,0,0,0,.24,2.74l.71-.25.48-.5-.24-1.49c-.38-.67-.08-.34-.71-.75Zm3.8.25.48.75.47-.5Zm-245.31.5-.48,1.74,1.67,1.5-2.14,1.74.71.75a5.1,5.1,0,0,1,4-1c.64,1.69,1,2.81,2.86,3.24.15-.25.31-.5.47-.75.7-1.09.48-3.27.24-4.73l-1.43.75a4.82,4.82,0,0,0-1.9-3.24c-2.13,1.05-1.5.31-4,0Zm94.61,0,.71,1h.24c-.37-1,0-.61-.95-1Zm175.66,0c.24.33.48.66.71,1h.24v-.25l-1-.75Zm-196.82.25-.71.75.71.24c.58-.47.38-.16.71-1Zm15.69,0c.54.38.29.45.95.25Zm2.38,0c.08.25.16.5.23.75h.24c-.3-.76,0-.3-.47-.75Zm-76.78.5-.48.25.48.49h.71v-.25Zm4.75,0-.24,1,.48-1Zm55.39.25.47,1.49h.95c-.37-1.12-.54-1-1.42-1.49Zm181.84,0c-.8.61-1.2.72-1.66,1.74a1.87,1.87,0,0,0,.47,2l1.67-.25,1.66-2.49-.71-.5-1.43-.49Zm15.69,0-.71,1,1.42-.75v-.24ZM739,891.55c-.09,1.15.32.73,0,1.75l-2.14.75.48.74,1.19.75,1.66-.5c-.45-.63-.41,0-.24-.74a4.09,4.09,0,0,0,.48-2l-.72-.5Zm165.44.5v1h.48c-.22-.91,0-.51-.48-1Zm-276.45,1,.24.5c-.1-.23.19-.17-.24-.5Zm20.68,1c-.16.41-.31.83-.47,1.24h.24c.52-.51.44-.34.71-1.24Zm16.4,0c-.07.41-.15.83-.23,1.24h.23l.72-.74-.72-.5Zm-24,.25-.24,1h.71l1.19-.74Zm279.06,0c.4.61.15.29.72,0Zm-291.19.25c-.08.16-.16.33-.23.49.49-.21.26,0,.23-.49Zm20.45.49-.48,1.5c.87-.27.7-.2,1.19-.75-.42-.89.12-.29-.71-.75Zm183,.25-.95,1.5,1.43-1.25-.48-.25Zm74.4,0c.44.77-.14.57.71.5-.08-.16-.15-.33-.23-.5Zm-278.83.5.24.5c-.1-.23.19-.17-.24-.5Zm224.63,0,.72,1-.72-1Zm-226.53.75-.24,1,.48.25,1.19.26.23-.51-.71-1Zm111,0c.16.33.32.66.47,1l.24-.24V897l-.71-.5Zm-98.41.25-.71,1c1-.38.58.05.95-1Zm10.7.25c.08.16.15.33.23.49-.1-.22.19-.16-.23-.49Zm189,.25c.65.67.76.51,1.43,0Zm-185.17.49Zm180.66,0v.75c.15.09.31.17.47.25l1.19-.5-.24-.5Zm62.51.26-.23,1.24h.23l.48-.5-.48-.74Zm-237.23.74c.43.51,0,.18.72.5l-.72-.5Zm188,0c-.08,1.14.1,1.08.71,2h.24l1.19-.5V899h-.48l-1.66-.25ZM830,899a2.18,2.18,0,0,0,1.67,1v-.25l-.72-.5-1-.25Zm39,.75-.24.5c.42-.34.36,0,.24-.5ZM604.44,900c-.37,2.13-1.53,2.42-2.61,3.73.53,1,.65,1.21,1.9,1.5.35-1.69,1.71-2.2,2.85-3V901l-2.14-1Zm248.17,0c0,.77-.15.29.23,1l.48-.49-.72-.5Zm18.54.25c0,1-.22.51.23,1.24l.72-.25c.08-.16.16-.33.23-.49-.47-.4-.33-.33-1.19-.5Zm-256,.25-.48,1,1,1h.95v-.25l-.71-.75C615.54,900.41,616,901,615.14,900.53Zm234.85,0-.24.49.24.25.48-.49v-.25Zm16.16,0c.33.48,0,.14.48.49Zm-11.88.49v.75h.47c-.15-.25-.31-.5-.47-.75Zm-167.35.75c-.33.77-.17,0-.23,1C687.05,902.2,687.12,902.47,686.92,901.77Zm170.91,0-.71,1h1.19L859,902v-.25Zm5.95,0-1.43,2c.24.5.48,1,.71,1.5h.24l3.8-.75c-.33-1.55-1-1.86-1.9-2.74Zm37.55,0c-.15.25-.31.5-.47.75h.95l-.24-.75Zm7.61.5-.24.25.24.5.48-.5-.48-.25Zm-54.91.5V904l.71.24,1-1c-.07-.17-.15-.33-.23-.5Zm26.62,0,.72,1h.24v-.24l-1-.75ZM617.28,903ZM907,903l-.24.5v.24c.87-.26.7-.2,1.19-.74Zm-157.84.25c0,1.13,0,1.43.48,2V904Zm121,1.24a6.93,6.93,0,0,0-1,3.49l.72.5,1.18.25c.09-.08.16-.17.24-.25A8.73,8.73,0,0,0,870.19,904.51Zm-53.72.25-.23.25c.07.17.15.33.23.5l.48-.25V905Zm24,.25.95,1.25.72-.5-.24-.5Zm14,.25c.15.25.31.5.47.75l.48-.25-.24-.5Zm63.23.5c.51.74.15.67,1,.5l-1-.5ZM748.49,906c.4.62.14.29.71,0Zm-148.57.25c.46.34.15,0,.48.5l-.48-.5Zm147.14,0-.24.5.48-.5Zm129.08.25-.48,1,1.19,2,4.75,2.24V909.5c-.23-.42-.47-.83-.71-1.25a3,3,0,0,0-2.14.75l-1.42-2.49Zm-268.37.25c.08.16.16.33.23.49-.1-.23.2-.16-.23-.49Zm257.43,0-.24.74c.5-.57.28-.09.24-.74Zm-165.2,1-2.14,1.75v.75a5.35,5.35,0,0,1,1.19,2.24c2.88-.47,3-2.15,2.37-4.24l-1.42-.5Zm-102,.5-.24.75.72-.75Zm7.13.25-.47,1.5.71.49,1-1v-.75l-1.19-.25Zm97.22.25-.47.25v.5h1l.24-.5v-.25Zm196.59,0-.24.5.71.25.48-.25-.24-.5Zm-90.33.75c.16.33.32.66.47,1l.24-.75v-.24Zm68.22.75-.24.49c.72-.31.29,0,.72-.49Zm-68,.74.72.75c-.38-.67-.08-.34-.71-.75Zm91.28,0c.21,1.13,0,.74.72,1.25l.71.25.71-.75-.23-.5Zm-214.41.25-.23,1.25.71-.25c-.16-.33-.32-.67-.47-1Zm109.11,0-.24.25.48.5h.24v-.75Zm41.36.25-.24.5c.45-.31.13-.22.24-.5Zm-242.93.25c-.14.59.18.5-.72,1Zm59.66,0v1h.24Zm49.92.25c.4.62.14.29.71,0Zm-5.47.75c.43.51,0,.17.72.49-.43-.51,0-.17-.72-.49Zm106.73.25-.24.49.48.5.71-.5c-.08-.16-.15-.33-.24-.49Zm7.61,0-.24.49c.43-.33.36,0,.24-.49Zm25.91.24c.16.17.31.34.47.5l-.47-.5ZM686.69,914v.75c.15-.25.31-.5.47-.75Zm117.66.5-1.66,1.25.47.5c.64,1.07,1.27,2.15,1.9,3.23h1l1-.74c-.5-.74-2.33-4.08-2.61-4.24Zm101.74.25c.08.42.15.83.23,1.25l.48-.25v-.5l-.71-.5Zm1.42,0,.72,1h.23c-.36-1.05,0-.61-1-1Zm-15.45.25-.24.5.48-.5Zm-75.83.5.24.5,1.19-.25v-.25Zm-24.48.25v.5c.23-.44.22-.06,0-.5ZM712.59,917l-.71.25V918l.48.25.71-.75c-.16-.17-.32-.33-.47-.5Zm86.06,0-.72,1c-.24.66-.47,1.33-.71,2a5.35,5.35,0,0,0,2.61-1c-.16-.59-.31-1.17-.47-1.75Zm-132.88.75-.24.5c.49-.22.26,0,.24-.5Zm152.13.5c.33.48,0,.15.47.5-.15-.17-.31-.34-.47-.5Zm-15,1c-.09.42-.17.84-.24,1.25a1.33,1.33,0,0,0,1.66-.25l-.24-.5-1.19-.5Zm119.56,0,.48,1c-.22-.91,0-.51-.48-1Zm-284.3.75-1,.75c-.07.58-.15,1.16-.23,1.74h.47a3.79,3.79,0,0,0,3.81-1.24c-.39-.64-.3-.61-.95-1Zm194.92,0v.75h.48l-.48-.75Zm-27.33.75.47.25-.47-.25Zm-147.14,1.5c.15.9.09.75.47,1.24h.24c-.24-1-.09-.75-.71-1.24Zm2.61,0-.24,1.24.48-.25.24-.75-.48-.24Zm241.51.24c.46.76,0,.41,1,.75v-.75Zm-67.51.5c.4.62.14.29.71,0Zm-59.42.5-.24,1.75h.24l.47-.25c-.1-1-.08-1-.47-1.5Zm-141.91.5c.15.33.31.66.47,1-.16-.34-.32-.67-.47-1Zm163.77.5-.47.25,2.14,1,.24-.49-.48-.5-1.43-.25Zm-181.13.25v.74h.24l.71-.49v-.25Zm51.11,0-.24.5.71.24v-.74Zm126,0,.24,1.24a3.65,3.65,0,0,0,3.09.5v-.25l-.71-.75ZM674.33,925c-1,1.11-1.51,1.2-.24,2.24a3.22,3.22,0,0,0,1.42-1.25C675,925.07,675.42,925.28,674.33,925Zm137.39,0-.48.74.48.75.71.25h.24V925Zm-131.93.25a2.8,2.8,0,0,0,1.43,1.74l.47-.25v-.75l-.47-.5Zm123.61,0a2,2,0,0,0,.24,1.24l2.14.75v-.25A3.76,3.76,0,0,0,803.4,925.2Zm76.54,0-.71.74h.71l.48-.74Zm-281.44.24H599C598.56,925.69,598.92,925.67,598.5,925.44Zm25,0c.15.25.31.5.47.75h.24v-.25l-.71-.5Zm152.84,0-1.66.5v.25l.71.25,1.66-.25v-.75Zm106.25,0c.54.52.25.42,1,.25l-.94-.25Zm-257.43.25-.48,1h.24l1.19-1Zm41.36,0a4.46,4.46,0,0,0,.24,3.49v-.5a1.53,1.53,0,0,0,.47-1.74c-.25-.91-.19-.73-.71-1.25Zm47.07,0c.08.17.15.34.23.5-.1-.23.19-.17-.23-.5Zm167.82.75,2.85,1.25-.48-1Zm-88.43.25.48.5c-.34-.48,0-.15-.48-.5Zm20.44,0v1l.48-.5-.48-.5Zm82,0-1.19.75v.25l.72.25,1.18-.75-.71-.5Zm-93.18.25c0,1.36.1,1.16-.24,2l2.85-.25.48-.24v-.25l-3.09-1.25Zm-182.56.25c-.08.33-.16.66-.23,1,.15-.34.31-.67.47-1Zm10.46,0-.24.5c.45-.31.13-.23.24-.5Zm184.46,0-.24,1.49.72-.49v-.25c-.3-.76,0-.3-.48-.75Zm-190.16.25-.72.5v.5c.87-.27.7-.21,1.19-.75Zm149.28,0c-.34.77-.17,0-.24,1h.24c.15-.34.31-.67.47-1Zm34.94.25c.16.08.32.16.47.25-.15-.09-.31-.17-.47-.25Zm-14.5.25c.47.93-.1.4,1,.74v-.24l-1-.5Zm-192.54.25v1.24l.47-.25v-.25c-.3-.75,0-.3-.47-.74Zm323.28,0c1.06.34.93.39,1.42,1.24v.25c-1.13-.3-1.5-.66-1.42-1.49ZM632,928.44l.47.49c-.33-.48,0-.15-.48-.49Zm185.17,0c0,.92-.15,1,1.19,1.24v-.75l-.24-.49Zm-157.6.49-.48.25v.25c.62-.28.41-.39.48-.5Zm132.64,0Zm-168.06.25c-1.21,1-3.32,1.4-4.51,2.24a10.45,10.45,0,0,0-.48,5h.24c1.86-.73,2.13-2,4.51-2.24.88.67.94,1.16,1.91.49l.95-.49c-.7-1.22-1.34-4.34-2.62-5Zm54.91,0-.24.75a1.74,1.74,0,0,0,.72-.75Zm118.14,0,.24,1h.24c.16-.33.31-.66.47-1Zm-92.94.5-.24.5.48-.5Zm-89.62.5a2.26,2.26,0,0,0,.24,1.74h.71l.24-.5-.24-1-1-.25Zm2.14,0c0,.76-.22.35.24,1h.24l-.24-1Zm194.45.5-.72.5.24.49h1l-.48-1Zm-13.55.25-.48.25.48.74h1.66l.24-.5-.24-.49Zm-159,.49c-.23.34-.47.67-.71,1,.73-.37.76-.28,1.19-1Zm-35.65.25,1.42.25v1.25c-1.12-.33-1.11-.33-1.43-1.5Zm290.47,0,.48.75.47-.25c-.07-.16-.16-.33-.23-.5Zm20,0-.48,1.5h1l.71-.75-.24-.5-.95-.25Zm-189.21.25-.24.5c.87-.23.49,0,1-.5Zm175.42.25c-.07.25-.16.5-.23.75.32-.53.42-.13.23-.75Zm-247.21.25-.24.25.48.5.47-.25Zm-53.72.5c.64.55.45.18.71,1.25l-.71.74-1.19-.25-.24-1.24,1.42-.5Zm286,0-.24.5c.65.32.46.11.95-.25v-.25ZM638,933.17l-.24.5c.42-.34.36,0,.24-.5Zm204.19,0a2.93,2.93,0,0,0,1.9,1.49l-.24-.74-.95-.75Zm-198.48.25-.95,1.49c.87-.29,1.77-.93.94-1.49Zm98.64,0-.71.75a9.06,9.06,0,0,0,1.9,5.73h-1.66c.16.25.32.5.47.75l1.43.24a4.51,4.51,0,0,0,1.9-4c-.68-1.81-1-3.31-3.33-3.49Zm152.85,0c-.24.33-.48.66-.71,1l.23,3c1.06-.34,1-.62,1.67-1.24l.71.5a5.22,5.22,0,0,0,2.14,3v.25l-2.38.75.95,1.24c1-.67,2.7-1.37,3.33-2.49.39-.91,1.12-3.41.95-4-.31-1.12-.54-1.08-1.19-1.74-1.77.28-2.1,1.25-3.09.75l-2.62-1Zm-229.62.25c-.61,1.5-.62,2.68-1.43,3.73l.24,1.25.47.25.95-.5c.52-1.59,1.08-2.69.72-4.73Zm157.83,0-.24.5.72.25h.24v-.25l-.72-.5Zm39.22,0,.72.25-.72-.25Zm23.77.75c.33.47,0,.14.48.49Zm-62.27.49c.07.25.15.5.23.75l.72-.75Zm21.15,0c.33,1,.34,1.47,1.19,2v-.75c-.4-.42-.8-.83-1.19-1.25Zm-171.87.5v1h.48Zm237.47,0,.24,2,.48.25.71-.25v-.24Zm-310.2.5c1,.38.58,0,1,1h-.48l-1,.25v-.25l.48-1Zm48.49,0-.48.75c1.05-.19.89-.15,1.43-.75Zm4,0-.48.75,1.19-.5v-.25Zm6.42.25v.75l.71-.75Zm224.87,0c.08.16.15.33.23.5l.24-.5Zm-209.66.5c-1.47.64-2.74.34-3.33,2H672c1.88.87,3.42-.73,4.28-1.74v-.25Zm148.33,0-1.9.5-.24.74.71,2-.71-.25c.16.66.32,1.33.47,2-1.14,0-1.84-.06-2.37.5-1.18,2.74.92,4.85,2.14,6h1.9a4.5,4.5,0,0,1,.47-4.24c1.62-.08,3,.09,4-1.24-.08-.33-.15-.67-.23-1-1.39.14-1.16.35-2.14.75-.27-1.11-1-4.94-1.67-5.48l-.47-.25Zm32.56,0c-.07.25-.16.5-.23.74.15.09.31.17.47.25l.48-.49-.71-.5ZM638,936.91a5,5,0,0,1,.23,3.74,5.47,5.47,0,0,0,3.09-3.49Zm31.14,0c.15.25.31.49.47.74l.71-.49Zm-22.82.25c-2.8,1.94-4.47,4.47-6.42,7.22v.25c1.32-.35,2.18-1.26,3.56-.75l1.19,1-.71,2,.24.25,1.18-.25c2.32-1.15,2-3.63,1.43-6l2.14-2v-.75c-.4-.24-.79-.49-1.19-.75l-1.42-.24Zm11.88.24-.24.75,1-.5Zm8.56,0-.24.75c.33-.53.43-.13.24-.75Zm25.2,0c.07.5.15,1,.23,1.5h.24c-.07-1.06,0-1-.47-1.5Zm127.64.25c-.15.42-.31.84-.47,1.25l1.19.25c.07-.25.15-.5.23-.75l-1-.75Zm-64.65,4.24h1.42l.95-1.24c-.31-.84-.63-1.67-.95-2.5l-1.19-.25-.95.75A5,5,0,0,1,754.91,941.89Zm-60.14-3.49-.95.75c.08.25.16.5.23.75l1.67-1v-.25l-1-.25Zm-73.45.75-.24.75c.48-.45.17,0,.47-.75Zm231.76,0-.72.5c.37,1.15.29.93,1.43,1.24v-1a1.71,1.71,0,0,0-.71-.75Zm41.12,0-.24.5.72.75h.23c-.23-1-.09-.75-.71-1.25Zm-76.54.25-.48.25.24,1h1.19l.48-.75v-.25l-.24-.25Zm27.1.5-.24.5,1.19.25.71-.5-1.66-.25Zm-14.74.75c-.31,1-.44,1.24.24,2.24l.47-.25v-2Zm-132.16.49-.24.75c.33-.53.43-.13.24-.75Zm112,0c.06,1.32-.06,1.2.71,1.75l1,.25v-.25a3.17,3.17,0,0,0-1.66-1.75Zm44,.75.48.25-.48-.25Zm-6.65.5c.07.25.16.5.23.75l.48-.25-.71-.5Zm20.68.25-.24,1.24-1.43-.74a3.28,3.28,0,0,1-1.9,2.49c.12,2,.78,2.3,1.19,4l-.24.25h-1.9l1-1.74-1-.75c-1.26,1-1.43,3.11-.95,5.24l.48.25,2.13-1.5c-.07.5-.15,1-.23,1.5l1.18-1c.62-2.07,1.39-4.71,1-7.23,1.18-.14.92,0,1.42-.75,0-.93.52-.65-.47-1.24Zm-53,.25-.71,1c-.56,1.08.61,2,1.66,2.25v-.5a2.12,2.12,0,0,0-1-2.74Zm37.79.25c-.08.16-.15.33-.24.49.43-.33.37,0,.24-.49Zm-23.05.25a1.92,1.92,0,0,0,.23,1.24l.48-.25v-.25c-.38-.67-.08-.34-.71-.74Zm91,0c.72.5.61.24.95,1.24h-1.19l-.48-.5.24-.5.48-.24Zm-71.31.24-.48.25v.75l1.19-.5-.24-.5Zm9.74.75Zm-32.57.25-.23.25,1.42,1.25.48-.25v-.25l-.24-.75-1.42-.25Zm23.78,0-.24.5c.44-.31.13-.22.24-.5Zm10,0c.58.67.32.38.95.5l-.95-.5Zm-192.07.5.24.5c-.1-.23.19-.17-.24-.5Zm163.07,0c.58.66.32.38.95.5l-.95-.5Zm22.11,0-.24.5c.16-.17.32-.33.47-.5Zm17.35,0-.24.5.71.25.24-.75Zm-54.2.25c.46.6.15.4.95.75a2,2,0,0,0-.95-.75Zm91.28,0-.24.5.72.25v-.75Zm1.43,0c.4.62.14.29.71,0Zm-213.7.25-.48,1.24.48.5.48-.25c-.08-1,0-1-.48-1.49Zm137.63.25.71.75h.72v-.25l-.24-.5Zm16.64,0c-.47.5-1,1-1.43,1.49v.25l1.43.25v2.49h1.19c1.3-.3,1.41-.69,2.14-1.49a3.19,3.19,0,0,0-3.33-3Zm5,0v2.74l.24.25.48-1c-.43-.69-.23-.76.23-1.74Zm60.14,0c-.16.5-.32,1-.47,1.49h.23l.72-.5c.08-.24.15-.49.24-.74l-.72-.25Zm-57.76.25-1,1,.24.5h.23l1.19-1-.71-.5Zm15.45.25a8.88,8.88,0,0,0-.24,10.21c-3.16.11-4.19,2.7-5.46,4.74.07.16.15.33.23.49,1.36-.34,1.53-.94,2.62-1.49l-.48,1.49c.8,1.08,1.59,2.16,2.38,3.25l.24,4.73h.24l.95-.5c.39-1.41.79-2.82,1.18-4.23-.74,0-.86.45-1.18-.5s-.8-1.83-1.19-2.75c.85-.41.56-.06.95-1-.77-.91-2.57-1.86-.95-1.75l.24-1.74.71.25,4,4.48-1,1.75a11.45,11.45,0,0,1,2.37,2.74v.25a3,3,0,0,0-2.61,1c1.42-.23,2.61-.74,3.57,0a5.46,5.46,0,0,0-1,3h1c.31-.42.63-.83.95-1.25l-.24-2.74c.7-1.37,2.2-1.64,3.56-2.24v-.75c-.71-.31-.43-.32-1.18-.25l-.48-5.23h-.24l-1.66,1.24c-.24-1.08-.48-2.16-.71-3.24h-.72c-.48.84-.61.72-.47,1.75l-.71,1.24h-.48v-1.24l-2.38-.25c-.15-1.22-.46-.65-1.18-1.75a2.28,2.28,0,0,1-.24-2h.24l1.66,1.5.71-.25a11.92,11.92,0,0,0-2.14-3.74h-.23l-.72,1.25-.71-.5c.19-2,1.32-4.2.71-6Zm48.26.25-2.15,1.24v.5a14.33,14.33,0,0,1,4.52.5l-.24-.75-2.13-1.49Zm-262.67.24-.71,1.25.71.25,1-.75-1-.75Zm119.8,0,.24.5.24-.5Zm81.77,0c.46.76,0,.41.95.75v-.25l-.94-.5Zm53.25,0v.5c.23-.43.22,0,0-.5Zm-86.53.25-1.42.5a2.66,2.66,0,0,0,1,3l.71-.5.24-2.49s.14-.21-.47-.5Zm6.42,0c-.16.33-.31.67-.47,1l1-.75c-.16-.08-.32-.16-.47-.25Zm-163.3.25-.48.75.24,1.25a6.43,6.43,0,0,0-3.8,1l-.48,2.5,3.09-2.25.48.5c-.36,1.26-.76.9-.24,2l2.85.75,1.19-1-.71-.5-1.66-.25c.07-.25.15-.5.23-.75,1.21-1.11,1.67-1.93,3.81-1.5.08.42.16.83.23,1.25l.72-.25,1.9-2.24v-.25l-2.62,1,.48-2Zm106.49.25.48.25Zm42.55.25.24,1,.48.25c.15-.17.31-.34.47-.5l-.71-.5-.48-.25Zm-181.61.5h.48c-.41.24-.05.23-.47,0Zm140.49,0c.4.62.14.29.71,0Zm83.43,0-.24.5v.25h.72l-.48-.75Zm-189.21.25Zm-22.82.25v.74l.71.25v-1Zm30.43.25v.49c.23-.43.21-.05,0-.49Zm1.66.25.95,1.24c-.31-1-.13-.78-.95-1.24Zm9.51,0,.47.24-.47-.24Zm130.74.24Zm-149.05.5c-.07.17-.15.34-.23.5.64.33.45.11.95-.25l-.71-.25Zm12.84.25-.24.25.48.5c.16-.17.32-.33.47-.5Zm163.54,0c.12,1.36-.1,1.09,1,1.5-.24-1.11-.15-1-1-1.5Zm5.71,0v1h.24l-.24-1Zm19.25,0v.5c.24-.43.22-.05,0-.5Zm1.19,0c-.32,1.65.2,3.06,2.14,3.24l-.24-.5c-1.08-.69-.94-2-1.9-2.74Zm-42.31.25-.24.75,1,.75v-.75a1.77,1.77,0,0,0-.71-.75Zm19.73,0-.24.5c.16-.17.32-.33.47-.5Zm7.37,0-2.14.75.23.5c1.34.13,2,.34,2.86-.25h.47l-.24-1Zm66.55,0,1.43.25v.25h-1.43v-.5Zm-192.3.5a1.42,1.42,0,0,0,1.66.25l-1.66-.25Zm3.09.25-.24.5.48-.5Zm131.21,0v.75l.24-.75Zm11.41,0c-.16.58-.32,1.16-.47,1.74l2.61,2.5,1.9-.5a2,2,0,0,0-.23-1.75h-2.62l-.24-2Zm31.62,0-.24.5.48-.5Zm-251,.25-.24.75c.63-.44.33,0,.24-.75Zm175.9.5v1h.24l-.24-1Zm18.78.5-.24,1.24h.24Zm1.66,0c-.15.33-.31.66-.47,1l.24,1.5c.16.08.32.16.47.25h.48l.24-.25c.08-.75.15-1.5.23-2.24Zm-17.59.25.24,1.49c1.05-.19.89-.15,1.43-.75l-.71-.5-.95-.24Zm77,0,.24.49-.24-.49Zm-187.07.49-1,.75v.25a4.35,4.35,0,0,0,2.61.25v-1H730l-1.19-.25Zm5.47,0-.48.75.48.5c.66-.39.55-.37.95-1l-.95-.25Zm155.69,0,.48,1-.48-1Zm8.09,0c.18,1.1.14.93.71,1.5H899c-.23-1.11-.15-1-.94-1.5Zm-171.63.25v.5c.23-.43.22-.05,0-.5Zm115.53,0,1,.5-1-.5Zm45.16.5c.46,2.75,3,2.71,2.38,5.73l.95-.25.71-.5c0-2.4-.74-3.14-1.66-4.48l-2.38-.5Zm-55.38.25c-.89.89-1.72.76-2.38,2l.47.75,1.91.5c.31-.42.63-.83.95-1.25,0-1.51.14-1.57-.95-2Zm9.5,0,.48.75c-.3-.76,0-.3-.48-.75Zm20.68,0c.26.91.2.73.72,1.25h.23v-1l-1-.25Zm31.38.25c.31,1,.13.78,1,1.24-.32-1-.23-.73-1-1.24Zm-222.73.25-.48.25c.68.29.24.18.72-.25Zm184,.25c.45.77-.14.56.72.5l-.24-.5Zm4.28,0,.72.5-.72-.5Zm-195.39.25-.24.25.24.49.47-.49Zm1.66,0v.74c.49-.33.39-.28.72-.74Zm65.61,0-1.9,1h2.38c-1.26.26-6.24.63-6.42.75l.47.75c2.67.9,7.45,3.83,9.51,0V955.6Zm160.93,0,.95.49-.95-.49Zm-24.25.49c-.63.84-1.27,1.67-1.9,2.5l.71.5h1.19l.95-.5a3.56,3.56,0,0,0-.95-2.5Zm-3.09.25v1.25h.24c.16-.17.32-.33.47-.5l-.71-.75Zm-194.2.25.47.25Zm248.16,0,.24.5-.24-.5Zm-26.62.25c.23.42.47.83.71,1.25v-1.25Zm-175.43,1-.48.75c1-.06,1.15-.07,1.67-.5v-.25Zm61.09,0c-.51.44-.58.33-1,1l-.24.74.24.25,1.9-1.49v-.25Zm64.42,0,.24,1.74h.23c0-1.09,0-1.23-.47-1.74Zm18.3.25-.47.25c.07.41.16.83.23,1.24l.48-.25.24-1.24Zm23.06.5a2.22,2.22,0,0,0,1.43,1.49v-.25a2.06,2.06,0,0,0-1.43-1.24Zm-159.74.74c-.47.34-.95.67-1.43,1,.3,2.11,3.7,3.78,5.23,2.74l2.14-.75c-.67-2-3.55-2.81-5.94-3Zm123.84,0v.75l2.38,2.24c-.24-1.12-.14-2.14-1-2.74Zm10,.25-.48.25.48.75c.16-.17.32-.33.47-.5l-.23-.5Zm-189.45.25c.31,1.13.54,1.08,1.19,1.75l2.14-.5-.48-.75Zm218.45.25c.27,1.72,1,2.18,2.61,2.49v-.5c.95-1.2-1.38-2-2.61-2Zm-223.44.25-.48,1.74,1.19-.24Zm53,0v.5c.24-.44.22-.06,0-.5Zm199.68,0-.72.75v.25h.48c.89,0,.62.54,1.19-.5l-.95-.5Zm-34.71.25.24.5-.24-.5Zm2.62,0c.07,1.66.2,1.62,1.19,2.24,1-.38.58,0,.95-1l-2.14-1.25Zm-36.85.25-.47.25c.43.51,0,.17.71.5v-.75Zm51.11,0v.5C897.76,960.64,897.75,961,897.53,960.58Zm-22.82.25v1l.48-.49-.24-.5Zm-160.21.5c0,.83-.22.57.24,1.24l.71-.25C715.08,961.28,715.49,961.71,714.5,961.33Zm-53.72.74-.48.75,1.19,1,.24-1.5Zm43.73,1-.47.75h1v-.75Zm8.8,0v.75l.47-.25c-.15-.17-.31-.33-.47-.5Zm135.49,0,.24.75h1v-.25c-.47-.4-.33-.32-1.19-.5Zm35.42.25-.24.5c.44-.31.13-.22.24-.5Zm3.33.25.47.75.24-.75Zm-115.29.5v1.49h.24l.71-.49v-.75Zm75.83,0a1.9,1.9,0,0,0,.47,2.74c1.37-.27,1.18-.4,1.67-1.5-1.57-.13-1.43-.33-2.14-1.24Zm40.88.25-1,1.24,1.43-.74-.48-.5Zm-223.91.5.47.25Zm113.86.25v.74l1-.5-1-.24Zm-110.54.24-.23.5h.47l-.24-.5Zm221.78,0v1h-.24l.24-1Zm-201.33.25v.75h.71v-.25l-.71-.5Zm212.5,0,4.52.25c-.71,1.5-1.42,3-2.14,4.49l-2.85-1c.32-1.71.14-1.51-.24-3.24l.71-.5Zm-236,.25c-.39.34-.79.67-1.19,1h.72l1.9-1Zm108.16.5Zm129.07.25c0,.76-.23.35.24,1H903l-.48-1Zm-34.94,1c-.16.25-.32.49-.48.75l.24.49,1.43-.25v-.24l-1.19-.75Zm1.9,0,.24.75.47-.26-.71-.49Zm-12.12.25c.43.5,0,.17.71.5l-.71-.5Zm-7.13.5-.24.49.24.25.47-.5v-.24Zm3.09.74-.48.75h.48l.95.25c-.37-1,0-.61-.95-1Zm22.34,0c-1.2,1.15-2,2.09-1.66,4.24l1-.25c.51-1.62,1.09-1.55,2.14-2.49l-.24-1-1.19-.5Zm-25,.5v.75h.48l-.48-.75Zm17.59.75-.71,1c.25,1.25-.08.84.95,1.25.42-.84.68-.61,1.19-1.25l.24-.74-.24-.25Zm3.57.5v1.74l.47.25c.4-.42.8-.83,1.19-1.25-.08-.25-.16-.49-.23-.74Zm-102.21,3c1.17-.13,1.08-.12,1.66-.75l-.48-.75-1.18.25Zm132.87-1.5h.72l1.42,1.5v2h-.24C903.19,975,903,973.89,902.52,972.29Zm-31.38,1.5.72.24ZM733.75,974l-.24,1.75.48-.25V975c.09-.72.27-.41-.24-1Zm140,0-.71,1-.72,2.24c1,0,1.89,1,3.33,1l1-2.24-2.85-2Zm-2.85,1-.48,1.5,1.43-.75-.24-.5-.71-.25Zm-58.24.5c.16.17.32.33.47.5-.33-.48,0-.15-.47-.5Zm88,0,2.14.5.24,1.24c-1.13-.55-.43-.72-1.43,0-1-.58-1.1-.58-1-1.74Zm-13.31.5c.86.69.66,1,.47,2.24-1-.36-.63-.33-1.19-1V977l.72-1Zm10.46,0h.47c-.33.48,0,.15-.47.5Zm6.89,0h1.66l1,1.24v.25l-1.67.25-1.19-1,.24-.75Zm-87.24.5.48.5-.48-.5Zm-114.57.25c-.24,1-.48,2-.71,3l1.66-1.25v-1l-.95-.74Zm29.24,0v1.49l.47.25c.83-.46.64-.21,1-1.25l-1.19.5v-1Zm125.27,0c.06,1.49.24,1.94,1.19,2.49.47.4.33.32,1.18.5-.1-1.2.19-1.63-.23-2.25a2.7,2.7,0,0,0-2.14-.74ZM719,977l-.23,1.49h.71l.24-.75c-.38-.67-.08-.34-.72-.74Zm108.16.49v.75c.16-.16.32-.33.47-.5l-.47-.25Zm73.21.25h.48c-.33.48,0,.15-.48.5Zm-80.1.5a3.55,3.55,0,0,0,.47,2.49l1.19-2-.24-.25-1.42-.25Zm78.44,0,1.66,1.25v.25h-.23a3.16,3.16,0,0,1-1.43-1.5Zm-25.91.25c-.75.62-.83.36-1.19,1.5a5.83,5.83,0,0,1,3.09-.5v-.25l-1.9-.75Zm15,.25v2a2.73,2.73,0,0,1-.23.25l-.48-.25v-1.24l.71-.75ZM738,979c.81.35.57.45,1.19,0Zm169.48,0,.48.75c-.49-.45-.17,0-.48-.75Zm-46.82.25Zm1.18.5.24,1.49.95-.25c-.08-.41-.15-.83-.23-1.24Zm-46.11.25-.24,1,.48-1Zm-77.73.25-.24.74c.72-.48.25-.08.48-.74Zm128.6.74c-.24.5-.48,1-.71,1.5.45-.35.14,0,.47-.5s.44-.3.24-1Zm-9.51.5Zm21.63,0-.24.75h.72v-.75ZM710,981.76l-.24,1.25.48.25h.24v-1.5Zm171.39,0c-.4.33-.8.66-1.19,1l.24.5c2.3.46,2.31,1.12,3.56,2h.24v-1a7.19,7.19,0,0,0-2.85-2.49Zm7.84.25c-.24.33-.48.66-.71,1,.08.16.16.33.23.49l1.67-.24v-.75l-.48-.5Zm-184,.25c0,1.37-.07,1.44.71,2l.95.25.24-.25v-1l-1.9-1Zm27.57,0c-.16.25-.32.5-.47.75h.95c.07-.17.15-.34.23-.5Zm140.49,0a2.08,2.08,0,0,0,1.18,1.49L875,983l-.71-.5Zm-83.68.25-.71,1v.25h1.19l.47-.25v-1Zm-86.28,1-.24,1h.24c.15-.33.31-.66.47-1Zm84.38.75.48.5c.15-.17.31-.33.47-.5Zm-69.88.5c.45.75,0,.4.95.75v-.25l-.95-.5ZM693.34,986l.24.5.24-.5Zm153.56,0,.48.74h.23v-.24l-.71-.5Zm45.88.25a13.69,13.69,0,0,1,2.37,2.49l-2.85-.25v-.25l.48-2Zm-183.51.25c.43.5,0,.17.71.49-.43-.51,0-.17-.71-.49Zm136.44,0,.24.74c.16-.08.32-.16.47-.25l-.71-.49Zm-6.65.24v.75h.47c-.3-.75,0-.3-.48-.75Zm49.2,0,.47.5-.23.25-.24-.75Zm-27.1,1.5Zm20.45,0c-.09.33-.16.66-.24,1l.71-.5-.47-.5Zm-5.24.5c0,.83-.22.57.24,1.24l.24-.5c-.3-.75,0-.29-.48-.74Zm6,1-.48.25,1.19,1.25h.24c-.24-1.24-.17-.93-.95-1.5ZM734.7,990l-.47.25v.5h.95V990Zm154,.5,1.67.25.24.25-.24.5h-.24l-1.43-1ZM683.6,991v.75c.15-.17.31-.33.47-.5l-.47-.25Zm52.29.5c-1.76,1.22-2.33,3.35-.24,4.73l.48-.25c-.08-1.58-1.11-1.86-1-3l1.19-1.24-.48-.25Zm129.08,0-.48,1.25,1.19-.5-.71-.75Zm-177.33.25-.24.5.24-.5Zm186.36,0-.48.25v.25c.62-.29.41-.39.48-.5Zm-12.13,1,.24,1.24c.53-.51.45-.34.72-1.24ZM681.46,993Zm182.79,2,1.19-.25c.78-.41.76-.51,1.19-1.25v-.25l-2.14.25-.24,1.5ZM878,996h.71l-1.42.75.23-.5L878,996Zm-3.81.75c.59.39.73.5,1.43.25Zm-66.55,1.5-.24,1.49h.24l.47-.25.24-.74-.71-.5Zm-67.27.25-.72,1v.25l.72.75,1.42-.25v-1l-1.42-.74Zm71.07,0,.48.74h.95l-.24-.49ZM688.11,999l-.71.75h.71l.48-.75Zm-4.51.25c.57.66.35.5.23,1.5l-1.42.25c.31-1.13.54-1.08,1.19-1.75Zm94.6,0,.48.25-.48-.25Zm-91.75.5c.32.67.55.73.71,0Zm38.51,0,.47.25Zm86.28.25c.41,1,.57,1,1.43,1.5-.31-1.18-.31-1.17-1.43-1.5Zm64.9,0h.71l-.48.75h-.23V1000Zm-182.56.5h.95l-.48.5c-.15-.17-.31-.34-.47-.5Zm45.64,0-.24.75c.33-.54.43-.14.24-.75Zm44.21,0-.24.25.72.5.71.25.24-.5-.24-.5Zm23.3.25v1.49l1.18-.25,1-.49c-.15-.25-.31-.5-.47-.75Zm-118.62.25-.24.5.48-.5Zm38.51,0c-.15,1-.17.81.47,1.49h.24V1001Zm-7.61,1-.47,1.25,1.9-.5-.48-.75Zm19.73,0-.24.5,1-.5Zm44.93.25.47.5c-.33-.48,0-.15-.47-.5Zm92.47.25c.89.44.88.4,1.18,1.5h-.23l-1.19-1,.24-.5Zm-141.91.25-.24,2,.47,1h.48v-2.49l-.48-.5Zm-8.32.5c.45.75,0,.4,1,.75l-1-.75Zm-20.92.25-.48,1h.24l.71-.75Zm40.88,1.74H744l.24,1.25a6.41,6.41,0,0,0,4-.75l.24-1.49-2.62-.25v1.24Zm-39.46-.24Zm1.43.24c.38.68.08.35.71.75a1.77,1.77,0,0,0-.71-.75Zm-10,2,1.18.25a6.4,6.4,0,0,1-2.85,2.74h-.71c.36-2,1-2.12,2.38-3Zm121.7,0-.47.74,1.18-.24v-.25a2.73,2.73,0,0,0-.23-.25Zm-84.15.25,1.67.25-.48.74-2.37.75.71-1.49Zm39.94,0c-.18,1-.61.79.71,1.24l.24-.75-.95-.49Zm-73.21.25c.8.38,0,.79-.48,1.24l-.48-.25.48-.75.48-.24Zm7.13,1.49c.15.25.31.5.47.75l-.47-.75Zm-2.14.75h.47c-.16.33-.31.66-.47,1l-.24-.5.24-.5Zm-10.22.25h.71c-.46.75,0,.4-1,.75v-.25l.24-.5Zm15.68,1.49v2H710v-.25a4.39,4.39,0,0,0,0-2.49l2.62.74Zm-16.64-.25Zm49.45.25-.48,1c.62-.56.54-.33.48-1Zm-38.75.5h.72l-.72,2-.47-.25Zm2.38,2.49h1l-1.43,1.5v-.75l.48-.75Zm.47,1.5h.72l1.9,2.49-.71.5H710a3.77,3.77,0,0,1-.47-3Zm92.24,2.74-1.43.75v1l1.19,1.75c1.29-.31,1.52-.82,2.37-1.5v-1l-.71-.5-1.42-.5Zm-18.07.75v.75h1.19c-.16-.26-.32-.5-.48-.75Zm59,.25v.5c.23-.44.22-.06,0-.5Zm9.51.24.71.5-.71-.5Zm-68,1c.34.48,0,.15.48.5-.16-.17-.32-.33-.47-.5Zm62.52.5Zm2.62,0-.48.25v2l2.38.5-.72-2.24-1.18-.5Zm-66.32,1-.72.74.48.75,1.66-.25v-.5l-.24-.49-1.18-.25Zm31.14.25c.45.75,0,.4.95.74v-.25l-.95-.49Zm-1.43,1v1.25c.16-.17.32-.33.47-.5-.08-.25-.15-.5-.23-.75Zm1.9.25v1l.48.25v-.75l-.48-.5Zm28.76,1.25.24.74.48-.49-.72-.25Zm-35.18.25,1,.75h-1.19l.24-.75Zm27.1,0,.24.49.24-.49Z" transform="translate(-567.12 -663.55)"/></svg>