<svg id="Episod_9" data-name="Episod 9" xmlns="http://www.w3.org/2000/svg" width="2980.32" height="217.49" viewBox="0 0 2980.32 217.49"><defs><style>.cls-1{fill:#96816e;}</style></defs><g id="Layer_21" data-name="Layer 21"><polygon class="cls-1" points="0 217.49 6.94 187.43 74.05 178.17 104.13 138.84 108.75 87.93 159.66 87.93 189.74 67.1 208.25 55.53 226.76 94.87 226.76 157.35 259.16 161.97 289.24 122.64 384.11 122.64 416.5 152.72 513.69 152.72 516 57.85 620.13 0 721.94 0 779.79 48.59 779.79 161.97 881.6 185.11 997.3 185.11 997.3 25.45 1094.48 25.45 1094.48 187.43 2533.74 187.43 2533.74 67.1 2630.92 67.1 2658.69 106.44 2649.43 111.07 2649.43 141.15 2767.97 141.15 2767.97 71.73 2758.19 50.91 2758.19 30.08 2779.01 30.08 2799.84 2.69 2818.35 32.4 2832.23 32.4 2832.23 57.85 2823.13 69.91 2825.94 97.18 2947.93 97.18 2950.24 138.84 2980.32 180.49 2980.32 217.49 0 217.49"/></g></svg>