<svg id="Episod_9" data-name="Episod 9" xmlns="http://www.w3.org/2000/svg" width="1978.2" height="649.42" viewBox="0 0 1978.2 649.42"><defs><style>.cls-1{fill:#998471;}.cls-2{fill:#8c7867;}.cls-3{fill:#a18a76;}.cls-4{fill:#756555;}.cls-5{fill:#96816e;}</style></defs><path class="cls-1" d="M1949.43,756.84V560.38l3.55-9-1.52-7.43-.51-7.43,8.62-4.25-9.63-6.37-.51-27.61,20.28-13.81-13.18-12.74H1951l-5.58-3.72.51-12.74-1.52-11.68-6.09-3.72.51-4.25,1.52-6.9-3-6.9s-2-10.09,1-14.34-2-4.25-2-4.25v-8l-3-4.25v-6.9l-3-4.78-2,8.49v9l-3.55,8-2.54,6.91-2.53,7.43,1.52,8s-1.52,8.49-1.52,10.08,1.52,12.75,1.52,12.75l-6.59,8.49-6.59-2.65-1-23.36,3-12.75-4.56-6.37s-6.59-9.56-5.58-10.62,3.55-6.9,3.55-6.9l-4.06-5.84-3-6.37V358.08l1.67-2-31.72-25.19S1818.9,301.19,1813,299c-2.83-1.05-10.72-21.66-18.15-43.62l-10.25,1.82-21.3.53L1743,254l-22.31-9.56-27.89,3.19v9l-2,4.78,2,9v5.84l2,13.27L1690.8,296l5.07,5.85a39,39,0,0,0,4.06,3.71l-4.56,6.9,3,10.62-3.55,6.38L1706,339l-2.54,5.31,2,33.45-7.61,11.69-6.59,3.71s2,48.32,2,49.92-7.61,6.37-7.61,6.37l-1,13.27H1286.63v-13.8h-612v13.8H276.51l-1-13.27s-7.61-4.78-7.61-6.37,2-49.92,2-49.92l-6.59-3.71-7.61-11.69,2-33.45L255.21,339l11.16-9.55L262.82,323l3-10.62-4.56-6.9a39,39,0,0,0,4.06-3.71l5.07-5.85-4.06-6.37,2-13.27v-5.84l2-9-2-4.78v-9l-27.89-3.19L218.2,254l-20.29,3.71-21.3-.53s-38.54-6.9-40.06-6.9S119.82,246,119.82,246l-10.15,7.44L94,255.07l-20.28-4.25-7.61,10.62,2,11.15-2,14.34-15.72,8.49,1,4.78L58,305.51v15.4l3,5.31V353.3l4.06,4.78v25.49l-3,6.37-4,5.84s2.53,5.84,3.55,6.9-5.58,10.62-5.58,10.62l-4.56,6.37,3,12.75-1,23.36-6.59,2.65-6.59-8.49s1.52-11.15,1.52-12.75-1.52-10.08-1.52-10.08l1.52-8-2.54-7.43-2.53-6.91-3.55-8v-9l-2-8.49-3,4.78V391l-3,4.25v8s-5.08,0-2,4.25,1,14.34,1,14.34l-3,6.9,1.52,6.9.51,4.25-6.09,3.72-1.52,11.68L15.86,468l-5.58,3.72H4.7L-8.48,484.45,11.8,498.26l-.51,27.61-9.63,6.37,8.62,4.25-.51,7.43-1.52,7.43,3.55,9V756.84l-8.11,3.72-3,17,8.12,6.37v60.2H1952.47v-60.2l8.11-6.37-3-17ZM124.89,379.6H103.08V342.08l3.55-6.09,5.58-5.07,7.1,1L125.9,338Zm46.65-2H148.21v-35.5a9.64,9.64,0,0,1,2-5.07l5.58-5.07,8.11-.51,4.57,4.05,3,6.6Zm46.66,1-25.87-2V342.08l3.55-7.61,5.58-4.56,7.1-.51,4.56,3.55s4.57,7.61,5.08,9.13S218.2,378.59,218.2,378.59Zm1550.7-2-25.87,2s-.5-35,0-36.51,5.08-9.13,5.08-9.13l4.56-3.55,7.1.51,5.58,4.56,3.55,7.61Zm44.12,1h-23.33v-35.5l3-6.6,4.57-4.05,8.11.51L1811,337a9.64,9.64,0,0,1,2,5.07Zm45.13,2h-21.81l-1-41.58,6.59-6.08,7.1-1,5.58,5.07,3.55,6.09Z" transform="translate(8.48 -194.69)"/><path class="cls-2" d="M1286.63,399.89s.23-10.09.53-17.3v-8c-2.06-2.27-9.65-6.61-9.65-6.61l-10.65-12.68,1.52-11.66-1-9.64-7.1-2-4-2,2-3.55,7.1-5.07-2.8-7.53s-5.32-4.14-6.84-5.15,1.52-11.16,1.52-11.16l5.07-3,4.06-3,4.51-6.18-7-2.95-4,.51s-2-7.1-2-9.13-5.07-3.55-5.07-3.55l-4.57-2.54v-6.59l-2-9.13a43,43,0,0,0-6.09,6.59c-2.54,3.55,1.52,4.06,2,5.58s-6.59,5.07-8.12,6.09-10.14,2.53-10.14,2.53l3.55,8.12,2.54,9.12,3,4.57-2.54,14.71-8.11,6.59-3.55,7.6,5.07,5.58-6.59,3.55,2,5.58,1,32.46H741L742,338l2-5.58-6.59-3.55,5.07-5.58-3.55-7.6-8.12-6.59-38,34.48,1.52,11.66-10.65,12.68s-7.59,4.34-9.65,6.61v8c.3,7.21.52,17.3.52,17.3v58.82h-.52V844.12h613.09V458.71h-.53V399.89Z" transform="translate(8.48 -194.69)"/><path class="cls-3" d="M1156.81,310.18a104.4,104.4,0,0,0-6.4-31.64c-1.45,3.93-2.73,7.39-3.69,10a97.55,97.55,0,0,1,3.71,19.12h-6.89V294.69l-1.93,1.9v11h-6.4v-7.92h-1.93v7.92h-7v-7.92H1120v7.92h-8.82V284.3l-1.94-1.76v25.09h-7.59V250.75l-1.94-2.44v59.32h-7.6V249l-1.93,3.69v54.94h-8.44V267.07l-6.24,9.38v31.18h-9.09V290.11l-1.93,1.18v16.34h-8.23V296.28l-1.93-.93v12.28h-8.23V268.26l-1.94-5.14v44.51h-8.51V243l-6.24-13v77.65H1018V258.17l-1.94-2.8v52.26h-8.22v-47.5l-1.94,2.79v44.71H997.7V274.24l-1.94,2.53v30.86H984.54V265.81L978,271.7v35.93H966.79V293.35h-1.93v14.28h-8.23V272.29l-1.93-1.88v37.22h-8.23V229.75l-1.93-.34v78.22h-11.4V212.26L926.9,224.6v83h-8.52V266.51l-1.93,0v41.14h-8.23V218.42l-1.93,2.16v87h-8.23V235.12l-1.94-3v75.48H887v-87.5l-6.24-6.92v94.42h-8.43V201.47l1.1-1.11-2.17-5.67a298.07,298.07,0,0,0-34.87,39.54h-.13v.17c-15.75,21.72-29.62,48.4-30.54,75.78h-3v64.21H1160.1V310.18h-3.29ZM819,307.63h-6.88A106,106,0,0,1,819,279.06Zm8.33,0H821V274.26c1.92-4.51,4.07-8.95,6.39-13.28Zm8.95,0h-7V257.46c2.22-3.95,4.58-7.81,7-11.55Zm15.07,0h-8.83V236.8c2.92-4.07,5.89-8,8.83-11.63Zm9.53,0h-7.6V222.78c2.59-3.17,5.14-6.15,7.6-8.95Zm9.53,0h-7.59v-96c2.68-3,5.23-5.73,7.59-8.18Z" transform="translate(8.48 -194.69)"/><path class="cls-3" d="M40.2,446.54s1.52-10.65,1.52-12.17-1.52-9.63-1.52-9.63l1.52-7.61L39.18,410l-2.53-6.59-3.55-7.61v-8.62l-2-8.11-3,4.56v6.59l-3,4.06v7.61s-5.08,0-2,4.05,1,13.7,1,13.7l-3,6.59,1.52,6.59.51,4.06-6.09,3.55-1.52,11.15.51,12.17-5.58,3.55H4.7L-8.48,479.5,11.8,492.69l-.51,26.37-9.63,6.08,8.62,4.06-.51,7.1-1.52,7.1L11.8,552V739.65l-6.44,2.82h46.4V452.74l-5,1.92Z" transform="translate(8.48 -194.69)"/><path class="cls-3" d="M1949.94,519.06l-.51-26.37,20.28-13.19-13.18-12.17H1951l-5.58-3.55.51-12.17-1.52-11.15-6.09-3.55.51-4.06,1.52-6.59-3-6.59s-2-9.64,1-13.7-2-4.05-2-4.05v-7.61l-3-4.06v-6.59l-3-4.56-2,8.11v8.62l-3.55,7.61L1922,410l-2.53,7.1,1.52,7.61s-1.52,8.11-1.52,9.63,1.52,12.17,1.52,12.17l-6.59,8.12-5-1.92V742.47h46.4l-6.44-2.82V552l3.55-8.62-1.52-7.1-.51-7.1,8.62-4.06Z" transform="translate(8.48 -194.69)"/><polygon class="cls-3" points="1917.95 222.4 1917.95 224.57 1918.36 222.94 1917.95 222.4"/><polygon class="cls-3" points="60.24 224.57 60.24 222.4 59.84 222.94 60.24 224.57"/><path class="cls-4" d="M864.75,547.62h65.52a0,0,0,0,1,0,0V692.68a32.76,32.76,0,0,1-32.76,32.76h0a32.76,32.76,0,0,1-32.76-32.76V547.62A0,0,0,0,1,864.75,547.62Z" transform="translate(1803.5 1078.36) rotate(180)"/><path class="cls-4" d="M946.34,547.62h65.52a0,0,0,0,1,0,0V692.68a32.76,32.76,0,0,1-32.76,32.76h0a32.76,32.76,0,0,1-32.76-32.76V547.62A0,0,0,0,1,946.34,547.62Z" transform="translate(1966.67 1078.36) rotate(180)"/><path class="cls-4" d="M1033,547.62h65.52a0,0,0,0,1,0,0V692.68a32.76,32.76,0,0,1-32.76,32.76h0A32.76,32.76,0,0,1,1033,692.68V547.62a0,0,0,0,1,0,0Z" transform="translate(2139.94 1078.36) rotate(180)"/><path class="cls-4" d="M1114.22,547.62h65.52a0,0,0,0,1,0,0V692.68A32.76,32.76,0,0,1,1147,725.44h0a32.76,32.76,0,0,1-32.76-32.76V547.62a0,0,0,0,1,0,0Z" transform="translate(2302.43 1078.36) rotate(180)"/><path class="cls-4" d="M791.58,547.62h65.52a0,0,0,0,1,0,0V692.68a32.76,32.76,0,0,1-32.76,32.76h0a32.76,32.76,0,0,1-32.76-32.76V547.62a0,0,0,0,1,0,0Z" transform="translate(1657.15 1078.36) rotate(180)"/><rect class="cls-3" x="1297.06" y="264.02" width="395.68" height="299.93"/><rect class="cls-3" x="285.46" y="264.02" width="395.68" height="299.93"/><polygon class="cls-2" points="301.87 532.37 301.87 548.51 12.17 548.51 12.17 649.42 301.87 649.42 988.87 649.42 988.87 532.37 301.87 532.37"/><polygon class="cls-2" points="1676.33 532.37 1676.33 548.51 1966.03 548.51 1966.03 649.42 1676.33 649.42 989.33 649.42 989.33 532.37 1676.33 532.37"/><path class="cls-2" d="M1284.18,508.61l.11-32.77h57.47V461.46l-4.28-4,5.5-2.87,6.73-14.38,7.34.58,4.28,9.2,7.34,4.6,1.22,4.59c-4.28,2.3-7.34,4-7.34,4v12.65H1428V461.46l-2.45-5.17c4.28-1.72,9.17-16.1,9.17-16.1l8-1.15.61,9.2,6.73,6.33-2.45,6.32V473l67.87-.57v-9.2l-5.5-5.75,5.5-2.3,5.51-6.32,2.44-5.75h5.5l3.06,7.47,6.12,6.38-6.73,7.42,1.22,7.47-.67,4h69.77V464.63l-4.9-7.71c3.06,0,1.84-.63,2.45-2.35s2.45-8.05,2.45-8.05v-13.8l7.33-4,4.28,10.92,3.06,10.92,7.34,6.38-4.28,2.53v16.39h304.46l-4.24,9.61v29.7H1284.29v-6.54Z" transform="translate(8.48 -194.69)"/><path class="cls-2" d="M677.05,508.61l-.11-32.77H619.47V461.46l4.28-4-5.51-2.87-6.72-14.38-7.34.58L599.9,450l-7.34,4.6-1.22,4.59c4.28,2.3,7.34,4,7.34,4v12.65H533.25V461.46l2.45-5.17c-4.28-1.72-9.17-16.1-9.17-16.1L518.58,439l-.61,9.2-6.73,6.33,2.45,6.32V473l-67.87-.57v-9.2l5.5-5.75-5.5-2.3-5.51-6.32-2.44-5.75h-5.51l-3.05,7.47-6.12,6.38,6.73,7.42-1.22,7.47.66,4H359.6V464.63l4.89-7.71c-3.05,0-1.83-.63-2.44-2.35s-2.45-8.05-2.45-8.05v-13.8l-7.33-4L348,439.62l-3.06,10.92-7.34,6.38,4.28,2.53v16.39H37.41l4.24,9.61v29.7H676.94v-6.54Z" transform="translate(8.48 -194.69)"/><path class="cls-2" d="M231.53,383.75c1.62,2,4.06,8.12,4.06,8.12v8.54l2.43,7.31-.81,9.75-2.84,9.34,3.25,6.5L238,441l4.07,1.62v4.47c-2.44,2-2.44,11.78-2.44,11.78h21.53l-.41,6.91-3.65,5.28L253.87,476l-4.47.41-4.06,2.46-3.25,6.07c-1.63,2.84-2.85,11.78-2.85,11.78l2.85,3.65-2.85,5.28v215.3l7.11,5.28V753H212V729.84l6.5-6.5V507.24l-1.63-4.06c-3.25-3.25-1.62-4.47-1.62-4.47s2.84.81,2.84-.41V483.68L212,481.24s.81-.75,0-2.41-4.06-3.28-5.28-3.68-4.88-2-4.88-2v-4.88l-3.25-2.43a7,7,0,0,1-2-6.91h21.53V447.12s-2-.41-3.25-.81-3.66-2.85-3.66-2.85l7.21-4.46v-8.13a47.93,47.93,0,0,0,0-6.9c-.3-2.85-2.14-6.1,0-7.72s2.54-7.72,2.54-7.72l-2.54-7.31,5.79-4.06s3.66-6.1,2.44-7.72a35.08,35.08,0,0,1-2.84-5.69l.4-4.15Z" transform="translate(8.48 -194.69)"/><path class="cls-2" d="M91.14,383.75c1.63,2,4.06,8.12,4.06,8.12v8.54l2.44,7.31-.81,9.75L94,426.81l3.25,6.5.41,7.72,4.06,1.62v4.47c-2.44,2-2.44,11.78-2.44,11.78h21.53l-.4,6.91-3.66,5.28L113.48,476l-4.47.41L105,478.83l-3.25,6.07c-1.62,2.84-2.84,11.78-2.84,11.78l2.84,3.65-2.84,5.28v215.3l7.11,5.28V753H71.64V729.84l6.5-6.5V507.24l-1.62-4.06c-3.25-3.25-1.63-4.47-1.63-4.47s2.85.81,2.85-.41V483.68l-6.1-2.44s.82-.75,0-2.41-4.06-3.28-5.28-3.68-4.87-2-4.87-2v-4.88l-3.25-2.43a7,7,0,0,1-2-6.91H77.74V447.12s-2-.41-3.25-.81-3.66-2.85-3.66-2.85L78,439v-8.13a47.93,47.93,0,0,0,0-6.9c-.3-2.85-2.14-6.1,0-7.72s2.54-7.72,2.54-7.72L78,401.22l5.79-4.06s3.65-6.1,2.44-7.72a35.4,35.4,0,0,1-2.85-5.69l.41-4.15Z" transform="translate(8.48 -194.69)"/><path class="cls-2" d="M458.62,704c-11.27-6.74-28.36-16.63-28.36-16.63s5.39-31.45,8.08-43.76,2.68-35,2.68-35,5.22-11.23,11.07-24.13L451.17,540s4.16-4.43,2.13-4.94l-2-.51c2.17-7.15,2.2-8.68,2.2-8.68l.07-3.57,1.57-2.56-.42-4.59H425.06l-2.15,6.13,2,3.57-.11,6.13c4,3.06,3.41,9,3.41,9l-2.84,159.49-2.88,3.06-.07,4.09-.08,4.59s-2.26-3.06-2.82,0-.28,15.83-.28,15.83h43.4l.27-14.8-3.5-4.6ZM451,535.46l-.12.39C450.91,535.73,451,535.59,451,535.46Zm-.49,1.62c-.05.17-.1.31-.13.42Zm-.16.53,0,.08Z" transform="translate(8.48 -194.69)"/><path class="cls-2" d="M371.56,707.66,370.15,701l-3.53-2.55L363.34,540s4.16-4.43,2.13-4.94l-2-.51c2.18-7.15,2.2-8.68,2.2-8.68l.07-3.57,1.57-2.56-.42-4.59H337.23l-2.15,6.13,2,3.57L337,531c4,3.06,3.41,9,3.41,9l-.06,3.35,12.89,12s-1.09,26.27-3.78,49.07-7.16,45.34-7.16,45.34l-4.73,49.74-2.88,3.06-.07,4.09-.08,4.59s-2.26-3.06-2.82,0-.28,15.83-.28,15.83h43.4l.27-14.8Zm-8.4-172.2-.12.39Zm-.49,1.62c-.05.17-.1.31-.13.42Zm-.16.53,0,.08Z" transform="translate(8.48 -194.69)"/><path class="cls-2" d="M543.26,701l-3.53-2.55-.07-3.39L526.29,673v-41.9s5.33-18.07,11.28-36.6L536.44,540s4.17-4.43,2.13-4.94l-2-.51c2.17-7.15,2.2-8.68,2.2-8.68l.06-3.57,1.58-2.56-.43-4.59H510.34l-2.16,6.13,2,3.57-.11,6.13c4,3.06,3.41,9,3.41,9l-2.84,159.49-2.87,3.06-.07,4.09-.09,4.59s-2.25-3.06-2.81,0-.29,15.83-.29,15.83H547.9l.26-14.8-3.49-4.6Zm-7-165.56-.12.39A3.43,3.43,0,0,1,536.27,535.46Zm-.5,1.62-.12.42Zm-.16.53,0,.08Z" transform="translate(8.48 -194.69)"/><path class="cls-2" d="M618,709.85l-9-20.66,12.75-23.38h0L619.17,540s4.16-4.43,2.13-4.94l-2-.51c2.17-7.15,2.2-8.68,2.2-8.68l.07-3.57,1.57-2.56-.42-4.59H593.06l-2.15,6.13,2,3.57-.11,6.13c4,3.06,3.41,9,3.41,9l-2.84,159.49-2.88,3.06-.07,4.09-.08,4.59s-2.26-3.06-2.82,0-.28,15.83-.28,15.83h43.4l.24-13.36Zm1-174.39-.12.39Zm-.49,1.62c0,.17-.1.31-.13.42Zm-.16.53,0,.08Z" transform="translate(8.48 -194.69)"/><path class="cls-2" d="M1729.7,383.75c-1.62,2-4.06,8.12-4.06,8.12v8.54l-2.44,7.31.82,9.75,2.84,9.34-3.25,6.5-.41,7.72-4.06,1.62v4.47c2.44,2,2.44,11.78,2.44,11.78h-21.53l.41,6.91,3.65,5.28,3.25,4.87,4.47.41,4.06,2.46,3.25,6.07c1.63,2.84,2.85,11.78,2.85,11.78l-2.85,3.65,2.85,5.28v215.3l-7.11,5.28V753h34.32V729.84l-6.5-6.5V507.24l1.63-4.06c3.25-3.25,1.62-4.47,1.62-4.47s-2.84.81-2.84-.41V483.68l6.09-2.44s-.81-.75,0-2.41,4.06-3.28,5.28-3.68,4.88-2,4.88-2v-4.88l3.25-2.43a7,7,0,0,0,2-6.91h-21.53V447.12s2-.41,3.25-.81,3.65-2.85,3.65-2.85l-7.2-4.46v-8.13a47.93,47.93,0,0,1,0-6.9c.3-2.85,2.14-6.1,0-7.72s-2.54-7.72-2.54-7.72l2.54-7.31-5.79-4.06s-3.66-6.1-2.44-7.72a35.08,35.08,0,0,0,2.84-5.69l-.4-4.15Z" transform="translate(8.48 -194.69)"/><path class="cls-2" d="M1870.09,383.75c-1.63,2-4.06,8.12-4.06,8.12v8.54l-2.44,7.31.81,9.75,2.84,9.34-3.24,6.5-.41,7.72-4.06,1.62v4.47c2.43,2,2.43,11.78,2.43,11.78h-21.53l.41,6.91,3.66,5.28,3.25,4.87,4.47.41,4.06,2.46,3.25,6.07c1.62,2.84,2.84,11.78,2.84,11.78l-2.84,3.65,2.84,5.28v215.3l-7.11,5.28V753h34.33V729.84l-6.5-6.5V507.24l1.62-4.06c3.25-3.25,1.63-4.47,1.63-4.47s-2.85.81-2.85-.41V483.68l6.1-2.44s-.82-.75,0-2.41,4.06-3.28,5.28-3.68,4.87-2,4.87-2v-4.88l3.25-2.43a7,7,0,0,0,2-6.91h-21.53V447.12s2-.41,3.25-.81,3.66-2.85,3.66-2.85l-7.21-4.46v-8.13a47.93,47.93,0,0,1,0-6.9c.3-2.85,2.14-6.1,0-7.72s-2.54-7.72-2.54-7.72l2.54-7.31-5.79-4.06s-3.66-6.1-2.44-7.72a35.4,35.4,0,0,0,2.85-5.69l-.41-4.15Z" transform="translate(8.48 -194.69)"/><path class="cls-2" d="M1370.91,711.23l-.08-4.59-.07-4.09-2.88-3.06-.31-17.72-10.07,4.47L1347.3,641l12.75-40.16,5.85-12.66L1365,540s-.62-6,3.41-9l-.11-6.13,2-3.57-2.15-6.13h-29.62l-.43,4.59,1.58,2.56.07,3.57s0,1.53,2.19,8.68l-2,.51c-2,.51,2.13,4.94,2.13,4.94l-3.28,158.47-3.53,2.55-1.41,6.64-3.5,4.6.27,14.8H1374s.29-12.76-.28-15.83S1370.91,711.23,1370.91,711.23Zm-28.67-175.77.12.39Zm.49,1.62c.06.18.1.32.13.42Zm.16.53,0,.08Z" transform="translate(8.48 -194.69)"/><path class="cls-2" d="M1456.45,711.23c-.56-3.06-2.82,0-2.82,0l-.08-4.59-.07-4.09-2.87-3.06L1447.76,540s-.61-6,3.42-9l-.11-6.13,2-3.57-2.16-6.13h-29.61l-.43,4.59,1.58,2.56.06,3.57s0,1.53,2.2,8.68l-2,.51c-2,.51,2.13,4.94,2.13,4.94l-.64,30.55,6.65,8s-2.55,26.54-1.27,30.16,0,22.12,1.27,27.85,5.09,14,4.14,24.85-2.86,29.33-2.86,29.33l-11.48,22.94s-4.21,1.21-7.47,2.17l.2,11.24h43.41S1457,714.3,1456.45,711.23ZM1425,535.46l.12.39Zm.5,1.62.12.42Zm.16.53,0,.08Z" transform="translate(8.48 -194.69)"/><path class="cls-2" d="M1538.91,711.23l-.08-4.59-.07-4.09-2.88-3.06-2-111.07-6.21,1.32v-17c0-1,2.6-5.57,5.74-10.73l-.39-22s-.62-6,3.41-9l-.11-6.13,2-3.57-2.15-6.13h-29.62l-.43,4.59,1.58,2.56.07,3.57s0,1.53,2.19,8.68l-2,.51c-2,.51,2.13,4.94,2.13,4.94l-1.91,92.23h0l9.34,23.42-3.82,17.85s-2.71,4.14-6.58,10.1l-.31,14.87-3.53,2.55-1.41,6.64-3.5,4.6.27,14.8H1542s.29-12.76-.28-15.83S1538.91,711.23,1538.91,711.23Zm-28.67-175.77.12.39Zm.49,1.62c.06.18.1.32.13.42Zm.16.53,0,.08Z" transform="translate(8.48 -194.69)"/><path class="cls-2" d="M1626.74,711.23l-.08-4.59-.07-4.09-2.88-3.06-.14-8.16h0c-5.48-7.67-5.36-19.75-7.28-35.68s-3.18-40.8-3.18-40.8,5.19-9.39,8.8-16.35l-1-58.5s-.62-6,3.41-9l-.11-6.13,2-3.57-2.15-6.13h-29.62l-.43,4.59,1.58,2.56.07,3.57s0,1.53,2.19,8.68l-2,.51c-2,.51,2.13,4.94,2.13,4.94l-3.28,158.47-3.53,2.55-1.41,6.64-3.5,4.6.27,14.8h43.4s.29-12.76-.28-15.83S1626.74,711.23,1626.74,711.23Zm-28.67-175.77.12.39Zm.49,1.62c.06.18.1.32.13.42C1598.66,537.39,1598.61,537.25,1598.56,537.08Zm.16.53,0,.08Z" transform="translate(8.48 -194.69)"/><path class="cls-4" d="M1633.59,695.09V622.74s-.67-18.33,19.67-18.33,20.34,19.34,20.34,19.34v71.34Z" transform="translate(8.48 -194.69)"/><path class="cls-4" d="M1544.43,695.09V622.74s-.66-18.33,19.67-18.33,20.34,19.34,20.34,19.34v71.34Z" transform="translate(8.48 -194.69)"/><path class="cls-4" d="M1374.82,695.09V622.74s-.67-18.33,19.67-18.33,20.34,19.34,20.34,19.34v71.34l-7.3,2.94-6.57,2.49-17.58-5.43Z" transform="translate(8.48 -194.69)"/><path class="cls-4" d="M1293.24,695.09V622.74s-.67-18.33,19.67-18.33,20.33,19.34,20.33,19.34v71.34Z" transform="translate(8.48 -194.69)"/><path class="cls-4" d="M1457.53,695.09V661.72L1454,641.5l3.52-6.17V622.74s-.67-18.33,19.67-18.33,20.33,19.34,20.33,19.34v49l1.57,9.6-1.57,12.78Z" transform="translate(8.48 -194.69)"/><path class="cls-4" d="M327.64,695.09V622.74s.67-18.33-19.67-18.33-20.34,19.34-20.34,19.34v71.34Z" transform="translate(8.48 -194.69)"/><path class="cls-4" d="M416.8,695.09V622.74s.66-18.33-19.67-18.33-20.34,19.34-20.34,19.34v71.34Z" transform="translate(8.48 -194.69)"/><path class="cls-4" d="M586.41,695.09V622.74s.67-18.33-19.67-18.33-20.34,19.34-20.34,19.34v71.34Z" transform="translate(8.48 -194.69)"/><path class="cls-4" d="M668,695.09V622.74s.67-18.33-19.67-18.33S628,623.75,628,623.75v71.34Z" transform="translate(8.48 -194.69)"/><path class="cls-4" d="M503.7,695.09V622.74s.67-18.33-19.67-18.33-20.34,19.34-20.34,19.34v71.34h11.72L491,701.75l7.07-6.66Z" transform="translate(8.48 -194.69)"/><polygon class="cls-2" points="121.93 439.99 129.28 440.39 129.28 549.72 144.52 549.72 144.52 457.33 190.91 457.33 190.91 549.72 207.05 549.72 208.26 439.99 213.5 439.99 167.11 414.17 121.93 439.99"/><polygon class="cls-2" points="1811.08 414.17 1764.69 439.99 1769.93 439.99 1771.14 549.72 1787.28 549.72 1787.28 457.33 1833.67 457.33 1833.67 549.72 1848.92 549.72 1848.92 440.39 1856.26 439.99 1811.08 414.17"/><rect class="cls-4" x="1776.32" y="649.75" width="51.24" height="94.66" transform="translate(3612.36 1199.46) rotate(180)"/><rect class="cls-4" x="142.15" y="455.05" width="51.24" height="94.66"/><path class="cls-2" d="M1796.19,540.93,1794.9,535h16l-1.29,5.93c47.21,4.59,40.38,57.78,40.38,57.78h-96.27S1748.8,545.52,1796.19,540.93Zm-35.77,54h83.4s2.41-44.13-35.5-48l-.22,1h-10.36l-.22-1C1759.47,550.81,1760.42,595,1760.42,595Z" transform="translate(8.48 -194.69)"/><path class="cls-2" d="M165,540.93l1.29-5.93h-16l1.29,5.93c-47.22,4.59-40.38,57.78-40.38,57.78h96.27S212.43,545.52,165,540.93Zm35.77,54h-83.4s-2.42-44.13,35.5-48l.22,1h10.36l.22-1C201.76,550.81,200.81,595,200.81,595Z" transform="translate(8.48 -194.69)"/><path class="cls-5" d="M1203.46,727.06s.28-13.83-.29-17.15-2.82,0-2.82,0l-.08-5-.07-4.42-2.88-3.33-2.84-172.88s-.61-6.45,3.42-9.77l-.11-6.65,2-3.87-2.15-6.64h5.24V486.62l6.23-2.9-6.23-3.64V466.26h6.23v-8.72l4.22-4.37V441.54s6.41,3.63,6.15,0L980.61,335.37,741.78,441.54c-.26,3.63,6.15,0,6.15,0v11.63l4.22,4.37v8.72h6.23v13.82l-6.23,3.64,6.23,2.9v10.74h5.24L761.46,504l2,3.87-.11,6.65c4,3.32,3.42,9.77,3.42,9.77l-1,62.35,6.18,17.77s-2,10.05,0,16.7c.87,2.86-2.75,13.85-7.16,25.44l-.84,50.62L761,700.5l-.07,4.42-.08,5s-2.26-3.33-2.82,0-.29,17.15-.29,17.15H718.3V844.12h524.63V727.06Zm-31.29-205.93-.31-1.11Zm-383.11,0,.3-1.11Zm53.81,3.16L840,697.17l-2.87,3.33-.08,4.42-.08,5s-2.25-3.33-2.82,0-.28,17.15-.28,17.15H801.18l.26-16L798,706l-1.41-7.2L793,696.07l-3.29-171.78s4.17-4.79,2.14-5.35l-2-.55C792,510.64,792,509,792,509l.06-3.87,1.58-2.77-.43-5h46.51L837.59,504l2,3.87-.11,6.65C843.49,517.84,842.87,524.29,842.87,524.29Zm166.79,171.78-3.53,2.76-1.41,7.2-3.49,5,.26,16H959.73l.27-16-3.49-5-1.41-7.2-3.53-2.76-1-51.3-11.93-14-16,56.65h0l-.16,9.73-2.87,3.33-.07,4.42-.09,5s-2.25-3.33-2.82,0-.28,17.15-.28,17.15h-39l.27-16-3.5-5-1.41-7.2-3.53-2.76-3.28-171.78s4.16-4.79,2.13-5.35l-2-.55c2.17-7.75,2.19-9.41,2.19-9.41l.07-3.87,1.58-2.77-.43-5h52.81L920,504l2,3.87-.11,6.65c4,3.32,3.41,9.77,3.41,9.77l-.15,9.23,22.46-12.39.31-1.11-.31,1.11,3.34-1.22c.06-.48-.07-.84-.54-1l-2-.55c2.17-7.75,2.2-9.41,2.2-9.41l.06-3.87,1.58-2.77-.43-5h57.65l-.43,5,1.58,2.77.06,3.87s0,1.66,2.2,9.41l-2,.55c-2,.56,2.13,5.35,2.13,5.35ZM1013.31,520l.31,1.11Zm78.79,176.05-3.53,2.76-1.42,7.2-3.49,5,.27,16h-39s.28-13.83-.29-17.15-2.81,0-2.81,0l-.09-5-.07-4.42-2.87-3.33-16.22-35,5-49.91,9.51-15.83-1.18-72.09s-.62-6.45,3.41-9.77l-.11-6.65,2-3.87-2.15-6.64h52.81l-.43,5,1.58,2.77.06,3.87s0,1.66,2.2,9.41l-2,.55c-2,.56,2.13,5.35,2.13,5.35Zm78.43-17.78h-2l-.34,17.78-3.53,2.76-1.41,7.2-3.49,5,.26,16h-32.72s.28-13.83-.28-17.15-2.82,0-2.82,0l-.08-5-.08-4.42-2.87-3.33-2.84-172.88s-.62-6.45,3.41-9.77l-.11-6.65,2-3.87-2.15-6.64H1168l-.43,5,1.57,2.77.07,3.87s0,1.66,2.2,9.41l-2,.55c-2,.56,2.13,5.35,2.13,5.35l-1,50.91,7.66,45.91Z" transform="translate(8.48 -194.69)"/></svg>