<svg height="759.55" width="2511.75" xmlns="http://www.w3.org/2000/svg"><path d="M2511.75 752.34S2209.26 0 1257.2 0 0 755.17 0 755.17h15.84s68.33-162.27 236.9-334.6v328.55c-1.75 3.94-2.6 6.05-2.6 6.05h2.6v4.38h8.92v-4.38h1.14s45.66-108.26 156.44-232v236.38h8.94V513.27a1067.5 1067.5 0 01157.59-140.95v387.23h8.94V365.88a1041.19 1041.19 0 01156.46-92.15v485.82h8.94v-490a1072.12 1072.12 0 01158.69-59v549h8.94V208.01a1161.67 1161.67 0 01157.58-31.78v583.32h8.94V175.07a1315.74 1315.74 0 01158.69-9.85v594.33h8.94V165.23a1312 1312 0 01158.69 9.94v584.38h8.94V176.33a1156.81 1156.81 0 01157.57 31.95v551.27h9V210.8a1058.55 1058.55 0 01158.69 59.45v489.3h8.88V274.46a1025 1025 0 01156.45 93.29v391.8h8.94V374.34a1045.21 1045.21 0 01157.58 144v241.21h8.94V528.46c104.81 120.49 147.4 224.47 147.4 224.47h10.17v6.64h8.94V425.21c161.86 169.34 226.39 327.13 226.39 327.13zm-416.17-248.21V278.27a1297.11 1297.11 0 01134.41 114.49l-134.07 111.75zM1770.53 261.2l149.59-87.44v175a1039 1039 0 00-149.59-87.56zm-167-63.28l151.24-97.19v153.09a1077.26 1077.26 0 00-151.28-55.9zM594.71 173.76l149.38 87.31a1042.74 1042.74 0 00-149.38 87.24zm-8.94 179.49l-137.25-97.67a1299.75 1299.75 0 01137.25-82.53zm13.78-187.27a1317.82 1317.82 0 01151.62-65V254.6zm160.56-65.25l151.08 97.09a1079.46 1079.46 0 00-151.08 55.78zm8.07-5.7A1388.46 1388.46 0 01918.8 52.95v138.87zm484.77 50.64l-152.14-121q73.14-6.89 152.14-7.21zm8.94-128.21c52.71.14 103.4 2.64 152.11 7.23l-152.11 121zm167.63 8.77a1496 1496 0 01151.76 23.63l-151.76 108.23zm166.52 26.79a1374.9 1374.9 0 01150.39 42.15l-150.39 96.65zm167.62 48.2a1300.08 1300.08 0 01151 65.13l-151 88.25zm165.39 72.57a1276.59 1276.59 0 01136.09 82.67l-136.08 96.79zM1085.32 26.21v131.88L933.49 49.81a1501.11 1501.11 0 01151.83-23.6zm-667 477.82L282.66 390.94a1325.83 1325.83 0 01136.6-114.61v226.69zM261.66 730.12v-318.6q7.07-7.08 14.35-14.18l136.2 113.5c-83.08 93.08-130.45 178.55-150.55 219.28zM428.2 493.33V269.87q6.1-4.4 12.32-8.73l138.4 98.48A1062.45 1062.45 0 00428.2 493.33zM927.74 56.96l148.92 106.23a1176.56 1176.56 0 00-148.94 30zm166.52-25.8l151.07 120.15a1337.43 1337.43 0 00-151.07 9.61zm175.24 120.16l151.08-120.16V161a1339.07 1339.07 0 00-151.08-9.68zm168.55 11.94l149-106.3v136.39a1178 1178 0 00-149-30.09zm497.55 196.58L2073.1 262q6.84 4.83 13.54 9.71v222.65a1057.11 1057.11 0 00-151.04-134.52zm317.55 374.29c-17.83-37.34-64.93-125.78-151.11-222.79l134.52-112.12q8.46 8.37 16.59 16.72z" fill="#917d6b"/></svg>