<svg viewBox="0 0 4084.94 408.26" xmlns="http://www.w3.org/2000/svg" xmlns:xlink="http://www.w3.org/1999/xlink"><linearGradient id="d" gradientUnits="userSpaceOnUse" x1="1659.53" x2="1659.53" y1="383.19" y2="262.46"><stop offset="0" stop-color="#594e41"/><stop offset=".94" stop-color="#736557"/></linearGradient><linearGradient id="b" gradientTransform="matrix(1 0 -.02 -1.22 1206.57 1164.67)" gradientUnits="userSpaceOnUse" x1="181.91" x2="237.34" y1="916.2" y2="916.2"><stop offset="0" stop-color="#927e6c"/><stop offset=".08" stop-color="#5d5146"/><stop offset=".29" stop-color="#7c6b5c"/><stop offset=".71" stop-color="#4a4137"/><stop offset="1" stop-color="#927e6c"/></linearGradient><linearGradient id="a" gradientUnits="userSpaceOnUse" x1="1624.11" x2="1624.11" y1="140.92" y2="56.47"><stop offset="0" stop-color="#52483d"/><stop offset="1" stop-color="#615549"/></linearGradient><linearGradient id="h" x1="1392.14" x2="1392.14" xlink:href="#a" y1="142.19" y2="100.94"/><linearGradient id="i" gradientTransform="matrix(.51 0 0 -1 134.22 458.37)" gradientUnits="userSpaceOnUse" x1="206.94" x2="206.94" y1="249.81" y2="208.56"><stop offset="0" stop-color="#453c33"/><stop offset="1" stop-color="#594e43"/></linearGradient><linearGradient id="j" gradientTransform="matrix(.5 0 0 -1 70.29 458.37)" gradientUnits="userSpaceOnUse" x1="206.94" x2="206.94" y1="249.81" y2="208.56"><stop offset="0" stop-color="#5e5346"/><stop offset="1" stop-color="#706254"/></linearGradient><linearGradient id="k" x1="1363.4" x2="1420.38" xlink:href="#b" y1="98.09" y2="98.09"/><linearGradient id="l" gradientTransform="matrix(.04 0 0 -1 117.03 886.18)" gradientUnits="userSpaceOnUse" x1="474.33" x2="474.33" y1="490.81" y2="395.37"><stop offset="0" stop-color="#594e42"/><stop offset="1" stop-color="#63574b"/></linearGradient><linearGradient id="c" gradientTransform="matrix(.08 0 0 1 1242.02 -107.62)" gradientUnits="userSpaceOnUse" x1="474.33" x2="474.33" y1="476.25" y2="404.65"><stop offset="0" stop-color="#63574a"/><stop offset="1" stop-color="#706254"/></linearGradient><linearGradient id="m" x1="19749.05" x2="19749.05" xlink:href="#c" y1="476.25" y2="404.65"/><linearGradient id="n" gradientTransform="rotate(180 879.035 295.845)" gradientUnits="userSpaceOnUse" x1="879.03" x2="879.03" y1="397.32" y2="194.36"><stop offset="0" stop-color="#594e41"/><stop offset=".89" stop-color="#706255"/><stop offset=".91" stop-color="#50463c"/><stop offset=".96" stop-color="#7a6b5c"/><stop offset="1" stop-color="#c4ab93"/></linearGradient><linearGradient id="o" x1="2077.46" x2="2077.46" xlink:href="#d" y1="383.19" y2="288.7"/><linearGradient id="p" x1="2506.58" x2="2506.58" xlink:href="#d" y1="383.19" y2="100.67"/><linearGradient id="q" gradientUnits="userSpaceOnUse" x1="2153.73" x2="2153.73" y1="138.94" y2="85.03"><stop offset=".43" stop-color="#756758"/><stop offset="1" stop-color="#c7ab94"/></linearGradient><linearGradient id="e" gradientUnits="userSpaceOnUse" x1="84.49" x2="84.49" y1="144.77" y2="129.07"><stop offset="0" stop-color="#695a4e"/><stop offset=".53" stop-color="#5a4f43"/><stop offset="1" stop-color="#c7ab94"/></linearGradient><linearGradient id="r" x1="880.38" x2="880.38" xlink:href="#e" y1="144.77" y2="129.07"/><linearGradient id="s" x1="-13767.07" x2="-13767.07" xlink:href="#c" y1="476.25" y2="404.65"/><linearGradient id="t" x1="409.01" x2="409.01" xlink:href="#c" y1="476.25" y2="404.65"/><linearGradient id="u" x1="687.63" x2="687.63" xlink:href="#d" y1="368.63" y2="297.03"/><linearGradient id="f" gradientUnits="userSpaceOnUse" x1="3836.81" x2="3836.81" y1="254.32" y2="181.23"><stop offset="0" stop-color="#695c4d"/><stop offset=".95" stop-color="#7a6b5c"/><stop offset=".96" stop-color="#473e35"/><stop offset=".96" stop-color="#7a6b5c"/><stop offset="1" stop-color="#c4ab93"/></linearGradient><linearGradient id="g" gradientUnits="userSpaceOnUse" x1="3961.64" x2="3950.55" y1="149.45" y2="130.54"><stop offset=".03" stop-color="#695a4e"/><stop offset=".53" stop-color="#5a4f43"/><stop offset="1" stop-color="#c7ab94"/></linearGradient><linearGradient id="v" gradientTransform="matrix(-1 0 0 1 3834.27 -107.62)" x1="722.32" x2="722.32" xlink:href="#f" y1="361.94" y2="288.85"/><linearGradient id="w" gradientTransform="matrix(-1 0 0 1 3834.27 -107.62)" x1="847.15" x2="836.06" xlink:href="#g" y1="257.07" y2="238.16"/><linearGradient id="x" x1="19749.05" x2="19749.05" xlink:href="#c" y1="476.05" y2="404.45"/><linearGradient id="y" x1="33925.13" x2="33925.13" xlink:href="#c" y1="476.05" y2="404.45"/><linearGradient id="z" gradientUnits="userSpaceOnUse" x1="3469.64" x2="3469.64" y1="383.19" y2="125.39"><stop offset="0" stop-color="#594e41"/><stop offset=".95" stop-color="#706255"/><stop offset=".96" stop-color="#473e35"/><stop offset=".96" stop-color="#7a6b5c"/><stop offset="1" stop-color="#c4ab93"/></linearGradient><circle cx="1523.98" cy="350.05" fill="#423a31" r="57.45"/><circle cx="1645.99" cy="350.05" fill="#423a31" r="57.45"/><circle cx="1770.39" cy="350.05" fill="#423a31" r="57.45"/><circle cx="1891.46" cy="350.05" fill="#423a31" r="57.45"/><circle cx="2285.48" cy="350.05" fill="#423a31" r="57.45"/><circle cx="2431.31" cy="350.05" fill="#423a31" r="57.45"/><circle cx="2628.32" cy="350.05" fill="#423a31" r="57.45"/><circle cx="2771.6" cy="350.05" fill="#423a31" r="57.45"/><path d="M1334.86 140.95h649.34v121.51h-649.34z" fill="#877565"/><path d="M1334.86 262.46h649.34V383.2h-649.34z" fill="url(#d)"/><path d="M1420.64 0h-55.43l10.19 95.24h36.77z" fill="url(#b)"/><path d="M1485.85 58.2v82.72h276.51V88.86l-53.22-32.39z" fill="url(#a)"/><path d="M1369.82 100.94h44.64v41.24h-44.64z" fill="url(#h)"/><path d="M229.26 208.56h22.98v41.24h-22.98z" fill="url(#i)" transform="rotate(180 833.35 175.375)"/><path d="M162.36 208.56h22.26v41.24h-22.26z" fill="url(#j)" transform="rotate(180 766.09 175.375)"/><path d="M1363.4 95.19h56.97v5.79h-56.97z" fill="url(#k)"/><path d="M123.14 395.37h26.52v95.44h-26.52z" fill="url(#l)" transform="rotate(180 729.005 389.28)"/><path d="M1254.45 297.03h53.9v71.6h-53.9z" fill="url(#c)"/><path d="M2854.35 297.03h53.9v71.6h-53.9z" fill="url(#m)"/><path d="M799 194.36h160.07v202.96H799z" fill="url(#n)" transform="rotate(180 1471.635 242.035)"/><path d="M2170.71 308.62h-22.19V288.7H1984.2v94.49h164.32v-41.77h22.19z" fill="url(#o)"/><path d="M2061.6 136.28h34.16v50.1h-34.16zm-536.51 71.01h39.8v27.36h-39.8zm-132.08 92h39.8v20.04h-39.8zm89.27.91h27.96v50.1h-27.96zm501.92-37.74h-649.34m169.01-120.27v120.27m223.16-120.27v120.27m-255.96 0v120.73m241.87-120.73v116.99m271.26-238.5v242.24m0-93.49h161" fill="none" stroke="#473e35" stroke-miterlimit="10"/><path d="M2371.01 158.69v-58.02H2158.8v282.52h695.55v-224.5z" fill="url(#p)"/><path d="M2260.44 100.67v282.52M2158.8 132.43h212.21m0 26.26H2158.8m695.55 60.76h-593.91m593.91 88.52H2158.8m24.99-117.88h54.15v107.38h-54.15zm94.8 151.54h39.58v29.07h-39.58zm128.75 0h39.58v29.07h-39.58zm209.31 0h39.58v29.07h-39.58zm131.28 0h39.58v29.07h-39.58z" fill="none" stroke="#473e35" stroke-miterlimit="10"/><path d="M2371.01 107.53h353.16v51.17h-353.16z" fill="#877465"/><path d="M2371.01 126.9h353.16m-353.16 19.4h353.16" fill="none" stroke="#473e35" stroke-miterlimit="10"/><path d="M2134.35 85h38.77v37a16.92 16.92 0 01-16.92 16.92h-21.85V85z" fill="url(#q)"/><path d="M1165.35 316.94a45.66 45.66 0 00-45.52 42.24h-68.37a45.64 45.64 0 00-45.52-42.24 45.66 45.66 0 00-45.66 45.66 45.66 45.66 0 0045.66 45.66 45.65 45.65 0 0041.12-25.79l13.83 9.22h53.4l11.45-6.39a45.63 45.63 0 0039.61 23 45.67 45.67 0 0045.67-45.66 45.67 45.67 0 00-45.67-45.7zm-791.29 0a45.66 45.66 0 00-45.53 42.24H260.2a45.66 45.66 0 00-45.53-42.24 45.66 45.66 0 00-45.66 45.66 45.66 45.66 0 0045.66 45.66 45.66 45.66 0 0041.13-25.79l13.82 9.22h53.41l11.44-6.39a45.63 45.63 0 0039.62 23 45.66 45.66 0 0045.66-45.66 45.66 45.66 0 00-45.69-45.7zm-1.05-132.41H209.26v-26.68h149.97z" fill="#423a31"/><path d="M0 129.07v12.56l159.04 3.14 9.94-15.7z" fill="url(#e)"/><path d="M168.98 125.94l-13.6 22.49v13.6h40.8l2.62-36.09z" fill="#7a6b5c"/><path d="M373.01 110.24l-158 3.14-11.09 6.8-5.12 5.76-6.28 10.98v11.51l3.66 13.6 7.74 7.85 5.34 3.66h73.5v-9.41h123.06z" fill="#736557"/><path d="M1168.9 184.53h-163.75v-26.68h149.97z" fill="#423a31"/><path d="M795.89 129.07v12.56l159.04 3.14 9.94-15.7z" fill="url(#r)"/><path d="M964.87 125.94l-13.6 22.49v13.6h40.8l2.62-36.09z" fill="#7a6b5c"/><path d="M1168.9 110.24l-158 3.14-11.09 6.8-5.12 5.76-6.28 10.98v11.51l3.66 13.6 7.74 7.85 5.34 3.66h73.5v-9.41h123.06z" fill="#736557"/><path d="M687.63 168.76h-55.41l23.82-59.18h31.59z" fill="#94806e"/><path d="M717.38 109.58h-29.75v59.18h52.19" fill="#8a7766"/><path d="M72.33 297.03h53.9v71.6h-53.9z" fill="url(#s)"/><path d="M1249.02 297.03h53.9v71.6h-53.9z" fill="url(#t)"/><path d="M126.23 297.03h1122.79v71.6H126.23z" fill="url(#u)"/><path d="M1223.54 176.37H959.45l-7.5-9.37H426.56l-7.37 9.37H155.87l-29.64 120.66h1122.79z" fill="#877565"/><path d="M438.1 167v201.63M939.5 167v201.63m-595.18-40.67h42.79v27.76h-42.79zm-140.4 0h42.79v27.76h-42.79zm787.42 0h42.79v27.76h-42.79zm143.28 0h42.79v27.76h-42.79z" fill="none" stroke="#473e35" stroke-miterlimit="10"/><path d="M795.89 199.4h20.28v4.06h-20.28zm-238.28 0h20.28v4.06h-20.28zm102.31-79.96h17.81v4.06h-17.81zm36 0h17.81v4.06h-17.81z" fill="#423a31"/><path d="M3783.43 206.48l43.41-14.62 5.32 11.08 32.78-21.71 25.25 37.21-90.37 35.88z" fill="url(#f)"/><path d="M3861.84 186.55l162.14-96.13 15.95-14.62 7.09 11.96-20.38 9.74-106.32 70.44 3.33 6.65-47.63 30.56z" fill="url(#g)"/><path d="M3165.33 206.48l-43.41-14.62-5.32 11.08-32.78-21.71-25.25 37.21 90.37 35.88z" fill="url(#v)"/><path d="M3086.92 186.55l-162.14-96.13-15.94-14.62-7.09 11.96 20.38 9.74 106.32 70.44-3.34 6.65 47.64 30.56z" fill="url(#w)"/><path d="M3947.37 316.74a45.65 45.65 0 00-45.52 42.25h-68.37a45.61 45.61 0 10-4.4 23.28l13.83 9.22h53.4l11.45-6.39a45.66 45.66 0 1039.61-68.36zm-791.3 0a45.65 45.65 0 00-45.52 42.25h-68.35a45.61 45.61 0 10-4.4 23.28l13.83 9.22h53.4l11.45-6.39a45.66 45.66 0 1039.61-68.36z" fill="#423a31"/><path d="M2854.35 296.83h53.9v71.6h-53.9z" fill="url(#x)"/><path d="M4031.04 296.83h53.9v71.6h-53.9z" fill="url(#y)"/><path d="M3648.51 198.65v-73.26h-357.73v73.26h-382.53v184.54h1122.79V198.65z" fill="url(#z)"/><path d="M3290.78 198.65h357.73m-349.51 0v184.54m341.83-184.54v184.54m-662.94-41.08h41.43v28.11h-41.43zm153.4 0h41.43v28.11h-41.43zm638.96 0h41.43v28.11h-41.43zm-403.87-157.52h32.44v28.11h-32.44zm182.04 0h32.44v28.11h-32.44zm375.23 157.52h41.43v28.11h-41.43z" fill="none" stroke="#473e35" stroke-miterlimit="10"/></svg>