<svg id="Episod_3" data-name="Episod 3" xmlns="http://www.w3.org/2000/svg" xmlns:xlink="http://www.w3.org/1999/xlink" width="5088.63" height="432.68"><defs><linearGradient id="linear-gradient-57" x1="-1127.99" y1="1364.31" x2="-1044.89" y2="1364.31" xlink:href="#linear-gradient-55"/><linearGradient id="linear-gradient" x1="2344.72" y1="767.53" x2="2344.72" y2="963.85" gradientUnits="userSpaceOnUse"><stop offset=".4" stop-color="#806e5e"/><stop offset="1" stop-color="#53493e"/></linearGradient><linearGradient id="linear-gradient-2" x1="-293.85" y1="782.17" x2="-293.85" y2="970.65" xlink:href="#linear-gradient"/><linearGradient id="linear-gradient-3" x1="2265.67" y1="200.17" x2="2266" y2="194.79" gradientUnits="userSpaceOnUse"><stop offset="0" stop-color="#806e5e"/><stop offset="1" stop-color="#b09783"/></linearGradient><linearGradient id="linear-gradient-4" x1="2343.94" y1="233.18" x2="2343.94" y2="239.6" gradientUnits="userSpaceOnUse"><stop offset="0" stop-color="#756557"/><stop offset="1" stop-color="#806e5e"/></linearGradient><linearGradient id="linear-gradient-5" x1="-183.56" y1="895.95" x2="-51.66" y2="895.95" xlink:href="#linear-gradient-3"/><linearGradient id="linear-gradient-6" x1="-274.39" y1="788.64" x2="-180.5" y2="788.64" xlink:href="#linear-gradient-3"/><linearGradient id="linear-gradient-7" x1="2171.44" y1="197.48" x2="2171.44" y2="192.05" xlink:href="#linear-gradient-3"/><linearGradient id="linear-gradient-8" x1="137.69" y1="823.41" x2="137.69" y2="905.04" xlink:href="#linear-gradient-4"/><linearGradient id="linear-gradient-10" x1="4099.37" y1="333.18" x2="4099.37" y2="125.48" gradientUnits="userSpaceOnUse"><stop offset="0" stop-color="#806e5e"/><stop offset=".98" stop-color="#806e5e"/><stop offset="1" stop-color="#53493e"/></linearGradient><linearGradient id="linear-gradient-11" x1="4104.43" y1="333.33" x2="4104.43" y2="126.17" gradientUnits="userSpaceOnUse"><stop offset="0" stop-color="#927e6c"/><stop offset=".99" stop-color="#917d6b"/><stop offset="1" stop-color="#53493e"/></linearGradient><linearGradient id="linear-gradient-12" x1="4099.56" y1="125.48" x2="4099.56" y2="113.98" gradientUnits="userSpaceOnUse"><stop offset="0" stop-color="#63564a"/><stop offset="1" stop-color="#c5bbb0"/></linearGradient><linearGradient id="linear-gradient-13" x1="-621.49" y1="1575.17" x2="-621.49" y2="1448.97" gradientTransform="translate(-78.94 -704.57)" gradientUnits="userSpaceOnUse"><stop offset="0" stop-color="#3a322b"/><stop offset=".05" stop-color="#5c5045"/><stop offset=".5" stop-color="#4a4137"/><stop offset="1" stop-color="#927e6c"/></linearGradient><linearGradient id="linear-gradient-14" x1="-2011" y1="1462.91" x2="-2011" y2="1380.69" gradientTransform="translate(2404.2 -1287.4)" gradientUnits="userSpaceOnUse"><stop offset="0" stop-color="#3a322b"/><stop offset=".09" stop-color="#4a4137"/><stop offset="1" stop-color="#927e6c"/></linearGradient><linearGradient id="linear-gradient-15" x1="-1850.54" y1="1370.88" x2="-1803.07" y2="1370.88" gradientTransform="translate(2404.2 -1287.4)" gradientUnits="userSpaceOnUse"><stop offset="0" stop-color="#927e6c"/><stop offset=".08" stop-color="#5d5146"/><stop offset=".29" stop-color="#7c6b5c"/><stop offset=".71" stop-color="#4a4137"/><stop offset="1" stop-color="#927e6c"/></linearGradient><linearGradient id="linear-gradient-16" x1="-1843.45" y1="1406.13" x2="-1794.69" y2="1406.13" gradientTransform="translate(2404.2 -1287.4)" gradientUnits="userSpaceOnUse"><stop offset=".01" stop-color="#5c5045"/><stop offset=".96" stop-color="#4a4137"/><stop offset="1" stop-color="#3a322b"/></linearGradient><linearGradient id="linear-gradient-17" x1="-1078.93" y1="1719.08" x2="-1078.93" y2="1591.26" gradientTransform="translate(-78.95 -704.57)" gradientUnits="userSpaceOnUse"><stop offset="0" stop-color="#52483d"/><stop offset="1" stop-color="#3a322b"/></linearGradient><linearGradient id="linear-gradient-18" x1="-2030.3" y1="1703.67" x2="-2030.3" y2="1603.11" gradientTransform="translate(2404.2 -1287.4)" xlink:href="#linear-gradient-17"/><linearGradient id="linear-gradient-19" x1="-1444.22" y1="1598.97" x2="-1444.22" y2="1429.97" gradientTransform="translate(-78.95 -704.57)" gradientUnits="userSpaceOnUse"><stop offset="0" stop-color="#3a322b"/><stop offset=".01" stop-color="#5c5045"/><stop offset=".95" stop-color="#4a4137"/><stop offset=".98" stop-color="#3a322b"/></linearGradient><linearGradient id="linear-gradient-20" x1="-686" y1="1386.94" x2="-686" y2="1343.26" gradientTransform="translate(2404.2 -1287.4)" xlink:href="#linear-gradient-13"/><linearGradient id="linear-gradient-21" x1="-976.17" y1="1519.15" x2="-976.17" y2="1381.9" gradientTransform="translate(2404.2 -1287.4)" xlink:href="#linear-gradient-13"/><linearGradient id="linear-gradient-22" x1="-1334.89" y1="1545.95" x2="-1334.89" y2="1361.07" gradientTransform="translate(2404.2 -1287.4)" gradientUnits="userSpaceOnUse"><stop offset="0" stop-color="#52483d"/><stop offset=".8" stop-color="#63564a"/><stop offset="1" stop-color="#927e6c"/></linearGradient><linearGradient id="linear-gradient-23" x1="-1541.86" y1="1374.16" x2="-1541.86" y2="1311.17" xlink:href="#linear-gradient-14"/><linearGradient id="linear-gradient-24" x1="-1747.84" y1="1374.16" x2="-1747.84" y2="1311.17" xlink:href="#linear-gradient-14"/><linearGradient id="linear-gradient-25" x1="-1119.34" y1="1526.48" x2="-1119.34" y2="1374.16" gradientTransform="translate(2404.2 -1287.4)" gradientUnits="userSpaceOnUse"><stop offset="0" stop-color="#3a322b"/><stop offset=".06" stop-color="#78685a"/><stop offset=".5" stop-color="#6e6051"/><stop offset="1" stop-color="#d2c8bd"/></linearGradient><linearGradient id="linear-gradient-26" x1="-1225.13" y1="1526.48" x2="-1225.13" y2="1374.16" xlink:href="#linear-gradient-25"/><linearGradient id="linear-gradient-27" x1="-1004.79" y1="1526.48" x2="-1004.79" y2="1374.16" xlink:href="#linear-gradient-25"/><linearGradient id="linear-gradient-28" x1="-972.61" y1="1526.48" x2="-972.61" y2="1374.16" xlink:href="#linear-gradient-25"/><linearGradient id="linear-gradient-29" x1="-849" y1="1526.48" x2="-849" y2="1374.16" xlink:href="#linear-gradient-25"/><linearGradient id="linear-gradient-30" x1="-719.45" y1="1688.02" x2="-719.45" y2="1540.36" gradientTransform="translate(2404.2 -1287.4)" gradientUnits="userSpaceOnUse"><stop offset="0" stop-color="#665a4c"/><stop offset=".09" stop-color="#52483d"/><stop offset=".8" stop-color="#63564a"/><stop offset="1" stop-color="#927e6c"/></linearGradient><linearGradient id="linear-gradient-31" x1="-771.57" y1="1674.34" x2="-771.57" y2="1597.44" gradientTransform="translate(2404.2 -1287.4)" gradientUnits="userSpaceOnUse"><stop offset="0" stop-color="#63564a"/><stop offset=".43" stop-color="#53483d"/><stop offset="1" stop-color="#927e6c"/></linearGradient><linearGradient id="linear-gradient-32" x1="-664.92" y1="1683.19" x2="-664.92" y2="1597.44" xlink:href="#linear-gradient-31"/><linearGradient id="linear-gradient-33" x1="-667.64" y1="1585.53" x2="-667.64" y2="1547.63" xlink:href="#linear-gradient-31"/><linearGradient id="linear-gradient-34" x1="-1206.77" y1="1340.05" x2="-1123.98" y2="1340.05" xlink:href="#linear-gradient-15"/><linearGradient id="linear-gradient-35" x1="-1206.78" y1="1300.06" x2="-1123.99" y2="1300.06" gradientTransform="translate(0 -646)" gradientUnits="userSpaceOnUse"><stop offset="0" stop-color="#927e6c"/><stop offset=".71" stop-color="#4a4137"/><stop offset="1" stop-color="#927e6c"/></linearGradient><linearGradient id="linear-gradient-36" x1="-1116.09" y1="1340.05" x2="-1033.3" y2="1340.05" xlink:href="#linear-gradient-15"/><linearGradient id="linear-gradient-37" x1="-1116.09" y1="1300.06" x2="-1033.3" y2="1300.06" xlink:href="#linear-gradient-35"/><linearGradient id="linear-gradient-38" x1="-968.2" y1="1300.06" x2="-885.43" y2="1300.06" xlink:href="#linear-gradient-35"/><linearGradient id="linear-gradient-39" x1="-968.21" y1="1340.05" x2="-885.42" y2="1340.05" xlink:href="#linear-gradient-15"/><linearGradient id="linear-gradient-40" x1="-1070.32" y1="1385.37" x2="-1008.5" y2="1385.37" gradientTransform="translate(2404.2 -1287.4)" xlink:href="#linear-gradient-13"/><linearGradient id="linear-gradient-41" x1="-1558.85" y1="1598.97" x2="-1558.85" y2="1432.73" xlink:href="#linear-gradient-19"/><linearGradient id="linear-gradient-42" x1="-2024.21" y1="1370.88" x2="-1976.74" y2="1370.88" xlink:href="#linear-gradient-15"/><linearGradient id="linear-gradient-43" x1="-2026.05" y1="1360.1" x2="-1974.9" y2="1360.1" xlink:href="#linear-gradient-15"/><linearGradient id="linear-gradient-44" x1="-1852.38" y1="1360.1" x2="-1801.23" y2="1360.1" xlink:href="#linear-gradient-15"/><linearGradient id="linear-gradient-45" x1="-1923.14" y1="1661.68" x2="-1923.14" y2="1432.73" gradientTransform="translate(-78.95 -704.57)" gradientUnits="userSpaceOnUse"><stop offset=".01" stop-color="#5c5045"/><stop offset=".95" stop-color="#4a4137"/><stop offset=".98" stop-color="#3a322b"/></linearGradient><linearGradient id="linear-gradient-46" x1="-802.29" y1="1366.32" x2="-739.16" y2="1366.32" xlink:href="#linear-gradient-15"/><linearGradient id="linear-gradient-47" x1="-802.29" y1="1322.94" x2="-739.16" y2="1322.94" xlink:href="#linear-gradient-15"/><linearGradient id="linear-gradient-51" x1="-1165.38" y1="1305.95" x2="-1165.38" y2="1294.18" gradientTransform="translate(0 -646)" gradientUnits="userSpaceOnUse"><stop offset=".32" stop-color="#927e6c" stop-opacity="0"/><stop offset="1" stop-color="#d2c8bd"/></linearGradient><linearGradient id="linear-gradient-52" x1="-1074.69" y1="1305.95" x2="-1074.69" y2="1294.18" xlink:href="#linear-gradient-51"/><linearGradient id="linear-gradient-53" x1="-926.81" y1="1305.95" x2="-926.81" y2="1294.18" xlink:href="#linear-gradient-51"/><linearGradient id="linear-gradient-54" x1="-1675.65" y1="1323.71" x2="-1675.65" y2="1303.26" gradientTransform="translate(2404.2 -1287.4)" gradientUnits="userSpaceOnUse"><stop offset="0" stop-color="#4a4137"/><stop offset="1" stop-color="#927e6c"/></linearGradient><linearGradient id="linear-gradient-55" x1="-1037.46" y1="1364.31" x2="-954.36" y2="1364.31" gradientTransform="translate(2325.26 -1345.97)" gradientUnits="userSpaceOnUse"><stop offset="0" stop-color="#b09882"/><stop offset=".08" stop-color="#a38f7a"/><stop offset=".29" stop-color="#a38d79"/><stop offset=".71" stop-color="#827261"/><stop offset="1" stop-color="#b59c86"/></linearGradient><linearGradient id="linear-gradient-56" x1="-889.42" y1="1364.31" x2="-806.32" y2="1364.31" xlink:href="#linear-gradient-55"/><style>.cls-9{fill:#806e5e}.cls-10{fill:url(#linear-gradient-8)}.cls-11{fill:#8c7867}.cls-12{fill:#706053}.cls-13{fill:#756557}.cls-14{fill:#53493e}.cls-15{fill:#63564a}.cls-18{fill:#927e6c}.cls-43{fill:url(#linear-gradient-35)}.cls-45{fill:url(#linear-gradient-37)}.cls-46{fill:url(#linear-gradient-38)}</style></defs><path d="M2504.58 767.53L2482.44 782h-4.19l-105.34 57.63-16.25 8.51-85.27-33.32-.4 1.35-1.89-1.35-20.23-6.82-35.11 26.72 1.91 20.61-7.47 17.17 3.62.89v52.25l-10.65-.85h-11.45l-2-8v-47.7h-7.91v47.7l1.91 10.69 16.79 3.43 5.35 6.11h24l-1.11 1.15-.77 11.06-24.8-1.14v15.8h151.89v-5.11l-12.59-11.45v-4.58h17.37l28.81-11.84-32.82-53.43 84-51.14V816l48.85-24.43V787l23-10.69zm-274.11 120.18v-13.77l9.32-1a47.76 47.76 0 00-9.32 14.77zm-12.89 4.29H2229a47.69 47.69 0 003.46 35.24l-14.89-1.19zm116-39.38l-14.89 5.72-9.54 2.67-9.63 3.46a47.82 47.82 0 00-42-3.65l-23.91-.57-8-8 3.82-8.9 9.24 4.32 18.24.77 9.16-5.09-3.44-10.75s-2.67-5.15-2.29-6.68c.26-1 5.61-2.83 8.9-3.83l-.12.39 79.76 27.87h3.65l-11.66 6.1z" transform="translate(2404.2 -641.4)" fill="url(#linear-gradient)" id="Cannon"/><g id="Gaz-AA"><path d="M-275.49 877.79h-29v-5h24.59V818.1l-261.85-5.45v60.11h8.93l1.38 11 24 2.31-.93 12 51.26 11.12a43.05 43.05 0 00-4 20.55 43.29 43.29 0 0041.46 40.87A43.12 43.12 0 00-375 927.53c26.27-5.06 33.59-6.24 53.19-9.82l197.92 3.88a39.7 39.7 0 00-.86 8.21 39.41 39.41 0 0042.25 39.31A39.53 39.53 0 00-46 933a39.36 39.36 0 00-14.9-34.11s-11.41-4.52-9.69-29.44l.46-21.24h-9.7l-5.49-1.39v-9.23l-105.8-6v-33.26l10.62-3.23-2.77-4.62-5.13-1.38a202.6 202.6 0 00-52.53-6.93h-21A12.51 12.51 0 00-274.39 794zm-171.93 0h-58.07v-5h58.07zm67.69 0h-58.07v-5h58.07zm66.28 0h-58.07v-5h58.07zm114.61-46.21H-260v-32.34h61.18z" transform="translate(2404.2 -641.4)" fill="url(#linear-gradient-2)"/><path fill="url(#linear-gradient-3)" d="M2318.88 196.19l-105.8-6.01v6.01l105.8 4v-4z"/><path fill="url(#linear-gradient-4)" d="M2343.3 239.6l1.27-6.42"/><path d="M-131.19 899.16L-162 921l-21.57-.33 18.26-7.31 30.53-23.36a93 93 0 0158.47-19.11h.21a31.15 31.15 0 0120.48 8.26l4 3.66-22.53-.77a93 93 0 00-57.04 17.12z" transform="translate(2404.2 -641.4)" fill="url(#linear-gradient-5)"/><path d="M-274.39 794a12.51 12.51 0 0112.49-11.87h21a202.6 202.6 0 0152.53 6.93l5.13 1.38 2.77 4.62-10.62-.09z" transform="translate(2404.2 -641.4)" fill="url(#linear-gradient-6)"/><path fill="url(#linear-gradient-7)" d="M2129.8 190.18h83.27v6.56h-83.27z"/><path fill="#8a7665" d="M2129.64 277.57h101.23v2.03h-101.23z"/></g><g id="Tank"><path class="cls-9" d="M58.84 831.23l27.81 70.93-.22 2.84 22.62 68.85h545.17s-3.62-86.67-17.52-107.62c-117-25.25-216.19-76.39-245.41-91.75a59.16 59.16 0 00-19.56-6.25c-22.84-3.08-76.32-8.38-106 4.47-14.24 6.17-33.84 34.1-53.25 35.83-47.07 4.21-153.28 5.49-147.67 5z" transform="translate(2404.2 -641.4)"/><path class="cls-10" d="M216.54 823.41c-2.43 1.14-157.7 7.82-157.7 7.82L86.43 905l130.11-71.58z" transform="translate(2404.2 -641.4)"/><path class="cls-11" d="M2508.62 249.35l42.73-18.86h456.26l15.65 14.08-514.64 4.78z"/><path class="cls-12" d="M84.32 955.9l4.28-50.48a16 16 0 0115.82-14.67L613.15 886a33.82 33.82 0 0132.77 24.35l12.55 43.14A16 16 0 01643.06 974l-542.79-.75a16 16 0 01-15.95-17.35z" transform="translate(2404.2 -641.4)"/><path class="cls-13" d="M272.74 871.52c4 1.54 330.67.37 330.67.37l-331.83-20zm-1.16-19.59c-1.57-.46-98.65 20.39-98.65 20.39l99.81-.8zM230 823.41l182.25 4.88-24.9-35.63a17.18 17.18 0 00-14.09-7.34H270.09a23.22 23.22 0 00-18.6 9.32z" transform="translate(2404.2 -641.4)"/><path class="cls-9" d="M58.84 831.23l27.81 70.93-.22 2.84 22.62 68.85h545.17s-3.62-86.67-17.52-107.62c-117-25.25-216.19-76.39-245.41-91.75a59.16 59.16 0 00-19.56-6.25c-22.84-3.08-76.32-8.38-106 4.47-14.24 6.17-33.84 34.1-53.25 35.83-47.07 4.21-153.28 5.49-147.67 5z" transform="translate(2404.2 -641.4)"/><path class="cls-10" d="M216.54 823.41c-2.43 1.14-157.7 7.82-157.7 7.82L86.43 905l130.11-71.58z" transform="translate(2404.2 -641.4)"/><path class="cls-11" d="M2508.62 249.35l42.73-18.86h456.26l15.65 14.08-514.64 4.78z"/><path class="cls-12" d="M84.32 955.9l4.28-50.48a16 16 0 0115.82-14.67L613.15 886a33.82 33.82 0 0132.77 24.35l12.55 43.14A16 16 0 01643.06 974l-542.79-.75a16 16 0 01-15.95-17.35z" transform="translate(2404.2 -641.4)"/><path class="cls-13" d="M272.74 871.52c4 1.54 330.67.37 330.67.37l-331.83-20zm-1.16-19.59c-1.57-.46-98.65 20.39-98.65 20.39l99.81-.8zM230 823.41l182.25 4.88-24.9-35.63a17.18 17.18 0 00-14.09-7.34H270.09a23.22 23.22 0 00-18.6 9.32z" transform="translate(2404.2 -641.4)"/><g id="Bottom"><circle class="cls-14" cx="2616.45" cy="388.68" r="44"/><circle class="cls-14" cx="2939.9" cy="388.68" r="44"/><path class="cls-14" d="M2489.1 332.1h578.15v40H2489.1z"/><path class="cls-14" d="M2498.94 344.68h57v57h-57z"/><path class="cls-15" d="M218.49 1045.08h-12a5.51 5.51 0 01-5.51-5.51v-19a5.51 5.51 0 015.51-5.51h12a5.51 5.51 0 015.51 5.51v19a5.51 5.51 0 01-5.51 5.51z" transform="translate(2404.2 -641.4)"/><circle class="cls-14" cx="2616.7" cy="388.68" r="9"/><path class="cls-15" d="M542.94 1045.08H531a5.51 5.51 0 01-5.51-5.51v-19a5.51 5.51 0 015.51-5.51h12a5.51 5.51 0 015.51 5.51v19a5.51 5.51 0 01-5.57 5.51z" transform="translate(2404.2 -641.4)"/><circle class="cls-14" cx="2941.15" cy="388.68" r="9"/><path class="cls-14" d="M2475.21 335.39v3.37h-12.33v2.22h-11.2v-8.32h-2.61v24.05h2.61v-8.31h11.2v2.2h12.33v2.96h21.21v-18.17h-21.21zm607.34 18.59v-3.37h12.33v-2.22h11.2v8.32h2.61v-24.05h-2.61v8.31h-11.2v-2.2h-12.33v-2.96h-21.21v18.17h21.21z"/></g><path class="cls-9" d="M3068.65 333.51h-581.6v-29.44h32.97l88.89-27.96h336.96l92.65 27.96h30.13v29.44z" id="PlatformCart"/></g><g id="Bottom-2" data-name="Bottom"><path class="cls-14" d="M1364.89 982.24v-8.31h-2.61v8.31h-11.2V980h-12.33v-3h-15.3v-3.7H745.29v3.28h-13.88V980h-12.33v2.22h-11.2v-8.32h-2.61V998h2.61v-8.31h11.2v2.2h12.33v3h13.88v18.55h9.84V1043h57v-29.58h19.76a44 44 0 1081.51 0h241.94a44 44 0 1081.51 0h86.6v-18.17h15.3v-3.37h12.33v-2.22h11.2V998h2.61v-15.74z" transform="translate(2404.2 -641.4)"/><path class="cls-15" d="M878.89 1045h-12a5.51 5.51 0 01-5.51-5.51v-19a5.51 5.51 0 015.51-5.51h12a5.51 5.51 0 015.51 5.51v19a5.51 5.51 0 01-5.51 5.51z" transform="translate(2404.2 -641.4)"/><circle class="cls-14" cx="3277.1" cy="388.56" r="9"/><path class="cls-15" d="M1203.34 1045h-12a5.51 5.51 0 01-5.51-5.51v-19a5.51 5.51 0 015.51-5.51h12a5.51 5.51 0 015.51 5.51v19a5.51 5.51 0 01-5.51 5.51z" transform="translate(2404.2 -641.4)"/><circle class="cls-14" cx="3601.54" cy="388.56" r="9"/></g><g id="Bottom-3" data-name="Bottom"><path class="cls-14" d="M2025.06 982.24v-8.31h-2.61v8.31h-11.2V980h-12.33v-3h-15.3v-3.7h-578.16v3.28h-13.89V980h-12.33v2.22h-11.19v-8.32h-2.61V998h2.61v-8.31h11.19v2.2h12.33v3h13.89v18.55h9.84V1043h57v-29.58h19.76a44 44 0 1081.51 0h241.94a44 44 0 1081.51 0h86.6v-18.17h15.3v-3.37h12.33v-2.22h11.2V998h2.61v-15.74z" transform="translate(2404.2 -641.4)"/><path class="cls-15" d="M1539.06 1045h-12a5.51 5.51 0 01-5.51-5.51v-19a5.51 5.51 0 015.51-5.51h12a5.51 5.51 0 015.51 5.51v19a5.51 5.51 0 01-5.51 5.51z" transform="translate(2404.2 -641.4)"/><circle class="cls-14" cx="3937.26" cy="388.56" r="9"/><path class="cls-15" d="M1863.5 1045h-12a5.51 5.51 0 01-5.51-5.51v-19a5.51 5.51 0 015.51-5.51h12a5.51 5.51 0 015.51 5.51v19a5.51 5.51 0 01-5.51 5.51z" transform="translate(2404.2 -641.4)"/><circle class="cls-14" cx="4261.71" cy="388.56" r="9"/></g><g id="Bottom-4" data-name="Bottom"><path class="cls-14" d="M2684.43 982.24v-8.31h-2.61v8.31h-11.19V980h-12.33v-3H2643v-3.7h-578.16v3.28H2051V980h-12.33v2.22h-11.2v-8.32h-2.61V998h2.61v-8.31h11.2v2.2H2051v3h13.89v18.55h9.84V1043h57v-29.58h19.75a44 44 0 1081.52 0h241.93a44 44 0 1081.52 0H2643v-18.17h15.31v-3.37h12.33v-2.22h11.19V998h2.61v-15.74z" transform="translate(2404.2 -641.4)"/><path class="cls-15" d="M2198.43 1045h-12a5.51 5.51 0 01-5.51-5.51v-19a5.51 5.51 0 015.51-5.51h12a5.51 5.51 0 015.51 5.51v19a5.51 5.51 0 01-5.51 5.51z" transform="translate(2404.2 -641.4)"/><circle class="cls-14" cx="4596.64" cy="388.56" r="9"/><path class="cls-15" d="M2522.88 1045h-12a5.51 5.51 0 01-5.51-5.51v-19a5.51 5.51 0 015.51-5.51h12a5.51 5.51 0 015.51 5.51v19a5.51 5.51 0 01-5.51 5.51z" transform="translate(2404.2 -641.4)"/><circle class="cls-14" cx="4921.09" cy="388.56" r="9"/></g><g id="Bottom-5" data-name="Bottom"><path class="cls-14" d="M44.84 982.11v-8.31h-2.61v8.31H31v-2.2H18.7v-3H3.4v-3.71h-578.15v3.29h-13.89v3.37H-601v2.22h-11.2v-8.28h-2.61v24.05h2.61v-8.31h11.2v2.2h12.33v3h13.89v18.54h9.84v29.58h57v-29.58h19.75a44 44 0 00-3.24 16.58 44 44 0 0044 44 44 44 0 0044-44 44 44 0 00-3.24-16.58h241.93a44 44 0 00-3.24 16.58 44 44 0 0044 44 44 44 0 0044-44 44 44 0 00-3.24-16.58H3.4v-18.16h15.3v-3.37H31v-2.22h11.2v8.32h2.61v-15.74z" transform="translate(2404.2 -641.4)"/><path class="cls-15" d="M-441.16 1044.82h-12a5.51 5.51 0 01-5.51-5.51v-19a5.51 5.51 0 015.51-5.51h12a5.51 5.51 0 015.51 5.51v19a5.51 5.51 0 01-5.51 5.51z" transform="translate(2404.2 -641.4)"/><circle class="cls-14" cx="1957.05" cy="388.42" r="9"/><path class="cls-15" d="M-116.71 1044.82h-12a5.51 5.51 0 01-5.51-5.51v-19a5.51 5.51 0 015.51-5.51h12a5.51 5.51 0 015.51 5.51v19a5.51 5.51 0 01-5.51 5.51z" transform="translate(2404.2 -641.4)"/><circle class="cls-14" cx="2281.5" cy="388.42" r="9"/></g><path class="cls-9" d="M2410.03 333.39h-581.6v-40.66l100.1-31.2 378.46.59 103.04 30.61v40.66z" id="PlatformCart-2" data-name="PlatformCart"/><path class="cls-9" d="M3730.08 333.39h-581.6v-40.66l100.1-31.2 378.46.59 103.04 30.61v40.66z" id="PlatformCart-3" data-name="PlatformCart"/><path class="cls-9" d="M5049.62 333.39h-581.6v-40.66l100.1-31.2 378.46.59 103.04 30.61v40.66z" id="PlatformCart-4" data-name="PlatformCart"/><g id="CargoCart"><path fill="url(#linear-gradient-10)" d="M4390.17 333.18h-581.6v-207.7h581.6v207.7z"/><path fill="url(#linear-gradient-11)" d="M4011.24 126.17h186.38v207.15h-186.38z"/><path class="cls-18" d="M4382.86 126.17h7.3v207.15h-7.3zm-574.29 0h7.3v207.15h-7.3zm135 0h7.3v207.15h-7.3zm-69.76 0h7.3v207.15h-7.3zm447.12 0h7.3v207.15h-7.3zm-69.76 0h7.3v207.15h-7.3z"/><path fill="url(#linear-gradient-12)" d="M4393.55 113.98h-587.98v11.5h587.98v-11.5z"/></g><g id="Episod_2" data-name="Episod 2"><g id="Loco"><path d="M-694.45 756.17v102.66a11.77 11.77 0 01-11.75 11.77h-.23V744.4h.23a11.77 11.77 0 0111.77 11.77z" transform="translate(2404.2 -641.4)" fill="url(#linear-gradient-13)"/><path fill="url(#linear-gradient-14)" d="M225.63 93.29h335.13v82.22H225.63z"/><path fill="url(#linear-gradient-15)" d="M553.66 73.67h47.47v19.62h-47.47z"/><path fill="url(#linear-gradient-16)" d="M560.75 85.99h48.76v65.49h-48.76z"/><path d="M-660.09 888.76h-216.75a40.73 40.73 0 00-25.64 0h-195.27a40.73 40.73 0 00-25.64 0h-306.76v5.64h-220.11l53.91 58.6h-10.36v23.63h-9.29V980h-6.66v2.21H-1653v-8.34h-2.62v24h2.62v-8.31h30.42v2.26h6.66v3h9.26v19.64h841v-57.4H-738V900h77.88zM-1142.28 953h-97.31v-53h99a40.68 40.68 0 00-1.64 53zm220.9 0h-25.11v-39.39h-43.44V953h-88.92a40.72 40.72 0 00-1.64-53h160.76a40.71 40.71 0 00-1.65 53zm80.15 0h-16.71a40.72 40.72 0 00-1.64-53h18.38z" transform="translate(2404.2 -641.4)" fill="url(#linear-gradient-17)"/><path fill="url(#linear-gradient-18)" d="M745.17 332.46v8.31h-18.1v-2.21h-19.73v-2.96h-8.14v-19.89H107.41v14.48H50.92v5H40.44v3.37H20.71v2.21H2.61v-8.31H0v24.04h2.61v-8.31h18.1v2.21h19.73v2.96h10.48v25.28h470.46v37.63h101.39v-37.63h76.43v-24.87h8.14v-3.37h19.73v-2.22h18.1v8.32h2.62v-24.04h-2.62z"/><path d="M-1616.34 725.4v169H-1430v-169zm84.49 61a12 12 0 01-12 12h-38.86a12 12 0 01-12-12v-43a12 12 0 0112-12h38.86a12 12 0 0112 12zm80.93 0a12 12 0 01-12 12h-38.86a12 12 0 01-12-12v-43a12 12 0 0112-12h38.86a12 12 0 0112 12z" transform="translate(2404.2 -641.4)" fill="url(#linear-gradient-19)"/><path fill="#3a322b" d="M703.16 90.03h41.78v162.93h-41.78z"/><path fill="url(#linear-gradient-20)" d="M1698.81 55.86h38.77v43.68h-38.77z"/><path fill="url(#linear-gradient-21)" d="M1157.25 86.76h541.56v171.79h-541.56z"/><path fill="url(#linear-gradient-22)" d="M974 73.67h190.61v184.88H974z"/><path fill="url(#linear-gradient-23)" d="M744.94 23.77h234.79v62.99H744.94z"/><path fill="url(#linear-gradient-24)" d="M602.96 23.77h106.8v62.99h-106.8z"/><path class="cls-18" d="M974 239.08h770.11v8.28H974z"/><path class="cls-18" d="M1161.82 148.39h3.24v94.83h-3.24zm194.01 0h3.24v94.83h-3.24z"/><path fill="url(#linear-gradient-25)" d="M1281.41 86.76h6.9v152.32h-6.9z"/><path fill="url(#linear-gradient-26)" d="M1175.62 86.76h6.9v152.32h-6.9z"/><path fill="url(#linear-gradient-27)" d="M1395.96 86.76h6.9v152.32h-6.9z"/><path fill="url(#linear-gradient-28)" d="M1428.14 86.76h6.9v152.32h-6.9z"/><path fill="url(#linear-gradient-29)" d="M1551.75 86.76h6.9v152.32h-6.9z"/><path class="cls-18" d="M1546.29 148.39h3.24v94.83h-3.24zm193 0h3.24v94.83h-3.24z"/><circle class="cls-14" cx="1152.5" cy="373" r="57.3"/><circle class="cls-14" cx="1021.33" cy="373" r="57.3"/><circle class="cls-14" cx="1280.21" cy="373" r="57.3"/><circle class="cls-14" cx="1411.37" cy="373" r="57.3"/><circle class="cls-14" cx="1544.61" cy="373" r="57.3"/><path fill="url(#linear-gradient-30)" d="M1635.04 252.96h99.41v147.66h-99.41z"/><path fill="url(#linear-gradient-31)" d="M1630.21 310.04h4.83v76.9h-4.83z"/><path fill="url(#linear-gradient-32)" d="M1734.45 310.04h9.66v85.75h-9.66z"/><path fill="url(#linear-gradient-33)" d="M1734.45 260.23h4.21v37.9h-4.21z"/><path fill="url(#linear-gradient-34)" d="M1197.43 18.54h82.79v68.22h-82.79z"/><path class="cls-43" d="M-1195 648.18h59.25A11.77 11.77 0 01-1124 660h-82.79a11.77 11.77 0 0111.79-11.82z" transform="translate(2404.2 -641.4)"/><path fill="url(#linear-gradient-36)" d="M1288.11 18.54h82.79v68.22h-82.79z"/><path class="cls-45" d="M-1104.32 648.18h59.25A11.77 11.77 0 01-1033.3 660h-82.79a11.77 11.77 0 0111.77-11.77z" transform="translate(2404.2 -641.4)"/><path class="cls-46" d="M-956.44 648.18h59.24A11.77 11.77 0 01-885.43 660h-82.77a11.77 11.77 0 0111.77-11.77z" transform="translate(2404.2 -641.4)"/><path fill="url(#linear-gradient-39)" d="M1435.99 18.54h82.79v68.22h-82.79z"/><ellipse cx="1364.79" cy="97.97" rx="30.91" ry="15.37" fill="url(#linear-gradient-40)"/><ellipse cx="1364.79" cy="89.04" rx="30.91" ry="15.37" fill="#99897b"/><path class="cls-18" d="M787.87 252.96H974.2v8.3H787.87z"/><path d="M-1659.26 728.16V894.4h42.92V728.16zm36.89 59.24a5.35 5.35 0 01-5.33 5.33h-21.3a5.35 5.35 0 01-5.33-5.33v-44.6a5.35 5.35 0 015.33-5.33h21.33a5.35 5.35 0 015.33 5.33z" transform="translate(2404.2 -641.4)" fill="url(#linear-gradient-41)"/><path fill="url(#linear-gradient-42)" d="M379.99 73.67h47.47v19.62h-47.47z"/><path fill="url(#linear-gradient-43)" d="M378.15 71.04h51.15v3.33h-51.15z"/><path fill="url(#linear-gradient-44)" d="M551.82 71.04h51.15v3.33h-51.15z"/><path d="M-1794.69 728.16v63h-337.18a51.44 51.44 0 00-51.45 51.43h-119.83v114.52H-1701v-229z" transform="translate(2404.2 -641.4)" fill="url(#linear-gradient-45)"/><path fill="url(#linear-gradient-46)" d="M1665.04 86.76h-63.13l9.87-15.67h41.88l11.38 15.67z"/><path fill="url(#linear-gradient-47)" d="M1665.04 0h-63.13l9.87 71.09h41.88L1665.04 0z"/><path class="cls-43" d="M-1195 648.18h59.25A11.77 11.77 0 01-1124 660h-82.79a11.77 11.77 0 0111.79-11.82z" transform="translate(2404.2 -641.4)"/><path class="cls-45" d="M-1104.32 648.18h59.25A11.77 11.77 0 01-1033.3 660h-82.79a11.77 11.77 0 0111.77-11.77z" transform="translate(2404.2 -641.4)"/><path class="cls-46" d="M-956.44 648.18h59.24A11.77 11.77 0 01-885.43 660h-82.77a11.77 11.77 0 0111.77-11.77z" transform="translate(2404.2 -641.4)"/><path d="M-1195 648.18h59.25A11.77 11.77 0 01-1124 660h-82.79a11.77 11.77 0 0111.79-11.82z" transform="translate(2404.2 -641.4)" fill="url(#linear-gradient-51)"/><path d="M-1104.32 648.18h59.25A11.77 11.77 0 01-1033.3 660h-82.79a11.77 11.77 0 0111.77-11.77z" transform="translate(2404.2 -641.4)" fill="url(#linear-gradient-52)"/><path d="M-956.44 648.18h59.24A11.77 11.77 0 01-885.43 660h-82.77a11.77 11.77 0 0111.77-11.77z" transform="translate(2404.2 -641.4)" fill="url(#linear-gradient-53)"/><path class="cls-15" d="M-1331 1004a52.87 52.87 0 00-62.24-41.44 52.87 52.87 0 00-41.43 62.24 52.87 52.87 0 0062.22 41.44A52.87 52.87 0 00-1331 1004zm-53.44 53.16l2.19-24.74a18.86 18.86 0 003-.33 16.86 16.86 0 002.63-.76l11.54 22a42.83 42.83 0 01-19.32 3.82zm13.28-67a26.91 26.91 0 018.52 6.52l-7.2 5.2a17.92 17.92 0 00-4.42-3.37zm11.43 10.57a26.61 26.61 0 013.46 10l-8.82.48v-.36a18 18 0 00-1.77-4.92zm-19.21-4a17.86 17.86 0 00-5-.39l-4.88-24.37a42.64 42.64 0 0118.51 1.46zm-14.77-23.73l4.88 24.37a18.21 18.21 0 00-4.29 2.17l-17.3-17.9a42.55 42.55 0 0116.71-8.59zm-20.29 12l17.24 17.83a18.43 18.43 0 00-2.74 4.57l-24.23-5.61a43.06 43.06 0 019.73-16.74zm-10.91 21.55l24.15 5.68a18 18 0 00.23 5.63l.06.23-23.41 8.27c-.35-1.2-.66-2.41-.91-3.65a42.49 42.49 0 01-.12-16.13zm26.2 16.34a18 18 0 002.81 3.85l-15.21 19.7a42.64 42.64 0 01-11-15.2zm6.71 7a17.88 17.88 0 004.8 2l-2.19 24.8a42.66 42.66 0 01-17.83-7.15zm31.31 21.11l-11.55-22a17.8 17.8 0 003.66-3.54l21.6 12.3a42.71 42.71 0 01-13.71 13.24zm16.18-17.64l-21.6-12.29a18 18 0 001.22-5l24.84-1.34a42.67 42.67 0 01-4.46 18.58z" transform="translate(2404.2 -641.4)"/><circle class="cls-14" cx="646.71" cy="391.56" r="40.32"/><path class="cls-15" d="M-1199.86 1004a52.88 52.88 0 00-62.24-41.46 52.9 52.9 0 00-41.46 62.24 52.88 52.88 0 0062.24 41.46 52.88 52.88 0 0041.46-62.24zm-53.44 53.16l2.15-24.74a18.86 18.86 0 003-.33 17.31 17.31 0 002.64-.76l11.54 22a42.83 42.83 0 01-19.32 3.82zm13.28-67a26.87 26.87 0 018.51 6.52l-7.2 5.2a17.51 17.51 0 00-4.42-3.37zm11.43 10.57a26.59 26.59 0 013.45 10l-8.81.48a.74.74 0 00-.06-.36 18 18 0 00-1.76-4.92zm-19.21-4a17.86 17.86 0 00-5-.39l-4.89-24.37a42.68 42.68 0 0118.49 1.42zm-14.75-23.73l4.89 24.37a18.28 18.28 0 00-4.3 2.17l-17.3-17.9a42.55 42.55 0 0116.71-8.59zm-20.33 12l17.25 17.83a18.47 18.47 0 00-2.75 4.57l-24.23-5.61a43.06 43.06 0 019.73-16.74zm-10.91 21.55l24.16 5.68a18 18 0 00.23 5.63v.23l-23.41 8.27c-.35-1.2-.66-2.41-.91-3.65a42.69 42.69 0 01-.07-16.13zm26.2 16.34a18 18 0 002.81 3.85l-15.22 19.66a42.64 42.64 0 01-11-15.2zm6.72 7a17.74 17.74 0 004.8 2l-2.2 24.8a42.85 42.85 0 01-17.83-7.15zm31.3 21.11l-11.54-22a18 18 0 003.65-3.54l21.61 12.3a43 43 0 01-13.72 13.24zm16.19-17.64l-21.59-12.29a18 18 0 001.23-5l24.83-1.34a42.51 42.51 0 01-4.47 18.58zm140.75-29.36a52.88 52.88 0 00-62.24-41.46 52.9 52.9 0 00-41.46 62.24 52.88 52.88 0 0062.24 41.46 52.88 52.88 0 0041.46-62.24zm-53.44 53.16l2.19-24.74a18.86 18.86 0 003-.33 17.31 17.31 0 002.64-.76l11.54 22a42.83 42.83 0 01-19.32 3.82zm13.28-67a26.87 26.87 0 018.51 6.52l-7.2 5.2a17.46 17.46 0 00-4.41-3.37zm11.43 10.57a26.59 26.59 0 013.45 10l-8.81.48a.74.74 0 00-.06-.36 18 18 0 00-1.76-4.92zm-19.21-4a17.86 17.86 0 00-5-.39l-4.89-24.37a42.67 42.67 0 0118.52 1.46zm-14.75-23.73l4.89 24.37a18.28 18.28 0 00-4.3 2.17l-17.3-17.9a42.69 42.69 0 0116.71-8.59zm-20.32 12l17.24 17.83a18.47 18.47 0 00-2.75 4.57l-24.23-5.61a42.89 42.89 0 019.74-16.74zm-10.92 21.55l24.16 5.68a18 18 0 00.23 5.63v.23l-23.41 8.27c-.34-1.2-.66-2.41-.9-3.65a42.69 42.69 0 01-.08-16.13zm26.2 16.34a18 18 0 002.81 3.85l-15.25 19.62a42.64 42.64 0 01-11-15.2zm6.72 7a17.74 17.74 0 004.8 2l-2.2 24.8a42.85 42.85 0 01-17.83-7.15zm31.3 21.11l-11.54-22a17.75 17.75 0 003.65-3.54l21.61 12.3a42.84 42.84 0 01-13.72 13.24zm16.19-17.64l-21.59-12.29a17.62 17.62 0 001.23-5l24.83-1.34a42.54 42.54 0 01-4.47 18.67zM-942 1004a52.88 52.88 0 00-62.24-41.46 52.9 52.9 0 00-41.46 62.24 52.88 52.88 0 0062.24 41.46A52.88 52.88 0 00-942 1004zm-53.44 53.16l2.19-24.74a18.86 18.86 0 003-.33 17.31 17.31 0 002.64-.76l11.54 22a42.83 42.83 0 01-19.32 3.82zm13.28-67a26.87 26.87 0 018.51 6.52l-7.2 5.2a17.46 17.46 0 00-4.41-3.37zm11.43 10.57a26.59 26.59 0 013.45 10l-8.81.48a.74.74 0 00-.06-.36 18 18 0 00-1.76-4.92zm-19.21-4a17.86 17.86 0 00-5-.39l-4.91-24.34a42.67 42.67 0 0118.52 1.46zm-14.77-23.73l4.89 24.37a18.28 18.28 0 00-4.3 2.17l-17.3-17.9a42.55 42.55 0 0116.71-8.59zm-20.29 12l17.24 17.83a18.47 18.47 0 00-2.75 4.57l-24.23-5.61a42.89 42.89 0 019.74-16.74zm-10.92 21.55l24.16 5.68a18 18 0 00.23 5.63.45.45 0 000 .23l-23.36 8.27c-.35-1.2-.66-2.41-.91-3.65a42.9 42.9 0 01-.12-16.13zm26.2 16.34a18 18 0 002.81 3.85l-15.21 19.7a42.64 42.64 0 01-11-15.2zm6.72 7a17.88 17.88 0 004.8 2l-2.2 24.8a42.85 42.85 0 01-17.83-7.15zm31.3 21.11l-11.54-22a18 18 0 003.65-3.54l21.61 12.3a42.84 42.84 0 01-13.75 13.24zm16.19-17.64l-21.61-12.29a17.62 17.62 0 001.23-5l24.83-1.34a42.66 42.66 0 01-4.45 18.58zm147.76-29.36A52.87 52.87 0 00-870 962.57a52.87 52.87 0 00-41.44 62.24 52.87 52.87 0 0062.24 41.45 52.87 52.87 0 0041.45-62.26zm-53.4 53.16l2.19-24.74a18.86 18.86 0 003-.33 17.31 17.31 0 002.64-.76l11.54 22a42.83 42.83 0 01-19.32 3.82zm13.28-67a26.87 26.87 0 018.51 6.52l-7.2 5.2a17.46 17.46 0 00-4.41-3.37zm11.43 10.57a26.59 26.59 0 013.45 10l-8.81.48a.74.74 0 00-.06-.36 18 18 0 00-1.76-4.92zm-19.21-4a17.86 17.86 0 00-5-.39l-4.89-24.34a42.67 42.67 0 0118.54 1.44zM-870.4 973l4.89 24.37a18.28 18.28 0 00-4.3 2.17l-17.3-17.9a42.73 42.73 0 0116.67-8.64zm-20.32 12l17.24 17.83a18.61 18.61 0 00-2.72 4.53l-24.27-5.61a42.89 42.89 0 019.74-16.74zm-10.92 21.55l24.16 5.68a18 18 0 00.23 5.63.45.45 0 000 .23l-23.36 8.27c-.34-1.2-.66-2.41-.9-3.65a42.69 42.69 0 01-.17-16.13zm26.2 16.34a18 18 0 002.81 3.85l-15.25 19.62a42.64 42.64 0 01-11-15.2zm6.72 7a17.74 17.74 0 004.8 2l-2.2 24.8a42.85 42.85 0 01-17.83-7.15zm31.3 21.11l-11.58-22a17.75 17.75 0 003.65-3.54l21.61 12.3a42.77 42.77 0 01-13.72 13.24zm16.22-17.64l-21.59-12.29a17.62 17.62 0 001.23-5l24.83-1.34a42.69 42.69 0 01-4.51 18.58zm-936.29-34.82a34.42 34.42 0 00-34.43 34.41 34.43 34.43 0 0034.41 34.43 34.41 34.41 0 0034.43-34.41 34.43 34.43 0 00-34.41-34.43zm0 62.19a27.78 27.78 0 01-27.78-27.78 27.78 27.78 0 0127.78-27.78 27.78 27.78 0 0127.78 27.78 27.78 27.78 0 01-27.78 27.78z" transform="translate(2404.2 -641.4)"/><rect class="cls-15" x="635.21" y="376.56" width="23" height="30" rx="5.51"/><circle class="cls-14" cx="646.71" cy="391.56" r="9"/><circle class="cls-14" cx="-1903.96" cy="1032.98" r="40.32" transform="rotate(-71.56 -1146.884 -955.628)"/><path class="cls-15" d="M-1904 998.54a34.42 34.42 0 00-34.42 34.42 34.42 34.42 0 0034.42 34.42 34.42 34.42 0 0034.42-34.42 34.42 34.42 0 00-34.42-34.42zm0 62.19a27.79 27.79 0 01-27.77-27.79 27.78 27.78 0 0127.79-27.77 27.78 27.78 0 0127.78 27.83 27.78 27.78 0 01-27.78 27.78z" transform="translate(2404.2 -641.4)"/><rect class="cls-15" x="488.72" y="376.56" width="23" height="30" rx="5.51"/><circle class="cls-14" cx="500.22" cy="391.56" r="9"/><path class="cls-14" d="M168.89 347.92h101.39v68.34H168.89z"/><circle class="cls-14" cx="294.22" cy="391.56" r="40.32"/><path class="cls-15" d="M-2110 998.54a34.42 34.42 0 00-34.42 34.42 34.42 34.42 0 0034.42 34.42 34.42 34.42 0 0034.42-34.42 34.42 34.42 0 00-34.42-34.42zm0 62.19a27.79 27.79 0 01-27.77-27.79 27.78 27.78 0 0127.79-27.77 27.78 27.78 0 0127.78 27.83 27.78 27.78 0 01-27.78 27.78z" transform="translate(2404.2 -641.4)"/><rect class="cls-15" x="282.72" y="376.56" width="23" height="30" rx="5.51"/><circle class="cls-14" cx="294.22" cy="391.56" r="9"/><circle class="cls-14" cx="147.72" cy="391.56" r="40.32"/><path class="cls-15" d="M-2256.48 998.54a34.42 34.42 0 00-34.43 34.41 34.43 34.43 0 0034.41 34.43 34.41 34.41 0 0034.43-34.41 34.42 34.42 0 00-34.41-34.43zm0 62.19a27.78 27.78 0 01-27.78-27.78 27.78 27.78 0 0127.78-27.78 27.78 27.78 0 0127.78 27.83 27.78 27.78 0 01-27.78 27.78z" transform="translate(2404.2 -641.4)"/><rect class="cls-15" x="136.22" y="376.56" width="23" height="30" rx="5.51"/><circle class="cls-14" cx="147.72" cy="391.56" r="9"/><path fill="url(#linear-gradient-54)" d="M703.16 15.86h50.78v20.45h-50.78z"/><path fill="url(#linear-gradient-55)" d="M1287.8 16.92h83.1v2.84h-83.1z"/><path fill="url(#linear-gradient-56)" d="M1435.84 16.92h83.1v2.84h-83.1z"/><path fill="url(#linear-gradient-57)" d="M1197.27 16.92h83.1v2.84h-83.1z"/><path class="cls-18" d="M974 152.84h770.11v4.14H974zm0 38.49h770.11v4.14H974z"/><g id="Layer_5-2" data-name="Layer 5"><path class="cls-18" d="M988.75 363.81h532.75v9.63H988.75zm464.53-23.72h176.93v8.4h-176.93zm82.92 36.33h94.01v5.36h-94.01z"/><path class="cls-18" d="M1534.58 306.71h8.15v76.39h-8.15z"/><path class="cls-18" d="M1536.2 314.91h94.01v2.68h-94.01zm-109.25-12.41h114.79v5.54h-114.79z"/><circle class="cls-18" cx="990.03" cy="368.62" r="10.01"/><circle class="cls-18" cx="1122.47" cy="368.62" r="10.01"/><circle class="cls-18" cx="1254.9" cy="368.62" r="10.01"/><circle class="cls-18" cx="1387.33" cy="368.62" r="10.01"/><circle class="cls-18" cx="1287.53" cy="388.63" r="10.01"/><circle class="cls-18" cx="1451.63" cy="344.9" r="10.01"/><circle class="cls-18" cx="1519.77" cy="368.62" r="10.01"/><path class="cls-18" transform="rotate(-14.44 -2365.696 -8799.61)" d="M-1118.35 1006.51h164.1v7.06h-164.1z"/><path class="cls-18" d="M1519.77 334.89h40.42v20.01h-40.42z"/><path class="cls-18" d="M1527.67 350.69h22.8v20.56h-22.8zm-96.13-75.62h12.8v31.64h-12.8z"/><path class="cls-18" transform="rotate(-20.42 -1533.713 -6032.31)" d="M-959.34 941.66h8.26v42.08h-8.26z"/><path class="cls-18" transform="rotate(-20.42 -1545.555 -6092.912)" d="M-971.19 883.32h8.26v37.57h-8.26z"/><path class="cls-18" d="M1532.53 371.25h13.46v15.7h-13.46z"/></g></g></g></svg>