<svg width="37" height="37" fill="none" xmlns="http://www.w3.org/2000/svg"><path d="M33.67 23.65h-7.63v6.77h7.63v-6.77z" fill="url(#paint0_linear)"/><path d="M15.55 21.74H4.2v10.49h11.35V21.74z" fill="url(#paint1_linear)"/><path d="M36.15 21.74H31v10.49h5.15V21.74z" fill="url(#paint2_linear)"/><path fill-rule="evenodd" clip-rule="evenodd" d="M15.55 19.27V0h6.29v19.27a8.87 8.87 0 11-11.44 5.15 8.38 8.38 0 015.15-5.15z" fill="url(#paint3_linear)"/><path fill-rule="evenodd" clip-rule="evenodd" d="M0 18.4h11.83l2.86-3.05h8.2l2.58 3.05h10.68V2.38H0V18.4z" fill="url(#paint4_linear)"/><path d="M18.6 34.23a6.77 6.77 0 100-13.54 6.77 6.77 0 000 13.54z" fill="url(#paint5_radial)"/><defs><linearGradient id="paint0_linear" x1="29.86" y1="23.61" x2="29.86" y2="30.4" gradientUnits="userSpaceOnUse"><stop offset=".3" stop-color="#E3CFCC"/><stop offset="1" stop-color="#B07E6E"/></linearGradient><linearGradient id="paint1_linear" x1="-6669.15" y1="39767.5" x2="-6669.15" y2="39878" gradientUnits="userSpaceOnUse"><stop offset=".3" stop-color="#E3CFCC"/><stop offset="1" stop-color="#B07E6E"/></linearGradient><linearGradient id="paint2_linear" x1="-3119.05" y1="39767.5" x2="-3119.05" y2="39878" gradientUnits="userSpaceOnUse"><stop offset=".3" stop-color="#E3CFCC"/><stop offset="1" stop-color="#B07E6E"/></linearGradient><linearGradient id="paint3_linear" x1="18.7" y1="34.25" x2="18.7" y2="-.68" gradientUnits="userSpaceOnUse"><stop offset=".43" stop-color="#806664"/><stop offset=".44" stop-color="#967D7B"/><stop offset=".45" stop-color="#B19A97"/><stop offset=".46" stop-color="#C4AEAC"/><stop offset=".47" stop-color="#D0BBB8"/><stop offset=".48" stop-color="#D4BFBC"/><stop offset=".56" stop-color="#806664"/><stop offset=".82" stop-color="#E3CFCC"/><stop offset=".95" stop-color="#B18070"/><stop offset=".97" stop-color="#E3CFCC"/></linearGradient><linearGradient id="paint4_linear" x1="18.08" y1="17.42" x2="18.08" y2="2.07" gradientUnits="userSpaceOnUse"><stop offset=".82" stop-color="#D7BCB6"/><stop offset=".94" stop-color="#B48576"/><stop offset=".95" stop-color="#CFAFA7"/><stop offset=".96" stop-color="#DEC8C3"/><stop offset=".97" stop-color="#E2CDCA"/><stop offset=".99" stop-color="#E3CFCC"/></linearGradient><radialGradient id="paint5_radial" cx="0" cy="0" r="1" gradientUnits="userSpaceOnUse" gradientTransform="rotate(-2.411 575.633 -479.434) scale(6.76999)"><stop stop-color="#DABDB9"/><stop offset=".53" stop-color="#D8BBB7"/><stop offset=".72" stop-color="#D1B5B1"/><stop offset=".85" stop-color="#C6ABA7"/><stop offset=".88" stop-color="#C2A8A4"/><stop offset=".89" stop-color="#B79D98"/><stop offset=".91" stop-color="#9E847D"/></radialGradient></defs></svg>