<svg fill="none" height="37" width="37" xmlns="http://www.w3.org/2000/svg" xmlns:xlink="http://www.w3.org/1999/xlink"><linearGradient id="a"><stop offset=".3" stop-color="#e3cfcc"/><stop offset="1" stop-color="#b07e6e"/></linearGradient><linearGradient id="b" gradientUnits="userSpaceOnUse" x1="29.86" x2="29.86" xlink:href="#a" y1="23.61" y2="30.4"/><linearGradient id="c" gradientUnits="userSpaceOnUse" x1="-6669.15" x2="-6669.15" xlink:href="#a" y1="39767.5" y2="39878"/><linearGradient id="d" gradientUnits="userSpaceOnUse" x1="-3119.05" x2="-3119.05" xlink:href="#a" y1="39767.5" y2="39878"/><linearGradient id="e" gradientUnits="userSpaceOnUse" x1="18.7" x2="18.7" y1="34.25" y2="-.68"><stop offset=".43" stop-color="#806664"/><stop offset=".44" stop-color="#967d7b"/><stop offset=".45" stop-color="#b19a97"/><stop offset=".46" stop-color="#c4aeac"/><stop offset=".47" stop-color="#d0bbb8"/><stop offset=".48" stop-color="#d4bfbc"/><stop offset=".56" stop-color="#806664"/><stop offset=".82" stop-color="#e3cfcc"/><stop offset=".95" stop-color="#b18070"/><stop offset=".97" stop-color="#e3cfcc"/></linearGradient><linearGradient id="f" gradientUnits="userSpaceOnUse" x1="18.08" x2="18.08" y1="17.42" y2="2.07"><stop offset=".82" stop-color="#d7bcb6"/><stop offset=".94" stop-color="#b48576"/><stop offset=".95" stop-color="#cfafa7"/><stop offset=".96" stop-color="#dec8c3"/><stop offset=".97" stop-color="#e2cdca"/><stop offset=".99" stop-color="#e3cfcc"/></linearGradient><radialGradient id="g" cx="0" cy="0" gradientTransform="rotate(-2.411 575.633 -479.434) scale(6.76999)" gradientUnits="userSpaceOnUse" r="1"><stop offset="0" stop-color="#dabdb9"/><stop offset=".53" stop-color="#d8bbb7"/><stop offset=".72" stop-color="#d1b5b1"/><stop offset=".85" stop-color="#c6aba7"/><stop offset=".88" stop-color="#c2a8a4"/><stop offset=".89" stop-color="#b79d98"/><stop offset=".91" stop-color="#9e847d"/></radialGradient><path d="M33.67 23.65h-7.63v6.77h7.63z" fill="url(#b)"/><path d="M15.55 21.74H4.2v10.49h11.35z" fill="url(#c)"/><path d="M36.15 21.74H31v10.49h5.15z" fill="url(#d)"/><path clip-rule="evenodd" d="M15.55 19.27V0h6.29v19.27a8.87 8.87 0 11-11.44 5.15 8.38 8.38 0 015.15-5.15z" fill="url(#e)" fill-rule="evenodd"/><path clip-rule="evenodd" d="M0 18.4h11.83l2.86-3.05h8.2l2.58 3.05h10.68V2.38H0z" fill="url(#f)" fill-rule="evenodd"/><path d="M18.6 34.23a6.77 6.77 0 100-13.54 6.77 6.77 0 000 13.54z" fill="url(#g)"/></svg>