<svg height="17.08" width="29.94" xmlns="http://www.w3.org/2000/svg"><path d="M29.79 15.43l-.1-.19a15.3 15.3 0 00-3-3.45c-.66-.64-1.08-1.06-1.26-1.28a1.2 1.2 0 01-.22-1.26 11.69 11.69 0 011.4-2.05l1-1.32q2.7-3.58 2.34-4.58l-.1-.16a.92.92 0 00-.48-.26 2.45 2.45 0 00-1 0h-4.49a.66.66 0 00-.31 0h-.34a.61.61 0 00-.17.16.92.92 0 00-.16.27 24.75 24.75 0 01-1.67 3.51c-.38.64-.74 1.2-1.06 1.68a7.6 7.6 0 01-.81 1 6.63 6.63 0 01-.59.54c-.18.13-.31.19-.41.17l-.26-.06a1.07 1.07 0 01-.35-.38 1.75 1.75 0 01-.18-.61q0-.37-.06-.63V1.88a3.39 3.39 0 000-.71 2.91 2.91 0 00-.16-.5.89.89 0 00-.32-.37 1.72 1.72 0 00-.53-.21 9.87 9.87 0 00-2.1-.21 10.24 10.24 0 00-3.73.38 2.14 2.14 0 00-.59.47c-.19.22-.21.35-.08.37a1.91 1.91 0 011.33.67l.09.19a2.85 2.85 0 01.22.71 7.72 7.72 0 01.14 1.14 12.6 12.6 0 010 1.95q-.08.81-.15 1.26a2.18 2.18 0 01-.21.74 1.89 1.89 0 01-.19.34.3.3 0 01-.07.08 1.25 1.25 0 01-.42.08 1 1 0 01-.53-.22 3.91 3.91 0 01-.65-.6 8.49 8.49 0 01-.76-1.07q-.42-.69-.87-1.62l-.25-.45c-.16-.3-.37-.72-.64-1.27s-.51-1.1-.72-1.62a1 1 0 00-.37-.5h-.08a.79.79 0 00-.25-.14 1.89 1.89 0 00-.36-.1H.99a1.08 1.08 0 00-.89.3l-.06.09a.52.52 0 000 .25 1.06 1.06 0 00.1.42q.93 2.21 2 4.24c.73 1.37 1.37 2.46 1.91 3.29a40.673 40.673 0 002.77 3.78c.18.21.32.36.43.46l.39.38a8.12 8.12 0 001.1.89 17 17 0 001.6 1 8.52 8.52 0 002 .83 7.24 7.24 0 002.28.26h1.79a1.23 1.23 0 00.83-.35l.06-.07a1.41 1.41 0 00.12-.29 1.88 1.88 0 00.05-.43 5.64 5.64 0 01.1-1.21 3.15 3.15 0 01.27-.81 1.9 1.9 0 01.6-.69h.12a1 1 0 01.88.24 5.45 5.45 0 011 .91c.29.35.65.76 1.06 1.2a7.58 7.58 0 001.09 1l.32.19a3.52 3.52 0 00.81.34 1.69 1.69 0 00.87.08l4-.06a1.79 1.79 0 00.92-.2.75.75 0 00.39-.43 1.17 1.17 0 000-.53 2 2 0 00-.11-.32z" fill="#776859"/></svg>