<svg height="22.2" width="24.82" xmlns="http://www.w3.org/2000/svg"><path d="M19.98 22.21a1 1 0 01-.55-.17l-5.41-3.67a1.44 1.44 0 00-1.65 0l-2.53 1.82a1 1 0 01-.91.13 1 1 0 01-.61-.68l-1.5-5.65a1.43 1.43 0 00-.87-1l-5.32-2a1 1 0 010-1.83L23.46.07a1.32 1.32 0 01.33-.08h.12a1.06 1.06 0 01.63.28v.06a1 1 0 01.24.57v.27L20.95 21.4a1 1 0 01-.59.72 1 1 0 01-.38.09zm-6.24-6.41l3.75 2.54a1.43 1.43 0 002.21-.91l1.75-9.17a1.43 1.43 0 00-2.4-1.3l-6.31 6.07a1.43 1.43 0 00.19 2.22l.78.53zm-4.63-.84l.74 2.82 1.61-1.15-2.1-1.43a.82.82 0 01-.23-.24zm-2-3.58a2.35 2.35 0 011.47 1.64l.34 1.27a1 1 0 01.3-.61l5.05-4.86a1.44 1.44 0 00-1.53-2.37L7.13 8.7a1.44 1.44 0 000 2.7z" fill="#776859"/></svg>