<svg height="27.54" width="16.54" xmlns="http://www.w3.org/2000/svg"><g fill="#776859"><path d="M6.91 19.39a10.64 10.64 0 01-5.7-2 7.26 7.26 0 01-.61-.49 1.62 1.62 0 01-.22-2.3 1.63 1.63 0 012.16-.49 3.64 3.64 0 01.47.28 9.38 9.38 0 0010.38.1 2.72 2.72 0 011-.53 1.57 1.57 0 011.81.73 1.53 1.53 0 01-.11 2 8.24 8.24 0 01-3 2 14.12 14.12 0 01-3.43.77l.37.4 4.76 4.77a1.57 1.57 0 01.35 1.86 1.89 1.89 0 01-1.76 1.1 1.76 1.76 0 01-1.11-.57c-1.2-1.21-2.42-2.39-3.59-3.62-.34-.35-.51-.29-.81 0-1.2 1.24-2.42 2.46-3.65 3.68a1.55 1.55 0 01-1.86.33 1.89 1.89 0 01-1.08-1.73 1.75 1.75 0 01.58-1.15l4.7-4.71z"/><path d="M8.21 13.93a7 7 0 117-6.87 7 7 0 01-7 6.87zm3.47-7a3.41 3.41 0 10-3.39 3.42 3.39 3.39 0 003.39-3.39z"/></g></svg>