<svg height="408.26" width="5415.91" xmlns="http://www.w3.org/2000/svg" xmlns:xlink="http://www.w3.org/1999/xlink"><linearGradient id="d" gradientUnits="userSpaceOnUse" x1="1709.42" x2="1709.42" y1="383.19" y2="262.46"><stop offset="0" stop-color="#594e41"/><stop offset=".94" stop-color="#736557"/></linearGradient><linearGradient id="b" gradientTransform="matrix(1 0 -.02 -1.22 1422.87 1164.67)" gradientUnits="userSpaceOnUse" x1="15.49" x2="70.92" y1="916.2" y2="916.2"><stop offset="0" stop-color="#927e6c"/><stop offset=".08" stop-color="#5d5146"/><stop offset=".29" stop-color="#7c6b5c"/><stop offset=".71" stop-color="#4a4137"/><stop offset="1" stop-color="#927e6c"/></linearGradient><linearGradient id="a" gradientUnits="userSpaceOnUse" x1="1673.99" x2="1673.99" y1="140.92" y2="56.47"><stop offset="0" stop-color="#52483d"/><stop offset="1" stop-color="#615549"/></linearGradient><linearGradient id="h" x1="1442.02" x2="1442.02" xlink:href="#a" y1="142.19" y2="100.94"/><linearGradient id="i" gradientTransform="matrix(.51 0 0 -1 -198.63 458.37)" gradientUnits="userSpaceOnUse" x1="530.22" x2="530.22" y1="249.81" y2="208.56"><stop offset="0" stop-color="#453c33"/><stop offset="1" stop-color="#594e43"/></linearGradient><linearGradient id="j" gradientTransform="matrix(.5 0 0 -1 -262.55 458.37)" gradientUnits="userSpaceOnUse" x1="540.66" x2="540.66" y1="249.81" y2="208.56"><stop offset="0" stop-color="#5e5346"/><stop offset="1" stop-color="#706254"/></linearGradient><linearGradient id="k" x1="1413.29" x2="1470.26" xlink:href="#b" y1="98.09" y2="98.09"/><linearGradient id="l" gradientTransform="matrix(.04 0 0 -1 -215.81 886.18)" gradientUnits="userSpaceOnUse" x1="4549.08" x2="4549.08" y1="490.81" y2="395.37"><stop offset="0" stop-color="#594e42"/><stop offset="1" stop-color="#63574b"/></linearGradient><linearGradient id="c" gradientTransform="matrix(.08 0 0 1 1458.33 -107.62)" gradientUnits="userSpaceOnUse" x1="-1530.62" x2="-1530.62" y1="476.25" y2="404.65"><stop offset="0" stop-color="#63574a"/><stop offset="1" stop-color="#706254"/></linearGradient><linearGradient id="m" x1="17744.1" x2="17744.1" xlink:href="#c" y1="476.25" y2="404.65"/><linearGradient id="n" gradientTransform="rotate(180 712.61 295.845)" gradientUnits="userSpaceOnUse" x1="712.61" x2="712.61" y1="397.32" y2="194.36"><stop offset="0" stop-color="#594e41"/><stop offset=".89" stop-color="#706255"/><stop offset=".91" stop-color="#50463c"/><stop offset=".96" stop-color="#7a6b5c"/><stop offset="1" stop-color="#c4ab93"/></linearGradient><linearGradient id="o" x1="2127.34" x2="2127.34" xlink:href="#d" y1="383.19" y2="288.7"/><linearGradient id="p" x1="2556.46" x2="2556.46" xlink:href="#d" y1="383.19" y2="100.67"/><linearGradient id="q" gradientUnits="userSpaceOnUse" x1="2203.62" x2="2203.62" y1="138.94" y2="85.03"><stop offset=".43" stop-color="#756758"/><stop offset="1" stop-color="#c7ab94"/></linearGradient><linearGradient id="e" gradientUnits="userSpaceOnUse" x1="84.49" x2="84.49" y1="144.77" y2="129.07"><stop offset="0" stop-color="#695a4e"/><stop offset=".53" stop-color="#5a4f43"/><stop offset="1" stop-color="#c7ab94"/></linearGradient><linearGradient id="r" x1="880.38" x2="880.38" xlink:href="#e" y1="144.77" y2="129.07"/><linearGradient id="s" x1="-16372.99" x2="-16372.99" xlink:href="#c" y1="476.25" y2="404.65"/><linearGradient id="t" x1="-2196.91" x2="-2196.91" xlink:href="#c" y1="476.25" y2="404.65"/><linearGradient id="u" x1="687.63" x2="687.63" xlink:href="#d" y1="368.63" y2="297.03"/><linearGradient id="v" x1="4197.47" x2="4197.47" xlink:href="#e" y1="144.77" y2="129.07"/><linearGradient id="w" x1="4993.36" x2="4993.36" xlink:href="#e" y1="144.77" y2="129.07"/><linearGradient id="x" x1="33177.83" x2="33177.83" xlink:href="#c" y1="476.25" y2="404.65"/><linearGradient id="y" x1="47353.91" x2="47353.91" xlink:href="#c" y1="476.25" y2="404.65"/><linearGradient id="z" x1="4800.61" x2="4800.61" xlink:href="#d" y1="368.63" y2="297.03"/><linearGradient id="f" gradientTransform="matrix(.93 -.36 .36 .93 1481.72 863.19)" gradientUnits="userSpaceOnUse" x1="2518.21" x2="2518.21" y1="334.67" y2="261.57"><stop offset="0" stop-color="#695c4d"/><stop offset=".95" stop-color="#7a6b5c"/><stop offset=".96" stop-color="#473e35"/><stop offset=".96" stop-color="#7a6b5c"/><stop offset="1" stop-color="#c4ab93"/></linearGradient><linearGradient id="g" gradientTransform="matrix(.93 -.36 .36 .93 1481.72 863.19)" gradientUnits="userSpaceOnUse" x1="2643.04" x2="2631.95" y1="229.8" y2="210.88"><stop offset=".03" stop-color="#695a4e"/><stop offset=".53" stop-color="#5a4f43"/><stop offset="1" stop-color="#c7ab94"/></linearGradient><linearGradient id="A" gradientTransform="matrix(-1 0 0 1 4050.57 -107.62)" x1="837.73" x2="837.73" xlink:href="#f" y1="361.94" y2="288.85"/><linearGradient id="B" gradientTransform="matrix(-1 0 0 1 4050.57 -107.62)" x1="962.56" x2="951.47" xlink:href="#g" y1="257.07" y2="238.16"/><linearGradient id="C" x1="18358.6" x2="18358.6" xlink:href="#c" y1="476.05" y2="404.45"/><linearGradient id="D" x1="32534.68" x2="32534.68" xlink:href="#c" y1="476.05" y2="404.45"/><linearGradient id="E" gradientUnits="userSpaceOnUse" x1="3570.54" x2="3570.54" y1="383.19" y2="125.39"><stop offset="0" stop-color="#594e41"/><stop offset=".95" stop-color="#706255"/><stop offset=".96" stop-color="#473e35"/><stop offset=".96" stop-color="#7a6b5c"/><stop offset="1" stop-color="#c4ab93"/></linearGradient><circle cx="1573.86" cy="350.05" fill="#423a31" r="57.45"/><circle cx="1695.88" cy="350.05" fill="#423a31" r="57.45"/><circle cx="1820.27" cy="350.05" fill="#423a31" r="57.45"/><circle cx="1941.34" cy="350.05" fill="#423a31" r="57.45"/><circle cx="2335.36" cy="350.05" fill="#423a31" r="57.45"/><circle cx="2481.2" cy="350.05" fill="#423a31" r="57.45"/><circle cx="2678.21" cy="350.05" fill="#423a31" r="57.45"/><circle cx="2821.49" cy="350.05" fill="#423a31" r="57.45"/><path d="M1384.75 140.95h649.34v121.51h-649.34z" fill="#877565"/><path d="M1384.75 262.46h649.34V383.2h-649.34z" fill="url(#d)"/><path d="M1470.53 0h-55.44l10.2 95.24h36.77z" fill="url(#b)"/><path d="M1535.74 58.2v82.72h276.5V88.86l-53.21-32.39z" fill="url(#a)"/><path d="M1419.71 100.94h44.64v41.24h-44.64z" fill="url(#h)"/><path d="M62.84 208.56h22.98v41.24H62.84z" fill="url(#i)" transform="rotate(180 775.08 175.375)"/><path d="M-4.06 208.56H18.2v41.24H-4.06z" fill="url(#j)" transform="rotate(180 707.82 175.375)"/><path d="M1413.29 95.19h56.97v5.79h-56.97z" fill="url(#k)"/><path d="M-43.28 395.37h26.52v95.44h-26.52z" fill="url(#l)" transform="rotate(180 670.735 389.28)"/><path d="M1304.33 297.03h53.9v71.6h-53.9z" fill="url(#c)"/><path d="M2904.23 297.03h53.9v71.6h-53.9z" fill="url(#m)"/><path d="M632.58 194.36h160.07v202.96H632.58z" fill="url(#n)" transform="rotate(180 1413.365 242.035)"/><path d="M2220.59 308.62h-22.19V288.7h-164.31v94.49h164.31v-41.77h22.19z" fill="url(#o)"/><path d="M2111.49 136.28h34.16v50.1h-34.16zm-536.51 71.01h39.8v27.36h-39.8zm-132.08 92h39.8v20.04h-39.8zm89.26.91h27.96v50.1h-27.96zm501.93-37.74h-649.34m169-120.27v120.27m223.16-120.27v120.27m-255.95 0v120.73m241.86-120.73v116.99m271.27-238.5v242.24m0-93.49h161" fill="none" stroke="#473e35" stroke-miterlimit="10"/><path d="M2420.9 158.69v-58.02h-212.22v282.52h695.55v-224.5z" fill="url(#p)"/><path d="M2310.32 100.67v282.52m-101.64-250.76h212.22m0 26.26h-212.22m695.55 60.76h-593.91m593.91 88.52h-695.55m24.99-117.88h54.15v107.38h-54.15zm94.8 151.54h39.58v29.07h-39.58zm128.76 0h39.58v29.07h-39.58zm209.3 0h39.58v29.07h-39.58zm131.29 0h39.58v29.07h-39.58z" fill="none" stroke="#473e35" stroke-miterlimit="10"/><path d="M2420.9 107.53h353.16v51.17H2420.9z" fill="#877465"/><path d="M2420.9 126.9h353.15m-353.15 19.4h353.15" fill="none" stroke="#473e35" stroke-miterlimit="10"/><path d="M2184.23 85H2223v37a16.92 16.92 0 01-16.92 16.92h-21.85V85z" fill="url(#q)"/><path d="M1165.36 316.94a45.65 45.65 0 00-45.52 42.24h-68.33a45.65 45.65 0 00-45.52-42.24 45.67 45.67 0 00-45.67 45.66 45.67 45.67 0 0045.67 45.66 45.66 45.66 0 0041.12-25.79l13.83 9.22h53.4l11.45-6.39a45.61 45.61 0 0039.61 23 45.66 45.66 0 0045.66-45.66 45.66 45.66 0 00-45.7-45.7zm-791.3 0a45.65 45.65 0 00-45.55 42.24h-68.37a45.65 45.65 0 00-45.52-42.24 45.66 45.66 0 00-45.66 45.66 45.66 45.66 0 0045.66 45.66 45.66 45.66 0 0041.12-25.79l13.83 9.22h53.4l11.45-6.39a45.61 45.61 0 0039.61 23 45.66 45.66 0 0045.66-45.66 45.66 45.66 0 00-45.63-45.7zm-1.05-132.41H209.26v-26.68h149.97z" fill="#423a31"/><path d="M0 129.07v12.56l159.04 3.14 9.94-15.7z" fill="url(#e)"/><path d="M168.98 125.94l-13.6 22.49v13.6h40.8l2.62-36.09z" fill="#7a6b5c"/><path d="M373.01 110.24l-158 3.14-11.09 6.8-5.12 5.76-6.28 10.98v11.51l3.66 13.6 7.74 7.85 5.34 3.66h73.5v-9.41h123.06z" fill="#736557"/><path d="M1168.9 184.53h-163.75v-26.68h149.97z" fill="#423a31"/><path d="M795.89 129.07v12.56l159.04 3.14 9.94-15.7z" fill="url(#r)"/><path d="M964.87 125.94l-13.6 22.49v13.6h40.8l2.62-36.09z" fill="#7a6b5c"/><path d="M1168.9 110.24l-158 3.14-11.09 6.8-5.12 5.76-6.28 10.98v11.51l3.66 13.6 7.74 7.85 5.34 3.66h73.5v-9.41h123.06z" fill="#736557"/><path d="M687.63 168.76h-55.41l23.82-59.18h31.59z" fill="#94806e"/><path d="M717.38 109.58h-29.75v59.18h52.19" fill="#8a7766"/><path d="M72.33 297.03h53.9v71.6h-53.9z" fill="url(#s)"/><path d="M1249.02 297.03h53.9v71.6h-53.9z" fill="url(#t)"/><path d="M126.23 297.03h1122.79v71.6H126.23z" fill="url(#u)"/><path d="M1223.54 176.37H959.45l-7.5-9.37H426.56l-7.37 9.37H155.87l-29.64 120.66h1122.79z" fill="#877565"/><path d="M438.1 167v201.63M939.5 167v201.63m-595.18-40.67h42.79v27.76h-42.79zm-140.4 0h42.79v27.76h-42.79zm787.42 0h42.79v27.76h-42.79zm143.28 0h42.79v27.76h-42.79z" fill="none" stroke="#473e35" stroke-miterlimit="10"/><path d="M795.89 199.4h20.28v4.06h-20.28zm-238.28 0h20.28v4.06h-20.28zm102.31-79.96h17.81v4.06h-17.81zm36 0h17.81v4.06h-17.81zm4582.42 197.5a45.65 45.65 0 00-45.52 42.24h-68.37a45.61 45.61 0 10-4.4 23.29l13.83 9.22h53.4l11.45-6.39a45.66 45.66 0 1039.61-68.36zm-791.3 0a45.65 45.65 0 00-45.53 42.24h-68.37a45.61 45.61 0 10-4.4 23.29l13.83 9.22h53.4l11.45-6.39a45.66 45.66 0 1039.61-68.36zm-1.05-132.41h-163.75v-26.68h149.97z" fill="#423a31"/><path d="M4112.98 129.07v12.56l159.04 3.14 9.95-15.7z" fill="url(#v)"/><path d="M4281.97 125.94l-13.61 22.49v13.6h40.8l2.62-36.09z" fill="#7a6b5c"/><path d="M4485.99 110.24L4328 113.38l-11.09 6.8-5.13 5.76-6.28 10.98v11.51l3.66 13.6 7.75 7.85 5.33 3.66h73.51v-9.41h123.05z" fill="#736557"/><path d="M5281.88 184.53h-163.75v-26.68h149.97z" fill="#423a31"/><path d="M4908.87 129.07v12.56l159.04 3.14 9.95-15.7z" fill="url(#w)"/><path d="M5077.86 125.94l-13.61 22.49v13.6h40.81l2.61-36.09z" fill="#7a6b5c"/><path d="M5281.88 110.24l-157.99 3.14-11.09 6.8-5.13 5.76-6.28 10.98v11.51l3.67 13.6 7.74 7.85 5.33 3.66h73.51v-9.41h123.05z" fill="#736557"/><path d="M4800.61 168.76h-55.41l23.83-59.18h31.58z" fill="#94806e"/><path d="M4830.36 109.58h-29.75v59.18h52.19" fill="#8a7766"/><path d="M4185.32 297.03h53.9v71.6h-53.9z" fill="url(#x)"/><path d="M5362.01 297.03h53.9v71.6h-53.9z" fill="url(#y)"/><path d="M4239.21 297.03H5362v71.6H4239.21z" fill="url(#z)"/><path d="M5336.53 176.37h-264.1l-7.49-9.37h-525.39l-7.38 9.37h-263.32l-29.63 120.66h1122.79z" fill="#877565"/><path d="M4551.08 167v201.63M5052.49 167v201.63m-595.19-40.67h42.79v27.76h-42.79zm-140.39 0h42.79v27.76h-42.79zm787.41 0h42.79v27.76h-42.79zm143.29 0h42.79v27.76h-42.79z" fill="none" stroke="#473e35" stroke-miterlimit="10"/><path d="M4908.87 199.4h20.28v4.06h-20.28zm-238.28 0h20.28v4.06h-20.28zm102.32-79.96h17.81v4.06h-17.81zm35.99 0h17.81v4.06h-17.81z" fill="#423a31"/><path d="M3881.77 232.77l35.11-29.42 8.98 8.38 22.63-32.16 37.07 25.47-71.1 66.32z" fill="url(#f)"/><path d="M3947.54 185.66l116-148.58 9.53-19.42 10.96 8.56-15.44 16.5-73.37 104.31 5.53 4.98-33.23 45.81z" fill="url(#g)"/><path d="M3266.22 206.48l-43.41-14.62-5.32 11.08-32.78-21.71-25.25 37.21 90.37 35.88z" fill="url(#A)"/><path d="M3187.81 186.55l-162.13-96.13-15.95-14.62-7.09 11.96 20.38 9.74 106.32 70.44-3.33 6.65 47.63 30.56z" fill="url(#B)"/><path d="M4048.27 316.74a45.66 45.66 0 00-45.53 42.25h-68.36a45.61 45.61 0 10-4.4 23.28l13.82 9.22h53.41l11.44-6.39a45.66 45.66 0 1039.62-68.36zm-791.3 0a45.64 45.64 0 00-45.52 42.25h-68.37a45.61 45.61 0 10-4.4 23.28l13.83 9.22h53.4l11.44-6.39a45.66 45.66 0 1039.62-68.36z" fill="#423a31"/><path d="M2955.24 296.83h53.9v71.6h-53.9z" fill="url(#C)"/><path d="M4131.93 296.83h53.9v71.6h-53.9z" fill="url(#D)"/><path d="M3749.4 198.65v-73.26h-357.73v73.26h-382.53v184.54h1122.79V198.65z" fill="url(#E)"/><path d="M3391.67 198.65h357.73m-349.51 0v184.54m341.83-184.54v184.54m-662.94-41.08h41.43v28.11h-41.43zm153.4 0h41.43v28.11h-41.43zm638.97 0h41.43v28.11h-41.43zm-403.88-157.52h32.44v28.11h-32.44zm182.04 0h32.44v28.11h-32.44zm375.23 157.52h41.43v28.11h-41.43z" fill="none" stroke="#473e35" stroke-miterlimit="10"/><path d="M2398.88 261.25a14.72 14.72 0 003.59-4.33 18.39 18.39 0 002.44-5.17v-24h7.35v57.81h-7.35V253.9a20.65 20.65 0 01-2.31 4.64 13.73 13.73 0 01-3.72 4.06v22.93h-7.6v-57.81h7.6zm44.1 24.28h-7.18v-32.7a9.88 9.88 0 01-2.4 3 22.09 22.09 0 01-3.38 2.06v27.67h-7.35v-27.61l.83.16a15.16 15.16 0 007.2-1.77 11.88 11.88 0 005.1-5.25v-22.71h-5.78v15.36h-7.35v-16h20.31zm31.06-25.27v25.27h-20.32v-57.81h7.35v28.33a6.71 6.71 0 003.59 3.38 13.45 13.45 0 005.91 1.33 11 11 0 001.82-.21zm-6.69.67a10.16 10.16 0 01-3.84-1.32 6.26 6.26 0 01-2.44-2.16v27.42h6.28zm38.57-33.21l-.17.33a32.46 32.46 0 003.14 13.15q2.89 6.54 5.87 13.07a57 57 0 013.22 19.27v4.14a40.29 40.29 0 01-.25 4.63 27.87 27.87 0 00-.25 3.22h-7.35q0-2.72.25-6.77c.16-2.7.25-4.51.25-5.45a53.35 53.35 0 00-.83-9.83 91.1 91.1 0 00-3.06-11.15 4.58 4.58 0 00-1.81 2.11 13.33 13.33 0 00-.33 3.59v27.5h-8v-27.5a5.9 5.9 0 00-1-3.39 5.51 5.51 0 00-2.8-2.14 20 20 0 00-1.41 5.36 49.84 49.84 0 00-.49 7.19q0 4.05.45 9.37t1 11.11h-6.84c-.11-.88-.28-2.32-.5-4.34a43.08 43.08 0 01-.34-4.34v-.66q0-12.24 8.25-27.55a61.32 61.32 0 004.74-10.75 48.89 48.89 0 002-10.17zm.49 24a49.87 49.87 0 01-3.75-7.64 91.84 91.84 0 01-3.1-9.21 37.38 37.38 0 01-2.73 8.76q-2.55 5.21-3.71 7.76a10.28 10.28 0 013.22 2.23 5.23 5.23 0 011.57 3.64 1.42 1.42 0 00.78 1.48 4.33 4.33 0 001.7.33l.74.17a1.79 1.79 0 001.32-.5 1.58 1.58 0 00.5-1.15 6 6 0 013.46-5.84zm75.41 5.9a11.31 11.31 0 003.59-2.48 12.51 12.51 0 002.6-4.54v-22.88h8v57.81h-8v-32.7a7.27 7.27 0 01-1.65 2.8 12.79 12.79 0 01-4.54 3.06v26.84h-7.31v-31.79a8.67 8.67 0 01-2.48 2.69 15.28 15.28 0 01-3.63 1.86v27.24h-8.18v-27.58a6.83 6.83 0 011.16.16 7.18 7.18 0 001.32.17 15 15 0 006.85-1.57 10.29 10.29 0 005-5v-23.33h-6.77l-.17 16h-7.35v-16.66h21.64zm45.59-30.07a7.78 7.78 0 00-1.73 2.56 6.91 6.91 0 00-.58 2.65v6.27a4.26 4.26 0 00-.79-2.52 2.6 2.6 0 00-2.27-1.11 1.2 1.2 0 00-1.15.58 7.08 7.08 0 00-.62 1.94q-.3 1.36-1.28 19.61-.59 11.07-.58 12.89a5.91 5.91 0 011.57-2.31 3.19 3.19 0 012.15-1 5.43 5.43 0 015.08 2.61 14.94 14.94 0 011.52 7.42 11.73 11.73 0 01-1.17 5.06c-1.06 2.22-2.52 3.32-4.36 3.32a10.31 10.31 0 01-3.48-.41 5.27 5.27 0 01-2.14-1.9 4.13 4.13 0 01-3.66 2.31h-.41a5.15 5.15 0 01-3.91-1.74q-2.2-2.4-2.21-7.3 0-4.56 1.61-7a4.73 4.73 0 014-2.4 5.7 5.7 0 012.27.33c.47.22 1.17 1.15 2.11 2.8l.16-7h-7l-3.8-35.68h7.23l3.31 35h.28q0-7.76.42-14.29t1.43-16.43a7.84 7.84 0 011-3 2.37 2.37 0 012.06-1.28zm-17.84 48.44v.83a19.08 19.08 0 00.41 4.24q.83 3.48 2.9 3.48a6.54 6.54 0 002.84-.47 4.9 4.9 0 001.86-1.92 6 6 0 002 2 7.56 7.56 0 003 .42c.78 0 1.49-.79 2.11-2.36a14.29 14.29 0 00.92-5.19v-1.33a16.23 16.23 0 00-.49-4.48c-.55-1.83-1.49-2.74-2.81-2.74a4.1 4.1 0 00-2.6 1.32 3.36 3.36 0 00-1.28 2.15v2.89a3.65 3.65 0 001.57 2.06c1 .5 1.68.86 2.06 1.08v1.15h-8.55v-1.15a3.24 3.24 0 002.31-1.08 7.92 7.92 0 001.4-2.06v-2.89a3.24 3.24 0 00-1.2-2.36 3.64 3.64 0 00-2.51-1.11 3.08 3.08 0 00-3.18 2.2 15.8 15.8 0 00-.76 5.32zm49.94-23.04l-3.31-.33a14.21 14.21 0 00-6.07 1.28 6.48 6.48 0 00-3.62 3.48v28.2h-7.35v-57.86h20.35zm-6.69-.54v-24.03h-6.31v27.5a8.71 8.71 0 016.28-3.47zm30.34-24.69l-.33 2.15a7.66 7.66 0 00.33 2.19c.22.75.39 1.31.5 1.7q2.14 7.28 4.42 15.22a53.32 53.32 0 012.27 14.48v1.58a23.57 23.57 0 01-3.06 12.41 21.31 21.31 0 01-9.75 8.1l.34-2a6.73 6.73 0 00-.13-1.16c-.08-.44-.18-1-.29-1.57q-1-3.56-5.53-17.46a38.41 38.41 0 01-1.9-12.08 37.55 37.55 0 012.81-14.07q3.8-9.49 10.32-9.49zm-.66 53.87a18.05 18.05 0 003.68-4.55 9.43 9.43 0 00.86-4.06v-2.32q-1.93-9.6-5.49-22.59-1.53-5.55-4.66-16.22a22.69 22.69 0 00-3 5 11.63 11.63 0 00-.85 4.42v.5a38.5 38.5 0 001.36 8.32q1.37 5.5 2.77 10.88.66 2.4 2.4 7.45 2.94 8.53 2.94 13.17zm39.4-23.97a11.42 11.42 0 003.59-2.48 12.51 12.51 0 002.6-4.54v-22.88h8v57.81h-8v-32.7a7.27 7.27 0 01-1.65 2.8 12.88 12.88 0 01-4.54 3.06v26.84h-7.39v-31.79a8.8 8.8 0 01-2.48 2.69 15.36 15.36 0 01-3.64 1.86v27.24h-8.17v-27.58a6.75 6.75 0 011.15.16 7.27 7.27 0 001.33.17 15.06 15.06 0 006.85-1.57 10.29 10.29 0 005-5v-23.33h-6.78l-.16 16h-7.35v-16.66h21.64zm31.96 26.59a3.39 3.39 0 002.31-2 7 7 0 00.83-3q0-3.72-3.26-12.94a50.28 50.28 0 01-3.27-16.59q0-10 2-15.47 2.31-6.45 7-6.45 5.12 0 7.6 3.63 2.88 4.21 2.89 14.21h-7.45v-3.47a45.3 45.3 0 00-.83-10.28q-.82-3.27-2.22-3.27c-1.15 0-2 1-2.44 3.14a38.65 38.65 0 00-.7 8.18v10.41l.49.82a6.41 6.41 0 011.64-2.06 4.39 4.39 0 012.93-1.32h.33a6.39 6.39 0 014.89 2.23c2 2.25 3 5.92 3 11h-7.09a53.1 53.1 0 00-.33-7.43q-.66-3.56-2.72-3.55c-1.12 0-1.84.74-2.16 2.23a24.55 24.55 0 00-.49 5.13v2a96.54 96.54 0 00.75 9.85q.73 6.63.74 9a7.31 7.31 0 01-1.46 4.76 4.69 4.69 0 01-3 1.94l.84.17a6.5 6.5 0 003.37-1q2.7-1.49 3.79-9.37a81 81 0 00.67-11.33h6.78a27.9 27.9 0 01-4.22 15q-4.45 7.14-10.57 7.13a9.41 9.41 0 01-5-1.23 4.67 4.67 0 01-2.31-4.13 3.6 3.6 0 011.12-2.73 4 4 0 015.53 0 3.5 3.5 0 011.36 2.85c-.02 1.99-.46 3.28-1.34 3.94zm28.82.66h6v-57.15h7.36v57.15h3.79v8.76c-.88.39-1.68.77-2.39 1.15a12.07 12.07 0 00-2.48 1.8 39.87 39.87 0 00-3.3-3 7.19 7.19 0 00-4.13-1.89 1.53 1.53 0 00-1.45.9 5.39 5.39 0 00-.45 2.39v1.64h-6.53l-.16-1q0-6.81 4.54-6.81h.17a10.43 10.43 0 015 1.84q.33.16 4.46 3.11v-8.18h-17.84v-57.86h7.35z" fill="#a38d79"/></svg>