<svg version="1.1" id="Episod_7" xmlns="http://www.w3.org/2000/svg" x="0" y="0" viewBox="0 0 3788.1 441.8" xml:space="preserve"><style>.st8{fill:#3a322b}.st11{fill:#332c25}.st16{fill:#927e6c}.st22{fill:#53493e}.st32{fill:#63564a}.st43{fill:#4f453b}</style><g id="Loco"><linearGradient id="SVGID_1_" gradientUnits="userSpaceOnUse" x1="2404.131" y1="1962.69" x2="2404.131" y2="1819.18" gradientTransform="matrix(2.55 0 0 1 -5549.19 -1735.12)"><stop offset="0" stop-color="#3a322b"/><stop offset=".05" stop-color="#706254"/><stop offset=".5" stop-color="#5e5346"/><stop offset="1" stop-color="#a8917c"/></linearGradient><path fill="url(#SVGID_1_)" d="M317.5 76h527.7v179.6H317.5z"/><linearGradient id="SVGID_2_" gradientUnits="userSpaceOnUse" x1="2942.075" y1="1907.67" x2="2942.075" y2="1825.45" gradientTransform="matrix(-1 0 0 1 4358.11 -1735.12)"><stop offset="0" stop-color="#3a322b"/><stop offset=".09" stop-color="#4a4137"/><stop offset="1" stop-color="#927e6c"/></linearGradient><path fill="url(#SVGID_2_)" d="M1248.5 90.3h335.1v82.2h-335.1z"/><linearGradient id="SVGID_3_" gradientUnits="userSpaceOnUse" x1="3102.54" y1="1815.64" x2="3150.01" y2="1815.64" gradientTransform="matrix(-1 0 0 1 4358.11 -1735.12)"><stop offset="0" stop-color="#927e6c"/><stop offset=".08" stop-color="#5d5146"/><stop offset=".29" stop-color="#7c6b5c"/><stop offset=".71" stop-color="#4a4137"/><stop offset="1" stop-color="#927e6c"/></linearGradient><path fill="url(#SVGID_3_)" d="M1208.1 70.7h47.5v19.6h-47.5z"/><linearGradient id="SVGID_4_" gradientUnits="userSpaceOnUse" x1="3109.64" y1="1850.895" x2="3158.4" y2="1850.895" gradientTransform="matrix(-1 0 0 1 4358.11 -1735.12)"><stop offset=".01" stop-color="#5c5045"/><stop offset=".96" stop-color="#4a4137"/><stop offset="1" stop-color="#3a322b"/></linearGradient><path fill="url(#SVGID_4_)" d="M1199.7 83h48.8v65.5h-48.8z"/><linearGradient id="SVGID_5_" gradientUnits="userSpaceOnUse" x1="3809.435" y1="2105.16" x2="3809.435" y2="1977.45" gradientTransform="matrix(-1 0 0 1 4358.11 -1735.12)"><stop offset="0" stop-color="#52483d"/><stop offset="1" stop-color="#3a322b"/></linearGradient><path d="M65.1 244.4h216.8c8.3-2.8 17.3-2.8 25.6 0h195.3c8.3-2.8 17.3-2.8 25.6 0h306.8v5.6h220.1l-53.9 58.6h10.4v23.6h9.3v3.4h6.7v2.2h30.4v-8.3h2.6v24h-2.6v-8.3h-30.4v2.2h-6.7v3h-9.3V370h-841v-57.3H143v-57.1H36.7v-11.2h28.4zm482.2 64.2h97.3v-53h-99c13.6 14.8 14.3 37.4 1.7 53zm-220.9 0h25.1v-39.4h43.4v39.3h88.9c-12.6-15.7-11.9-38.2 1.7-53H324.8c13.5 14.9 14.2 37.5 1.6 53.1zm-80.1 0H263c-12.6-15.7-11.9-38.2 1.6-53h-18.4l.1 53z" fill="url(#SVGID_5_)"/><linearGradient id="SVGID_6_" gradientUnits="userSpaceOnUse" x1="4315.855" y1="2088.67" x2="4315.855" y2="2062.37" gradientTransform="matrix(-1 0 0 1 4358.11 -1735.12)"><stop offset="0" stop-color="#52483d"/><stop offset="1" stop-color="#3a322b"/></linearGradient><path fill="url(#SVGID_6_)" d="M6.9 329.5v8.3h9.6v-2.2h19.8v-3h7.6v-5.3h36.3v25.1H43.9v-1.6h-7.6v-3.4H16.5v-2.2H6.9v8.3H4.3v-24z"/><linearGradient id="SVGID_7_" gradientUnits="userSpaceOnUse" x1="2922.79" y1="2148.43" x2="2922.79" y2="2047.87" gradientTransform="matrix(-1 0 0 1 4358.11 -1735.12)"><stop offset="0" stop-color="#52483d"/><stop offset="1" stop-color="#3a322b"/></linearGradient><path fill="url(#SVGID_7_)" d="M1064.1 329.5v8.3h18v-2.2h19.8v-3h8.1v-19.8h591.8v14.4h56.5v5h10.5v3.4h19.7v2.2h18.1v-8.3h2.6v24h-2.6v-8.3h-18.1v2.2h-19.7v3h-10.5v25.3h-470.5v37.6h-101.4v-37.6H1110v-24.9h-8.1v-3.4h-19.8v-2.2h-18v8.3h-2.7v-24z"/><linearGradient id="SVGID_8_" gradientUnits="userSpaceOnUse" x1="3429.915" y1="1985.15" x2="3429.915" y2="1816.15" gradientTransform="matrix(-1 0 0 1 4358.11 -1735.12)"><stop offset="0" stop-color="#40372f"/><stop offset=".01" stop-color="#736356"/><stop offset=".95" stop-color="#827260"/><stop offset=".98" stop-color="#4d4239"/></linearGradient><path d="M1021.4 81v169H835V81h186.4zm-84.5 61c0 6.6 5.4 12 12 12h38.9c6.6 0 12-5.4 12-12V99c0-6.6-5.4-12-12-12h-38.9c-6.6 0-12 5.4-12 12v43zm-81 0c0 6.6 5.4 12 12 12h38.9c6.6 0 12-5.4 12-12V99c0-6.6-5.4-12-12-12h-38.9c-6.6 0-12 5.4-12 12v43z" fill="url(#SVGID_8_)"/><path class="st8" d="M1064.3 87.1h41.8V250h-41.8z"/><linearGradient id="SVGID_9_" gradientUnits="userSpaceOnUse" x1="55.41" y1="348.7" x2="55.41" y2="219.06" gradientTransform="matrix(1 0 0 -1 0 444)"><stop offset="0" stop-color="#3a322b"/><stop offset="1" stop-color="#5c5045"/></linearGradient><ellipse cx="55.4" cy="160.1" rx="55.4" ry="64.8" fill="url(#SVGID_9_)"/><path d="M101.5 130.9h8.9v8.9h-8.9zm0 57.1h8.9v8.9h-8.9z" fill="#453c34"/><path class="st11" d="M48.9 87.4v-7.7l-3.3-12.2L70.9 64l-2.1 7.8h4.9c.8 4.6-3.1 8.5-3.1 8.5v7l-6.8 5.1-2.4 1.8v5.4L69 106l4.8 4.6 19.2 6.2h15l12.8 4.6-21.7 7.7H81.4l-3.9 10v11.7l-6.2 33.3-7.7 15.5-7.7 25.5-1.6 4.7 17 3.1.8 3.9H43.5l3-34.1-3.1-7 3.9-17.8-.8-10-3-10.8v-20.2l-3.9-13.2V98.2l9.3-10.8z"/><linearGradient id="SVGID_10_" gradientUnits="userSpaceOnUse" x1="4244.655" y1="1817.85" x2="4244.655" y2="1774.17" gradientTransform="matrix(-1 0 0 1 4358.11 -1735.12)"><stop offset="0" stop-color="#3a322b"/><stop offset=".05" stop-color="#5c5045"/><stop offset=".5" stop-color="#4a4137"/><stop offset="1" stop-color="#927e6c"/></linearGradient><path fill="url(#SVGID_10_)" d="M94.1 39h38.8v43.7H94.1z"/><linearGradient id="SVGID_11_" gradientUnits="userSpaceOnUse" x1="4144.155" y1="1962.69" x2="4144.155" y2="1819.18" gradientTransform="matrix(-1 0 0 1 4358.11 -1735.12)"><stop offset="0" stop-color="#3a322b"/><stop offset=".05" stop-color="#5c5045"/><stop offset=".5" stop-color="#4a4137"/><stop offset="1" stop-color="#927e6c"/></linearGradient><path fill="url(#SVGID_11_)" d="M110.4 76h207.1v179.6H110.4z"/><linearGradient id="SVGID_12_" gradientUnits="userSpaceOnUse" x1="3411.225" y1="1818.92" x2="3411.225" y2="1755.93" gradientTransform="matrix(-1 0 0 1 4358.11 -1735.12)"><stop offset="0" stop-color="#3a322b"/><stop offset=".09" stop-color="#4a4137"/><stop offset="1" stop-color="#927e6c"/></linearGradient><path fill="url(#SVGID_12_)" d="M829.5 20.8h234.8v63H829.5z"/><linearGradient id="SVGID_13_" gradientUnits="userSpaceOnUse" x1="3205.25" y1="1818.92" x2="3205.25" y2="1755.93" gradientTransform="matrix(-1 0 0 1 4358.11 -1735.12)"><stop offset="0" stop-color="#3a322b"/><stop offset=".09" stop-color="#4a4137"/><stop offset="1" stop-color="#927e6c"/></linearGradient><path fill="url(#SVGID_13_)" d="M1099.5 20.8h106.8v63h-106.8z"/><path class="st16" d="M30.4 236.1h804.8v8.3H30.4z"/><path class="st16" d="M644.2 145.4h3.2v94.8h-3.2zm-194.1 0h3.2v94.8h-3.2z"/><linearGradient id="SVGID_14_" gradientUnits="userSpaceOnUse" x1="3833.75" y1="1970.36" x2="3833.75" y2="1811.09" gradientTransform="matrix(-1 0 0 1 4358.11 -1735.12)"><stop offset="0" stop-color="#3a322b"/><stop offset=".06" stop-color="#78685a"/><stop offset=".5" stop-color="#6e6051"/><stop offset="1" stop-color="#d2c8bd"/></linearGradient><path fill="url(#SVGID_14_)" d="M520.9 76h6.9v159.3h-6.9z"/><linearGradient id="SVGID_15_" gradientUnits="userSpaceOnUse" x1="3727.95" y1="1970.36" x2="3727.95" y2="1811.09" gradientTransform="matrix(-1 0 0 1 4358.11 -1735.12)"><stop offset="0" stop-color="#3a322b"/><stop offset=".06" stop-color="#78685a"/><stop offset=".5" stop-color="#6e6051"/><stop offset="1" stop-color="#d2c8bd"/></linearGradient><path fill="url(#SVGID_15_)" d="M626.7 76h6.9v159.3h-6.9z"/><linearGradient id="SVGID_16_" gradientUnits="userSpaceOnUse" x1="3580.81" y1="1970.36" x2="3580.81" y2="1811.09" gradientTransform="matrix(-1 0 0 1 4358.11 -1735.12)"><stop offset="0" stop-color="#3a322b"/><stop offset=".06" stop-color="#78685a"/><stop offset=".5" stop-color="#6e6051"/><stop offset="1" stop-color="#d2c8bd"/></linearGradient><path fill="url(#SVGID_16_)" d="M773.8 76h6.9v159.3h-6.9z"/><linearGradient id="SVGID_17_" gradientUnits="userSpaceOnUse" x1="3926.21" y1="1970.36" x2="3926.21" y2="1811.09" gradientTransform="matrix(-1 0 0 1 4358.11 -1735.12)"><stop offset="0" stop-color="#3a322b"/><stop offset=".06" stop-color="#78685a"/><stop offset=".5" stop-color="#6e6051"/><stop offset="1" stop-color="#d2c8bd"/></linearGradient><path fill="url(#SVGID_17_)" d="M428.5 76h6.9v159.3h-6.9z"/><linearGradient id="SVGID_18_" gradientUnits="userSpaceOnUse" x1="4104.09" y1="1970.36" x2="4104.09" y2="1811.09" gradientTransform="matrix(-1 0 0 1 4358.11 -1735.12)"><stop offset="0" stop-color="#3a322b"/><stop offset=".06" stop-color="#78685a"/><stop offset=".5" stop-color="#6e6051"/><stop offset="1" stop-color="#d2c8bd"/></linearGradient><path fill="url(#SVGID_18_)" d="M250.6 76h6.9v159.3h-6.9z"/><path class="st16" d="M259.7 145.4h3.2v94.8h-3.2zm-193 0h3.2v94.8h-3.2z"/><circle class="st22" cx="656.7" cy="370" r="57.3"/><circle class="st22" cx="787.9" cy="370" r="57.3"/><circle class="st22" cx="529" cy="370" r="57.3"/><circle class="st22" cx="397.9" cy="370" r="57.3"/><circle class="st22" cx="264.6" cy="370" r="57.3"/><linearGradient id="SVGID_19_" gradientUnits="userSpaceOnUse" x1="4233.635" y1="2132.78" x2="4233.635" y2="1985.12" gradientTransform="matrix(-1 0 0 1 4358.11 -1735.12)"><stop offset="0" stop-color="#665a4c"/><stop offset=".09" stop-color="#52483d"/><stop offset=".8" stop-color="#63564a"/><stop offset="1" stop-color="#927e6c"/></linearGradient><path fill="url(#SVGID_19_)" d="M74.8 250h99.4v147.7H74.8z"/><linearGradient id="SVGID_20_" gradientUnits="userSpaceOnUse" x1="4181.515" y1="2119.09" x2="4181.515" y2="2042.19" gradientTransform="matrix(-1 0 0 1 4358.11 -1735.12)"><stop offset="0" stop-color="#63564a"/><stop offset=".43" stop-color="#53483d"/><stop offset="1" stop-color="#927e6c"/></linearGradient><path fill="url(#SVGID_20_)" d="M174.2 307.1h4.8V384h-4.8z"/><linearGradient id="SVGID_21_" gradientUnits="userSpaceOnUse" x1="4288.17" y1="2127.94" x2="4288.17" y2="2042.19" gradientTransform="matrix(-1 0 0 1 4358.11 -1735.12)"><stop offset="0" stop-color="#63564a"/><stop offset=".43" stop-color="#53483d"/><stop offset="1" stop-color="#927e6c"/></linearGradient><path fill="url(#SVGID_21_)" d="M65.1 307.1h9.7v85.8h-9.7z"/><linearGradient id="SVGID_22_" gradientUnits="userSpaceOnUse" x1="4285.445" y1="2030.29" x2="4285.445" y2="1992.39" gradientTransform="matrix(-1 0 0 1 4358.11 -1735.12)"><stop offset="0" stop-color="#63564a"/><stop offset=".43" stop-color="#53483d"/><stop offset="1" stop-color="#927e6c"/></linearGradient><path fill="url(#SVGID_22_)" d="M70.6 257.3h4.2v37.9h-4.2z"/><path class="st16" d="M835 250h186.3v8.3H835z"/><linearGradient id="SVGID_23_" gradientUnits="userSpaceOnUse" x1="3315.295" y1="1985.12" x2="3315.295" y2="1818.92" gradientTransform="matrix(-1 0 0 1 4358.11 -1735.12)"><stop offset="0" stop-color="#3a322b"/><stop offset=".01" stop-color="#5c5045"/><stop offset=".95" stop-color="#4a4137"/><stop offset=".98" stop-color="#3a322b"/></linearGradient><path d="M1064.3 83.8V250h-42.9V83.8h42.9zm-36.9 59.3c0 2.9 2.4 5.3 5.3 5.3h21.3c2.9 0 5.3-2.4 5.3-5.3V98.5c0-2.9-2.4-5.3-5.3-5.3h-21.3c-2.9 0-5.3 2.4-5.3 5.3v44.6z" fill="url(#SVGID_23_)"/><linearGradient id="SVGID_24_" gradientUnits="userSpaceOnUse" x1="2928.88" y1="1815.64" x2="2976.35" y2="1815.64" gradientTransform="matrix(-1 0 0 1 4358.11 -1735.12)"><stop offset="0" stop-color="#927e6c"/><stop offset=".08" stop-color="#5d5146"/><stop offset=".29" stop-color="#7c6b5c"/><stop offset=".71" stop-color="#4a4137"/><stop offset="1" stop-color="#927e6c"/></linearGradient><path fill="url(#SVGID_24_)" d="M1381.8 70.7h47.5v19.6h-47.5z"/><linearGradient id="SVGID_25_" gradientUnits="userSpaceOnUse" x1="2927.04" y1="1804.865" x2="2978.19" y2="1804.865" gradientTransform="matrix(-1 0 0 1 4358.11 -1735.12)"><stop offset="0" stop-color="#927e6c"/><stop offset=".08" stop-color="#5d5146"/><stop offset=".29" stop-color="#7c6b5c"/><stop offset=".71" stop-color="#4a4137"/><stop offset="1" stop-color="#927e6c"/></linearGradient><path fill="url(#SVGID_25_)" d="M1379.9 68.1h51.2v3.3h-51.2z"/><linearGradient id="SVGID_26_" gradientUnits="userSpaceOnUse" x1="3100.7" y1="1804.865" x2="3151.85" y2="1804.865" gradientTransform="matrix(-1 0 0 1 4358.11 -1735.12)"><stop offset="0" stop-color="#927e6c"/><stop offset=".08" stop-color="#5d5146"/><stop offset=".29" stop-color="#7c6b5c"/><stop offset=".71" stop-color="#4a4137"/><stop offset="1" stop-color="#927e6c"/></linearGradient><path fill="url(#SVGID_26_)" d="M1206.3 68.1h51.2v3.3h-51.2z"/><linearGradient id="SVGID_27_" gradientUnits="userSpaceOnUse" x1="2950.97" y1="2047.87" x2="2950.97" y2="1818.92" gradientTransform="matrix(-1 0 0 1 4358.11 -1735.12)"><stop offset="0" stop-color="#40372f"/><stop offset=".01" stop-color="#736356"/><stop offset=".95" stop-color="#827260"/><stop offset=".98" stop-color="#4d4239"/></linearGradient><path d="M1199.7 83.8v63h337.2c28.4 0 51.4 23 51.4 51.5h119.9v114.5h-602.1v-229h93.6z" fill="url(#SVGID_27_)"/><path class="st32" d="M736 359.7c5.7-28.6 33.6-47.2 62.2-41.5 28.6 5.7 47.2 33.6 41.5 62.2-5.7 28.6-33.6 47.2-62.2 41.5-28.6-5.8-47.2-33.6-41.5-62.2zm53.5 53.1l-2.2-24.7c-1 0-2-.1-3-.3-.9-.2-1.8-.4-2.6-.8l-11.5 22c6 2.8 12.6 4.1 19.3 3.8zm-13.3-67c-3.2 1.6-6.1 3.8-8.5 6.5l7.2 5.2c1.3-1.3 2.8-2.5 4.4-3.4l-3.1-8.3zm-11.4 10.6c-1.8 3.1-3 6.5-3.5 10l8.8.5v-.3c.3-1.7.9-3.4 1.8-4.9l-7.1-5.3zm19.2-4c1.6-.4 3.3-.5 5-.4l4.9-24.4c-6.2-.9-12.5-.4-18.5 1.5l8.6 23.3zm14.7-23.8l-4.9 24.4c1.5.5 3 1.3 4.3 2.2l17.3-17.8c-4.8-4.2-10.5-7.2-16.7-8.8zm20.4 12.1l-17.2 17.8c1.1 1.4 2.1 2.9 2.8 4.6l24.2-5.7c-2-6.2-5.4-11.9-9.8-16.7zm10.9 21.5l-24.2 5.7c.2 1.9.1 3.8-.2 5.6l-.1.2 23.4 8.3c.3-1.2.7-2.4.9-3.7 1.1-5.2 1.2-10.7.2-16.1zm-26.2 16.4c-.8 1.4-1.7 2.7-2.8 3.8l15.3 19.7c4.7-4.2 8.5-9.4 11-15.2l-23.5-8.3zm-6.7 7c-1.5.9-3.1 1.6-4.8 2l2.2 24.8c6.4-1 12.5-3.4 17.8-7.2l-15.2-19.6zm-31.3 21.1l11.5-22c-1.4-1-2.6-2.2-3.7-3.5L752 393.4c3.6 5.4 8.2 9.9 13.8 13.3zm-16.2-17.6l21.6-12.3c-.6-1.6-1.1-3.3-1.2-5l-24.8-1.3c0 6.4 1.5 12.8 4.4 18.6z"/><circle class="st22" cx="1162.5" cy="388.6" r="40.3"/><path class="st32" d="M604.9 359.7c5.7-28.6 33.6-47.2 62.2-41.5 28.6 5.7 47.2 33.6 41.5 62.2-5.7 28.6-33.6 47.2-62.2 41.5-28.7-5.8-47.3-33.6-41.5-62.2zm53.4 53.1l-2.2-24.7c-1 0-2-.1-3-.3-.9-.2-1.8-.4-2.6-.8L639 409c6.1 2.7 12.7 4.1 19.3 3.8zm-13.3-67c-3.2 1.6-6.1 3.8-8.5 6.5l7.2 5.2c1.3-1.3 2.8-2.5 4.4-3.4l-3.1-8.3zm-11.4 10.6c-1.8 3.1-3 6.5-3.5 10l8.8.5v-.3c.3-1.7.9-3.4 1.8-4.9l-7.1-5.3zm19.2-4c1.6-.4 3.3-.5 5-.4l4.9-24.4c-6.2-.9-12.5-.4-18.5 1.5l8.6 23.3zm14.8-23.8l-4.9 24.4c1.5.5 3 1.3 4.3 2.2l17.3-17.9c-4.9-4.1-10.6-7.1-16.7-8.7zm20.3 12.1l-17.2 17.8c1.1 1.4 2.1 2.9 2.8 4.6l24.2-5.7c-2-6.2-5.3-11.9-9.8-16.7zm10.9 21.5l-24.2 5.7c.2 1.9.1 3.8-.2 5.6l-.1.2 23.4 8.3c.3-1.2.7-2.4.9-3.7 1.2-5.2 1.2-10.7.2-16.1zm-26.2 16.4c-.8 1.4-1.7 2.7-2.8 3.8l15.3 19.7c4.7-4.2 8.5-9.4 11-15.2l-23.5-8.3zm-6.7 7c-1.5.9-3.1 1.6-4.8 2l2.2 24.8c6.4-1 12.5-3.4 17.8-7.2l-15.2-19.6zm-31.3 21.1l11.5-22c-1.4-1-2.6-2.2-3.7-3.5l-21.6 12.3c3.6 5.3 8.3 9.8 13.8 13.2zm-16.2-17.6l21.6-12.3c-.6-1.6-1.1-3.3-1.2-5l-24.8-1.3c0 6.4 1.5 12.8 4.4 18.6zm-140.8-29.4c5.7-28.6 33.6-47.2 62.2-41.5 28.6 5.7 47.2 33.6 41.5 62.2-5.7 28.6-33.6 47.2-62.2 41.5-28.6-5.8-47.2-33.6-41.5-62.2zm53.5 53.1l-2.2-24.7c-1 0-2-.1-3-.3-.9-.2-1.8-.4-2.6-.8l-11.5 22c6 2.7 12.6 4.1 19.3 3.8zm-13.3-67c-3.2 1.6-6.1 3.8-8.5 6.5l7.2 5.2c1.3-1.3 2.8-2.5 4.4-3.4l-3.1-8.3zm-11.4 10.6c-1.8 3.1-3 6.5-3.5 10l8.8.5v-.3c.3-1.7.9-3.4 1.8-4.9l-7.1-5.3zm19.2-4c1.6-.4 3.3-.5 5-.4l4.9-24.3c-6.2-.9-12.5-.4-18.5 1.5l8.6 23.2zm14.7-23.8l-4.9 24.4c1.5.5 3 1.3 4.3 2.2l17.3-17.9c-4.8-4.1-10.5-7.1-16.7-8.7zm20.4 12.1l-17.2 17.8c1.1 1.4 2.1 2.9 2.8 4.6l24.2-5.7c-2-6.2-5.4-11.9-9.8-16.7zm10.9 21.6l-24.2 5.7c.2 1.9.1 3.8-.2 5.6l-.1.2 23.4 8.3c.3-1.2.7-2.4.9-3.7 1.1-5.3 1.2-10.8.2-16.1zm-26.2 16.3c-.8 1.4-1.7 2.7-2.8 3.8l15.3 19.7c4.7-4.2 8.5-9.4 11-15.2l-23.5-8.3zm-6.7 7c-1.5.9-3.1 1.6-4.8 2l2.2 24.8c6.4-1 12.5-3.4 17.8-7.2l-15.2-19.6zm-31.3 21.1l11.5-22c-1.4-1-2.6-2.2-3.7-3.5l-21.6 12.3c3.6 5.4 8.3 9.9 13.8 13.2zm-16.2-17.6l21.6-12.3c-.6-1.6-1.1-3.3-1.2-5l-24.8-1.3c0 6.5 1.5 12.8 4.4 18.6zM347 359.7c5.7-28.6 33.6-47.2 62.2-41.5 28.6 5.7 47.2 33.6 41.5 62.2s-33.6 47.2-62.2 41.5c-28.6-5.8-47.2-33.6-41.5-62.2zm53.5 53.1l-2.2-24.7c-1 0-2-.1-3-.3-.9-.2-1.8-.4-2.6-.8l-11.5 22c6 2.8 12.6 4.1 19.3 3.8zm-13.3-67c-3.2 1.6-6.1 3.8-8.5 6.5l7.2 5.2c1.3-1.3 2.8-2.5 4.4-3.4l-3.1-8.3zm-11.4 10.6c-1.8 3.1-3 6.5-3.5 10l8.8.5v-.3c.3-1.7.9-3.4 1.8-4.9l-7.1-5.3zm19.2-4c1.6-.4 3.3-.5 5-.4l4.9-24.4c-6.2-.9-12.5-.4-18.5 1.5l8.6 23.3zm14.7-23.8l-4.9 24.4c1.5.5 3 1.3 4.3 2.2l17.3-17.8c-4.8-4.2-10.5-7.2-16.7-8.8zm20.4 12.1l-17.2 17.8c1.1 1.4 2.1 2.9 2.8 4.6l24.2-5.7c-2.1-6.2-5.4-11.9-9.8-16.7zm10.9 21.5l-24.2 5.7c.2 1.9.1 3.8-.2 5.6l-.1.2 23.4 8.3c.4-1.2.7-2.4.9-3.7 1.1-5.2 1.2-10.7.2-16.1zm-26.2 16.4c-.8 1.4-1.7 2.7-2.8 3.8l15.3 19.7c4.7-4.2 8.5-9.4 11-15.2l-23.5-8.3zm-6.7 7c-1.5.9-3.1 1.6-4.8 2l2.2 24.8c6.4-1 12.5-3.4 17.8-7.2l-15.2-19.6zm-31.3 21.1l11.5-22c-1.4-1-2.6-2.2-3.6-3.5L363 393.4c3.6 5.4 8.2 10 13.8 13.3zm-16.2-17.6l21.6-12.3c-.6-1.6-1.1-3.3-1.2-5l-24.8-1.3c0 6.4 1.5 12.8 4.4 18.6zm-147.8-29.4c5.7-28.6 33.6-47.2 62.2-41.5s47.2 33.6 41.5 62.2c-5.7 28.6-33.6 47.2-62.2 41.5-28.7-5.8-47.3-33.6-41.5-62.2zm53.4 53.1l-2.2-24.7c-1 0-2-.1-3-.3-.9-.2-1.8-.4-2.6-.8l-11.5 22c6 2.7 12.6 4.1 19.3 3.8zm-13.3-67c-3.2 1.6-6.1 3.8-8.5 6.5l7.2 5.2c1.3-1.3 2.8-2.5 4.4-3.4l-3.1-8.3zm-11.4 10.6c-1.8 3.1-3 6.5-3.5 10l8.8.5v-.3c.3-1.7.9-3.4 1.8-4.9l-7.1-5.3zm19.2-4c1.6-.4 3.3-.5 5-.4l4.9-24.4c-6.2-.9-12.5-.4-18.5 1.5l8.6 23.3zm14.8-23.7l-4.9 24.4c1.5.5 3 1.3 4.3 2.2l17.3-17.9c-4.9-4.2-10.6-7.1-16.7-8.7zm20.3 12l-17.2 17.8c1.1 1.4 2.1 2.9 2.8 4.6l24.2-5.7c-2-6.2-5.4-11.9-9.8-16.7zm10.9 21.6l-24.2 5.7c.2 1.9.1 3.8-.2 5.6l-.1.2 23.4 8.3c.4-1.2.7-2.4.9-3.7 1.2-5.3 1.2-10.8.2-16.1zm-26.2 16.3c-.8 1.4-1.7 2.7-2.8 3.8l15.3 19.7c4.7-4.2 8.5-9.4 11-15.2l-23.5-8.3zm-6.7 7c-1.5.9-3.1 1.6-4.8 2l2.2 24.8c6.4-1 12.5-3.4 17.8-7.2l-15.2-19.6zm-31.3 21.1l11.5-22c-1.4-1-2.6-2.2-3.6-3.5l-21.6 12.3c3.5 5.3 8.2 9.9 13.7 13.2zm-16.2-17.6l21.6-12.3c-.6-1.6-1.1-3.3-1.2-5l-24.8-1.3c0 6.4 1.5 12.8 4.4 18.6zm936.2-34.9c19 0 34.4 15.4 34.4 34.4s-15.4 34.4-34.4 34.4-34.4-15.4-34.4-34.4 15.4-34.4 34.4-34.4zm0 62.2c15.3 0 27.8-12.4 27.8-27.8 0-15.3-12.4-27.8-27.8-27.8-15.3 0-27.8 12.4-27.8 27.8s12.4 27.8 27.8 27.8z"/><path class="st32" d="M1156.5 403.6h12c3 0 5.5-2.5 5.5-5.5v-19c0-3-2.5-5.5-5.5-5.5h-12c-3 0-5.5 2.5-5.5 5.5v19c0 3 2.4 5.5 5.5 5.5z"/><circle class="st22" cx="1162.5" cy="388.6" r="9"/><circle class="st22" cx="1309" cy="388.6" r="40.3"/><path class="st32" d="M1309 354.2c19 0 34.4 15.4 34.4 34.4S1328 423 1309 423s-34.4-15.4-34.4-34.4 15.4-34.4 34.4-34.4zm0 62.2c15.3 0 27.8-12.4 27.8-27.8 0-15.3-12.4-27.8-27.8-27.8-15.3 0-27.8 12.4-27.8 27.8s12.5 27.8 27.8 27.8z"/><path class="st32" d="M1303 403.6h12c3 0 5.5-2.5 5.5-5.5v-19c0-3-2.5-5.5-5.5-5.5h-12c-3 0-5.5 2.5-5.5 5.5v19c0 3 2.5 5.5 5.5 5.5z"/><circle class="st22" cx="1309" cy="388.6" r="9"/><path class="st22" d="M1538.9 345h101.4v68.3h-101.4z"/><circle class="st22" cx="1515" cy="388.6" r="40.3"/><path class="st32" d="M1515 354.2c19 0 34.4 15.4 34.4 34.4S1534 423 1515 423s-34.4-15.4-34.4-34.4 15.4-34.4 34.4-34.4zm0 62.2c15.3 0 27.8-12.4 27.8-27.8 0-15.3-12.4-27.8-27.8-27.8-15.3 0-27.8 12.4-27.8 27.8s12.5 27.8 27.8 27.8z"/><path class="st32" d="M1509 403.6h12c3 0 5.5-2.5 5.5-5.5v-19c0-3-2.5-5.5-5.5-5.5h-12c-3 0-5.5 2.5-5.5 5.5v19c0 3 2.5 5.5 5.5 5.5z"/><circle class="st22" cx="1515" cy="388.6" r="9"/><circle class="st22" cx="1661.5" cy="388.6" r="40.3"/><path class="st32" d="M1661.5 354.2c19 0 34.4 15.4 34.4 34.4s-15.4 34.4-34.4 34.4-34.4-15.4-34.4-34.4 15.4-34.4 34.4-34.4zm0 62.2c15.3 0 27.8-12.4 27.8-27.8 0-15.3-12.4-27.8-27.8-27.8-15.3 0-27.8 12.4-27.8 27.8s12.4 27.8 27.8 27.8z"/><path class="st32" d="M1655.5 403.6h12c3 0 5.5-2.5 5.5-5.5v-19c0-3-2.5-5.5-5.5-5.5h-12c-3 0-5.5 2.5-5.5 5.5v19c0 3 2.4 5.5 5.5 5.5z"/><circle class="st22" cx="1661.5" cy="388.6" r="9"/><linearGradient id="SVGID_28_" gradientUnits="userSpaceOnUse" x1="3277.44" y1="1768.47" x2="3277.44" y2="1748.02" gradientTransform="matrix(-1 0 0 1 4358.11 -1735.12)"><stop offset="0" stop-color="#4a4137"/><stop offset="1" stop-color="#927e6c"/></linearGradient><path fill="url(#SVGID_28_)" d="M1055.3 12.9h50.8v20.4h-50.8z"/><path class="st8" d="M45.7 297.7H52c7.2 0 13.1 5.8 13.1 13 0 5.9-4 11.1-9.7 12.7v4.2h-3.5v-3.7h-6.2v-26.2z"/><linearGradient id="SVGID_29_" gradientUnits="userSpaceOnUse" x1="3936.59" y1="1787.645" x2="4067.87" y2="1787.645" gradientTransform="matrix(-1 0 0 1 4358.11 -1735.12)"><stop offset="0" stop-color="#927e6c"/><stop offset=".08" stop-color="#5d5146"/><stop offset=".29" stop-color="#7c6b5c"/><stop offset=".71" stop-color="#4a4137"/><stop offset="1" stop-color="#927e6c"/></linearGradient><path fill="url(#SVGID_29_)" d="M290.2 29.1h131.3V76H290.2z"/><path class="st11" d="M151.2 269.2v6.6l-3.1 8.1 9.6 7.1 5.1 3.5 3.6 7.1v26.9l-5.1 5.1-.5 3.6 2.5 3L171 359c-3 1.5-4.1 9.1-4.1 9.1l.5 7.1-2.5 16.3 2 4.6-1 5.6s7.1 6.6 5.1 8.1 4.1 31.5 4.1 31.5h-13.4l-6.9-27.9-4.1-3-2.5-5.6-2.5-8.1-6.6-10.2-3.1-5.6-3.5 5.6-3.6 8.6-5.6 4.1v9.6l-4.1 9.1-2 23.3h-15.8l4.1-33 1-12.2.5-6.1-2-20.3 5.8-10.2-4.3-1.5 9.6-20.3 3-3.5-.5-5.6h-3.5l-4.3.5-3.3-6.1-1-5.6 4.3-10.7 4.3-14.2 6.6-4.6 7.1-2c1.3-2.1 2.3-4.3 3-6.6l-3-2-.5-4.6 2.5-3.6-1.5-6.1 2.5-3h20.8l1 5.1-2.4 4.2z"/><linearGradient id="SVGID_30_" gradientUnits="userSpaceOnUse" x1="3936.6" y1="1758.315" x2="4067.87" y2="1758.315" gradientTransform="matrix(-1 0 0 1 4358.11 -1735.12)"><stop offset="0" stop-color="#927e6c"/><stop offset=".71" stop-color="#4a4137"/><stop offset="1" stop-color="#927e6c"/></linearGradient><path d="M308.9 17.3h93.9c10.3 0 18.7 5.3 18.7 11.8H290.2c.1-6.5 8.4-11.8 18.7-11.8z" fill="url(#SVGID_30_)"/><path class="st11" d="M438.3 153.4l-2.9-3.2 21.3-20.9.9-1.2.6-1.4.4-1.2.1-1.4.5-1.7 1.3-1.4 1.9-1.6 1.7-1.1 1.3-.7 1.2-.1 1.8 1.5-3.5 4.4.1 1 .4 1.2 1.9 1.3 2.9-3.2 1.9-2.8 1.3.4.4 1.5-.2 1.8-.6 2-1 2.2-1.2 1.5-1.7.7-1.7.3-2.7.5-1.8.8-2.1 1.9z"/><path class="st11" d="M428.4 88.3l-19.2-6-3-4.2-3.6-7.2 1.2-6-12-3.6-8.4 3.6-4.2 3.6v6.3l4.2 8.1v5.4l-.6 5.4-7.2 6.6-2.4 9 6 6.6 2.4 12 1.8 4.8-2.4 11.4.6 14.4s3 3 3 5.4 1.2 12.6 1.2 12.6l.6 22.8 5.4 8.4s-1.2 9.7-.6 9.7 1.2 19.1 1.2 19.1h13.8V212l4.2-7.2-1.2-6s-1.8-4.2-1.8-7.2.6-10.8.6-10.8l1.8-9 10.2 17.4c1.4 2.1 2.6 4.3 3.6 6.6.6 1.8 0 11.4 0 11.4l4.8 2.4 4.2 27h15.6l-6-27 6-6v-8.4l-6.6-19.2-3.6-18.6 2.4-8.4 7.8-4.8-3.6-16.2-3.6-9-12.6-30.7z"/><linearGradient id="SVGID_31_" gradientUnits="userSpaceOnUse" x1="4002.235" y1="1764.2" x2="4002.235" y2="1752.43" gradientTransform="matrix(-1 0 0 1 4358.11 -1735.12)"><stop offset=".32" stop-color="#927e6c" stop-opacity="0"/><stop offset="1" stop-color="#d2c8bd"/></linearGradient><path d="M308.9 17.3h93.9c10.3 0 18.7 5.3 18.7 11.8H290.2c.1-6.5 8.4-11.8 18.7-11.8z" fill="url(#SVGID_31_)"/><linearGradient id="SVGID_32_" gradientUnits="userSpaceOnUse" x1="3936.34" y1="1764" x2="4068.11" y2="1764" gradientTransform="matrix(-1 0 0 1 4358.11 -1735.12)"><stop offset="0" stop-color="#b09882"/><stop offset=".08" stop-color="#a38f7a"/><stop offset=".29" stop-color="#a38d79"/><stop offset=".71" stop-color="#827261"/><stop offset="1" stop-color="#b59c86"/></linearGradient><path fill="url(#SVGID_32_)" d="M421.8 30.3v-2.8H290v2.8z"/><path class="st16" d="M65.1 149.9h770.1v4.1H65.1zm0 38.5h770.1v4.1H65.1z"/><g id="Layer_5"><path class="st16" d="M287.7 360.9h532.8v9.6H287.7zM179 337.1h176.9v8.4H179zm0 36.4h94v5.4h-94z"/><path class="st16" d="M266.5 303.8h8.1v76.4h-8.1z"/><path class="st16" d="M179 311.9h94v2.7h-94zm88.5-12.4h114.8v5.5H267.5z"/><circle class="st16" cx="819.2" cy="365.7" r="10"/><circle class="st16" cx="686.8" cy="365.7" r="10"/><circle class="st16" cx="554.3" cy="365.7" r="10"/><circle class="st16" cx="421.9" cy="365.7" r="10"/><circle class="st16" cx="521.7" cy="385.7" r="10"/><circle class="st16" cx="357.6" cy="341.9" r="10"/><circle class="st16" cx="289.5" cy="365.7" r="10"/><path transform="rotate(-75.558 441.41 365.824)" class="st16" d="M437.9 283.8h7.1v164.1h-7.1z"/><path class="st16" d="M249 331.9h40.4v20H249z"/><path class="st16" d="M258.8 347.7h22.8v20.6h-22.8zm106.1-75.6h12.8v31.6h-12.8z"/><path transform="rotate(-69.537 365.18 317.9)" class="st16" d="M344.2 313.8h42v8.2h-42z"/><path transform="rotate(-69.537 376.97 257.49)" class="st16" d="M358.2 253.4h37.5v8.2h-37.5z"/><path class="st16" d="M263.2 368.3h13.5V384h-13.5z"/></g><linearGradient id="SVGID_33_" gradientUnits="userSpaceOnUse" x1="4118.22" y1="1811.095" x2="4189.92" y2="1811.095" gradientTransform="matrix(-1 0 0 1 4358.11 -1735.12)"><stop offset="0" stop-color="#927e6c"/><stop offset=".08" stop-color="#5d5146"/><stop offset=".29" stop-color="#7c6b5c"/><stop offset=".71" stop-color="#4a4137"/><stop offset="1" stop-color="#927e6c"/></linearGradient><path fill="url(#SVGID_33_)" d="M168.2 83.8h71.7l-4.8-15.7h-62.7z"/><linearGradient id="SVGID_34_" gradientUnits="userSpaceOnUse" x1="4118.22" y1="1770.93" x2="4189.92" y2="1770.93" gradientTransform="matrix(-1 0 0 1 4358.11 -1735.12)"><stop offset="0" stop-color="#927e6c"/><stop offset=".08" stop-color="#5d5146"/><stop offset=".29" stop-color="#7c6b5c"/><stop offset=".71" stop-color="#4a4137"/><stop offset="1" stop-color="#927e6c"/></linearGradient><path fill="url(#SVGID_34_)" d="M168.2 3.5h71.7l-4.8 64.6h-62.7z"/><linearGradient id="SVGID_35_" gradientUnits="userSpaceOnUse" x1="4154.07" y1="1803.26" x2="4154.07" y2="1740.85" gradientTransform="matrix(-1 0 0 1 4358.11 -1735.12)"><stop offset=".93" stop-color="#3b332c" stop-opacity="0"/><stop offset="1" stop-color="#3a322b"/></linearGradient><path fill="url(#SVGID_35_)" d="M168.2 5.7h71.7l-4.8 62.4h-62.7z"/><linearGradient id="SVGID_36_" gradientUnits="userSpaceOnUse" x1="4114.48" y1="61.405" x2="4193.09" y2="61.405" gradientTransform="rotate(180 2179.05 32.44)"><stop offset="0" stop-color="#927e6c"/><stop offset=".08" stop-color="#5d5146"/><stop offset=".29" stop-color="#7c6b5c"/><stop offset=".71" stop-color="#4a4137"/><stop offset="1" stop-color="#927e6c"/></linearGradient><path d="M240.1 7h-71.7c-1.9 0-3.5-1.6-3.5-3.5s1.6-3.5 3.5-3.5h71.7c1.9 0 3.5 1.6 3.5 3.5S242.1 7 240.1 7z" fill="url(#SVGID_36_)"/><linearGradient id="SVGID_37_" gradientUnits="userSpaceOnUse" x1="4153.785" y1="57.92" x2="4153.785" y2="64.88" gradientTransform="rotate(180 2179.05 32.44)"><stop offset="0" stop-color="#3a322b" stop-opacity=".9"/><stop offset=".21" stop-color="#3a322b"/><stop offset=".69" stop-color="#3b332c" stop-opacity="0"/></linearGradient><path d="M240.1 7h-71.7c-1.9 0-3.5-1.6-3.5-3.5s1.6-3.5 3.5-3.5h71.7c1.9 0 3.5 1.6 3.5 3.5S242.1 7 240.1 7z" fill="url(#SVGID_37_)"/></g><path class="st43" d="M2392.9 114.2l-70.7-28.7-51.6-14.3-97.6 22-97.5 23.9-79.4-16.3h-82.2l-40.2 17.2v15.3h519.2z" id="Coal"/><path class="st43" d="M3725.5 129.2l-230.8-63.1-100.6-1-65.2 26.6-126.2 39.5z" id="Layer_18"/><path class="st43" d="M2867.7 115.4c-5.9-1-96.7-30.6-96.7-30.6l-100.6-3.9-108.6 37.8 305.9-3.3z" id="Layer_19"/><g id="CargoCart"><linearGradient id="SVGID_38_" gradientUnits="userSpaceOnUse" x1="2137.99" y1="114.57" x2="2137.99" y2="322.26" gradientTransform="matrix(1 0 0 -1 0 444)"><stop offset="0" stop-color="#806e5e"/><stop offset=".98" stop-color="#806e5e"/><stop offset="1" stop-color="#53493e"/></linearGradient><path fill="url(#SVGID_38_)" d="M2428.8 329.4h-581.6V121.7h581.6z"/><path transform="rotate(-43.521 1952.333 225.139)" class="st16" d="M1948.7 81.9h7.3v286.5h-7.3z"/><linearGradient id="SVGID_39_" gradientUnits="userSpaceOnUse" x1="2140.02" y1="114.42" x2="2140.02" y2="321.57" gradientTransform="matrix(1 0 0 -1 0 444)"><stop offset="0" stop-color="#927e6c"/><stop offset=".99" stop-color="#917d6b"/><stop offset="1" stop-color="#53493e"/></linearGradient><path fill="url(#SVGID_39_)" d="M2049.9 122.4h180.3v207.1h-180.3z"/><path class="st16" d="M2421.5 122.4h7.3v207.1h-7.3zm-574.3 0h7.3v207.1h-7.3z"/><linearGradient id="SVGID_40_" gradientUnits="userSpaceOnUse" x1="2138.185" y1="322.26" x2="2138.185" y2="333.77" gradientTransform="matrix(1 0 0 -1 0 444)"><stop offset="0" stop-color="#63564a"/><stop offset="1" stop-color="#c5bbb0"/></linearGradient><path fill="url(#SVGID_40_)" d="M2432.2 110.2h-588v11.5h588z"/><path transform="rotate(-46.479 2326.193 225.107)" class="st16" d="M2182.8 221.5h286.5v7.3h-286.5z"/></g><g id="Bottom"><circle class="st22" cx="1976.6" cy="385.6" r="44"/><circle class="st22" cx="2300.1" cy="385.6" r="44"/><path class="st22" d="M1849.3 329h578.1v40h-578.1z"/><path class="st22" d="M1859.1 341.6h57v57h-57z"/><path class="st32" d="M1982.8 400.6h-12c-3 0-5.5-2.5-5.5-5.5v-19c0-3 2.5-5.5 5.5-5.5h12c3 0 5.5 2.5 5.5 5.5v19c0 3-2.4 5.5-5.5 5.5z"/><circle class="st22" cx="1976.8" cy="385.6" r="9"/><path class="st32" d="M2307.3 400.6h-12c-3 0-5.5-2.5-5.5-5.5v-19c0-3 2.5-5.5 5.5-5.5h12c3 0 5.5 2.5 5.5 5.5v19c0 3-2.5 5.5-5.5 5.5z"/><circle class="st22" cx="2301.3" cy="385.6" r="9"/><path class="st22" d="M1835.4 332.3v3.4H1823v2.2h-11.2v-8.3h-2.6v24h2.6v-8.3h11.2v2.2h12.4v3h21.2v-18.2zm607.3 18.6v-3.4h12.3v-2.2h11.2v8.3h2.6v-24h-2.6v8.3H2455v-2.2h-12.3v-3h-21.2v18.2z"/></g><g id="CargoCart-2"><linearGradient id="SVGID_41_" gradientUnits="userSpaceOnUse" x1="2797.62" y1="114.57" x2="2797.62" y2="322.26" gradientTransform="matrix(1 0 0 -1 0 444)"><stop offset="0" stop-color="#806e5e"/><stop offset=".98" stop-color="#806e5e"/><stop offset="1" stop-color="#53493e"/></linearGradient><path fill="url(#SVGID_41_)" d="M3088.4 329.4h-581.6V121.7h581.6z"/><path transform="rotate(-43.521 2611.978 225.148)" class="st16" d="M2608.3 81.9h7.3v286.5h-7.3z"/><linearGradient id="SVGID_42_" gradientUnits="userSpaceOnUse" x1="2799.65" y1="114.42" x2="2799.65" y2="321.57" gradientTransform="matrix(1 0 0 -1 0 444)"><stop offset="0" stop-color="#927e6c"/><stop offset=".99" stop-color="#917d6b"/><stop offset="1" stop-color="#53493e"/></linearGradient><path fill="url(#SVGID_42_)" d="M2709.5 122.4h180.3v207.1h-180.3z"/><path class="st16" d="M3081.1 122.4h7.3v207.1h-7.3zm-574.3 0h7.3v207.1h-7.3z"/><linearGradient id="SVGID_43_" gradientUnits="userSpaceOnUse" x1="2797.815" y1="322.26" x2="2797.815" y2="333.77" gradientTransform="matrix(1 0 0 -1 0 444)"><stop offset="0" stop-color="#63564a"/><stop offset="1" stop-color="#c5bbb0"/></linearGradient><path fill="url(#SVGID_43_)" d="M3091.8 110.2h-588v11.5h588z"/><path transform="rotate(-46.479 2985.836 225.104)" class="st16" d="M2842.4 221.5h286.5v7.3h-286.5z"/></g><g id="Bottom-2"><circle class="st22" cx="2636.2" cy="385.6" r="44"/><circle class="st22" cx="2959.7" cy="385.6" r="44"/><path class="st22" d="M2508.9 329H3087v40h-578.1z"/><path class="st22" d="M2518.7 341.6h57v57h-57z"/><path class="st32" d="M2642.5 400.6h-12c-3 0-5.5-2.5-5.5-5.5v-19c0-3 2.5-5.5 5.5-5.5h12c3 0 5.5 2.5 5.5 5.5v19c0 3-2.5 5.5-5.5 5.5z"/><circle class="st22" cx="2636.5" cy="385.6" r="9"/><path class="st32" d="M2966.9 400.6h-12c-3 0-5.5-2.5-5.5-5.5v-19c0-3 2.5-5.5 5.5-5.5h12c3 0 5.5 2.5 5.5 5.5v19c0 3-2.4 5.5-5.5 5.5z"/><circle class="st22" cx="2960.9" cy="385.6" r="9"/><path class="st22" d="M2495 332.3v3.4h-12.4v2.2h-11.2v-8.3h-2.6v24h2.6v-8.3h11.2v2.2h12.4v3h21.2v-18.2zm607.3 18.6v-3.4h12.4v-2.2h11.2v8.3h2.6v-24h-2.6v8.3h-11.2v-2.2h-12.4v-3h-21.2v18.2z"/></g><g id="CargoCart-3"><linearGradient id="SVGID_44_" gradientUnits="userSpaceOnUse" x1="3457.25" y1="114.57" x2="3457.25" y2="322.26" gradientTransform="matrix(1 0 0 -1 0 444)"><stop offset="0" stop-color="#806e5e"/><stop offset=".98" stop-color="#806e5e"/><stop offset="1" stop-color="#53493e"/></linearGradient><path fill="url(#SVGID_44_)" d="M3748.1 329.4h-581.7V121.7h581.7z"/><path transform="rotate(-43.521 3271.623 225.158)" class="st16" d="M3268 81.9h7.3v286.5h-7.3z"/><linearGradient id="SVGID_45_" gradientUnits="userSpaceOnUse" x1="3459.27" y1="114.42" x2="3459.27" y2="321.57" gradientTransform="matrix(1 0 0 -1 0 444)"><stop offset="0" stop-color="#927e6c"/><stop offset=".99" stop-color="#917d6b"/><stop offset="1" stop-color="#53493e"/></linearGradient><path fill="url(#SVGID_45_)" d="M3369.1 122.4h180.3v207.1h-180.3z"/><path class="st16" d="M3740.7 122.4h7.3v207.1h-7.3zm-574.3 0h7.3v207.1h-7.3z"/><linearGradient id="SVGID_46_" gradientUnits="userSpaceOnUse" x1="3457.44" y1="322.26" x2="3457.44" y2="333.77" gradientTransform="matrix(1 0 0 -1 0 444)"><stop offset="0" stop-color="#63564a"/><stop offset="1" stop-color="#c5bbb0"/></linearGradient><path fill="url(#SVGID_46_)" d="M3751.4 110.2h-588v11.5h588z"/><path transform="rotate(-46.479 3645.497 225.109)" class="st16" d="M3502.1 221.5h286.5v7.3h-286.5z"/></g><g id="Bottom-3"><circle class="st22" cx="3295.9" cy="385.6" r="44"/><circle class="st22" cx="3619.3" cy="385.6" r="44"/><path class="st22" d="M3168.5 329h578.1v40h-578.1z"/><path class="st22" d="M3178.3 341.6h57v57h-57z"/><path class="st32" d="M3302.1 400.6h-12c-3 0-5.5-2.5-5.5-5.5v-19c0-3 2.5-5.5 5.5-5.5h12c3 0 5.5 2.5 5.5 5.5v19c0 3-2.5 5.5-5.5 5.5z"/><circle class="st22" cx="3296.1" cy="385.6" r="9"/><path class="st32" d="M3626.5 400.6h-12c-3 0-5.5-2.5-5.5-5.5v-19c0-3 2.5-5.5 5.5-5.5h12c3 0 5.5 2.5 5.5 5.5v19c.1 3-2.4 5.5-5.5 5.5z"/><circle class="st22" cx="3620.6" cy="385.6" r="9"/><path class="st22" d="M3154.6 332.3v3.4h-12.3v2.2h-11.2v-8.3h-2.6v24h2.6v-8.3h11.2v2.2h12.3v3h21.2v-18.2zm607.3 18.6v-3.4h12.4v-2.2h11.2v8.3h2.6v-24h-2.6v8.3h-11.2v-2.2h-12.4v-3h-21.2v18.2z"/></g><path class="st11" d="M725.1 438.9h-28.8l4.3-5.7-1.4-3.8-9.5-23.7 1-21.3 1.9-13.7-6.2-11.3v-6.6l-3.8-2.4h-9.9l-7.1 3.8-10.9 1.4-6.6.5-4.3-1.9v-3.8h11.8l4.7-4.3 4.7-4.3 5.7-5.2-2.4-8.5-.5-8 1.4-7.1-1-2.8-3.7-2.4h-3.3l-1-3.3H657l-2.4-3.3-.5-3.8 1.9-4.3-2.4-2.3v-4.3h21.8l2.8 5.2c-.2 2.1.5 4.1 1.9 5.7l4.3-.9 3.3 4.3 12.3.5 4.3 4.7 4.3 6.6-.5 3.3 3.3 1.9 5.2 7.1.5 6.2 1.4 4.3 4.3 7.6 2.3 13.3s-4.7 20.8-4.3 22.2-.5 17-.5 17 2.4 18.5 2.4 21.3 2.4 17 2.4 17v5.1zM127.9 316.6l3.4 4.3-28.8 24.5-1.2 1.5-.9 1.7-.7 1.4-.1 1.9-.9 2.1-1.7 1.6-2.6 1.8-2.2 1.4-1.8.7h-1.5l-2.1-2 4.8-5.4-.1-1.2-.4-1.5-2.3-1.9-3.8 3.9-2.8 3.3-1.5-.6-.4-2 .4-2.2.9-2.5 1.5-2.7 1.6-1.8 2.2-.7 2.2-.3 3.5-.4 2.3-.8 2.9-2.2z"/><path class="st11" d="M676.8 341.1l.9 4.9-46.9 9-1.3.5-1.2 1-.9.8-.6 1.4-1.3 1.3-1.7.4-2.3.4h-1.8l-1.5-.2-1-.8 5-2.5.3-1 .2-1.4-.5-1.4-.8-1.1-1-.6-1-.3-5.1 2.3.3-1.7.9-1.6 1.5-1.5 1.9-1.5 1.6-.6 1.7.3 1.6.9 2.4 1.3 1.8.3 2.6-.4zM63.2 137.3l3.5 2.3L89 106.4l.8-.9 1.2-.5.9-.5h1.3l1.4-.6.9-1.1 1-1.7.6-1.4.3-1.2-.2-1.1-3.6 3h-.9l-1.2-.3-.9-.8-.5-1-.2-1 .1-.9 3.5-3.2-1.4-.3-1.6.2-1.6.6-1.8 1-1 1-.3 1.5.1 1.5.2 2.3-.3 1.5-1.1 1.9z"/></svg>