<svg height="441.83" width="3788.09" xmlns="http://www.w3.org/2000/svg" xmlns:xlink="http://www.w3.org/1999/xlink"><linearGradient id="k" gradientTransform="matrix(2.55 0 0 -1 -3486.14 700.88)" gradientUnits="userSpaceOnUse" x1="1596.28" x2="1596.28" y1="473.31" y2="616.82"><stop offset="0" stop-color="#3a322b"/><stop offset=".05" stop-color="#706254"/><stop offset=".5" stop-color="#5e5346"/><stop offset="1" stop-color="#a8917c"/></linearGradient><linearGradient id="c" gradientTransform="rotate(180 848.055 350.44)" gradientUnits="userSpaceOnUse" x1="280.08" x2="280.08" y1="528.33" y2="610.55"><stop offset="0" stop-color="#3a322b"/><stop offset=".09" stop-color="#4a4137"/><stop offset="1" stop-color="#927e6c"/></linearGradient><linearGradient id="f" gradientTransform="rotate(180 848.055 350.44)" gradientUnits="userSpaceOnUse" x1="440.54" x2="488.01" y1="620.36" y2="620.36"><stop offset="0" stop-color="#927e6c"/><stop offset=".08" stop-color="#5d5146"/><stop offset=".29" stop-color="#7c6b5c"/><stop offset=".71" stop-color="#4a4137"/><stop offset="1" stop-color="#927e6c"/></linearGradient><linearGradient id="l" gradientTransform="rotate(180 848.055 350.44)" gradientUnits="userSpaceOnUse" x1="447.64" x2="496.4" y1="585.1" y2="585.1"><stop offset=".01" stop-color="#5c5045"/><stop offset=".96" stop-color="#4a4137"/><stop offset="1" stop-color="#3a322b"/></linearGradient><linearGradient id="a" gradientTransform="rotate(180 871.315 540)" gradientUnits="userSpaceOnUse" x1="1147.43" x2="1147.43" y1="330.83" y2="458.55"><stop offset="0" stop-color="#52483d"/><stop offset="1" stop-color="#3a322b"/></linearGradient><linearGradient id="m" gradientTransform="rotate(180 848.055 350.44)" x1="1653.85" x2="1653.85" xlink:href="#a" y1="347.34" y2="373.63"/><linearGradient id="n" gradientTransform="rotate(180 848.055 350.44)" x1="260.78" x2="260.78" xlink:href="#a" y1="287.58" y2="388.13"/><linearGradient id="g" gradientTransform="rotate(180 871.315 540)" gradientUnits="userSpaceOnUse" x1="767.92" x2="767.92" y1="450.88" y2="619.85"><stop offset="0" stop-color="#40372f"/><stop offset=".01" stop-color="#736356"/><stop offset=".95" stop-color="#827260"/><stop offset=".98" stop-color="#4d4239"/></linearGradient><linearGradient id="o" gradientUnits="userSpaceOnUse" x1="55.41" x2="55.41" y1="95.31" y2="224.94"><stop offset="0" stop-color="#3a322b"/><stop offset="1" stop-color="#5c5045"/></linearGradient><linearGradient id="b" gradientTransform="rotate(180 848.055 350.44)" gradientUnits="userSpaceOnUse" x1="1582.65" x2="1582.65" y1="618.16" y2="661.84"><stop offset="0" stop-color="#3a322b"/><stop offset=".05" stop-color="#5c5045"/><stop offset=".5" stop-color="#4a4137"/><stop offset="1" stop-color="#927e6c"/></linearGradient><linearGradient id="p" x1="1482.16" x2="1482.16" xlink:href="#b" y1="473.31" y2="616.82"/><linearGradient id="q" x1="749.23" x2="749.23" xlink:href="#c" y1="617.08" y2="680.07"/><linearGradient id="r" x1="543.25" x2="543.25" xlink:href="#c" y1="617.08" y2="680.07"/><linearGradient id="d" gradientTransform="rotate(180 848.055 350.44)" gradientUnits="userSpaceOnUse" x1="1171.75" x2="1171.75" y1="465.65" y2="624.91"><stop offset="0" stop-color="#3a322b"/><stop offset=".06" stop-color="#78685a"/><stop offset=".5" stop-color="#6e6051"/><stop offset="1" stop-color="#d2c8bd"/></linearGradient><linearGradient id="s" x1="1065.95" x2="1065.95" xlink:href="#d" y1="465.65" y2="624.91"/><linearGradient id="t" x1="918.81" x2="918.81" xlink:href="#d" y1="465.65" y2="624.91"/><linearGradient id="u" x1="1264.21" x2="1264.21" xlink:href="#d" y1="465.65" y2="624.91"/><linearGradient id="v" x1="1442.09" x2="1442.09" xlink:href="#d" y1="465.65" y2="624.91"/><linearGradient id="w" gradientTransform="rotate(180 848.055 350.44)" gradientUnits="userSpaceOnUse" x1="1571.64" x2="1571.64" y1="303.22" y2="450.88"><stop offset="0" stop-color="#665a4c"/><stop offset=".09" stop-color="#52483d"/><stop offset=".8" stop-color="#63564a"/><stop offset="1" stop-color="#927e6c"/></linearGradient><linearGradient id="e" gradientTransform="rotate(180 848.055 350.44)" gradientUnits="userSpaceOnUse" x1="1519.52" x2="1519.52" y1="316.91" y2="393.81"><stop offset="0" stop-color="#63564a"/><stop offset=".43" stop-color="#53483d"/><stop offset="1" stop-color="#927e6c"/></linearGradient><linearGradient id="x" x1="1626.17" x2="1626.17" xlink:href="#e" y1="308.06" y2="393.81"/><linearGradient id="y" x1="1623.45" x2="1623.45" xlink:href="#e" y1="405.71" y2="443.61"/><linearGradient id="z" gradientTransform="rotate(180 871.315 540)" gradientUnits="userSpaceOnUse" x1="653.3" x2="653.3" y1="450.88" y2="617.08"><stop offset="0" stop-color="#3a322b"/><stop offset=".01" stop-color="#5c5045"/><stop offset=".95" stop-color="#4a4137"/><stop offset=".98" stop-color="#3a322b"/></linearGradient><linearGradient id="A" x1="266.88" x2="314.35" xlink:href="#f" y1="620.36" y2="620.36"/><linearGradient id="B" x1="265.04" x2="316.19" xlink:href="#f" y1="631.13" y2="631.13"/><linearGradient id="C" x1="438.7" x2="489.85" xlink:href="#f" y1="631.13" y2="631.13"/><linearGradient id="D" x1="288.97" x2="288.97" xlink:href="#g" y1="388.13" y2="617.08"/><linearGradient id="E" gradientTransform="rotate(180 848.055 350.44)" gradientUnits="userSpaceOnUse" x1="615.44" x2="615.44" y1="667.53" y2="687.98"><stop offset="0" stop-color="#4a4137"/><stop offset="1" stop-color="#927e6c"/></linearGradient><linearGradient id="F" x1="1274.59" x2="1405.87" xlink:href="#f" y1="648.36" y2="648.36"/><linearGradient id="G" gradientTransform="rotate(180 871.315 540)" gradientUnits="userSpaceOnUse" x1="1274.59" x2="1405.87" y1="677.68" y2="677.68"><stop offset="0" stop-color="#927e6c"/><stop offset=".71" stop-color="#4a4137"/><stop offset="1" stop-color="#927e6c"/></linearGradient><linearGradient id="H" gradientTransform="rotate(180 871.315 540)" gradientUnits="userSpaceOnUse" x1="1340.23" x2="1340.23" y1="671.8" y2="683.57"><stop offset=".32" stop-color="#927e6c" stop-opacity="0"/><stop offset="1" stop-color="#d2c8bd"/></linearGradient><linearGradient id="I" gradientTransform="rotate(180 848.055 350.44)" gradientUnits="userSpaceOnUse" x1="1274.34" x2="1406.11" y1="672.01" y2="672.01"><stop offset="0" stop-color="#b09882"/><stop offset=".08" stop-color="#a38f7a"/><stop offset=".29" stop-color="#a38d79"/><stop offset=".71" stop-color="#827261"/><stop offset="1" stop-color="#b59c86"/></linearGradient><linearGradient id="J" x1="1456.22" x2="1527.92" xlink:href="#f" y1="624.91" y2="624.91"/><linearGradient id="K" x1="1456.22" x2="1527.92" xlink:href="#f" y1="665.08" y2="665.08"/><linearGradient id="L" gradientTransform="rotate(180 848.055 350.44)" gradientUnits="userSpaceOnUse" x1="1492.07" x2="1492.07" y1="632.75" y2="695.15"><stop offset=".93" stop-color="#3b332c" stop-opacity="0"/><stop offset="1" stop-color="#3a322b"/></linearGradient><linearGradient id="M" gradientTransform="matrix(1 0 0 -1 -1240.95 765.2)" x1="1452.48" x2="1531.1" xlink:href="#f" y1="382.6" y2="382.6"/><linearGradient id="N" gradientTransform="matrix(1 0 0 -1 -1240.95 765.2)" gradientUnits="userSpaceOnUse" x1="1491.79" x2="1491.79" y1="386.08" y2="379.12"><stop offset="0" stop-color="#3a322b" stop-opacity=".9"/><stop offset=".21" stop-color="#3a322b"/><stop offset=".69" stop-color="#3b332c" stop-opacity="0"/></linearGradient><linearGradient id="h" gradientUnits="userSpaceOnUse" x1="2137.99" x2="2137.99" y1="329.43" y2="121.74"><stop offset="0" stop-color="#806e5e"/><stop offset=".98" stop-color="#806e5e"/><stop offset="1" stop-color="#53493e"/></linearGradient><linearGradient id="i" gradientUnits="userSpaceOnUse" x1="2140.02" x2="2140.02" y1="329.58" y2="122.43"><stop offset="0" stop-color="#927e6c"/><stop offset=".99" stop-color="#917d6b"/><stop offset="1" stop-color="#53493e"/></linearGradient><linearGradient id="j" gradientUnits="userSpaceOnUse" x1="2138.19" x2="2138.19" y1="121.74" y2="110.23"><stop offset="0" stop-color="#63564a"/><stop offset="1" stop-color="#c5bbb0"/></linearGradient><linearGradient id="O" x1="2797.62" x2="2797.62" xlink:href="#h" y1="329.43" y2="121.74"/><linearGradient id="P" x1="2799.65" x2="2799.65" xlink:href="#i" y1="329.58" y2="122.43"/><linearGradient id="Q" x1="2797.81" x2="2797.81" xlink:href="#j" y1="121.74" y2="110.23"/><linearGradient id="R" x1="3457.25" x2="3457.25" xlink:href="#h" y1="329.43" y2="121.74"/><linearGradient id="S" x1="3459.27" x2="3459.27" xlink:href="#i" y1="329.58" y2="122.43"/><linearGradient id="T" x1="3457.44" x2="3457.44" xlink:href="#j" y1="121.74" y2="110.23"/><path d="M317.5 75.97h527.69v179.62H317.5z" fill="url(#k)"/><path d="M1248.47 90.33h335.13v82.22h-335.13z" fill="url(#c)"/><path d="M1208.1 70.71h47.47v19.62h-47.47z" fill="url(#f)"/><path d="M1199.71 83.03h48.76v65.49h-48.76z" fill="url(#l)"/><path d="M111.63 623.52h216.75a40.73 40.73 0 0125.64 0h195.27a40.73 40.73 0 0125.64 0h306.81v5.6h220.06l-53.91 58.6h10.36v23.63h9.26v3.37h6.66v2.21h30.42v-8.32h2.61v24h-2.61v-8.31h-30.42v2.21h-6.66v3h-9.26v19.65h-841v-57.3H189.5v-57.14H83.19v-11.2zm482.19 64.2h97.31v-53h-99a40.7 40.7 0 011.64 53zm-220.9 0H398v-39.35h43.44v39.35h88.92a40.7 40.7 0 011.65-53H371.28a40.68 40.68 0 011.64 53zm-80.15 0h16.71a40.7 40.7 0 011.65-53h-18.35v53z" fill="url(#a)" transform="translate(-46.52 -379.12)"/><path d="M6.91 329.5v8.31h9.64v-2.2h19.72v-2.97h7.63v-5.39h36.32v25.19H43.9v-1.63h-7.63v-3.37H16.55v-2.21H6.91v8.32H4.29V329.5z" fill="url(#m)"/><path d="M1064.05 329.5v8.31h18.09v-2.2h19.74v-2.97h8.14v-19.89h591.8v14.49h56.48v5h10.48v3.37h19.73v2.2h18.1v-8.31h2.6v24.05h-2.6v-8.31h-18.1v2.2h-19.73v2.96h-10.48v25.29h-470.46v37.62h-101.4v-37.62h-76.42v-24.88h-8.14v-3.37h-19.74v-2.21h-18.09v8.32h-2.62V329.5z" fill="url(#n)"/><path d="M1067.88 460.15v169H881.55v-169zm-84.49 61a12 12 0 0012 12h38.86a12 12 0 0012-12v-42.96a12 12 0 00-12-12h-38.86a12 12 0 00-12 12zm-80.93 0a12 12 0 0012 12h38.86a12 12 0 0012-12v-42.96a12 12 0 00-12-12h-38.86a12 12 0 00-12 12z" fill="url(#g)" transform="translate(-46.52 -379.12)"/><path d="M1064.28 87.07h41.78V250h-41.78z" fill="#3a322b"/><ellipse cx="55.41" cy="160.12" fill="url(#o)" rx="55.41" ry="64.82"/><path d="M101.48 130.86h8.93v8.93h-8.93zm0 57.18h8.93v8.93h-8.93z" fill="#453c34"/><path d="M48.85 87.36v-7.74l-3.26-12.21 25.28-3.37-2.15 7.84h4.9c.77 4.64-3.1 8.51-3.1 8.51v7l-6.8 5.13-2.44 1.84v5.42l7.69 6.19 4.75 4.64 19.25 6.2h15.08l12.83 4.64-21.72 7.74h-17.8l-3.88 10.03v11.66l-6.2 33.28-7.74 15.49-7.74 25.54-1.55 4.65 17 3.09.78 3.87H43.48l3-34.1-3.09-7 3.87-17.81-.78-10.01-3-10.85v-20.15l-3.87-13.16V98.2z" fill="#332c25"/><path d="M94.07 39.05h38.77v43.68H94.07z" fill="url(#b)"/><path d="M110.41 75.97H317.5v179.62H110.41z" fill="url(#p)"/><path d="M829.49 20.81h234.79V83.8H829.49z" fill="url(#q)"/><path d="M1099.46 20.81h106.8V83.8h-106.8z" fill="url(#r)"/><path d="M30.41 236.12h804.81v8.28H30.41z" fill="#927e6c"/><path d="M644.17 145.43h3.24v94.83h-3.24zm-194.02 0h3.24v94.83h-3.24z" fill="#927e6c"/><path d="M520.91 75.97h6.9v159.27h-6.9z" fill="url(#d)"/><path d="M626.71 75.97h6.9v159.27h-6.9z" fill="url(#s)"/><path d="M773.85 75.97h6.9v159.27h-6.9z" fill="url(#t)"/><path d="M428.45 75.97h6.9v159.27h-6.9z" fill="url(#u)"/><path d="M250.57 75.97h6.9v159.27h-6.9z" fill="url(#v)"/><path d="M259.69 145.43h3.24v94.83h-3.24zm-192.99 0h3.24v94.83H66.7z" fill="#927e6c"/><circle cx="656.73" cy="370.04" fill="#53493e" r="57.3"/><circle cx="787.89" cy="370.04" fill="#53493e" r="57.3"/><circle cx="529.01" cy="370.04" fill="#53493e" r="57.3"/><circle cx="397.85" cy="370.04" fill="#53493e" r="57.3"/><circle cx="264.61" cy="370.04" fill="#53493e" r="57.3"/><path d="M74.77 250h99.41v147.66H74.77z" fill="url(#w)"/><path d="M174.18 307.07h4.83v76.9h-4.83z" fill="url(#e)"/><path d="M65.11 307.07h9.66v85.75h-9.66z" fill="url(#x)"/><path d="M70.56 257.27h4.21v37.9h-4.21z" fill="url(#y)"/><path d="M835.03 250h186.33v8.3H835.03z" fill="#927e6c"/><path d="M1110.8 462.92v166.2h-42.93v-166.2zm-36.89 59.27a5.35 5.35 0 005.33 5.33h21.33a5.35 5.35 0 005.33-5.33v-44.6a5.35 5.35 0 00-5.33-5.33h-21.33a5.35 5.35 0 00-5.33 5.33z" fill="url(#z)" transform="translate(-46.52 -379.12)"/><path d="M1381.76 70.71h47.47v19.62h-47.47z" fill="url(#A)"/><path d="M1379.92 68.08h51.15v3.33h-51.15z" fill="url(#B)"/><path d="M1206.26 68.08h51.15v3.33h-51.15z" fill="url(#C)"/><path d="M1246.23 462.92v63h337.18a51.45 51.45 0 0151.45 51.45h119.87v114.5h-602.14V462.92z" fill="url(#D)" transform="translate(-46.52 -379.12)"/><path d="M736.05 359.65a52.88 52.88 0 1141.43 62.23 52.88 52.88 0 01-41.43-62.23zm53.43 53.16l-2.19-24.74a18.61 18.61 0 01-3-.32 17.8 17.8 0 01-2.64-.76l-11.54 22a42.65 42.65 0 0019.37 3.82zm-13.28-67a27.09 27.09 0 00-8.51 6.52l7.2 5.2a18.11 18.11 0 014.42-3.37zm-11.42 10.58a26.69 26.69 0 00-3.45 10l8.82.48c0-.12 0-.24.05-.35a17.77 17.77 0 011.77-4.93zm19.21-4a17.48 17.48 0 015-.38l4.89-24.37a42.57 42.57 0 00-18.52 1.46zm14.74-23.78l-4.89 24.37a18.05 18.05 0 014.3 2.16l17.34-17.85a42.58 42.58 0 00-16.75-8.64zm20.33 12.08l-17.24 17.83a18.41 18.41 0 012.75 4.56l24.23-5.69a43.16 43.16 0 00-9.74-16.66zm10.91 21.55l-24.16 5.68a17.85 17.85 0 01-.23 5.63l-.06.22 23.41 8.29c.35-1.19.66-2.41.91-3.65a42.33 42.33 0 00.13-16.13zm-26.2 16.34a17.9 17.9 0 01-2.81 3.84l15.25 19.66a42.65 42.65 0 0011-15.2zm-6.71 7a17.85 17.85 0 01-4.8 2l2.2 24.8a42.79 42.79 0 0017.83-7.15zm-31.31 21.1l11.55-22a17.77 17.77 0 01-3.65-3.54l-21.61 12.29a42.86 42.86 0 0013.71 13.25zm-16.18-17.61l21.59-12.28a18 18 0 01-1.22-4.95l-24.83-1.34a42.34 42.34 0 004.46 18.57z" fill="#63564a"/><circle cx="1162.51" cy="388.59" fill="#53493e" r="40.32"/><path d="M604.88 359.65a52.88 52.88 0 1141.45 62.23 52.88 52.88 0 01-41.45-62.23zm53.44 53.16l-2.19-24.74a18.61 18.61 0 01-2.95-.32 17.8 17.8 0 01-2.64-.76l-11.54 22a42.65 42.65 0 0019.32 3.81zm-13.28-67a27.09 27.09 0 00-8.51 6.52l7.2 5.2a18.11 18.11 0 014.42-3.37zm-11.43 10.57a26.69 26.69 0 00-3.45 10l8.82.48v-.35a17.77 17.77 0 011.77-4.93zm19.21-4a17.48 17.48 0 015-.38l4.89-24.37a42.51 42.51 0 00-18.51 1.46zm14.75-23.78l-4.89 24.37a18.05 18.05 0 014.3 2.16l17.3-17.89a42.58 42.58 0 00-16.71-8.59zm20.33 12.08l-17.24 17.83a18.41 18.41 0 012.75 4.56l24.23-5.69a43.16 43.16 0 00-9.74-16.65zm10.91 21.55l-24.16 5.68a17.85 17.85 0 01-.23 5.63l-.06.22 23.41 8.29c.35-1.19.66-2.41.91-3.65a42.54 42.54 0 00.13-16.12zm-26.2 16.34a17.9 17.9 0 01-2.81 3.84l15.25 19.66a42.65 42.65 0 0011-15.2zm-6.72 7a17.85 17.85 0 01-4.8 2l2.2 24.8a42.79 42.79 0 0017.83-7.15zm-31.3 21.11l11.55-22a17.77 17.77 0 01-3.65-3.54l-21.61 12.26a42.86 42.86 0 0013.71 13.28zm-16.19-17.61l21.59-12.28a18 18 0 01-1.22-4.95l-24.83-1.34a42.48 42.48 0 004.46 18.57zm-140.75-29.42a52.88 52.88 0 1141.45 62.23 52.88 52.88 0 01-41.45-62.23zm53.44 53.16l-2.19-24.74a18.61 18.61 0 01-2.95-.32 17.8 17.8 0 01-2.64-.76l-11.54 22a42.65 42.65 0 0019.32 3.81zm-13.28-67a27.09 27.09 0 00-8.51 6.52l7.2 5.2a18.11 18.11 0 014.42-3.37zm-11.43 10.58a26.69 26.69 0 00-3.45 10l8.82.48c0-.12 0-.24.05-.35a17.77 17.77 0 011.77-4.93zm19.21-4a17.48 17.48 0 015-.38l4.89-24.33a42.51 42.51 0 00-18.51 1.46zm14.75-23.78l-4.86 24.41a18.05 18.05 0 014.3 2.16l17.3-17.89a42.65 42.65 0 00-16.74-8.64zm20.32 12.08l-17.24 17.83a18.41 18.41 0 012.75 4.56l24.23-5.69a42.91 42.91 0 00-9.74-16.66zm10.92 21.59l-24.16 5.68a17.85 17.85 0 01-.23 5.63l-.06.22 23.41 8.29c.35-1.19.66-2.41.91-3.65a42.54 42.54 0 00.13-16.17zm-26.2 16.34a17.9 17.9 0 01-2.81 3.84l15.25 19.66a42.65 42.65 0 0011-15.2zm-6.72 7a17.85 17.85 0 01-4.8 2l2.2 24.8a42.79 42.79 0 0017.83-7.15zm-31.3 21.11l11.55-22a17.77 17.77 0 01-3.65-3.54l-21.61 12.29a42.76 42.76 0 0013.71 13.2zm-16.19-17.61l21.59-12.28a18 18 0 01-1.22-4.95l-24.83-1.34a42.48 42.48 0 004.46 18.52zm-144.13-29.47a52.88 52.88 0 1141.44 62.23 52.88 52.88 0 01-41.44-62.23zm53.44 53.16l-2.19-24.74a18.61 18.61 0 01-2.95-.32 17.8 17.8 0 01-2.64-.76l-11.54 22a42.65 42.65 0 0019.32 3.82zm-13.28-67a27.09 27.09 0 00-8.51 6.52l7.2 5.2a18.11 18.11 0 014.42-3.37zm-11.43 10.57a26.69 26.69 0 00-3.45 10l8.82.48v-.35a17.77 17.77 0 011.77-4.93zm19.21-4a17.48 17.48 0 015-.38l4.89-24.37a42.51 42.51 0 00-18.51 1.46zm14.75-23.78l-4.89 24.37a18.05 18.05 0 014.3 2.16l17.34-17.84a42.58 42.58 0 00-16.75-8.64zm20.32 12.08l-17.24 17.83a18.41 18.41 0 012.75 4.56l24.23-5.69a42.91 42.91 0 00-9.74-16.65zm10.92 21.55l-24.16 5.68a17.85 17.85 0 01-.23 5.63l-.06.22 23.41 8.29c.35-1.19.66-2.41.91-3.65a42.54 42.54 0 00.13-16.12zm-26.2 16.34a17.9 17.9 0 01-2.81 3.84l15.25 19.66a42.65 42.65 0 0011-15.2zm-6.72 7a17.85 17.85 0 01-4.8 2l2.2 24.8a42.79 42.79 0 0017.83-7.15zm-31.3 21.11l11.55-22a17.77 17.77 0 01-3.65-3.54l-21.61 12.29a42.76 42.76 0 0013.71 13.25zm-16.19-17.61l21.59-12.28a18 18 0 01-1.22-4.95l-24.83-1.34a42.48 42.48 0 004.46 18.57zm-147.79-29.42a52.88 52.88 0 1141.45 62.23 52.88 52.88 0 01-41.45-62.23zm53.44 53.16l-2.19-24.74a18.61 18.61 0 01-3-.32 17.8 17.8 0 01-2.64-.76l-11.54 22a42.65 42.65 0 0019.32 3.81zm-13.28-67a27.09 27.09 0 00-8.51 6.52l7.2 5.2a18.11 18.11 0 014.42-3.37zm-11.45 10.58a26.69 26.69 0 00-3.45 10l8.82.48c0-.12 0-.24.05-.35a17.77 17.77 0 011.77-4.93zm19.21-4a17.48 17.48 0 015-.38l4.89-24.37a42.51 42.51 0 00-18.51 1.46zm14.79-23.74l-4.89 24.37a18.05 18.05 0 014.3 2.16l17.3-17.89a42.65 42.65 0 00-16.71-8.64zm20.32 12.08l-17.24 17.83a18.41 18.41 0 012.75 4.56l24.17-5.69a42.91 42.91 0 00-9.7-16.7zm10.92 21.55l-24.16 5.68a17.85 17.85 0 01-.23 5.63l-.06.22 23.41 8.29c.35-1.19.66-2.41.91-3.65a42.54 42.54 0 00.11-16.17zm-26.24 16.34a17.9 17.9 0 01-2.81 3.84l15.25 19.66a42.65 42.65 0 0011-15.2zm-6.72 7a17.85 17.85 0 01-4.8 2l2.2 24.8a42.79 42.79 0 0017.83-7.15zm-31.28 21.06l11.55-22a17.77 17.77 0 01-3.65-3.54l-21.61 12.29a42.76 42.76 0 0013.71 13.25zm-16.19-17.61l21.59-12.28a18 18 0 01-1.22-4.95l-24.83-1.34a42.48 42.48 0 004.46 18.57zm936.19-34.89a34.41 34.41 0 11-34.41 34.41 34.41 34.41 0 0134.41-34.41zm0 62.19a27.78 27.78 0 10-27.78-27.78 27.78 27.78 0 0027.78 27.78z" fill="#63564a"/><path d="M1156.48 403.59h12a5.51 5.51 0 005.51-5.51v-19a5.51 5.51 0 00-5.51-5.51h-12a5.51 5.51 0 00-5.51 5.51v19a5.51 5.51 0 005.51 5.51z" fill="#63564a"/><circle cx="1162.51" cy="388.59" fill="#53493e" r="9"/><circle cx="1309.01" cy="388.59" fill="#53493e" r="40.32"/><path d="M1309.01 354.18a34.41 34.41 0 11-34.41 34.41 34.41 34.41 0 0134.41-34.41zm0 62.19a27.78 27.78 0 10-27.78-27.78 27.78 27.78 0 0027.78 27.78z" fill="#63564a"/><path d="M1303.02 403.59h12a5.51 5.51 0 005.51-5.51v-19a5.51 5.51 0 00-5.51-5.51h-12a5.51 5.51 0 00-5.51 5.51v19a5.5 5.5 0 005.51 5.51z" fill="#63564a"/><circle cx="1309.01" cy="388.59" fill="#53493e" r="9"/><path d="M1538.95 344.96h101.39v68.34h-101.39z" fill="#53493e"/><circle cx="1515.01" cy="388.59" fill="#53493e" r="40.32"/><path d="M1515.01 354.18a34.41 34.41 0 11-34.41 34.41 34.41 34.41 0 0134.41-34.41zm0 62.19a27.78 27.78 0 10-27.78-27.78 27.78 27.78 0 0027.78 27.78z" fill="#63564a"/><path d="M1509.02 403.59h12a5.51 5.51 0 005.51-5.51v-19a5.51 5.51 0 00-5.51-5.51h-12a5.51 5.51 0 00-5.51 5.51v19a5.5 5.5 0 005.51 5.51z" fill="#63564a"/><circle cx="1515.01" cy="388.59" fill="#53493e" r="9"/><circle cx="1661.5" cy="388.59" fill="#53493e" r="40.32"/><path d="M1661.48 354.18a34.41 34.41 0 11-34.41 34.41 34.41 34.41 0 0134.41-34.41zm0 62.19a27.78 27.78 0 10-27.78-27.78 27.78 27.78 0 0027.78 27.78z" fill="#63564a"/><path d="M1655.48 403.59h12a5.51 5.51 0 005.51-5.51v-19a5.51 5.51 0 00-5.51-5.51h-12a5.51 5.51 0 00-5.51 5.51v19a5.51 5.51 0 005.51 5.51z" fill="#63564a"/><circle cx="1661.5" cy="388.59" fill="#53493e" r="9"/><path d="M1055.28 12.9h50.78v20.45h-50.78z" fill="url(#E)"/><path d="M45.72 297.67h6.31a13.07 13.07 0 013.39 25.7v4.2h-3.5v-3.69h-6.19v-26.21z" fill="#3a322b"/><path d="M290.24 29.08h131.28v46.89H290.24z" fill="url(#F)"/><path d="M355.42 396.43h93.95c10.31 0 18.66 5.27 18.66 11.77H336.76c.01-6.51 8.37-11.77 18.66-11.77z" fill="url(#G)" transform="translate(-46.52 -379.12)"/><path d="M355.42 396.43h93.95c10.31 0 18.66 5.27 18.66 11.77H336.76c.01-6.51 8.37-11.77 18.66-11.77z" fill="url(#H)" transform="translate(-46.52 -379.12)"/><path d="M421.77 30.3v-2.84H290v2.84z" fill="url(#I)"/><g fill="#927e6c"><path d="M65.11 149.88h770.11v4.14H65.11zm0 38.48h770.11v4.14H65.11zm222.61 172.49h532.75v9.63H287.72zm-108.71-23.73h176.93v8.4H179.01zm0 36.34h94.01v5.36h-94.01z"/><path d="M266.49 303.75h8.15v76.39h-8.15z"/><path d="M179.01 311.94h94.01v2.68h-94.01zm88.47-12.4h114.79v5.54H267.48z"/><circle cx="819.19" cy="365.66" r="10.01"/><circle cx="686.76" cy="365.66" r="10.01"/><circle cx="554.32" cy="365.66" r="10.01"/><circle cx="421.89" cy="365.66" r="10.01"/><circle cx="521.7" cy="385.67" r="10.01"/><circle cx="357.6" cy="341.94" r="10.01"/><circle cx="289.46" cy="365.66" r="10.01"/><path d="M361.056 348.781l1.76-6.837 158.916 40.921-1.76 6.837zM249.04 331.93h40.42v20.01h-40.42z"/><path d="M258.76 347.73h22.8v20.56h-22.8zm106.12-75.62h12.8v31.64h-12.8z"/><path d="M353.972 336.112l14.664-39.304 7.71 2.877-14.663 39.304zm12.575-62.512l13.094-35.097 7.711 2.877-13.094 35.097zM263.24 368.29h13.46v15.7h-13.46z"/></g><path d="M168.19 83.81h71.7l-4.84-15.67h-62.63z" fill="url(#J)"/><path d="M168.19 3.48h71.7l-4.84 64.66h-62.63z" fill="url(#K)"/><path d="M168.19 5.73h71.7l-4.84 62.41h-62.63z" fill="url(#L)"/><rect fill="url(#M)" height="6.97" rx="3.48" transform="rotate(180 227.575 193.04)" width="78.61" x="211.53" y="379.12"/><rect fill="url(#N)" height="6.97" rx="3.48" transform="rotate(180 227.575 193.04)" width="78.61" x="211.53" y="379.12"/><path d="M151.22 269.21v6.6l-3.05 8.12 9.65 7.11 5.07 3.55 3.56 7.11v26.9l-5.08 5.07-.51 3.56 2.54 3 7.61 18.78c-3 1.52-4.06 9.14-4.06 9.14l.51 7.1-2.54 16.25 2 4.56-1 5.59s7.1 6.6 5.07 8.12 4.07 31.47 4.07 31.47h-13.44l-6.85-27.92-4.06-3-2.54-5.59-2.53-8.12-6.59-10.15-3.06-5.58-3.51 5.58-3.55 8.63-5.59 4.06v9.64l-4.06 9.14-2 23.35h-15.8l4.06-33 1-12.19.51-6.09-2-20.3 5.81-10.15-4.29-1.52 9.65-20.31 3-3.55-.5-5.58h-3.54l-4.34.51-3.27-6.09-1-5.59 4.29-10.66 4.34-14.21 6.6-4.57 7.11-2a26.66 26.66 0 003-6.59l-3-2-.51-4.56 2.54-3.56-1.53-6.09 2.54-3h20.81l1 5.07z" fill="#332c25"/><path d="M2392.94 114.19l-70.76-28.69-51.63-14.34-97.53 21.99-97.53 23.91-79.37-16.26h-82.23l-40.16 17.21v15.3h519.21zm1332.56 15l-230.83-63.13-100.62-.99-65.1 26.63-126.26 39.46zm-857.79-13.82c-5.92-1-96.67-30.58-96.67-30.58l-100.62-3.91-108.63 37.84z" fill="#4f453b"/><path d="M2428.79 329.43h-581.6V121.74h581.6z" fill="url(#h)"/><path d="M1851.027 123.754l5.293-5.027 197.293 207.758-5.293 5.027z" fill="#927e6c"/><path d="M2049.86 122.43h180.32v207.15h-180.32z" fill="url(#i)"/><path d="M2421.49 122.43h7.3v207.15h-7.3zm-574.29 0h7.3v207.15h-7.3z" fill="#927e6c"/><path d="M2432.18 110.23h-587.99v11.51h587.99z" fill="url(#j)"/><path d="M2230.073 331.508l-5.294-5.026 197.293-207.759 5.294 5.027z" fill="#927e6c"/><circle cx="1976.6" cy="385.6" fill="#53493e" r="44"/><circle cx="2300.05" cy="385.6" fill="#53493e" r="44"/><path d="M1849.25 329.02h578.15v40h-578.15z" fill="#53493e"/><path d="M1859.09 341.6h57v57h-57z" fill="#53493e"/><path d="M1982.84 400.6h-12a5.51 5.51 0 01-5.51-5.51v-19a5.51 5.51 0 015.51-5.51h12a5.51 5.51 0 015.51 5.51v19a5.51 5.51 0 01-5.51 5.51z" fill="#63564a"/><circle cx="1976.85" cy="385.6" fill="#53493e" r="9"/><path d="M2307.29 400.6h-12a5.51 5.51 0 01-5.51-5.51v-19a5.51 5.51 0 015.51-5.51h12a5.51 5.51 0 015.51 5.51v19a5.51 5.51 0 01-5.51 5.51z" fill="#63564a"/><circle cx="2301.3" cy="385.6" fill="#53493e" r="9"/><path d="M1835.36 332.31v3.37h-12.33v2.22h-11.2v-8.32h-2.61v8.32h-.01v7.42h.01v8.31h2.61v-8.31h11.2v2.2h12.33v2.96h21.21v-18.17zm607.34 18.59v-3.37h12.33v-2.22h11.2v8.32h2.61v-24.05h-2.61v8.31h-11.2v-2.2h-12.33v-2.96h-21.21v18.17z" fill="#53493e"/><path d="M3088.42 329.43h-581.6V121.74h581.6z" fill="url(#O)"/><path d="M2510.667 123.758l5.293-5.027 197.293 207.758-5.293 5.027z" fill="#927e6c"/><path d="M2709.49 122.43h180.32v207.15h-180.32z" fill="url(#P)"/><path d="M3081.12 122.43h7.3v207.15h-7.3zm-574.3 0h7.3v207.15h-7.3z" fill="#927e6c"/><path d="M3091.81 110.23h-587.99v11.51h587.99z" fill="url(#Q)"/><path d="M2889.683 331.512l-5.294-5.027 197.293-207.758 5.294 5.027z" fill="#927e6c"/><circle cx="2636.22" cy="385.6" fill="#53493e" r="44"/><circle cx="2959.67" cy="385.6" fill="#53493e" r="44"/><path d="M2508.87 329.02h578.15v40h-578.15z" fill="#53493e"/><path d="M2518.71 341.6h57v57h-57z" fill="#53493e"/><path d="M2642.48 400.6h-12a5.51 5.51 0 01-5.51-5.51v-19a5.51 5.51 0 015.51-5.51h12a5.51 5.51 0 015.51 5.51v19a5.51 5.51 0 01-5.51 5.51z" fill="#63564a"/><circle cx="2636.47" cy="385.6" fill="#53493e" r="9"/><path d="M2966.91 400.6h-12a5.51 5.51 0 01-5.51-5.51v-19a5.51 5.51 0 015.51-5.51h12a5.51 5.51 0 015.51 5.51v19a5.51 5.51 0 01-5.51 5.51z" fill="#63564a"/><circle cx="2960.92" cy="385.6" fill="#53493e" r="9"/><path d="M2494.98 332.31v3.37h-12.33v2.22h-11.2v-8.32h-2.61v24.05h2.61v-8.31h11.2v2.2h12.33v2.96h21.21v-18.17zm607.35 18.59v-3.37h12.33v-2.22h11.2v8.32h2.61v-24.05h-2.61v8.31h-11.2v-2.2h-12.33v-2.96h-21.21v18.17z" fill="#53493e"/><path d="M3748.05 329.43h-581.6V121.74h581.6z" fill="url(#R)"/><path d="M3170.307 123.762l5.294-5.027 197.293 207.758-5.294 5.027z" fill="#927e6c"/><path d="M3369.11 122.43h180.32v207.15h-180.32z" fill="url(#S)"/><path d="M3740.74 122.43h7.3v207.15h-7.3zm-574.29 0h7.3v207.15h-7.3z" fill="#927e6c"/><path d="M3751.43 110.23h-587.98v11.51h587.98z" fill="url(#T)"/><path d="M3549.31 331.523l-5.294-5.027 197.293-207.758 5.294 5.026z" fill="#927e6c"/><circle cx="3295.85" cy="385.6" fill="#53493e" r="44"/><circle cx="3619.3" cy="385.6" fill="#53493e" r="44"/><path d="M3168.5 329.02h578.15v40H3168.5z" fill="#53493e"/><path d="M3178.34 341.6h57v57h-57z" fill="#53493e"/><path d="M3302.09 400.6h-12a5.51 5.51 0 01-5.51-5.51v-19a5.51 5.51 0 015.51-5.51h12a5.51 5.51 0 015.51 5.51v19a5.51 5.51 0 01-5.51 5.51z" fill="#63564a"/><circle cx="3296.1" cy="385.6" fill="#53493e" r="9"/><path d="M3626.54 400.6h-12a5.51 5.51 0 01-5.51-5.51v-19a5.51 5.51 0 015.51-5.51h12a5.51 5.51 0 015.51 5.51v19a5.51 5.51 0 01-5.51 5.51z" fill="#63564a"/><circle cx="3620.55" cy="385.6" fill="#53493e" r="9"/><path d="M3154.61 332.31v3.37h-12.33v2.22h-11.2v-8.32h-2.61v24.05h2.61v-8.31h11.2v2.2h12.33v2.96h21.21v-18.17zm607.34 18.59v-3.37h12.33v-2.22h11.2v8.32h2.61v-24.05h-2.61v8.31h-11.2v-2.2h-12.33v-2.96h-21.21v18.17z" fill="#53493e"/><path d="M766.48 438.88h-28.81l4.25-5.68-1.44-3.75-9.47-23.65 1-21.29 1.89-13.72-6.15-11.35v-6.62l-3.78-2.37h-9.94l-7.09 3.78-10.88 1.42-6.63.48-4.26-1.9v-3.78h11.81l4.73-4.26 4.73-4.26 5.68-5.2-2.37-8.51-.47-8.05 1.42-7.09-1-2.84-3.73-2.36h-3.31l-.95-3.31h-3.31l-2.36-3.31-.48-3.79 1.89-4.25-2.36-2.34v-4.3h21.76l2.84 5.21a7.22 7.22 0 001.89 5.67l4.26-.94 3.31 4.26 12.3.47 4.26 4.73 4.26 6.62-.49 3.28 3.32 1.9 5.2 7.09.47 6.15 1.42 4.26 4.26 7.57 2.33 13.28s-4.73 20.81-4.25 22.23-.48 17-.48 17 2.37 18.45 2.37 21.29 2.36 17 2.36 17zM290.57 293.51l-19.22-6-3-4.2-3.6-7.2 1.2-6-12-3.6-8.41 3.6-4.2 3.6v6.31l4.2 8.11v5.4l-.6 5.4-7.2 6.61-2.41 9 6 6.6 2.4 12 1.8 4.8-2.4 11.41.6 14.41s3 3 3 5.41 1.2 12.61 1.2 12.61l.61 22.82 5.4 8.4s-1.2 9.7-.6 9.7 1.2 19.13 1.2 19.13h13.81v-24.62l4.2-7.21-1.2-6s-1.8-4.21-1.8-7.21.6-10.81.6-10.81l1.8-9 10.21 17.42a54.32 54.32 0 013.6 6.6c.6 1.8 0 11.41 0 11.41l4.81 2.4 4.2 27h15.61l-6-27 6-6v-8.41l-6.6-19.21-3.6-18.62 2.4-8.4 7.8-4.81-3.6-16.21-3.6-9z" fill="#332c25"/></svg>