<svg fill="none" height="50" width="211" xmlns="http://www.w3.org/2000/svg" xmlns:xlink="http://www.w3.org/1999/xlink"><linearGradient id="b" gradientUnits="userSpaceOnUse" x1="105.381" x2="105.886" y1="20.821" y2="44.855"><stop offset="0"/><stop offset="1" stop-color="#b07e6e" stop-opacity="0"/></linearGradient><linearGradient id="c" gradientUnits="userSpaceOnUse" x1="105.448" x2="105.951" y1="19.873" y2="43.927"><stop offset=".3" stop-color="#e3cfcc"/><stop offset=".94" stop-color="#b07e6e"/></linearGradient><linearGradient id="a"><stop offset="0" stop-color="#dabdb9"/><stop offset=".53" stop-color="#d8bbb7"/><stop offset=".72" stop-color="#d1b5b1"/><stop offset=".85" stop-color="#c6aba7"/><stop offset=".88" stop-color="#c2a8a4"/><stop offset=".89" stop-color="#b79d98"/><stop offset=".91" stop-color="#9e847d"/></linearGradient><radialGradient id="d" cx="0" cy="0" gradientTransform="rotate(1.589 -630.965 7325.693) scale(7.25492)" gradientUnits="userSpaceOnUse" r="1" xlink:href="#a"/><radialGradient id="e" cx="0" cy="0" gradientTransform="rotate(4 -122695.459 -146855.474) scale(110.635)" gradientUnits="userSpaceOnUse" r="1" xlink:href="#a"/><linearGradient id="f" gradientUnits="userSpaceOnUse" x1="108.885" x2="108.9" y1="22.62" y2="26.129"><stop offset="0" stop-color="#591c16"/><stop offset=".06" stop-color="#5d1d17"/><stop offset=".13" stop-color="#6a211a"/><stop offset=".19" stop-color="#7e261e"/><stop offset=".24" stop-color="#922c23"/><stop offset=".47" stop-color="#bf3029"/><stop offset="1" stop-color="#571210"/></linearGradient><path clip-rule="evenodd" d="M12.764 14.395a16.27 16.27 0 0111.848 5.6l167.54-.885a10.765 10.765 0 018.051-4.32 9.819 9.819 0 017.155 16.515 9.82 9.82 0 01-6.713 3.114 12.341 12.341 0 01-7.93-2.86L24.948 30.253a16.059 16.059 0 01-11.789 5.872 10.933 10.933 0 01-2.581-21.713l.524-.043.614-.038z" fill="url(#b)" fill-rule="evenodd"/><path clip-rule="evenodd" d="M12.831 13.437a16.22 16.22 0 0111.847 5.62l167.54-.895a10.797 10.797 0 018.051-4.309 9.82 9.82 0 01.441 19.629 12.448 12.448 0 01-7.929-2.86L25.014 29.296a15.998 15.998 0 01-11.788 5.871A10.931 10.931 0 016.52 14.733a10.93 10.93 0 014.125-1.269l.525-.053c.2.014.414-.041.615-.047z" fill="url(#c)" fill-rule="evenodd"/><path d="M200.037 30.928a7.25 7.25 0 101.011-14.464 7.25 7.25 0 00-1.011 14.465z" fill="url(#d)"/><path d="M12.265 31.281a7.25 7.25 0 101.011-14.465 7.25 7.25 0 00-1.011 14.465z" fill="url(#e)"/><path clip-rule="evenodd" d="M191.126 21.604l.119 5.171-164.525.064-.176-4.223z" fill="url(#f)" fill-rule="evenodd"/></svg>