<svg width="211" height="50" fill="none" xmlns="http://www.w3.org/2000/svg"><path fill-rule="evenodd" clip-rule="evenodd" d="M12.764 14.395a16.27 16.27 0 0111.848 5.6l167.54-.885a10.765 10.765 0 018.051-4.32 9.819 9.819 0 017.155 16.515 9.82 9.82 0 01-6.713 3.114 12.341 12.341 0 01-7.93-2.86L24.948 30.253a16.059 16.059 0 01-11.789 5.872 10.933 10.933 0 01-2.581-21.713l.524-.043.614-.038 1.048.064z" fill="url(#paint0_linear)"/><path fill-rule="evenodd" clip-rule="evenodd" d="M12.831 13.437a16.22 16.22 0 0111.847 5.62l167.54-.895a10.797 10.797 0 018.051-4.309 9.82 9.82 0 01.441 19.629 12.448 12.448 0 01-7.929-2.86L25.014 29.296a15.998 15.998 0 01-11.788 5.871A10.931 10.931 0 016.52 14.733a10.93 10.93 0 014.125-1.269l.525-.053c.2.014.414-.041.615-.047l1.047.073z" fill="url(#paint1_linear)"/><path d="M200.037 30.928a7.25 7.25 0 101.011-14.464 7.25 7.25 0 00-1.011 14.465z" fill="url(#paint2_radial)"/><path d="M12.265 31.281a7.25 7.25 0 101.011-14.465 7.25 7.25 0 00-1.011 14.465z" fill="url(#paint3_radial)"/><path fill-rule="evenodd" clip-rule="evenodd" d="M191.126 21.604l.119 5.171-164.525.064-.176-4.223 164.582-1.012z" fill="url(#paint4_linear)"/><defs><linearGradient id="paint0_linear" x1="105.381" y1="20.821" x2="105.886" y2="44.855" gradientUnits="userSpaceOnUse"><stop/><stop offset="1" stop-color="#B07E6E" stop-opacity="0"/></linearGradient><linearGradient id="paint1_linear" x1="105.448" y1="19.873" x2="105.951" y2="43.927" gradientUnits="userSpaceOnUse"><stop offset=".3" stop-color="#E3CFCC"/><stop offset=".94" stop-color="#B07E6E"/></linearGradient><linearGradient id="paint4_linear" x1="108.885" y1="22.62" x2="108.9" y2="26.129" gradientUnits="userSpaceOnUse"><stop stop-color="#591C16"/><stop offset=".06" stop-color="#5D1D17"/><stop offset=".13" stop-color="#6A211A"/><stop offset=".19" stop-color="#7E261E"/><stop offset=".24" stop-color="#922C23"/><stop offset=".47" stop-color="#BF3029"/><stop offset="1" stop-color="#571210"/></linearGradient><radialGradient id="paint2_radial" cx="0" cy="0" r="1" gradientUnits="userSpaceOnUse" gradientTransform="rotate(1.589 -630.965 7325.693) scale(7.25492)"><stop stop-color="#DABDB9"/><stop offset=".53" stop-color="#D8BBB7"/><stop offset=".72" stop-color="#D1B5B1"/><stop offset=".85" stop-color="#C6ABA7"/><stop offset=".88" stop-color="#C2A8A4"/><stop offset=".89" stop-color="#B79D98"/><stop offset=".91" stop-color="#9E847D"/></radialGradient><radialGradient id="paint3_radial" cx="0" cy="0" r="1" gradientUnits="userSpaceOnUse" gradientTransform="rotate(4 -122695.459 -146855.474) scale(110.635)"><stop stop-color="#DABDB9"/><stop offset=".53" stop-color="#D8BBB7"/><stop offset=".72" stop-color="#D1B5B1"/><stop offset=".85" stop-color="#C6ABA7"/><stop offset=".88" stop-color="#C2A8A4"/><stop offset=".89" stop-color="#B79D98"/><stop offset=".91" stop-color="#9E847D"/></radialGradient></defs></svg>