<svg height="409.49" width="3234.23" xmlns="http://www.w3.org/2000/svg"><g fill="#594e41"><path d="M1616.63 0v16.83h-3.94v-3.9h1.14v-6.1h-4.96v6.1h1.27v3.9h-3.24v38.52h9.73v354.14h10.7V0zM9.73 0v16.83H5.79v-3.9h1.15v-6.1H1.98v6.1h1.27v3.9H0v38.52h9.73v354.14h10.71V0zm803.45 0v16.83h-3.94v-3.9h1.15v-6.1h-4.97v6.1h1.28v3.9h-3.25v38.52h9.73v354.14h10.7V0zm2410.35 0v16.83h-3.94v-3.9h1.14v-6.1h-4.96v6.1h1.27v3.9h-3.25v38.52h9.74v354.14h10.7V0zm-803.45 0v16.83h-3.94v-3.9h1.14v-6.1h-4.96v6.1h1.27v3.9h-3.24v38.52h9.73v354.14h10.7V0z"/><path d="M2414.94 8.37a1368.36 1368.36 0 01-401.63 60.39 1367.65 1367.65 0 01-401.63-60.39c.19-.61.29-.92.48-1.54a1366 1366 0 00401.15 60.31 1366.76 1366.76 0 00401.15-60.31c.19.62.28.93.48 1.54zm804.01 0a1368.36 1368.36 0 01-401.63 60.39 1367.65 1367.65 0 01-401.63-60.39c.19-.61.29-.92.48-1.54a1366 1366 0 00401.15 60.31 1366.76 1366.76 0 00401.15-60.31c.19.62.29.93.48 1.54zm-1608.03 0a1368.25 1368.25 0 01-401.62 60.39A1367.65 1367.65 0 01807.67 8.37c.19-.61.28-.92.47-1.54a1366.16 1366.16 0 00401.16 60.31 1366.81 1366.81 0 00401.15-60.31c.19.62.28.93.47 1.54zm-804.01 0a1368.31 1368.31 0 01-401.63 60.39A1367.53 1367.53 0 013.66 8.37c.18-.61.28-.92.47-1.54a1366.15 1366.15 0 00401.15 60.31A1366.71 1366.71 0 00806.43 6.83c.19.62.29.93.48 1.54z"/></g></svg>