<svg id="Layer_1" data-name="Layer 1" xmlns="http://www.w3.org/2000/svg" viewBox="0 0 102.58 63.49"><defs><style>.cls-2{fill:#fff}</style></defs><path fill="#ee3524" d="M102.58 63.49H0V0h102.58v63.49z"/><path class="cls-2" d="M1150.53 294.68v1.15h9.87a3.07 3.07 0 012.3.67 3.14 3.14 0 01.66 2.31v9.92a3.13 3.13 0 01-.66 2.31 3.07 3.07 0 01-2.3.67h-4.76c-.83 0-1.9 0-2.31-.91a2.39 2.39 0 01.66-2.4l6.41-8.59h-9.87l-3.94 5.29a4.5 4.5 0 00-1.23 2.64 4.44 4.44 0 001.23 2.65l1 1.32a10.58 10.58 0 003.28 3.31c1.32.65 2.88.65 5 .65h4.28c2.46 0 6.16 0 8.63-2.47s2.46-6.12 2.46-7.45v-4c0-1.32 0-4.95-2.46-7.43s-6.17-2.48-8.63-2.48h-6.83a2.41 2.41 0 00-2.8 2.81" transform="translate(-1084.22 -276)"/><path class="cls-2" d="M54.48 23.81h9.86L52.5 39.68h-9.86l11.84-15.87z"/><path class="cls-2" d="M1100.23 302.61a2.39 2.39 0 012.8-2.8h16.52c2.13 0 3.7 0 5 .65a10.6 10.6 0 013.29 3.31l1 1.33a4.39 4.39 0 011.23 2.64 4.55 4.55 0 01-1.23 2.65l-3.95 5.29H1115l6.41-8.6a2.39 2.39 0 00.66-2.4c-.42-.91-1.48-.91-2.31-.91h-7.72v19.84h-7.89v-19.84h-4v-1.16" transform="translate(-1084.22 -276)"/></svg>