<svg height="340.53" width="1423.16" xmlns="http://www.w3.org/2000/svg" xmlns:xlink="http://www.w3.org/1999/xlink"><linearGradient id="b" gradientTransform="matrix(1 0 0 -1 -78.94 375.43)" gradientUnits="userSpaceOnUse" x1="1613.24" x2="1613.24" y1="148.47" y2="247.98"><stop offset="0" stop-color="#3a322b"/><stop offset=".05" stop-color="#5c5045"/><stop offset=".5" stop-color="#4a4137"/><stop offset="1" stop-color="#927e6c"/></linearGradient><linearGradient id="c" gradientTransform="matrix(1 0 0 -1 -190.92 387.77)" gradientUnits="userSpaceOnUse" x1="500.95" x2="500.95" y1="249.38" y2="314.21"><stop offset="0" stop-color="#3a322b"/><stop offset=".09" stop-color="#4a4137"/><stop offset="1" stop-color="#927e6c"/></linearGradient><linearGradient id="f" gradientTransform="matrix(1 0 0 -1 -190.92 387.77)" gradientUnits="userSpaceOnUse" x1="627.47" x2="664.9" y1="321.94" y2="321.94"><stop offset="0" stop-color="#927e6c"/><stop offset=".08" stop-color="#5d5146"/><stop offset=".29" stop-color="#7c6b5c"/><stop offset=".71" stop-color="#4a4137"/><stop offset="1" stop-color="#927e6c"/></linearGradient><linearGradient id="k" gradientTransform="matrix(1 0 0 -1 -190.92 387.77)" gradientUnits="userSpaceOnUse" x1="633.06" x2="671.51" y1="294.14" y2="294.14"><stop offset=".01" stop-color="#5c5045"/><stop offset=".96" stop-color="#4a4137"/><stop offset="1" stop-color="#3a322b"/></linearGradient><linearGradient id="a" gradientTransform="matrix(1 0 0 -1 -78.95 375.43)" gradientUnits="userSpaceOnUse" x1="1252.58" x2="1252.58" y1="35.04" y2="135.79"><stop offset="0" stop-color="#52483d"/><stop offset="1" stop-color="#3a322b"/></linearGradient><linearGradient id="l" gradientTransform="matrix(1 0 0 -1 -190.92 387.77)" x1="1584.15" x2="1584.15" xlink:href="#a" y1="106.67" y2="127.4"/><linearGradient id="m" gradientTransform="matrix(1 0 0 -1 -190.92 387.77)" x1="485.73" x2="485.73" xlink:href="#a" y1="59.54" y2="138.83"/><linearGradient id="h" gradientTransform="matrix(1 0 0 -1 -78.95 375.43)" gradientUnits="userSpaceOnUse" x1="964.54" x2="964.54" y1="129.72" y2="262.97"><stop offset="0" stop-color="#3a322b"/><stop offset=".01" stop-color="#5c5045"/><stop offset=".95" stop-color="#4a4137"/><stop offset=".98" stop-color="#3a322b"/></linearGradient><linearGradient id="n" gradientTransform="matrix(1 0 0 -1 -190.92 387.77)" x1="1545.69" x2="1545.69" xlink:href="#b" y1="309.28" y2="343.72"/><linearGradient id="o" gradientTransform="matrix(1 0 0 -1 -190.92 387.77)" x1="1316.9" x2="1316.9" xlink:href="#b" y1="205.03" y2="313.25"/><linearGradient id="p" gradientTransform="matrix(1 0 0 -1 -190.92 387.77)" gradientUnits="userSpaceOnUse" x1="1034.05" x2="1034.05" y1="183.9" y2="329.68"><stop offset="0" stop-color="#52483d"/><stop offset=".8" stop-color="#63564a"/><stop offset="1" stop-color="#927e6c"/></linearGradient><linearGradient id="q" x1="870.86" x2="870.86" xlink:href="#c" y1="319.36" y2="369.02"/><linearGradient id="r" x1="708.45" x2="708.45" xlink:href="#c" y1="319.36" y2="369.02"/><linearGradient id="d" gradientTransform="matrix(1 0 0 -1 -190.92 387.77)" gradientUnits="userSpaceOnUse" x1="1204.01" x2="1204.01" y1="199.25" y2="319.36"><stop offset="0" stop-color="#3a322b"/><stop offset=".06" stop-color="#78685a"/><stop offset=".5" stop-color="#6e6051"/><stop offset="1" stop-color="#d2c8bd"/></linearGradient><linearGradient id="s" x1="1120.6" x2="1120.6" xlink:href="#d" y1="199.25" y2="319.36"/><linearGradient id="t" x1="1294.33" x2="1294.33" xlink:href="#d" y1="199.25" y2="319.36"/><linearGradient id="u" x1="1319.71" x2="1319.71" xlink:href="#d" y1="199.25" y2="319.36"/><linearGradient id="v" x1="1417.17" x2="1417.17" xlink:href="#d" y1="199.25" y2="319.36"/><linearGradient id="w" gradientTransform="matrix(1 0 0 -1 -190.92 387.77)" gradientUnits="userSpaceOnUse" x1="1519.32" x2="1519.32" y1="71.88" y2="188.31"><stop offset="0" stop-color="#665a4c"/><stop offset=".09" stop-color="#52483d"/><stop offset=".8" stop-color="#63564a"/><stop offset="1" stop-color="#927e6c"/></linearGradient><linearGradient id="e" gradientTransform="matrix(1 0 0 -1 -190.92 387.77)" gradientUnits="userSpaceOnUse" x1="1478.22" x2="1478.22" y1="82.67" y2="143.3"><stop offset="0" stop-color="#63564a"/><stop offset=".43" stop-color="#53483d"/><stop offset="1" stop-color="#927e6c"/></linearGradient><linearGradient id="x" x1="1562.32" x2="1562.32" xlink:href="#e" y1="75.69" y2="143.3"/><linearGradient id="y" x1="1560.17" x2="1560.17" xlink:href="#e" y1="152.69" y2="182.58"/><linearGradient id="z" x1="1135.08" x2="1200.35" xlink:href="#f" y1="346.25" y2="346.25"/><linearGradient id="g" gradientTransform="matrix(1 0 0 -1 0 434)" gradientUnits="userSpaceOnUse" x1="1135.07" x2="1200.35" y1="377.78" y2="377.78"><stop offset="0" stop-color="#927e6c"/><stop offset=".71" stop-color="#4a4137"/><stop offset="1" stop-color="#927e6c"/></linearGradient><linearGradient id="A" x1="1206.58" x2="1271.85" xlink:href="#f" y1="346.25" y2="346.25"/><linearGradient id="B" x1="1206.58" x2="1271.85" xlink:href="#g" y1="377.78" y2="377.78"/><linearGradient id="C" x1="1323.19" x2="1388.45" xlink:href="#g" y1="377.78" y2="377.78"/><linearGradient id="D" x1="1323.18" x2="1388.46" xlink:href="#f" y1="346.25" y2="346.25"/><linearGradient id="E" gradientTransform="matrix(1 0 0 -1 -190.92 387.77)" x1="1242.67" x2="1291.41" xlink:href="#b" y1="310.52" y2="310.52"/><linearGradient id="F" x1="874.16" x2="874.16" xlink:href="#h" y1="129.74" y2="260.79"/><linearGradient id="G" x1="490.54" x2="527.96" xlink:href="#f" y1="321.94" y2="321.94"/><linearGradient id="H" x1="489.08" x2="529.42" xlink:href="#f" y1="330.44" y2="330.44"/><linearGradient id="I" x1="626.02" x2="666.35" xlink:href="#f" y1="330.44" y2="330.44"/><linearGradient id="J" gradientTransform="matrix(1 0 0 -1 -78.95 375.43)" gradientUnits="userSpaceOnUse" x1="586.92" x2="586.92" y1="80.26" y2="260.79"><stop offset=".01" stop-color="#5c5045"/><stop offset=".95" stop-color="#4a4137"/><stop offset=".98" stop-color="#3a322b"/></linearGradient><linearGradient id="K" x1="1454" x2="1503.78" xlink:href="#f" y1="325.53" y2="325.53"/><linearGradient id="L" x1="1454" x2="1503.78" xlink:href="#f" y1="359.74" y2="359.74"/><linearGradient id="i" gradientTransform="matrix(1 0 0 -1 0 434)" gradientUnits="userSpaceOnUse" x1="1167.71" x2="1167.71" y1="373.14" y2="382.42"><stop offset=".32" stop-color="#927e6c" stop-opacity="0"/><stop offset="1" stop-color="#d2c8bd"/></linearGradient><linearGradient id="M" x1="1239.22" x2="1239.22" xlink:href="#i" y1="373.14" y2="382.42"/><linearGradient id="N" x1="1355.82" x2="1355.82" xlink:href="#i" y1="373.14" y2="382.42"/><linearGradient id="O" gradientTransform="matrix(1 0 0 -1 -190.92 387.77)" gradientUnits="userSpaceOnUse" x1="765.37" x2="765.37" y1="359.14" y2="375.26"><stop offset="0" stop-color="#4a4137"/><stop offset="1" stop-color="#927e6c"/></linearGradient><linearGradient id="j" gradientTransform="matrix(1 0 0 -1 -269.86 329.2)" gradientUnits="userSpaceOnUse" x1="1285.27" x2="1350.79" y1="314.74" y2="314.74"><stop offset="0" stop-color="#b09882"/><stop offset=".08" stop-color="#a38f7a"/><stop offset=".29" stop-color="#a38d79"/><stop offset=".71" stop-color="#827261"/><stop offset="1" stop-color="#b59c86"/></linearGradient><linearGradient id="P" x1="1402" x2="1467.52" xlink:href="#j" y1="314.74" y2="314.74"/><linearGradient id="Q" x1="1213.89" x2="1279.41" xlink:href="#j" y1="314.74" y2="314.74"/><path d="M1539 136.73v80.94a9.28 9.28 0 01-9.28 9.29h-.18v-99.51h.18a9.27 9.27 0 019.28 9.28z" fill="url(#b)" transform="translate(-190.92 -46.23)"/><path d="M177.91 73.56h264.25v64.83H177.91z" fill="url(#c)"/><path d="M436.55 58.09h37.43v15.47h-37.43z" fill="url(#f)"/><path d="M442.14 67.8h38.45v51.64h-38.45z" fill="url(#k)"/><path d="M1566.13 241.27h-170.91a32.22 32.22 0 00-20.22 0h-154a32.22 32.22 0 00-20.22 0H958.94v4.42H785.39l42.51 46.21h-8.17v18.63h-7.3v2.65h-5.25v1.75h-24v-6.58h-2.07v19h2.07v-6.55h24v1.78h5.25v2.37h7.3v15.48h663.12v-45.26h21.87v-45.06h61.41zm-380.2 50.63h-76.73v-41.79h78.06a32.07 32.07 0 00-1.26 41.79zm174.17 0h-19.8v-31h-34.25v31h-70.11a32.11 32.11 0 00-1.29-41.79h126.75a32.1 32.1 0 00-1.3 41.79zm63.2 0h-13.18a32.1 32.1 0 00-1.29-41.79h14.47z" fill="url(#a)" transform="translate(-190.92 -46.23)"/><path d="M1421.11 262.14v6.55h-7.61v-1.74h-15.56v-2.33h-6v-4.25h-28.65v19.85h28.65v-1.28h6v-2.65h15.56v-1.75h7.61v6.56h2.05v-18.96z" fill="url(#l)"/><path d="M587.56 262.14v6.55h-14.28v-1.74h-15.55v-2.33h-6.42v-15.69H84.69v11.42H40.15v3.94h-8.26v2.66H16.33v1.74H2.06v-6.55H0v18.96h2.06v-6.56h14.27v1.75h15.56v2.33h8.26v19.93H411.1v29.67h79.95v-29.67h60.26v-19.61h6.42v-2.65h15.55v-1.75h14.28v6.56h2.06v-18.96z" fill="url(#m)"/><path d="M812.14 112.46v133.25h146.91V112.46zm66.61 48.1a9.46 9.46 0 01-9.46 9.46h-30.64a9.47 9.47 0 01-9.46-9.46v-33.91a9.47 9.47 0 019.46-9.46h30.64a9.46 9.46 0 019.46 9.46zm63.82 0a9.47 9.47 0 01-9.46 9.46h-30.65a9.47 9.47 0 01-9.46-9.46v-33.91a9.47 9.47 0 019.46-9.46h30.65a9.47 9.47 0 019.46 9.46z" fill="url(#h)" transform="translate(-190.92 -46.23)"/><path d="M554.43 70.99h32.94v128.47h-32.94z" fill="#3a322b"/><path d="M1339.49 44.04h30.57v34.44h-30.57z" fill="url(#n)"/><path d="M912.48 68.41h427.01v135.45H912.48z" fill="url(#o)"/><path d="M767.99 58.09h150.29v145.78H767.99z" fill="url(#p)"/><path d="M587.38 18.74h185.13v49.67H587.38z" fill="url(#q)"/><path d="M475.43 18.74h84.21v49.67h-84.21z" fill="url(#r)"/><path d="M767.99 188.51h607.22v6.53H767.99z" fill="#927e6c"/><path d="M916.08 117h2.55v74.77h-2.55zm152.97 0h2.55v74.77h-2.55z" fill="#927e6c"/><path d="M1010.38 68.41h5.44v120.1h-5.44z" fill="url(#d)"/><path d="M926.96 68.41h5.44v120.1h-5.44z" fill="url(#s)"/><path d="M1100.7 68.41h5.44v120.1h-5.44z" fill="url(#t)"/><path d="M1126.07 68.41h5.44v120.1h-5.44z" fill="url(#u)"/><path d="M1223.53 68.41h5.44v120.1h-5.44z" fill="url(#v)"/><path d="M1219.23 117h2.55v74.77h-2.55zm152.18 0h2.55v74.77h-2.55z" fill="#927e6c"/><circle cx="908.73" cy="294.11" fill="#53493e" r="45.18"/><circle cx="805.31" cy="294.11" fill="#53493e" r="45.18"/><circle cx="1009.43" cy="294.11" fill="#53493e" r="45.18"/><circle cx="1112.85" cy="294.11" fill="#53493e" r="45.18"/><circle cx="1217.91" cy="294.11" fill="#53493e" r="45.18"/><path d="M1289.21 199.46h78.38v116.43h-78.38z" fill="url(#w)"/><path d="M1285.4 244.46h3.81v60.63h-3.81z" fill="url(#e)"/><path d="M1367.59 244.46h7.62v67.61h-7.62z" fill="url(#x)"/><path d="M1367.59 205.19h3.32v29.88h-3.32z" fill="url(#y)"/><path d="M944.16 14.62h65.28v53.79h-65.28z" fill="url(#z)"/><path d="M1144.35 51.58h46.72a9.29 9.29 0 019.28 9.28h-65.28a9.28 9.28 0 019.28-9.28z" fill="url(#g)" transform="translate(-190.92 -46.23)"/><path d="M1015.66 14.62h65.28v53.79h-65.28z" fill="url(#A)"/><path d="M1215.86 51.58h46.71a9.28 9.28 0 019.28 9.28h-65.27a9.28 9.28 0 019.28-9.28z" fill="url(#B)" transform="translate(-190.92 -46.23)"/><path d="M1332.46 51.58h46.71a9.29 9.29 0 019.28 9.28h-65.26a9.28 9.28 0 019.28-9.28z" fill="url(#C)" transform="translate(-190.92 -46.23)"/><path d="M1132.26 14.62h65.28v53.79h-65.28z" fill="url(#D)"/><ellipse cx="1076.12" cy="77.25" fill="url(#E)" rx="24.37" ry="12.12"/><ellipse cx="1076.12" cy="70.21" fill="#99897b" rx="24.37" ry="12.12"/><path d="M621.23 199.46h146.92V206H621.23z" fill="#927e6c"/><path d="M778.29 114.64v131.05h33.85v-131zm29.09 46.74a4.22 4.22 0 01-4.2 4.2h-16.82a4.22 4.22 0 01-4.2-4.2v-35.17a4.21 4.21 0 014.2-4.2h16.82a4.21 4.21 0 014.2 4.2z" fill="url(#F)" transform="translate(-190.92 -46.23)"/><path d="M299.62 58.09h37.43v15.47h-37.43z" fill="url(#G)"/><path d="M298.17 56.01h40.33v2.63h-40.33z" fill="url(#H)"/><path d="M435.1 56.01h40.33v2.63H435.1z" fill="url(#I)"/><path d="M671.51 114.64v49.68H405.65a40.55 40.55 0 00-40.57 40.55h-94.49v90.29h474.76V114.64z" fill="url(#J)" transform="translate(-190.92 -46.23)"/><path d="M1312.86 68.41h-49.77l7.78-12.36h33.02z" fill="url(#K)"/><path d="M1312.86 0h-49.77l7.78 56.05h33.02z" fill="url(#L)"/><path d="M1144.35 51.58h46.72a9.29 9.29 0 019.28 9.28h-65.28a9.28 9.28 0 019.28-9.28z" fill="url(#g)" transform="translate(-190.92 -46.23)"/><path d="M1215.86 51.58h46.71a9.28 9.28 0 019.28 9.28h-65.27a9.28 9.28 0 019.28-9.28z" fill="url(#B)" transform="translate(-190.92 -46.23)"/><path d="M1332.46 51.58h46.71a9.29 9.29 0 019.28 9.28h-65.26a9.28 9.28 0 019.28-9.28z" fill="url(#C)" transform="translate(-190.92 -46.23)"/><path d="M1144.35 51.58h46.72a9.29 9.29 0 019.28 9.28h-65.28a9.28 9.28 0 019.28-9.28z" fill="url(#i)" transform="translate(-190.92 -46.23)"/><path d="M1215.86 51.58h46.71a9.28 9.28 0 019.28 9.28h-65.27a9.28 9.28 0 019.28-9.28z" fill="url(#M)" transform="translate(-190.92 -46.23)"/><path d="M1332.46 51.58h46.71a9.29 9.29 0 019.28 9.28h-65.26a9.28 9.28 0 019.28-9.28z" fill="url(#N)" transform="translate(-190.92 -46.23)"/><path d="M846.18 285.92a41.69 41.69 0 10-32.68 49.07 41.68 41.68 0 0032.68-49.07zm-42.1 41.91l1.73-19.5a15.63 15.63 0 002.36-.26 15 15 0 002.08-.6l9.1 17.34a33.75 33.75 0 01-15.24 3zM814.55 275a21.28 21.28 0 016.72 5.15l-5.68 4.1a13.87 13.87 0 00-3.48-2.66zm9 8.34a21.08 21.08 0 012.72 7.88l-6.95.38v-.28a13.76 13.76 0 00-1.4-3.88zm-15.15-3.15a13.73 13.73 0 00-3.94-.31l-3.85-19.22a33.66 33.66 0 0114.57 1.11zm-11.62-18.76l3.84 19.22a14.52 14.52 0 00-3.38 1.71l-13.66-14.11a33.56 33.56 0 0113.18-6.78zm-16 9.53l13.59 14.06a14.47 14.47 0 00-2.16 3.6l-19.13-4.42a33.86 33.86 0 017.68-13.2zm-8.61 17l19.05 4.48a14.38 14.38 0 00.18 4.44v.18l-18.45 6.54c-.28-.95-.52-1.9-.72-2.88a33.6 33.6 0 01-.1-12.72zm20.66 12.89a14.31 14.31 0 002.22 3l-12 15.53a33.6 33.6 0 01-8.68-12zm5.29 5.51a14.15 14.15 0 003.79 1.58l-1.73 19.56a33.79 33.79 0 01-14.1-5.65zm24.69 16.65l-9.11-17.35a14.42 14.42 0 002.89-2.79l17 9.7a33.69 33.69 0 01-10.81 10.44zm12.76-13.89l-17-9.69a14.1 14.1 0 001-3.9l19.58-1.06a33.54 33.54 0 01-3.51 14.65z" fill="#63564a"/><circle cx="509.92" cy="308.74" fill="#53493e" r="31.79"/><path d="M949.6 285.92a41.69 41.69 0 10-32.68 49.07 41.69 41.69 0 0032.68-49.07zm-42.13 41.91l1.69-19.5a15.62 15.62 0 002.37-.26 15 15 0 002.08-.6l9.1 17.34a33.74 33.74 0 01-15.23 3zM917.94 275a21.24 21.24 0 016.71 5.15l-5.68 4.1a13.87 13.87 0 00-3.48-2.66zm9 8.34a21.08 21.08 0 012.72 7.88l-6.94.38a.56.56 0 00-.05-.28 14.06 14.06 0 00-1.39-3.88zm-15.15-3.15a13.73 13.73 0 00-3.94-.31L904 260.66a33.71 33.71 0 0114.6 1.15zm-11.63-18.76l3.86 19.22a14.39 14.39 0 00-3.39 1.71l-13.64-14.11a33.58 33.58 0 0113.17-6.78zm-16 9.53l13.61 14.06a14.21 14.21 0 00-2.17 3.6l-19.11-4.42a34 34 0 017.67-13.2zm-8.6 17l19 4.48a14.38 14.38 0 00.18 4.44v.18l-18.46 6.54c-.27-.95-.52-1.9-.71-2.88a33.6 33.6 0 01-.06-12.72zm20.66 12.89a14.31 14.31 0 002.22 3l-12 15.5a33.7 33.7 0 01-8.67-12zm5.3 5.51a14.09 14.09 0 003.78 1.58l-1.73 19.56a33.79 33.79 0 01-14.06-5.64zm24.68 16.65l-9.1-17.35a14.64 14.64 0 002.88-2.79l17 9.7a33.93 33.93 0 01-10.82 10.44zm12.76-13.89l-17-9.69a14.12 14.12 0 001-3.9l19.58-1.06a33.56 33.56 0 01-3.53 14.65zm110.96-23.2a41.69 41.69 0 10-32.68 49.07 41.69 41.69 0 0032.68-49.07zm-42.13 41.91l1.72-19.5a15.62 15.62 0 002.37-.26 15 15 0 002.08-.6l9.12 17.3a33.71 33.71 0 01-15.23 3zm10.47-52.83a21.24 21.24 0 016.71 5.15l-5.68 4.1a13.87 13.87 0 00-3.48-2.66zm9 8.34a21.08 21.08 0 012.72 7.88l-7 .38a.68.68 0 000-.28 14.06 14.06 0 00-1.39-3.88zm-15.18-3.15a13.73 13.73 0 00-3.94-.31l-3.85-19.22a33.72 33.72 0 0114.6 1.15zm-11.63-18.76l3.86 19.22a14.39 14.39 0 00-3.39 1.71l-13.64-14.11a33.58 33.58 0 0113.17-6.78zm-16 9.53l13.6 14.06a14.21 14.21 0 00-2.17 3.6l-19.11-4.42a33.86 33.86 0 017.68-13.2zm-8.61 17l19 4.48a14.38 14.38 0 00.18 4.44v.18l-18.46 6.54c-.26-.95-.52-1.9-.71-2.88a33.6 33.6 0 01-.06-12.72zm20.66 12.89a14.31 14.31 0 002.22 3l-12 15.5a33.7 33.7 0 01-8.67-12zm5.3 5.51a14.09 14.09 0 003.78 1.58l-1.73 19.56a33.79 33.79 0 01-14.06-5.64zm24.68 16.65l-9.1-17.35a14.37 14.37 0 002.88-2.79l17 9.7a33.82 33.82 0 01-10.82 10.44zm12.76-13.89l-17-9.69a13.78 13.78 0 001-3.9l19.58-1.06a33.56 33.56 0 01-3.56 14.64zm113.67-23.2a41.7 41.7 0 10-32.69 49.07 41.7 41.7 0 0032.69-49.07zm-42.14 41.91l1.73-19.5a16.31 16.31 0 002.32-.26 15.12 15.12 0 002.09-.6l9.09 17.34a33.71 33.71 0 01-15.23 3zm10.47-52.83a21.24 21.24 0 016.71 5.15l-5.67 4.1a14.05 14.05 0 00-3.48-2.66zm9 8.34a21.09 21.09 0 012.73 7.88l-7 .38a.56.56 0 000-.28 14.06 14.06 0 00-1.39-3.88zm-15.16-3.15a13.76 13.76 0 00-3.94-.31l-3.86-19.22a33.71 33.71 0 0114.6 1.15zm-11.63-18.76l3.85 19.22a14.39 14.39 0 00-3.39 1.71l-13.64-14.11a33.62 33.62 0 0113.18-6.78zm-16 9.53l13.63 14.06a14.81 14.81 0 00-2.17 3.6l-19.1-4.42a33.74 33.74 0 017.68-13.2zm-8.61 17l19 4.48a13.79 13.79 0 00.18 4.44.3.3 0 000 .18l-18.46 6.54c-.28-.95-.52-1.9-.72-2.88a33.6 33.6 0 01-.09-12.72zm20.65 12.89a14.67 14.67 0 002.22 3l-12 15.53a33.51 33.51 0 01-8.68-12zm5.3 5.51a14.15 14.15 0 003.79 1.58l-1.74 19.56a33.79 33.79 0 01-14.06-5.64zm24.68 16.65l-9.1-17.35a14.11 14.11 0 002.88-2.79l17 9.7a33.72 33.72 0 01-10.82 10.44zm12.77-13.89l-17-9.69a13.78 13.78 0 001-3.9l19.58-1.06a33.68 33.68 0 01-3.51 14.65zm116.54-23.2a41.69 41.69 0 10-32.7 49.08 41.69 41.69 0 0032.7-49.08zm-42.11 41.91l1.73-19.5a16.61 16.61 0 002.33-.26 15.39 15.39 0 002.08-.6l9.1 17.34a33.75 33.75 0 01-15.24 3zm10.47-52.83a21.24 21.24 0 016.71 5.15l-5.67 4.1a14.05 14.05 0 00-3.48-2.66zm9 8.34a21.25 21.25 0 012.72 7.88l-7 .38a.56.56 0 000-.28 14.37 14.37 0 00-1.38-3.88zm-15.15-3.15a13.73 13.73 0 00-3.94-.31l-3.86-19.22a33.71 33.71 0 0114.6 1.15zm-11.63-18.76l3.86 19.22a14.27 14.27 0 00-3.4 1.71l-13.64-14.11a33.71 33.71 0 0113.15-6.78zm-16 9.53l13.59 14.06a14.81 14.81 0 00-2.17 3.6l-19.13-4.42a33.74 33.74 0 017.68-13.2zm-8.61 17l19 4.48a14.38 14.38 0 00.18 4.44.3.3 0 000 .18l-18.46 6.54c-.27-.95-.52-1.9-.71-2.88a33.6 33.6 0 01-.13-12.72zm20.66 12.89a14.26 14.26 0 002.21 3l-12 15.5a33.64 33.64 0 01-8.68-12zm5.29 5.51a14.15 14.15 0 003.79 1.58l-1.74 19.56a33.69 33.69 0 01-14.05-5.64zm24.68 16.65l-9.1-17.35a14.11 14.11 0 002.88-2.79l17 9.7a33.72 33.72 0 01-10.85 10.44zm12.77-13.89l-17-9.69a14.12 14.12 0 001-3.9l19.57-1.06a33.58 33.58 0 01-3.55 14.65zM509.92 281.6a27.14 27.14 0 1027.16 27.17 27.14 27.14 0 00-27.16-27.17zm0 49a21.91 21.91 0 1121.9-21.9 21.9 21.9 0 01-21.9 21.9z" fill="#63564a"/><rect fill="#63564a" height="23.65" rx="4.34" width="18.14" x="500.85" y="296.91"/><circle cx="509.92" cy="308.74" fill="#53493e" r="7.1"/><circle cx="585.33" cy="354.97" fill="#53493e" r="31.79" transform="matrix(.16 -.99 .99 .16 -49.73 829.66)"/><path d="M394.41 281.6a27.14 27.14 0 1027.14 27.17 27.15 27.15 0 00-27.14-27.17zm0 49a21.91 21.91 0 1121.9-21.9 21.91 21.91 0 01-21.9 21.9z" fill="#63564a"/><rect fill="#63564a" height="23.65" rx="4.34" width="18.14" x="385.35" y="296.91"/><circle cx="394.42" cy="308.74" fill="#53493e" r="7.1"/><path d="M133.17 274.33h79.94v53.89h-79.94z" fill="#53493e"/><circle cx="231.99" cy="308.74" fill="#53493e" r="31.79"/><path d="M231.98 281.6a27.14 27.14 0 1027.1 27.17 27.15 27.15 0 00-27.1-27.17zm0 49a21.91 21.91 0 1121.9-21.83 21.9 21.9 0 01-21.9 21.87z" fill="#63564a"/><rect fill="#63564a" height="23.65" rx="4.34" width="18.14" x="222.92" y="296.91"/><circle cx="231.99" cy="308.74" fill="#53493e" r="7.1"/><circle cx="116.48" cy="308.74" fill="#53493e" r="31.79"/><path d="M116.47 281.6a27.14 27.14 0 1027.14 27.17 27.14 27.14 0 00-27.14-27.17zm0 49a21.91 21.91 0 1121.91-21.83 21.91 21.91 0 01-21.91 21.87z" fill="#63564a"/><rect fill="#63564a" height="23.65" rx="4.34" width="18.14" x="107.41" y="296.91"/><circle cx="116.48" cy="308.74" fill="#53493e" r="7.1"/><path d="M554.43 12.51h40.04v16.12h-40.04z" fill="url(#O)"/><text fill="#927e6c" font-family="Verdana" font-size="36.22" letter-spacing=".2em" transform="matrix(.79 0 0 1 649.67 177.69)">312</text><path d="M1390.49 237.05h-5a10.3 10.3 0 00-2.67 20.26v3.31h2.76v-3h4.88z" fill="#3a322b"/><path d="M1015.41 13.34h65.52v2.24h-65.52z" fill="url(#j)"/><path d="M1132.14 13.34h65.52v2.24h-65.52z" fill="url(#P)"/><path d="M944.03 13.34h65.52v2.24h-65.52z" fill="url(#Q)"/><g fill="#927e6c"><path d="M767.99 120.51h607.22v3.26H767.99zm0 30.35h607.22v3.26H767.99zm11.63 136h420.07v7.59H779.62zm366.27-18.7h139.51v6.62h-139.51zm65.38 28.64h74.13v4.23h-74.13z"/><path d="M1210 241.84h6.43v60.23H1210z"/><path d="M1211.27 248.3h74.13v2.11h-74.13zm-86.14-9.78h90.51v4.37h-90.51z"/><circle cx="780.63" cy="290.65" r="7.89"/><circle cx="885.05" cy="290.65" r="7.89"/><circle cx="989.47" cy="290.65" r="7.89"/><circle cx="1093.89" cy="290.65" r="7.89"/><circle cx="1015.2" cy="306.43" r="7.89"/><circle cx="1144.59" cy="271.95" r="7.89"/><circle cx="1198.32" cy="290.65" r="7.89"/><path d="M1015.218 304.101l125.303-32.265 1.388 5.394-125.302 32.265zm183.102-40.041h31.87v15.78h-31.87z"/><path d="M1204.55 276.51h17.98v16.21h-17.98zm-75.8-59.62h10.09v24.95h-10.09z"/><path d="M1137.76 238.278l6.119-2.279 11.613 31.19-6.12 2.278zm-12.812-45.45l6.101-2.272 10.338 27.768-6.1 2.272zm83.432 99.902h10.61v12.38h-10.61z"/></g></svg>