<svg id="Layer_1" data-name="Layer 1" xmlns="http://www.w3.org/2000/svg" xmlns:xlink="http://www.w3.org/1999/xlink" width="1181.49" height="346.48"><defs><linearGradient id="linear-gradient-22" x1="918.81" y1="682.5" x2="918.81" y2="685.67" gradientTransform="matrix(1 0 0 .75 -328.42 -410.98)" xlink:href="#linear-gradient-4"/><linearGradient id="linear-gradient" x1="265.93" y1="45.18" x2="265.93" y2="64.99" gradientTransform="matrix(1 0 0 -1 -55.42 355.17)" gradientUnits="userSpaceOnUse"><stop offset="0" stop-color="#594e42"/><stop offset=".33" stop-color="#53493e"/><stop offset="1" stop-color="#6e5f52"/></linearGradient><linearGradient id="linear-gradient-2" x1="1031.56" y1="45.18" x2="1031.56" y2="64.99" xlink:href="#linear-gradient"/><linearGradient id="linear-gradient-3" x1="919.72" y1="-259.41" x2="919.72" y2="-225.8" gradientTransform="matrix(1 0 0 -1 -328.42 -195.9)" gradientUnits="userSpaceOnUse"><stop offset="0" stop-color="#66594c"/><stop offset=".33" stop-color="#63564a"/><stop offset="1" stop-color="#d2c8bd"/></linearGradient><linearGradient id="linear-gradient-4" x1="919.68" y1="-259.26" x2="919.68" y2="-267.97" gradientTransform="matrix(1 0 0 -1 -328.42 -195.9)" gradientUnits="userSpaceOnUse"><stop offset=".13" stop-color="#53493e"/><stop offset="1" stop-color="#53493e" stop-opacity="0"/></linearGradient><linearGradient id="linear-gradient-5" x1="181.91" y1="246.49" x2="181.91" y2="249.66" gradientTransform="matrix(1 0 0 -1 -55.42 355.17)" gradientUnits="userSpaceOnUse"><stop offset="0" stop-color="#63564a"/><stop offset="1" stop-color="#a3978c"/></linearGradient><linearGradient id="linear-gradient-6" x1="454.91" y1="692.87" x2="454.91" y2="696.05" gradientTransform="matrix(1 0 0 .75 -328.42 -410.98)" xlink:href="#linear-gradient-4"/><linearGradient id="linear-gradient-7" x1="278.89" y1="246.49" x2="278.89" y2="249.66" xlink:href="#linear-gradient-5"/><linearGradient id="linear-gradient-8" x1="551.89" y1="692.87" x2="551.89" y2="696.05" gradientTransform="matrix(1 0 0 .75 -328.42 -410.98)" xlink:href="#linear-gradient-4"/><linearGradient id="linear-gradient-9" x1="390.32" y1="246.49" x2="390.32" y2="249.66" xlink:href="#linear-gradient-5"/><linearGradient id="linear-gradient-10" x1="663.32" y1="692.87" x2="663.32" y2="696.05" gradientTransform="matrix(1 0 0 .75 -328.42 -410.98)" xlink:href="#linear-gradient-4"/><linearGradient id="linear-gradient-11" x1="502" y1="246.49" x2="502" y2="249.66" xlink:href="#linear-gradient-5"/><linearGradient id="linear-gradient-12" x1="775" y1="692.87" x2="775" y2="696.05" gradientTransform="matrix(1 0 0 .75 -328.42 -410.98)" xlink:href="#linear-gradient-4"/><linearGradient id="linear-gradient-13" x1="1104.47" y1="246.49" x2="1104.47" y2="249.66" xlink:href="#linear-gradient-5"/><linearGradient id="linear-gradient-14" x1="1377.47" y1="692.87" x2="1377.47" y2="696.05" gradientTransform="matrix(1 0 0 .75 -328.42 -410.98)" xlink:href="#linear-gradient-4"/><linearGradient id="linear-gradient-15" x1="1007.78" y1="246.49" x2="1007.78" y2="249.66" xlink:href="#linear-gradient-5"/><linearGradient id="linear-gradient-16" x1="1280.78" y1="692.87" x2="1280.78" y2="696.05" gradientTransform="matrix(1 0 0 .75 -328.42 -410.98)" xlink:href="#linear-gradient-4"/><linearGradient id="linear-gradient-17" x1="896.82" y1="246.49" x2="896.82" y2="249.66" xlink:href="#linear-gradient-5"/><linearGradient id="linear-gradient-18" x1="1169.82" y1="692.87" x2="1169.82" y2="696.05" gradientTransform="matrix(1 0 0 .75 -328.42 -410.98)" xlink:href="#linear-gradient-4"/><linearGradient id="linear-gradient-19" x1="785.94" y1="246.49" x2="785.94" y2="249.66" xlink:href="#linear-gradient-5"/><linearGradient id="linear-gradient-20" x1="1058.94" y1="692.87" x2="1058.94" y2="696.05" gradientTransform="matrix(1 0 0 .75 -328.42 -410.98)" xlink:href="#linear-gradient-4"/><linearGradient id="linear-gradient-21" x1="645.81" y1="254.28" x2="645.81" y2="257.45" xlink:href="#linear-gradient-5"/><style>.cls-1{fill:#53493e}.cls-2{fill:#63564a}.cls-5{fill:#927e6c}.cls-10{fill:#b3a698}.cls-11,.cls-27{fill:#d2c8bd}.cls-27{isolation:isolate;font-size:23.54px;font-family:Verdana;letter-spacing:.13em}</style></defs><g id="Episod_2" data-name="Episod 2"><g id="Cart"><path class="cls-1" d="M132.44 287.03h152.97v44.38H132.44z"/><circle class="cls-1" cx="132.44" cy="311.6" r="34.87"/><circle class="cls-1" cx="290.95" cy="311.6" r="34.87"/><path class="cls-1" d="M42.17 266.74h1096.37v31.7H42.17z"/><path class="cls-1" d="M347.23 287.03h118.89v24.57H347.23zm137.11-10.3h183.09v38.84H484.34zm198.15 0h141.87v34.87H682.49zm-632.48 0h45.18v45.18H50.01z"/><circle class="cls-1" cx="899.65" cy="311.6" r="34.87"/><circle class="cls-1" cx="1058.17" cy="311.6" r="34.87"/><path class="cls-1" d="M899.65 287.03h152.97v44.38H899.65z"/><path class="cls-2" d="M192.77 368.32h-9.51a4.4 4.4 0 01-4.36-4.32v-15.1a4.4 4.4 0 014.36-4.36h9.51a4.4 4.4 0 014.36 4.36V364a4.34 4.34 0 01-4.33 4.36z" transform="translate(-55.42 -44.83)"/><circle class="cls-1" cx="132.6" cy="311.6" r="7.13"/><path class="cls-2" d="M352.08 368.32h-9.51a4.4 4.4 0 01-4.36-4.36V348.9a4.4 4.4 0 014.36-4.36h9.51a4.4 4.4 0 014.36 4.36V364a4.34 4.34 0 01-4.33 4.36z" transform="translate(-55.42 -44.83)"/><circle class="cls-1" cx="291.91" cy="311.6" r="7.13"/><path class="cls-2" d="M960.78 368.32h-9.51a4.4 4.4 0 01-4.36-4.36V348.9a4.4 4.4 0 014.36-4.36h9.51a4.4 4.4 0 014.36 4.36V364a4.34 4.34 0 01-4.33 4.36z" transform="translate(-55.42 -44.83)"/><circle class="cls-1" cx="900.61" cy="311.6" r="7.13"/><path class="cls-2" d="M1120.09 368.32h-9.51a4.4 4.4 0 01-4.36-4.36V348.9a4.4 4.4 0 014.36-4.36h9.51a4.4 4.4 0 014.36 4.36V364a4.34 4.34 0 01-4.33 4.36z" transform="translate(-55.42 -44.83)"/><circle class="cls-1" cx="1059.91" cy="311.6" r="7.13"/><path fill="url(#linear-gradient)" d="M178.41 290.2h64.2v19.81h-64.2z"/><path fill="url(#linear-gradient-2)" d="M944.04 290.2h64.2v19.81h-64.2z"/><path class="cls-5" d="M486.09 292.58h210.27v2.77H486.09z"/><path class="cls-5" transform="rotate(-7.89 503.366 703.752)" d="M750.94 323H961.2v2.69H750.94z"/><path class="cls-5" transform="rotate(-82.32 383.817 333.575)" d="M435.82 219.16h2.69v210.26h-2.69z"/><path class="cls-5" d="M32.1 63.84h1118.33v183.88H32.1z"/><path class="cls-2" d="M32.1 247.72h1118.33V265H32.1z"/><path class="cls-5" d="M32.1 265h1118.33v3.33H32.1z"/><path fill="url(#linear-gradient-3)" d="M27.11 30.4H1155.5v33.61H27.11z"/><path d="M149.08 63.53h1.59v183.88h-1.59zm-45.97-1.59h1.59v183.88h-1.59zm427.2 1.59h1.59v183.88h-1.59zm-55.87 0h1.59v183.88h-1.59zm-55.88 0h1.59v183.88h-1.59zm-55.88 0h1.59v183.88h-1.59zm-55.87 0h1.59v183.88h-1.59zm-55.88 0h1.59v183.88h-1.59zm-55.88 0h1.59v183.88h-1.59zm830.47 0h1.59v183.88h-1.59zm45.65-1.59h1.59v183.88h-1.59zm-424.11 1.59h1.59v183.88h-1.59zm55.48 0h1.59v183.88h-1.59zm55.48 0h1.59v183.88h-1.59zm55.48 0h1.59v183.88h-1.59zm55.48 0h1.59v183.88h-1.59zm55.4 0h1.59v183.88h-1.59zm55.48 0h1.59v183.88h-1.59z" fill="#66594c"/><path fill="url(#linear-gradient-4)" d="M32.1 63.84h1118.33v8.72H32.1z"/><path fill="url(#linear-gradient-5)" d="M99.94 105.53h53.1v3.17h-53.1z"/><path class="cls-10" d="M104.7 108.7h44.38v69.75H104.7z"/><path class="cls-1" d="M198.88 157.33h-33.21a3.17 3.17 0 00-3.17 3.17v55.8a3.17 3.17 0 003.17 3.17h33.21a3.17 3.17 0 003.17-3.17v-55.8a3.17 3.17 0 00-3.17-3.17z" transform="translate(-55.42 -44.83)"/><path class="cls-11" d="M198.88 219.31h-33.21a3.17 3.17 0 01-3.17-3.17v-29.32h39.55v29.32a3.17 3.17 0 01-3.17 3.17z" transform="translate(-55.42 -44.83)"/><path fill="url(#linear-gradient-6)" d="M99.94 108.7h53.1v2.38h-53.1z"/><path fill="url(#linear-gradient-7)" d="M190.85 105.53h65.23v3.17h-65.23z"/><path class="cls-10" d="M196.72 108.7h54.53v69.75h-54.53z"/><path class="cls-1" d="M300.48 157.33h-42.24a3.17 3.17 0 00-3.17 3.17v55.8a3.17 3.17 0 003.17 3.17h42.24a3.16 3.16 0 003.17-3.17v-55.8a3.16 3.16 0 00-3.17-3.17z" transform="translate(-55.42 -44.83)"/><path class="cls-11" d="M300.48 219.31h-42.24a3.17 3.17 0 01-3.17-3.17v-29.32h48.58v29.32a3.16 3.16 0 01-3.17 3.17z" transform="translate(-55.42 -44.83)"/><path fill="url(#linear-gradient-8)" d="M190.85 108.7h65.23v2.38h-65.23z"/><path fill="url(#linear-gradient-9)" d="M302.29 105.53h65.23v3.17h-65.23z"/><path class="cls-10" d="M308.15 108.7h54.53v69.75h-54.53z"/><path class="cls-1" d="M411.92 157.33h-42.24a3.17 3.17 0 00-3.17 3.17v55.8a3.17 3.17 0 003.17 3.17h42.24a3.17 3.17 0 003.17-3.17v-55.8a3.17 3.17 0 00-3.17-3.17z" transform="translate(-55.42 -44.83)"/><path class="cls-11" d="M411.92 219.31h-42.24a3.17 3.17 0 01-3.17-3.17v-29.32h48.58v29.32a3.17 3.17 0 01-3.17 3.17z" transform="translate(-55.42 -44.83)"/><path fill="url(#linear-gradient-10)" d="M302.29 108.7h65.23v2.38h-65.23z"/><path fill="url(#linear-gradient-11)" d="M413.96 105.53h65.23v3.17h-65.23z"/><path class="cls-10" d="M419.83 108.7h54.53v69.75h-54.53z"/><path class="cls-1" d="M523.67 157.33h-42.24a3.17 3.17 0 00-3.17 3.17v55.8a3.17 3.17 0 003.17 3.17h42.24a3.17 3.17 0 003.17-3.17v-55.8a3.17 3.17 0 00-3.17-3.17z" transform="translate(-55.42 -44.83)"/><path class="cls-11" d="M523.67 219.31h-42.24a3.17 3.17 0 01-3.17-3.17v-29.32h48.58v29.32a3.17 3.17 0 01-3.17 3.17z" transform="translate(-55.42 -44.83)"/><path fill="url(#linear-gradient-12)" d="M413.96 108.7h65.23v2.38h-65.23z"/><path fill="url(#linear-gradient-13)" d="M1022.5 105.53h53.1v3.17h-53.1z"/><path class="cls-10" d="M1027.26 108.7h44.38v69.75h-44.38z"/><path class="cls-1" d="M1121.44 157.33h-33.21a3.17 3.17 0 00-3.17 3.17v55.8a3.17 3.17 0 003.17 3.17h33.21a3.17 3.17 0 003.17-3.17v-55.8a3.17 3.17 0 00-3.17-3.17z" transform="translate(-55.42 -44.83)"/><path fill="url(#linear-gradient-14)" d="M1022.5 108.7h53.1v2.38h-53.1z"/><path class="cls-11" d="M1121.44 219.31h-33.21a3.17 3.17 0 01-3.17-3.17v-29.32h39.55v29.32a3.17 3.17 0 01-3.17 3.17z" transform="translate(-55.42 -44.83)"/><path fill="url(#linear-gradient-15)" d="M920.26 105.53h64.2v3.17h-64.2z"/><path class="cls-10" d="M925.97 108.7h53.66v69.75h-53.66z"/><path class="cls-1" d="M1028.94 157.33h-41.45a3.17 3.17 0 00-3.17 3.17v55.8a3.17 3.17 0 003.17 3.17h41.45a3.17 3.17 0 003.17-3.17v-55.8a3.17 3.17 0 00-3.17-3.17z" transform="translate(-55.42 -44.83)"/><path fill="url(#linear-gradient-16)" d="M920.26 108.7h64.2v2.38h-64.2z"/><path class="cls-11" d="M1028.94 219.31h-41.45a3.17 3.17 0 01-3.17-3.17v-29.32h47.79v29.32a3.17 3.17 0 01-3.17 3.17z" transform="translate(-55.42 -44.83)"/><path fill="url(#linear-gradient-17)" d="M809.3 105.53h64.2v3.17h-64.2z"/><path class="cls-10" d="M815.01 108.7h53.66v69.75h-53.66z"/><path class="cls-1" d="M918 157.33h-41.47a3.17 3.17 0 00-3.17 3.17v55.8a3.17 3.17 0 003.17 3.17H918a3.17 3.17 0 003.17-3.17v-55.8a3.17 3.17 0 00-3.17-3.17z" transform="translate(-55.42 -44.83)"/><path class="cls-11" d="M918 219.31h-41.47a3.17 3.17 0 01-3.17-3.17v-29.32h47.79v29.32a3.17 3.17 0 01-3.15 3.17z" transform="translate(-55.42 -44.83)"/><path fill="url(#linear-gradient-18)" d="M809.3 108.7h64.2v2.38h-64.2z"/><path fill="url(#linear-gradient-19)" d="M698.42 105.53h64.2v3.17h-64.2z"/><path class="cls-10" d="M704.13 108.7h53.66v69.75h-53.66z"/><path class="cls-1" d="M807.1 157.33h-41.45a3.17 3.17 0 00-3.17 3.17v55.8a3.17 3.17 0 003.17 3.17h41.45a3.17 3.17 0 003.17-3.17v-55.8a3.17 3.17 0 00-3.17-3.17z" transform="translate(-55.42 -44.83)"/><path class="cls-11" d="M807.1 219.31h-41.45a3.17 3.17 0 01-3.17-3.17v-29.32h47.79v29.32a3.17 3.17 0 01-3.17 3.17z" transform="translate(-55.42 -44.83)"/><path fill="url(#linear-gradient-20)" d="M698.42 108.7h64.2v2.38h-64.2z"/><text class="cls-27" transform="translate(332.2 223.56)">САНИТАРНЫЙ</text><text class="cls-27" transform="translate(636.45 223.56)">САНИТАРНЫЙ</text><circle class="cls-11" cx="648.29" cy="259.04" r="23.94" transform="rotate(-64.53 585.08 280.516)"/><path fill="#817060" d="M609.25 210.47h-12.84v-12.84h-7.29v12.84h-12.84v7.37h12.84v12.84h7.29v-12.84h12.84v-7.37z"/><path class="cls-2" d="M603.8 145.29V246.9h84V145.29zM687.18 246h-82.66v-99h82.66z" transform="translate(-55.42 -44.83)"/><path fill="url(#linear-gradient-21)" d="M542.12 97.69h96.54v3.17h-96.54z"/><path fill="url(#linear-gradient-22)" d="M542.12 100.86h96.54v2.38h-96.54z"/><path class="cls-2" d="M590.39 100.86h.87v100.26h-.87zm-42.96 10.78h2.38v9.19h-2.38zm83.54 0h2.38v9.19h-2.38zm-83.54 34.23h2.38v9.19h-2.38zm83.54 0h2.38v9.19h-2.38zm-83.54 37.57h2.38v9.19h-2.38zm83.54 0h2.38v9.19h-2.38z"/><path class="cls-1" d="M1132.59 272.61h16.8v14.42h-16.8z"/><path class="cls-1" d="M1145.51 274.99h19.58v9.35h-19.58z"/><path class="cls-1" d="M1160.81 276.73h20.69v5.87h-20.69z"/><path class="cls-1" d="M1179.43 270.15h2.06v19.02h-2.06zM32.1 272.29h16.8v14.42H32.1z"/><path class="cls-1" d="M16.49 274.99h19.58v9.35H16.49z"/><path class="cls-1" d="M0 276.73h20.69v5.87H0z"/><path class="cls-1" d="M0 270.15h2.06v19.02H0z"/></g></g><path class="cls-1" d="M1174.42 56.83v-2h-2v-5h-2v5H995.25v-5h-2v5H818.09v-5h-2v5H640.92v-5h-2v5H463.75v-5h-2v5H286.59v-5h-2v5H109.42v-5h-2v5h-2v2h2v4h-2v2h2v6h-2v4h1069v-4h-2v-6h2v-2h-2v-4zm-181.17 0v4H818.09v-4zm-529.5 6h175.17v6H463.75zm-2 6H286.59v-6h175.16zm179.17-6h175.17v6H640.92zm177.17 0h175.16v6H818.09zm-2-6v4H640.92v-4zm-177.17 0v4H463.75v-4zm-177.17 0v4H286.59v-4zm-352.33 0h175.17v4H109.42zm0 6h175.17v6H109.42zm1061 6H995.25v-6h175.17zm0-8H995.25v-4h175.17z" transform="translate(-55.42 -44.83)"/><path class="cls-1" d="M131.42 58.83v-2l1-3a4.94 4.94 0 00-1-3l-3-3 1 4 .76 3.29-.76 2.71-.88-.47-3.12-5.53h-2l5 7 1.91 2 .09 5v3l2-1v-5l1.94-1.74 1.06-2.26.28-1.77-4.28 3.77zm13-2c1 1 4 10 4 10l1 3 2-.82-1-3.18v-3l2-5v-2l-3 4zm15 5l-3-11c0 1 1 6 1 6v9l2 4h1v-6l1-2s0-4 1-5 3-8 3-8l-5 11zm21-4v-2l1-2 1-4-2 1-2 3-1 1-2-7c0 1-1 6-1 6l3.14 3-.14 4-1 4s-2 2-2 3a3.49 3.49 0 001 2 1 1 0 001-1 10.07 10.07 0 011-3l1-3s.68-2 .34-2a20.63 20.63 0 012.66-1l2-2-3 1zm22-8l-3 3-3 1a22.69 22.69 0 001-4c0-1-3-1-3-1v7l-3.82-1c.69.36-.11 3 .82 3s4 2 4 2l1 9 1 1-.17-7.11 1.17-2.89v-4l4-1z" transform="translate(-55.42 -44.83)"/><path class="cls-1" d="M147 17l1.53 1.02L150 17l-1-4-2 4z"/><path class="cls-1" d="M213.42 59.83l-1-3s-1-3 0-3 1-2 1-2a1.39 1.39 0 010-2c1-1-1-3-1-3-1 2-2 9-2 9l2 4-1 3.15v1.85l1 2-.69 2.17 3.69-.18-1-3-1-2 2-2zm23-5c-1 1-2.17 1-2.58 2 0 0-.42 1-.42-1s1-2 1-3a10.07 10.07 0 011-3l1-3c-1 0-3 5-3 5l-1 5-1 3-.55-.37-2.45-1.63 1 1s4 2 3 3a3.1 3.1 0 00-1 2l1 2a1 1 0 00-1 1 3.49 3.49 0 001 2l2-3-1-3 .42-1.86.58-1.14 1.83-3s1.17-1 2.17-2-1-1-2 0zm0 12c0 1 .41 2.33 1.2 2.16s.8-1.16.8-1.16l-1-3c0 1-1 1-1 2z" transform="translate(-55.42 -44.83)"/><path class="cls-1" d="M196 14v-3h-1l-1 3v1l2.03 1.06L196 14z"/><path class="cls-1" d="M251.17 66.48l-.75-2.65-.22.07-.78-2.07.54 2v.16l-2.58.86c0 1-1 3 0 3h3l.42-.75.47 1.77 1.11 1-1.25-3.34zm5.25-1.65c-1 0-2-2-2-2v1l-2 2s-1 1 0 1h3c1 0 2-2 1-2zm17-11v3l3 1v-7c-1 1-3 2-3 3zm0 8v-4h-1v4l2 4 1 3v1a1 1 0 001-1c0-1 0-3-1-4s-2-2-2-3zM295.33 63l.09-4.18s-2-2-2-3a10.07 10.07 0 00-1-3v-2l-2-2c0 2-1 6 0 6s2 3 2 3a3.49 3.49 0 011 2v3a2 2 0 012 2 20.34 20.34 0 001 5 2.19 2.19 0 001-3c-1-1.99-2.09-3.82-2.09-3.82zm-5.17-2.09a12.1 12.1 0 01-1.61-.32l-.13 2.24 2 2h3a4.94 4.94 0 00-1-3 3.17 3.17 0 00-2.26-.92zm17.26-5.08h-1s-3-1-3-2-2-1-2-2a43.79 43.79 0 01.68-4.37c-.9 2.64-3.33 5.37-1.68 5.37 2 0 2 3 3 4s2 4 2 4v4s-2 1-2 2 2 1 2 1l2 1v-7l-1-4h3l4-5-4 1s-1 2-2 2zm-5.32-8.37a5.17 5.17 0 00.32-1.63s-.14.7-.32 1.63zm26.32 16.37l-.92-2.77c.16.08.18 0-.08-.23-1-1-1-6-1-7s-3-3-3-3v3c0 1 2 4 2 5 0 .69 1.46 1.88 2 2.19v2.81s-1 1-1 0-2.49-2.76-2.49-2.76l-.51 2.76 2 1 2 2v2l2 1v-4c0-2-1-2-1-2zm-7.88 5l2.88-1v-1a3.49 3.49 0 00-2-1c-1 0-1 2-.88 3zm23.88-15c0 1-4 4-4 5s-1-2-1-3-1-8-1-8h-1l.73 6.78s-.73 4.22.27 5.22-1 2-1 2v4s3 2 3 2.84v-1.84l-1-3v-2a3.49 3.49 0 011-2l3-2 3-5s-2 0-2 1zm9 12c-1 0-1-2-1-2l1-3a1 1 0 01-1-1c0-1-1-1 0-2s-.88-.84-.88-.84c-.12.84-2.12 3.84-1.12 4.84s2 2 1 3-1 3 0 3 1-.13 2 .93 1-2.93 0-2.93zm2-4v3l-1 2 .28 1.79 1.72 1.21v-3a10.07 10.07 0 011-3s-1.7.09-.85-.95a2.59 2.59 0 011.85-1.05l.88-1.11-.88-1.89c0 1-3 3-3 3zm16-6a10.07 10.07 0 01-1 3s-.13.4-.32 1a3.28 3.28 0 01-1.68-1 3.1 3.1 0 00-2-1s-1 0 0 1 1 2 2 2a2.84 2.84 0 001.54-.62 25.58 25.58 0 01-1 2.67 7.27 7.27 0 01-2.5 1.95v5a4.94 4.94 0 011-3 3.1 3.1 0 001-2s2-2 2-3v-2l2-1v-5c0-2-2-5-2-5-.04 2 .96 6 .96 7zm7 5v-3l-1 4 2 2-1 2 1 2 2-4-2-2zm12-9v-3s0-2-1-2h-1v1a22.69 22.69 0 001 4zm3-4v-3c-.17.33-.33.69-.5 1.06-.81 1.85-1.5 3.94-1.5 3.94l.85 1.71c-1 .7-1.85 1.29-1.85 1.29l-1 3v7h-3l1 2 1 1s1-1 1 1-1 4 0 2a13.38 13.38 0 001-5v-9l1-2a3.49 3.49 0 012-1c1 0 1-2 1-2a19.38 19.38 0 01-1.88 1.51c.19-.74.88-3.51.88-3.51zm9 8a14.39 14.39 0 00-2 3v3c0 1-1 2 0 2a1.1 1.1 0 01.48.11l-1.48 1.89v1c-1-1-3-2-3-1v2l2.46 1.23 1.54-1.23 1-2v-1l2-2a22.69 22.69 0 01-1-4c0-1 1-4 0-3zm-2-1l1-1c1-1 0 0-1-2s0-2-1-2 0 2 1 4zm29 4v-2l1-3a4.94 4.94 0 00-1-3l-3-3 1 4 .76 3.29-.76 2.71-.88-.47-3.12-5.53h-2l5 7 1.91 2 .09 5v3l2-1v-5l1.94-1.74 1.06-2.26.28-1.77-4.28 3.77zm13-2c1 1 4 10 4 10l1 3 2-.82-1-3.18v-3l2-5v-2l-3 4zm15 5l-3-11c0 1 1 6 1 6v9l2 4h1v-6l1-2s0-4 1-5 3-8 3-8l-5 11zm21-4v-2l1-2 1-4-2 1-2 3-1 1-2-7c0 1-1 6-1 6l3.14 3-.14 4-1 4s-2 2-2 3a3.49 3.49 0 001 2 1 1 0 001-1 10.07 10.07 0 011-3l1-3s.68-2 .34-2a20.63 20.63 0 012.66-1l2-2-3 1zm22-8l-3 3-3 1a22.69 22.69 0 001-4c0-1-3-1-3-1v7l-3.82-1c.69.36-.11 3 .82 3s4 2 4 2l1 9 1 1-.17-7.11 1.17-2.89v-4l4-1z" transform="translate(-55.42 -44.83)"/><path class="cls-1" d="M445 17l1.53 1.02L448 17l-1-4-2 4z"/><path class="cls-1" d="M511.42 59.83l-1-3s-1-3 0-3 1-2 1-2a1.39 1.39 0 010-2c1-1-1-3-1-3-1 2-2 9-2 9l2 4-1 3.15v1.85l1 2-.69 2.17 3.69-.18-1-3-1-2 2-2zm23-5c-1 1-2.17 1-2.58 2 0 0-.42 1-.42-1s1-2 1-3a10.07 10.07 0 011-3l1-3c-1 0-3 5-3 5l-1 5-1 3-.55-.37-2.45-1.63 1 1s4 2 3 3a3.1 3.1 0 00-1 2l1 2a1 1 0 00-1 1 3.49 3.49 0 001 2l2-3-1-3 .42-1.86.58-1.14 1.83-3s1.17-1 2.17-2-1-1-2 0zm0 12c0 1 .41 2.33 1.2 2.16s.8-1.16.8-1.16l-1-3c0 1-1 1-1 2z" transform="translate(-55.42 -44.83)"/><path class="cls-1" d="M494 14v-3h-1l-1 3v1l2.03 1.06L494 14z"/><path class="cls-1" d="M549.17 66.48l-.75-2.65-.22.07-.78-2.07.54 2v.16l-2.58.86c0 1-1 3 0 3h3l.42-.75.47 1.77 1.11 1-1.25-3.34zm5.25-1.65c-1 0-2-2-2-2v1l-2 2s-1 1 0 1h3c1 0 2-2 1-2zm17-11v3l3 1v-7c-1 1-3 2-3 3zm0 8v-4h-1v4l2 4 1 3v1a1 1 0 001-1c0-1 0-3-1-4s-2-2-2-3zM593.33 63l.09-4.18s-2-2-2-3a10.07 10.07 0 00-1-3v-2l-2-2c0 2-1 6 0 6s2 3 2 3a3.49 3.49 0 011 2v3a2 2 0 012 2 20.34 20.34 0 001 5 2.19 2.19 0 001-3c-1-1.99-2.09-3.82-2.09-3.82zm-5.17-2.09a12.1 12.1 0 01-1.61-.32l-.13 2.24 2 2h3a4.94 4.94 0 00-1-3 3.17 3.17 0 00-2.26-.92zm17.26-5.08h-1s-3-1-3-2-2-1-2-2a43.79 43.79 0 01.68-4.37c-.9 2.64-3.33 5.37-1.68 5.37 2 0 2 3 3 4s2 4 2 4v4s-2 1-2 2 2 1 2 1l2 1v-7l-1-4h3l4-5-4 1s-1 2-2 2zm-5.32-8.37a5.17 5.17 0 00.32-1.63s-.14.7-.32 1.63zm26.32 16.37l-.92-2.77c.16.08.18 0-.08-.23-1-1-1-6-1-7s-3-3-3-3v3c0 1 2 4 2 5 0 .69 1.46 1.88 2 2.19v2.81s-1 1-1 0-2.49-2.76-2.49-2.76l-.51 2.76 2 1 2 2v2l2 1v-4c0-2-1-2-1-2zm-7.88 5l2.88-1v-1a3.49 3.49 0 00-2-1c-1 0-1 2-.88 3zm23.88-15c0 1-4 4-4 5s-1-2-1-3-1-8-1-8h-1l.73 6.78s-.73 4.22.27 5.22-1 2-1 2v4s3 2 3 2.84v-1.84l-1-3v-2a3.49 3.49 0 011-2l3-2 3-5s-2 0-2 1zm9 12c-1 0-1-2-1-2l1-3a1 1 0 01-1-1c0-1-1-1 0-2s-.88-.84-.88-.84c-.12.84-2.12 3.84-1.12 4.84s2 2 1 3-1 3 0 3 1-.13 2 .93 1-2.93 0-2.93zm2-4v3l-1 2 .28 1.79 1.72 1.21v-3a10.07 10.07 0 011-3s-1.7.09-.85-.95a2.59 2.59 0 011.85-1.05l.88-1.11-.88-1.89c0 1-3 3-3 3zm16-6a10.07 10.07 0 01-1 3s-.13.4-.32 1a3.28 3.28 0 01-1.68-1 3.1 3.1 0 00-2-1s-1 0 0 1 1 2 2 2a2.84 2.84 0 001.54-.62 25.58 25.58 0 01-1 2.67 7.27 7.27 0 01-2.5 1.95v5a4.94 4.94 0 011-3 3.1 3.1 0 001-2s2-2 2-3v-2l2-1v-5c0-2-2-5-2-5-.04 2 .96 6 .96 7zm7 5v-3l-1 4 2 2-1 2 1 2 2-4-2-2zm12-9v-3s0-2-1-2h-1v1a22.69 22.69 0 001 4zm3-4v-3c-.17.33-.33.69-.5 1.06-.81 1.85-1.5 3.94-1.5 3.94l.85 1.71c-1 .7-1.85 1.29-1.85 1.29l-1 3v7h-3l1 2 1 1s1-1 1 1-1 4 0 2a13.38 13.38 0 001-5v-9l1-2a3.49 3.49 0 012-1c1 0 1-2 1-2a19.38 19.38 0 01-1.88 1.51c.19-.74.88-3.51.88-3.51zm9 8a14.39 14.39 0 00-2 3v3c0 1-1 2 0 2a1.1 1.1 0 01.48.11l-1.48 1.89v1c-1-1-3-2-3-1v2l2.46 1.23 1.54-1.23 1-2v-1l2-2a22.69 22.69 0 01-1-4c0-1 1-4 0-3zm-2-1l1-1c1-1 0 0-1-2s0-2-1-2 0 2 1 4zm30 4v-2l1-3a4.94 4.94 0 00-1-3l-3-3 1 4 .76 3.29-.76 2.71-.88-.47-3.12-5.53h-2l5 7 1.91 2 .09 5v3l2-1v-5l1.94-1.74 1.06-2.26.28-1.77-4.28 3.77zm13-2c1 1 4 10 4 10l1 3 2-.82-1-3.18v-3l2-5v-2l-3 4zm15 5l-3-11c0 1 1 6 1 6v9l2 4h1v-6l1-2s0-4 1-5 3-8 3-8l-5 11zm21-4v-2l1-2 1-4-2 1-2 3-1 1-2-7c0 1-1 6-1 6l3.14 3-.14 4-1 4s-2 2-2 3a3.49 3.49 0 001 2 1 1 0 001-1 10.07 10.07 0 011-3l1-3s.68-2 .34-2a20.63 20.63 0 012.66-1l2-2-3 1zm22-8l-3 3-3 1a22.69 22.69 0 001-4c0-1-3-1-3-1v7l-3.82-1c.69.36-.11 3 .82 3s4 2 4 2l1 9 1 1-.17-7.11 1.17-2.89v-4l4-1z" transform="translate(-55.42 -44.83)"/><path class="cls-1" d="M744 17l1.53 1.02L747 17l-1-4-2 4z"/><path class="cls-1" d="M810.42 59.83l-1-3s-1-3 0-3 1-2 1-2a1.39 1.39 0 010-2c1-1-1-3-1-3-1 2-2 9-2 9l2 4-1 3.15v1.85l1 2-.69 2.17 3.69-.18-1-3-1-2 2-2zm23-5c-1 1-2.17 1-2.58 2 0 0-.42 1-.42-1s1-2 1-3a10.07 10.07 0 011-3l1-3c-1 0-3 5-3 5l-1 5-1 3-.55-.37-2.45-1.63 1 1s4 2 3 3a3.1 3.1 0 00-1 2l1 2a1 1 0 00-1 1 3.49 3.49 0 001 2l2-3-1-3 .42-1.86.58-1.14 1.83-3s1.17-1 2.17-2-1-1-2 0zm0 12c0 1 .41 2.33 1.2 2.16s.8-1.16.8-1.16l-1-3c0 1-1 1-1 2z" transform="translate(-55.42 -44.83)"/><path class="cls-1" d="M793 14v-3h-1l-1 3v1l2.03 1.06L793 14z"/><path class="cls-1" d="M848.17 66.48l-.75-2.65-.22.07-.78-2.07.54 2v.16l-2.58.86c0 1-1 3 0 3h3l.42-.75.47 1.77 1.11 1-1.25-3.34zm5.25-1.65c-1 0-2-2-2-2v1l-2 2s-1 1 0 1h3c1 0 2-2 1-2zm17-11v3l3 1v-7c-1 1-3 2-3 3zm0 8v-4h-1v4l2 4 1 3v1a1 1 0 001-1c0-1 0-3-1-4s-2-2-2-3zM892.33 63l.09-4.18s-2-2-2-3a10.07 10.07 0 00-1-3v-2l-2-2c0 2-1 6 0 6s2 3 2 3a3.49 3.49 0 011 2v3a2 2 0 012 2 20.34 20.34 0 001 5 2.19 2.19 0 001-3c-1-1.99-2.09-3.82-2.09-3.82zm-5.17-2.09a12.1 12.1 0 01-1.61-.32l-.13 2.24 2 2h3a4.94 4.94 0 00-1-3 3.17 3.17 0 00-2.26-.92zm17.26-5.08h-1s-3-1-3-2-2-1-2-2a43.79 43.79 0 01.68-4.37c-.9 2.64-3.33 5.37-1.68 5.37 2 0 2 3 3 4s2 4 2 4v4s-2 1-2 2 2 1 2 1l2 1v-7l-1-4h3l4-5-4 1s-1 2-2 2zm-5.32-8.37a5.17 5.17 0 00.32-1.63s-.14.7-.32 1.63zm26.32 16.37l-.92-2.77c.16.08.18 0-.08-.23-1-1-1-6-1-7s-3-3-3-3v3c0 1 2 4 2 5 0 .69 1.46 1.88 2 2.19v2.81s-1 1-1 0-2.49-2.76-2.49-2.76l-.51 2.76 2 1 2 2v2l2 1v-4c0-2-1-2-1-2zm-7.88 5l2.88-1v-1a3.49 3.49 0 00-2-1c-1 0-1 2-.88 3zm23.88-15c0 1-4 4-4 5s-1-2-1-3-1-8-1-8h-1l.73 6.78s-.73 4.22.27 5.22-1 2-1 2v4s3 2 3 2.84v-1.84l-1-3v-2a3.49 3.49 0 011-2l3-2 3-5s-2 0-2 1zm9 12c-1 0-1-2-1-2l1-3a1 1 0 01-1-1c0-1-1-1 0-2s-.88-.84-.88-.84c-.12.84-2.12 3.84-1.12 4.84s2 2 1 3-1 3 0 3 1-.13 2 .93 1-2.93 0-2.93zm2-4v3l-1 2 .28 1.79 1.72 1.21v-3a10.07 10.07 0 011-3s-1.7.09-.85-.95a2.59 2.59 0 011.85-1.05l.88-1.11-.88-1.89c0 1-3 3-3 3zm16-6a10.07 10.07 0 01-1 3s-.13.4-.32 1a3.28 3.28 0 01-1.68-1 3.1 3.1 0 00-2-1s-1 0 0 1 1 2 2 2a2.84 2.84 0 001.54-.62 25.58 25.58 0 01-1 2.67 7.27 7.27 0 01-2.5 1.95v5a4.94 4.94 0 011-3 3.1 3.1 0 001-2s2-2 2-3v-2l2-1v-5c0-2-2-5-2-5-.04 2 .96 6 .96 7zm7 5v-3l-1 4 2 2-1 2 1 2 2-4-2-2zm12-9v-3s0-2-1-2h-1v1a22.69 22.69 0 001 4zm3-4v-3c-.17.33-.33.69-.5 1.06-.81 1.85-1.5 3.94-1.5 3.94l.85 1.71c-1 .7-1.85 1.29-1.85 1.29l-1 3v7h-3l1 2 1 1s1-1 1 1-1 4 0 2a13.38 13.38 0 001-5v-9l1-2a3.49 3.49 0 012-1c1 0 1-2 1-2a19.38 19.38 0 01-1.88 1.51c.19-.74.88-3.51.88-3.51zm9 8a14.39 14.39 0 00-2 3v3c0 1-1 2 0 2a1.1 1.1 0 01.48.11l-1.48 1.89v1c-1-1-3-2-3-1v2l2.46 1.23 1.54-1.23 1-2v-1l2-2a22.69 22.69 0 01-1-4c0-1 1-4 0-3zm-2-1l1-1c1-1 0 0-1-2s0-2-1-2 0 2 1 4zm16 4v-2l1-3a4.94 4.94 0 00-1-3l-3-3 1 4 .76 3.29-.76 2.71-.88-.47-3.12-5.53h-2l5 7 1.91 2 .09 5v3l2-1v-5l1.94-1.74 1.06-2.26.28-1.77-4.28 3.77zm13-2c1 1 4 10 4 10l1 3 2-.82-1-3.18v-3l2-5v-2l-3 4zm15 5l-3-11c0 1 1 6 1 6v9l2 4h1v-6l1-2s0-4 1-5 3-8 3-8l-5 11zm21-4v-2l1-2 1-4-2 1-2 3-1 1-2-7c0 1-1 6-1 6l3.14 3-.14 4-1 4s-2 2-2 3a3.49 3.49 0 001 2 1 1 0 001-1 10.07 10.07 0 011-3l1-3s.68-2 .34-2a20.63 20.63 0 012.66-1l2-2-3 1zm22-8l-3 3-3 1a22.69 22.69 0 001-4c0-1-3-1-3-1v7l-3.82-1c.69.36-.11 3 .82 3s4 2 4 2l1 9 1 1-.17-7.11 1.17-2.89v-4l4-1z" transform="translate(-55.42 -44.83)"/><path class="cls-1" d="M1029 17l1.53 1.02L1032 17l-1-4-2 4z"/><path class="cls-1" d="M1095.42 59.83l-1-3s-1-3 0-3 1-2 1-2a1.39 1.39 0 010-2c1-1-1-3-1-3-1 2-2 9-2 9l2 4-1 3.15v1.85l1 2-.69 2.18 3.69-.18-1-3-1-2 2-2zm23-5c-1 1-2.17 1-2.58 2 0 0-.42 1-.42-1s1-2 1-3a10.07 10.07 0 011-3l1-3c-1 0-3 5-3 5l-1 5-1 3-.55-.37-2.45-1.63 1 1s4 2 3 3a3.1 3.1 0 00-1 2l1 2a1 1 0 00-1 1 3.49 3.49 0 001 2l2-3-1-3 .42-1.86.58-1.14 1.83-3s1.17-1 2.17-2-1-1-2 0zm0 12c0 1 .41 2.33 1.2 2.16s.8-1.16.8-1.16l-1-3c0 1-1 1-1 2z" transform="translate(-55.42 -44.83)"/><path class="cls-1" d="M1078 14v-3h-1l-1 3v1l2.03 1.06L1078 14z"/><path class="cls-1" d="M1133.17 66.48l-.75-2.65-.22.07-.78-2.07.54 2v.16l-2.58.86c0 1-1 3 0 3h3l.42-.75.47 1.77 1.11 1-1.25-3.34zm5.25-1.65c-1 0-2-2-2-2v1l-2 2s-1 1 0 1h3c1 0 2-2 1-2zm17-11v3l3 1v-7c-1 1-3 2-3 3zm0 8v-4h-1v4l2 4 1 3v1a1 1 0 001-1c0-1 0-3-1-4s-2-2-2-3z" transform="translate(-55.42 -44.83)"/></svg>