<svg id="Layer_1" data-name="Layer 1" xmlns="http://www.w3.org/2000/svg" xmlns:xlink="http://www.w3.org/1999/xlink" width="1423.16" height="340.53"><defs><linearGradient id="linear-gradient-46" x1="1213.89" y1="314.74" x2="1279.41" y2="314.74" xlink:href="#linear-gradient-44"/><linearGradient id="linear-gradient" x1="1613.24" y1="148.47" x2="1613.24" y2="247.98" gradientTransform="matrix(1 0 0 -1 -78.94 375.43)" gradientUnits="userSpaceOnUse"><stop offset="0" stop-color="#3a322b"/><stop offset=".05" stop-color="#5c5045"/><stop offset=".5" stop-color="#4a4137"/><stop offset="1" stop-color="#927e6c"/></linearGradient><linearGradient id="linear-gradient-2" x1="500.95" y1="249.38" x2="500.95" y2="314.21" gradientTransform="matrix(1 0 0 -1 -190.92 387.77)" gradientUnits="userSpaceOnUse"><stop offset="0" stop-color="#3a322b"/><stop offset=".09" stop-color="#4a4137"/><stop offset="1" stop-color="#927e6c"/></linearGradient><linearGradient id="linear-gradient-3" x1="627.47" y1="321.94" x2="664.9" y2="321.94" gradientTransform="matrix(1 0 0 -1 -190.92 387.77)" gradientUnits="userSpaceOnUse"><stop offset="0" stop-color="#927e6c"/><stop offset=".08" stop-color="#5d5146"/><stop offset=".29" stop-color="#7c6b5c"/><stop offset=".71" stop-color="#4a4137"/><stop offset="1" stop-color="#927e6c"/></linearGradient><linearGradient id="linear-gradient-4" x1="633.06" y1="294.14" x2="671.51" y2="294.14" gradientTransform="matrix(1 0 0 -1 -190.92 387.77)" gradientUnits="userSpaceOnUse"><stop offset=".01" stop-color="#5c5045"/><stop offset=".96" stop-color="#4a4137"/><stop offset="1" stop-color="#3a322b"/></linearGradient><linearGradient id="linear-gradient-5" x1="1252.58" y1="35.04" x2="1252.58" y2="135.79" gradientTransform="matrix(1 0 0 -1 -78.95 375.43)" gradientUnits="userSpaceOnUse"><stop offset="0" stop-color="#52483d"/><stop offset="1" stop-color="#3a322b"/></linearGradient><linearGradient id="linear-gradient-6" x1="1584.15" y1="106.67" x2="1584.15" y2="127.4" gradientTransform="matrix(1 0 0 -1 -190.92 387.77)" xlink:href="#linear-gradient-5"/><linearGradient id="linear-gradient-7" x1="485.73" y1="59.54" x2="485.73" y2="138.83" gradientTransform="matrix(1 0 0 -1 -190.92 387.77)" xlink:href="#linear-gradient-5"/><linearGradient id="linear-gradient-8" x1="964.54" y1="129.72" x2="964.54" y2="262.97" gradientTransform="matrix(1 0 0 -1 -78.95 375.43)" gradientUnits="userSpaceOnUse"><stop offset="0" stop-color="#3a322b"/><stop offset=".01" stop-color="#5c5045"/><stop offset=".95" stop-color="#4a4137"/><stop offset=".98" stop-color="#3a322b"/></linearGradient><linearGradient id="linear-gradient-9" x1="1545.69" y1="309.28" x2="1545.69" y2="343.72" gradientTransform="matrix(1 0 0 -1 -190.92 387.77)" xlink:href="#linear-gradient"/><linearGradient id="linear-gradient-10" x1="1316.9" y1="205.03" x2="1316.9" y2="313.25" gradientTransform="matrix(1 0 0 -1 -190.92 387.77)" xlink:href="#linear-gradient"/><linearGradient id="linear-gradient-11" x1="1034.05" y1="183.9" x2="1034.05" y2="329.68" gradientTransform="matrix(1 0 0 -1 -190.92 387.77)" gradientUnits="userSpaceOnUse"><stop offset="0" stop-color="#52483d"/><stop offset=".8" stop-color="#63564a"/><stop offset="1" stop-color="#927e6c"/></linearGradient><linearGradient id="linear-gradient-12" x1="870.86" y1="319.36" x2="870.86" y2="369.02" xlink:href="#linear-gradient-2"/><linearGradient id="linear-gradient-13" x1="708.45" y1="319.36" x2="708.45" y2="369.02" xlink:href="#linear-gradient-2"/><linearGradient id="linear-gradient-14" x1="1204.01" y1="199.25" x2="1204.01" y2="319.36" gradientTransform="matrix(1 0 0 -1 -190.92 387.77)" gradientUnits="userSpaceOnUse"><stop offset="0" stop-color="#3a322b"/><stop offset=".06" stop-color="#78685a"/><stop offset=".5" stop-color="#6e6051"/><stop offset="1" stop-color="#d2c8bd"/></linearGradient><linearGradient id="linear-gradient-15" x1="1120.6" y1="199.25" x2="1120.6" y2="319.36" xlink:href="#linear-gradient-14"/><linearGradient id="linear-gradient-16" x1="1294.33" y1="199.25" x2="1294.33" y2="319.36" xlink:href="#linear-gradient-14"/><linearGradient id="linear-gradient-17" x1="1319.71" y1="199.25" x2="1319.71" y2="319.36" xlink:href="#linear-gradient-14"/><linearGradient id="linear-gradient-18" x1="1417.17" y1="199.25" x2="1417.17" y2="319.36" xlink:href="#linear-gradient-14"/><linearGradient id="linear-gradient-19" x1="1519.32" y1="71.88" x2="1519.32" y2="188.31" gradientTransform="matrix(1 0 0 -1 -190.92 387.77)" gradientUnits="userSpaceOnUse"><stop offset="0" stop-color="#665a4c"/><stop offset=".09" stop-color="#52483d"/><stop offset=".8" stop-color="#63564a"/><stop offset="1" stop-color="#927e6c"/></linearGradient><linearGradient id="linear-gradient-20" x1="1478.22" y1="82.67" x2="1478.22" y2="143.3" gradientTransform="matrix(1 0 0 -1 -190.92 387.77)" gradientUnits="userSpaceOnUse"><stop offset="0" stop-color="#63564a"/><stop offset=".43" stop-color="#53483d"/><stop offset="1" stop-color="#927e6c"/></linearGradient><linearGradient id="linear-gradient-21" x1="1562.32" y1="75.69" x2="1562.32" y2="143.3" xlink:href="#linear-gradient-20"/><linearGradient id="linear-gradient-22" x1="1560.17" y1="152.69" x2="1560.17" y2="182.58" xlink:href="#linear-gradient-20"/><linearGradient id="linear-gradient-23" x1="1135.08" y1="346.25" x2="1200.35" y2="346.25" xlink:href="#linear-gradient-3"/><linearGradient id="linear-gradient-24" x1="1135.07" y1="377.78" x2="1200.35" y2="377.78" gradientTransform="matrix(1 0 0 -1 0 434)" gradientUnits="userSpaceOnUse"><stop offset="0" stop-color="#927e6c"/><stop offset=".71" stop-color="#4a4137"/><stop offset="1" stop-color="#927e6c"/></linearGradient><linearGradient id="linear-gradient-25" x1="1206.58" y1="346.25" x2="1271.85" y2="346.25" xlink:href="#linear-gradient-3"/><linearGradient id="linear-gradient-26" x1="1206.58" y1="377.78" x2="1271.85" y2="377.78" xlink:href="#linear-gradient-24"/><linearGradient id="linear-gradient-27" x1="1323.19" y1="377.78" x2="1388.45" y2="377.78" xlink:href="#linear-gradient-24"/><linearGradient id="linear-gradient-28" x1="1323.18" y1="346.25" x2="1388.46" y2="346.25" xlink:href="#linear-gradient-3"/><linearGradient id="linear-gradient-29" x1="1242.67" y1="310.52" x2="1291.41" y2="310.52" gradientTransform="matrix(1 0 0 -1 -190.92 387.77)" xlink:href="#linear-gradient"/><linearGradient id="linear-gradient-30" x1="874.16" y1="129.74" x2="874.16" y2="260.79" xlink:href="#linear-gradient-8"/><linearGradient id="linear-gradient-31" x1="490.54" y1="321.94" x2="527.96" y2="321.94" xlink:href="#linear-gradient-3"/><linearGradient id="linear-gradient-32" x1="489.08" y1="330.44" x2="529.42" y2="330.44" xlink:href="#linear-gradient-3"/><linearGradient id="linear-gradient-33" x1="626.02" y1="330.44" x2="666.35" y2="330.44" xlink:href="#linear-gradient-3"/><linearGradient id="linear-gradient-34" x1="586.92" y1="80.26" x2="586.92" y2="260.79" gradientTransform="matrix(1 0 0 -1 -78.95 375.43)" gradientUnits="userSpaceOnUse"><stop offset=".01" stop-color="#5c5045"/><stop offset=".95" stop-color="#4a4137"/><stop offset=".98" stop-color="#3a322b"/></linearGradient><linearGradient id="linear-gradient-35" x1="1454" y1="325.53" x2="1503.78" y2="325.53" xlink:href="#linear-gradient-3"/><linearGradient id="linear-gradient-36" x1="1454" y1="359.74" x2="1503.78" y2="359.74" xlink:href="#linear-gradient-3"/><linearGradient id="linear-gradient-40" x1="1167.71" y1="373.14" x2="1167.71" y2="382.42" gradientTransform="matrix(1 0 0 -1 0 434)" gradientUnits="userSpaceOnUse"><stop offset=".32" stop-color="#927e6c" stop-opacity="0"/><stop offset="1" stop-color="#d2c8bd"/></linearGradient><linearGradient id="linear-gradient-41" x1="1239.22" y1="373.14" x2="1239.22" y2="382.42" xlink:href="#linear-gradient-40"/><linearGradient id="linear-gradient-42" x1="1355.82" y1="373.14" x2="1355.82" y2="382.42" xlink:href="#linear-gradient-40"/><linearGradient id="linear-gradient-43" x1="765.37" y1="359.14" x2="765.37" y2="375.26" gradientTransform="matrix(1 0 0 -1 -190.92 387.77)" gradientUnits="userSpaceOnUse"><stop offset="0" stop-color="#4a4137"/><stop offset="1" stop-color="#927e6c"/></linearGradient><linearGradient id="linear-gradient-44" x1="1285.27" y1="314.74" x2="1350.79" y2="314.74" gradientTransform="matrix(1 0 0 -1 -269.86 329.2)" gradientUnits="userSpaceOnUse"><stop offset="0" stop-color="#b09882"/><stop offset=".08" stop-color="#a38f7a"/><stop offset=".29" stop-color="#a38d79"/><stop offset=".71" stop-color="#827261"/><stop offset="1" stop-color="#b59c86"/></linearGradient><linearGradient id="linear-gradient-45" x1="1402" y1="314.74" x2="1467.52" y2="314.74" xlink:href="#linear-gradient-44"/><style>.cls-9{fill:#3a322b}.cls-15{fill:#927e6c}.cls-21{fill:#53493e}.cls-27{fill:url(#linear-gradient-24)}.cls-29{fill:url(#linear-gradient-26)}.cls-30{fill:url(#linear-gradient-27)}.cls-44{fill:#63564a}</style></defs><g id="Episod_2" data-name="Episod 2"><g id="Loco"><path d="M1539 136.73v80.94a9.28 9.28 0 01-9.28 9.29h-.18v-99.51h.18a9.27 9.27 0 019.28 9.28z" transform="translate(-190.92 -46.23)" fill="url(#linear-gradient)"/><path fill="url(#linear-gradient-2)" d="M177.91 73.56h264.25v64.83H177.91z"/><path fill="url(#linear-gradient-3)" d="M436.55 58.09h37.43v15.47h-37.43z"/><path fill="url(#linear-gradient-4)" d="M442.14 67.8h38.45v51.64h-38.45z"/><path d="M1566.13 241.27h-170.91a32.22 32.22 0 00-20.22 0h-154a32.22 32.22 0 00-20.22 0H958.94v4.42H785.39l42.51 46.21h-8.17v18.63h-7.3v2.65h-5.25v1.75h-24v-6.58h-2.07v19h2.07v-6.55h24v1.78h5.25v2.37h7.3v15.48h663.12v-45.26h21.87v-45.06h61.41zm-380.2 50.63h-76.73v-41.79h78.06a32.07 32.07 0 00-1.26 41.79zm174.17 0h-19.8v-31h-34.25v31h-70.11a32.11 32.11 0 00-1.29-41.79h126.75a32.1 32.1 0 00-1.3 41.79zm63.2 0h-13.18a32.1 32.1 0 00-1.29-41.79h14.47z" transform="translate(-190.92 -46.23)" fill="url(#linear-gradient-5)"/><path fill="url(#linear-gradient-6)" d="M1421.11 262.14v6.55h-7.61v-1.74h-15.56v-2.33h-6v-4.25h-28.65v19.85h28.65v-1.28h6v-2.65h15.56v-1.75h7.61v6.56h2.05v-18.96h-2.05z"/><path fill="url(#linear-gradient-7)" d="M587.56 262.14v6.55h-14.28v-1.74h-15.55v-2.33h-6.42v-15.69H84.69v11.42H40.15v3.94h-8.26v2.66H16.33v1.74H2.06v-6.55H0v18.96h2.06v-6.56h14.27v1.75h15.56v2.33h8.26v19.93H411.1v29.67h79.95v-29.67h60.26v-19.61h6.42v-2.65h15.55v-1.75h14.28v6.56h2.06v-18.96h-2.06z"/><path d="M812.14 112.46v133.25h146.91V112.46zm66.61 48.1a9.46 9.46 0 01-9.46 9.46h-30.64a9.47 9.47 0 01-9.46-9.46v-33.91a9.47 9.47 0 019.46-9.46h30.64a9.46 9.46 0 019.46 9.46zm63.82 0a9.47 9.47 0 01-9.46 9.46h-30.65a9.47 9.47 0 01-9.46-9.46v-33.91a9.47 9.47 0 019.46-9.46h30.65a9.47 9.47 0 019.46 9.46z" transform="translate(-190.92 -46.23)" fill="url(#linear-gradient-8)"/><path class="cls-9" d="M554.43 70.99h32.94v128.47h-32.94z"/><path fill="url(#linear-gradient-9)" d="M1339.49 44.04h30.57v34.44h-30.57z"/><path fill="url(#linear-gradient-10)" d="M912.48 68.41h427.01v135.45H912.48z"/><path fill="url(#linear-gradient-11)" d="M767.99 58.09h150.29v145.78H767.99z"/><path fill="url(#linear-gradient-12)" d="M587.38 18.74h185.13v49.67H587.38z"/><path fill="url(#linear-gradient-13)" d="M475.43 18.74h84.21v49.67h-84.21z"/><path class="cls-15" d="M767.99 188.51h607.22v6.53H767.99z"/><path class="cls-15" d="M916.08 117h2.55v74.77h-2.55zm152.97 0h2.55v74.77h-2.55z"/><path fill="url(#linear-gradient-14)" d="M1010.38 68.41h5.44v120.1h-5.44z"/><path fill="url(#linear-gradient-15)" d="M926.96 68.41h5.44v120.1h-5.44z"/><path fill="url(#linear-gradient-16)" d="M1100.7 68.41h5.44v120.1h-5.44z"/><path fill="url(#linear-gradient-17)" d="M1126.07 68.41h5.44v120.1h-5.44z"/><path fill="url(#linear-gradient-18)" d="M1223.53 68.41h5.44v120.1h-5.44z"/><path class="cls-15" d="M1219.23 117h2.55v74.77h-2.55zm152.18 0h2.55v74.77h-2.55z"/><circle class="cls-21" cx="908.73" cy="294.11" r="45.18"/><circle class="cls-21" cx="805.31" cy="294.11" r="45.18"/><circle class="cls-21" cx="1009.43" cy="294.11" r="45.18"/><circle class="cls-21" cx="1112.85" cy="294.11" r="45.18"/><circle class="cls-21" cx="1217.91" cy="294.11" r="45.18"/><path fill="url(#linear-gradient-19)" d="M1289.21 199.46h78.38v116.43h-78.38z"/><path fill="url(#linear-gradient-20)" d="M1285.4 244.46h3.81v60.63h-3.81z"/><path fill="url(#linear-gradient-21)" d="M1367.59 244.46h7.62v67.61h-7.62z"/><path fill="url(#linear-gradient-22)" d="M1367.59 205.19h3.32v29.88h-3.32z"/><path fill="url(#linear-gradient-23)" d="M944.16 14.62h65.28v53.79h-65.28z"/><path class="cls-27" d="M1144.35 51.58h46.72a9.29 9.29 0 019.28 9.28h-65.28a9.28 9.28 0 019.28-9.28z" transform="translate(-190.92 -46.23)"/><path fill="url(#linear-gradient-25)" d="M1015.66 14.62h65.28v53.79h-65.28z"/><path class="cls-29" d="M1215.86 51.58h46.71a9.28 9.28 0 019.28 9.28h-65.27a9.28 9.28 0 019.28-9.28z" transform="translate(-190.92 -46.23)"/><path class="cls-30" d="M1332.46 51.58h46.71a9.29 9.29 0 019.28 9.28h-65.26a9.28 9.28 0 019.28-9.28z" transform="translate(-190.92 -46.23)"/><path fill="url(#linear-gradient-28)" d="M1132.26 14.62h65.28v53.79h-65.28z"/><ellipse cx="1076.12" cy="77.25" rx="24.37" ry="12.12" fill="url(#linear-gradient-29)"/><ellipse cx="1076.12" cy="70.21" rx="24.37" ry="12.12" fill="#99897b"/><path class="cls-15" d="M621.23 199.46h146.92V206H621.23z"/><path d="M778.29 114.64v131.05h33.85v-131zm29.09 46.74a4.22 4.22 0 01-4.2 4.2h-16.82a4.22 4.22 0 01-4.2-4.2v-35.17a4.21 4.21 0 014.2-4.2h16.82a4.21 4.21 0 014.2 4.2z" transform="translate(-190.92 -46.23)" fill="url(#linear-gradient-30)"/><path fill="url(#linear-gradient-31)" d="M299.62 58.09h37.43v15.47h-37.43z"/><path fill="url(#linear-gradient-32)" d="M298.17 56.01h40.33v2.63h-40.33z"/><path fill="url(#linear-gradient-33)" d="M435.1 56.01h40.33v2.63H435.1z"/><path d="M671.51 114.64v49.68H405.65a40.55 40.55 0 00-40.57 40.55h-94.49v90.29h474.76V114.64z" transform="translate(-190.92 -46.23)" fill="url(#linear-gradient-34)"/><path fill="url(#linear-gradient-35)" d="M1312.86 68.41h-49.77l7.78-12.36h33.02l8.97 12.36z"/><path fill="url(#linear-gradient-36)" d="M1312.86 0h-49.77l7.78 56.05h33.02L1312.86 0z"/><path class="cls-27" d="M1144.35 51.58h46.72a9.29 9.29 0 019.28 9.28h-65.28a9.28 9.28 0 019.28-9.28z" transform="translate(-190.92 -46.23)"/><path class="cls-29" d="M1215.86 51.58h46.71a9.28 9.28 0 019.28 9.28h-65.27a9.28 9.28 0 019.28-9.28z" transform="translate(-190.92 -46.23)"/><path class="cls-30" d="M1332.46 51.58h46.71a9.29 9.29 0 019.28 9.28h-65.26a9.28 9.28 0 019.28-9.28z" transform="translate(-190.92 -46.23)"/><path d="M1144.35 51.58h46.72a9.29 9.29 0 019.28 9.28h-65.28a9.28 9.28 0 019.28-9.28z" transform="translate(-190.92 -46.23)" fill="url(#linear-gradient-40)"/><path d="M1215.86 51.58h46.71a9.28 9.28 0 019.28 9.28h-65.27a9.28 9.28 0 019.28-9.28z" transform="translate(-190.92 -46.23)" fill="url(#linear-gradient-41)"/><path d="M1332.46 51.58h46.71a9.29 9.29 0 019.28 9.28h-65.26a9.28 9.28 0 019.28-9.28z" transform="translate(-190.92 -46.23)" fill="url(#linear-gradient-42)"/><path class="cls-44" d="M1037.1 332.15a41.69 41.69 0 10-32.68 49.07 41.68 41.68 0 0032.68-49.07zM995 374.06l1.73-19.5a15.63 15.63 0 002.36-.26 15 15 0 002.08-.6l9.1 17.34a33.75 33.75 0 01-15.24 3zm10.47-52.83a21.28 21.28 0 016.72 5.15l-5.68 4.1a13.87 13.87 0 00-3.48-2.66zm9 8.34a21.08 21.08 0 012.72 7.88l-6.95.38v-.28a13.76 13.76 0 00-1.4-3.88zm-15.15-3.15a13.73 13.73 0 00-3.94-.31l-3.85-19.22a33.66 33.66 0 0114.57 1.11zm-11.62-18.76l3.84 19.22a14.52 14.52 0 00-3.38 1.71l-13.66-14.11a33.56 33.56 0 0113.18-6.78zm-16 9.53l13.59 14.06a14.47 14.47 0 00-2.16 3.6L964 330.43a33.86 33.86 0 017.68-13.2zm-8.61 17l19.05 4.48a14.38 14.38 0 00.18 4.44v.18l-18.45 6.54c-.28-.95-.52-1.9-.72-2.88a33.6 33.6 0 01-.1-12.72zm20.66 12.89a14.31 14.31 0 002.22 3l-12 15.53a33.6 33.6 0 01-8.68-12zm5.29 5.51a14.15 14.15 0 003.79 1.58l-1.73 19.56a33.79 33.79 0 01-14.1-5.65zm24.69 16.65l-9.11-17.35a14.42 14.42 0 002.89-2.79l17 9.7a33.69 33.69 0 01-10.81 10.44zm12.76-13.89l-17-9.69a14.1 14.1 0 001-3.9l19.58-1.06a33.54 33.54 0 01-3.51 14.65z" transform="translate(-190.92 -46.23)"/><circle class="cls-21" cx="509.92" cy="308.74" r="31.79"/><path class="cls-44" d="M1140.52 332.15a41.69 41.69 0 10-32.68 49.07 41.69 41.69 0 0032.68-49.07zm-42.13 41.91l1.69-19.5a15.62 15.62 0 002.37-.26 15 15 0 002.08-.6l9.1 17.34a33.74 33.74 0 01-15.23 3zm10.47-52.83a21.24 21.24 0 016.71 5.15l-5.68 4.1a13.87 13.87 0 00-3.48-2.66zm9 8.34a21.08 21.08 0 012.72 7.88l-6.94.38a.56.56 0 00-.05-.28 14.06 14.06 0 00-1.39-3.88zm-15.15-3.15a13.73 13.73 0 00-3.94-.31l-3.85-19.22a33.71 33.71 0 0114.6 1.15zm-11.63-18.76l3.86 19.22a14.39 14.39 0 00-3.39 1.71l-13.64-14.11a33.58 33.58 0 0113.17-6.78zm-16 9.53l13.61 14.06a14.21 14.21 0 00-2.17 3.6l-19.11-4.42a34 34 0 017.67-13.2zm-8.6 17l19 4.48a14.38 14.38 0 00.18 4.44v.18l-18.46 6.54c-.27-.95-.52-1.9-.71-2.88a33.6 33.6 0 01-.06-12.72zm20.66 12.89a14.31 14.31 0 002.22 3l-12 15.5a33.7 33.7 0 01-8.67-12zm5.3 5.51a14.09 14.09 0 003.78 1.58l-1.73 19.56a33.79 33.79 0 01-14.06-5.64zm24.68 16.65l-9.1-17.35a14.64 14.64 0 002.88-2.79l17 9.7a33.93 33.93 0 01-10.82 10.44zm12.76-13.89l-17-9.69a14.12 14.12 0 001-3.9l19.58-1.06a33.56 33.56 0 01-3.53 14.65zm110.96-23.2a41.69 41.69 0 10-32.68 49.07 41.69 41.69 0 0032.68-49.07zm-42.13 41.91l1.72-19.5a15.62 15.62 0 002.37-.26 15 15 0 002.08-.6L1214 371a33.71 33.71 0 01-15.23 3zm10.47-52.83a21.24 21.24 0 016.71 5.15l-5.68 4.1a13.87 13.87 0 00-3.48-2.66zm9 8.34a21.08 21.08 0 012.72 7.88l-7 .38a.68.68 0 000-.28 14.06 14.06 0 00-1.39-3.88zm-15.18-3.15a13.73 13.73 0 00-3.94-.31l-3.85-19.22a33.72 33.72 0 0114.6 1.15zm-11.63-18.76l3.86 19.22a14.39 14.39 0 00-3.39 1.71l-13.64-14.11a33.58 33.58 0 0113.17-6.78zm-16 9.53l13.6 14.06a14.21 14.21 0 00-2.17 3.6l-19.11-4.42a33.86 33.86 0 017.68-13.2zm-8.61 17l19 4.48a14.38 14.38 0 00.18 4.44v.18l-18.46 6.54c-.26-.95-.52-1.9-.71-2.88a33.6 33.6 0 01-.06-12.72zm20.66 12.89a14.31 14.31 0 002.22 3l-12 15.5a33.7 33.7 0 01-8.67-12zm5.3 5.51a14.09 14.09 0 003.78 1.58l-1.73 19.56a33.79 33.79 0 01-14.06-5.64zm24.68 16.65l-9.1-17.35a14.37 14.37 0 002.88-2.79l17 9.7a33.82 33.82 0 01-10.82 10.44zm12.76-13.89l-17-9.69a13.78 13.78 0 001-3.9l19.58-1.06a33.56 33.56 0 01-3.56 14.64zm113.67-23.2a41.7 41.7 0 10-32.69 49.07 41.7 41.7 0 0032.69-49.07zm-42.14 41.91l1.73-19.5a16.31 16.31 0 002.32-.26 15.12 15.12 0 002.09-.6l9.09 17.34a33.71 33.71 0 01-15.23 3zm10.47-52.83a21.24 21.24 0 016.71 5.15l-5.67 4.1a14.05 14.05 0 00-3.48-2.66zm9 8.34a21.09 21.09 0 012.73 7.88l-7 .38a.56.56 0 000-.28 14.06 14.06 0 00-1.39-3.88zm-15.16-3.15a13.76 13.76 0 00-3.94-.31l-3.86-19.22a33.71 33.71 0 0114.6 1.15zm-11.63-18.76l3.85 19.22a14.39 14.39 0 00-3.39 1.71l-13.64-14.11a33.62 33.62 0 0113.18-6.78zm-16 9.53l13.63 14.06a14.81 14.81 0 00-2.17 3.6l-19.1-4.42a33.74 33.74 0 017.68-13.2zm-8.61 17l19 4.48a13.79 13.79 0 00.18 4.44.3.3 0 000 .18l-18.46 6.54c-.28-.95-.52-1.9-.72-2.88a33.6 33.6 0 01-.09-12.72zm20.65 12.89a14.67 14.67 0 002.22 3l-12 15.53a33.51 33.51 0 01-8.68-12zm5.3 5.51a14.15 14.15 0 003.79 1.58l-1.74 19.56a33.79 33.79 0 01-14.06-5.64zm24.68 16.65l-9.1-17.35a14.11 14.11 0 002.88-2.79l17 9.7a33.72 33.72 0 01-10.82 10.44zm12.77-13.89l-17-9.69a13.78 13.78 0 001-3.9l19.58-1.06a33.68 33.68 0 01-3.51 14.65zm116.54-23.2a41.69 41.69 0 10-32.7 49.08 41.69 41.69 0 0032.7-49.08zm-42.11 41.91l1.73-19.5a16.61 16.61 0 002.33-.26 15.39 15.39 0 002.08-.6l9.1 17.34a33.75 33.75 0 01-15.24 3zm10.47-52.83a21.24 21.24 0 016.71 5.15l-5.67 4.1a14.05 14.05 0 00-3.48-2.66zm9 8.34a21.25 21.25 0 012.72 7.88l-7 .38a.56.56 0 000-.28 14.37 14.37 0 00-1.38-3.88zm-15.15-3.15a13.73 13.73 0 00-3.94-.31l-3.86-19.22a33.71 33.71 0 0114.6 1.15zm-11.63-18.76l3.86 19.22a14.27 14.27 0 00-3.4 1.71l-13.64-14.11a33.71 33.71 0 0113.15-6.78zm-16 9.53l13.59 14.06a14.81 14.81 0 00-2.17 3.6l-19.13-4.42a33.74 33.74 0 017.68-13.2zm-8.61 17l19 4.48a14.38 14.38 0 00.18 4.44.3.3 0 000 .18l-18.46 6.54c-.27-.95-.52-1.9-.71-2.88a33.6 33.6 0 01-.13-12.72zm20.66 12.89a14.26 14.26 0 002.21 3l-12 15.5a33.64 33.64 0 01-8.68-12zm5.29 5.51a14.15 14.15 0 003.79 1.58l-1.74 19.56a33.69 33.69 0 01-14.05-5.64zm24.68 16.65l-9.1-17.35a14.11 14.11 0 002.88-2.79l17 9.7a33.72 33.72 0 01-10.85 10.44zm12.77-13.89l-17-9.69a14.12 14.12 0 001-3.9l19.57-1.06a33.58 33.58 0 01-3.55 14.65zm-738.23-27.52A27.14 27.14 0 10728 355a27.14 27.14 0 00-27.16-27.17zm0 49a21.91 21.91 0 1121.9-21.9 21.9 21.9 0 01-21.9 21.9z" transform="translate(-190.92 -46.23)"/><rect class="cls-44" x="500.85" y="296.91" width="18.14" height="23.65" rx="4.34"/><circle class="cls-21" cx="509.92" cy="308.74" r="7.1"/><circle class="cls-21" cx="585.33" cy="354.97" r="31.79" transform="matrix(.16 -.99 .99 .16 -49.73 829.66)"/><path class="cls-44" d="M585.33 327.83A27.14 27.14 0 10612.47 355a27.15 27.15 0 00-27.14-27.17zm0 49a21.91 21.91 0 1121.9-21.9 21.91 21.91 0 01-21.9 21.9z" transform="translate(-190.92 -46.23)"/><rect class="cls-44" x="385.35" y="296.91" width="18.14" height="23.65" rx="4.34"/><circle class="cls-21" cx="394.42" cy="308.74" r="7.1"/><path class="cls-21" d="M133.17 274.33h79.94v53.89h-79.94z"/><circle class="cls-21" cx="231.99" cy="308.74" r="31.79"/><path class="cls-44" d="M422.9 327.83A27.14 27.14 0 10450 355a27.15 27.15 0 00-27.1-27.17zm0 49A21.91 21.91 0 11444.8 355a21.9 21.9 0 01-21.9 21.87z" transform="translate(-190.92 -46.23)"/><rect class="cls-44" x="222.92" y="296.91" width="18.14" height="23.65" rx="4.34"/><circle class="cls-21" cx="231.99" cy="308.74" r="7.1"/><circle class="cls-21" cx="116.48" cy="308.74" r="31.79"/><path class="cls-44" d="M307.39 327.83A27.14 27.14 0 10334.53 355a27.14 27.14 0 00-27.14-27.17zm0 49A21.91 21.91 0 11329.3 355a21.91 21.91 0 01-21.91 21.87z" transform="translate(-190.92 -46.23)"/><rect class="cls-44" x="107.41" y="296.91" width="18.14" height="23.65" rx="4.34"/><circle class="cls-21" cx="116.48" cy="308.74" r="7.1"/><path fill="url(#linear-gradient-43)" d="M554.43 12.51h40.04v16.12h-40.04z"/><text transform="matrix(.79 0 0 1 649.67 177.69)" style="isolation:isolate" font-size="36.22" font-family="Verdana" letter-spacing=".2em" fill="#927e6c">312</text><path class="cls-9" d="M1581.41 283.28h-5a10.3 10.3 0 00-2.67 20.26v3.31h2.76v-3h4.88z" transform="translate(-190.92 -46.23)"/><path fill="url(#linear-gradient-44)" d="M1015.41 13.34h65.52v2.24h-65.52z"/><path fill="url(#linear-gradient-45)" d="M1132.14 13.34h65.52v2.24h-65.52z"/><path fill="url(#linear-gradient-46)" d="M944.03 13.34h65.52v2.24h-65.52z"/><path class="cls-15" d="M767.99 120.51h607.22v3.26H767.99zm0 30.35h607.22v3.26H767.99z"/><g id="Layer_5" data-name="Layer 5"><path class="cls-15" d="M779.62 286.86h420.07v7.59H779.62zm366.27-18.7h139.51v6.62h-139.51zm65.38 28.64h74.13v4.23h-74.13z"/><path class="cls-15" d="M1210 241.84h6.43v60.23H1210z"/><path class="cls-15" d="M1211.27 248.3h74.13v2.11h-74.13zm-86.14-9.78h90.51v4.37h-90.51z"/><circle class="cls-15" cx="780.63" cy="290.65" r="7.89"/><circle class="cls-15" cx="885.05" cy="290.65" r="7.89"/><circle class="cls-15" cx="989.47" cy="290.65" r="7.89"/><circle class="cls-15" cx="1093.89" cy="290.65" r="7.89"/><circle class="cls-15" cx="1015.2" cy="306.43" r="7.89"/><circle class="cls-15" cx="1144.59" cy="271.95" r="7.89"/><circle class="cls-15" cx="1198.32" cy="290.65" r="7.89"/><path class="cls-15" transform="rotate(-14.44 991.525 1067.318)" d="M1204.79 334.12h129.39v5.57h-129.39z"/><path class="cls-15" d="M1198.32 264.06h31.87v15.78h-31.87z"/><path class="cls-15" d="M1204.55 276.51h17.98v16.21h-17.98zm-75.8-59.62h10.09v24.95h-10.09z"/><path class="cls-15" transform="matrix(.94 -.35 .35 .94 -211.62 437.87)" d="M1330.16 282.94h6.51v33.18h-6.51z"/><path class="cls-15" transform="rotate(-20.42 1100.424 758.644)" d="M1320.82 236.94h6.51v29.63h-6.51z"/><path class="cls-15" d="M1208.38 292.73h10.61v12.38h-10.61z"/></g></g></g></svg>