<svg height="346.48" width="1181.49" xmlns="http://www.w3.org/2000/svg" xmlns:xlink="http://www.w3.org/1999/xlink"><linearGradient id="a" gradientTransform="matrix(1 0 0 -1 -55.42 355.17)" gradientUnits="userSpaceOnUse" x1="265.93" x2="265.93" y1="45.18" y2="64.99"><stop offset="0" stop-color="#594e42"/><stop offset=".33" stop-color="#53493e"/><stop offset="1" stop-color="#6e5f52"/></linearGradient><linearGradient id="d" x1="1031.56" x2="1031.56" xlink:href="#a" y1="45.18" y2="64.99"/><linearGradient id="e" gradientTransform="matrix(1 0 0 -1 -328.42 -195.9)" gradientUnits="userSpaceOnUse" x1="919.72" x2="919.72" y1="-259.41" y2="-225.8"><stop offset="0" stop-color="#66594c"/><stop offset=".33" stop-color="#63564a"/><stop offset="1" stop-color="#d2c8bd"/></linearGradient><linearGradient id="b" gradientTransform="matrix(1 0 0 -1 -328.42 -195.9)" gradientUnits="userSpaceOnUse" x1="919.68" x2="919.68" y1="-259.26" y2="-267.97"><stop offset=".13" stop-color="#53493e"/><stop offset="1" stop-color="#53493e" stop-opacity="0"/></linearGradient><linearGradient id="c" gradientTransform="matrix(1 0 0 -1 -55.42 355.17)" gradientUnits="userSpaceOnUse" x1="181.91" x2="181.91" y1="246.49" y2="249.66"><stop offset="0" stop-color="#63564a"/><stop offset="1" stop-color="#a3978c"/></linearGradient><linearGradient id="f" gradientTransform="matrix(1 0 0 .75 -328.42 -410.98)" x1="454.91" x2="454.91" xlink:href="#b" y1="692.87" y2="696.05"/><linearGradient id="g" x1="278.89" x2="278.89" xlink:href="#c" y1="246.49" y2="249.66"/><linearGradient id="h" gradientTransform="matrix(1 0 0 .75 -328.42 -410.98)" x1="551.89" x2="551.89" xlink:href="#b" y1="692.87" y2="696.05"/><linearGradient id="i" x1="390.32" x2="390.32" xlink:href="#c" y1="246.49" y2="249.66"/><linearGradient id="j" gradientTransform="matrix(1 0 0 .75 -328.42 -410.98)" x1="663.32" x2="663.32" xlink:href="#b" y1="692.87" y2="696.05"/><linearGradient id="k" x1="502" x2="502" xlink:href="#c" y1="246.49" y2="249.66"/><linearGradient id="l" gradientTransform="matrix(1 0 0 .75 -328.42 -410.98)" x1="775" x2="775" xlink:href="#b" y1="692.87" y2="696.05"/><linearGradient id="m" x1="1104.47" x2="1104.47" xlink:href="#c" y1="246.49" y2="249.66"/><linearGradient id="n" gradientTransform="matrix(1 0 0 .75 -328.42 -410.98)" x1="1377.47" x2="1377.47" xlink:href="#b" y1="692.87" y2="696.05"/><linearGradient id="o" x1="1007.78" x2="1007.78" xlink:href="#c" y1="246.49" y2="249.66"/><linearGradient id="p" gradientTransform="matrix(1 0 0 .75 -328.42 -410.98)" x1="1280.78" x2="1280.78" xlink:href="#b" y1="692.87" y2="696.05"/><linearGradient id="q" x1="896.82" x2="896.82" xlink:href="#c" y1="246.49" y2="249.66"/><linearGradient id="r" gradientTransform="matrix(1 0 0 .75 -328.42 -410.98)" x1="1169.82" x2="1169.82" xlink:href="#b" y1="692.87" y2="696.05"/><linearGradient id="s" x1="785.94" x2="785.94" xlink:href="#c" y1="246.49" y2="249.66"/><linearGradient id="t" gradientTransform="matrix(1 0 0 .75 -328.42 -410.98)" x1="1058.94" x2="1058.94" xlink:href="#b" y1="692.87" y2="696.05"/><linearGradient id="u" x1="645.81" x2="645.81" xlink:href="#c" y1="254.28" y2="257.45"/><linearGradient id="v" gradientTransform="matrix(1 0 0 .75 -328.42 -410.98)" x1="918.81" x2="918.81" xlink:href="#b" y1="682.5" y2="685.67"/><path d="M132.44 287.03h152.97v44.38H132.44z" fill="#53493e"/><circle cx="132.44" cy="311.6" fill="#53493e" r="34.87"/><circle cx="290.95" cy="311.6" fill="#53493e" r="34.87"/><path d="M42.17 266.74h1096.37v31.7H42.17z" fill="#53493e"/><path d="M347.23 287.03h118.89v24.57H347.23zm137.11-10.3h183.09v38.84H484.34zm198.15 0h141.87v34.87H682.49zm-632.48 0h45.18v45.18H50.01z" fill="#53493e"/><circle cx="899.65" cy="311.6" fill="#53493e" r="34.87"/><circle cx="1058.17" cy="311.6" fill="#53493e" r="34.87"/><path d="M899.65 287.03h152.97v44.38H899.65z" fill="#53493e"/><path d="M137.35 323.49h-9.51a4.4 4.4 0 01-4.36-4.32v-15.1a4.4 4.4 0 014.36-4.36h9.51a4.4 4.4 0 014.36 4.36v15.1a4.34 4.34 0 01-4.33 4.36z" fill="#63564a"/><circle cx="132.6" cy="311.6" fill="#53493e" r="7.13"/><path d="M296.66 323.49h-9.51a4.4 4.4 0 01-4.36-4.36v-15.06a4.4 4.4 0 014.36-4.36h9.51a4.4 4.4 0 014.36 4.36v15.1a4.34 4.34 0 01-4.33 4.36z" fill="#63564a"/><circle cx="291.91" cy="311.6" fill="#53493e" r="7.13"/><path d="M905.36 323.49h-9.51a4.4 4.4 0 01-4.36-4.36v-15.06a4.4 4.4 0 014.36-4.36h9.51a4.4 4.4 0 014.36 4.36v15.1a4.34 4.34 0 01-4.33 4.36z" fill="#63564a"/><circle cx="900.61" cy="311.6" fill="#53493e" r="7.13"/><path d="M1064.67 323.49h-9.51a4.4 4.4 0 01-4.36-4.36v-15.06a4.4 4.4 0 014.36-4.36h9.51a4.4 4.4 0 014.36 4.36v15.1a4.34 4.34 0 01-4.33 4.36z" fill="#63564a"/><circle cx="1059.91" cy="311.6" fill="#53493e" r="7.13"/><path d="M178.41 290.2h64.2v19.81h-64.2z" fill="url(#a)"/><path d="M944.04 290.2h64.2v19.81h-64.2z" fill="url(#d)"/><path d="M486.09 292.58h210.27v2.77H486.09z" fill="#927e6c"/><path d="M696.33 292.62l208.27-28.863.369 2.664-208.27 28.863zm-418.953-25.872l.36-2.666 208.374 28.1-.36 2.665zM32.1 63.84h1118.33v183.88H32.1z" fill="#927e6c"/><path d="M32.1 247.72h1118.33V265H32.1z" fill="#63564a"/><path d="M32.1 265h1118.33v3.33H32.1z" fill="#927e6c"/><path d="M27.11 30.4H1155.5v33.61H27.11z" fill="url(#e)"/><path d="M149.08 63.53h1.59v183.88h-1.59zm-45.97-1.59h1.59v183.88h-1.59zm427.2 1.59h1.59v183.88h-1.59zm-55.87 0h1.59v183.88h-1.59zm-55.88 0h1.59v183.88h-1.59zm-55.88 0h1.59v183.88h-1.59zm-55.87 0h1.59v183.88h-1.59zm-55.88 0h1.59v183.88h-1.59zm-55.88 0h1.59v183.88h-1.59zm830.47 0h1.59v183.88h-1.59zm45.65-1.59h1.59v183.88h-1.59zm-424.11 1.59h1.59v183.88h-1.59zm55.48 0h1.59v183.88h-1.59zm55.48 0h1.59v183.88h-1.59zm55.48 0h1.59v183.88h-1.59zm55.48 0h1.59v183.88h-1.59zm55.4 0h1.59v183.88h-1.59zm55.48 0h1.59v183.88h-1.59z" fill="#66594c"/><path d="M32.1 63.84h1118.33v8.72H32.1z" fill="url(#b)"/><path d="M99.94 105.53h53.1v3.17h-53.1z" fill="url(#c)"/><path d="M104.7 108.7h44.38v69.75H104.7z" fill="#b3a698"/><path d="M143.46 112.5h-33.21a3.17 3.17 0 00-3.17 3.17v55.8a3.17 3.17 0 003.17 3.17h33.21a3.17 3.17 0 003.17-3.17v-55.8a3.17 3.17 0 00-3.17-3.17z" fill="#53493e"/><path d="M143.46 174.48h-33.21a3.17 3.17 0 01-3.17-3.17v-29.32h39.55v29.32a3.17 3.17 0 01-3.17 3.17z" fill="#d2c8bd"/><path d="M99.94 108.7h53.1v2.38h-53.1z" fill="url(#f)"/><path d="M190.85 105.53h65.23v3.17h-65.23z" fill="url(#g)"/><path d="M196.72 108.7h54.53v69.75h-54.53z" fill="#b3a698"/><path d="M245.06 112.5h-42.24a3.17 3.17 0 00-3.17 3.17v55.8a3.17 3.17 0 003.17 3.17h42.24a3.16 3.16 0 003.17-3.17v-55.8a3.16 3.16 0 00-3.17-3.17z" fill="#53493e"/><path d="M245.06 174.48h-42.24a3.17 3.17 0 01-3.17-3.17v-29.32h48.58v29.32a3.16 3.16 0 01-3.17 3.17z" fill="#d2c8bd"/><path d="M190.85 108.7h65.23v2.38h-65.23z" fill="url(#h)"/><path d="M302.29 105.53h65.23v3.17h-65.23z" fill="url(#i)"/><path d="M308.15 108.7h54.53v69.75h-54.53z" fill="#b3a698"/><path d="M356.5 112.5h-42.24a3.17 3.17 0 00-3.17 3.17v55.8a3.17 3.17 0 003.17 3.17h42.24a3.17 3.17 0 003.17-3.17v-55.8a3.17 3.17 0 00-3.17-3.17z" fill="#53493e"/><path d="M356.5 174.48h-42.24a3.17 3.17 0 01-3.17-3.17v-29.32h48.58v29.32a3.17 3.17 0 01-3.17 3.17z" fill="#d2c8bd"/><path d="M302.29 108.7h65.23v2.38h-65.23z" fill="url(#j)"/><path d="M413.96 105.53h65.23v3.17h-65.23z" fill="url(#k)"/><path d="M419.83 108.7h54.53v69.75h-54.53z" fill="#b3a698"/><path d="M468.25 112.5h-42.24a3.17 3.17 0 00-3.17 3.17v55.8a3.17 3.17 0 003.17 3.17h42.24a3.17 3.17 0 003.17-3.17v-55.8a3.17 3.17 0 00-3.17-3.17z" fill="#53493e"/><path d="M468.25 174.48h-42.24a3.17 3.17 0 01-3.17-3.17v-29.32h48.58v29.32a3.17 3.17 0 01-3.17 3.17z" fill="#d2c8bd"/><path d="M413.96 108.7h65.23v2.38h-65.23z" fill="url(#l)"/><path d="M1022.5 105.53h53.1v3.17h-53.1z" fill="url(#m)"/><path d="M1027.26 108.7h44.38v69.75h-44.38z" fill="#b3a698"/><path d="M1066.02 112.5h-33.21a3.17 3.17 0 00-3.17 3.17v55.8a3.17 3.17 0 003.17 3.17h33.21a3.17 3.17 0 003.17-3.17v-55.8a3.17 3.17 0 00-3.17-3.17z" fill="#53493e"/><path d="M1022.5 108.7h53.1v2.38h-53.1z" fill="url(#n)"/><path d="M1066.02 174.48h-33.21a3.17 3.17 0 01-3.17-3.17v-29.32h39.55v29.32a3.17 3.17 0 01-3.17 3.17z" fill="#d2c8bd"/><path d="M920.26 105.53h64.2v3.17h-64.2z" fill="url(#o)"/><path d="M925.97 108.7h53.66v69.75h-53.66z" fill="#b3a698"/><path d="M973.52 112.5h-41.45a3.17 3.17 0 00-3.17 3.17v55.8a3.17 3.17 0 003.17 3.17h41.45a3.17 3.17 0 003.17-3.17v-55.8a3.17 3.17 0 00-3.17-3.17z" fill="#53493e"/><path d="M920.26 108.7h64.2v2.38h-64.2z" fill="url(#p)"/><path d="M973.52 174.48h-41.45a3.17 3.17 0 01-3.17-3.17v-29.32h47.79v29.32a3.17 3.17 0 01-3.17 3.17z" fill="#d2c8bd"/><path d="M809.3 105.53h64.2v3.17h-64.2z" fill="url(#q)"/><path d="M815.01 108.7h53.66v69.75h-53.66z" fill="#b3a698"/><path d="M862.58 112.5h-41.47a3.17 3.17 0 00-3.17 3.17v55.8a3.17 3.17 0 003.17 3.17h41.47a3.17 3.17 0 003.17-3.17v-55.8a3.17 3.17 0 00-3.17-3.17z" fill="#53493e"/><path d="M862.58 174.48h-41.47a3.17 3.17 0 01-3.17-3.17v-29.32h47.79v29.32a3.17 3.17 0 01-3.15 3.17z" fill="#d2c8bd"/><path d="M809.3 108.7h64.2v2.38h-64.2z" fill="url(#r)"/><path d="M698.42 105.53h64.2v3.17h-64.2z" fill="url(#s)"/><path d="M704.13 108.7h53.66v69.75h-53.66z" fill="#b3a698"/><path d="M751.68 112.5h-41.45a3.17 3.17 0 00-3.17 3.17v55.8a3.17 3.17 0 003.17 3.17h41.45a3.17 3.17 0 003.17-3.17v-55.8a3.17 3.17 0 00-3.17-3.17z" fill="#53493e"/><path d="M751.68 174.48h-41.45a3.17 3.17 0 01-3.17-3.17v-29.32h47.79v29.32a3.17 3.17 0 01-3.17 3.17z" fill="#d2c8bd"/><path d="M698.42 108.7h64.2v2.38h-64.2z" fill="url(#t)"/><text fill="#d2c8bd" font-family="Verdana" font-size="23.54" letter-spacing=".13em" transform="translate(332.2 223.56)">САНИТАРНЫЙ</text><text fill="#d2c8bd" font-family="Verdana" font-size="23.54" letter-spacing=".13em" transform="translate(636.45 223.56)">САНИТАРНЫЙ</text><circle cx="648.29" cy="259.04" fill="#d2c8bd" r="23.94" transform="rotate(-64.53 585.08 280.516)"/><path d="M609.25 210.47h-12.84v-12.84h-7.29v12.84h-12.84v7.37h12.84v12.84h7.29v-12.84h12.84z" fill="#817060"/><path d="M548.38 100.46v101.61h84V100.46zm83.38 100.71H549.1v-99h82.66z" fill="#63564a"/><path d="M542.12 97.69h96.54v3.17h-96.54z" fill="url(#u)"/><path d="M542.12 100.86h96.54v2.38h-96.54z" fill="url(#v)"/><path d="M590.39 100.86h.87v100.26h-.87zm-42.96 10.78h2.38v9.19h-2.38zm83.54 0h2.38v9.19h-2.38zm-83.54 34.23h2.38v9.19h-2.38zm83.54 0h2.38v9.19h-2.38zm-83.54 37.57h2.38v9.19h-2.38zm83.54 0h2.38v9.19h-2.38z" fill="#63564a"/><g fill="#53493e"><path d="M1132.59 272.61h16.8v14.42h-16.8z"/><path d="M1145.51 274.99h19.58v9.35h-19.58z"/><path d="M1160.81 276.73h20.69v5.87h-20.69z"/><path d="M1179.43 270.15h2.06v19.02h-2.06zM32.1 272.29h16.8v14.42H32.1z"/><path d="M16.49 274.99h19.58v9.35H16.49z"/><path d="M0 276.73h20.69v5.87H0z"/><path d="M0 270.15h2.06v19.02H0zM1119 12v-2h-2V5h-2v5H939.83V5h-2v5H762.67V5h-2v5H585.5V5h-2v5H408.33V5h-2v5H231.17V5h-2v5H54V5h-2v5h-2v2h2v4h-2v2h2v6h-2v4h1069v-4h-2v-6h2v-2h-2v-4zm-181.17 0v4H762.67v-4zm-529.5 6H583.5v6H408.33zm-2 6H231.17v-6h175.16zm179.17-6h175.17v6H585.5zm177.17 0h175.16v6H762.67zm-2-6v4H585.5v-4zM583.5 12v4H408.33v-4zm-177.17 0v4H231.17v-4zM54 12h175.17v4H54zm0 6h175.17v6H54zm1061 6H939.83v-6H1115zm0-8H939.83v-4H1115z"/><path d="M76 14v-2l1-3a4.94 4.94 0 00-1-3l-3-3 1 4 .76 3.29L74 13l-.88-.47L70 7h-2l5 7 1.91 2 .09 5v3l2-1v-5l1.94-1.74L80 14l.28-1.77L76 16zm13-2c1 1 4 10 4 10l1 3 2-.82L95 21v-3l2-5v-2l-3 4zm15 5l-3-11c0 1 1 6 1 6v9l2 4h1v-6l1-2s0-4 1-5 3-8 3-8l-5 11zm21-4v-2l1-2 1-4-2 1-2 3-1 1-2-7c0 1-1 6-1 6l3.14 3-.14 4-1 4s-2 2-2 3a3.49 3.49 0 001 2 1 1 0 001-1 10.07 10.07 0 011-3l1-3s.68-2 .34-2a20.63 20.63 0 012.66-1l2-2-3 1zm22-8l-3 3-3 1a22.69 22.69 0 001-4c0-1-3-1-3-1v7l-3.82-1c.69.36-.11 3 .82 3s4 2 4 2l1 9 1 1-.17-7.11L143 15v-4l4-1zm0 12l1.53 1.02L150 17l-1-4zm11-2l-1-3s-1-3 0-3 1-2 1-2a1.39 1.39 0 010-2c1-1-1-3-1-3-1 2-2 9-2 9l2 4-1 3.15V20l1 2-.69 2.17 3.69-.18-1-3-1-2 2-2zm23-5c-1 1-2.17 1-2.58 2 0 0-.42 1-.42-1s1-2 1-3a10.07 10.07 0 011-3l1-3c-1 0-3 5-3 5l-1 5-1 3-.55-.37L173 13l1 1s4 2 3 3a3.1 3.1 0 00-1 2l1 2a1 1 0 00-1 1 3.49 3.49 0 001 2l2-3-1-3 .42-1.86L179 15l1.83-3s1.17-1 2.17-2-1-1-2 0zm0 12c0 1 .41 2.33 1.2 2.16S183 23 183 23l-1-3c0 1-1 1-1 2zm15-8v-3h-1l-1 3v1l2.03 1.06zm-.25 7.65L195 19l-.22.07L194 17l.54 2v.16l-2.58.86c0 1-1 3 0 3h3l.42-.75.47 1.77 1.11 1-1.25-3.34zM201 20c-1 0-2-2-2-2v1l-2 2s-1 1 0 1h3c1 0 2-2 1-2zm17-11v3l3 1V6c-1 1-3 2-3 3zm0 8v-4h-1v4l2 4 1 3v1a1 1 0 001-1c0-1 0-3-1-4s-2-2-2-3zm21.91 1.17l.09-4.18s-2-2-2-3a10.07 10.07 0 00-1-3v-2l-2-2c0 2-1 6 0 6s2 3 2 3a3.49 3.49 0 011 2v3a2 2 0 012 2 20.34 20.34 0 001 5 2.19 2.19 0 001-3c-1-1.99-2.09-3.82-2.09-3.82zm-5.17-2.09a12.1 12.1 0 01-1.61-.32L233 18l2 2h3a4.94 4.94 0 00-1-3 3.17 3.17 0 00-2.26-.92zM252 11h-1s-3-1-3-2-2-1-2-2a43.79 43.79 0 01.68-4.37C245.78 5.27 243.35 8 245 8c2 0 2 3 3 4s2 4 2 4v4s-2 1-2 2 2 1 2 1l2 1v-7l-1-4h3l4-5-4 1s-1 2-2 2zm-5.32-8.37A5.17 5.17 0 00247 1s-.14.7-.32 1.63zM273 19l-.92-2.77c.16.08.18 0-.08-.23-1-1-1-6-1-7s-3-3-3-3v3c0 1 2 4 2 5 0 .69 1.46 1.88 2 2.19V19s-1 1-1 0-2.49-2.76-2.49-2.76L268 19l2 1 2 2v2l2 1v-4c0-2-1-2-1-2zm-7.88 5l2.88-1v-1a3.49 3.49 0 00-2-1c-1 0-1 2-.88 3zM289 9c0 1-4 4-4 5s-1-2-1-3-1-8-1-8h-1l.73 6.78S282 14 283 15s-1 2-1 2v4s3 2 3 2.84V22l-1-3v-2a3.49 3.49 0 011-2l3-2 3-5s-2 0-2 1zm9 12c-1 0-1-2-1-2l1-3a1 1 0 01-1-1c0-1-1-1 0-2s-.88-.84-.88-.84C296 13 294 16 295 17s2 2 1 3-1 3 0 3 1-.13 2 .93 1-2.93 0-2.93zm2-4v3l-1 2 .28 1.79L301 25v-3a10.07 10.07 0 011-3s-1.7.09-.85-.95A2.59 2.59 0 01303 17l.88-1.11L303 14c0 1-3 3-3 3zm16-6a10.07 10.07 0 01-1 3s-.13.4-.32 1a3.28 3.28 0 01-1.68-1 3.1 3.1 0 00-2-1s-1 0 0 1 1 2 2 2a2.84 2.84 0 001.54-.62 25.58 25.58 0 01-1 2.67 7.27 7.27 0 01-2.5 1.95v5a4.94 4.94 0 011-3 3.1 3.1 0 001-2s2-2 2-3v-2l2-1V9c0-2-2-5-2-5-.04 2 .96 6 .96 7zm7 5v-3l-1 4 2 2-1 2 1 2 2-4-2-2zm12-9V4s0-2-1-2h-1v1a22.69 22.69 0 001 4zm3-4V0c-.17.33-.33.69-.5 1.06C336.69 2.91 336 5 336 5l.85 1.71C335.85 7.41 335 8 335 8l-1 3v7h-3l1 2 1 1s1-1 1 1-1 4 0 2a13.38 13.38 0 001-5v-9l1-2a3.49 3.49 0 012-1c1 0 1-2 1-2a19.38 19.38 0 01-1.88 1.51c.19-.74.88-3.51.88-3.51zm9 8a14.39 14.39 0 00-2 3v3c0 1-1 2 0 2a1.1 1.1 0 01.48.11L344 21v1c-1-1-3-2-3-1v2l2.46 1.23L345 23l1-2v-1l2-2a22.69 22.69 0 01-1-4c0-1 1-4 0-3zm-2-1l1-1c1-1 0 0-1-2s0-2-1-2 0 2 1 4zm29 4v-2l1-3a4.94 4.94 0 00-1-3l-3-3 1 4 .76 3.29L372 13l-.88-.47L368 7h-2l5 7 1.91 2 .09 5v3l2-1v-5l1.94-1.74L378 14l.28-1.77L374 16zm13-2c1 1 4 10 4 10l1 3 2-.82-1-3.18v-3l2-5v-2l-3 4zm15 5l-3-11c0 1 1 6 1 6v9l2 4h1v-6l1-2s0-4 1-5 3-8 3-8l-5 11zm21-4v-2l1-2 1-4-2 1-2 3-1 1-2-7c0 1-1 6-1 6l3.14 3-.14 4-1 4s-2 2-2 3a3.49 3.49 0 001 2 1 1 0 001-1 10.07 10.07 0 011-3l1-3s.68-2 .34-2a20.63 20.63 0 012.66-1l2-2-3 1zm22-8l-3 3-3 1a22.69 22.69 0 001-4c0-1-3-1-3-1v7l-3.82-1c.69.36-.11 3 .82 3s4 2 4 2l1 9 1 1-.17-7.11L441 15v-4l4-1zm0 12l1.53 1.02L448 17l-1-4zm11-2l-1-3s-1-3 0-3 1-2 1-2a1.39 1.39 0 010-2c1-1-1-3-1-3-1 2-2 9-2 9l2 4-1 3.15V20l1 2-.69 2.17 3.69-.18-1-3-1-2 2-2zm23-5c-1 1-2.17 1-2.58 2 0 0-.42 1-.42-1s1-2 1-3a10.07 10.07 0 011-3l1-3c-1 0-3 5-3 5l-1 5-1 3-.55-.37L471 13l1 1s4 2 3 3a3.1 3.1 0 00-1 2l1 2a1 1 0 00-1 1 3.49 3.49 0 001 2l2-3-1-3 .42-1.86L477 15l1.83-3s1.17-1 2.17-2-1-1-2 0zm0 12c0 1 .41 2.33 1.2 2.16S481 23 481 23l-1-3c0 1-1 1-1 2zm15-8v-3h-1l-1 3v1l2.03 1.06zm-.25 7.65L493 19l-.22.07L492 17l.54 2v.16l-2.58.86c0 1-1 3 0 3h3l.42-.75.47 1.77 1.11 1-1.25-3.34zM499 20c-1 0-2-2-2-2v1l-2 2s-1 1 0 1h3c1 0 2-2 1-2zm17-11v3l3 1V6c-1 1-3 2-3 3zm0 8v-4h-1v4l2 4 1 3v1a1 1 0 001-1c0-1 0-3-1-4s-2-2-2-3zm21.91 1.17l.09-4.18s-2-2-2-3a10.07 10.07 0 00-1-3v-2l-2-2c0 2-1 6 0 6s2 3 2 3a3.49 3.49 0 011 2v3a2 2 0 012 2 20.34 20.34 0 001 5 2.19 2.19 0 001-3c-1-1.99-2.09-3.82-2.09-3.82zm-5.17-2.09a12.1 12.1 0 01-1.61-.32L531 18l2 2h3a4.94 4.94 0 00-1-3 3.17 3.17 0 00-2.26-.92zM550 11h-1s-3-1-3-2-2-1-2-2a43.79 43.79 0 01.68-4.37C543.78 5.27 541.35 8 543 8c2 0 2 3 3 4s2 4 2 4v4s-2 1-2 2 2 1 2 1l2 1v-7l-1-4h3l4-5-4 1s-1 2-2 2zm-5.32-8.37A5.17 5.17 0 00545 1s-.14.7-.32 1.63zM571 19l-.92-2.77c.16.08.18 0-.08-.23-1-1-1-6-1-7s-3-3-3-3v3c0 1 2 4 2 5 0 .69 1.46 1.88 2 2.19V19s-1 1-1 0-2.49-2.76-2.49-2.76L566 19l2 1 2 2v2l2 1v-4c0-2-1-2-1-2zm-7.88 5l2.88-1v-1a3.49 3.49 0 00-2-1c-1 0-1 2-.88 3zM587 9c0 1-4 4-4 5s-1-2-1-3-1-8-1-8h-1l.73 6.78S580 14 581 15s-1 2-1 2v4s3 2 3 2.84V22l-1-3v-2a3.49 3.49 0 011-2l3-2 3-5s-2 0-2 1zm9 12c-1 0-1-2-1-2l1-3a1 1 0 01-1-1c0-1-1-1 0-2s-.88-.84-.88-.84C594 13 592 16 593 17s2 2 1 3-1 3 0 3 1-.13 2 .93 1-2.93 0-2.93zm2-4v3l-1 2 .28 1.79L599 25v-3a10.07 10.07 0 011-3s-1.7.09-.85-.95A2.59 2.59 0 01601 17l.88-1.11L601 14c0 1-3 3-3 3zm16-6a10.07 10.07 0 01-1 3s-.13.4-.32 1a3.28 3.28 0 01-1.68-1 3.1 3.1 0 00-2-1s-1 0 0 1 1 2 2 2a2.84 2.84 0 001.54-.62 25.58 25.58 0 01-1 2.67 7.27 7.27 0 01-2.5 1.95v5a4.94 4.94 0 011-3 3.1 3.1 0 001-2s2-2 2-3v-2l2-1V9c0-2-2-5-2-5-.04 2 .96 6 .96 7zm7 5v-3l-1 4 2 2-1 2 1 2 2-4-2-2zm12-9V4s0-2-1-2h-1v1a22.69 22.69 0 001 4zm3-4V0c-.17.33-.33.69-.5 1.06C634.69 2.91 634 5 634 5l.85 1.71C633.85 7.41 633 8 633 8l-1 3v7h-3l1 2 1 1s1-1 1 1-1 4 0 2a13.38 13.38 0 001-5v-9l1-2a3.49 3.49 0 012-1c1 0 1-2 1-2a19.38 19.38 0 01-1.88 1.51c.19-.74.88-3.51.88-3.51zm9 8a14.39 14.39 0 00-2 3v3c0 1-1 2 0 2a1.1 1.1 0 01.48.11L642 21v1c-1-1-3-2-3-1v2l2.46 1.23L643 23l1-2v-1l2-2a22.69 22.69 0 01-1-4c0-1 1-4 0-3zm-2-1l1-1c1-1 0 0-1-2s0-2-1-2 0 2 1 4zm30 4v-2l1-3a4.94 4.94 0 00-1-3l-3-3 1 4 .76 3.29L671 13l-.88-.47L667 7h-2l5 7 1.91 2 .09 5v3l2-1v-5l1.94-1.74L677 14l.28-1.77L673 16zm13-2c1 1 4 10 4 10l1 3 2-.82-1-3.18v-3l2-5v-2l-3 4zm15 5l-3-11c0 1 1 6 1 6v9l2 4h1v-6l1-2s0-4 1-5 3-8 3-8l-5 11zm21-4v-2l1-2 1-4-2 1-2 3-1 1-2-7c0 1-1 6-1 6l3.14 3-.14 4-1 4s-2 2-2 3a3.49 3.49 0 001 2 1 1 0 001-1 10.07 10.07 0 011-3l1-3s.68-2 .34-2a20.63 20.63 0 012.66-1l2-2-3 1zm22-8l-3 3-3 1a22.69 22.69 0 001-4c0-1-3-1-3-1v7l-3.82-1c.69.36-.11 3 .82 3s4 2 4 2l1 9 1 1-.17-7.11L740 15v-4l4-1zm0 12l1.53 1.02L747 17l-1-4zm11-2l-1-3s-1-3 0-3 1-2 1-2a1.39 1.39 0 010-2c1-1-1-3-1-3-1 2-2 9-2 9l2 4-1 3.15V20l1 2-.69 2.17 3.69-.18-1-3-1-2 2-2zm23-5c-1 1-2.17 1-2.58 2 0 0-.42 1-.42-1s1-2 1-3a10.07 10.07 0 011-3l1-3c-1 0-3 5-3 5l-1 5-1 3-.55-.37L770 13l1 1s4 2 3 3a3.1 3.1 0 00-1 2l1 2a1 1 0 00-1 1 3.49 3.49 0 001 2l2-3-1-3 .42-1.86L776 15l1.83-3s1.17-1 2.17-2-1-1-2 0zm0 12c0 1 .41 2.33 1.2 2.16S780 23 780 23l-1-3c0 1-1 1-1 2zm15-8v-3h-1l-1 3v1l2.03 1.06zm-.25 7.65L792 19l-.22.07L791 17l.54 2v.16l-2.58.86c0 1-1 3 0 3h3l.42-.75.47 1.77 1.11 1-1.25-3.34zM798 20c-1 0-2-2-2-2v1l-2 2s-1 1 0 1h3c1 0 2-2 1-2zm17-11v3l3 1V6c-1 1-3 2-3 3zm0 8v-4h-1v4l2 4 1 3v1a1 1 0 001-1c0-1 0-3-1-4s-2-2-2-3zm21.91 1.17l.09-4.18s-2-2-2-3a10.07 10.07 0 00-1-3v-2l-2-2c0 2-1 6 0 6s2 3 2 3a3.49 3.49 0 011 2v3a2 2 0 012 2 20.34 20.34 0 001 5 2.19 2.19 0 001-3c-1-1.99-2.09-3.82-2.09-3.82zm-5.17-2.09a12.1 12.1 0 01-1.61-.32L830 18l2 2h3a4.94 4.94 0 00-1-3 3.17 3.17 0 00-2.26-.92zM849 11h-1s-3-1-3-2-2-1-2-2a43.79 43.79 0 01.68-4.37C842.78 5.27 840.35 8 842 8c2 0 2 3 3 4s2 4 2 4v4s-2 1-2 2 2 1 2 1l2 1v-7l-1-4h3l4-5-4 1s-1 2-2 2zm-5.32-8.37A5.17 5.17 0 00844 1s-.14.7-.32 1.63zM870 19l-.92-2.77c.16.08.18 0-.08-.23-1-1-1-6-1-7s-3-3-3-3v3c0 1 2 4 2 5 0 .69 1.46 1.88 2 2.19V19s-1 1-1 0-2.49-2.76-2.49-2.76L865 19l2 1 2 2v2l2 1v-4c0-2-1-2-1-2zm-7.88 5l2.88-1v-1a3.49 3.49 0 00-2-1c-1 0-1 2-.88 3zM886 9c0 1-4 4-4 5s-1-2-1-3-1-8-1-8h-1l.73 6.78S879 14 880 15s-1 2-1 2v4s3 2 3 2.84V22l-1-3v-2a3.49 3.49 0 011-2l3-2 3-5s-2 0-2 1zm9 12c-1 0-1-2-1-2l1-3a1 1 0 01-1-1c0-1-1-1 0-2s-.88-.84-.88-.84C893 13 891 16 892 17s2 2 1 3-1 3 0 3 1-.13 2 .93 1-2.93 0-2.93zm2-4v3l-1 2 .28 1.79L898 25v-3a10.07 10.07 0 011-3s-1.7.09-.85-.95A2.59 2.59 0 01900 17l.88-1.11L900 14c0 1-3 3-3 3zm16-6a10.07 10.07 0 01-1 3s-.13.4-.32 1a3.28 3.28 0 01-1.68-1 3.1 3.1 0 00-2-1s-1 0 0 1 1 2 2 2a2.84 2.84 0 001.54-.62 25.58 25.58 0 01-1 2.67 7.27 7.27 0 01-2.5 1.95v5a4.94 4.94 0 011-3 3.1 3.1 0 001-2s2-2 2-3v-2l2-1V9c0-2-2-5-2-5-.04 2 .96 6 .96 7zm7 5v-3l-1 4 2 2-1 2 1 2 2-4-2-2zm12-9V4s0-2-1-2h-1v1a22.69 22.69 0 001 4zm3-4V0c-.17.33-.33.69-.5 1.06C933.69 2.91 933 5 933 5l.85 1.71C932.85 7.41 932 8 932 8l-1 3v7h-3l1 2 1 1s1-1 1 1-1 4 0 2a13.38 13.38 0 001-5v-9l1-2a3.49 3.49 0 012-1c1 0 1-2 1-2a19.38 19.38 0 01-1.88 1.51c.19-.74.88-3.51.88-3.51zm9 8a14.39 14.39 0 00-2 3v3c0 1-1 2 0 2a1.1 1.1 0 01.48.11L941 21v1c-1-1-3-2-3-1v2l2.46 1.23L942 23l1-2v-1l2-2a22.69 22.69 0 01-1-4c0-1 1-4 0-3zm-2-1l1-1c1-1 0 0-1-2s0-2-1-2 0 2 1 4zm16 4v-2l1-3a4.94 4.94 0 00-1-3l-3-3 1 4 .76 3.29L956 13l-.88-.47L952 7h-2l5 7 1.91 2 .09 5v3l2-1v-5l1.94-1.74L962 14l.28-1.77L958 16zm13-2c1 1 4 10 4 10l1 3 2-.82-1-3.18v-3l2-5v-2l-3 4zm15 5l-3-11c0 1 1 6 1 6v9l2 4h1v-6l1-2s0-4 1-5 3-8 3-8l-5 11zm21-4v-2l1-2 1-4-2 1-2 3-1 1-2-7c0 1-1 6-1 6l3.14 3-.14 4-1 4s-2 2-2 3a3.49 3.49 0 001 2 1 1 0 001-1 10.07 10.07 0 011-3l1-3s.68-2 .34-2a20.63 20.63 0 012.66-1l2-2-3 1zm22-8l-3 3-3 1a22.69 22.69 0 001-4c0-1-3-1-3-1v7l-3.82-1c.69.36-.11 3 .82 3s4 2 4 2l1 9 1 1-.17-7.11L1025 15v-4l4-1zm0 12l1.53 1.02L1032 17l-1-4zm11-2l-1-3s-1-3 0-3 1-2 1-2a1.39 1.39 0 010-2c1-1-1-3-1-3-1 2-2 9-2 9l2 4-1 3.15V20l1 2-.69 2.18L1042 24l-1-3-1-2 2-2zm23-5c-1 1-2.17 1-2.58 2 0 0-.42 1-.42-1s1-2 1-3a10.07 10.07 0 011-3l1-3c-1 0-3 5-3 5l-1 5-1 3-.55-.37L1055 13l1 1s4 2 3 3a3.1 3.1 0 00-1 2l1 2a1 1 0 00-1 1 3.49 3.49 0 001 2l2-3-1-3 .42-1.86.58-1.14 1.83-3s1.17-1 2.17-2-1-1-2 0zm0 12c0 1 .41 2.33 1.2 2.16s.8-1.16.8-1.16l-1-3c0 1-1 1-1 2zm15-8v-3h-1l-1 3v1l2.03 1.06zm-.25 7.65L1077 19l-.22.07L1076 17l.54 2v.16l-2.58.86c0 1-1 3 0 3h3l.42-.75.47 1.77 1.11 1-1.25-3.34zM1083 20c-1 0-2-2-2-2v1l-2 2s-1 1 0 1h3c1 0 2-2 1-2zm17-11v3l3 1V6c-1 1-3 2-3 3zm0 8v-4h-1v4l2 4 1 3v1a1 1 0 001-1c0-1 0-3-1-4s-2-2-2-3z"/></g></svg>