<svg width="148" height="34" fill="none" xmlns="http://www.w3.org/2000/svg"><path fill-rule="evenodd" clip-rule="evenodd" d="M146.003 10.098l1.76 2.218-.44 6.285-2.646 2.3-9.394.296-1.732-1.174L23.1 20.62l-3.884 2.215-15.984.215-2.458-1.695-.069-8.616 1.77-2.072 17.28.447 3.588 1.875 109.759-.164 1.423-2.577 11.478-.15z" fill="url(#paint0_linear)"/><path d="M140.414 12.193a3.148 3.148 0 012.767 2.143 3.146 3.146 0 01-.92 3.377 3.155 3.155 0 01-3.473.441 3.15 3.15 0 01-1.736-3.038 3.131 3.131 0 012.134-2.762 3.14 3.14 0 011.217-.152l.011-.009z" fill="url(#paint1_radial)"/><path d="M9.786 20.932a4.2 4.2 0 10.586-8.38 4.2 4.2 0 00-.586 8.38z" fill="url(#paint2_radial)"/><defs><radialGradient id="paint1_radial" cx="0" cy="0" r="1" gradientUnits="userSpaceOnUse" gradientTransform="rotate(4 -8783.607 -16029.675) scale(3.14448)"><stop stop-color="#DABDB9"/><stop offset=".53" stop-color="#D8BBB7"/><stop offset=".72" stop-color="#D1B5B1"/><stop offset=".85" stop-color="#C6ABA7"/><stop offset=".88" stop-color="#C2A8A4"/><stop offset=".89" stop-color="#B79D98"/><stop offset=".91" stop-color="#9E847D"/></radialGradient><radialGradient id="paint2_radial" cx="0" cy="0" r="1" gradientUnits="userSpaceOnUse" gradientTransform="rotate(4 -397040.273 -87862.81) scale(35.0322)"><stop stop-color="#DABDB9"/><stop offset=".53" stop-color="#D8BBB7"/><stop offset=".72" stop-color="#D1B5B1"/><stop offset=".85" stop-color="#C6ABA7"/><stop offset=".88" stop-color="#C2A8A4"/><stop offset=".89" stop-color="#B79D98"/><stop offset=".91" stop-color="#9E847D"/></radialGradient><linearGradient id="paint0_linear" x1="73.924" y1="16.887" x2="75.451" y2="-4.95" gradientUnits="userSpaceOnUse"><stop offset=".3" stop-color="#E3CFCC"/><stop offset="1" stop-color="#B07E6E"/></linearGradient></defs></svg>