<svg fill="none" height="34" width="148" xmlns="http://www.w3.org/2000/svg" xmlns:xlink="http://www.w3.org/1999/xlink"><linearGradient id="b" gradientUnits="userSpaceOnUse" x1="73.924" x2="75.451" y1="16.887" y2="-4.95"><stop offset=".3" stop-color="#e3cfcc"/><stop offset="1" stop-color="#b07e6e"/></linearGradient><linearGradient id="a"><stop offset="0" stop-color="#dabdb9"/><stop offset=".53" stop-color="#d8bbb7"/><stop offset=".72" stop-color="#d1b5b1"/><stop offset=".85" stop-color="#c6aba7"/><stop offset=".88" stop-color="#c2a8a4"/><stop offset=".89" stop-color="#b79d98"/><stop offset=".91" stop-color="#9e847d"/></linearGradient><radialGradient id="c" cx="0" cy="0" gradientTransform="rotate(4 -8783.608 -16029.674) scale(3.14448)" gradientUnits="userSpaceOnUse" r="1" xlink:href="#a"/><radialGradient id="d" cx="0" cy="0" gradientTransform="rotate(4 -397040.273 -87862.81) scale(35.0322)" gradientUnits="userSpaceOnUse" r="1" xlink:href="#a"/><path clip-rule="evenodd" d="M146.003 10.098l1.76 2.218-.44 6.285-2.646 2.3-9.394.296-1.732-1.174L23.1 20.62l-3.884 2.215-15.984.215-2.458-1.695-.069-8.616 1.77-2.072 17.28.447 3.588 1.875 109.759-.164 1.423-2.577z" fill="url(#b)" fill-rule="evenodd"/><path d="M140.414 12.193a3.148 3.148 0 012.767 2.143 3.146 3.146 0 01-.92 3.377 3.155 3.155 0 01-3.473.441 3.15 3.15 0 01-.667-5.192 3.143 3.143 0 012.282-.76z" fill="url(#c)"/><path d="M9.786 20.932a4.2 4.2 0 10.586-8.38 4.2 4.2 0 00-.586 8.38z" fill="url(#d)"/></svg>