<svg fill="none" height="21" width="103" xmlns="http://www.w3.org/2000/svg" xmlns:xlink="http://www.w3.org/1999/xlink"><linearGradient id="b" gradientUnits="userSpaceOnUse" x1="50.723" x2="53.025" y1="-1.42" y2="56.13"><stop offset=".3" stop-color="#e3cfcc"/><stop offset=".94" stop-color="#b07e6e"/></linearGradient><linearGradient id="a"><stop offset="0" stop-color="#dabdb9"/><stop offset=".53" stop-color="#d8bbb7"/><stop offset=".72" stop-color="#d1b5b1"/><stop offset=".85" stop-color="#c6aba7"/><stop offset=".88" stop-color="#c2a8a4"/><stop offset=".89" stop-color="#b79d98"/><stop offset=".91" stop-color="#9e847d"/></linearGradient><radialGradient id="c" cx="0" cy="0" gradientTransform="rotate(177.589 45.94 7.718) scale(4.1742)" gradientUnits="userSpaceOnUse" r="1" xlink:href="#a"/><radialGradient id="d" cx="0" cy="0" gradientTransform="rotate(180 3246.595 -4074.79) scale(96.4048)" gradientUnits="userSpaceOnUse" r="1" xlink:href="#a"/><path clip-rule="evenodd" d="M88.12 5.72l2.57-2.67 7.25-.19 2.48 1.33 1.62 2.1.19 7.06-1.72 2.57-2.19 1.63-7.72.19-2.2-1.72-3.43-1.05-59.98-1.15-6.11 6.2-13.63.48-4.77-3.15L0 4.86 4.67.57 18.69 0l5.72 6.29 60.66 1.15z" fill="url(#b)" fill-rule="evenodd"/><path d="M94.6 6.1a4.2 4.2 0 100 8.4 4.2 4.2 0 000-8.4z" fill="url(#c)"/><path d="M11.73 3.53a6.77 6.77 0 100 13.54 6.77 6.77 0 000-13.54z" fill="url(#d)"/></svg>