<svg height="101.08" width="101.08" xmlns="http://www.w3.org/2000/svg"><radialGradient id="a" cx="-244.21" cy="-3934.47" gradientTransform="matrix(.95 0 0 -.95 -278.44 -3040.95)" gradientUnits="userSpaceOnUse" r="7.79"><stop offset="0" stop-color="#dbc9c9"/><stop offset=".64" stop-color="#dbc9c9"/><stop offset=".74" stop-color="#dbc9c9"/><stop offset=".82" stop-color="#d8c6c6"/><stop offset=".92" stop-color="#aaa094"/><stop offset="1" stop-color="#8c8672"/></radialGradient><path d="M50.54 0A50.54 50.54 0 110 50.54 50.54 50.54 0 0150.54 0zm0 97.55A46.92 46.92 0 103.63 50.62a46.88 46.88 0 0046.84 46.92h.07z" fill="gray"/><path d="M58.92 8.18h-9a42 42 0 1042 42c.02-23.18-9.83-41.98-33-42zM87 39.47L65.23 44.6a15.59 15.59 0 00-2.48-4.1l15.55-16a38.21 38.21 0 018.69 15zM54.17 66.34a16.61 16.61 0 004.29-1.72L72 82a38 38 0 01-15.89 6.22zm1.52-30.68l4.4-22a37.75 37.75 0 0115 7.72L59.53 37.52a17.69 17.69 0 00-3.84-1.86zm0-22.8L51.3 34.8a17.5 17.5 0 00-4.39.38l-7.79-20.92a37.84 37.84 0 0116.58-1.4zM34.56 52.25a14.68 14.68 0 001 4.39L16.47 67.55a37.84 37.84 0 01-4-16.53zm.29-4.67a.43.43 0 00-.1.29l-7.92-.44a23.88 23.88 0 013-8.91l6.52 4.68a18.27 18.27 0 00-1.49 4.38zM32.41 35A24 24 0 0140 29.08l2.84 7.59a14.82 14.82 0 00-3.91 3zM18.65 71.37l18.92-10.75a14.41 14.41 0 003.24 3.14L30.72 83.1a38 38 0 01-12.06-11.73zM43 87.9a38.4 38.4 0 01-8.28-2.71l10-19.32a21.52 21.52 0 002.38.67 14.08 14.08 0 002.67.29l2 21.82A38 38 0 0143 87.9zm32.57-8.61L62 61.86a17.49 17.49 0 002.48-3.44l21 7.38a38.07 38.07 0 01-9.9 13.49zm12.3-21.15c-.23 1.15-.52 2.28-.85 3.38l-20.9-7.39c.09-.09.09-.09.09-.19a17.11 17.11 0 00.19-5L88 43.75a37.86 37.86 0 01-.14 14.39z" fill="#911b1b"/><circle cx="50.54" cy="50.63" fill="url(#a)" r="7.44"/><path d="M59.7 4.48a47 47 0 11-55.31 36.9v-.09A47 47 0 0159.7 4.48zm-17.36 86.7A41.39 41.39 0 109.92 42.43a41.33 41.33 0 0032.26 48.74h.16z" fill="#e4cdcd"/></svg>