<svg width="103" height="21" fill="none" xmlns="http://www.w3.org/2000/svg"><path fill-rule="evenodd" clip-rule="evenodd" d="M88.12 5.72l2.57-2.67 7.25-.19 2.48 1.33 1.62 2.1.19 7.06-1.72 2.57-2.19 1.63-7.72.19-2.2-1.72-3.43-1.05-59.98-1.15-6.11 6.2-13.63.48-4.77-3.15L0 4.86 4.67.57 18.69 0l5.72 6.29 60.66 1.15 3.05-1.72z" fill="url(#paint0_linear)"/><path d="M94.6 6.1a4.2 4.2 0 100 8.4 4.2 4.2 0 000-8.4z" fill="url(#paint1_radial)"/><path d="M11.73 3.53a6.77 6.77 0 100 13.54 6.77 6.77 0 000-13.54z" fill="url(#paint2_radial)"/><defs><radialGradient id="paint1_radial" cx="0" cy="0" r="1" gradientUnits="userSpaceOnUse" gradientTransform="rotate(177.589 45.94 7.718) scale(4.1742)"><stop stop-color="#DABDB9"/><stop offset=".53" stop-color="#D8BBB7"/><stop offset=".72" stop-color="#D1B5B1"/><stop offset=".85" stop-color="#C6ABA7"/><stop offset=".88" stop-color="#C2A8A4"/><stop offset=".89" stop-color="#B79D98"/><stop offset=".91" stop-color="#9E847D"/></radialGradient><radialGradient id="paint2_radial" cx="0" cy="0" r="1" gradientUnits="userSpaceOnUse" gradientTransform="rotate(180 3246.595 -4074.79) scale(96.4048)"><stop stop-color="#DABDB9"/><stop offset=".53" stop-color="#D8BBB7"/><stop offset=".72" stop-color="#D1B5B1"/><stop offset=".85" stop-color="#C6ABA7"/><stop offset=".88" stop-color="#C2A8A4"/><stop offset=".89" stop-color="#B79D98"/><stop offset=".91" stop-color="#9E847D"/></radialGradient><linearGradient id="paint0_linear" x1="50.723" y1="-1.42" x2="53.025" y2="56.13" gradientUnits="userSpaceOnUse"><stop offset=".3" stop-color="#E3CFCC"/><stop offset=".94" stop-color="#B07E6E"/></linearGradient></defs></svg>