<svg id="Episod_10" data-name="Episod 10" xmlns="http://www.w3.org/2000/svg" width="1925.65" height="263.83" viewBox="0 0 1925.65 263.83"><defs><style>.cls-1{fill:#423a32;}.cls-2{fill:#a08c79;}</style></defs><path class="cls-1" d="M1855.52,639.15l-8-16-2-2-8-12h-2l2-6a7,7,0,0,0,0-5l-2-6h-9l-7,5v4l1,1-1,2v1l2,1v2l-2,4v2h-2l-1-8-1-2h-7l-3,1-3-2-2-3-1-2,1-3,2-1v-3l-1-1v-4l1-2-2-3-4-1h-6l-2,2v3l1,4v7h-2v3l-12,6v2h-2s-12-4-12-3-2-2-2-2l-1-3h2l2-4v-4l-3-4-2-1h-4l-4,1a5,5,0,0,0-1-3l-3,6v2H1743l-3.62,2.59-.9-3.59s1-3,2-3-2-4-2-4l-3-3-2-1-12,1-3,2v.21l-1.48-2.21-4-1h-6l-2,2v3l1,4v7h-2v3l-12,6v2h-2s-12-4-12-3-2-2-2-2l-1-3h2l2-4v-4l-3-4-2-1h-4l-4,1a4.88,4.88,0,0,0-1-3l-3,6v3l1,3,1,4,3,2-1,3h-2v-3l-4-4-4-3-1-4s1-3,2-3-2-4-2-4l-3-3-2-1-6.93.58-2.37-1-5,2-4,3-1,5,3,1v3h1l.49,2.48c-.66.86-1.6,1.89-2.19,1.89a7.49,7.49,0,0,0-2,.63h-.29l-3-2h-3l-2,2-1,2v4.78l-.7.59-4.64,7.63h-.66l-2-2-2-2v-2l3-1v-5l-1-3-4-3-4-1-3,2s-2,2-2,3a42.13,42.13,0,0,0,1,5l-1,3-2-2-3-4-1-4-3-3h-3l-2,2h-2l1-6-5-4-2-2c-2-1-2,1-2,1h-3l-2-1h-1l-1,3s1,3,0,3-1,1-1,2v6l2,2v3l-1,3-2-2-3-3-2-3h-1v-3l2-2v-4l-1-3-3-3-3-1h-9l-1,2v2l2,2v2l-1,4,1,1v2l1,3,2,1v4a4.82,4.82,0,0,1-4,0l-1-2v-11l-3-2h-5l-1,2a10,10,0,0,0-1,3,23,23,0,0,1-1,4v4l-1-1a3.48,3.48,0,0,1-1-2,10,10,0,0,0-1-3v-3l-4-1-3-1h-3l-3-2-4,2-4-2-5-1h-5l-4,2a3.09,3.09,0,0,1-2-1l-3-3,2-4-4,4h-2l1-3-2,1-1,2s-4,2-5,2-3,4-3,4v10l-2-4-2-2,1-7-2-4h-6l-3-4-3-3-3,1-2,1-2,2-1,6,2,5,2,1v3l-2,4-1,2h-2l-2-4-3-2-3,1-1,2-1,2,1,4,2,4-2,2c-1,0-4-6-4-6l-6-6-7-3,1-2,1-3-1-5-4-3-3-1-4,2-4-3-4-1-9,6v2l3,2,1,3,1,3c1,1-1,3-1,3l-3,3h-3v2l-1,5-1,4-2,3-3-7,1-4-1-3-3-4-4-2h-4l-3,3-2-3,2-5-2-4-4-2-3-1-5,1-2,3h2l-1,4,1,5,1,3,1,1-3,3,1,3,4,3s2,2,1,3-1,4-1,4l-2,1.32-9.39-15.42-7-6s-4-2-5-2-3-3-3-3l-1-3,2-5v-4l-3-2-12-1-2,1-3,3s-3,4-2,4,2,3,2,3l-1,4-4,3-4,4v3h-2l-1-3,3-2,1-4,1-3v-3l-3-6a5,5,0,0,0-1,3l-4-1h-4l-2,1-3,4v4l2,4h2l-1,3s-2,3-2,2-12,3-12,3h-2v-2l-12-6v-3h-2v-7l1-4v-3l-2-2h-6l-4,1-2,3,1,2v4l-1,1v3l2,1,1,3-1,2-2,3-3,2-3-1h-7l-1,2-1,8h-2v-2l-2-4v-2l2-1v-1l-1-2,1-1v-4l-7-5h-9l-2,6c-.06.18-.12.36-.17.54h-2.15l-2-2-1-3-1-4s2-2,1-3a40.1,40.1,0,0,1-3-4l-5-2-5,2-4,3-1,5,3,1v3h1l1,5h-5l-3-2h-3l-2,2-1,2v7l-1,2-2,4h-3l-2-2-2-2v-2l3-1v-5l-1-3-4-3-4-1-3,2s-2,2-2,3a42.94,42.94,0,0,0,1,5l-1,3-2-2-3-4-1-4-3-3h-3l-2,2h-2l1-6-5-4-2-2c-2-1-2,1-2,1h-3l-2-1h-1l-1,3s1,3,0,3-1,1-1,2v6l2,2v3l-1,3-2-2-3-3-2-3h-1v-3l2-2v-4l-1-3-3-3-3-1h-9l-1,2v2l2,2v2l-1,4,1,1v2l1,3,2,1v4a4.89,4.89,0,0,1-4,0l-1-2v-11l-3-2h-5l-1,2a9.91,9.91,0,0,0-1,3,23,23,0,0,1-1,4v4l-1-1a3.51,3.51,0,0,1-1-2,9.91,9.91,0,0,0-1-3v-3l-4-1-3-1h-3l-3-2-4,2-4-2-5-1h-5l-4,2a3.13,3.13,0,0,1-2-1l-3-3,2-4-4,4h-2l1-3-2,1-1,2s-4,2-5,2-3,4-3,4v10l-2-4-2-2,1-7-2-4h-6l-3-4-3-3-3,1-2,1-2,2-1,6,2,5,2,1v3l-2,4-1,2h-2l-2-4-3-2-3,1-1,2-1,2,1,4,2,4-2,2c-1,0-4-6-4-6l-6-6-7-3,1-2,1-3-1-5-4-3-3-1-4,2-4-3-4-1-9,6v2l3,2,1,3,1,3c1,1-1,3-1,3l-3,3h-3v2l-1,5-1,4-2,3-3-7,1-4-1-3-3-4-4-2h-4l-3,3-2-3,2-5-2-4-4-2-3-1-5,1-2,3h2l-1,4,1,5,1,3,1,1-3,3,1,3,4,3s2,2,1,3-1,4-1,4l-2,1.32-9.39-15.42-7-6s-4-2-5-2-3-3-3-3l-1-3,2-5v-4l-3-2-12-1-2,1-3,3s-3,4-2,4,2,3,2,3l-1,4-4,3-4,4v3h-2l-1-3,3-2,1-4,1-3v-3l-3-6a5,5,0,0,0-1,3l-4-1h-4l-2,1-3,4v4l2,4h2l-1,3s-2,3-2,2-12,3-12,3h-2v-2l-12-6v-3h-2v-7l1-4v-3l-2-2h-6l-4,1-2,3,1,2v4l-1,1v3l2,1,1,3-1,2-2,3-3,2-3-1h-7l-1,2-1,8h-2v-2l-2-4v-2l2-1v-1l-1-2,1-1v-4l-7-5h-9l-2,6a6.77,6.77,0,0,0-.34,1.19l-1.45-1.09h-4l-2-2-1-3-1-4s2-2,1-3a40.1,40.1,0,0,1-3-4l-5-2-5,2-4,3-1,5,3,1v3h1l1,5h-5l-3-2h-3l-2,2-1,2v7l-1,2-2,4h-3l-2-2-2-2v-2l3-1v-5l-1-3-4-3-4-1-3,2s-2,2-2,3a42.94,42.94,0,0,0,1,5l-1,3-2-2-3-4-1-4-3-3h-3l-2,2h-2l1-6-5-4-2-2c-2-1-2,1-2,1h-3l-2-1h-1l-1,3s1,3,0,3-1,1-1,2v6l2,2v3l-1,3-2-2-3-3-2-3h-1v-3l2-2v-4l-1-3-3-3-3-1h-9l-1,2v2l2,2v2l-1,4,1,1v2l1,3,2,1v4a4.89,4.89,0,0,1-4,0l-1-2v-11l-3-2h-5l-1,2a9.91,9.91,0,0,0-1,3,23,23,0,0,1-1,4v4l-1-1a3.45,3.45,0,0,1-1-2,9.91,9.91,0,0,0-1-3v-3l-4-1-3-1h-3l-3-2-4,2-4-2-5-1h-5l-4,2a3.13,3.13,0,0,1-2-1l-3-3,2-4-4,4h-2l1-3-2,1-1,2s-4,2-5,2-3,4-3,4v10l-2-4-2-2,1-7-2-4h-6l-3-4-3-3-3,1-2,1-2,2-1,6,2,5,2,1v3l-2,4-1,2h-2l-2-4-3-2-3,1-1,2-1,2,1,4,2,4-2,2c-1,0-4-6-4-6l-6-6-7-3,1-2,1-3-1-5-4-3-3-1-4,2-4-3-4-1-9,6v2l3,2,1,3,1,3c1,1-1,3-1,3l-3,3h-3v2l-1,5-1,4-2,3-3-7,1-4-1-3-3-4-4-2h-4l-3,3-2-3,2-5-2-4-4-2-3-1-5,1-2,3h2l-1,4,1,5,1,3,1,1-3,3,1,3,4,3s2,2,1,3-1,4-1,4l-2,1.32-9.39-15.42-7-6s-4-2-5-2-3-3-3-3l-1-3,2-5v-4l-3-2-12-1-2,1-3,3s-3,4-2,4,2,3,2,3l-1,4-4,3-4,4v3h-2l-1-3,3-2,1-4,1-3v-3l-3-6a5,5,0,0,0-1,3l-4-1h-4l-2,1-3,4v4l2,4h2l-1,3s-2,3-2,2-12,3-12,3h-2v-2l-12-6v-3h-2v-7l1-4v-3l-2-2h-6l-4,1-2,3,1,2v4l-1,1v3l2,1,1,3-1,2-2,3-1.59,1.06-1.7-3.4-4-3h-4l-2-2-1-3-1-4s2-2,1-3a40.49,40.49,0,0,1-3-4l-5-2-5,2-4,3-1,5,3,1v1.34h-3.71l-1.69,5.06-.6-.4h-3l-2,2-1,2v7l-1,2-2,4h-3l-2-2-2-2v-2l3-1v-5l-1-3-4-3-4-1-3,2s-2,2-2,3a42.13,42.13,0,0,0,1,5l-1,3-2-2-3-4-1-4-3-3h-3l-2,2h-2l1-6-5-4-2-2c-2-1-2,1-2,1h-3l-2-1h-1l-1,3s1,3,0,3-1,1-1,2v6l2,2v3l-1,3-2-2-3-3-2-3h-1v-3l2-2v-4l-1-3-3-3-3-1h-9l-1,2v2l2,2v2l-1,4,1,1v2l1,3,2,1v4a4.82,4.82,0,0,1-4,0l-1-2v-11l-3-2h-5l-1,2a10,10,0,0,0-1,3,23,23,0,0,1-1,4v4l-1-1a3.48,3.48,0,0,1-1-2,10,10,0,0,0-1-3v-3l-4-1-3-1h-3l-3-2-4,2-4-2-5-1h-5l-4,2a3.09,3.09,0,0,1-2-1l-3-3,2-4-4,4h-2l1-3-2,1-1,2s-4,2-5,2-3,4-3,4v10l-2-4-2-2,1-7-2-4h-6l-3-4-3-3-3,1-2,1-2,2-1,6,2,5,2,1v3l-2,4-1,2h-2l-2-4-3-2-3,1-1,2-1,2,1,4,2,4-2,2c-1,0-4-6-4-6l-6-6-7-3,1-2,1-3-1-5-4-3-3-1-4,2-4-3-4-1-9,6v2l3,2,1,3,1,3c1,1-1,3-1,3l-3,3h-3v2l-1,5-1,4-2,3-3-7,1-4-1-3-3-4-4-2h-4l-3,3-2-3,2-5-2-4-4-2-3-1-5,1-2,3h2l-1,4,1,5,1,3,1,1-3,3,1,3,4,3s2,2,1,3-1,4-1,4l-2,1.32-9.39-15.42-7-6s-4-2-5-2-3-3-3-3l-1-3,2-5v-4l-3-2-12-1-2,1-3,3s-3,4-2,4,2,3,2,3l-1,4-4,3-4,4v3h-2l-1-3,3-2,1-4,1-3v-3l-3-6a5,5,0,0,0-1,3l-4-1h-4l-2,1-3,4v4l2,4h2l-1,3s-2,3-2,2-12,3-12,3h-2v-2l-12-6v-3h-2v-7l1-4v-3l-2-2h-6l-4,1-2,3,1,2v4l-1,1v3l2,1,1,3-1,2-2,3-3,2-3-1h-7l-1,2-1,8h-2v-2l-2-4v-2l2-1v-1l-1-2,1-1v-4l-7-5h-9l-2,6a7,7,0,0,0,0,5l2,6h-2l-8,12-2,2-8,16-1,4,1,23,5,9s0,11,1,12,13,2,13,2l-2,4-2,14-2,6v5l27,1,3-2v-1h-4l-7-5,1-11,3-8v-9l3,1,3,15v3l3,1-1,10,4,1,9,1v3l5,3h3l3-4v-5h5v6l5,1h6l1-10,4-1,1,3-1,4.37v2.63h11c-1,0-2-7-2-7l1-5-1-6v-12c0,1,3,7,3,7s2,11,2,12v11h10l-1-6-1-8,4-7v-3h3l2,8,1,9v2l-6,5H86.21l0,.1c-2,1-6,0-6,0s0,4,1,4,17,3,17,3l-1-7h3l1-10h11l-4-16h3l6,23h2l-4,5h3l10-2-1-4h2l-2-9v-10l2-2v-3l-2-2,1-12-3-2s-3-23-2-22,8,4,8,4l-3,8v6l1,4v7l2,6,5,8h-4l-1,2,8,5v2l9,1s-2,9-2,10,1,3,1,4a42.13,42.13,0,0,1-1,5l-1,2-5,1v3l12-1,7-1s-1-10,0-9,8-2,8-2l-1-8,1-2-4-5,2-2h9v6l-7,4,1,2,18-3-2-5,2-6,4-19,3-10,5,11,5,21,1,12-5,3,1,2,5,1,10,1v-4l2-3-1-6,1-8,9-5v8c0,1,2,3,2,3l-1,2-3,3v3l4,1-2,2h-8l-1,1,2,3s6,2,7,2,11,2,11,2l-1-4,2-2,5-20s2,1,2,2a42.13,42.13,0,0,1-1,5l6-1v-4l2-1s3,6,3,7a23,23,0,0,0,1,4l-3,17h19l1-8-1-5-2-7s-1-6-1-7,2-5,2-5l3,1,3-4s-1-1,0-1,5-2,5,0,3,6,3,6-2,2-1,3,4,11,4,11l-2,6,2,2-2,2-4,1v2l10,1,6-4v-3l1-3v-3l-1-2,3-1h5c-1,0-1-4-1-4h3s0,7,1,8,4,9,4,9l-5,4-1,3,18-1-1-9-2-15v-4l1-11,4-2v-9l3,1,1,7,2,1v7c0,1-1,11-1,11l1,3-3,2,4,2h6l-1-5,5-1h5l2-3-2-3,1-3,2,1V688.7c2.37.26,4.29.42,4.29.42l-2,4-2,14-2,6v5l20.64.76c.07,1.06.07,1.9.07,1.9l-4,5h9l4-2v-4l3-1v-5.24l2.29.58,9,1v3l5,3h3l3-4v-5h5v6l5,1h6l1-10,4-1,1,3-1,4.37v2.63h11c-1,0-2-7-2-7l1-5-1-6v-12c0,1,3,7,3,7s2,11,2,12v11h10l-1-6-1-8,4-7v-3h3l2,8,1,9v2l-6,5h39.34l0,.1c-2,1-6,0-6,0s0,4,1,4,17,3,17,3l-1-7h3l1-10h11l-4-16h3l6,23h2l-4,5h3l10-2-1-4h2l-2-9v-10l2-2v-3l-2-2,1-12-3-2s-3-23-2-22,8,4,8,4l-3,8v6l1,4v7l2,6,5,8h-4l-1,2,8,5v2l9,1s-2,9-2,10,1,3,1,4a45.13,45.13,0,0,1-1,5l-1,2-5,1v3l12-1,7-1s-1-10,0-9,8-2,8-2l-1-8,1-2-4-5,2-2h9v6l-7,4,1,2,18-3-2-5,2-6,4-19,3-10,5,11,5,21,1,12-5,3,1,2,5,1,10,1v-4l2-3-1-6,1-8,9-5v8c0,1,2,3,2,3l-1,2-3,3v3l4,1-2,2h-8l-1,1,2,3s6,2,7,2,11,2,11,2l-1-4,2-2,5-20s2,1,2,2a45.13,45.13,0,0,1-1,5l6-1v-4l2-1s3,6,3,7a22.09,22.09,0,0,0,1,4l-3,17h19l1-8-1-5-2-7s-1-6-1-7,2-5,2-5l3,1,3-4s-1-1,0-1,5-2,5,0,3,6,3,6-2,2-1,3,4,11,4,11l-2,6,2,2-2,2-4,1v2l10,1,6-4v-3l1-3v-3l-1-2,3-1h5c-1,0-1-4-1-4h3s0,7,1,8,4,9,4,9l-5,4-1,3,18-1-1-9-2-15v-4l1-11,4-2v-9l3,1,1,7,2,1v7c0,1-1,11-1,11l1,3-3,2,4,2h6l-1-5,5-1h5l2-3-2-3,1-3,2,1v-18h3l-1-8h3s0,8,1,9,1,19,1,19l5-1,1-3,1-12-1-5,3,1a44.23,44.23,0,0,1,1,5v15s1,10,2,10-2,4-1,5,1,6,1,6l-4,5h9l4-2v-4l3-1v-1l23.79.89,3-2v-1h-4l-7-5,1-11,3-8v-9l3,1,3,15v3l3,1-1,10,4,1,9,1v3l5,3h3l3-4v-5h5v6l5,1h6l1-10,4-1,1,3-1,4.37v2.63h11c-1,0-2-7-2-7l1-5-1-6v-12c0,1,3,7,3,7s2,11,2,12v11h10l-1-6-1-8,4-7v-3h3l2,8,1,9v2l-6,5H927l0,.1c-2,1-6,0-6,0s0,4,1,4,17,3,17,3l-1-7h3l1-10h11l-4-16h3l6,23h2l-4,5h3l10-2-1-4h2l-2-9v-10l2-2v-3l-2-2,1-12-3-2s-3-23-2-22,8,4,8,4l-3,8v6l1,4v7l2,6,5,8h-4l-1,2,8,5v2l9,1s-2,9-2,10,1,3,1,4a45.13,45.13,0,0,1-1,5l-1,2-5,1v3l12-1,7-1s-1-10,0-9,8-2,8-2l-1-8,1-2-4-5,2-2h9v6l-7,4,1,2,18-3-2-5,2-6,4-19,3-10,5,11,5,21,1,12-5,3,1,2,5,1,10,1v-4l2-3-1-6,1-8,9-5v8c0,1,2,3,2,3l-1,2-3,3v3l4,1-2,2h-8l-1,1,2,3s6,2,7,2,11,2,11,2l-1-4,2-2,5-20s2,1,2,2a45.13,45.13,0,0,1-1,5l6-1v-4l2-1s3,6,3,7a22.09,22.09,0,0,0,1,4l-3,17h19l1-8-1-5-2-7s-1-6-1-7,2-5,2-5l3,1,3-4s-1-1,0-1,5-2,5,0,3,6,3,6-2,2-1,3,4,11,4,11l-2,6,2,2-2,2-4,1v2l10,1,6-4v-3l1-3v-3l-1-2,3-1h5c-1,0-1-4-1-4h3s0,7,1,8,4,9,4,9l-5,4-1,3,18-1-1-9-2-15v-4l1-11,4-2v-9l3,1,1,7,2,1v7c0,1-1,11-1,11l1,3-3,2,4,2h6l-1-5,5-1h5l2-3-2-3,1-3,2,1v-18h3l-1-8h3s0,8,1,9,1,19,1,19l5-1,1-3,1-12-1-5,3,1c.23.87.42,1.75.6,2.63a19.66,19.66,0,0,0,.4,3v14.32s1,10,2,10-2,4-1,5,1,6,1,6l-4,5h9l4-2v-4l3-1v-1.29l20.32.75,3-2v-1h-4l-7-5,1-11,3-8v-9l3,1,3,15v3l3,1-1,10,4,1,9,1v3l5,3h3l3-4v-5h5v6l5,1h6l1-10,4-1,1,3-1,4.37v2.63h11c-1,0-2-7-2-7l1-5-1-6v-12c0,1,3,7,3,7s2,11,2,12v11h10l-1-6-1-8,4-7v-3h3l2,8,1,9v2l-6,5h39.34l0,.1c-2,1-6,0-6,0s0,4,1,4,17,3,17,3l-1-7h3l1-10h11l-4-16h3l6,23h2l-4,5h3l10-2-1-4h2l-2-9v-10l2-2v-3l-2-2,1-12-3-2s-3-23-2-22,8,4,8,4l-3,8v6l1,4v7l2,6,5,8h-4l-1,2,8,5v2l9,1s-2,9-2,10,1,3,1,4a44.23,44.23,0,0,1-1,5l-1,2-5,1v3l12-1,7-1s-1-10,0-9,8-2,8-2l-1-8,1-2-4-5,2-2h9v6l-7,4,1,2,18-3-2-5,2-6,4-19,3-10,5,11,5,21,1,12-5,3,1,2,5,1,10,1v-4l2-3-1-6,1-8,9-5v8c0,1,2,3,2,3l-1,2-3,3v3l4,1-2,2h-8l-1,1,2,3s6,2,7,2,11,2,11,2l-1-4,2-2,5-20s2,1,2,2a44.23,44.23,0,0,1-1,5l6-1v-4l2-1s3,6,3,7a22.09,22.09,0,0,0,1,4l-3,17h19l1-8-1-5-2-7s-1-6-1-7,2-5,2-5l3,1,3-4s-1-1,0-1,5-2,5,0,3,6,3,6-2,2-1,3,4,11,4,11l-2,6,2,2-2,2-4,1v2l10,1,6-4v-3l1-3v-3l-1-2,3-1h5c-1,0-1-4-1-4h3s0,7,1,8,4,9,4,9l-5,4-1,3,18-1-1-9-2-15v-4l1-11,4-2v-9l3,1,1,7,2,1v7c0,1-1,11-1,11l1,3-3,2,4,2h6l-1-5,2-.4-.7,2.77-1,9h31.57c.13,1.38.13,2.63.13,2.63l-4,5h9l4-2v-4l3-1v-.63h1.3l-1.3-1.09V704.78l-1-6,1.85-4.63h.45v3l4,7-1,8-1,6h10v-11c0-1,2-12,2-12s3-6,3-7v12l-1,6,1,5s-1,7-2,7h11v-2.63l-1-4.37,1-3,4,1,1,10h6l5-1h5.75l2.25,3h3l5-3h15.5l1.5,1,27-1h7.48v-2.63l-1-4.37,1-3,4,1,1,10h6l5-1v-6h5v5l3,4h3l5-3v-3l9-1,4-1-1-10,3-1v-3l3-15,3-1v9l3,8,1,11-7,5h-4v1l3,2,27-1v-5l-2-6-2-14-2-4s12-1,13-2,1-12,1-12l5-9,1-23ZM-43.14,713.68l-5-4,1-5,5-9S-42.14,712.68-43.14,713.68Zm102,0-1-3v-6h2l1,7Zm23-4-5-10v-16l2,9,4,1Zm9.37-9.9-.37.85v-2l.8-.39Zm1-3.41-.35-.69v-3.52l1.37.62Zm270.31,17.75-5-4,1-5,3.25-5.85,1.74-.34C363.46,703.8,363.27,713.37,362.52,714.12Zm8.19-2.16-1.19-.84.49-5.36c.35,2.14.79,4,1.22,4S371.21,710.81,370.71,712Zm93.81,2.16-1-3v-6h2l1,7Zm23-4-5-10v-16l2,9,4,1Zm9.37-9.9-.37.85v-2l.8-.4Zm1-3.42-.34-.68v-3.53l1.37.63Zm290.53,5.4-.5-3,1.44-3.6Zm2.28-11.05c.16-.71.3-1.45.4-2.09l.61.06Zm7,23-5-4,1-5,5-9S798.68,713.12,797.68,714.12Zm102,0-1-3v-6h2l1,7Zm23-4-5-10v-16l2,9,4,1Zm9.37-9.9-.37.85v-2l.8-.4Zm1-3.42-.35-.68v-3.53l1.37.63Zm296.34,16.88-5-4,1-5,5-9S1230.37,712.68,1229.37,713.68Zm102,0-1-3v-6h2l1,7Zm23-4-5-10v-16l2,9,4,1Zm9.37-9.9-.37.85v-2l.8-.39Zm1-3.41-.34-.69v-3.52l1.37.62ZM1643,712.15l.39-2.68c.1.2.2.31.31.31.54,0-.1,1.19-.63,2.43Zm-16-12-5,10-.27-4.41,2-3-2-3,1-3,2,1v-4.55l.3-.08,2-9Zm129.69,4.76-1.58-11a52,52,0,0,0,2.24-5.14h.13v11.43Zm-21,9.29-1.26-1.05v-2l1-9,1.71-6.84,1.81,4.84,1,11ZM1717,595.15l2-1v-3l-1-1v-4l.48-.95v1.95l2,5-1,3s-2,3-3,3a2.29,2.29,0,0,0-.44.07l0-.07Zm10.58,118.11.42-.11-.68-6.87.16-1.13h2v6l-1,3Zm102.9.89c-1-1-1-18-1-18l5,9,1,5Z" transform="translate(69.14 -466.39)"/><path class="cls-1" d="M1089.49,466.39V467c-13.35,2.16-60.46,9.58-84.19,10.83-27.82,1.47-92.18.69-92.18.69l-3.59.37,16.74,161.39,3.59-.37-12-115.29c14.45-.3,71.13-1.49,89.6-2.12,20.19-.7,76.1-5.37,81.57-5.82l-.94,111.95,3.6,0,1.37-162.25Z" transform="translate(69.14 -466.39)"/><path class="cls-1" d="M645.57,508.64v.61c-7.45-.16-33.73-.94-47-3.83-15.53-3.38-51.43-15.37-51.43-15.37l-2-.25,9.33,164.3,2,.25L549.83,537c8.06,2.22,39.69,10.91,50,13.49,11.26,2.82,42.46,7.9,45.51,8.39l-.53,111.79,2,.66.77-162Z" transform="translate(69.14 -466.39)"/><path class="cls-1" d="M1252.78,498.07c-8.82-1.31-13.06-6.86-18-11.1-4-3.47-14.73-5.41-18.55-6l.3-3.21-2.56-.24-14.79,161.58,2.55.24,10.62-115.91c2.41.3,7.15,1,13,2.08,8.49,1.63,15,10.12,22.21,11.1s18.28-3.59,18.28-3.59l3.92-35.59A50.13,50.13,0,0,1,1252.78,498.07Z" transform="translate(69.14 -466.39)"/><path class="cls-1" d="M1479.36,526.66c-5.21-.68-8.31-5.9-11.63-9.77-2.71-3.16-9.09-4.33-11.35-4.66l-.22-3.21-1.49-.06,11.14,161.43,1.49.05-8-115.8c1.42.14,4.21.46,7.68,1.16,5,1,9.82,9,14,9.47s10-4.85,10-4.85l-2.08-35.6A17.09,17.09,0,0,1,1479.36,526.66Z" transform="translate(69.14 -466.39)"/><path class="cls-1" d="M480,490.48a64.48,64.48,0,0,1-18.81,4.92c-10.25,1-16.62-3.33-23.34-6.19-5.49-2.34-18.07-1.51-22.51-1.12l-.61-3.19-2.93.42L442.5,645.39l2.93-.42-22-114.82c2.79-.32,8.28-.88,15.12-1.27,10-.57,19.76,6,28.09,5.12S486,525.9,486,525.9Z" transform="translate(69.14 -466.39)"/><path class="cls-1" d="M794.73,498.35a31.6,31.6,0,0,1-12.8,3c-6.7-.07-10.12-5-14-8.47-3.15-2.86-11.33-3.3-14.23-3.36l.1-3.21-1.94.12-5.17,161.21,1.94-.12,3.71-115.64c1.83,0,5.44,0,9.87.26,6.47.44,11.72,7.91,17.18,7.89S793.1,534,793.1,534Z" transform="translate(69.14 -466.39)"/><polygon class="cls-1" points="1414.18 63.35 1407.83 40.27 1405.77 38.77 1406.04 35.89 1403.78 35.69 1392.87 154.92 1395.12 155.12 1402.32 76.46 1404.65 80.71 1412.27 90.24 1415.45 98.07 1414.18 63.35"/><polygon class="cls-1" points="1741.53 65.65 1730.76 42.57 1727.27 41.06 1727.72 38.19 1723.9 37.99 1705.38 157.22 1709.2 157.42 1721.42 78.76 1725.37 83.01 1738.3 92.54 1743.69 100.37 1741.53 65.65"/><polygon class="cls-1" points="400.48 62.58 392.07 40.16 389.88 38.85 389.89 35.97 387.63 35.97 387.53 155.69 389.79 155.7 389.85 76.71 392.56 80.73 401.01 89.53 404.88 97.04 400.48 62.58"/><polygon class="cls-1" points="187.5 61.83 175.11 41.35 172.72 40.46 172.2 37.63 169.97 38.04 191.92 155.74 194.14 155.33 179.66 77.68 183.06 81.13 192.99 88.23 198.18 94.9 187.5 61.83"/><polygon class="cls-1" points="1131.57 131.31 1133.58 124.92 1134.24 115.7 1133.87 107.75 1134.02 106.78 1132.91 102.54 1132.24 93.77 1130.45 91.17 1129.78 89.09 1129.63 87.23 1128.67 84.85 1129.12 84.4 1130.08 85.15 1130.9 86.56 1131.57 87.53 1132.31 86.04 1132.24 84.4 1131.12 83.14 1130.82 81.65 1131.35 81.21 1132.53 82.77 1132.09 80.54 1132.76 80.02 1134.62 83.07 1136.18 86.04 1136.47 90.5 1135.88 92.66 1138.26 101.43 1138.63 106.41 1140.71 116.96 1143.02 118.75 1142.42 126.85 1143.09 133.02 1131.57 131.31"/><polygon class="cls-1" points="1167.21 148.52 1164.59 142.36 1163.03 133.25 1162.63 125.3 1162.38 124.35 1163.08 120.02 1162.9 111.23 1164.42 108.46 1164.88 106.33 1164.85 104.46 1165.58 102 1165.1 101.6 1164.2 102.44 1163.53 103.92 1162.96 104.95 1162.07 103.54 1161.99 101.91 1162.97 100.54 1163.13 99.03 1162.56 98.64 1161.53 100.31 1161.76 98.04 1161.04 97.59 1159.49 100.8 1158.22 103.92 1158.36 108.38 1159.16 110.47 1157.65 119.43 1157.76 124.42 1156.71 135.13 1154.6 137.13 1155.97 145.14 1155.91 151.34 1167.21 148.52"/><polygon class="cls-1" points="1590.04 140.62 1593.29 134.76 1595.79 125.86 1597.02 117.99 1597.36 117.08 1597.12 112.7 1598.22 103.97 1596.99 101.07 1596.75 98.89 1596.98 97.04 1596.51 94.52 1597.03 94.17 1597.83 95.09 1598.35 96.64 1598.81 97.72 1599.84 96.41 1600.09 94.8 1599.25 93.33 1599.26 91.82 1599.86 91.48 1600.71 93.25 1600.72 90.98 1601.48 90.6 1602.69 93.96 1603.63 97.19 1603.02 101.62 1602.01 103.61 1602.58 112.68 1601.95 117.63 1601.87 128.39 1603.78 130.6 1601.57 138.42 1600.99 144.6 1590.04 140.62"/><polygon class="cls-1" points="741.13 143.31 736.6 138.23 732.47 129.95 729.94 122.4 729.42 121.57 729.06 117.15 726.55 108.71 727.52 105.53 727.48 103.3 726.95 101.51 727.12 98.89 726.47 98.66 725.7 99.77 725.33 101.43 724.97 102.62 723.61 101.56 723.09 100.01 723.83 98.35 723.6 96.84 722.87 96.65 722.16 98.61 721.82 96.35 720.9 96.16 720.02 99.79 719.42 103.22 720.75 107.5 722.19 109.24 722.85 118.42 724.29 123.21 725.93 133.91 724.09 136.56 727.73 143.84 729.28 149.86 741.13 143.31"/><polygon class="cls-1" points="431.24 146.95 428.46 140.85 426.67 131.78 426.06 123.85 425.8 122.91 426.38 118.56 425.97 109.78 427.42 106.97 427.83 104.83 427.75 102.96 428.42 100.48 427.92 100.1 427.05 100.95 426.41 102.45 425.87 103.5 424.95 102.11 424.82 100.48 425.77 99.09 425.88 97.58 425.31 97.2 424.32 98.89 424.49 96.63 423.77 96.19 422.3 99.44 421.11 102.59 421.36 107.05 422.22 109.12 420.93 118.11 421.18 123.1 420.4 133.83 418.34 135.89 419.92 143.85 420.01 150.06 431.24 146.95"/><polygon class="cls-1" points="824.31 153.01 822.24 145.54 820.65 139.65 819.77 135.62 817 130.82 814.48 128.43 812.84 124.02 811.83 119.73 810.95 117.33 810.06 117.08 808.55 114.94 807.79 112.92 807.16 112.42 805.65 111.66 805.27 111.03 806.03 110.27 807.29 110.27 807.79 109.27 808.68 108.89 810.32 109.27 810.82 108.63 811.7 108.76 813.22 109.64 813.59 108.89 814.85 109.14 815.23 110.15 815.86 111.66 816.37 113.8 816.12 114.94 820.27 121.49 826.58 128.3 831.75 133.72 837.17 139.65 824.31 153.01"/><polygon class="cls-1" points="272.2 141.63 272.05 133.88 271.99 127.78 272.14 123.65 270.64 118.32 268.8 115.37 268.31 110.69 268.4 106.28 268.15 103.75 267.35 103.28 266.42 100.83 266.19 98.69 265.71 98.04 264.43 96.93 264.22 96.23 265.14 95.68 266.37 96 267.1 95.14 268.05 95 269.55 95.77 270.19 95.29 271.01 95.63 272.26 96.86 272.81 96.22 273.97 96.78 274.09 97.85 274.32 99.48 274.28 101.68 273.75 102.71 276.14 110.1 280.55 118.26 284.21 124.8 287.98 131.89 272.2 141.63"/><polygon class="cls-1" points="1379.29 144.45 1379.32 139.23 1379.38 134.62 1379.56 131.19 1378.51 126.43 1377.07 123.65 1376.64 118.78 1376.69 113.71 1376.43 110.59 1375.72 110.07 1374.82 106.94 1374.53 104 1374.05 103.13 1372.79 101.68 1372.55 100.67 1373.41 99.72 1374.61 100.03 1375.3 98.62 1376.24 98.25 1377.73 99.24 1378.38 98.39 1379.19 98.81 1380.4 100.53 1380.99 99.47 1382.13 100.17 1382.18 101.78 1382.31 104.13 1382.14 107.23 1381.59 108.68 1383.34 117.58 1386.44 125.94 1388.72 131.83 1390.8 137.56 1379.29 144.45"/><path class="cls-2" d="M567.27,508.43v25l-2.73-.65V510.55l-3.9-.92v22.21l-2.73-.65v-25Z" transform="translate(69.14 -466.39)"/><path class="cls-2" d="M577.65,510.68a5.41,5.41,0,0,1,1.76.72,4.45,4.45,0,0,1,1.17,1.11,4.38,4.38,0,0,1,.65,1.38,5.67,5.67,0,0,1,.22,1.54v17.71a4.74,4.74,0,0,1-.22,1.45,2.47,2.47,0,0,1-.65,1.06,2.21,2.21,0,0,1-1.17.55,4.21,4.21,0,0,1-1.76-.11l-2.09-.49a5.59,5.59,0,0,1-1.75-.73,4,4,0,0,1-1.17-1.1,4.39,4.39,0,0,1-.66-1.38,5.74,5.74,0,0,1-.21-1.55V513.13a4.64,4.64,0,0,1,.21-1.44,2.43,2.43,0,0,1,.66-1.07,2.21,2.21,0,0,1,1.17-.55,4.33,4.33,0,0,1,1.75.11Zm0,22.64a.81.81,0,0,0,.82-.13,1,1,0,0,0,.25-.7V514.78a1.49,1.49,0,0,0-.25-.81,1.27,1.27,0,0,0-.82-.52l-2.09-.5c-.4-.09-.68-.05-.83.13a1.05,1.05,0,0,0-.23.7v17.71a1.55,1.55,0,0,0,.23.81,1.2,1.2,0,0,0,.83.52Z" transform="translate(69.14 -466.39)"/><path class="cls-2" d="M591.48,522.1a5.45,5.45,0,0,1,1.75.72,4.19,4.19,0,0,1,1.82,2.48,5.43,5.43,0,0,1,.22,1.55v9.36a4.23,4.23,0,0,1-.3,1.71,2.33,2.33,0,0,1-.82,1,2.47,2.47,0,0,1-1.2.38,4.68,4.68,0,0,1-1.47-.13l-5.36-1.27v-25l8.44,2v2.77l-5.71-1.35v5.14Zm1.06,4.1a1.55,1.55,0,0,0-.23-.81,1.26,1.26,0,0,0-.83-.52l-2.63-.62v11.52l2.63.62a1.06,1.06,0,0,0,.76-.06c.2-.1.3-.36.3-.77Z" transform="translate(69.14 -466.39)"/><path class="cls-2" d="M607.92,518.08v2.77l-5.46-1.29v5.14l4.11,1v2.81l-4.11-1V539l5.46,1.29v2.77l-8.19-1.94v-25Z" transform="translate(69.14 -466.39)"/><path class="cls-2" d="M624,544.12v6.09l-1.87-.45-.54-3.44-8.47-2-.24,3.25-2.2-.52V541l1.59.38a1.48,1.48,0,0,0,.78-1.47l.82-20.37,8.26,2v22.22Zm-4.6-1.09V523.59l-2.91-.69-.74,17.71a2.18,2.18,0,0,1-.57,1.42Z" transform="translate(69.14 -466.39)"/><path class="cls-2" d="M635.7,549.66l-.53-4.91-4.85-1.15-.57,4.65L627,547.6l2.8-24.32,5.81,1.38,2.84,25.66Zm-5.1-8.52,4.29,1-1.7-15.31-.92-.22Z" transform="translate(69.14 -466.39)"/><path class="cls-2" d="M929.25,502.74l2.77-.08v7.06a5,5,0,0,1-.22,1.5,3.45,3.45,0,0,1-.66,1.24,3.23,3.23,0,0,1-1.19.86,4.69,4.69,0,0,1-1.78.36l-2.09.07a4.55,4.55,0,0,1-1.78-.26,2.89,2.89,0,0,1-1.19-.79,3.36,3.36,0,0,1-.67-1.2,5.16,5.16,0,0,1-.21-1.49V492.3a5.23,5.23,0,0,1,.21-1.5,3.67,3.67,0,0,1,.67-1.25,3.35,3.35,0,0,1,1.19-.86,4.65,4.65,0,0,1,1.78-.36l2.09-.06a4.59,4.59,0,0,1,1.78.25,3,3,0,0,1,1.19.79,3.16,3.16,0,0,1,.66,1.21A4.78,4.78,0,0,1,932,492v4.83l-2.77.08v-4.82a1.21,1.21,0,0,0-.25-.75,1,1,0,0,0-.83-.3l-2.09.06a1,1,0,0,0-.83.35,1.23,1.23,0,0,0-.25.77v17.71a1.15,1.15,0,0,0,.25.75,1,1,0,0,0,.83.3l2.09-.07a1,1,0,0,0,.83-.35,1.26,1.26,0,0,0,.25-.76Z" transform="translate(69.14 -466.39)"/><path class="cls-2" d="M946.56,487.93v25l-2.77.09V490.78l-3.17.1-.82,18.78a4.68,4.68,0,0,1-.74,2.61,2.94,2.94,0,0,1-2.4.94l-1.51,0v-2.78l1.15,0a.9.9,0,0,0,.56-.14.94.94,0,0,0,.16-.57l.94-21.55Z" transform="translate(69.14 -466.39)"/><path class="cls-2" d="M959.88,512.51l-.54-4.77-4.93.15-.57,4.8-2.78.09,2.85-25.07,5.9-.18,2.88,24.89Zm-5.18-7.15,4.36-.13-1.73-14.86-.94,0Z" transform="translate(69.14 -466.39)"/><path class="cls-2" d="M972.27,487.15a4.59,4.59,0,0,1,1.78.25,3,3,0,0,1,1.19.8,3.12,3.12,0,0,1,.66,1.2,4.79,4.79,0,0,1,.22,1.49v1.76a4.5,4.5,0,0,1-.6,2.56,3.12,3.12,0,0,1-1.56,1.21,3.08,3.08,0,0,1,1.56,1.16,4.32,4.32,0,0,1,.6,2.52v8.07a4.62,4.62,0,0,1-.31,1.79,3.14,3.14,0,0,1-.83,1.21,3.28,3.28,0,0,1-1.22.7,5.24,5.24,0,0,1-1.49.27l-5.37.16v-25Zm1.08,3.82a1.2,1.2,0,0,0-.24-.75,1,1,0,0,0-.84-.3l-2.6.08v5.19l1.88-.06a1.78,1.78,0,0,0,1.27-.56,2,2,0,0,0,.53-1.48Zm0,8.86a1.93,1.93,0,0,0-.53-1.45,1.71,1.71,0,0,0-1.27-.48l-1.88.06v11.48l2.6-.08a1.27,1.27,0,0,0,.77-.25,1.07,1.07,0,0,0,.31-.86Z" transform="translate(69.14 -466.39)"/><path class="cls-2" d="M988.57,511.64l-.54-4.77-4.93.15-.57,4.81-2.78.08,2.85-25.07,5.9-.18,2.88,24.9Zm-5.18-7.15,4.36-.13L986,489.51l-.94,0Z" transform="translate(69.14 -466.39)"/><path class="cls-2" d="M1009.23,485.89v2.77l-5.58.72v22.21l-2.77.36V487Z" transform="translate(69.14 -466.39)"/><path class="cls-2" d="M1021.61,484.28v2.78l-5.54.71v5.15l4.17-.54v2.81l-4.17.54v11.48l5.54-.72v2.78l-8.31,1.07v-25Z" transform="translate(69.14 -466.39)"/><path class="cls-2" d="M1035.26,495.73a5.06,5.06,0,0,1-.31,1.82,3.58,3.58,0,0,1-.85,1.3,4.18,4.18,0,0,1-1.24.82,5.07,5.07,0,0,1-1.49.41l-2.56.33v7.92l-2.77.36v-25l5.33-.69a4.47,4.47,0,0,1,1.78.07,2.82,2.82,0,0,1,1.2.68,2.56,2.56,0,0,1,.69,1.13,4.92,4.92,0,0,1,.22,1.47Zm-2.81-9a1.08,1.08,0,0,0-.24-.72.86.86,0,0,0-.84-.22l-2.56.33v11.52l2.56-.33a1.39,1.39,0,0,0,.77-.33,1.13,1.13,0,0,0,.31-.89Z" transform="translate(69.14 -466.39)"/><path class="cls-2" d="M1045.62,481a4.52,4.52,0,0,1,1.79.07,2.67,2.67,0,0,1,1.18.67,2.83,2.83,0,0,1,.67,1.14,4.93,4.93,0,0,1,.21,1.47V502a5.42,5.42,0,0,1-.21,1.52,3.78,3.78,0,0,1-.67,1.31,3.73,3.73,0,0,1-1.18,1,5.31,5.31,0,0,1-1.79.53l-2.12.28a4.44,4.44,0,0,1-1.78-.08,2.56,2.56,0,0,1-1.19-.67,3,3,0,0,1-.67-1.14,4.93,4.93,0,0,1-.21-1.47V485.58a5.47,5.47,0,0,1,.21-1.52,4.06,4.06,0,0,1,.67-1.31,3.64,3.64,0,0,1,1.19-1,5,5,0,0,1,1.78-.54Zm0,22.64a1.12,1.12,0,0,0,.83-.43,1.33,1.33,0,0,0,.25-.79V484.67a1,1,0,0,0-.25-.72.87.87,0,0,0-.83-.22l-2.12.27a1.15,1.15,0,0,0-.85.44,1.42,1.42,0,0,0-.23.78v17.72a1.15,1.15,0,0,0,.23.72.88.88,0,0,0,.85.22Z" transform="translate(69.14 -466.39)"/><path class="cls-2" d="M1063.62,478.84v25l-2.77.36V492.23l-1.58.21-2.74,12.3-2.84.37,2.77-12.49a3,3,0,0,1-1.73-1,3.55,3.55,0,0,1-.68-2.4v-5.33a5.52,5.52,0,0,1,.21-1.52,4.06,4.06,0,0,1,.67-1.31,3.64,3.64,0,0,1,1.19-1,5,5,0,0,1,1.78-.54Zm-2.77,3.13-2.95.38a1.15,1.15,0,0,0-.85.44,1.42,1.42,0,0,0-.23.78v5.33a.88.88,0,0,0,.32.79,1.09,1.09,0,0,0,.76.15l2.95-.38Z" transform="translate(69.14 -466.39)"/><path class="cls-2" d="M1085.51,476v25l-2.77.36v-10.8l.36-11.75-1,.13-2.7,16.8-4.61.6-2.7-16.1-1,.13.36,11.65v10.8l-2.78.36v-25l5.65-.74,2.53,16.17.5-.07,2.52-16.81Z" transform="translate(69.14 -466.39)"/></svg>