<svg id="Episod_10" data-name="Episod 10" xmlns="http://www.w3.org/2000/svg" width="1925.69" height="263.84" viewBox="0 0 1925.69 263.84"><defs><style>.cls-1{fill:#423a32;}.cls-2{fill:#a22400;}.cls-3{fill:#f0d2b6;}</style></defs><path class="cls-1" d="M1924.66,172.76l-8-16-2-2-8-12h-2l2-6a7,7,0,0,0,0-5l-2-6h-9l-7,5v4l1,1-1,2v1l2,1v2l-2,4v2h-2l-1-8-1-2h-7l-3,1-3-2-2-3-1-2,1-3,2-1v-3l-1-1v-4l1-2-2-3-4-1h-6l-2,2v3l1,4v7h-2v3l-12,6v2h-2s-12-4-12-3-2-2-2-2l-1-3h2l2-4v-4l-3-4-2-1h-4l-4,1a5,5,0,0,0-1-3l-3,6v2h-2.52l-3.62,2.59-.9-3.59s1-3,2-3-2-4-2-4l-3-3-2-1-12,1-3,2V117l-1.48-2.21-4-1h-6l-2,2v3l1,4v7h-2v3l-12,6v2h-2s-12-4-12-3-2-2-2-2l-1-3h2l2-4v-4l-3-4-2-1h-4l-4,1a4.86,4.86,0,0,0-1-3l-3,6v3l1,3,1,4,3,2-1,3h-2v-3l-4-4-4-3-1-4s1-3,2-3-2-4-2-4l-3-3-2-1-6.93.58-2.37-1-5,2-4,3-1,5,3,1v3h1l.49,2.48c-.66.86-1.6,1.89-2.19,1.89a7.76,7.76,0,0,0-2,.63h-.29l-3-2h-3l-2,2-1,2v4.78l-.7.59-4.64,7.63h-.66l-2-2-2-2v-2l3-1v-5l-1-3-4-3-4-1-3,2s-2,2-2,3a42.13,42.13,0,0,0,1,5l-1,3-2-2-3-4-1-4-3-3h-3l-2,2h-2l1-6-5-4-2-2c-2-1-2,1-2,1h-3l-2-1h-1l-1,3s1,3,0,3-1,1-1,2v6l2,2v3l-1,3-2-2-3-3-2-3h-1v-3l2-2v-4l-1-3-3-3-3-1h-9l-1,2v2l2,2v2l-1,4,1,1v2l1,3,2,1v4a4.82,4.82,0,0,1-4,0l-1-2v-11l-3-2h-5l-1,2a9.91,9.91,0,0,0-1,3,23,23,0,0,1-1,4v4l-1-1a3.48,3.48,0,0,1-1-2,9.91,9.91,0,0,0-1-3v-3l-4-1-3-1h-3l-3-2-4,2-4-2-5-1h-5l-4,2a3.09,3.09,0,0,1-2-1l-3-3,2-4-4,4h-2l1-3-2,1-1,2s-4,2-5,2-3,4-3,4v10l-2-4-2-2,1-7-2-4h-6l-3-4-3-3-3,1-2,1-2,2-1,6,2,5,2,1v3l-2,4-1,2h-2l-2-4-3-2-3,1-1,2-1,2,1,4,2,4-2,2c-1,0-4-6-4-6l-6-6-7-3,1-2,1-3-1-5-4-3-3-1-4,2-4-3-4-1-9,6v2l3,2,1,3,1,3c1,1-1,3-1,3l-3,3h-3v2l-1,5-1,4-2,3-3-7,1-4-1-3-3-4-4-2h-4l-3,3-2-3,2-5-2-4-4-2-3-1-5,1-2,3h2l-1,4,1,5,1,3,1,1-3,3,1,3,4,3s2,2,1,3-1,4-1,4l-2,1.32-9.39-15.42-7-6s-4-2-5-2-3-3-3-3l-1-3,2-5v-4l-3-2-12-1-2,1-3,3s-3,4-2,4,2,3,2,3l-1,4-4,3-4,4v3h-2l-1-3,3-2,1-4,1-3v-3l-3-6a5,5,0,0,0-1,3l-4-1h-4l-2,1-3,4v4l2,4h2l-1,3s-2,3-2,2-12,3-12,3h-2v-2l-12-6v-3h-2v-7l1-4v-3l-2-2h-6l-4,1-2,3,1,2v4l-1,1v3l2,1,1,3-1,2-2,3-3,2-3-1h-7l-1,2-1,8h-2v-2l-2-4v-2l2-1v-1l-1-2,1-1v-4l-7-5h-9l-2,6c-.06.18-.12.36-.17.54h-2.15l-2-2-1-3-1-4s2-2,1-3a41.7,41.7,0,0,1-3-4l-5-2-5,2-4,3-1,5,3,1v3h1l1,5h-5l-3-2h-3l-2,2-1,2v7l-1,2-2,4h-3l-2-2-2-2v-2l3-1v-5l-1-3-4-3-4-1-3,2s-2,2-2,3a42.53,42.53,0,0,0,1,5l-1,3-2-2-3-4-1-4-3-3h-3l-2,2h-2l1-6-5-4-2-2c-2-1-2,1-2,1h-3l-2-1h-1l-1,3s1,3,0,3-1,1-1,2v6l2,2v3l-1,3-2-2-3-3-2-3h-1v-3l2-2v-4l-1-3-3-3-3-1h-9l-1,2v2l2,2v2l-1,4,1,1v2l1,3,2,1v4a4.89,4.89,0,0,1-4,0l-1-2v-11l-3-2h-5l-1,2a9.91,9.91,0,0,0-1,3,23,23,0,0,1-1,4v4l-1-1a3.54,3.54,0,0,1-1-2,9.91,9.91,0,0,0-1-3v-3l-4-1-3-1h-3l-3-2-4,2-4-2-5-1h-5l-4,2a3.13,3.13,0,0,1-2-1l-3-3,2-4-4,4h-2l1-3-2,1-1,2s-4,2-5,2-3,4-3,4v10l-2-4-2-2,1-7-2-4h-6l-3-4-3-3-3,1-2,1-2,2-1,6,2,5,2,1v3l-2,4-1,2h-2l-2-4-3-2-3,1-1,2-1,2,1,4,2,4-2,2c-1,0-4-6-4-6l-6-6-7-3,1-2,1-3-1-5-4-3-3-1-4,2-4-3-4-1-9,6v2l3,2,1,3,1,3c1,1-1,3-1,3l-3,3h-3v2l-1,5-1,4-2,3-3-7,1-4-1-3-3-4-4-2h-4l-3,3-2-3,2-5-2-4-4-2-3-1-5,1-2,3h2l-1,4,1,5,1,3,1,1-3,3,1,3,4,3s2,2,1,3-1,4-1,4l-2,1.32-9.39-15.42-7-6s-4-2-5-2-3-3-3-3l-1-3,2-5v-4l-3-2-12-1-2,1-3,3s-3,4-2,4,2,3,2,3l-1,4-4,3-4,4v3h-2l-1-3,3-2,1-4,1-3v-3l-3-6a5,5,0,0,0-1,3l-4-1h-4l-2,1-3,4v4l2,4h2l-1,3s-2,3-2,2-12,3-12,3h-2v-2l-12-6v-3h-2v-7l1-4v-3l-2-2h-6l-4,1-2,3,1,2v4l-1,1v3l2,1,1,3-1,2-2,3-3,2-3-1h-7l-1,2-1,8h-2v-2l-2-4v-2l2-1v-1l-1-2,1-1v-4l-7-5h-9l-2,6a7,7,0,0,0-.34,1.19L858,131.78h-4l-2-2-1-3-1-4s2-2,1-3a41.7,41.7,0,0,1-3-4l-5-2-5,2-4,3-1,5,3,1v3h1l1,5h-5l-3-2h-3l-2,2-1,2v7l-1,2-2,4h-3l-2-2-2-2v-2l3-1v-5l-1-3-4-3-4-1-3,2s-2,2-2,3a42.53,42.53,0,0,0,1,5l-1,3-2-2-3-4-1-4-3-3h-3l-2,2h-2l1-6-5-4-2-2c-2-1-2,1-2,1h-3l-2-1h-1l-1,3s1,3,0,3-1,1-1,2v6l2,2v3l-1,3-2-2-3-3-2-3h-1v-3l2-2v-4l-1-3-3-3-3-1h-9l-1,2v2l2,2v2l-1,4,1,1v2l1,3,2,1v4a4.89,4.89,0,0,1-4,0l-1-2v-11l-3-2h-5l-1,2a9.91,9.91,0,0,0-1,3,23,23,0,0,1-1,4v4l-1-1a3.42,3.42,0,0,1-1-2,9.91,9.91,0,0,0-1-3v-3l-4-1-3-1h-3l-3-2-4,2-4-2-5-1h-5l-4,2a3.13,3.13,0,0,1-2-1l-3-3,2-4-4,4h-2l1-3-2,1-1,2s-4,2-5,2-3,4-3,4v10l-2-4-2-2,1-7-2-4h-6l-3-4-3-3-3,1-2,1-2,2-1,6,2,5,2,1v3l-2,4-1,2h-2l-2-4-3-2-3,1-1,2-1,2,1,4,2,4-2,2c-1,0-4-6-4-6l-6-6-7-3,1-2,1-3-1-5-4-3-3-1-4,2-4-3-4-1-9,6v2l3,2,1,3,1,3c1,1-1,3-1,3l-3,3h-3v2l-1,5-1,4-2,3-3-7,1-4-1-3-3-4-4-2h-4l-3,3-2-3,2-5-2-4-4-2-3-1-5,1-2,3h2l-1,4,1,5,1,3,1,1-3,3,1,3,4,3s2,2,1,3-1,4-1,4l-2,1.32-9.39-15.42-7-6s-4-2-5-2-3-3-3-3l-1-3,2-5v-4l-3-2-12-1-2,1-3,3s-3,4-2,4,2,3,2,3l-1,4-4,3-4,4v3h-2l-1-3,3-2,1-4,1-3v-3l-3-6a5,5,0,0,0-1,3l-4-1h-4l-2,1-3,4v4l2,4h2l-1,3s-2,3-2,2-12,3-12,3h-2v-2l-12-6v-3h-2v-7l1-4v-3l-2-2h-6l-4,1-2,3,1,2v4l-1,1v3l2,1,1,3-1,2-2,3L458,137.74l-1.7-3.4-4-3h-4l-2-2-1-3-1-4s2-2,1-3a41.7,41.7,0,0,1-3-4l-5-2-5,2-4,3-1,5,3,1v1.34h-3.71l-1.69,5.06-.6-.4h-3l-2,2-1,2v7l-1,2-2,4h-3l-2-2-2-2v-2l3-1v-5l-1-3-4-3-4-1-3,2s-2,2-2,3a42.13,42.13,0,0,0,1,5l-1,3-2-2-3-4-1-4-3-3h-3l-2,2h-2l1-6-5-4-2-2c-2-1-2,1-2,1h-3l-2-1h-1l-1,3s1,3,0,3-1,1-1,2v6l2,2v3l-1,3-2-2-3-3-2-3h-1v-3l2-2v-4l-1-3-3-3-3-1h-9l-1,2v2l2,2v2l-1,4,1,1v2l1,3,2,1v4a4.82,4.82,0,0,1-4,0l-1-2v-11l-3-2h-5l-1,2a9.91,9.91,0,0,0-1,3,23,23,0,0,1-1,4v4l-1-1a3.48,3.48,0,0,1-1-2,9.91,9.91,0,0,0-1-3v-3l-4-1-3-1h-3l-3-2-4,2-4-2-5-1h-5l-4,2a3.09,3.09,0,0,1-2-1l-3-3,2-4-4,4h-2l1-3-2,1-1,2s-4,2-5,2-3,4-3,4v10l-2-4-2-2,1-7-2-4h-6l-3-4-3-3-3,1-2,1-2,2-1,6,2,5,2,1v3l-2,4-1,2h-2l-2-4-3-2-3,1-1,2-1,2,1,4,2,4-2,2c-1,0-4-6-4-6l-6-6-7-3,1-2,1-3-1-5-4-3-3-1-4,2-4-3-4-1-9,6v2l3,2,1,3,1,3c1,1-1,3-1,3l-3,3h-3v2l-1,5-1,4-2,3-3-7,1-4-1-3-3-4-4-2h-4l-3,3-2-3,2-5-2-4-4-2-3-1-5,1-2,3h2l-1,4,1,5,1,3,1,1-3,3,1,3,4,3s2,2,1,3-1,4-1,4l-2,1.32-9.39-15.42-7-6s-4-2-5-2-3-3-3-3l-1-3,2-5v-4l-3-2-12-1-2,1-3,3s-3,4-2,4,2,3,2,3l-1,4-4,3-4,4v3h-2l-1-3,3-2,1-4,1-3v-3l-3-6a5,5,0,0,0-1,3l-4-1h-4l-2,1-3,4v4l2,4h2l-1,3s-2,3-2,2-12,3-12,3h-2v-2l-12-6v-3h-2v-7l1-4v-3l-2-2h-6l-4,1-2,3,1,2v4l-1,1v3l2,1,1,3-1,2-2,3-3,2-3-1h-7l-1,2-1,8h-2v-2l-2-4v-2l2-1v-1l-1-2,1-1v-4l-7-5h-9l-2,6a7,7,0,0,0,0,5l2,6h-2l-8,12-2,2-8,16-1,4,1,23,5,9s0,11,1,12,13,2,13,2l-2,4-2,14-2,6v5l27,1,3-2v-1h-4l-7-5,1-11,3-8v-9l3,1,3,15v3l3,1-1,10,4,1,9,1v3l5,3h3l3-4v-5h5v6l5,1h6l1-10,4-1,1,3-1,4.37v2.63h11c-1,0-2-7-2-7l1-5-1-6v-12c0,1,3,7,3,7s2,11,2,12v11h10l-1-6-1-8,4-7v-3h3l2,8,1,9v2l-6,5h39.46v.1c-2,1-6,0-6,0s0,4,1,4,17,3,17,3l-1-7h3l1-10h11l-4-16h3l6,23h2l-4,5h3l10-2-1-4h2l-2-9v-10l2-2v-3l-2-2,1-12-3-2s-3-23-2-22,8,4,8,4l-3,8v6l1,4v7l2,6,5,8h-4l-1,2,8,5v2l9,1s-2,9-2,10,1,3,1,4a42.13,42.13,0,0,1-1,5l-1,2-5,1v3l12-1,7-1s-1-10,0-9,8-2,8-2l-1-8,1-2-4-5,2-2h9v6l-7,4,1,2,18-3-2-5,2-6,4-19,3-10,5,11,5,21,1,12-5,3,1,2,5,1,10,1v-4l2-3-1-6,1-8,9-5v8c0,1,2,3,2,3l-1,2-3,3v3l4,1-2,2h-8l-1,1,2,3s6,2,7,2,11,2,11,2l-1-4,2-2,5-20s2,1,2,2a42.13,42.13,0,0,1-1,5l6-1v-4l2-1s3,6,3,7a23,23,0,0,0,1,4l-3,17h19l1-8-1-5-2-7s-1-6-1-7,2-5,2-5l3,1,3-4s-1-1,0-1,5-2,5,0,3,6,3,6-2,2-1,3,4,11,4,11l-2,6,2,2-2,2-4,1v2l10,1,6-4v-3l1-3v-3l-1-2,3-1h5c-1,0-1-4-1-4h3s0,7,1,8,4,9,4,9l-5,4-1,3,18-1-1-9-2-15v-4l1-11,4-2v-9l3,1,1,7,2,1v7c0,1-1,11-1,11l1,3-3,2,4,2h6l-1-5,5-1h5l2-3-2-3,1-3,2,1v-9c2.37.26,4.29.42,4.29.42l-2,4-2,14-2,6v5l20.64.76c.07,1.06.07,1.9.07,1.9l-4,5h9l4-2v-4l3-1v-5.24l2.29.58,9,1v3l5,3h3l3-4v-5h5v6l5,1h6l1-10,4-1,1,3-1,4.37v2.63h11c-1,0-2-7-2-7l1-5-1-6v-12c0,1,3,7,3,7s2,11,2,12v11h10l-1-6-1-8,4-7v-3h3l2,8,1,9v2l-6,5H561v.1c-2,1-6,0-6,0s0,4,1,4,17,3,17,3l-1-7h3l1-10h11l-4-16h3l6,23h2l-4,5h3l10-2-1-4h2l-2-9v-10l2-2v-3l-2-2,1-12-3-2s-3-23-2-22,8,4,8,4l-3,8v6l1,4v7l2,6,5,8h-4l-1,2,8,5v2l9,1s-2,9-2,10,1,3,1,4a45.13,45.13,0,0,1-1,5l-1,2-5,1v3l12-1,7-1s-1-10,0-9,8-2,8-2l-1-8,1-2-4-5,2-2h9v6l-7,4,1,2,18-3-2-5,2-6,4-19,3-10,5,11,5,21,1,12-5,3,1,2,5,1,10,1v-4l2-3-1-6,1-8,9-5v8c0,1,2,3,2,3l-1,2-3,3v3l4,1-2,2h-8l-1,1,2,3s6,2,7,2,11,2,11,2l-1-4,2-2,5-20s2,1,2,2a45.13,45.13,0,0,1-1,5l6-1v-4l2-1s3,6,3,7a22.09,22.09,0,0,0,1,4l-3,17h19l1-8-1-5-2-7s-1-6-1-7,2-5,2-5l3,1,3-4s-1-1,0-1,5-2,5,0,3,6,3,6-2,2-1,3,4,11,4,11l-2,6,2,2-2,2-4,1v2l10,1,6-4v-3l1-3v-3l-1-2,3-1h5c-1,0-1-4-1-4h3s0,7,1,8,4,9,4,9l-5,4-1,3,18-1-1-9-2-15v-4l1-11,4-2v-9l3,1,1,7,2,1v7c0,1-1,11-1,11l1,3-3,2,4,2h6l-1-5,5-1h5l2-3-2-3,1-3,2,1v-18h3l-1-8h3s0,8,1,9,1,19,1,19l5-1,1-3,1-12-1-5,3,1a45.13,45.13,0,0,1,1,5v15s1,10,2,10-2,4-1,5,1,6,1,6l-4,5h9l4-2v-4l3-1v-1l23.79.89,3-2v-1h-4l-7-5,1-11,3-8v-9l3,1,3,15v3l3,1-1,10,4,1,9,1v3l5,3h3l3-4v-5h5v6l5,1h6l1-10,4-1,1,3-1,4.37v2.63h11c-1,0-2-7-2-7l1-5-1-6v-12c0,1,3,7,3,7s2,11,2,12v11h10l-1-6-1-8,4-7v-3h3l2,8,1,9v2l-6,5h39.37v.1c-2,1-6,0-6,0s0,4,1,4,17,3,17,3l-1-7h3l1-10h11l-4-16h3l6,23h2l-4,5h3l10-2-1-4h2l-2-9v-10l2-2v-3l-2-2,1-12-3-2s-3-23-2-22,8,4,8,4l-3,8v6l1,4v7l2,6,5,8h-4l-1,2,8,5v2l9,1s-2,9-2,10,1,3,1,4a45.13,45.13,0,0,1-1,5l-1,2-5,1v3l12-1,7-1s-1-10,0-9,8-2,8-2l-1-8,1-2-4-5,2-2h9v6l-7,4,1,2,18-3-2-5,2-6,4-19,3-10,5,11,5,21,1,12-5,3,1,2,5,1,10,1v-4l2-3-1-6,1-8,9-5v8c0,1,2,3,2,3l-1,2-3,3v3l4,1-2,2h-8l-1,1,2,3s6,2,7,2,11,2,11,2l-1-4,2-2,5-20s2,1,2,2a45.13,45.13,0,0,1-1,5l6-1v-4l2-1s3,6,3,7a22.09,22.09,0,0,0,1,4l-3,17h19l1-8-1-5-2-7s-1-6-1-7,2-5,2-5l3,1,3-4s-1-1,0-1,5-2,5,0,3,6,3,6-2,2-1,3,4,11,4,11l-2,6,2,2-2,2-4,1v2l10,1,6-4v-3l1-3v-3l-1-2,3-1h5c-1,0-1-4-1-4h3s0,7,1,8,4,9,4,9l-5,4-1,3,18-1-1-9-2-15v-4l1-11,4-2v-9l3,1,1,7,2,1v7c0,1-1,11-1,11l1,3-3,2,4,2h6l-1-5,5-1h5l2-3-2-3,1-3,2,1v-18h3l-1-8h3s0,8,1,9,1,19,1,19l5-1,1-3,1-12-1-5,3,1c.23.87.42,1.75.6,2.63a20.21,20.21,0,0,0,.4,3v14.32s1,10,2,10-2,4-1,5,1,6,1,6l-4,5h9l4-2v-4l3-1v-1.29l20.32.75,3-2v-1h-4l-7-5,1-11,3-8v-9l3,1,3,15v3l3,1-1,10,4,1,9,1v3l5,3h3l3-4v-5h5v6l5,1h6l1-10,4-1,1,3-1,4.37v2.63h11c-1,0-2-7-2-7l1-5-1-6v-12c0,1,3,7,3,7s2,11,2,12v11h10l-1-6-1-8,4-7v-3h3l2,8,1,9v2l-6,5h39.34v.1c-2,1-6,0-6,0s0,4,1,4,17,3,17,3l-1-7h3l1-10h11l-4-16h3l6,23h2l-4,5h3l10-2-1-4h2l-2-9v-10l2-2v-3l-2-2,1-12-3-2s-3-23-2-22,8,4,8,4l-3,8v6l1,4v7l2,6,5,8h-4l-1,2,8,5v2l9,1s-2,9-2,10,1,3,1,4a45.13,45.13,0,0,1-1,5l-1,2-5,1v3l12-1,7-1s-1-10,0-9,8-2,8-2l-1-8,1-2-4-5,2-2h9v6l-7,4,1,2,18-3-2-5,2-6,4-19,3-10,5,11,5,21,1,12-5,3,1,2,5,1,10,1v-4l2-3-1-6,1-8,9-5v8c0,1,2,3,2,3l-1,2-3,3v3l4,1-2,2h-8l-1,1,2,3s6,2,7,2,11,2,11,2l-1-4,2-2,5-20s2,1,2,2a45.13,45.13,0,0,1-1,5l6-1v-4l2-1s3,6,3,7a22.09,22.09,0,0,0,1,4l-3,17h19l1-8-1-5-2-7s-1-6-1-7,2-5,2-5l3,1,3-4s-1-1,0-1,5-2,5,0,3,6,3,6-2,2-1,3,4,11,4,11l-2,6,2,2-2,2-4,1v2l10,1,6-4v-3l1-3v-3l-1-2,3-1h5c-1,0-1-4-1-4h3s0,7,1,8,4,9,4,9l-5,4-1,3,18-1-1-9-2-15v-4l1-11,4-2v-9l3,1,1,7,2,1v7c0,1-1,11-1,11l1,3-3,2,4,2h6l-1-5,2-.4-.7,2.77-1,9h31.57c.13,1.38.13,2.63.13,2.63l-4,5h9l4-2v-4l3-1v-.63h1.3l-1.3-1.09V238.39l-1-6,1.85-4.63h.45v3l4,7-1,8-1,6h10v-11c0-1,2-12,2-12s3-6,3-7v12l-1,6,1,5s-1,7-2,7h11v-2.63l-1-4.37,1-3,4,1,1,10h6l5-1h5.75l2.25,3h3l5-3h15.5l1.5,1,27-1h7.48v-2.63l-1-4.37,1-3,4,1,1,10h6l5-1v-6h5v5l3,4h3l5-3v-3l9-1,4-1-1-10,3-1v-3l3-15,3-1v9l3,8,1,11-7,5h-4v1l3,2,27-1v-5l-2-6-2-14-2-4s12-1,13-2,1-12,1-12l5-9,1-23ZM26,247.29l-5-4,1-5,5-9S27,246.29,26,247.29Zm102,0-1-3v-6h2l1,7Zm23-4-5-10v-16l2,9,4,1Zm9.37-9.9-.37.85v-2l.8-.39Zm1-3.41-.35-.69v-3.52l1.37.62Zm270.31,17.75-5-4,1-5,3.25-5.85,1.74-.34c-.07,4.87-.26,14.44-1,15.19Zm8.19-2.16-1.19-.84.49-5.36c.35,2.14.79,4,1.22,4s0,1-.54,2.24Zm93.81,2.16-1-3v-6h2l1,7Zm23-4-5-10v-16l2,9,4,1Zm9.37-9.9-.37.85v-2l.8-.4Zm1-3.42-.34-.68V226.2l1.37.63Zm290.53,5.4-.5-3,1.44-3.6Zm2.28-11.05c.16-.71.3-1.45.4-2.09l.61.06Zm7,23-5-4,1-5,5-9s0,17-1,18Zm102,0-1-3v-6h2l1,7Zm23-4-5-10v-16l2,9,4,1Zm9.37-9.9-.37.85v-2l.8-.4Zm1-3.42-.35-.68v-3.53l1.37.63Zm296.34,16.88-5-4,1-5,5-9s-.06,17-1.06,18Zm102,0-1-3v-6h2l1,7Zm23-4-5-10v-16l2,9,4,1Zm9.37-9.9-.37.85v-2l.8-.39Zm1-3.41-.34-.69V225.8l1.37.62Zm278.2,15.75.39-2.68c.1.2.2.31.31.31.54,0-.1,1.19-.63,2.43Zm-16-12-5,10-.27-4.41,2-3-2-3,1-3,2,1V226.8l.3-.08,2-9Zm129.69,4.76-1.58-11a50.87,50.87,0,0,0,2.24-5.14h.13v11.43Zm-21,9.29-1.26-1.05v-2l1-9,1.71-6.84,1.81,4.84,1,11Zm-18.69-119,2-1v-3l-1-1v-4l.48-1v2l2,5-1,3s-2,3-3,3a2.13,2.13,0,0,0-.44.07v-.07Zm10.58,118.11.42-.11-.68-6.87.16-1.13h2v6l-1,3Zm102.9.89c-1-1-1-18-1-18l5,9,1,5Z" transform="translate(0.11 0.01)"/><path class="cls-1" d="M1158.63,0V.61c-13.35,2.16-60.46,9.58-84.19,10.83-27.82,1.47-92.18.69-92.18.69l-3.59.37,16.74,161.39,3.59-.37L987,58.23c14.45-.3,71.13-1.49,89.6-2.12,20.19-.7,76.1-5.37,81.57-5.82l-.94,112h3.6L1162.2,0Z" transform="translate(0.11 0.01)"/><path class="cls-2" d="M987,58.23c14.45-.3,71.13-1.49,89.6-2.12,20.19-.7,76.1-5.37,81.57-5.82l.46-49.68c-13.35,2.16-60.46,9.58-84.19,10.83-27.82,1.47-92.18.69-92.18.69Z" transform="translate(0.11 0.01)"/><path class="cls-1" d="M714.71,42.25v.61c-7.45-.16-33.73-.94-47-3.83-15.53-3.38-51.43-15.37-51.43-15.37l-2-.25,9.33,164.3,2,.25L619,70.61c8.06,2.22,39.69,10.91,50,13.49,11.26,2.82,42.46,7.9,45.51,8.39L714,204.28l2,.66.77-162Z" transform="translate(0.11 0.01)"/><path class="cls-2" d="M619,70.61c8.06,2.22,39.69,10.91,50,13.49,11.26,2.82,42.46,7.9,45.51,8.39l.23-49.63c-7.45-.16-33.73-.94-47-3.83-15.53-3.38-51.43-15.37-51.43-15.37Z" transform="translate(0.11 0.01)"/><polygon class="cls-1" points="1131.68 131.32 1133.69 124.93 1134.35 115.71 1133.98 107.76 1134.13 106.79 1133.02 102.55 1132.35 93.78 1130.56 91.18 1129.89 89.1 1129.74 87.24 1128.78 84.86 1129.23 84.41 1130.19 85.16 1131.01 86.57 1131.68 87.54 1132.42 86.05 1132.35 84.41 1131.23 83.15 1130.93 81.66 1131.46 81.22 1132.64 82.78 1132.2 80.55 1132.87 80.03 1134.73 83.08 1136.29 86.05 1136.58 90.51 1135.99 92.67 1138.37 101.44 1138.74 106.42 1140.82 116.97 1143.13 118.76 1142.53 126.86 1143.2 133.03 1131.68 131.32"/><polygon class="cls-1" points="1167.32 148.53 1164.7 142.37 1163.14 133.26 1162.74 125.31 1162.49 124.36 1163.19 120.03 1163.01 111.24 1164.53 108.47 1164.99 106.34 1164.96 104.47 1165.69 102.01 1165.21 101.61 1164.31 102.45 1163.64 103.93 1163.07 104.96 1162.18 103.55 1162.1 101.92 1163.08 100.55 1163.24 99.04 1162.67 98.65 1161.64 100.32 1161.87 98.05 1161.15 97.6 1159.6 100.81 1158.33 103.93 1158.47 108.39 1159.27 110.48 1157.76 119.44 1157.87 124.43 1156.82 135.14 1154.71 137.14 1156.08 145.15 1156.02 151.35 1167.32 148.53"/><polygon class="cls-1" points="1590.15 140.63 1593.4 134.77 1595.9 125.87 1597.13 118 1597.47 117.09 1597.23 112.71 1598.33 103.98 1597.1 101.08 1596.86 98.9 1597.09 97.05 1596.62 94.53 1597.14 94.18 1597.94 95.1 1598.46 96.65 1598.92 97.73 1599.95 96.42 1600.2 94.81 1599.36 93.34 1599.37 91.83 1599.97 91.49 1600.82 93.26 1600.83 90.99 1601.59 90.61 1602.8 93.97 1603.74 97.2 1603.13 101.63 1602.12 103.62 1602.69 112.69 1602.06 117.64 1601.98 128.4 1603.89 130.61 1601.68 138.43 1601.1 144.61 1590.15 140.63"/><polygon class="cls-1" points="741.24 143.32 736.71 138.24 732.58 129.96 730.05 122.41 729.53 121.58 729.17 117.16 726.66 108.72 727.63 105.54 727.59 103.31 727.06 101.52 727.23 98.9 726.58 98.67 725.81 99.78 725.44 101.44 725.08 102.63 723.72 101.57 723.2 100.02 723.94 98.36 723.71 96.85 722.98 96.66 722.27 98.62 721.93 96.36 721.01 96.17 720.13 99.8 719.53 103.23 720.86 107.51 722.3 109.25 722.96 118.43 724.4 123.22 726.04 133.92 724.2 136.57 727.84 143.85 729.39 149.87 741.24 143.32"/><polygon class="cls-1" points="431.35 146.96 428.57 140.86 426.78 131.79 426.17 123.86 425.91 122.92 426.49 118.57 426.08 109.79 427.53 106.98 427.94 104.84 427.86 102.97 428.53 100.49 428.03 100.11 427.16 100.96 426.52 102.46 425.98 103.51 425.06 102.12 424.93 100.49 425.88 99.1 425.99 97.59 425.42 97.21 424.43 98.9 424.6 96.64 423.88 96.2 422.41 99.45 421.22 102.6 421.47 107.06 422.33 109.13 421.04 118.12 421.29 123.11 420.51 133.84 418.45 135.9 420.03 143.86 420.12 150.07 431.35 146.96"/><polygon class="cls-1" points="824.42 153.02 822.35 145.55 820.76 139.66 819.88 135.63 817.11 130.83 814.59 128.44 812.95 124.03 811.94 119.74 811.06 117.34 810.17 117.09 808.66 114.95 807.9 112.93 807.27 112.43 805.76 111.67 805.38 111.04 806.14 110.28 807.4 110.28 807.9 109.28 808.79 108.9 810.43 109.28 810.93 108.64 811.81 108.77 813.33 109.65 813.7 108.9 814.96 109.15 815.34 110.16 815.97 111.67 816.48 113.81 816.23 114.95 820.38 121.5 826.69 128.31 831.86 133.73 837.28 139.66 824.42 153.02"/><polygon class="cls-1" points="272.31 141.64 272.16 133.89 272.1 127.79 272.25 123.66 270.75 118.33 268.91 115.38 268.42 110.7 268.51 106.29 268.26 103.76 267.46 103.29 266.53 100.84 266.3 98.7 265.82 98.05 264.54 96.94 264.33 96.24 265.25 95.69 266.48 96.01 267.21 95.15 268.16 95.01 269.66 95.78 270.3 95.3 271.12 95.64 272.37 96.87 272.92 96.23 274.08 96.79 274.2 97.86 274.43 99.49 274.39 101.69 273.86 102.72 276.25 110.11 280.66 118.27 284.32 124.81 288.09 131.9 272.31 141.64"/><polygon class="cls-1" points="1379.4 144.46 1379.43 139.24 1379.49 134.63 1379.67 131.2 1378.62 126.44 1377.18 123.66 1376.75 118.79 1376.8 113.72 1376.54 110.6 1375.83 110.08 1374.93 106.95 1374.64 104.01 1374.16 103.14 1372.9 101.69 1372.66 100.68 1373.52 99.73 1374.72 100.04 1375.41 98.63 1376.35 98.26 1377.84 99.25 1378.49 98.4 1379.3 98.82 1380.51 100.54 1381.1 99.48 1382.24 100.18 1382.29 101.79 1382.42 104.14 1382.25 107.24 1381.7 108.69 1383.45 117.59 1386.55 125.95 1388.83 131.84 1390.91 137.57 1379.4 144.46"/><path class="cls-3" d="M636.41,42V67l-2.73-.65V44.16l-3.9-.92V65.45l-2.73-.65v-25Z" transform="translate(0.11 0.01)"/><path class="cls-3" d="M646.79,44.29a5.41,5.41,0,0,1,1.76.72,4.57,4.57,0,0,1,1.17,1.11,4.26,4.26,0,0,1,.65,1.38,5.73,5.73,0,0,1,.22,1.54V66.75a4.77,4.77,0,0,1-.22,1.45,2.48,2.48,0,0,1-.65,1.06,2.16,2.16,0,0,1-1.17.55,4.18,4.18,0,0,1-1.76-.11l-2.09-.49a5.6,5.6,0,0,1-1.75-.73,4,4,0,0,1-1.17-1.1,4.39,4.39,0,0,1-.66-1.38,5.79,5.79,0,0,1-.21-1.55V46.74a4.41,4.41,0,0,1,.21-1.44,2.39,2.39,0,0,1,.66-1.07,2.16,2.16,0,0,1,1.17-.55,4.31,4.31,0,0,1,1.75.11Zm0,22.64a.81.81,0,0,0,.82-.13,1,1,0,0,0,.25-.7V48.39a1.46,1.46,0,0,0-.25-.81,1.25,1.25,0,0,0-.82-.52l-2.09-.5c-.4-.09-.68-.05-.83.13a1.05,1.05,0,0,0-.23.7V65.1a1.53,1.53,0,0,0,.23.81,1.22,1.22,0,0,0,.83.52Z" transform="translate(0.11 0.01)"/><path class="cls-3" d="M660.62,55.71a5.58,5.58,0,0,1,1.75.72,4.19,4.19,0,0,1,1.82,2.48,5.43,5.43,0,0,1,.22,1.55v9.36a4.18,4.18,0,0,1-.3,1.71,2.35,2.35,0,0,1-.82,1,2.43,2.43,0,0,1-1.2.38,4.86,4.86,0,0,1-1.47-.13l-5.36-1.27v-25l8.44,2v2.77L658,49.93v5.14Zm1.06,4.1a1.53,1.53,0,0,0-.23-.81,1.24,1.24,0,0,0-.83-.52L658,57.86V69.38l2.63.62a1.11,1.11,0,0,0,.76-.06c.2-.1.3-.36.3-.77Z" transform="translate(0.11 0.01)"/><path class="cls-3" d="M677.06,51.69v2.77l-5.46-1.29v5.14l4.11,1v2.81l-4.11-1V72.61l5.46,1.29v2.77l-8.19-1.94v-25Z" transform="translate(0.11 0.01)"/><path class="cls-3" d="M693.14,77.73v6.09l-1.87-.45-.54-3.44-8.47-2L682,81.18l-2.2-.52v-6l1.59.38a1.47,1.47,0,0,0,.78-1.47L683,53.15l8.26,2V77.37Zm-4.6-1.09V57.2l-2.91-.69-.74,17.71a2.14,2.14,0,0,1-.57,1.42Z" transform="translate(0.11 0.01)"/><path class="cls-3" d="M704.84,83.27l-.53-4.91-4.85-1.15-.57,4.65-2.75-.65,2.8-24.32,5.81,1.38,2.84,25.66Zm-5.1-8.52,4.29,1-1.7-15.31-.92-.22Z" transform="translate(0.11 0.01)"/><path class="cls-3" d="M998.36,36.46l2.76,0v7.06a5.09,5.09,0,0,1-.22,1.5,3.15,3.15,0,0,1-.66,1.22,3.22,3.22,0,0,1-1.18.85,4.87,4.87,0,0,1-1.77.33l-2.09,0a4.31,4.31,0,0,1-1.77-.29,2.81,2.81,0,0,1-1.18-.81,3.27,3.27,0,0,1-.67-1.21,5.36,5.36,0,0,1-.21-1.49V25.91a5.43,5.43,0,0,1,.21-1.5,3.74,3.74,0,0,1,.67-1.24,3.31,3.31,0,0,1,1.18-.84A4.67,4.67,0,0,1,995.2,22l2.09,0a4.47,4.47,0,0,1,1.77.28,3,3,0,0,1,1.18.8,3.27,3.27,0,0,1,.66,1.23,4.94,4.94,0,0,1,.2,1.48V30.6l-2.76,0V25.81a1.21,1.21,0,0,0-.25-.75,1,1,0,0,0-.82-.31l-2.09,0a1,1,0,0,0-.82.34,1.18,1.18,0,0,0-.25.76V43.58a1.16,1.16,0,0,0,.25.76,1,1,0,0,0,.82.31l2.09,0a1,1,0,0,0,.82-.34,1.22,1.22,0,0,0,.25-.76Z" transform="translate(0.11 0.01)"/><path class="cls-3" d="M1015.6,21.93v25l-2.76,0V24.74l-3.15.05-.82,18.77a4.57,4.57,0,0,1-.74,2.59,2.85,2.85,0,0,1-2.39.9l-1.5,0V44.25l1.14,0a.9.9,0,0,0,.56-.13,1,1,0,0,0,.16-.57L1007,22Z" transform="translate(0.11 0.01)"/><path class="cls-3" d="M1028.87,46.73l-.54-4.78-4.91.07-.57,4.79-2.77,0,2.84-25,5.88-.08,2.87,24.94Zm-5.16-7.23,4.34-.06-1.72-14.89-.94,0Z" transform="translate(0.11 0.01)"/><path class="cls-3" d="M1041.21,21.57a4.66,4.66,0,0,1,1.77.28,3.14,3.14,0,0,1,1.19.82,3.23,3.23,0,0,1,.65,1.21,4.76,4.76,0,0,1,.22,1.49v1.76a4.43,4.43,0,0,1-.6,2.55,3,3,0,0,1-1.55,1.19,3.13,3.13,0,0,1,1.55,1.18,4.34,4.34,0,0,1,.6,2.53v8.07a4.54,4.54,0,0,1-.31,1.79,3.1,3.1,0,0,1-.82,1.2,3.33,3.33,0,0,1-1.22.68,5.33,5.33,0,0,1-1.48.24l-5.35.07v-25Zm1.07,3.84a1.13,1.13,0,0,0-.24-.75,1,1,0,0,0-.83-.32l-2.59,0v5.19l1.87,0a1.7,1.7,0,0,0,1.26-.54,2,2,0,0,0,.53-1.47Zm0,8.86a1.94,1.94,0,0,0-.53-1.46,1.73,1.73,0,0,0-1.26-.5l-1.87,0V43.82l2.59,0a1.17,1.17,0,0,0,.76-.24,1,1,0,0,0,.31-.85Z" transform="translate(0.11 0.01)"/><path class="cls-3" d="M1057.44,46.33l-.54-4.78-4.91.07-.56,4.8-2.77,0,2.84-25,5.87-.08,2.87,24.94Zm-5.16-7.24,4.34-.06-1.74-14.88H1054Z" transform="translate(0.11 0.01)"/><path class="cls-3" d="M1078,20.91v2.77l-5.56.63V46.52l-2.76.32v-25Z" transform="translate(0.11 0.01)"/><path class="cls-3" d="M1090.35,19.5v2.78l-5.52.62v5.15l4.15-.47v2.81l-4.15.47V42.34l5.52-.63v2.78l-8.28.94v-25Z" transform="translate(0.11 0.01)"/><path class="cls-3" d="M1103.94,31.17a4.91,4.91,0,0,1-.31,1.82,3.44,3.44,0,0,1-.84,1.28,3.88,3.88,0,0,1-1.24.8,4.77,4.77,0,0,1-1.48.39l-2.55.29v7.92l-2.76.31V19l5.31-.6a4.41,4.41,0,0,1,1.77.1,2.86,2.86,0,0,1,1.2.7,2.56,2.56,0,0,1,.68,1.14,4.94,4.94,0,0,1,.22,1.47Zm-2.8-9a1.09,1.09,0,0,0-.24-.73.85.85,0,0,0-.83-.23l-2.55.29V33l2.55-.29a1.27,1.27,0,0,0,.76-.32,1.09,1.09,0,0,0,.31-.88Z" transform="translate(0.11 0.01)"/><path class="cls-3" d="M1114.26,16.61a4.65,4.65,0,0,1,1.78.1,2.71,2.71,0,0,1,1.18.69,2.77,2.77,0,0,1,.66,1.15,4.63,4.63,0,0,1,.21,1.47V37.67a4.86,4.86,0,0,1-.21,1.52,3.72,3.72,0,0,1-.66,1.3,3.6,3.6,0,0,1-1.18,1,5.26,5.26,0,0,1-1.78.5l-2.11.25a4.59,4.59,0,0,1-1.77-.11,2.65,2.65,0,0,1-1.19-.69,3.17,3.17,0,0,1-.67-1.15,5.29,5.29,0,0,1-.21-1.48V21.09a5.5,5.5,0,0,1,.21-1.51,4,4,0,0,1,.67-1.3,3.42,3.42,0,0,1,1.19-1,4.75,4.75,0,0,1,1.77-.51Zm0,22.64a1.11,1.11,0,0,0,.83-.41,1.4,1.4,0,0,0,.25-.79V20.3a1.06,1.06,0,0,0-.25-.72.89.89,0,0,0-.83-.24l-2.11.24a1.13,1.13,0,0,0-.85.42,1.42,1.42,0,0,0-.23.78V38.5a1.23,1.23,0,0,0,.23.72.87.87,0,0,0,.85.24Z" transform="translate(0.11 0.01)"/><path class="cls-3" d="M1132.19,14.74v25l-2.76.32v-12l-1.58.18-2.72,12.26-2.83.32,2.76-12.44a3.07,3.07,0,0,1-1.73-1,3.59,3.59,0,0,1-.67-2.41V19.64a5.16,5.16,0,0,1,.2-1.52,4.23,4.23,0,0,1,.67-1.3,3.54,3.54,0,0,1,1.19-1,4.94,4.94,0,0,1,1.77-.51Zm-2.76,3.09-2.94.33a1.14,1.14,0,0,0-.85.43,1.42,1.42,0,0,0-.23.77v5.33a.94.94,0,0,0,.32.8,1.14,1.14,0,0,0,.76.16l2.94-.33Z" transform="translate(0.11 0.01)"/><path class="cls-3" d="M1154,12.26v25l-2.76.31V26.77l.36-11.74-1,.11L1147.9,31.9l-4.59.52-2.69-16.14-1,.11.35,11.66v10.8l-2.76.32v-25l5.62-.65,2.52,16.21.5-.06,2.51-16.77Z" transform="translate(0.11 0.01)"/><polyline class="cls-1" points="172.31 37.64 170.08 38.05 192.03 155.75 194.25 155.34"/><polyline class="cls-2" points="179.77 77.69 183.17 81.14 193.1 88.24 198.29 94.91 187.61 61.84 175.22 41.36 172.83 40.47"/><polyline class="cls-1" points="389.54 36.47 387.27 36.47 387.86 156.2 390.12 156.19"/><polyline class="cls-2" points="389.73 77.21 392.46 81.21 400.97 89.97 404.88 97.46 400.28 63.01 391.74 40.65 389.55 39.35"/><polyline class="cls-1" points="1406.17 36.53 1403.91 36.33 1393.51 155.61 1395.76 155.81"/><polyline class="cls-2" points="1402.62 77.11 1404.97 81.35 1412.64 90.85 1415.85 98.67 1414.42 63.95 1407.97 40.89 1405.91 39.4"/><polyline class="cls-1" points="1728.15 36.7 1724.35 35.31 1707.32 160.77 1711.12 162.16"/><polyline class="cls-2" points="1722.35 79.39 1726.33 85.25 1739.29 99.64 1744.74 109.88 1742.19 71.05 1731.22 42.42 1727.73 39.71"/><path class="cls-1" d="M483.87,18.51l-2.93.42L511.64,179l2.93-.42" transform="translate(0.11 0.01)"/><path class="cls-2" d="M492.57,63.76c2.79-.32,8.28-.88,15.12-1.27,10-.57,19.76,6,28.09,5.12s19.36-8.1,19.36-8.1l-6-35.42A64.59,64.59,0,0,1,530.33,29c-10.25,1-16.62-3.33-23.34-6.19-5.49-2.34-18.07-1.51-22.51-1.12" transform="translate(0.11 0.01)"/><path class="cls-1" d="M822.26,19.38l-2,.11-5.21,161.28,2-.1" transform="translate(0.11 0.01)"/><path class="cls-2" d="M820.8,65c1.88,0,5.58,0,10.14.34,6.67.5,12,8,17.66,8s14-6,14-6l1.68-35.6a32.46,32.46,0,0,1-13.15,2.87c-6.9-.1-10.4-5-14.37-8.58-3.23-2.89-11.64-3.4-14.62-3.48" transform="translate(0.11 0.01)"/><path class="cls-1" d="M1285.14,10.79l-2.61-.25-13.92,161.77,2.62.24" transform="translate(0.11 0.01)"/><path class="cls-2" d="M1281.23,56.52c2.47.31,7.32,1,13.28,2.14,8.71,1.67,15.42,10.2,22.78,11.2s18.63-3.53,18.63-3.53l3.76-35.62a52,52,0,0,1-17.36.58c-9-1.31-13.4-6.92-18.44-11.18-4.12-3.49-15.11-5.49-19-6.1" transform="translate(0.11 0.01)"/><path class="cls-1" d="M1524.88,41.27l-1.55,0,12.31,164.82,1.54,0" transform="translate(0.11 0.01)"/><path class="cls-2" d="M1528.37,87.86a78.53,78.53,0,0,1,8,1.1c5.26,1,10.23,9.08,14.62,9.5s10.36-5.07,10.36-5.07L1559,57.05a17.78,17.78,0,0,1-10,2c-5.41-.6-8.65-5.92-12.11-9.83-2.82-3.2-9.45-4.34-11.79-4.64" transform="translate(0.11 0.01)"/></svg>