<svg id="Episod_7" data-name="Episod 7" xmlns="http://www.w3.org/2000/svg" xmlns:xlink="http://www.w3.org/1999/xlink" width="3788.09" height="441.83" viewBox="0 0 3788.09 441.83"><defs><style>.cls-1{fill:url(#linear-gradient);}.cls-2{fill:url(#linear-gradient-2);}.cls-3{fill:url(#linear-gradient-3);}.cls-4{fill:url(#linear-gradient-4);}.cls-5{fill:url(#linear-gradient-5);}.cls-6{fill:url(#linear-gradient-6);}.cls-7{fill:url(#linear-gradient-7);}.cls-8{fill:url(#linear-gradient-8);}.cls-9{fill:#3a322b;}.cls-10{fill:url(#linear-gradient-9);}.cls-11{fill:#453c34;}.cls-12{fill:#332c25;}.cls-13{fill:url(#linear-gradient-10);}.cls-14{fill:url(#linear-gradient-11);}.cls-15{fill:url(#linear-gradient-12);}.cls-16{fill:url(#linear-gradient-13);}.cls-17{fill:#927e6c;}.cls-18{fill:url(#linear-gradient-14);}.cls-19{fill:url(#linear-gradient-15);}.cls-20{fill:url(#linear-gradient-16);}.cls-21{fill:url(#linear-gradient-17);}.cls-22{fill:url(#linear-gradient-18);}.cls-23{fill:#53493e;}.cls-24{fill:url(#linear-gradient-19);}.cls-25{fill:url(#linear-gradient-20);}.cls-26{fill:url(#linear-gradient-21);}.cls-27{fill:url(#linear-gradient-22);}.cls-28{fill:url(#linear-gradient-23);}.cls-29{fill:url(#linear-gradient-24);}.cls-30{fill:url(#linear-gradient-25);}.cls-31{fill:url(#linear-gradient-26);}.cls-32{fill:url(#linear-gradient-27);}.cls-33{fill:#63564a;}.cls-34{fill:url(#linear-gradient-28);}.cls-35{fill:url(#linear-gradient-29);}.cls-36{fill:url(#linear-gradient-30);}.cls-37{fill:url(#linear-gradient-31);}.cls-38{fill:url(#linear-gradient-32);}.cls-39{fill:url(#linear-gradient-33);}.cls-40{fill:url(#linear-gradient-34);}.cls-41{fill:url(#linear-gradient-35);}.cls-42{fill:url(#linear-gradient-36);}.cls-43{fill:url(#linear-gradient-37);}.cls-44{fill:#4f453b;}.cls-45{fill:url(#linear-gradient-38);}.cls-46{fill:url(#linear-gradient-39);}.cls-47{fill:url(#linear-gradient-40);}.cls-48{fill:url(#linear-gradient-41);}.cls-49{fill:url(#linear-gradient-42);}.cls-50{fill:url(#linear-gradient-43);}.cls-51{fill:url(#linear-gradient-44);}.cls-52{fill:url(#linear-gradient-45);}.cls-53{fill:url(#linear-gradient-46);}</style><linearGradient id="linear-gradient" x1="1596.28" y1="473.31" x2="1596.28" y2="616.82" gradientTransform="matrix(2.55, 0, 0, -1, -3486.14, 700.88)" gradientUnits="userSpaceOnUse"><stop offset="0" stop-color="#3a322b"/><stop offset="0.05" stop-color="#706254"/><stop offset="0.5" stop-color="#5e5346"/><stop offset="1" stop-color="#a8917c"/></linearGradient><linearGradient id="linear-gradient-2" x1="280.08" y1="528.33" x2="280.08" y2="610.55" gradientTransform="translate(1696.11 700.88) rotate(180)" gradientUnits="userSpaceOnUse"><stop offset="0" stop-color="#3a322b"/><stop offset="0.09" stop-color="#4a4137"/><stop offset="1" stop-color="#927e6c"/></linearGradient><linearGradient id="linear-gradient-3" x1="440.54" y1="620.36" x2="488.01" y2="620.36" gradientTransform="translate(1696.11 700.88) rotate(180)" gradientUnits="userSpaceOnUse"><stop offset="0" stop-color="#927e6c"/><stop offset="0.08" stop-color="#5d5146"/><stop offset="0.29" stop-color="#7c6b5c"/><stop offset="0.71" stop-color="#4a4137"/><stop offset="1" stop-color="#927e6c"/></linearGradient><linearGradient id="linear-gradient-4" x1="447.64" y1="585.1" x2="496.4" y2="585.1" gradientTransform="translate(1696.11 700.88) rotate(180)" gradientUnits="userSpaceOnUse"><stop offset="0.01" stop-color="#5c5045"/><stop offset="0.96" stop-color="#4a4137"/><stop offset="1" stop-color="#3a322b"/></linearGradient><linearGradient id="linear-gradient-5" x1="1147.43" y1="330.83" x2="1147.43" y2="458.55" gradientTransform="translate(1742.63 1080) rotate(180)" gradientUnits="userSpaceOnUse"><stop offset="0" stop-color="#52483d"/><stop offset="1" stop-color="#3a322b"/></linearGradient><linearGradient id="linear-gradient-6" x1="1653.85" y1="347.34" x2="1653.85" y2="373.63" gradientTransform="translate(1696.11 700.88) rotate(180)" xlink:href="#linear-gradient-5"/><linearGradient id="linear-gradient-7" x1="260.78" y1="287.58" x2="260.78" y2="388.13" gradientTransform="translate(1696.11 700.88) rotate(180)" xlink:href="#linear-gradient-5"/><linearGradient id="linear-gradient-8" x1="767.92" y1="450.88" x2="767.92" y2="619.85" gradientTransform="translate(1742.63 1080) rotate(180)" gradientUnits="userSpaceOnUse"><stop offset="0" stop-color="#40372f"/><stop offset="0.01" stop-color="#736356"/><stop offset="0.95" stop-color="#827260"/><stop offset="0.98" stop-color="#4d4239"/></linearGradient><linearGradient id="linear-gradient-9" x1="55.41" y1="95.31" x2="55.41" y2="224.94" gradientUnits="userSpaceOnUse"><stop offset="0" stop-color="#3a322b"/><stop offset="1" stop-color="#5c5045"/></linearGradient><linearGradient id="linear-gradient-10" x1="1582.65" y1="618.16" x2="1582.65" y2="661.84" gradientTransform="translate(1696.11 700.88) rotate(180)" gradientUnits="userSpaceOnUse"><stop offset="0" stop-color="#3a322b"/><stop offset="0.05" stop-color="#5c5045"/><stop offset="0.5" stop-color="#4a4137"/><stop offset="1" stop-color="#927e6c"/></linearGradient><linearGradient id="linear-gradient-11" x1="1482.16" y1="473.31" x2="1482.16" y2="616.82" xlink:href="#linear-gradient-10"/><linearGradient id="linear-gradient-12" x1="749.23" y1="617.08" x2="749.23" y2="680.07" xlink:href="#linear-gradient-2"/><linearGradient id="linear-gradient-13" x1="543.25" y1="617.08" x2="543.25" y2="680.07" xlink:href="#linear-gradient-2"/><linearGradient id="linear-gradient-14" x1="1171.75" y1="465.65" x2="1171.75" y2="624.91" gradientTransform="translate(1696.11 700.88) rotate(180)" gradientUnits="userSpaceOnUse"><stop offset="0" stop-color="#3a322b"/><stop offset="0.06" stop-color="#78685a"/><stop offset="0.5" stop-color="#6e6051"/><stop offset="1" stop-color="#d2c8bd"/></linearGradient><linearGradient id="linear-gradient-15" x1="1065.95" y1="465.65" x2="1065.95" y2="624.91" xlink:href="#linear-gradient-14"/><linearGradient id="linear-gradient-16" x1="918.81" y1="465.65" x2="918.81" y2="624.91" xlink:href="#linear-gradient-14"/><linearGradient id="linear-gradient-17" x1="1264.21" y1="465.65" x2="1264.21" y2="624.91" xlink:href="#linear-gradient-14"/><linearGradient id="linear-gradient-18" x1="1442.09" y1="465.65" x2="1442.09" y2="624.91" xlink:href="#linear-gradient-14"/><linearGradient id="linear-gradient-19" x1="1571.64" y1="303.22" x2="1571.64" y2="450.88" gradientTransform="translate(1696.11 700.88) rotate(180)" gradientUnits="userSpaceOnUse"><stop offset="0" stop-color="#665a4c"/><stop offset="0.09" stop-color="#52483d"/><stop offset="0.8" stop-color="#63564a"/><stop offset="1" stop-color="#927e6c"/></linearGradient><linearGradient id="linear-gradient-20" x1="1519.52" y1="316.91" x2="1519.52" y2="393.81" gradientTransform="translate(1696.11 700.88) rotate(180)" gradientUnits="userSpaceOnUse"><stop offset="0" stop-color="#63564a"/><stop offset="0.43" stop-color="#53483d"/><stop offset="1" stop-color="#927e6c"/></linearGradient><linearGradient id="linear-gradient-21" x1="1626.17" y1="308.06" x2="1626.17" y2="393.81" xlink:href="#linear-gradient-20"/><linearGradient id="linear-gradient-22" x1="1623.45" y1="405.71" x2="1623.45" y2="443.61" xlink:href="#linear-gradient-20"/><linearGradient id="linear-gradient-23" x1="653.3" y1="450.88" x2="653.3" y2="617.08" gradientTransform="translate(1742.63 1080) rotate(180)" gradientUnits="userSpaceOnUse"><stop offset="0" stop-color="#3a322b"/><stop offset="0.01" stop-color="#5c5045"/><stop offset="0.95" stop-color="#4a4137"/><stop offset="0.98" stop-color="#3a322b"/></linearGradient><linearGradient id="linear-gradient-24" x1="266.88" y1="620.36" x2="314.35" y2="620.36" xlink:href="#linear-gradient-3"/><linearGradient id="linear-gradient-25" x1="265.04" y1="631.13" x2="316.19" y2="631.13" xlink:href="#linear-gradient-3"/><linearGradient id="linear-gradient-26" x1="438.7" y1="631.13" x2="489.85" y2="631.13" xlink:href="#linear-gradient-3"/><linearGradient id="linear-gradient-27" x1="288.97" y1="388.13" x2="288.97" y2="617.08" xlink:href="#linear-gradient-8"/><linearGradient id="linear-gradient-28" x1="615.44" y1="667.53" x2="615.44" y2="687.98" gradientTransform="translate(1696.11 700.88) rotate(180)" gradientUnits="userSpaceOnUse"><stop offset="0" stop-color="#4a4137"/><stop offset="1" stop-color="#927e6c"/></linearGradient><linearGradient id="linear-gradient-29" x1="1274.59" y1="648.36" x2="1405.87" y2="648.36" xlink:href="#linear-gradient-3"/><linearGradient id="linear-gradient-30" x1="1274.59" y1="677.68" x2="1405.87" y2="677.68" gradientTransform="translate(1742.63 1080) rotate(180)" gradientUnits="userSpaceOnUse"><stop offset="0" stop-color="#927e6c"/><stop offset="0.71" stop-color="#4a4137"/><stop offset="1" stop-color="#927e6c"/></linearGradient><linearGradient id="linear-gradient-31" x1="1340.23" y1="671.8" x2="1340.23" y2="683.57" gradientTransform="translate(1742.63 1080) rotate(180)" gradientUnits="userSpaceOnUse"><stop offset="0.32" stop-color="#927e6c" stop-opacity="0"/><stop offset="1" stop-color="#d2c8bd"/></linearGradient><linearGradient id="linear-gradient-32" x1="1274.34" y1="672.01" x2="1406.11" y2="672.01" gradientTransform="translate(1696.11 700.88) rotate(180)" gradientUnits="userSpaceOnUse"><stop offset="0" stop-color="#b09882"/><stop offset="0.08" stop-color="#a38f7a"/><stop offset="0.29" stop-color="#a38d79"/><stop offset="0.71" stop-color="#827261"/><stop offset="1" stop-color="#b59c86"/></linearGradient><linearGradient id="linear-gradient-33" x1="1456.22" y1="624.91" x2="1527.92" y2="624.91" xlink:href="#linear-gradient-3"/><linearGradient id="linear-gradient-34" x1="1456.22" y1="665.08" x2="1527.92" y2="665.08" xlink:href="#linear-gradient-3"/><linearGradient id="linear-gradient-35" x1="1492.07" y1="632.75" x2="1492.07" y2="695.15" gradientTransform="translate(1696.11 700.88) rotate(180)" gradientUnits="userSpaceOnUse"><stop offset="0.93" stop-color="#3b332c" stop-opacity="0"/><stop offset="1" stop-color="#3a322b"/></linearGradient><linearGradient id="linear-gradient-36" x1="1452.48" y1="382.6" x2="1531.1" y2="382.6" gradientTransform="matrix(1, 0, 0, -1, -1240.95, 765.2)" xlink:href="#linear-gradient-3"/><linearGradient id="linear-gradient-37" x1="1491.79" y1="386.08" x2="1491.79" y2="379.12" gradientTransform="matrix(1, 0, 0, -1, -1240.95, 765.2)" gradientUnits="userSpaceOnUse"><stop offset="0" stop-color="#3a322b" stop-opacity="0.9"/><stop offset="0.21" stop-color="#3a322b"/><stop offset="0.69" stop-color="#3b332c" stop-opacity="0"/></linearGradient><linearGradient id="linear-gradient-38" x1="2137.99" y1="329.43" x2="2137.99" y2="121.74" gradientUnits="userSpaceOnUse"><stop offset="0" stop-color="#806e5e"/><stop offset="0.98" stop-color="#806e5e"/><stop offset="1" stop-color="#53493e"/></linearGradient><linearGradient id="linear-gradient-39" x1="2140.02" y1="329.58" x2="2140.02" y2="122.43" gradientUnits="userSpaceOnUse"><stop offset="0" stop-color="#927e6c"/><stop offset="0.99" stop-color="#917d6b"/><stop offset="1" stop-color="#53493e"/></linearGradient><linearGradient id="linear-gradient-40" x1="2138.19" y1="121.74" x2="2138.19" y2="110.23" gradientUnits="userSpaceOnUse"><stop offset="0" stop-color="#63564a"/><stop offset="1" stop-color="#c5bbb0"/></linearGradient><linearGradient id="linear-gradient-41" x1="2797.62" y1="329.43" x2="2797.62" y2="121.74" xlink:href="#linear-gradient-38"/><linearGradient id="linear-gradient-42" x1="2799.65" y1="329.58" x2="2799.65" y2="122.43" xlink:href="#linear-gradient-39"/><linearGradient id="linear-gradient-43" x1="2797.81" y1="121.74" x2="2797.81" y2="110.23" xlink:href="#linear-gradient-40"/><linearGradient id="linear-gradient-44" x1="3457.25" y1="329.43" x2="3457.25" y2="121.74" xlink:href="#linear-gradient-38"/><linearGradient id="linear-gradient-45" x1="3459.27" y1="329.58" x2="3459.27" y2="122.43" xlink:href="#linear-gradient-39"/><linearGradient id="linear-gradient-46" x1="3457.44" y1="121.74" x2="3457.44" y2="110.23" xlink:href="#linear-gradient-40"/></defs><g id="Loco"><rect class="cls-1" x="317.5" y="75.97" width="527.69" height="179.62"/><rect class="cls-2" x="1248.47" y="90.33" width="335.13" height="82.22"/><rect class="cls-3" x="1208.1" y="70.71" width="47.47" height="19.62"/><rect class="cls-4" x="1199.71" y="83.03" width="48.76" height="65.49"/><path class="cls-5" d="M111.63,623.52H328.38a40.73,40.73,0,0,1,25.64,0H549.29a40.73,40.73,0,0,1,25.64,0H881.74v5.6H1101.8l-53.91,58.6h10.36v23.63h9.26v3.37h6.66v2.21h30.42v-8.32h2.61v24h-2.61v-8.31h-30.42v2.21h-6.66v3h-9.26v19.65h-841v-57.3H189.5V634.72H83.19v-11.2Zm482.19,64.2h97.31v-53h-99a40.7,40.7,0,0,1,1.64,53Zm-220.9,0H398V648.37h43.44v39.35h88.92a40.7,40.7,0,0,1,1.65-53H371.28a40.68,40.68,0,0,1,1.64,53Zm-80.15,0h16.71a40.7,40.7,0,0,1,1.65-53H292.78v53Z" transform="translate(-46.52 -379.12)"/><polygon class="cls-6" points="6.91 329.5 6.91 337.81 16.55 337.81 16.55 335.61 36.27 335.61 36.27 332.64 43.9 332.64 43.9 327.25 80.22 327.25 80.22 352.44 43.9 352.44 43.9 350.81 36.27 350.81 36.27 347.44 16.55 347.44 16.55 345.23 6.91 345.23 6.91 353.55 4.29 353.55 4.29 345.23 4.29 337.81 4.29 329.5 6.91 329.5"/><polygon class="cls-7" points="1064.05 329.5 1064.05 337.81 1082.14 337.81 1082.14 335.61 1101.88 335.61 1101.88 332.64 1110.02 332.64 1110.02 327.24 1110.02 312.75 1701.82 312.75 1701.82 327.24 1758.3 327.24 1758.3 332.24 1768.78 332.24 1768.78 335.61 1788.51 335.61 1788.51 337.81 1806.61 337.81 1806.61 329.5 1809.21 329.5 1809.21 337.81 1809.21 345.24 1809.21 353.55 1806.61 353.55 1806.61 345.24 1788.51 345.24 1788.51 347.44 1768.78 347.44 1768.78 350.4 1758.3 350.4 1758.3 375.69 1287.84 375.69 1287.84 413.31 1186.44 413.31 1186.44 375.69 1110.02 375.69 1110.02 350.81 1101.88 350.81 1101.88 347.44 1082.14 347.44 1082.14 345.23 1064.05 345.23 1064.05 353.55 1061.43 353.55 1061.43 345.23 1061.43 337.81 1061.43 329.5 1064.05 329.5"/><path class="cls-8" d="M1067.88,460.15v169H881.55v-169Zm-84.49,61a12,12,0,0,0,12,12h38.86a12,12,0,0,0,12-12V478.19a12,12,0,0,0-12-12H995.39a12,12,0,0,0-12,12Zm-80.93,0a12,12,0,0,0,12,12h38.86a12,12,0,0,0,12-12V478.19a12,12,0,0,0-12-12H914.46a12,12,0,0,0-12,12Z" transform="translate(-46.52 -379.12)"/><rect class="cls-9" x="1064.28" y="87.07" width="41.78" height="162.93"/><ellipse class="cls-10" cx="55.41" cy="160.12" rx="55.41" ry="64.82"/><rect class="cls-11" x="101.48" y="130.86" width="8.93" height="8.93"/><rect class="cls-11" x="101.48" y="188.04" width="8.93" height="8.93"/><path class="cls-12" d="M95.37,466.48v-7.74l-3.26-12.21,25.28-3.37L115.24,451h4.9c.77,4.64-3.1,8.51-3.1,8.51v7l-6.8,5.13-2.44,1.84v5.42l7.69,6.19,4.75,4.64,19.25,6.2h15.08l12.83,4.64-21.72,7.74h-17.8L124,518.34V530l-6.2,33.28-7.74,15.49-7.74,25.54-1.55,4.65,17,3.09.78,3.87H90L93,581.82l-3.09-7,3.87-17.81L93,547,90,536.15V516l-3.87-13.16V477.32Z" transform="translate(-46.52 -379.12)"/><rect class="cls-13" x="94.07" y="39.05" width="38.77" height="43.68"/><rect class="cls-14" x="110.41" y="75.97" width="207.09" height="179.62"/><rect class="cls-15" x="829.49" y="20.81" width="234.79" height="62.99"/><rect class="cls-16" x="1099.46" y="20.81" width="106.8" height="62.99"/><rect class="cls-17" x="30.41" y="236.12" width="804.81" height="8.28"/><rect class="cls-17" x="644.17" y="145.43" width="3.24" height="94.83"/><rect class="cls-17" x="450.15" y="145.43" width="3.24" height="94.83"/><rect class="cls-18" x="520.91" y="75.97" width="6.9" height="159.27"/><rect class="cls-19" x="626.71" y="75.97" width="6.9" height="159.27"/><rect class="cls-20" x="773.85" y="75.97" width="6.9" height="159.27"/><rect class="cls-21" x="428.45" y="75.97" width="6.9" height="159.27"/><rect class="cls-22" x="250.57" y="75.97" width="6.9" height="159.27"/><rect class="cls-17" x="259.69" y="145.43" width="3.24" height="94.83"/><rect class="cls-17" x="66.7" y="145.43" width="3.24" height="94.83"/><circle class="cls-23" cx="656.73" cy="370.04" r="57.3"/><circle class="cls-23" cx="787.89" cy="370.04" r="57.3"/><circle class="cls-23" cx="529.01" cy="370.04" r="57.3"/><circle class="cls-23" cx="397.85" cy="370.04" r="57.3"/><circle class="cls-23" cx="264.61" cy="370.04" r="57.3"/><rect class="cls-24" x="74.77" y="250" width="99.41" height="147.66"/><rect class="cls-25" x="174.18" y="307.07" width="4.83" height="76.9"/><rect class="cls-26" x="65.11" y="307.07" width="9.66" height="85.75"/><rect class="cls-27" x="70.56" y="257.27" width="4.21" height="37.9"/><rect class="cls-17" x="835.03" y="250" width="186.33" height="8.3"/><path class="cls-28" d="M1110.8,462.92v166.2h-42.93V462.92Zm-36.89,59.27a5.35,5.35,0,0,0,5.33,5.33h21.33a5.35,5.35,0,0,0,5.33-5.33v-44.6a5.35,5.35,0,0,0-5.33-5.33h-21.33a5.35,5.35,0,0,0-5.33,5.33Z" transform="translate(-46.52 -379.12)"/><rect class="cls-29" x="1381.76" y="70.71" width="47.47" height="19.62"/><rect class="cls-30" x="1379.92" y="68.08" width="51.15" height="3.33"/><rect class="cls-31" x="1206.26" y="68.08" width="51.15" height="3.33"/><path class="cls-32" d="M1246.23,462.92v63h337.18a51.45,51.45,0,0,1,51.45,51.45h119.87V691.87H1152.59V462.92Z" transform="translate(-46.52 -379.12)"/><path class="cls-33" d="M782.57,738.77A52.88,52.88,0,1,1,824,801,52.88,52.88,0,0,1,782.57,738.77ZM836,791.93l-2.19-24.74a18.61,18.61,0,0,1-3-.32,17.8,17.8,0,0,1-2.64-.76l-11.54,22A42.65,42.65,0,0,0,836,791.93Zm-13.28-67a27.09,27.09,0,0,0-8.51,6.52l7.2,5.2a18.11,18.11,0,0,1,4.42-3.37ZM811.3,735.51a26.69,26.69,0,0,0-3.45,10l8.82.48c0-.12,0-.24.05-.35a17.77,17.77,0,0,1,1.77-4.93Zm19.21-4a17.48,17.48,0,0,1,5-.38l4.89-24.37a42.57,42.57,0,0,0-18.52,1.46Zm14.74-23.78-4.89,24.37a18.05,18.05,0,0,1,4.3,2.16L862,716.41A42.58,42.58,0,0,0,845.25,707.77Zm20.33,12.08-17.24,17.83a18.41,18.41,0,0,1,2.75,4.56l24.23-5.69A43.16,43.16,0,0,0,865.58,719.85Zm10.91,21.55-24.16,5.68a17.85,17.85,0,0,1-.23,5.63l-.06.22,23.41,8.29c.35-1.19.66-2.41.91-3.65A42.33,42.33,0,0,0,876.49,741.4Zm-26.2,16.34a17.9,17.9,0,0,1-2.81,3.84l15.25,19.66a42.65,42.65,0,0,0,11-15.2Zm-6.71,7a17.85,17.85,0,0,1-4.8,2l2.2,24.8a42.79,42.79,0,0,0,17.83-7.15ZM812.27,785.8l11.55-22a17.77,17.77,0,0,1-3.65-3.54l-21.61,12.29A42.86,42.86,0,0,0,812.27,785.8Zm-16.18-17.61,21.59-12.28a18,18,0,0,1-1.22-4.95l-24.83-1.34A42.34,42.34,0,0,0,796.09,768.19Z" transform="translate(-46.52 -379.12)"/><circle class="cls-23" cx="1162.51" cy="388.59" r="40.32"/><path class="cls-33" d="M651.4,738.77A52.88,52.88,0,1,1,692.85,801,52.88,52.88,0,0,1,651.4,738.77Zm53.44,53.16-2.19-24.74a18.61,18.61,0,0,1-2.95-.32,17.8,17.8,0,0,1-2.64-.76l-11.54,22a42.65,42.65,0,0,0,19.32,3.81Zm-13.28-67a27.09,27.09,0,0,0-8.51,6.52l7.2,5.2a18.11,18.11,0,0,1,4.42-3.37Zm-11.43,10.57a26.69,26.69,0,0,0-3.45,10l8.82.48c0-.12,0-.24,0-.35a17.77,17.77,0,0,1,1.77-4.93Zm19.21-4a17.48,17.48,0,0,1,5-.38l4.89-24.37a42.51,42.51,0,0,0-18.51,1.46Zm14.75-23.78-4.89,24.37a18.05,18.05,0,0,1,4.3,2.16l17.3-17.89A42.58,42.58,0,0,0,714.09,707.77Zm20.33,12.08-17.24,17.83a18.41,18.41,0,0,1,2.75,4.56l24.23-5.69A43.16,43.16,0,0,0,734.42,719.85Zm10.91,21.55-24.16,5.68a17.85,17.85,0,0,1-.23,5.63l-.06.22,23.41,8.29c.35-1.19.66-2.41.91-3.65A42.54,42.54,0,0,0,745.33,741.4Zm-26.2,16.34a17.9,17.9,0,0,1-2.81,3.84l15.25,19.66a42.65,42.65,0,0,0,11-15.2Zm-6.72,7a17.85,17.85,0,0,1-4.8,2l2.2,24.8a42.79,42.79,0,0,0,17.83-7.15Zm-31.3,21.11,11.55-22a17.77,17.77,0,0,1-3.65-3.54L667.4,772.52A42.86,42.86,0,0,0,681.11,785.8Zm-16.19-17.61,21.59-12.28a18,18,0,0,1-1.22-4.95l-24.83-1.34A42.48,42.48,0,0,0,664.92,768.19Z" transform="translate(-46.52 -379.12)"/><path class="cls-33" d="M524.17,738.77A52.88,52.88,0,1,1,565.62,801,52.88,52.88,0,0,1,524.17,738.77Zm53.44,53.16-2.19-24.74a18.61,18.61,0,0,1-2.95-.32,17.8,17.8,0,0,1-2.64-.76l-11.54,22a42.65,42.65,0,0,0,19.32,3.81Zm-13.28-67a27.09,27.09,0,0,0-8.51,6.52l7.2,5.2a18.11,18.11,0,0,1,4.42-3.37ZM552.9,735.51a26.69,26.69,0,0,0-3.45,10l8.82.48c0-.12,0-.24.05-.35a17.77,17.77,0,0,1,1.77-4.93Zm19.21-4a17.48,17.48,0,0,1,5-.38L582,706.8a42.51,42.51,0,0,0-18.51,1.46Zm14.75-23.78L582,732.14a18.05,18.05,0,0,1,4.3,2.16l17.3-17.89A42.65,42.65,0,0,0,586.86,707.77Zm20.32,12.08-17.24,17.83a18.41,18.41,0,0,1,2.75,4.56l24.23-5.69A42.91,42.91,0,0,0,607.18,719.85ZM618.1,741.4l-24.16,5.68a17.85,17.85,0,0,1-.23,5.63l-.06.22,23.41,8.29c.35-1.19.66-2.41.91-3.65A42.54,42.54,0,0,0,618.1,741.4Zm-26.2,16.34a17.9,17.9,0,0,1-2.81,3.84l15.25,19.66a42.65,42.65,0,0,0,11-15.2Zm-6.72,7a17.85,17.85,0,0,1-4.8,2l2.2,24.8a42.79,42.79,0,0,0,17.83-7.15Zm-31.3,21.11,11.55-22a17.77,17.77,0,0,1-3.65-3.54l-21.61,12.29A42.76,42.76,0,0,0,553.88,785.8Zm-16.19-17.61,21.59-12.28a18,18,0,0,1-1.22-4.95l-24.83-1.34A42.48,42.48,0,0,0,537.69,768.19Z" transform="translate(-46.52 -379.12)"/><path class="cls-33" d="M393.56,738.77A52.88,52.88,0,1,1,435,801,52.88,52.88,0,0,1,393.56,738.77ZM447,791.93l-2.19-24.74a18.61,18.61,0,0,1-2.95-.32,17.8,17.8,0,0,1-2.64-.76l-11.54,22A42.65,42.65,0,0,0,447,791.93Zm-13.28-67a27.09,27.09,0,0,0-8.51,6.52l7.2,5.2a18.11,18.11,0,0,1,4.42-3.37Zm-11.43,10.57a26.69,26.69,0,0,0-3.45,10l8.82.48c0-.12,0-.24,0-.35a17.77,17.77,0,0,1,1.77-4.93Zm19.21-4a17.48,17.48,0,0,1,5-.38l4.89-24.37a42.51,42.51,0,0,0-18.51,1.46Zm14.75-23.78-4.89,24.37a18.05,18.05,0,0,1,4.3,2.16L473,716.41A42.58,42.58,0,0,0,456.25,707.77Zm20.32,12.08-17.24,17.83a18.41,18.41,0,0,1,2.75,4.56l24.23-5.69A42.91,42.91,0,0,0,476.57,719.85Zm10.92,21.55-24.16,5.68a17.85,17.85,0,0,1-.23,5.63l-.06.22,23.41,8.29c.35-1.19.66-2.41.91-3.65A42.54,42.54,0,0,0,487.49,741.4Zm-26.2,16.34a17.9,17.9,0,0,1-2.81,3.84l15.25,19.66a42.65,42.65,0,0,0,11-15.2Zm-6.72,7a17.85,17.85,0,0,1-4.8,2l2.2,24.8a42.79,42.79,0,0,0,17.83-7.15Zm-31.3,21.11,11.55-22a17.77,17.77,0,0,1-3.65-3.54l-21.61,12.29A42.76,42.76,0,0,0,423.27,785.8Zm-16.19-17.61,21.59-12.28a18,18,0,0,1-1.22-4.95l-24.83-1.34A42.48,42.48,0,0,0,407.08,768.19Z" transform="translate(-46.52 -379.12)"/><path class="cls-33" d="M259.29,738.77A52.88,52.88,0,1,1,300.74,801,52.88,52.88,0,0,1,259.29,738.77Zm53.44,53.16-2.19-24.74a18.61,18.61,0,0,1-3-.32,17.8,17.8,0,0,1-2.64-.76l-11.54,22a42.65,42.65,0,0,0,19.32,3.81Zm-13.28-67a27.09,27.09,0,0,0-8.51,6.52l7.2,5.2a18.11,18.11,0,0,1,4.42-3.37ZM288,735.51a26.69,26.69,0,0,0-3.45,10l8.82.48c0-.12,0-.24.05-.35a17.77,17.77,0,0,1,1.77-4.93Zm19.21-4a17.48,17.48,0,0,1,5-.38l4.89-24.37a42.51,42.51,0,0,0-18.51,1.46ZM322,707.77l-4.89,24.37a18.05,18.05,0,0,1,4.3,2.16l17.3-17.89A42.65,42.65,0,0,0,322,707.77Zm20.32,12.08-17.24,17.83a18.41,18.41,0,0,1,2.75,4.56L352,736.55A42.91,42.91,0,0,0,342.3,719.85Zm10.92,21.55-24.16,5.68a17.85,17.85,0,0,1-.23,5.63l-.06.22,23.41,8.29c.35-1.19.66-2.41.91-3.65A42.54,42.54,0,0,0,353.22,741.4ZM327,757.74a17.9,17.9,0,0,1-2.81,3.84l15.25,19.66a42.65,42.65,0,0,0,11-15.2Zm-6.72,7a17.85,17.85,0,0,1-4.8,2l2.2,24.8a42.79,42.79,0,0,0,17.83-7.15ZM289,785.8l11.55-22a17.77,17.77,0,0,1-3.65-3.54l-21.61,12.29A42.76,42.76,0,0,0,289,785.8Zm-16.19-17.61,21.59-12.28a18,18,0,0,1-1.22-4.95l-24.83-1.34A42.48,42.48,0,0,0,272.81,768.19Z" transform="translate(-46.52 -379.12)"/><path class="cls-33" d="M1209,733.3a34.41,34.41,0,1,1-34.41,34.41A34.41,34.41,0,0,1,1209,733.3Zm0,62.19a27.78,27.78,0,1,0-27.78-27.78A27.78,27.78,0,0,0,1209,795.49Z" transform="translate(-46.52 -379.12)"/><path class="cls-33" d="M1203,782.71h12a5.51,5.51,0,0,0,5.51-5.51v-19a5.51,5.51,0,0,0-5.51-5.51h-12a5.51,5.51,0,0,0-5.51,5.51v19A5.51,5.51,0,0,0,1203,782.71Z" transform="translate(-46.52 -379.12)"/><circle class="cls-23" cx="1162.51" cy="388.59" r="9"/><circle class="cls-23" cx="1309.01" cy="388.59" r="40.32"/><path class="cls-33" d="M1355.53,733.3a34.41,34.41,0,1,1-34.41,34.41A34.41,34.41,0,0,1,1355.53,733.3Zm0,62.19a27.78,27.78,0,1,0-27.78-27.78A27.78,27.78,0,0,0,1355.53,795.49Z" transform="translate(-46.52 -379.12)"/><path class="cls-33" d="M1349.54,782.71h12a5.51,5.51,0,0,0,5.51-5.51v-19a5.51,5.51,0,0,0-5.51-5.51h-12a5.51,5.51,0,0,0-5.51,5.51v19A5.5,5.5,0,0,0,1349.54,782.71Z" transform="translate(-46.52 -379.12)"/><circle class="cls-23" cx="1309.01" cy="388.59" r="9"/><rect class="cls-23" x="1538.95" y="344.96" width="101.39" height="68.34"/><circle class="cls-23" cx="1515.01" cy="388.59" r="40.32"/><path class="cls-33" d="M1561.53,733.3a34.41,34.41,0,1,1-34.41,34.41A34.41,34.41,0,0,1,1561.53,733.3Zm0,62.19a27.78,27.78,0,1,0-27.78-27.78A27.78,27.78,0,0,0,1561.53,795.49Z" transform="translate(-46.52 -379.12)"/><path class="cls-33" d="M1555.54,782.71h12a5.51,5.51,0,0,0,5.51-5.51v-19a5.51,5.51,0,0,0-5.51-5.51h-12a5.51,5.51,0,0,0-5.51,5.51v19A5.5,5.5,0,0,0,1555.54,782.71Z" transform="translate(-46.52 -379.12)"/><circle class="cls-23" cx="1515.01" cy="388.59" r="9"/><circle class="cls-23" cx="1661.5" cy="388.59" r="40.32"/><path class="cls-33" d="M1708,733.3a34.41,34.41,0,1,1-34.41,34.41A34.41,34.41,0,0,1,1708,733.3Zm0,62.19a27.78,27.78,0,1,0-27.78-27.78A27.78,27.78,0,0,0,1708,795.49Z" transform="translate(-46.52 -379.12)"/><path class="cls-33" d="M1702,782.71h12a5.51,5.51,0,0,0,5.51-5.51v-19a5.51,5.51,0,0,0-5.51-5.51h-12a5.51,5.51,0,0,0-5.51,5.51v19A5.51,5.51,0,0,0,1702,782.71Z" transform="translate(-46.52 -379.12)"/><circle class="cls-23" cx="1661.5" cy="388.59" r="9"/><rect class="cls-34" x="1055.28" y="12.9" width="50.78" height="20.45"/><path class="cls-9" d="M92.24,676.79h6.31a13.07,13.07,0,0,1,3.39,25.7v4.2h-3.5V703H92.25V676.79Z" transform="translate(-46.52 -379.12)"/><rect class="cls-35" x="290.24" y="29.08" width="131.28" height="46.89"/><path class="cls-36" d="M355.42,396.43h93.95c10.31,0,18.66,5.27,18.66,11.77H336.76C336.77,401.69,345.13,396.43,355.42,396.43Z" transform="translate(-46.52 -379.12)"/><path class="cls-37" d="M355.42,396.43h93.95c10.31,0,18.66,5.27,18.66,11.77H336.76C336.77,401.69,345.13,396.43,355.42,396.43Z" transform="translate(-46.52 -379.12)"/><polygon class="cls-38" points="421.77 30.3 421.77 27.46 290 27.46 290 30.3 421.77 30.3"/><rect class="cls-17" x="65.11" y="149.88" width="770.11" height="4.14"/><rect class="cls-17" x="65.11" y="188.36" width="770.11" height="4.14"/><g id="Layer_5" data-name="Layer 5"><rect class="cls-17" x="287.72" y="360.85" width="532.75" height="9.63"/><rect class="cls-17" x="179.01" y="337.12" width="176.93" height="8.4"/><rect class="cls-17" x="179.01" y="373.46" width="94.01" height="5.36"/><rect class="cls-17" x="266.49" y="303.75" width="8.15" height="76.39"/><rect class="cls-17" x="179.01" y="311.94" width="94.01" height="2.68"/><rect class="cls-17" x="267.48" y="299.54" width="114.79" height="5.54"/><circle class="cls-17" cx="819.19" cy="365.66" r="10.01"/><circle class="cls-17" cx="686.76" cy="365.66" r="10.01"/><circle class="cls-17" cx="554.32" cy="365.66" r="10.01"/><circle class="cls-17" cx="421.89" cy="365.66" r="10.01"/><circle class="cls-17" cx="521.7" cy="385.67" r="10.01"/><circle class="cls-17" cx="357.6" cy="341.94" r="10.01"/><circle class="cls-17" cx="289.46" cy="365.66" r="10.01"/><rect class="cls-17" x="484.37" y="662.84" width="7.06" height="164.1" transform="translate(-401.63 652.56) rotate(-75.56)"/><rect class="cls-17" x="249.04" y="331.93" width="40.42" height="20.01"/><rect class="cls-17" x="258.76" y="347.73" width="22.8" height="20.56"/><rect class="cls-17" x="364.88" y="272.11" width="12.8" height="31.64"/><rect class="cls-17" x="390.7" y="692.87" width="41.95" height="8.23" transform="translate(-431.76 459.97) rotate(-69.54)"/><rect class="cls-17" x="404.73" y="632.46" width="37.46" height="8.23" transform="translate(-367.49 431.72) rotate(-69.54)"/><rect class="cls-17" x="263.24" y="368.29" width="13.46" height="15.7"/></g><polygon class="cls-39" points="168.19 83.81 239.89 83.81 235.05 68.14 172.42 68.14 168.19 83.81"/><polygon class="cls-40" points="168.19 3.48 239.89 3.48 235.05 68.14 172.42 68.14 168.19 3.48"/><polygon class="cls-41" points="168.19 5.73 239.89 5.73 235.05 68.14 172.42 68.14 168.19 5.73"/><rect class="cls-42" x="211.53" y="379.12" width="78.61" height="6.97" rx="3.48" transform="translate(455.15 386.08) rotate(-180)"/><rect class="cls-43" x="211.53" y="379.12" width="78.61" height="6.97" rx="3.48" transform="translate(455.15 386.08) rotate(180)"/><path class="cls-12" d="M197.74,648.33v6.6l-3.05,8.12,9.65,7.11,5.07,3.55,3.56,7.11v26.9l-5.08,5.07-.51,3.56,2.54,3,7.61,18.78c-3,1.52-4.06,9.14-4.06,9.14l.51,7.1-2.54,16.25,2,4.56-1,5.59s7.1,6.6,5.07,8.12,4.07,31.47,4.07,31.47H208.14l-6.85-27.92-4.06-3-2.54-5.59-2.53-8.12-6.59-10.15L182.51,760,179,765.58l-3.55,8.63-5.59,4.06v9.64l-4.06,9.14-2,23.35H148l4.06-33,1-12.19.51-6.09-2-20.3,5.81-10.15-4.29-1.52,9.65-20.31,3-3.55-.5-5.58H161.7l-4.34.51-3.27-6.09-1-5.59,4.29-10.66,4.34-14.21,6.6-4.57,7.11-2a26.66,26.66,0,0,0,3-6.59l-3-2-.51-4.56,2.54-3.56-1.53-6.09,2.54-3h20.81l1,5.07Z" transform="translate(-46.52 -379.12)"/></g><g id="Coal"><polygon class="cls-44" points="2392.94 114.19 2322.18 85.5 2270.55 71.16 2173.02 93.15 2075.49 117.06 1996.12 100.8 1913.89 100.8 1873.73 118.01 1873.73 133.31 2392.94 133.31 2392.94 114.19"/></g><g id="Layer_18" data-name="Layer 18"><polygon class="cls-44" points="3725.5 129.19 3494.67 66.06 3394.05 65.07 3328.95 91.7 3202.69 131.16 3725.5 129.19"/></g><g id="Layer_19" data-name="Layer 19"><path class="cls-44" d="M2914.23,494.49c-5.92-1-96.67-30.58-96.67-30.58L2716.94,460l-108.63,37.84Z" transform="translate(-46.52 -379.12)"/></g><g id="CargoCart"><polygon class="cls-45" points="2428.79 329.43 1847.19 329.43 1847.19 121.74 2428.79 121.74 2428.79 329.43"/><rect class="cls-17" x="1995.18" y="460.95" width="7.3" height="286.51" transform="translate(86.84 1163.4) rotate(-43.52)"/><rect class="cls-46" x="2049.86" y="122.43" width="180.32" height="207.15"/><rect class="cls-17" x="2421.49" y="122.43" width="7.3" height="207.15"/><rect class="cls-17" x="1847.2" y="122.43" width="7.3" height="207.15"/><polygon class="cls-47" points="2432.18 110.23 1844.19 110.23 1844.19 121.74 2432.18 121.74 2432.18 110.23"/><rect class="cls-17" x="2368.97" y="460.95" width="7.3" height="286.51" transform="translate(3630.48 2297.05) rotate(-136.48)"/></g><g id="Bottom"><circle class="cls-23" cx="1976.6" cy="385.6" r="44"/><circle class="cls-23" cx="2300.05" cy="385.6" r="44"/><rect class="cls-23" x="1849.25" y="329.02" width="578.15" height="40"/><rect class="cls-23" x="1859.09" y="341.6" width="57" height="57"/><path class="cls-33" d="M2029.36,779.72h-12a5.51,5.51,0,0,1-5.51-5.51v-19a5.51,5.51,0,0,1,5.51-5.51h12a5.51,5.51,0,0,1,5.51,5.51v19A5.51,5.51,0,0,1,2029.36,779.72Z" transform="translate(-46.52 -379.12)"/><circle class="cls-23" cx="1976.85" cy="385.6" r="9"/><path class="cls-33" d="M2353.81,779.72h-12a5.51,5.51,0,0,1-5.51-5.51v-19a5.51,5.51,0,0,1,5.51-5.51h12a5.51,5.51,0,0,1,5.51,5.51v19A5.51,5.51,0,0,1,2353.81,779.72Z" transform="translate(-46.52 -379.12)"/><circle class="cls-23" cx="2301.3" cy="385.6" r="9"/><polygon class="cls-23" points="1835.36 332.31 1835.36 335.68 1823.03 335.68 1823.03 337.9 1811.83 337.9 1811.83 329.58 1809.22 329.58 1809.22 337.9 1809.21 337.9 1809.21 345.32 1809.22 345.32 1809.22 353.63 1811.83 353.63 1811.83 345.32 1823.03 345.32 1823.03 347.52 1835.36 347.52 1835.36 350.48 1856.57 350.48 1856.57 332.31 1835.36 332.31"/><polygon class="cls-23" points="2442.7 350.9 2442.7 347.53 2455.03 347.53 2455.03 345.31 2466.23 345.31 2466.23 353.63 2468.84 353.63 2468.84 345.31 2468.84 345.31 2468.84 337.89 2468.84 337.89 2468.84 329.58 2466.23 329.58 2466.23 337.89 2455.03 337.89 2455.03 335.69 2442.7 335.69 2442.7 332.73 2421.49 332.73 2421.49 350.9 2442.7 350.9"/></g><g id="CargoCart-2" data-name="CargoCart"><polygon class="cls-48" points="3088.42 329.43 2506.82 329.43 2506.82 121.74 3088.42 121.74 3088.42 329.43"/><rect class="cls-17" x="2654.81" y="460.95" width="7.3" height="286.51" transform="translate(268.16 1617.63) rotate(-43.52)"/><rect class="cls-49" x="2709.49" y="122.43" width="180.32" height="207.15"/><rect class="cls-17" x="3081.12" y="122.43" width="7.3" height="207.15"/><rect class="cls-17" x="2506.82" y="122.43" width="7.3" height="207.15"/><polygon class="cls-50" points="3091.81 110.23 2503.82 110.23 2503.82 121.74 3091.81 121.74 3091.81 110.23"/><rect class="cls-17" x="3028.6" y="460.95" width="7.3" height="286.51" transform="translate(4768.41 2751.28) rotate(-136.48)"/></g><g id="Bottom-2" data-name="Bottom"><circle class="cls-23" cx="2636.22" cy="385.6" r="44"/><circle class="cls-23" cx="2959.67" cy="385.6" r="44"/><rect class="cls-23" x="2508.87" y="329.02" width="578.15" height="40"/><rect class="cls-23" x="2518.71" y="341.6" width="57" height="57"/><path class="cls-33" d="M2689,779.72h-12a5.51,5.51,0,0,1-5.51-5.51v-19a5.51,5.51,0,0,1,5.51-5.51h12a5.51,5.51,0,0,1,5.51,5.51v19A5.51,5.51,0,0,1,2689,779.72Z" transform="translate(-46.52 -379.12)"/><circle class="cls-23" cx="2636.47" cy="385.6" r="9"/><path class="cls-33" d="M3013.43,779.72h-12a5.51,5.51,0,0,1-5.51-5.51v-19a5.51,5.51,0,0,1,5.51-5.51h12a5.51,5.51,0,0,1,5.51,5.51v19A5.51,5.51,0,0,1,3013.43,779.72Z" transform="translate(-46.52 -379.12)"/><circle class="cls-23" cx="2960.92" cy="385.6" r="9"/><polygon class="cls-23" points="2494.98 332.31 2494.98 335.68 2482.65 335.68 2482.65 337.9 2471.45 337.9 2471.45 329.58 2468.84 329.58 2468.84 337.9 2468.84 337.9 2468.84 345.32 2468.84 345.32 2468.84 353.63 2471.45 353.63 2471.45 345.32 2482.65 345.32 2482.65 347.52 2494.98 347.52 2494.98 350.48 2516.19 350.48 2516.19 332.31 2494.98 332.31"/><polygon class="cls-23" points="3102.33 350.9 3102.33 347.53 3114.66 347.53 3114.66 345.31 3125.86 345.31 3125.86 353.63 3128.47 353.63 3128.47 345.31 3128.47 345.31 3128.47 337.89 3128.47 337.89 3128.47 329.58 3125.86 329.58 3125.86 337.89 3114.66 337.89 3114.66 335.69 3102.33 335.69 3102.33 332.73 3081.12 332.73 3081.12 350.9 3102.33 350.9"/></g><g id="CargoCart-3" data-name="CargoCart"><polygon class="cls-51" points="3748.05 329.43 3166.45 329.43 3166.45 121.74 3748.05 121.74 3748.05 329.43"/><rect class="cls-17" x="3314.44" y="460.95" width="7.3" height="286.51" transform="translate(449.48 2071.86) rotate(-43.52)"/><rect class="cls-52" x="3369.11" y="122.43" width="180.32" height="207.15"/><rect class="cls-17" x="3740.74" y="122.43" width="7.3" height="207.15"/><rect class="cls-17" x="3166.45" y="122.43" width="7.3" height="207.15"/><polygon class="cls-53" points="3751.43 110.23 3163.45 110.23 3163.45 121.74 3751.43 121.74 3751.43 110.23"/><rect class="cls-17" x="3688.22" y="460.95" width="7.3" height="286.51" transform="translate(5906.35 3205.51) rotate(-136.48)"/></g><g id="Bottom-3" data-name="Bottom"><circle class="cls-23" cx="3295.85" cy="385.6" r="44"/><circle class="cls-23" cx="3619.3" cy="385.6" r="44"/><rect class="cls-23" x="3168.5" y="329.02" width="578.15" height="40"/><rect class="cls-23" x="3178.34" y="341.6" width="57" height="57"/><path class="cls-33" d="M3348.61,779.72h-12a5.51,5.51,0,0,1-5.51-5.51v-19a5.51,5.51,0,0,1,5.51-5.51h12a5.51,5.51,0,0,1,5.51,5.51v19A5.51,5.51,0,0,1,3348.61,779.72Z" transform="translate(-46.52 -379.12)"/><circle class="cls-23" cx="3296.1" cy="385.6" r="9"/><path class="cls-33" d="M3673.06,779.72h-12a5.51,5.51,0,0,1-5.51-5.51v-19a5.51,5.51,0,0,1,5.51-5.51h12a5.51,5.51,0,0,1,5.51,5.51v19A5.51,5.51,0,0,1,3673.06,779.72Z" transform="translate(-46.52 -379.12)"/><circle class="cls-23" cx="3620.55" cy="385.6" r="9"/><polygon class="cls-23" points="3154.61 332.31 3154.61 335.68 3142.28 335.68 3142.28 337.9 3131.08 337.9 3131.08 329.58 3128.47 329.58 3128.47 337.9 3128.47 337.9 3128.47 345.32 3128.47 345.32 3128.47 353.63 3131.08 353.63 3131.08 345.32 3142.28 345.32 3142.28 347.52 3154.61 347.52 3154.61 350.48 3175.82 350.48 3175.82 332.31 3154.61 332.31"/><polygon class="cls-23" points="3761.95 350.9 3761.95 347.53 3774.28 347.53 3774.28 345.31 3785.48 345.31 3785.48 353.63 3788.09 353.63 3788.09 345.31 3788.09 345.31 3788.09 337.89 3788.09 337.89 3788.09 329.58 3785.48 329.58 3785.48 337.89 3774.28 337.89 3774.28 335.69 3761.95 335.69 3761.95 332.73 3740.74 332.73 3740.74 350.9 3761.95 350.9"/></g><path class="cls-12" d="M813,818H784.19l4.25-5.68L787,808.57l-9.47-23.65,1-21.29,1.89-13.72-6.15-11.35v-6.62l-3.78-2.37h-9.94l-7.09,3.78-10.88,1.42-6.63.48-4.26-1.9v-3.78H743.5l4.73-4.26,4.73-4.26,5.68-5.2-2.37-8.51-.47-8.05,1.42-7.09-1-2.84L752.49,687h-3.31l-.95-3.31h-3.31l-2.36-3.31-.48-3.79,1.89-4.25L741.61,670V665.7h21.76l2.84,5.21a7.22,7.22,0,0,0,1.89,5.67l4.26-.94,3.31,4.26,12.3.47,4.26,4.73,4.26,6.62L796,695l3.32,1.9,5.2,7.09.47,6.15,1.42,4.26,4.26,7.57L813,735.25s-4.73,20.81-4.25,22.23-.48,17-.48,17,2.37,18.45,2.37,21.29,2.36,17,2.36,17Z" transform="translate(-46.52 -379.12)"/><path class="cls-12" d="M337.09,672.63l-19.22-6-3-4.2-3.6-7.2,1.2-6-12-3.6-8.41,3.6-4.2,3.6v6.31l4.2,8.11v5.4l-.6,5.4-7.2,6.61-2.41,9,6,6.6,2.4,12,1.8,4.8-2.4,11.41.6,14.41s3,3,3,5.41,1.2,12.61,1.2,12.61l.61,22.82,5.4,8.4s-1.2,9.7-.6,9.7,1.2,19.13,1.2,19.13h13.81V796.33l4.2-7.21-1.2-6s-1.8-4.21-1.8-7.21.6-10.81.6-10.81l1.8-9,10.21,17.42a54.32,54.32,0,0,1,3.6,6.6c.6,1.8,0,11.41,0,11.41l4.81,2.4,4.2,27H356.9l-6-27,6-6v-8.41l-6.6-19.21-3.6-18.62,2.4-8.4,7.8-4.81-3.6-16.21-3.6-9Z" transform="translate(-46.52 -379.12)"/></svg>