<svg width="103" height="21" viewBox="0 0 103 21" fill="none" xmlns="http://www.w3.org/2000/svg">
<path fill-rule="evenodd" clip-rule="evenodd" d="M88.12 5.72L90.69 3.05L97.94 2.86L100.42 4.19L102.04 6.29L102.23 13.35L100.51 15.92L98.32 17.55L90.6 17.74L88.4 16.02L84.97 14.97L24.99 13.82L18.88 20.02L5.25 20.5L0.480003 17.35L0 4.86L4.67001 0.57L18.69 0L24.41 6.29L85.07 7.44L88.12 5.72Z" fill="url(#paint0_linear)"/>
<path d="M94.6 6.1C92.2804 6.1 90.4 7.9804 90.4 10.3C90.4 12.6196 92.2804 14.5 94.6 14.5C96.9196 14.5 98.8 12.6196 98.8 10.3C98.8 7.9804 96.9196 6.1 94.6 6.1Z" fill="url(#paint1_radial)"/>
<path d="M11.73 3.53C7.99104 3.53 4.96001 6.56103 4.96001 10.3C4.96001 14.039 7.99104 17.07 11.73 17.07C15.469 17.07 18.5 14.039 18.5 10.3C18.5 6.56103 15.469 3.53 11.73 3.53Z" fill="url(#paint2_radial)"/>
<defs>
<linearGradient id="paint0_linear" x1="50.7232" y1="-1.4196" x2="53.0252" y2="56.1304" gradientUnits="userSpaceOnUse">
<stop offset="0.3" stop-color="#E3CFCC"/>
<stop offset="0.94" stop-color="#B07E6E"/>
</linearGradient>
<radialGradient id="paint1_radial" cx="0" cy="0" r="1" gradientUnits="userSpaceOnUse" gradientTransform="translate(92.165 13.4974) rotate(177.589) scale(4.1742)">
<stop stop-color="#DABDB9"/>
<stop offset="0.53" stop-color="#D8BBB7"/>
<stop offset="0.72" stop-color="#D1B5B1"/>
<stop offset="0.85" stop-color="#C6ABA7"/>
<stop offset="0.88" stop-color="#C2A8A4"/>
<stop offset="0.89" stop-color="#B79D98"/>
<stop offset="0.91" stop-color="#9E847D"/>
</radialGradient>
<radialGradient id="paint2_radial" cx="0" cy="0" r="1" gradientUnits="userSpaceOnUse" gradientTransform="translate(6493.19 -8149.58) rotate(180) scale(96.4048)">
<stop stop-color="#DABDB9"/>
<stop offset="0.53" stop-color="#D8BBB7"/>
<stop offset="0.72" stop-color="#D1B5B1"/>
<stop offset="0.85" stop-color="#C6ABA7"/>
<stop offset="0.88" stop-color="#C2A8A4"/>
<stop offset="0.89" stop-color="#B79D98"/>
<stop offset="0.91" stop-color="#9E847D"/>
</radialGradient>
</defs>
</svg>
