<svg id="Episod_3" data-name="Episod 3" xmlns="http://www.w3.org/2000/svg" width="5218.03" height="252.46" viewBox="0 0 5218.03 252.46"><defs><style>.cls-1{fill:#917d6b;}</style></defs><g id="Small"><path class="cls-1" d="M894.79,1002.72v-6.57h-2.07v6.57h-8.85V1001h-9.75v-2.34H862V996h1.1V972.76H839.31l-73.23-22.1H650.46l-20.38-33.17,66.37-40.42v-8.15l38.62-19.31V846l18.19-8.44-4-6.94-17.5,11.46h-3.32l-83.26,45.56-12.85,6.73L564.92,868l-.32,1.06L563.11,868l-16-5.43L519.36,883.7l1.51,16.3L515,913.57l2.86.7v36.39H499.72l-.4.13-.56-2.22V910.86h-6.25v37.71l.74,4.12-63.8,20.07H403.39V996H405v2.27H394V1001h-9.75v1.76h-8.85v-6.58h-2.06v6.58h0v5.86h0v6.57h2.06v-6.57h8.85v1.74H394v2.34h11v14.66h7.78v23.38h45v-23.38h15.62a34.78,34.78,0,1,0,64.44,0H729.14a34.78,34.78,0,1,0,64.44,0H862V1013h12.09v-2.66h9.75v-1.75h8.85v6.57h2.07v-6.57h0v-5.87ZM532.58,925.61V914.73l7.36-.79A37.61,37.61,0,0,0,532.58,925.61Zm-.85-35.07L539,894l14.41.61,7.24-4L558,882.05s-2.11-4.08-1.81-5.28c.21-.84,4.43-2.24,7-3l-.09.31,63,22H629l-9.21,4.83-5.74-3-11.76,4.53-7.54,2.11-7.62,2.73A37.82,37.82,0,0,0,554,904.37h0l-18.9-.45-6.33-6.34ZM522.38,929h9a37.64,37.64,0,0,0,.18,21.64h-9.22Z" transform="translate(2236.2 -822.76)"/><path class="cls-1" d="M-670.68,1002.72v-6.57h-2.07v6.57h-8.85V1001h-9.75v-2.34h-12.09V996h1.1V972.76h-23.82l-73.23-22.1H-915l-20.38-33.17L-869,877.07v-8.15l38.61-19.31V846l18.19-8.44-4-6.94-17.5,11.46H-837l-83.26,45.56-12.85,6.73-67.4-26.34-.32,1.06-1.49-1.06-16-5.43-27.76,21.11,1.51,16.3-5.9,13.57,2.86.7v36.39h-18.11l-.4.13-.56-2.22V910.86H-1073v37.71l.74,4.12-63.8,20.07h-26.06V996h1.62v2.27h-11V1001h-9.75v1.76H-1190v-6.58h-2.06v6.58h0v5.86h0v6.57h2.06v-6.57h8.85v1.74h9.75v2.34h11v14.66h7.78v23.38h45.06v-23.38H-1092a34.65,34.65,0,0,0-2.56,13.11,34.78,34.78,0,0,0,34.78,34.78,34.78,34.78,0,0,0,34.78-34.78,34.84,34.84,0,0,0-2.56-13.11h191.24a34.65,34.65,0,0,0-2.56,13.11,34.78,34.78,0,0,0,34.78,34.78,34.78,34.78,0,0,0,34.78-34.78,34.84,34.84,0,0,0-2.56-13.11h68.45V1013h12.09v-2.66h9.75v-1.75h8.85v6.57h2.07v-6.57h0v-5.87Zm-362.21-77.11V914.73l7.36-.79A37.61,37.61,0,0,0-1032.89,925.61Zm-.85-35.07,7.31,3.42,14.41.61,7.25-4-2.72-8.49s-2.11-4.08-1.81-5.28c.21-.84,4.43-2.24,7-3l-.09.31,63.05,22h2.88l-9.21,4.83-5.74-3-11.76,4.53-7.54,2.11-7.62,2.73a37.6,37.6,0,0,0-19.54-5.44,37.67,37.67,0,0,0-13.68,2.56h0l-18.9-.45-6.33-6.34Zm-9.35,38.48h9a37.48,37.48,0,0,0-1.5,10.5,37.6,37.6,0,0,0,1.68,11.14h-9.22Z" transform="translate(2236.2 -822.76)"/><path class="cls-1" d="M2981.83,1002.73v-6.57h-2.06v6.57h-8.85V1001h-9.75v-2.35h-12.1V996h1.11V972.76h-23.82l-12.29-3.71c.06-.5.12-1,.16-1.51a31.08,31.08,0,0,0-11.74-27s-5.73-2.29-7.37-13.2l14.67.51-3.13-2.9a24.65,24.65,0,0,0-11.92-6.06c0-.53.05-1.07.09-1.63l.36-16.79h-7.67l-4.34-1.1v-7.3l-83.63-4.74V861.07l8.4-2.55-2.19-3.65-4.06-1.09a160,160,0,0,0-41.53-5.48H2743.6a9.88,9.88,0,0,0-9.87,9.38l-.87,66.2h-23v-4h19.44V876.7l-207-4.31v47.52h7.06l1.09,8.7,19,1.82-.73,9.49,40.52,8.79q-.45,1-.84,1.95h-1.68l-70.27,22.1h-26.07V996h1.63v2.27h-11V1001h-9.75v1.75h-8.85v-6.58h-2.07v6.58h0v5.86h0v6.58h2.07v-6.58h8.85v1.75h9.75v2.34h11v14.65h7.77v23.39h45.06v-23.39h15.62a34.79,34.79,0,1,0,64.43,0h191.25a34.78,34.78,0,1,0,64.43,0h68.45V1013h12.1v-2.67h9.75v-1.75h8.85v6.58h2.06v-6.58h0v-5.86ZM2745.09,887.36V861.79h48.36v25.57ZM2657,919.91h45.9v4H2657Zm-52.4,0h45.91v4h-45.91Zm-53.5,4v-4H2597v4Z" transform="translate(2236.2 -822.76)"/><path class="cls-1" d="M1416.79,1002.72v-6.57h-2.06v6.57h-8.85V1001h-9.75v-2.34H1384V996h1.1V972.76h-6.8l-4.26-14.61c-2.1-18.78-5.52-39.14-10.87-47.2-92.48-20-170.89-60.39-194-72.53a46.55,46.55,0,0,0-15.46-4.94c-18-2.44-60.33-6.63-83.77,3.53-11.27,4.88-26.76,27-42.1,28.33-36,3.21-112.79,4.27-116.74,4l-4.73,13.89,21.81,58.35,1.39,4.21-2.29,27h-1.93V996H927v2.27H916V1001h-9.74v1.76h-8.85v-6.58h-2.07v6.58h0v5.86h0v6.57h2.07v-6.57h8.85v1.74H916v2.34h11v14.66h7.78v23.38h45.06v-23.38h15.61a34.78,34.78,0,1,0,64.44,0h191.24a34.78,34.78,0,1,0,64.44,0H1384V1013h12.1v-2.66h9.75v-1.75h8.85v6.57h2.06v-6.57h0v-5.87Z" transform="translate(2236.2 -822.76)"/><path class="cls-1" d="M1938.63,1002.72v-6.57h-2.06v6.57h-8.86V1001H1918v-2.34h-12.1V996h1.1V972.76h-6.8l-4.26-14.61c-2.1-18.78-5.52-39.14-10.87-47.2-92.48-20-170.89-60.39-194-72.53a46.55,46.55,0,0,0-15.46-4.94c-18-2.44-60.33-6.63-83.77,3.53-11.27,4.88-26.76,27-42.1,28.33-36,3.21-112.79,4.27-116.74,4l-4.73,13.89,21.81,58.35,1.39,4.21-2.29,27h-1.93V996h1.62v2.27h-11V1001h-9.74v1.76h-8.85v-6.58h-2.07v6.58h0v5.86h0v6.57h2.07v-6.57h8.85v1.74h9.74v2.34h11v14.66h7.78v23.38h45.06v-23.38h15.61a34.78,34.78,0,1,0,64.44,0H1773a34.78,34.78,0,1,0,64.44,0h68.45V1013H1918v-2.66h9.74v-1.75h8.86v6.57h2.06v-6.57h0v-5.87Z" transform="translate(2236.2 -822.76)"/><path class="cls-1" d="M2460.48,1002.24v-6.57h-2.07v6.57h-8.85v-1.74h-9.75v-2.34h-12.09v-2.6h1.1V972.28H2422l-4.25-14.61c-2.1-18.78-5.53-39.15-10.87-47.21-92.49-20-170.9-60.38-194-72.52a46.61,46.61,0,0,0-15.47-4.94c-18-2.44-60.32-6.63-83.77,3.53-11.26,4.88-26.75,27-42.09,28.33-36,3.21-112.79,4.27-116.75,4l-4.72,13.9,21.81,58.34,1.38,4.22L1971,972.28h-1.93v23.27h1.62v2.28h-11v2.66H1950v1.75h-8.85v-6.57h-2.06v6.57h0v5.87h0v6.57h2.06v-6.57H1950v1.74h9.75v2.34h11v14.66h7.78v23.38h45.06v-23.38h15.61a34.78,34.78,0,1,0,64.44,0h191.24a34.78,34.78,0,1,0,64.44,0h68.45v-14.33h12.09v-2.66h9.75v-1.75h8.85v6.57h2.07v-6.57h0v-5.87Z" transform="translate(2236.2 -822.76)"/><path class="cls-1" d="M373.19,1002.72v-6.57h-2.06v6.57h-8.85V1001h-9.75v-2.34h-12.1v-2.49h1.11V831.86h2.67v-9.1H-120.58v9.1h2.38V996.15h1.62v2.16h-11V1001h-9.75v1.76h-8.85v-6.58h-2.07v6.58h0v5.86h0v6.57h2.07v-6.57h8.85v1.74h9.75v2.34h11v14.66h7.77v23.38h45.06v-23.38h15.62a34.65,34.65,0,0,0-2.57,13.11,34.78,34.78,0,0,0,34.78,34.78,34.79,34.79,0,0,0,34.79-34.78,34.65,34.65,0,0,0-2.57-13.11H207.55a34.78,34.78,0,1,0,64.43,0h68.45V1013h12.1v-2.66h9.75v-1.75h8.85v6.57h2.06v-6.57h0v-5.87Z" transform="translate(2236.2 -822.76)"/><path class="cls-1" d="M-147.83,1002.72v-6.57h-2.07v6.57h-8.85V1001h-9.74v-2.34h-12.1v-2.49h1.1V831.86h2.68v-9.1H-641.6v9.1h2.37V996.15h1.62v2.16h-11V1001h-9.75v1.76h-8.85v-6.58h-2.06v6.58h0v5.86h0v6.57h2.06v-6.57h8.85v1.74h9.75v2.34h11v14.66h7.78v23.38h45.06v-23.38h15.61a34.65,34.65,0,0,0-2.56,13.11,34.78,34.78,0,0,0,34.78,34.78,34.78,34.78,0,0,0,34.78-34.78,34.65,34.65,0,0,0-2.56-13.11h191.24a34.65,34.65,0,0,0-2.56,13.11,34.78,34.78,0,0,0,34.78,34.78,34.78,34.78,0,0,0,34.78-34.78,34.65,34.65,0,0,0-2.56-13.11h68.45V1013h12.1v-2.66h9.74v-1.75h8.85v6.57h2.07v-6.57h0v-5.87Z" transform="translate(2236.2 -822.76)"/><path class="cls-1" d="M-1714.78,1002.72v-6.57h-2.07v6.57h-8.85V1001h-9.74v-2.34h-12.1v-2.49h1.1V831.86h2.68v-9.1h-464.79v9.1h2.37V996.15h1.62v2.16h-11V1001h-9.74v1.76h-8.86v-6.58h-2.06v6.58h0v5.86h0v6.57h2.06v-6.57h8.86v1.74h9.74v2.34h11v14.66h7.78v23.38h45.06v-23.38h15.61a34.65,34.65,0,0,0-2.56,13.11,34.78,34.78,0,0,0,34.78,34.78,34.78,34.78,0,0,0,34.78-34.78,34.65,34.65,0,0,0-2.56-13.11h191.24a34.65,34.65,0,0,0-2.56,13.11,34.78,34.78,0,0,0,34.78,34.78,34.78,34.78,0,0,0,34.78-34.78,34.65,34.65,0,0,0-2.56-13.11h68.45V1013h12.1v-2.66h9.74v-1.75h8.85v6.57h2.07v-6.57h0v-5.87Z" transform="translate(2236.2 -822.76)"/><path class="cls-1" d="M-1192.72,1002.72v-6.57h-2.06v6.57h-8.86V1001h-9.74v-2.34h-12.1v-2.49h1.1V831.86h2.68v-9.1h-464.79v9.1h2.37V996.15h1.62v2.16h-11V1001h-9.74v1.76h-8.85v-6.58h-2.07v6.58h0v5.86h0v6.57h2.07v-6.57h8.85v1.74h9.74v2.34h11v14.66h7.78v23.38h45.06v-23.38H-1614a34.84,34.84,0,0,0-2.56,13.11,34.78,34.78,0,0,0,34.78,34.78,34.78,34.78,0,0,0,34.78-34.78,34.65,34.65,0,0,0-2.56-13.11h191.24a34.84,34.84,0,0,0-2.56,13.11,34.78,34.78,0,0,0,34.78,34.78,34.78,34.78,0,0,0,34.78-34.78,34.65,34.65,0,0,0-2.56-13.11h68.45V1013h12.1v-2.66h9.74v-1.75h8.86v6.57h2.06v-6.57h0v-5.87Z" transform="translate(2236.2 -822.76)"/></g></svg>