<svg id="Episod_3" data-name="Episod 3" xmlns="http://www.w3.org/2000/svg" xmlns:xlink="http://www.w3.org/1999/xlink" width="5088.63" height="432.68" viewBox="0 0 5088.63 432.68"><defs><style>.cls-1{fill:url(#linear-gradient);}.cls-2{fill:url(#linear-gradient-2);}.cls-3{fill:url(#linear-gradient-3);}.cls-4{fill:url(#linear-gradient-4);}.cls-5{fill:url(#linear-gradient-5);}.cls-6{fill:url(#linear-gradient-6);}.cls-7{fill:url(#linear-gradient-7);}.cls-8{fill:#8a7665;}.cls-9{fill:#806e5e;}.cls-10{fill:url(#linear-gradient-8);}.cls-11{fill:#8c7867;}.cls-12{fill:#706053;}.cls-13{fill:#756557;}.cls-14{fill:#53493e;}.cls-15{fill:#63564a;}.cls-16{fill:url(#linear-gradient-10);}.cls-17{fill:url(#linear-gradient-11);}.cls-18{fill:#927e6c;}.cls-19{fill:url(#linear-gradient-12);}.cls-20{fill:url(#linear-gradient-13);}.cls-21{fill:url(#linear-gradient-14);}.cls-22{fill:url(#linear-gradient-15);}.cls-23{fill:url(#linear-gradient-16);}.cls-24{fill:url(#linear-gradient-17);}.cls-25{fill:url(#linear-gradient-18);}.cls-26{fill:url(#linear-gradient-19);}.cls-27{fill:#3a322b;}.cls-28{fill:url(#linear-gradient-20);}.cls-29{fill:url(#linear-gradient-21);}.cls-30{fill:url(#linear-gradient-22);}.cls-31{fill:url(#linear-gradient-23);}.cls-32{fill:url(#linear-gradient-24);}.cls-33{fill:url(#linear-gradient-25);}.cls-34{fill:url(#linear-gradient-26);}.cls-35{fill:url(#linear-gradient-27);}.cls-36{fill:url(#linear-gradient-28);}.cls-37{fill:url(#linear-gradient-29);}.cls-38{fill:url(#linear-gradient-30);}.cls-39{fill:url(#linear-gradient-31);}.cls-40{fill:url(#linear-gradient-32);}.cls-41{fill:url(#linear-gradient-33);}.cls-42{fill:url(#linear-gradient-34);}.cls-43{fill:url(#linear-gradient-35);}.cls-44{fill:url(#linear-gradient-36);}.cls-45{fill:url(#linear-gradient-37);}.cls-46{fill:url(#linear-gradient-38);}.cls-47{fill:url(#linear-gradient-39);}.cls-48{fill:url(#linear-gradient-40);}.cls-49{fill:#99897b;}.cls-50{fill:url(#linear-gradient-41);}.cls-51{fill:url(#linear-gradient-42);}.cls-52{fill:url(#linear-gradient-43);}.cls-53{fill:url(#linear-gradient-44);}.cls-54{fill:url(#linear-gradient-45);}.cls-55{fill:url(#linear-gradient-46);}.cls-56{fill:url(#linear-gradient-47);}.cls-57{fill:url(#linear-gradient-51);}.cls-58{fill:url(#linear-gradient-52);}.cls-59{fill:url(#linear-gradient-53);}.cls-60{fill:url(#linear-gradient-54);}.cls-61{fill:url(#linear-gradient-55);}.cls-62{fill:url(#linear-gradient-56);}.cls-63{fill:url(#linear-gradient-57);}</style><linearGradient id="linear-gradient" x1="2344.72" y1="767.53" x2="2344.72" y2="963.85" gradientUnits="userSpaceOnUse"><stop offset="0.4" stop-color="#806e5e"/><stop offset="1" stop-color="#53493e"/></linearGradient><linearGradient id="linear-gradient-2" x1="-293.85" y1="782.17" x2="-293.85" y2="970.65" xlink:href="#linear-gradient"/><linearGradient id="linear-gradient-3" x1="2265.67" y1="200.17" x2="2266" y2="194.79" gradientUnits="userSpaceOnUse"><stop offset="0" stop-color="#806e5e"/><stop offset="1" stop-color="#b09783"/></linearGradient><linearGradient id="linear-gradient-4" x1="2343.94" y1="233.18" x2="2343.94" y2="239.6" gradientUnits="userSpaceOnUse"><stop offset="0" stop-color="#756557"/><stop offset="1" stop-color="#806e5e"/></linearGradient><linearGradient id="linear-gradient-5" x1="-183.56" y1="895.95" x2="-51.66" y2="895.95" xlink:href="#linear-gradient-3"/><linearGradient id="linear-gradient-6" x1="-274.39" y1="788.64" x2="-180.5" y2="788.64" xlink:href="#linear-gradient-3"/><linearGradient id="linear-gradient-7" x1="2171.44" y1="197.48" x2="2171.44" y2="192.05" xlink:href="#linear-gradient-3"/><linearGradient id="linear-gradient-8" x1="137.69" y1="823.41" x2="137.69" y2="905.04" xlink:href="#linear-gradient-4"/><linearGradient id="linear-gradient-10" x1="4099.37" y1="333.18" x2="4099.37" y2="125.48" gradientUnits="userSpaceOnUse"><stop offset="0" stop-color="#806e5e"/><stop offset="0.98" stop-color="#806e5e"/><stop offset="1" stop-color="#53493e"/></linearGradient><linearGradient id="linear-gradient-11" x1="4104.43" y1="333.33" x2="4104.43" y2="126.17" gradientUnits="userSpaceOnUse"><stop offset="0" stop-color="#927e6c"/><stop offset="0.99" stop-color="#917d6b"/><stop offset="1" stop-color="#53493e"/></linearGradient><linearGradient id="linear-gradient-12" x1="4099.56" y1="125.48" x2="4099.56" y2="113.98" gradientUnits="userSpaceOnUse"><stop offset="0" stop-color="#63564a"/><stop offset="1" stop-color="#c5bbb0"/></linearGradient><linearGradient id="linear-gradient-13" x1="-621.49" y1="1575.17" x2="-621.49" y2="1448.97" gradientTransform="translate(-78.94 -704.57)" gradientUnits="userSpaceOnUse"><stop offset="0" stop-color="#3a322b"/><stop offset="0.05" stop-color="#5c5045"/><stop offset="0.5" stop-color="#4a4137"/><stop offset="1" stop-color="#927e6c"/></linearGradient><linearGradient id="linear-gradient-14" x1="-2011" y1="1462.91" x2="-2011" y2="1380.69" gradientTransform="translate(2404.2 -1287.4)" gradientUnits="userSpaceOnUse"><stop offset="0" stop-color="#3a322b"/><stop offset="0.09" stop-color="#4a4137"/><stop offset="1" stop-color="#927e6c"/></linearGradient><linearGradient id="linear-gradient-15" x1="-1850.54" y1="1370.88" x2="-1803.07" y2="1370.88" gradientTransform="translate(2404.2 -1287.4)" gradientUnits="userSpaceOnUse"><stop offset="0" stop-color="#927e6c"/><stop offset="0.08" stop-color="#5d5146"/><stop offset="0.29" stop-color="#7c6b5c"/><stop offset="0.71" stop-color="#4a4137"/><stop offset="1" stop-color="#927e6c"/></linearGradient><linearGradient id="linear-gradient-16" x1="-1843.45" y1="1406.13" x2="-1794.69" y2="1406.13" gradientTransform="translate(2404.2 -1287.4)" gradientUnits="userSpaceOnUse"><stop offset="0.01" stop-color="#5c5045"/><stop offset="0.96" stop-color="#4a4137"/><stop offset="1" stop-color="#3a322b"/></linearGradient><linearGradient id="linear-gradient-17" x1="-1078.93" y1="1719.08" x2="-1078.93" y2="1591.26" gradientTransform="translate(-78.95 -704.57)" gradientUnits="userSpaceOnUse"><stop offset="0" stop-color="#52483d"/><stop offset="1" stop-color="#3a322b"/></linearGradient><linearGradient id="linear-gradient-18" x1="-2030.3" y1="1703.67" x2="-2030.3" y2="1603.11" gradientTransform="translate(2404.2 -1287.4)" xlink:href="#linear-gradient-17"/><linearGradient id="linear-gradient-19" x1="-1444.22" y1="1598.97" x2="-1444.22" y2="1429.97" gradientTransform="translate(-78.95 -704.57)" gradientUnits="userSpaceOnUse"><stop offset="0" stop-color="#3a322b"/><stop offset="0.01" stop-color="#5c5045"/><stop offset="0.95" stop-color="#4a4137"/><stop offset="0.98" stop-color="#3a322b"/></linearGradient><linearGradient id="linear-gradient-20" x1="-686" y1="1386.94" x2="-686" y2="1343.26" gradientTransform="translate(2404.2 -1287.4)" xlink:href="#linear-gradient-13"/><linearGradient id="linear-gradient-21" x1="-976.17" y1="1519.15" x2="-976.17" y2="1381.9" gradientTransform="translate(2404.2 -1287.4)" xlink:href="#linear-gradient-13"/><linearGradient id="linear-gradient-22" x1="-1334.89" y1="1545.95" x2="-1334.89" y2="1361.07" gradientTransform="translate(2404.2 -1287.4)" gradientUnits="userSpaceOnUse"><stop offset="0" stop-color="#52483d"/><stop offset="0.8" stop-color="#63564a"/><stop offset="1" stop-color="#927e6c"/></linearGradient><linearGradient id="linear-gradient-23" x1="-1541.86" y1="1374.16" x2="-1541.86" y2="1311.17" xlink:href="#linear-gradient-14"/><linearGradient id="linear-gradient-24" x1="-1747.84" y1="1374.16" x2="-1747.84" y2="1311.17" xlink:href="#linear-gradient-14"/><linearGradient id="linear-gradient-25" x1="-1119.34" y1="1526.48" x2="-1119.34" y2="1374.16" gradientTransform="translate(2404.2 -1287.4)" gradientUnits="userSpaceOnUse"><stop offset="0" stop-color="#3a322b"/><stop offset="0.06" stop-color="#78685a"/><stop offset="0.5" stop-color="#6e6051"/><stop offset="1" stop-color="#d2c8bd"/></linearGradient><linearGradient id="linear-gradient-26" x1="-1225.13" y1="1526.48" x2="-1225.13" y2="1374.16" xlink:href="#linear-gradient-25"/><linearGradient id="linear-gradient-27" x1="-1004.79" y1="1526.48" x2="-1004.79" y2="1374.16" xlink:href="#linear-gradient-25"/><linearGradient id="linear-gradient-28" x1="-972.61" y1="1526.48" x2="-972.61" y2="1374.16" xlink:href="#linear-gradient-25"/><linearGradient id="linear-gradient-29" x1="-849" y1="1526.48" x2="-849" y2="1374.16" xlink:href="#linear-gradient-25"/><linearGradient id="linear-gradient-30" x1="-719.45" y1="1688.02" x2="-719.45" y2="1540.36" gradientTransform="translate(2404.2 -1287.4)" gradientUnits="userSpaceOnUse"><stop offset="0" stop-color="#665a4c"/><stop offset="0.09" stop-color="#52483d"/><stop offset="0.8" stop-color="#63564a"/><stop offset="1" stop-color="#927e6c"/></linearGradient><linearGradient id="linear-gradient-31" x1="-771.57" y1="1674.34" x2="-771.57" y2="1597.44" gradientTransform="translate(2404.2 -1287.4)" gradientUnits="userSpaceOnUse"><stop offset="0" stop-color="#63564a"/><stop offset="0.43" stop-color="#53483d"/><stop offset="1" stop-color="#927e6c"/></linearGradient><linearGradient id="linear-gradient-32" x1="-664.92" y1="1683.19" x2="-664.92" y2="1597.44" xlink:href="#linear-gradient-31"/><linearGradient id="linear-gradient-33" x1="-667.64" y1="1585.53" x2="-667.64" y2="1547.63" xlink:href="#linear-gradient-31"/><linearGradient id="linear-gradient-34" x1="-1206.77" y1="1340.05" x2="-1123.98" y2="1340.05" xlink:href="#linear-gradient-15"/><linearGradient id="linear-gradient-35" x1="-1206.78" y1="1300.06" x2="-1123.99" y2="1300.06" gradientTransform="translate(0 -646)" gradientUnits="userSpaceOnUse"><stop offset="0" stop-color="#927e6c"/><stop offset="0.71" stop-color="#4a4137"/><stop offset="1" stop-color="#927e6c"/></linearGradient><linearGradient id="linear-gradient-36" x1="-1116.09" y1="1340.05" x2="-1033.3" y2="1340.05" xlink:href="#linear-gradient-15"/><linearGradient id="linear-gradient-37" x1="-1116.09" y1="1300.06" x2="-1033.3" y2="1300.06" xlink:href="#linear-gradient-35"/><linearGradient id="linear-gradient-38" x1="-968.2" y1="1300.06" x2="-885.43" y2="1300.06" xlink:href="#linear-gradient-35"/><linearGradient id="linear-gradient-39" x1="-968.21" y1="1340.05" x2="-885.42" y2="1340.05" xlink:href="#linear-gradient-15"/><linearGradient id="linear-gradient-40" x1="-1070.32" y1="1385.37" x2="-1008.5" y2="1385.37" gradientTransform="translate(2404.2 -1287.4)" xlink:href="#linear-gradient-13"/><linearGradient id="linear-gradient-41" x1="-1558.85" y1="1598.97" x2="-1558.85" y2="1432.73" xlink:href="#linear-gradient-19"/><linearGradient id="linear-gradient-42" x1="-2024.21" y1="1370.88" x2="-1976.74" y2="1370.88" xlink:href="#linear-gradient-15"/><linearGradient id="linear-gradient-43" x1="-2026.05" y1="1360.1" x2="-1974.9" y2="1360.1" xlink:href="#linear-gradient-15"/><linearGradient id="linear-gradient-44" x1="-1852.38" y1="1360.1" x2="-1801.23" y2="1360.1" xlink:href="#linear-gradient-15"/><linearGradient id="linear-gradient-45" x1="-1923.14" y1="1661.68" x2="-1923.14" y2="1432.73" gradientTransform="translate(-78.95 -704.57)" gradientUnits="userSpaceOnUse"><stop offset="0.01" stop-color="#5c5045"/><stop offset="0.95" stop-color="#4a4137"/><stop offset="0.98" stop-color="#3a322b"/></linearGradient><linearGradient id="linear-gradient-46" x1="-802.29" y1="1366.32" x2="-739.16" y2="1366.32" xlink:href="#linear-gradient-15"/><linearGradient id="linear-gradient-47" x1="-802.29" y1="1322.94" x2="-739.16" y2="1322.94" xlink:href="#linear-gradient-15"/><linearGradient id="linear-gradient-51" x1="-1165.38" y1="1305.95" x2="-1165.38" y2="1294.18" gradientTransform="translate(0 -646)" gradientUnits="userSpaceOnUse"><stop offset="0.32" stop-color="#927e6c" stop-opacity="0"/><stop offset="1" stop-color="#d2c8bd"/></linearGradient><linearGradient id="linear-gradient-52" x1="-1074.69" y1="1305.95" x2="-1074.69" y2="1294.18" xlink:href="#linear-gradient-51"/><linearGradient id="linear-gradient-53" x1="-926.81" y1="1305.95" x2="-926.81" y2="1294.18" xlink:href="#linear-gradient-51"/><linearGradient id="linear-gradient-54" x1="-1675.65" y1="1323.71" x2="-1675.65" y2="1303.26" gradientTransform="translate(2404.2 -1287.4)" gradientUnits="userSpaceOnUse"><stop offset="0" stop-color="#4a4137"/><stop offset="1" stop-color="#927e6c"/></linearGradient><linearGradient id="linear-gradient-55" x1="-1037.46" y1="1364.31" x2="-954.36" y2="1364.31" gradientTransform="translate(2325.26 -1345.97)" gradientUnits="userSpaceOnUse"><stop offset="0" stop-color="#b09882"/><stop offset="0.08" stop-color="#a38f7a"/><stop offset="0.29" stop-color="#a38d79"/><stop offset="0.71" stop-color="#827261"/><stop offset="1" stop-color="#b59c86"/></linearGradient><linearGradient id="linear-gradient-56" x1="-889.42" y1="1364.31" x2="-806.32" y2="1364.31" xlink:href="#linear-gradient-55"/><linearGradient id="linear-gradient-57" x1="-1127.99" y1="1364.31" x2="-1044.89" y2="1364.31" xlink:href="#linear-gradient-55"/></defs><g id="Cannon"><path class="cls-1" d="M2504.58,767.53,2482.44,782h-4.19l-105.34,57.63-16.25,8.51-85.27-33.32-.4,1.35-1.89-1.35L2248.87,808l-35.11,26.72,1.91,20.61-7.47,17.17,3.62.89v52.25l-10.65-.85h-11.45l-2-8v-47.7h-7.91v47.7l1.91,10.69,16.79,3.43,5.35,6.11h24l-1.11,1.15-.77,11.06-24.8-1.14v15.8h151.89v-5.11l-12.59-11.45v-4.58h17.37l28.81-11.84-32.82-53.43,84-51.14V816l48.85-24.43V787l23-10.69ZM2230.47,887.71V873.94l9.32-1A47.76,47.76,0,0,0,2230.47,887.71ZM2217.58,892H2229a47.69,47.69,0,0,0,3.46,35.24l-14.89-1.19Zm116-39.38-14.89,5.72-9.54,2.67-9.63,3.46a47.82,47.82,0,0,0-42-3.65h0l-23.91-.57-8-8,3.82-8.9,9.24,4.32,18.24.77,9.16-5.09-3.44-10.75s-2.67-5.15-2.29-6.68c.26-1,5.61-2.83,8.9-3.83l-.12.39,79.76,27.87h3.65l-11.66,6.1Z" transform="translate(2404.2 -641.4)"/></g><g id="Gaz-AA"><path class="cls-2" d="M-275.49,877.79h-29v-5h24.59V818.1l-261.85-5.45v60.11h8.93l1.38,11,24,2.31-.93,12,51.26,11.12a43.05,43.05,0,0,0-4,20.55,43.29,43.29,0,0,0,41.46,40.87A43.12,43.12,0,0,0-375,927.53c26.27-5.06,33.59-6.24,53.19-9.82l197.92,3.88a39.7,39.7,0,0,0-.86,8.21A39.41,39.41,0,0,0-82.5,969.11,39.53,39.53,0,0,0-46,933,39.36,39.36,0,0,0-60.9,898.89s-11.41-4.52-9.69-29.44l.46-21.24h-9.7l-5.49-1.39v-9.23l-105.8-6V798.33l10.62-3.23-2.77-4.62-5.13-1.38a202.6,202.6,0,0,0-52.53-6.93h-21A12.51,12.51,0,0,0-274.39,794Zm-171.93,0h-58.07v-5h58.07Zm67.69,0H-437.8v-5h58.07Zm66.28,0h-58.07v-5h58.07Zm114.61-46.21H-260V799.24h61.18Z" transform="translate(2404.2 -641.4)"/><polygon class="cls-3" points="2318.88 196.19 2213.08 190.18 2213.08 196.19 2318.88 200.19 2318.88 196.19"/><line class="cls-4" x1="2343.3" y1="239.6" x2="2344.57" y2="233.18"/><path class="cls-5" d="M-131.19,899.16-162,921l-21.57-.33,18.26-7.31L-134.78,890a93,93,0,0,1,58.47-19.11h.21a31.15,31.15,0,0,1,20.48,8.26l4,3.66-22.53-.77A93,93,0,0,0-131.19,899.16Z" transform="translate(2404.2 -641.4)"/><path class="cls-6" d="M-274.39,794a12.51,12.51,0,0,1,12.49-11.87h21a202.6,202.6,0,0,1,52.53,6.93l5.13,1.38,2.77,4.62-10.62-.09Z" transform="translate(2404.2 -641.4)"/><rect class="cls-7" x="2129.8" y="190.18" width="83.27" height="6.56"/><rect class="cls-8" x="2129.64" y="277.57" width="101.23" height="2.03"/></g><g id="Tank"><path class="cls-9" d="M58.84,831.23l27.81,70.93L86.43,905l22.62,68.85H654.22s-3.62-86.67-17.52-107.62c-117-25.25-216.19-76.39-245.41-91.75a59.16,59.16,0,0,0-19.56-6.25c-22.84-3.08-76.32-8.38-106,4.47-14.24,6.17-33.84,34.1-53.25,35.83-47.07,4.21-153.28,5.49-147.67,5Z" transform="translate(2404.2 -641.4)"/><path class="cls-10" d="M216.54,823.41c-2.43,1.14-157.7,7.82-157.7,7.82L86.43,905l130.11-71.58Z" transform="translate(2404.2 -641.4)"/><polygon class="cls-11" points="2508.62 249.35 2551.35 230.49 3007.61 230.49 3023.26 244.57 2508.62 249.35"/><path class="cls-12" d="M84.32,955.9l4.28-50.48a16,16,0,0,1,15.82-14.67L613.15,886a33.82,33.82,0,0,1,32.77,24.35l12.55,43.14A16,16,0,0,1,643.06,974l-542.79-.75A16,16,0,0,1,84.32,955.9Z" transform="translate(2404.2 -641.4)"/><path class="cls-13" d="M272.74,871.52c4,1.54,330.67.37,330.67.37l-331.83-20Z" transform="translate(2404.2 -641.4)"/><path class="cls-13" d="M271.58,851.93c-1.57-.46-98.65,20.39-98.65,20.39l99.81-.8Z" transform="translate(2404.2 -641.4)"/><path class="cls-13" d="M230,823.41l182.25,4.88-24.9-35.63a17.18,17.18,0,0,0-14.09-7.34H270.09a23.22,23.22,0,0,0-18.6,9.32Z" transform="translate(2404.2 -641.4)"/><path class="cls-9" d="M58.84,831.23l27.81,70.93L86.43,905l22.62,68.85H654.22s-3.62-86.67-17.52-107.62c-117-25.25-216.19-76.39-245.41-91.75a59.16,59.16,0,0,0-19.56-6.25c-22.84-3.08-76.32-8.38-106,4.47-14.24,6.17-33.84,34.1-53.25,35.83-47.07,4.21-153.28,5.49-147.67,5Z" transform="translate(2404.2 -641.4)"/><path class="cls-10" d="M216.54,823.41c-2.43,1.14-157.7,7.82-157.7,7.82L86.43,905l130.11-71.58Z" transform="translate(2404.2 -641.4)"/><polygon class="cls-11" points="2508.62 249.35 2551.35 230.49 3007.61 230.49 3023.26 244.57 2508.62 249.35"/><path class="cls-12" d="M84.32,955.9l4.28-50.48a16,16,0,0,1,15.82-14.67L613.15,886a33.82,33.82,0,0,1,32.77,24.35l12.55,43.14A16,16,0,0,1,643.06,974l-542.79-.75A16,16,0,0,1,84.32,955.9Z" transform="translate(2404.2 -641.4)"/><path class="cls-13" d="M272.74,871.52c4,1.54,330.67.37,330.67.37l-331.83-20Z" transform="translate(2404.2 -641.4)"/><path class="cls-13" d="M271.58,851.93c-1.57-.46-98.65,20.39-98.65,20.39l99.81-.8Z" transform="translate(2404.2 -641.4)"/><path class="cls-13" d="M230,823.41l182.25,4.88-24.9-35.63a17.18,17.18,0,0,0-14.09-7.34H270.09a23.22,23.22,0,0,0-18.6,9.32Z" transform="translate(2404.2 -641.4)"/><g id="Bottom"><circle class="cls-14" cx="2616.45" cy="388.68" r="44"/><circle class="cls-14" cx="2939.9" cy="388.68" r="44"/><rect class="cls-14" x="2489.1" y="332.1" width="578.15" height="40"/><rect class="cls-14" x="2498.94" y="344.68" width="57" height="57"/><path class="cls-15" d="M218.49,1045.08h-12a5.51,5.51,0,0,1-5.51-5.51v-19a5.51,5.51,0,0,1,5.51-5.51h12a5.51,5.51,0,0,1,5.51,5.51v19A5.51,5.51,0,0,1,218.49,1045.08Z" transform="translate(2404.2 -641.4)"/><circle class="cls-14" cx="2616.7" cy="388.68" r="9"/><path class="cls-15" d="M542.94,1045.08H531a5.51,5.51,0,0,1-5.51-5.51v-19a5.51,5.51,0,0,1,5.51-5.51h12a5.51,5.51,0,0,1,5.51,5.51v19A5.51,5.51,0,0,1,542.94,1045.08Z" transform="translate(2404.2 -641.4)"/><circle class="cls-14" cx="2941.15" cy="388.68" r="9"/><polygon class="cls-14" points="2475.21 335.39 2475.21 338.76 2462.88 338.76 2462.88 340.98 2451.68 340.98 2451.68 332.66 2449.07 332.66 2449.07 340.98 2449.07 340.98 2449.07 348.4 2449.07 348.4 2449.07 356.71 2451.68 356.71 2451.68 348.4 2462.88 348.4 2462.88 350.6 2475.21 350.6 2475.21 353.56 2496.42 353.56 2496.42 335.39 2475.21 335.39"/><polygon class="cls-14" points="3082.55 353.98 3082.55 350.61 3094.88 350.61 3094.88 348.39 3106.08 348.39 3106.08 356.71 3108.69 356.71 3108.69 348.39 3108.69 348.39 3108.69 340.97 3108.69 340.97 3108.69 332.66 3106.08 332.66 3106.08 340.97 3094.88 340.97 3094.88 338.77 3082.55 338.77 3082.55 335.81 3061.34 335.81 3061.34 353.98 3082.55 353.98"/></g><g id="PlatformCart"><polygon class="cls-9" points="3068.65 333.51 2487.05 333.51 2487.05 304.07 2520.02 304.07 2608.91 276.11 2945.87 276.11 3038.52 304.07 3068.65 304.07 3068.65 333.51"/></g></g><g id="Bottom-2" data-name="Bottom"><path class="cls-14" d="M1364.89,982.24v-8.31h-2.61v8.31h-11.2V980h-12.33v-3h-15.3v-3.7H745.29v3.28H731.41V980H719.08v2.22h-11.2v-8.32h-2.61v8.32h0v7.42h0V998h2.61v-8.31h11.2v2.2h12.33v3h13.88v18.55h9.84V1043h57v-29.58h19.76a44,44,0,1,0,81.51,0h241.94a44,44,0,1,0,81.51,0h86.6V995.25h15.3v-3.37h12.33v-2.22h11.2V998h2.61v-8.32h0v-7.42Z" transform="translate(2404.2 -641.4)"/><path class="cls-15" d="M878.89,1045h-12a5.51,5.51,0,0,1-5.51-5.51v-19a5.51,5.51,0,0,1,5.51-5.51h12a5.51,5.51,0,0,1,5.51,5.51v19A5.51,5.51,0,0,1,878.89,1045Z" transform="translate(2404.2 -641.4)"/><circle class="cls-14" cx="3277.1" cy="388.56" r="9"/><path class="cls-15" d="M1203.34,1045h-12a5.51,5.51,0,0,1-5.51-5.51v-19a5.51,5.51,0,0,1,5.51-5.51h12a5.51,5.51,0,0,1,5.51,5.51v19A5.51,5.51,0,0,1,1203.34,1045Z" transform="translate(2404.2 -641.4)"/><circle class="cls-14" cx="3601.54" cy="388.56" r="9"/></g><g id="Bottom-3" data-name="Bottom"><path class="cls-14" d="M2025.06,982.24v-8.31h-2.61v8.31h-11.2V980h-12.33v-3h-15.3v-3.7H1405.46v3.28h-13.89V980h-12.33v2.22h-11.19v-8.32h-2.61v8.32h0v7.42h0V998h2.61v-8.31h11.19v2.2h12.33v3h13.89v18.55h9.84V1043h57v-29.58h19.76a44,44,0,1,0,81.51,0h241.94a44,44,0,1,0,81.51,0h86.6V995.25h15.3v-3.37h12.33v-2.22h11.2V998h2.61v-8.32h0v-7.42Z" transform="translate(2404.2 -641.4)"/><path class="cls-15" d="M1539.06,1045h-12a5.51,5.51,0,0,1-5.51-5.51v-19a5.51,5.51,0,0,1,5.51-5.51h12a5.51,5.51,0,0,1,5.51,5.51v19A5.51,5.51,0,0,1,1539.06,1045Z" transform="translate(2404.2 -641.4)"/><circle class="cls-14" cx="3937.26" cy="388.56" r="9"/><path class="cls-15" d="M1863.5,1045h-12a5.51,5.51,0,0,1-5.51-5.51v-19a5.51,5.51,0,0,1,5.51-5.51h12a5.51,5.51,0,0,1,5.51,5.51v19A5.51,5.51,0,0,1,1863.5,1045Z" transform="translate(2404.2 -641.4)"/><circle class="cls-14" cx="4261.71" cy="388.56" r="9"/></g><g id="Bottom-4" data-name="Bottom"><path class="cls-14" d="M2684.43,982.24v-8.31h-2.61v8.31h-11.19V980H2658.3v-3H2643v-3.7H2064.84v3.28H2051V980h-12.33v2.22h-11.2v-8.32h-2.61v8.32h0v7.42h0V998h2.61v-8.31h11.2v2.2H2051v3h13.89v18.55h9.84V1043h57v-29.58h19.75a44,44,0,1,0,81.52,0h241.93a44,44,0,1,0,81.52,0H2643V995.25h15.31v-3.37h12.33v-2.22h11.19V998h2.61v-8.32h0v-7.42Z" transform="translate(2404.2 -641.4)"/><path class="cls-15" d="M2198.43,1045h-12a5.51,5.51,0,0,1-5.51-5.51v-19a5.51,5.51,0,0,1,5.51-5.51h12a5.51,5.51,0,0,1,5.51,5.51v19A5.51,5.51,0,0,1,2198.43,1045Z" transform="translate(2404.2 -641.4)"/><circle class="cls-14" cx="4596.64" cy="388.56" r="9"/><path class="cls-15" d="M2522.88,1045h-12a5.51,5.51,0,0,1-5.51-5.51v-19a5.51,5.51,0,0,1,5.51-5.51h12a5.51,5.51,0,0,1,5.51,5.51v19A5.51,5.51,0,0,1,2522.88,1045Z" transform="translate(2404.2 -641.4)"/><circle class="cls-14" cx="4921.09" cy="388.56" r="9"/></g><g id="Bottom-5" data-name="Bottom"><path class="cls-14" d="M44.84,982.11V973.8H42.23v8.31H31v-2.2H18.7v-3H3.4v-3.71H-574.75v3.29h-13.89v3.37H-601v2.22h-11.2V973.8h-2.61v8.32h0v7.42h0v8.31h2.61v-8.31H-601v2.2h12.33v3h13.89v18.54h9.84v29.58h57v-29.58h19.75a44,44,0,0,0-3.24,16.58,44,44,0,0,0,44,44,44,44,0,0,0,44-44,44,44,0,0,0-3.24-16.58h241.93a44,44,0,0,0-3.24,16.58,44,44,0,0,0,44,44,44,44,0,0,0,44-44,44,44,0,0,0-3.24-16.58H3.4V995.12H18.7v-3.37H31v-2.22h11.2v8.32h2.61v-8.32h0v-7.42Z" transform="translate(2404.2 -641.4)"/><path class="cls-15" d="M-441.16,1044.82h-12a5.51,5.51,0,0,1-5.51-5.51v-19a5.51,5.51,0,0,1,5.51-5.51h12a5.51,5.51,0,0,1,5.51,5.51v19A5.51,5.51,0,0,1-441.16,1044.82Z" transform="translate(2404.2 -641.4)"/><circle class="cls-14" cx="1957.05" cy="388.42" r="9"/><path class="cls-15" d="M-116.71,1044.82h-12a5.51,5.51,0,0,1-5.51-5.51v-19a5.51,5.51,0,0,1,5.51-5.51h12a5.51,5.51,0,0,1,5.51,5.51v19A5.51,5.51,0,0,1-116.71,1044.82Z" transform="translate(2404.2 -641.4)"/><circle class="cls-14" cx="2281.5" cy="388.42" r="9"/></g><g id="PlatformCart-2" data-name="PlatformCart"><polygon class="cls-9" points="2410.03 333.39 1828.43 333.39 1828.43 292.73 1928.53 261.53 2306.99 262.12 2410.03 292.73 2410.03 333.39"/></g><g id="PlatformCart-3" data-name="PlatformCart"><polygon class="cls-9" points="3730.08 333.39 3148.48 333.39 3148.48 292.73 3248.58 261.53 3627.04 262.12 3730.08 292.73 3730.08 333.39"/></g><g id="PlatformCart-4" data-name="PlatformCart"><polygon class="cls-9" points="5049.62 333.39 4468.02 333.39 4468.02 292.73 4568.12 261.53 4946.58 262.12 5049.62 292.73 5049.62 333.39"/></g><g id="CargoCart"><polygon class="cls-16" points="4390.17 333.18 3808.57 333.18 3808.57 125.48 4390.17 125.48 4390.17 333.18"/><rect class="cls-17" x="4011.24" y="126.17" width="186.38" height="207.15"/><rect class="cls-18" x="4382.86" y="126.17" width="7.3" height="207.15"/><rect class="cls-18" x="3808.57" y="126.17" width="7.3" height="207.15"/><rect class="cls-18" x="3943.57" y="126.17" width="7.3" height="207.15"/><rect class="cls-18" x="3873.81" y="126.17" width="7.3" height="207.15"/><rect class="cls-18" x="4320.93" y="126.17" width="7.3" height="207.15"/><rect class="cls-18" x="4251.17" y="126.17" width="7.3" height="207.15"/><polygon class="cls-19" points="4393.55 113.98 3805.57 113.98 3805.57 125.48 4393.55 125.48 4393.55 113.98"/></g><g id="Episod_2" data-name="Episod 2"><g id="Loco"><path class="cls-20" d="M-694.45,756.17V858.83A11.77,11.77,0,0,1-706.2,870.6h-.23V744.4h.23a11.77,11.77,0,0,1,11.77,11.77h0Z" transform="translate(2404.2 -641.4)"/><rect class="cls-21" x="225.63" y="93.29" width="335.13" height="82.22"/><rect class="cls-22" x="553.66" y="73.67" width="47.47" height="19.62"/><rect class="cls-23" x="560.75" y="85.99" width="48.76" height="65.49"/><path class="cls-24" d="M-660.09,888.76H-876.84a40.73,40.73,0,0,0-25.64,0h-195.27a40.73,40.73,0,0,0-25.64,0h-306.76v5.64h-220.11l53.91,58.6h-10.36v23.63H-1616V980h-6.66v2.21H-1653v-8.34h-2.62v24h2.62v-8.31h30.42v2.26h6.66v3h9.26v19.64h841v-57.4H-738V900h77.88ZM-1142.28,953h-97.31V900h99a40.68,40.68,0,0,0-1.64,53Zm220.9,0h-25.11V913.61h-43.44V953h-88.92a40.72,40.72,0,0,0-1.64-53h160.76A40.71,40.71,0,0,0-921.38,953Zm80.15,0h-16.71a40.72,40.72,0,0,0-1.64-53h18.38Z" transform="translate(2404.2 -641.4)"/><polygon class="cls-25" points="745.17 332.46 745.17 340.77 727.07 340.77 727.07 338.56 707.34 338.56 707.34 335.6 699.2 335.6 699.2 330.19 699.2 315.71 107.41 315.71 107.41 330.19 50.92 330.19 50.92 335.19 40.44 335.19 40.44 338.56 20.71 338.56 20.71 340.77 2.61 340.77 2.61 332.46 0 332.46 0 340.77 0 348.19 0 356.5 2.61 356.5 2.61 348.19 20.71 348.19 20.71 350.4 40.44 350.4 40.44 353.36 50.92 353.36 50.92 378.64 521.38 378.64 521.38 416.27 622.77 416.27 622.77 378.64 699.2 378.64 699.2 353.77 707.34 353.77 707.34 350.4 727.07 350.4 727.07 348.18 745.17 348.18 745.17 356.5 747.79 356.5 747.79 348.18 747.79 340.77 747.79 332.46 745.17 332.46"/><path class="cls-26" d="M-1616.34,725.4v169H-1430v-169Zm84.49,61a12,12,0,0,1-12,12h-38.86a12,12,0,0,1-12-12v-43a12,12,0,0,1,12-12h38.86a12,12,0,0,1,12,12Zm80.93,0a12,12,0,0,1-12,12h-38.86a12,12,0,0,1-12-12v-43a12,12,0,0,1,12-12h38.86a12,12,0,0,1,12,12Z" transform="translate(2404.2 -641.4)"/><rect class="cls-27" x="703.16" y="90.03" width="41.78" height="162.93"/><rect class="cls-28" x="1698.81" y="55.86" width="38.77" height="43.68"/><rect class="cls-29" x="1157.25" y="86.76" width="541.56" height="171.79"/><rect class="cls-30" x="974" y="73.67" width="190.61" height="184.88"/><rect class="cls-31" x="744.94" y="23.77" width="234.79" height="62.99"/><rect class="cls-32" x="602.96" y="23.77" width="106.8" height="62.99"/><rect class="cls-18" x="974" y="239.08" width="770.11" height="8.28"/><rect class="cls-18" x="1161.82" y="148.39" width="3.24" height="94.83"/><rect class="cls-18" x="1355.83" y="148.39" width="3.24" height="94.83"/><rect class="cls-33" x="1281.41" y="86.76" width="6.9" height="152.32"/><rect class="cls-34" x="1175.62" y="86.76" width="6.9" height="152.32"/><rect class="cls-35" x="1395.96" y="86.76" width="6.9" height="152.32"/><rect class="cls-36" x="1428.14" y="86.76" width="6.9" height="152.32"/><rect class="cls-37" x="1551.75" y="86.76" width="6.9" height="152.32"/><rect class="cls-18" x="1546.29" y="148.39" width="3.24" height="94.83"/><rect class="cls-18" x="1739.29" y="148.39" width="3.24" height="94.83"/><circle class="cls-14" cx="1152.5" cy="373" r="57.3"/><circle class="cls-14" cx="1021.33" cy="373" r="57.3"/><circle class="cls-14" cx="1280.21" cy="373" r="57.3"/><circle class="cls-14" cx="1411.37" cy="373" r="57.3"/><circle class="cls-14" cx="1544.61" cy="373" r="57.3"/><rect class="cls-38" x="1635.04" y="252.96" width="99.41" height="147.66"/><rect class="cls-39" x="1630.21" y="310.04" width="4.83" height="76.9"/><rect class="cls-40" x="1734.45" y="310.04" width="9.66" height="85.75"/><rect class="cls-41" x="1734.45" y="260.23" width="4.21" height="37.9"/><rect class="cls-42" x="1197.43" y="18.54" width="82.79" height="68.22"/><path class="cls-43" d="M-1195,648.18h59.25A11.77,11.77,0,0,1-1124,660h-82.79A11.77,11.77,0,0,1-1195,648.18Z" transform="translate(2404.2 -641.4)"/><rect class="cls-44" x="1288.11" y="18.54" width="82.79" height="68.22"/><path class="cls-45" d="M-1104.32,648.18h59.25A11.77,11.77,0,0,1-1033.3,660h-82.79a11.77,11.77,0,0,1,11.77-11.77Z" transform="translate(2404.2 -641.4)"/><path class="cls-46" d="M-956.44,648.18h59.24A11.77,11.77,0,0,1-885.43,660H-968.2a11.77,11.77,0,0,1,11.77-11.77h0Z" transform="translate(2404.2 -641.4)"/><rect class="cls-47" x="1435.99" y="18.54" width="82.79" height="68.22"/><ellipse class="cls-48" cx="1364.79" cy="97.97" rx="30.91" ry="15.37"/><ellipse class="cls-49" cx="1364.79" cy="89.04" rx="30.91" ry="15.37"/><rect class="cls-18" x="787.87" y="252.96" width="186.33" height="8.3"/><path class="cls-50" d="M-1659.26,728.16V894.4h42.92V728.16Zm36.89,59.24a5.35,5.35,0,0,1-5.33,5.33H-1649a5.35,5.35,0,0,1-5.33-5.33V742.8a5.35,5.35,0,0,1,5.33-5.33h21.33a5.35,5.35,0,0,1,5.33,5.33Z" transform="translate(2404.2 -641.4)"/><rect class="cls-51" x="379.99" y="73.67" width="47.47" height="19.62"/><rect class="cls-52" x="378.15" y="71.04" width="51.15" height="3.33"/><rect class="cls-53" x="551.82" y="71.04" width="51.15" height="3.33"/><path class="cls-54" d="M-1794.69,728.16v63h-337.18a51.44,51.44,0,0,0-51.45,51.43h-119.83V957.11H-1701v-229Z" transform="translate(2404.2 -641.4)"/><polygon class="cls-55" points="1665.04 86.76 1601.91 86.76 1611.78 71.09 1653.66 71.09 1665.04 86.76"/><polygon class="cls-56" points="1665.04 0 1601.91 0 1611.78 71.09 1653.66 71.09 1665.04 0"/><path class="cls-43" d="M-1195,648.18h59.25A11.77,11.77,0,0,1-1124,660h-82.79A11.77,11.77,0,0,1-1195,648.18Z" transform="translate(2404.2 -641.4)"/><path class="cls-45" d="M-1104.32,648.18h59.25A11.77,11.77,0,0,1-1033.3,660h-82.79a11.77,11.77,0,0,1,11.77-11.77Z" transform="translate(2404.2 -641.4)"/><path class="cls-46" d="M-956.44,648.18h59.24A11.77,11.77,0,0,1-885.43,660H-968.2a11.77,11.77,0,0,1,11.77-11.77h0Z" transform="translate(2404.2 -641.4)"/><path class="cls-57" d="M-1195,648.18h59.25A11.77,11.77,0,0,1-1124,660h-82.79A11.77,11.77,0,0,1-1195,648.18Z" transform="translate(2404.2 -641.4)"/><path class="cls-58" d="M-1104.32,648.18h59.25A11.77,11.77,0,0,1-1033.3,660h-82.79a11.77,11.77,0,0,1,11.77-11.77Z" transform="translate(2404.2 -641.4)"/><path class="cls-59" d="M-956.44,648.18h59.24A11.77,11.77,0,0,1-885.43,660H-968.2a11.77,11.77,0,0,1,11.77-11.77h0Z" transform="translate(2404.2 -641.4)"/><path class="cls-15" d="M-1331,1004a52.87,52.87,0,0,0-62.24-41.44,52.87,52.87,0,0,0-41.43,62.24,52.87,52.87,0,0,0,62.22,41.44A52.87,52.87,0,0,0-1331,1004Zm-53.44,53.16,2.19-24.74a18.86,18.86,0,0,0,3-.33,16.86,16.86,0,0,0,2.63-.76l11.54,22a42.83,42.83,0,0,1-19.32,3.82Zm13.28-67a26.91,26.91,0,0,1,8.52,6.52l-7.2,5.2a17.92,17.92,0,0,0-4.42-3.37Zm11.43,10.57a26.61,26.61,0,0,1,3.46,10l-8.82.48v-.36a18,18,0,0,0-1.77-4.92Zm-19.21-4a17.86,17.86,0,0,0-5-.39l-4.88-24.37a42.64,42.64,0,0,1,18.51,1.46ZM-1393.71,973l4.88,24.37a18.21,18.21,0,0,0-4.29,2.17l-17.3-17.9a42.55,42.55,0,0,1,16.71-8.59ZM-1414,985l17.24,17.83a18.43,18.43,0,0,0-2.74,4.57l-24.23-5.61a43.06,43.06,0,0,1,9.73-16.74Zm-10.91,21.55,24.15,5.68a18,18,0,0,0,.23,5.63l.06.23-23.41,8.27c-.35-1.2-.66-2.41-.91-3.65a42.49,42.49,0,0,1-.12-16.13Zm26.2,16.34a18,18,0,0,0,2.81,3.85l-15.21,19.7a42.64,42.64,0,0,1-11-15.2Zm6.71,7a17.88,17.88,0,0,0,4.8,2l-2.19,24.8a42.66,42.66,0,0,1-17.83-7.15Zm31.31,21.11-11.55-22a17.8,17.8,0,0,0,3.66-3.54l21.6,12.3a42.71,42.71,0,0,1-13.71,13.24Zm16.18-17.64-21.6-12.29a18,18,0,0,0,1.22-5l24.84-1.34a42.67,42.67,0,0,1-4.46,18.58Z" transform="translate(2404.2 -641.4)"/><circle class="cls-14" cx="646.71" cy="391.56" r="40.32"/><path class="cls-15" d="M-1199.86,1004a52.88,52.88,0,0,0-62.24-41.46,52.9,52.9,0,0,0-41.46,62.24,52.88,52.88,0,0,0,62.24,41.46h0a52.88,52.88,0,0,0,41.46-62.24Zm-53.44,53.16,2.15-24.74a18.86,18.86,0,0,0,3-.33,17.31,17.31,0,0,0,2.64-.76l11.54,22a42.83,42.83,0,0,1-19.32,3.82Zm13.28-67a26.87,26.87,0,0,1,8.51,6.52l-7.2,5.2a17.51,17.51,0,0,0-4.42-3.37Zm11.43,10.57a26.59,26.59,0,0,1,3.45,10l-8.81.48a.74.74,0,0,0-.06-.36,18,18,0,0,0-1.76-4.92Zm-19.21-4a17.86,17.86,0,0,0-5-.39l-4.89-24.37a42.68,42.68,0,0,1,18.49,1.42ZM-1262.55,973l4.89,24.37a18.28,18.28,0,0,0-4.3,2.17l-17.3-17.9a42.55,42.55,0,0,1,16.71-8.59ZM-1282.88,985l17.25,17.83a18.47,18.47,0,0,0-2.75,4.57l-24.23-5.61a43.06,43.06,0,0,1,9.73-16.74Zm-10.91,21.55,24.16,5.68a18,18,0,0,0,.23,5.63v.23l-23.41,8.27c-.35-1.2-.66-2.41-.91-3.65a42.69,42.69,0,0,1-.07-16.13Zm26.2,16.34a18,18,0,0,0,2.81,3.85L-1280,1046.4a42.64,42.64,0,0,1-11-15.2Zm6.72,7a17.74,17.74,0,0,0,4.8,2l-2.2,24.8a42.85,42.85,0,0,1-17.83-7.15Zm31.3,21.11-11.54-22a18,18,0,0,0,3.65-3.54l21.61,12.3a43,43,0,0,1-13.72,13.24Zm16.19-17.64-21.59-12.29a18,18,0,0,0,1.23-5l24.83-1.34a42.51,42.51,0,0,1-4.47,18.58Z" transform="translate(2404.2 -641.4)"/><path class="cls-15" d="M-1072.63,1004a52.88,52.88,0,0,0-62.24-41.46,52.9,52.9,0,0,0-41.46,62.24,52.88,52.88,0,0,0,62.24,41.46h0a52.88,52.88,0,0,0,41.46-62.24Zm-53.44,53.16,2.19-24.74a18.86,18.86,0,0,0,3-.33,17.31,17.31,0,0,0,2.64-.76l11.54,22a42.83,42.83,0,0,1-19.32,3.82Zm13.28-67a26.87,26.87,0,0,1,8.51,6.52l-7.2,5.2a17.46,17.46,0,0,0-4.41-3.37Zm11.43,10.57a26.59,26.59,0,0,1,3.45,10l-8.81.48a.74.74,0,0,0-.06-.36,18,18,0,0,0-1.76-4.92Zm-19.21-4a17.86,17.86,0,0,0-5-.39l-4.89-24.37a42.67,42.67,0,0,1,18.52,1.46ZM-1135.32,973l4.89,24.37a18.28,18.28,0,0,0-4.3,2.17l-17.3-17.9a42.69,42.69,0,0,1,16.71-8.59ZM-1155.64,985l17.24,17.83a18.47,18.47,0,0,0-2.75,4.57l-24.23-5.61a42.89,42.89,0,0,1,9.74-16.74Zm-10.92,21.55,24.16,5.68a18,18,0,0,0,.23,5.63v.23l-23.41,8.27c-.34-1.2-.66-2.41-.9-3.65a42.69,42.69,0,0,1-.08-16.13Zm26.2,16.34a18,18,0,0,0,2.81,3.85l-15.25,19.62a42.64,42.64,0,0,1-11-15.2Zm6.72,7a17.74,17.74,0,0,0,4.8,2l-2.2,24.8a42.85,42.85,0,0,1-17.83-7.15Zm31.3,21.11-11.54-22a17.75,17.75,0,0,0,3.65-3.54l21.61,12.3a42.84,42.84,0,0,1-13.72,13.24Zm16.19-17.64-21.59-12.29a17.62,17.62,0,0,0,1.23-5l24.83-1.34A42.54,42.54,0,0,1-1086.15,1033.4Z" transform="translate(2404.2 -641.4)"/><path class="cls-15" d="M-942,1004a52.88,52.88,0,0,0-62.24-41.46,52.9,52.9,0,0,0-41.46,62.24,52.88,52.88,0,0,0,62.24,41.46h0A52.88,52.88,0,0,0-942,1004Zm-53.44,53.16,2.19-24.74a18.86,18.86,0,0,0,3-.33,17.31,17.31,0,0,0,2.64-.76l11.54,22a42.83,42.83,0,0,1-19.32,3.82Zm13.28-67a26.87,26.87,0,0,1,8.51,6.52l-7.2,5.2a17.46,17.46,0,0,0-4.41-3.37Zm11.43,10.57a26.59,26.59,0,0,1,3.45,10l-8.81.48a.74.74,0,0,0-.06-.36,18,18,0,0,0-1.76-4.92Zm-19.21-4a17.86,17.86,0,0,0-5-.39L-999.85,972a42.67,42.67,0,0,1,18.52,1.46ZM-1004.71,973l4.89,24.37a18.28,18.28,0,0,0-4.3,2.17l-17.3-17.9a42.55,42.55,0,0,1,16.71-8.59ZM-1025,985l17.24,17.83a18.47,18.47,0,0,0-2.75,4.57l-24.23-5.61a42.89,42.89,0,0,1,9.74-16.74Zm-10.92,21.55,24.16,5.68a18,18,0,0,0,.23,5.63.45.45,0,0,0,0,.23l-23.36,8.27c-.35-1.2-.66-2.41-.91-3.65a42.9,42.9,0,0,1-.12-16.13Zm26.2,16.34a18,18,0,0,0,2.81,3.85l-15.21,19.7a42.64,42.64,0,0,1-11-15.2Zm6.72,7a17.88,17.88,0,0,0,4.8,2l-2.2,24.8a42.85,42.85,0,0,1-17.83-7.15Zm31.3,21.11-11.54-22a18,18,0,0,0,3.65-3.54l21.61,12.3A42.84,42.84,0,0,1-971.73,1051Zm16.19-17.64-21.61-12.29a17.62,17.62,0,0,0,1.23-5l24.83-1.34a42.66,42.66,0,0,1-4.45,18.58Z" transform="translate(2404.2 -641.4)"/><path class="cls-15" d="M-807.75,1004A52.87,52.87,0,0,0-870,962.57a52.87,52.87,0,0,0-41.44,62.24,52.87,52.87,0,0,0,62.24,41.45h0A52.87,52.87,0,0,0-807.75,1004Zm-53.4,53.16,2.19-24.74a18.86,18.86,0,0,0,3-.33,17.31,17.31,0,0,0,2.64-.76l11.54,22a42.83,42.83,0,0,1-19.32,3.82Zm13.28-67a26.87,26.87,0,0,1,8.51,6.52l-7.2,5.2a17.46,17.46,0,0,0-4.41-3.37Zm11.43,10.57a26.59,26.59,0,0,1,3.45,10l-8.81.48a.74.74,0,0,0-.06-.36,18,18,0,0,0-1.76-4.92Zm-19.21-4a17.86,17.86,0,0,0-5-.39L-865.54,972A42.67,42.67,0,0,1-847,973.44ZM-870.4,973l4.89,24.37a18.28,18.28,0,0,0-4.3,2.17l-17.3-17.9A42.73,42.73,0,0,1-870.44,973ZM-890.72,985l17.24,17.83a18.61,18.61,0,0,0-2.72,4.53l-24.27-5.61a42.89,42.89,0,0,1,9.74-16.74Zm-10.92,21.55,24.16,5.68a18,18,0,0,0,.23,5.63.45.45,0,0,0,0,.23l-23.36,8.27c-.34-1.2-.66-2.41-.9-3.65a42.69,42.69,0,0,1-.17-16.13Zm26.2,16.34a18,18,0,0,0,2.81,3.85l-15.25,19.62a42.64,42.64,0,0,1-11-15.2Zm6.72,7a17.74,17.74,0,0,0,4.8,2l-2.2,24.8a42.85,42.85,0,0,1-17.83-7.15Zm31.3,21.11L-849,1029a17.75,17.75,0,0,0,3.65-3.54l21.61,12.3A42.77,42.77,0,0,1-837.46,1051Zm16.22-17.64-21.59-12.29a17.62,17.62,0,0,0,1.23-5l24.83-1.34a42.69,42.69,0,0,1-4.51,18.58Z" transform="translate(2404.2 -641.4)"/><path class="cls-15" d="M-1757.49,998.54a34.42,34.42,0,0,0-34.43,34.41,34.43,34.43,0,0,0,34.41,34.43,34.41,34.41,0,0,0,34.43-34.41h0A34.43,34.43,0,0,0-1757.49,998.54Zm0,62.19a27.78,27.78,0,0,1-27.78-27.78,27.78,27.78,0,0,1,27.78-27.78,27.78,27.78,0,0,1,27.78,27.78,27.78,27.78,0,0,1-27.78,27.78Z" transform="translate(2404.2 -641.4)"/><rect class="cls-15" x="635.21" y="376.56" width="23" height="30" rx="5.51"/><circle class="cls-14" cx="646.71" cy="391.56" r="9"/><circle class="cls-14" cx="-1903.96" cy="1032.98" r="40.32" transform="translate(122.45 -1741.35) rotate(-71.56)"/><path class="cls-15" d="M-1904,998.54a34.42,34.42,0,0,0-34.42,34.42,34.42,34.42,0,0,0,34.42,34.42,34.42,34.42,0,0,0,34.42-34.42h0A34.42,34.42,0,0,0-1904,998.54Zm0,62.19a27.79,27.79,0,0,1-27.77-27.79,27.78,27.78,0,0,1,27.79-27.77A27.78,27.78,0,0,1-1876.2,1033a27.78,27.78,0,0,1-27.78,27.78Z" transform="translate(2404.2 -641.4)"/><rect class="cls-15" x="488.72" y="376.56" width="23" height="30" rx="5.51"/><circle class="cls-14" cx="500.22" cy="391.56" r="9"/><rect class="cls-14" x="168.89" y="347.92" width="101.39" height="68.34"/><circle class="cls-14" cx="294.22" cy="391.56" r="40.32"/><path class="cls-15" d="M-2110,998.54a34.42,34.42,0,0,0-34.42,34.42,34.42,34.42,0,0,0,34.42,34.42,34.42,34.42,0,0,0,34.42-34.42h0A34.42,34.42,0,0,0-2110,998.54Zm0,62.19a27.79,27.79,0,0,1-27.77-27.79,27.78,27.78,0,0,1,27.79-27.77A27.78,27.78,0,0,1-2082.2,1033h0a27.78,27.78,0,0,1-27.78,27.78Z" transform="translate(2404.2 -641.4)"/><rect class="cls-15" x="282.72" y="376.56" width="23" height="30" rx="5.51"/><circle class="cls-14" cx="294.22" cy="391.56" r="9"/><circle class="cls-14" cx="147.72" cy="391.56" r="40.32"/><path class="cls-15" d="M-2256.48,998.54a34.42,34.42,0,0,0-34.43,34.41,34.43,34.43,0,0,0,34.41,34.43,34.41,34.41,0,0,0,34.43-34.41h0a34.42,34.42,0,0,0-34.41-34.43Zm0,62.19a27.78,27.78,0,0,1-27.78-27.78,27.78,27.78,0,0,1,27.78-27.78A27.78,27.78,0,0,1-2228.7,1033h0a27.78,27.78,0,0,1-27.78,27.78Z" transform="translate(2404.2 -641.4)"/><rect class="cls-15" x="136.22" y="376.56" width="23" height="30" rx="5.51"/><circle class="cls-14" cx="147.72" cy="391.56" r="9"/><rect class="cls-60" x="703.16" y="15.86" width="50.78" height="20.45"/><rect class="cls-61" x="1287.8" y="16.92" width="83.1" height="2.84"/><rect class="cls-62" x="1435.84" y="16.92" width="83.1" height="2.84"/><rect class="cls-63" x="1197.27" y="16.92" width="83.1" height="2.84"/><rect class="cls-18" x="974" y="152.84" width="770.11" height="4.14"/><rect class="cls-18" x="974" y="191.33" width="770.11" height="4.14"/><g id="Layer_5-2" data-name="Layer 5"><rect class="cls-18" x="988.75" y="363.81" width="532.75" height="9.63"/><rect class="cls-18" x="1453.28" y="340.09" width="176.93" height="8.4"/><rect class="cls-18" x="1536.2" y="376.42" width="94.01" height="5.36"/><rect class="cls-18" x="1534.58" y="306.71" width="8.15" height="76.39"/><rect class="cls-18" x="1536.2" y="314.91" width="94.01" height="2.68"/><rect class="cls-18" x="1426.95" y="302.5" width="114.79" height="5.54"/><circle class="cls-18" cx="990.03" cy="368.62" r="10.01"/><circle class="cls-18" cx="1122.47" cy="368.62" r="10.01"/><circle class="cls-18" cx="1254.9" cy="368.62" r="10.01"/><circle class="cls-18" cx="1387.33" cy="368.62" r="10.01"/><circle class="cls-18" cx="1287.53" cy="388.63" r="10.01"/><circle class="cls-18" cx="1451.63" cy="344.9" r="10.01"/><circle class="cls-18" cx="1519.77" cy="368.62" r="10.01"/><rect class="cls-18" x="-1118.35" y="1006.51" width="164.1" height="7.06" transform="translate(2119.59 -867.91) rotate(-14.44)"/><rect class="cls-18" x="1519.77" y="334.89" width="40.42" height="20.01"/><rect class="cls-18" x="1527.67" y="350.69" width="22.8" height="20.56"/><rect class="cls-18" x="1431.54" y="275.07" width="12.8" height="31.64"/><rect class="cls-18" x="-959.34" y="941.66" width="8.26" height="42.08" transform="translate(2008.29 -914.18) rotate(-20.42)"/><rect class="cls-18" x="-971.19" y="883.32" width="8.26" height="37.57" transform="translate(2028.69 -922.12) rotate(-20.42)"/><rect class="cls-18" x="1532.53" y="371.25" width="13.46" height="15.7"/></g></g></g></svg>